<?xml version="1.0" encoding="UTF-8"?>
<svg xmlns="http://www.w3.org/2000/svg" xmlns:xlink="http://www.w3.org/1999/xlink" width="1384.98pt" height="241.98pt" viewBox="0 0 1384.98 241.98" version="1.2">
<defs>
<clipPath id="clip1">
  <path d="M 316.972656 200 L 335 200 L 335 217 L 316.972656 217 Z M 316.972656 200 "/>
</clipPath>
<clipPath id="clip2">
  <path d="M 402.886719 200 L 421 200 L 421 217 L 402.886719 217 Z M 402.886719 200 "/>
</clipPath>
<clipPath id="clip3">
  <path d="M 380.257812 29.109375 L 394 29.109375 L 394 55 L 380.257812 55 Z M 380.257812 29.109375 "/>
</clipPath>
<clipPath id="clip4">
  <path d="M 740.671875 200 L 758 200 L 758 217 L 740.671875 217 Z M 740.671875 200 "/>
</clipPath>
<clipPath id="clip5">
  <path d="M 825.765625 200 L 844 200 L 844 217 L 825.765625 217 Z M 825.765625 200 "/>
</clipPath>
<clipPath id="clip6">
  <path d="M 804.769531 29.109375 L 818 29.109375 L 818 55 L 804.769531 55 Z M 804.769531 29.109375 "/>
</clipPath>
<clipPath id="clip7">
  <path d="M 1083.140625 86 L 1102 86 L 1102 103 L 1083.140625 103 Z M 1083.140625 86 "/>
</clipPath>
</defs>
<g id="surface1">
<path style=" stroke:none;fill-rule:nonzero;fill:rgb(0%,0%,0%);fill-opacity:1;" d="M 18.714844 173.8125 L 1347.328125 173.8125 L 1347.328125 176.007812 L 18.714844 176.007812 C 18.105469 176.007812 17.613281 175.515625 17.613281 174.910156 C 17.613281 174.304688 18.105469 173.8125 18.714844 173.8125 Z M 1364.871094 174.910156 L 1342.910156 168.328125 L 1347.300781 173.8125 L 1347.300781 176.007812 L 1342.910156 181.492188 Z M 1364.871094 174.910156 "/>
<path style=" stroke:none;fill-rule:evenodd;fill:rgb(0%,0%,0%);fill-opacity:1;" d="M 335.96875 174.910156 C 335.96875 178.09375 333.390625 180.671875 330.203125 180.671875 C 327.019531 180.671875 324.441406 178.09375 324.441406 174.910156 C 324.441406 171.726562 327.019531 169.148438 330.203125 169.148438 C 333.390625 169.148438 335.96875 171.726562 335.96875 174.910156 Z M 335.96875 174.910156 "/>
<g clip-path="url(#clip1)" clip-rule="nonzero">
<path style=" stroke:none;fill-rule:evenodd;fill:rgb(0%,0%,0%);fill-opacity:1;" d="M 334.152344 203.238281 C 334.023438 203.757812 333.757812 204.144531 333.363281 204.402344 C 332.964844 204.660156 332.566406 204.789062 332.164062 204.789062 C 331.75 204.789062 331.40625 204.65625 331.132812 204.394531 C 330.933594 204.199219 330.824219 203.945312 330.8125 203.636719 C 330.8125 203.511719 330.835938 203.347656 330.882812 203.152344 C 331.015625 202.71875 331.214844 202.386719 331.488281 202.164062 C 331.761719 201.9375 331.949219 201.808594 332.058594 201.773438 C 331.832031 201.601562 331.371094 201.515625 330.671875 201.515625 C 330.054688 201.515625 329.503906 201.835938 329.019531 202.472656 C 328.535156 203.109375 328.171875 203.878906 327.9375 204.773438 L 326.300781 211.078125 C 326.136719 211.710938 326.011719 212.316406 325.929688 212.886719 C 325.882812 213.082031 325.859375 213.253906 325.859375 213.402344 C 325.859375 213.761719 325.917969 214.101562 326.035156 214.421875 C 326.15625 214.765625 326.332031 215.042969 326.570312 215.25 C 326.808594 215.457031 327.109375 215.558594 327.476562 215.558594 C 327.949219 215.558594 328.40625 215.4375 328.84375 215.1875 C 329.28125 214.941406 329.683594 214.609375 330.050781 214.1875 C 330.417969 213.769531 330.742188 213.28125 331.027344 212.726562 C 331.3125 212.167969 331.535156 211.597656 331.703125 211.007812 C 331.773438 210.710938 331.972656 210.5625 332.304688 210.5625 L 332.710938 210.5625 C 333.019531 210.5625 333.175781 210.675781 333.175781 210.90625 C 333.175781 210.976562 333.15625 211.039062 333.121094 211.09375 C 332.957031 211.785156 332.6875 212.464844 332.316406 213.136719 C 331.941406 213.808594 331.507812 214.40625 331.007812 214.921875 C 330.511719 215.4375 329.945312 215.863281 329.3125 216.195312 C 328.679688 216.527344 328 216.695312 327.28125 216.695312 C 326.546875 216.695312 325.914062 216.539062 325.378906 216.222656 C 324.847656 215.90625 324.414062 215.496094 324.082031 214.988281 C 323.976562 214.863281 323.894531 214.734375 323.835938 214.601562 C 323.777344 214.472656 323.757812 214.449219 323.78125 214.542969 C 323.496094 215.011719 323.046875 215.492188 322.433594 215.972656 C 321.816406 216.453125 321.105469 216.695312 320.300781 216.695312 C 319.851562 216.695312 319.40625 216.636719 318.96875 216.523438 C 318.53125 216.410156 318.148438 216.230469 317.824219 215.988281 C 317.496094 215.75 317.253906 215.457031 317.085938 215.109375 C 317.003906 214.90625 316.964844 214.679688 316.960938 214.4375 C 316.964844 214.265625 316.988281 214.066406 317.03125 213.835938 C 317.164062 213.320312 317.429688 212.929688 317.832031 212.671875 C 318.234375 212.414062 318.636719 212.285156 319.039062 212.285156 C 319.453125 212.285156 319.808594 212.417969 320.105469 212.679688 C 320.308594 212.875 320.40625 213.128906 320.40625 213.4375 C 320.40625 213.601562 320.382812 213.761719 320.335938 213.921875 C 320.230469 214.324219 320.039062 214.648438 319.757812 214.894531 C 319.480469 215.144531 319.28125 215.277344 319.164062 215.300781 C 319.390625 215.484375 319.84375 215.570312 320.53125 215.558594 C 321.148438 215.558594 321.703125 215.238281 322.199219 214.59375 C 322.699219 213.949219 323.058594 213.179688 323.285156 212.285156 L 324.933594 205.945312 C 325.101562 205.347656 325.230469 204.761719 325.328125 204.1875 C 325.351562 204.003906 325.363281 203.832031 325.363281 203.667969 C 325.363281 203.3125 325.308594 202.980469 325.199219 202.667969 C 325.082031 202.328125 324.902344 202.050781 324.652344 201.835938 C 324.402344 201.625 324.09375 201.515625 323.726562 201.515625 C 323.253906 201.515625 322.792969 201.640625 322.351562 201.886719 C 321.90625 202.136719 321.5 202.464844 321.136719 202.878906 C 320.769531 203.292969 320.445312 203.773438 320.160156 204.316406 C 319.875 204.863281 319.667969 205.441406 319.535156 206.046875 C 319.40625 206.359375 319.1875 206.519531 318.878906 206.53125 L 318.488281 206.53125 C 318.207031 206.53125 318.0625 206.386719 318.0625 206.097656 L 318.0625 205.976562 C 318.242188 205.269531 318.515625 204.574219 318.878906 203.902344 C 319.246094 203.230469 319.683594 202.636719 320.195312 202.121094 C 320.703125 201.601562 321.273438 201.179688 321.898438 200.851562 C 322.527344 200.527344 323.207031 200.363281 323.941406 200.363281 C 324.652344 200.363281 325.277344 200.519531 325.824219 200.828125 C 326.367188 201.136719 326.8125 201.550781 327.15625 202.066406 C 327.226562 202.195312 327.292969 202.328125 327.351562 202.472656 C 327.410156 202.617188 327.425781 202.652344 327.402344 202.582031 C 327.699219 202.078125 328.15625 201.582031 328.769531 201.09375 C 329.386719 200.605469 330.089844 200.363281 330.882812 200.363281 C 331.335938 200.363281 331.78125 200.417969 332.226562 200.527344 C 332.667969 200.636719 333.054688 200.808594 333.378906 201.050781 C 333.707031 201.292969 333.945312 201.589844 334.097656 201.945312 C 334.183594 202.152344 334.222656 202.390625 334.222656 202.652344 C 334.222656 202.824219 334.199219 203.019531 334.152344 203.238281 Z M 334.152344 203.238281 "/>
</g>
<path style=" stroke:none;fill-rule:evenodd;fill:rgb(0%,0%,0%);fill-opacity:1;" d="M 343.871094 221.304688 C 342.507812 221.265625 341.175781 221.246094 339.886719 221.246094 C 338.59375 221.246094 337.265625 221.265625 335.898438 221.304688 L 335.898438 220.472656 L 336.667969 220.472656 C 336.914062 220.476562 337.144531 220.472656 337.359375 220.464844 C 337.574219 220.457031 337.777344 220.441406 337.96875 220.417969 C 338.164062 220.390625 338.332031 220.367188 338.472656 220.339844 C 338.589844 220.320312 338.6875 220.261719 338.765625 220.160156 C 338.84375 220.0625 338.882812 219.949219 338.882812 219.828125 L 338.882812 208.953125 C 338.511719 209.113281 338.054688 209.238281 337.515625 209.320312 C 336.972656 209.40625 336.378906 209.445312 335.730469 209.445312 L 335.730469 208.625 C 336.621094 208.625 337.445312 208.53125 338.199219 208.339844 C 338.953125 208.152344 339.605469 207.796875 340.152344 207.273438 L 340.5 207.273438 C 340.742188 207.273438 340.867188 207.382812 340.867188 207.59375 L 340.867188 219.828125 C 340.867188 219.957031 340.902344 220.070312 340.976562 220.164062 C 341.050781 220.261719 341.160156 220.320312 341.300781 220.339844 C 341.417969 220.367188 341.570312 220.390625 341.757812 220.417969 C 341.941406 220.441406 342.152344 220.457031 342.386719 220.464844 C 342.617188 220.472656 342.847656 220.476562 343.070312 220.472656 L 343.871094 220.472656 Z M 343.871094 221.304688 "/>
<path style=" stroke:none;fill-rule:evenodd;fill:rgb(0%,0%,0%);fill-opacity:1;" d="M 468.152344 174.910156 C 468.152344 178.09375 465.570312 180.671875 462.386719 180.671875 C 459.203125 180.671875 456.621094 178.09375 456.621094 174.910156 C 456.621094 171.726562 459.203125 169.148438 462.386719 169.148438 C 465.570312 169.148438 468.152344 171.726562 468.152344 174.910156 Z M 468.152344 174.910156 "/>
<g clip-path="url(#clip2)" clip-rule="nonzero">
<path style=" stroke:none;fill-rule:evenodd;fill:rgb(0%,0%,0%);fill-opacity:1;" d="M 420.066406 203.238281 C 419.9375 203.757812 419.671875 204.144531 419.277344 204.402344 C 418.878906 204.660156 418.480469 204.789062 418.078125 204.789062 C 417.664062 204.789062 417.320312 204.65625 417.046875 204.394531 C 416.847656 204.199219 416.742188 203.945312 416.730469 203.632812 C 416.730469 203.511719 416.753906 203.347656 416.800781 203.152344 C 416.929688 202.71875 417.132812 202.386719 417.402344 202.164062 C 417.675781 201.941406 417.863281 201.808594 417.972656 201.773438 C 417.746094 201.601562 417.285156 201.519531 416.585938 201.515625 C 415.972656 201.519531 415.421875 201.835938 414.933594 202.472656 C 414.449219 203.113281 414.089844 203.875 413.851562 204.769531 L 412.21875 211.078125 C 412.050781 211.710938 411.925781 212.316406 411.84375 212.886719 C 411.796875 213.082031 411.773438 213.253906 411.773438 213.40625 C 411.773438 213.761719 411.832031 214.101562 411.953125 214.421875 C 412.070312 214.765625 412.246094 215.042969 412.484375 215.25 C 412.722656 215.457031 413.023438 215.558594 413.390625 215.558594 C 413.863281 215.558594 414.320312 215.4375 414.757812 215.1875 C 415.195312 214.941406 415.597656 214.609375 415.964844 214.191406 C 416.332031 213.769531 416.65625 213.28125 416.941406 212.726562 C 417.226562 212.167969 417.449219 211.597656 417.617188 211.007812 C 417.6875 210.710938 417.890625 210.5625 418.21875 210.5625 L 418.628906 210.5625 C 418.9375 210.5625 419.089844 210.675781 419.089844 210.90625 C 419.089844 210.976562 419.074219 211.039062 419.039062 211.09375 C 418.871094 211.785156 418.601562 212.464844 418.230469 213.136719 C 417.855469 213.808594 417.421875 214.40625 416.925781 214.921875 C 416.425781 215.4375 415.863281 215.863281 415.226562 216.195312 C 414.59375 216.53125 413.917969 216.695312 413.195312 216.695312 C 412.460938 216.695312 411.828125 216.539062 411.296875 216.222656 C 410.761719 215.90625 410.328125 215.496094 409.996094 214.988281 C 409.890625 214.863281 409.808594 214.734375 409.75 214.601562 C 409.691406 214.472656 409.671875 214.453125 409.695312 214.542969 C 409.414062 215.011719 408.964844 215.492188 408.347656 215.972656 C 407.730469 216.457031 407.019531 216.695312 406.214844 216.695312 C 405.765625 216.695312 405.320312 216.636719 404.882812 216.523438 C 404.445312 216.410156 404.0625 216.230469 403.738281 215.988281 C 403.414062 215.75 403.167969 215.457031 403 215.109375 C 402.917969 214.90625 402.878906 214.679688 402.875 214.4375 C 402.878906 214.265625 402.902344 214.066406 402.949219 213.835938 C 403.078125 213.320312 403.34375 212.933594 403.746094 212.671875 C 404.152344 212.414062 404.550781 212.285156 404.953125 212.285156 C 405.371094 212.285156 405.726562 212.417969 406.019531 212.679688 C 406.222656 212.878906 406.320312 213.128906 406.320312 213.4375 C 406.320312 213.601562 406.296875 213.761719 406.25 213.921875 C 406.144531 214.324219 405.953125 214.648438 405.675781 214.894531 C 405.394531 215.144531 405.195312 215.277344 405.078125 215.300781 C 405.304688 215.484375 405.757812 215.570312 406.445312 215.558594 C 407.0625 215.558594 407.617188 215.238281 408.113281 214.59375 C 408.613281 213.953125 408.972656 213.179688 409.199219 212.285156 L 410.851562 205.941406 C 411.015625 205.347656 411.144531 204.761719 411.242188 204.1875 C 411.265625 204.003906 411.277344 203.832031 411.277344 203.667969 C 411.277344 203.3125 411.222656 202.980469 411.117188 202.667969 C 411 202.328125 410.816406 202.050781 410.566406 201.835938 C 410.316406 201.625 410.007812 201.519531 409.644531 201.515625 C 409.167969 201.519531 408.710938 201.640625 408.265625 201.886719 C 407.820312 202.132812 407.417969 202.460938 407.050781 202.878906 C 406.683594 203.292969 406.359375 203.769531 406.074219 204.316406 C 405.789062 204.863281 405.582031 205.4375 405.453125 206.046875 C 405.320312 206.359375 405.101562 206.519531 404.796875 206.53125 L 404.402344 206.53125 C 404.121094 206.53125 403.976562 206.386719 403.976562 206.101562 L 403.976562 205.976562 C 404.15625 205.265625 404.429688 204.574219 404.796875 203.902344 C 405.160156 203.230469 405.601562 202.636719 406.109375 202.121094 C 406.617188 201.601562 407.1875 201.179688 407.8125 200.851562 C 408.441406 200.527344 409.121094 200.363281 409.855469 200.359375 C 410.566406 200.363281 411.195312 200.519531 411.738281 200.828125 C 412.285156 201.136719 412.726562 201.550781 413.070312 202.066406 C 413.140625 202.195312 413.207031 202.332031 413.265625 202.472656 C 413.324219 202.617188 413.34375 202.65625 413.320312 202.585938 C 413.613281 202.082031 414.070312 201.585938 414.6875 201.09375 C 415.304688 200.605469 416.007812 200.363281 416.800781 200.359375 C 417.25 200.363281 417.695312 200.417969 418.140625 200.527344 C 418.585938 200.636719 418.96875 200.8125 419.296875 201.054688 C 419.621094 201.296875 419.859375 201.589844 420.015625 201.945312 C 420.097656 202.15625 420.136719 202.390625 420.136719 202.652344 C 420.136719 202.828125 420.113281 203.019531 420.066406 203.238281 Z M 420.066406 203.238281 "/>
</g>
<path style=" stroke:none;fill-rule:evenodd;fill:rgb(0%,0%,0%);fill-opacity:1;" d="M 429.789062 221.304688 C 428.421875 221.265625 427.09375 221.246094 425.800781 221.246094 C 424.507812 221.246094 423.179688 221.265625 421.8125 221.304688 L 421.8125 220.472656 L 422.582031 220.472656 C 422.828125 220.476562 423.058594 220.472656 423.273438 220.464844 C 423.488281 220.460938 423.691406 220.441406 423.886719 220.417969 C 424.078125 220.390625 424.246094 220.367188 424.386719 220.339844 C 424.503906 220.320312 424.605469 220.261719 424.679688 220.160156 C 424.761719 220.0625 424.796875 219.949219 424.796875 219.828125 L 424.796875 208.953125 C 424.429688 209.117188 423.972656 209.238281 423.429688 209.320312 C 422.886719 209.40625 422.292969 209.445312 421.648438 209.445312 L 421.648438 208.625 C 422.539062 208.625 423.359375 208.53125 424.113281 208.339844 C 424.867188 208.152344 425.519531 207.796875 426.070312 207.273438 L 426.414062 207.273438 C 426.660156 207.277344 426.78125 207.382812 426.78125 207.59375 L 426.78125 219.828125 C 426.78125 219.957031 426.816406 220.070312 426.890625 220.167969 C 426.964844 220.261719 427.074219 220.320312 427.214844 220.339844 C 427.335938 220.367188 427.488281 220.390625 427.671875 220.417969 C 427.855469 220.441406 428.066406 220.460938 428.300781 220.464844 C 428.535156 220.472656 428.761719 220.476562 428.984375 220.472656 L 429.789062 220.472656 Z M 429.789062 221.304688 "/>
<path style="fill:none;stroke-width:0.3216;stroke-linecap:round;stroke-linejoin:miter;stroke:rgb(0%,0%,0%);stroke-opacity:1;stroke-miterlimit:10;" d="M 8.597513 10.207638 L 14.225712 10.207638 " transform="matrix(4.391947,0,-0.00000238303,-4.38893,402.88864,250.503737)"/>
<path style="fill:none;stroke-width:0.3216;stroke-linecap:round;stroke-linejoin:miter;stroke:rgb(0%,0%,0%);stroke-opacity:1;stroke-miterlimit:10;" d="M 11.411614 13.021892 L 11.411611 7.394275 " transform="matrix(4.391947,0,-0.00000238303,-4.38893,402.88864,250.503737)"/>
<path style=" stroke:none;fill-rule:evenodd;fill:rgb(0%,0%,0%);fill-opacity:1;" d="M 488.171875 216.679688 L 488.171875 214.628906 C 487.792969 215.097656 487.183594 215.558594 486.347656 216 C 485.519531 216.441406 484.582031 216.660156 483.554688 216.660156 C 482.464844 216.660156 481.433594 216.449219 480.464844 216.023438 C 479.492188 215.601562 478.652344 215.011719 477.941406 214.265625 C 477.175781 213.460938 476.589844 212.574219 476.195312 211.597656 C 475.800781 210.621094 475.597656 209.59375 475.597656 208.511719 C 475.597656 207.433594 475.808594 206.394531 476.222656 205.394531 C 476.636719 204.394531 477.238281 203.511719 478.035156 202.738281 C 478.824219 201.972656 479.730469 201.378906 480.75 200.957031 C 481.769531 200.539062 482.832031 200.328125 483.945312 200.324219 C 484.902344 200.328125 485.777344 200.53125 486.5625 200.941406 C 487.351562 201.347656 487.90625 201.765625 488.242188 202.1875 L 488.242188 195.019531 C 488.242188 194.726562 488.230469 194.433594 488.199219 194.148438 C 488.167969 193.867188 488.054688 193.652344 487.851562 193.503906 C 487.648438 193.367188 487.328125 193.289062 486.894531 193.261719 C 486.453125 193.242188 485.976562 193.226562 485.453125 193.226562 L 485.453125 191.832031 L 491.046875 191.421875 L 491.046875 213.058594 C 491.046875 213.359375 491.0625 213.648438 491.09375 213.921875 C 491.121094 214.199219 491.242188 214.40625 491.449219 214.542969 C 491.652344 214.679688 491.976562 214.765625 492.414062 214.792969 C 492.851562 214.820312 493.335938 214.835938 493.871094 214.835938 L 493.871094 216.246094 Z M 488.171875 204.132812 C 487.78125 203.367188 487.222656 202.730469 486.503906 202.230469 C 485.777344 201.734375 484.953125 201.484375 484.015625 201.480469 C 483.269531 201.484375 482.570312 201.660156 481.921875 202.007812 C 481.273438 202.355469 480.710938 202.84375 480.234375 203.464844 C 479.710938 204.164062 479.378906 204.949219 479.230469 205.816406 C 479.085938 206.683594 479.011719 207.582031 479.011719 208.511719 C 479.011719 209.441406 479.074219 210.332031 479.203125 211.183594 C 479.335938 212.035156 479.640625 212.832031 480.125 213.578125 C 480.53125 214.164062 481.042969 214.636719 481.664062 214.992188 C 482.285156 215.347656 482.941406 215.523438 483.625 215.523438 C 484.65625 215.523438 485.566406 215.242188 486.359375 214.671875 C 487.152344 214.101562 487.757812 213.375 488.171875 212.492188 Z M 488.171875 204.132812 "/>
<path style=" stroke:none;fill-rule:evenodd;fill:rgb(0%,0%,0%);fill-opacity:1;" d="M 512.371094 203.238281 C 512.242188 203.757812 511.980469 204.144531 511.582031 204.402344 C 511.183594 204.660156 510.785156 204.789062 510.386719 204.789062 C 509.96875 204.789062 509.625 204.65625 509.355469 204.394531 C 509.152344 204.199219 509.046875 203.945312 509.03125 203.632812 C 509.03125 203.511719 509.058594 203.347656 509.101562 203.152344 C 509.234375 202.71875 509.4375 202.386719 509.710938 202.164062 C 509.980469 201.941406 510.171875 201.808594 510.277344 201.773438 C 510.050781 201.601562 509.589844 201.519531 508.894531 201.515625 C 508.277344 201.519531 507.722656 201.835938 507.242188 202.472656 C 506.757812 203.113281 506.394531 203.875 506.15625 204.769531 L 504.523438 211.078125 C 504.355469 211.710938 504.234375 212.316406 504.148438 212.886719 C 504.101562 213.082031 504.078125 213.253906 504.078125 213.40625 C 504.078125 213.761719 504.140625 214.101562 504.257812 214.421875 C 504.375 214.765625 504.554688 215.042969 504.789062 215.25 C 505.027344 215.457031 505.332031 215.558594 505.695312 215.558594 C 506.167969 215.558594 506.625 215.4375 507.0625 215.1875 C 507.5 214.941406 507.90625 214.609375 508.269531 214.191406 C 508.636719 213.769531 508.964844 213.28125 509.25 212.726562 C 509.535156 212.167969 509.757812 211.597656 509.921875 211.007812 C 509.996094 210.710938 510.191406 210.5625 510.527344 210.5625 L 510.933594 210.5625 C 511.242188 210.5625 511.394531 210.675781 511.394531 210.90625 C 511.394531 210.976562 511.378906 211.039062 511.34375 211.09375 C 511.175781 211.785156 510.910156 212.464844 510.535156 213.136719 C 510.160156 213.808594 509.726562 214.40625 509.230469 214.921875 C 508.730469 215.4375 508.167969 215.863281 507.535156 216.195312 C 506.898438 216.53125 506.222656 216.695312 505.503906 216.695312 C 504.769531 216.695312 504.132812 216.539062 503.601562 216.222656 C 503.070312 215.90625 502.632812 215.496094 502.304688 214.988281 C 502.199219 214.863281 502.117188 214.734375 502.054688 214.601562 C 501.996094 214.472656 501.980469 214.453125 502 214.542969 C 501.714844 215.011719 501.269531 215.492188 500.652344 215.972656 C 500.039062 216.457031 499.328125 216.695312 498.519531 216.695312 C 498.070312 216.695312 497.628906 216.636719 497.1875 216.523438 C 496.753906 216.410156 496.367188 216.230469 496.042969 215.988281 C 495.71875 215.75 495.472656 215.457031 495.308594 215.109375 C 495.226562 214.90625 495.183594 214.679688 495.179688 214.4375 C 495.183594 214.265625 495.207031 214.066406 495.253906 213.835938 C 495.382812 213.320312 495.652344 212.933594 496.054688 212.671875 C 496.453125 212.414062 496.859375 212.285156 497.257812 212.285156 C 497.675781 212.285156 498.03125 212.417969 498.324219 212.679688 C 498.527344 212.878906 498.628906 213.128906 498.628906 213.4375 C 498.628906 213.601562 498.601562 213.761719 498.558594 213.921875 C 498.453125 214.324219 498.257812 214.648438 497.980469 214.894531 C 497.703125 215.144531 497.503906 215.277344 497.386719 215.300781 C 497.609375 215.484375 498.066406 215.570312 498.75 215.558594 C 499.367188 215.558594 499.925781 215.238281 500.421875 214.59375 C 500.917969 213.953125 501.28125 213.179688 501.503906 212.285156 L 503.15625 205.941406 C 503.324219 205.347656 503.449219 204.761719 503.546875 204.1875 C 503.570312 204.003906 503.582031 203.832031 503.582031 203.667969 C 503.582031 203.3125 503.53125 202.980469 503.421875 202.667969 C 503.304688 202.328125 503.121094 202.050781 502.871094 201.835938 C 502.625 201.625 502.3125 201.519531 501.949219 201.515625 C 501.476562 201.519531 501.011719 201.640625 500.570312 201.886719 C 500.125 202.132812 499.722656 202.460938 499.359375 202.878906 C 498.988281 203.292969 498.664062 203.769531 498.378906 204.316406 C 498.097656 204.863281 497.886719 205.4375 497.753906 206.046875 C 497.628906 206.359375 497.40625 206.519531 497.101562 206.53125 L 496.710938 206.53125 C 496.425781 206.53125 496.285156 206.386719 496.285156 206.101562 L 496.285156 205.976562 C 496.464844 205.265625 496.734375 204.574219 497.101562 203.902344 C 497.464844 203.230469 497.902344 202.636719 498.414062 202.121094 C 498.921875 201.601562 499.492188 201.179688 500.121094 200.851562 C 500.746094 200.527344 501.425781 200.363281 502.160156 200.359375 C 502.871094 200.363281 503.5 200.519531 504.042969 200.828125 C 504.589844 201.136719 505.03125 201.550781 505.375 202.066406 C 505.445312 202.195312 505.511719 202.332031 505.574219 202.472656 C 505.628906 202.617188 505.648438 202.65625 505.625 202.585938 C 505.917969 202.082031 506.375 201.585938 506.992188 201.09375 C 507.609375 200.605469 508.3125 200.363281 509.101562 200.359375 C 509.554688 200.363281 510.003906 200.417969 510.449219 200.527344 C 510.890625 200.636719 511.277344 200.8125 511.601562 201.054688 C 511.925781 201.296875 512.164062 201.589844 512.320312 201.945312 C 512.402344 202.15625 512.445312 202.390625 512.445312 202.652344 C 512.445312 202.828125 512.417969 203.019531 512.371094 203.238281 Z M 512.371094 203.238281 "/>
<path style=" stroke:none;fill-rule:evenodd;fill:rgb(0%,0%,0%);fill-opacity:1;" d="M 522.324219 221.304688 C 520.957031 221.265625 519.625 221.246094 518.335938 221.246094 C 517.042969 221.246094 515.714844 221.265625 514.347656 221.304688 L 514.347656 220.472656 L 515.117188 220.472656 C 515.363281 220.476562 515.589844 220.472656 515.804688 220.464844 C 516.019531 220.460938 516.226562 220.441406 516.421875 220.417969 C 516.613281 220.390625 516.78125 220.367188 516.921875 220.339844 C 517.039062 220.320312 517.136719 220.261719 517.214844 220.160156 C 517.292969 220.0625 517.332031 219.949219 517.332031 219.828125 L 517.332031 208.953125 C 516.960938 209.117188 516.503906 209.238281 515.964844 209.320312 C 515.417969 209.40625 514.824219 209.445312 514.179688 209.445312 L 514.179688 208.625 C 515.070312 208.625 515.894531 208.53125 516.648438 208.339844 C 517.398438 208.152344 518.054688 207.796875 518.601562 207.273438 L 518.945312 207.273438 C 519.191406 207.277344 519.316406 207.382812 519.316406 207.59375 L 519.316406 219.828125 C 519.316406 219.957031 519.351562 220.070312 519.425781 220.167969 C 519.5 220.261719 519.609375 220.320312 519.75 220.339844 C 519.867188 220.367188 520.023438 220.390625 520.207031 220.417969 C 520.390625 220.441406 520.601562 220.460938 520.835938 220.464844 C 521.066406 220.472656 521.296875 220.476562 521.519531 220.472656 L 522.324219 220.472656 Z M 522.324219 221.304688 "/>
<path style=" stroke:none;fill-rule:nonzero;fill:rgb(0%,0%,0%);fill-opacity:1;" d="M 387.847656 91.207031 L 387.847656 157.371094 L 385.648438 157.371094 L 385.648438 91.207031 C 385.648438 90.601562 386.140625 90.109375 386.746094 90.109375 C 387.355469 90.109375 387.847656 90.601562 387.847656 91.207031 Z M 386.746094 174.910156 L 393.335938 152.964844 L 387.847656 157.355469 L 385.648438 157.355469 L 380.160156 152.964844 Z M 386.746094 174.910156 "/>
<g clip-path="url(#clip3)" clip-rule="nonzero">
<path style=" stroke:none;fill-rule:evenodd;fill:rgb(0%,0%,0%);fill-opacity:1;" d="M 393.097656 54.117188 C 390.964844 54.050781 388.886719 54.015625 386.867188 54.015625 C 384.851562 54.015625 382.773438 54.050781 380.636719 54.117188 L 380.636719 52.664062 L 381.839844 52.664062 C 382.222656 52.664062 382.582031 52.660156 382.917969 52.648438 C 383.253906 52.640625 383.574219 52.609375 383.875 52.566406 C 384.175781 52.519531 384.4375 52.476562 384.65625 52.429688 C 384.84375 52.394531 384.996094 52.292969 385.121094 52.117188 C 385.242188 51.941406 385.300781 51.75 385.300781 51.535156 L 385.300781 32.503906 C 384.722656 32.785156 384.007812 33 383.160156 33.144531 C 382.3125 33.292969 381.386719 33.363281 380.375 33.363281 L 380.375 31.929688 C 381.769531 31.929688 383.054688 31.765625 384.230469 31.433594 C 385.410156 31.101562 386.429688 30.476562 387.285156 29.566406 L 387.828125 29.566406 C 388.207031 29.566406 388.398438 29.75 388.398438 30.121094 L 388.398438 51.535156 C 388.398438 51.757812 388.457031 51.957031 388.574219 52.125 C 388.691406 52.292969 388.859375 52.394531 389.078125 52.429688 C 389.265625 52.476562 389.503906 52.519531 389.792969 52.566406 C 390.082031 52.609375 390.410156 52.640625 390.777344 52.648438 C 391.140625 52.660156 391.496094 52.664062 391.84375 52.664062 L 393.097656 52.664062 Z M 393.097656 54.117188 "/>
</g>
<path style=" stroke:none;fill-rule:nonzero;fill:rgb(0%,0%,0%);fill-opacity:1;" d="M 37.140625 132.234375 L 330.203125 132.234375 C 330.660156 132.234375 331.027344 132.605469 331.027344 133.058594 C 331.027344 133.511719 330.660156 133.882812 330.203125 133.882812 L 37.140625 133.882812 Z M 18.714844 133.058594 L 41.773438 137.996094 L 37.160156 133.882812 L 37.160156 132.234375 L 41.773438 128.121094 Z M 18.714844 133.058594 "/>
<path style="fill:none;stroke-width:5;stroke-linecap:round;stroke-linejoin:round;stroke:rgb(0%,0%,0%);stroke-opacity:1;stroke-miterlimit:10;" d="M 85.006756 702.851763 L 85.006756 323.295067 " transform="matrix(0.219602,0,0,-0.219448,0.0472314,245.653496)"/>
<path style="fill:none;stroke-width:5;stroke-linecap:round;stroke-linejoin:round;stroke:rgb(0%,0%,0%);stroke-opacity:1;stroke-miterlimit:10;" d="M 1503.431776 702.851763 L 1503.431776 323.295067 " transform="matrix(0.219602,0,0,-0.219448,0.0472314,245.653496)"/>
<path style=" stroke:none;fill-rule:evenodd;fill:rgb(0%,0%,0%);fill-opacity:1;" d="M 149.800781 80.113281 C 149.695312 80.550781 149.449219 80.914062 149.0625 81.207031 C 148.679688 81.5 148.261719 81.648438 147.8125 81.644531 C 147.339844 81.648438 146.976562 81.488281 146.730469 81.164062 C 146.5625 80.980469 146.476562 80.757812 146.460938 80.492188 C 146.460938 80.332031 146.484375 80.171875 146.53125 80.007812 C 146.640625 79.574219 146.890625 79.210938 147.28125 78.914062 C 147.667969 78.625 148.089844 78.476562 148.539062 78.476562 C 149.015625 78.476562 149.375 78.632812 149.625 78.941406 C 149.789062 79.160156 149.871094 79.394531 149.871094 79.648438 C 149.871094 79.808594 149.847656 79.964844 149.800781 80.113281 Z M 149.996094 96.824219 C 149.867188 97.425781 149.664062 98.054688 149.394531 98.714844 C 149.121094 99.375 148.785156 99.976562 148.390625 100.515625 C 147.992188 101.054688 147.527344 101.503906 146.996094 101.867188 C 146.464844 102.226562 145.847656 102.410156 145.148438 102.410156 C 144.558594 102.410156 144.046875 102.28125 143.621094 102.027344 C 143.195312 101.777344 142.867188 101.445312 142.636719 101.03125 C 142.40625 100.617188 142.289062 100.15625 142.289062 99.652344 C 142.265625 99.628906 142.253906 99.582031 142.253906 99.511719 C 142.253906 98.996094 142.367188 98.46875 142.589844 97.929688 L 145.46875 90.347656 C 145.824219 89.394531 146 88.613281 146 88.003906 C 146 87.488281 145.78125 87.230469 145.34375 87.230469 C 144.941406 87.230469 144.582031 87.34375 144.261719 87.574219 C 143.941406 87.804688 143.648438 88.125 143.382812 88.53125 C 143.113281 88.9375 142.875 89.421875 142.660156 89.976562 C 142.449219 90.535156 142.269531 91.128906 142.128906 91.761719 C 142 92.070312 141.78125 92.230469 141.472656 92.242188 L 141.082031 92.242188 C 140.796875 92.242188 140.65625 92.101562 140.65625 91.8125 L 140.65625 91.691406 C 140.796875 91.058594 141.011719 90.414062 141.292969 89.753906 C 141.578125 89.09375 141.921875 88.496094 142.324219 87.953125 C 142.726562 87.414062 143.195312 86.964844 143.726562 86.609375 C 144.261719 86.253906 144.871094 86.074219 145.558594 86.074219 C 146.148438 86.074219 146.652344 86.203125 147.066406 86.453125 C 147.480469 86.707031 147.796875 87.042969 148.015625 87.460938 C 148.234375 87.882812 148.355469 88.355469 148.378906 88.882812 L 148.378906 89.003906 C 148.378906 89.5 148.28125 90.007812 148.078125 90.535156 L 145.199219 98.152344 C 144.871094 99.082031 144.703125 99.875 144.703125 100.53125 C 144.679688 100.554688 144.667969 100.554688 144.667969 100.53125 C 144.667969 101.027344 144.894531 101.273438 145.34375 101.269531 C 145.746094 101.273438 146.109375 101.152344 146.4375 100.910156 C 146.761719 100.667969 147.058594 100.347656 147.324219 99.945312 C 147.589844 99.542969 147.824219 99.0625 148.027344 98.5 C 148.226562 97.9375 148.410156 97.34375 148.578125 96.722656 C 148.648438 96.425781 148.855469 96.273438 149.195312 96.273438 L 149.585938 96.273438 C 149.71875 96.273438 149.847656 96.316406 149.976562 96.394531 C 150.015625 96.488281 150.042969 96.570312 150.066406 96.636719 C 150.066406 96.707031 150.042969 96.769531 149.996094 96.824219 Z M 149.996094 96.824219 "/>
<path style="fill:none;stroke-width:0.3216;stroke-linecap:round;stroke-linejoin:round;stroke:rgb(0%,0%,0%);stroke-opacity:1;stroke-miterlimit:10;" d="M 6.960965 7.194132 L 12.589101 7.194132 " transform="matrix(4.391996,0,-0.000000851129,-4.388934,129.743885,122.988632)"/>
<path style=" stroke:none;fill-rule:evenodd;fill:rgb(0%,0%,0%);fill-opacity:1;" d="M 208.113281 101.871094 C 205.980469 101.800781 203.902344 101.769531 201.886719 101.769531 C 199.867188 101.769531 197.789062 101.800781 195.65625 101.871094 L 195.65625 100.417969 L 196.859375 100.417969 C 197.238281 100.417969 197.601562 100.414062 197.933594 100.402344 C 198.273438 100.390625 198.589844 100.363281 198.890625 100.316406 C 199.195312 100.273438 199.453125 100.226562 199.671875 100.179688 C 199.863281 100.148438 200.015625 100.046875 200.132812 99.871094 C 200.257812 99.695312 200.320312 99.5 200.320312 99.285156 L 200.320312 80.257812 C 199.738281 80.539062 199.023438 80.753906 198.179688 80.898438 C 197.332031 81.046875 196.402344 81.117188 195.394531 81.117188 L 195.394531 79.683594 C 196.789062 79.683594 198.070312 79.515625 199.246094 79.183594 C 200.429688 78.851562 201.441406 78.230469 202.304688 77.316406 L 202.84375 77.316406 C 203.226562 77.316406 203.414062 77.507812 203.414062 77.875 L 203.414062 99.285156 C 203.414062 99.511719 203.472656 99.710938 203.589844 99.878906 C 203.707031 100.046875 203.875 100.148438 204.097656 100.179688 C 204.28125 100.226562 204.523438 100.273438 204.808594 100.316406 C 205.101562 100.363281 205.425781 100.390625 205.792969 100.402344 C 206.15625 100.414062 206.515625 100.417969 206.863281 100.417969 L 208.113281 100.417969 Z M 208.113281 101.871094 "/>
<path style=" stroke:none;fill-rule:evenodd;fill:rgb(0%,0%,0%);fill-opacity:1;" d="M 760.484375 174.910156 C 760.484375 178.09375 757.902344 180.671875 754.722656 180.671875 C 751.535156 180.671875 748.957031 178.09375 748.957031 174.910156 C 748.957031 171.726562 751.535156 169.148438 754.722656 169.148438 C 757.902344 169.148438 760.484375 171.726562 760.484375 174.910156 Z M 760.484375 174.910156 "/>
<g clip-path="url(#clip4)" clip-rule="nonzero">
<path style=" stroke:none;fill-rule:evenodd;fill:rgb(0%,0%,0%);fill-opacity:1;" d="M 757.847656 203.238281 C 757.71875 203.757812 757.453125 204.144531 757.058594 204.402344 C 756.664062 204.660156 756.261719 204.789062 755.859375 204.789062 C 755.445312 204.789062 755.101562 204.65625 754.828125 204.394531 C 754.628906 204.199219 754.523438 203.945312 754.511719 203.636719 C 754.511719 203.511719 754.535156 203.347656 754.582031 203.152344 C 754.710938 202.71875 754.914062 202.386719 755.183594 202.164062 C 755.457031 201.9375 755.648438 201.808594 755.753906 201.773438 C 755.53125 201.601562 755.066406 201.515625 754.367188 201.515625 C 753.753906 201.515625 753.203125 201.835938 752.71875 202.472656 C 752.230469 203.109375 751.871094 203.878906 751.632812 204.773438 L 750 211.078125 C 749.832031 211.710938 749.710938 212.316406 749.625 212.886719 C 749.578125 213.082031 749.554688 213.253906 749.554688 213.402344 C 749.554688 213.761719 749.613281 214.101562 749.734375 214.421875 C 749.851562 214.765625 750.03125 215.042969 750.265625 215.25 C 750.503906 215.457031 750.804688 215.558594 751.171875 215.558594 C 751.644531 215.558594 752.101562 215.4375 752.539062 215.1875 C 752.976562 214.941406 753.378906 214.609375 753.746094 214.1875 C 754.113281 213.769531 754.4375 213.28125 754.722656 212.726562 C 755.007812 212.167969 755.230469 211.597656 755.398438 211.007812 C 755.46875 210.710938 755.671875 210.5625 756 210.5625 L 756.410156 210.5625 C 756.71875 210.5625 756.871094 210.675781 756.871094 210.90625 C 756.871094 210.976562 756.855469 211.039062 756.820312 211.09375 C 756.652344 211.785156 756.382812 212.464844 756.011719 213.136719 C 755.636719 213.808594 755.203125 214.40625 754.707031 214.921875 C 754.207031 215.4375 753.644531 215.863281 753.011719 216.195312 C 752.375 216.527344 751.699219 216.695312 750.976562 216.695312 C 750.242188 216.695312 749.609375 216.539062 749.078125 216.222656 C 748.546875 215.90625 748.113281 215.496094 747.78125 214.988281 C 747.675781 214.863281 747.589844 214.734375 747.53125 214.601562 C 747.472656 214.472656 747.453125 214.449219 747.476562 214.542969 C 747.195312 215.011719 746.746094 215.492188 746.128906 215.972656 C 745.515625 216.453125 744.804688 216.695312 743.996094 216.695312 C 743.546875 216.695312 743.105469 216.636719 742.664062 216.523438 C 742.226562 216.410156 741.84375 216.230469 741.519531 215.988281 C 741.195312 215.75 740.949219 215.457031 740.78125 215.109375 C 740.699219 214.90625 740.660156 214.679688 740.660156 214.4375 C 740.660156 214.265625 740.683594 214.066406 740.730469 213.835938 C 740.859375 213.320312 741.125 212.929688 741.53125 212.671875 C 741.933594 212.414062 742.335938 212.285156 742.738281 212.285156 C 743.152344 212.285156 743.507812 212.417969 743.800781 212.679688 C 744.003906 212.875 744.105469 213.128906 744.105469 213.4375 C 744.105469 213.601562 744.082031 213.761719 744.03125 213.921875 C 743.925781 214.324219 743.734375 214.648438 743.457031 214.894531 C 743.179688 215.144531 742.980469 215.277344 742.859375 215.300781 C 743.085938 215.484375 743.542969 215.570312 744.226562 215.558594 C 744.84375 215.558594 745.402344 215.238281 745.898438 214.59375 C 746.394531 213.949219 746.757812 213.179688 746.980469 212.285156 L 748.632812 205.945312 C 748.796875 205.347656 748.929688 204.761719 749.023438 204.1875 C 749.046875 204.003906 749.058594 203.832031 749.058594 203.667969 C 749.058594 203.3125 749.007812 202.980469 748.898438 202.667969 C 748.78125 202.328125 748.597656 202.050781 748.347656 201.835938 C 748.097656 201.625 747.792969 201.515625 747.425781 201.515625 C 746.949219 201.515625 746.492188 201.640625 746.046875 201.886719 C 745.605469 202.136719 745.199219 202.464844 744.832031 202.878906 C 744.464844 203.292969 744.140625 203.773438 743.855469 204.316406 C 743.570312 204.863281 743.363281 205.441406 743.234375 206.046875 C 743.105469 206.359375 742.886719 206.519531 742.578125 206.53125 L 742.1875 206.53125 C 741.902344 206.53125 741.761719 206.386719 741.761719 206.097656 L 741.761719 205.976562 C 741.9375 205.269531 742.210938 204.574219 742.578125 203.902344 C 742.945312 203.230469 743.382812 202.636719 743.890625 202.121094 C 744.398438 201.601562 744.96875 201.179688 745.597656 200.851562 C 746.222656 200.527344 746.90625 200.363281 747.636719 200.363281 C 748.347656 200.363281 748.976562 200.519531 749.519531 200.828125 C 750.066406 201.136719 750.507812 201.550781 750.851562 202.066406 C 750.921875 202.195312 750.988281 202.328125 751.046875 202.472656 C 751.105469 202.617188 751.125 202.652344 751.101562 202.582031 C 751.398438 202.078125 751.851562 201.582031 752.46875 201.09375 C 753.085938 200.605469 753.789062 200.363281 754.582031 200.363281 C 755.03125 200.363281 755.476562 200.417969 755.921875 200.527344 C 756.367188 200.636719 756.75 200.808594 757.078125 201.050781 C 757.402344 201.292969 757.640625 201.589844 757.796875 201.945312 C 757.878906 202.152344 757.917969 202.390625 757.917969 202.652344 C 757.917969 202.824219 757.894531 203.019531 757.847656 203.238281 Z M 757.847656 203.238281 "/>
</g>
<path style=" stroke:none;fill-rule:evenodd;fill:rgb(0%,0%,0%);fill-opacity:1;" d="M 768.40625 221.304688 L 759.339844 221.304688 L 759.339844 220.773438 C 759.339844 220.734375 759.363281 220.675781 759.40625 220.597656 L 763.046875 217.066406 C 763.480469 216.644531 763.914062 216.210938 764.359375 215.765625 C 764.800781 215.320312 765.195312 214.867188 765.542969 214.40625 C 765.890625 213.941406 766.171875 213.464844 766.378906 212.972656 C 766.585938 212.480469 766.691406 211.964844 766.691406 211.421875 C 766.691406 210.96875 766.625 210.542969 766.488281 210.144531 C 766.355469 209.75 766.164062 209.402344 765.910156 209.105469 C 765.65625 208.804688 765.34375 208.5625 764.964844 208.378906 C 764.585938 208.195312 764.148438 208.105469 763.648438 208.105469 C 762.90625 208.105469 762.253906 208.300781 761.683594 208.699219 C 761.117188 209.09375 760.738281 209.53125 760.554688 210.003906 C 760.515625 210.019531 760.578125 210.023438 760.730469 210.023438 L 760.921875 210.023438 C 761.144531 210.070312 761.335938 210.140625 761.5 210.230469 C 761.664062 210.324219 761.800781 210.453125 761.914062 210.617188 C 762.023438 210.78125 762.078125 210.980469 762.078125 211.210938 C 762.078125 211.597656 761.941406 211.894531 761.65625 212.097656 C 761.375 212.304688 761.058594 212.410156 760.710938 212.40625 C 760.375 212.410156 760.066406 212.304688 759.773438 212.097656 C 759.484375 211.894531 759.339844 211.597656 759.339844 211.210938 C 759.339844 210.671875 759.460938 210.160156 759.695312 209.675781 C 759.933594 209.195312 760.257812 208.777344 760.664062 208.421875 C 761.074219 208.070312 761.554688 207.789062 762.113281 207.585938 C 762.667969 207.378906 763.261719 207.273438 763.882812 207.273438 C 764.65625 207.273438 765.363281 207.375 766.003906 207.578125 C 766.648438 207.78125 767.195312 208.074219 767.648438 208.453125 C 768.101562 208.832031 768.457031 209.269531 768.710938 209.769531 C 768.96875 210.269531 769.09375 210.820312 769.09375 211.421875 C 769.09375 212.09375 768.925781 212.710938 768.582031 213.273438 C 768.242188 213.835938 767.816406 214.351562 767.3125 214.820312 C 766.808594 215.289062 766.273438 215.730469 765.703125 216.148438 C 765.136719 216.5625 764.621094 216.964844 764.164062 217.355469 L 761.601562 219.507812 L 764.953125 219.507812 C 765.421875 219.507812 765.859375 219.507812 766.261719 219.5 C 766.667969 219.496094 767.007812 219.480469 767.292969 219.460938 C 767.574219 219.441406 767.71875 219.429688 767.726562 219.421875 C 767.785156 219.378906 767.839844 219.289062 767.894531 219.152344 C 767.945312 219.019531 767.992188 218.859375 768.039062 218.675781 C 768.082031 218.492188 768.125 218.304688 768.171875 218.117188 C 768.214844 217.925781 768.257812 217.71875 768.292969 217.492188 L 769.117188 217.492188 Z M 768.40625 221.304688 "/>
<path style=" stroke:none;fill-rule:evenodd;fill:rgb(0%,0%,0%);fill-opacity:1;" d="M 892.667969 174.910156 C 892.667969 178.09375 890.085938 180.671875 886.902344 180.671875 C 883.71875 180.671875 881.140625 178.09375 881.140625 174.910156 C 881.140625 171.726562 883.71875 169.148438 886.902344 169.148438 C 890.085938 169.148438 892.667969 171.726562 892.667969 174.910156 Z M 892.667969 174.910156 "/>
<g clip-path="url(#clip5)" clip-rule="nonzero">
<path style=" stroke:none;fill-rule:evenodd;fill:rgb(0%,0%,0%);fill-opacity:1;" d="M 842.945312 203.238281 C 842.816406 203.757812 842.550781 204.144531 842.15625 204.402344 C 841.757812 204.660156 841.359375 204.789062 840.957031 204.789062 C 840.542969 204.789062 840.199219 204.65625 839.925781 204.394531 C 839.726562 204.199219 839.621094 203.945312 839.605469 203.632812 C 839.605469 203.511719 839.628906 203.347656 839.679688 203.152344 C 839.808594 202.71875 840.007812 202.386719 840.28125 202.164062 C 840.554688 201.941406 840.742188 201.808594 840.851562 201.773438 C 840.625 201.601562 840.164062 201.519531 839.464844 201.515625 C 838.847656 201.519531 838.296875 201.835938 837.8125 202.472656 C 837.328125 203.113281 836.964844 203.875 836.730469 204.769531 L 835.09375 211.078125 C 834.929688 211.710938 834.804688 212.316406 834.722656 212.886719 C 834.675781 213.082031 834.652344 213.253906 834.652344 213.40625 C 834.652344 213.761719 834.710938 214.101562 834.828125 214.421875 C 834.949219 214.765625 835.125 215.042969 835.363281 215.25 C 835.601562 215.457031 835.902344 215.558594 836.269531 215.558594 C 836.742188 215.558594 837.199219 215.4375 837.636719 215.1875 C 838.074219 214.941406 838.476562 214.609375 838.84375 214.191406 C 839.210938 213.769531 839.535156 213.28125 839.820312 212.726562 C 840.105469 212.167969 840.328125 211.597656 840.496094 211.007812 C 840.566406 210.710938 840.765625 210.5625 841.097656 210.5625 L 841.507812 210.5625 C 841.816406 210.5625 841.96875 210.675781 841.96875 210.90625 C 841.96875 210.976562 841.953125 211.039062 841.917969 211.09375 C 841.75 211.785156 841.480469 212.464844 841.109375 213.136719 C 840.734375 213.808594 840.300781 214.40625 839.800781 214.921875 C 839.304688 215.4375 838.738281 215.863281 838.105469 216.195312 C 837.472656 216.53125 836.792969 216.695312 836.074219 216.695312 C 835.339844 216.695312 834.707031 216.539062 834.171875 216.222656 C 833.640625 215.90625 833.207031 215.496094 832.875 214.988281 C 832.769531 214.863281 832.6875 214.734375 832.628906 214.601562 C 832.570312 214.472656 832.550781 214.453125 832.574219 214.542969 C 832.289062 215.011719 831.839844 215.492188 831.226562 215.972656 C 830.609375 216.457031 829.898438 216.695312 829.09375 216.695312 C 828.644531 216.695312 828.199219 216.636719 827.761719 216.523438 C 827.324219 216.410156 826.941406 216.230469 826.617188 215.988281 C 826.289062 215.75 826.042969 215.457031 825.878906 215.109375 C 825.796875 214.90625 825.753906 214.679688 825.753906 214.4375 C 825.753906 214.265625 825.78125 214.066406 825.824219 213.835938 C 825.957031 213.320312 826.222656 212.933594 826.625 212.671875 C 827.027344 212.414062 827.429688 212.285156 827.832031 212.285156 C 828.246094 212.285156 828.601562 212.417969 828.898438 212.679688 C 829.097656 212.878906 829.199219 213.128906 829.199219 213.4375 C 829.199219 213.601562 829.175781 213.761719 829.128906 213.921875 C 829.023438 214.324219 828.832031 214.648438 828.550781 214.894531 C 828.273438 215.144531 828.074219 215.277344 827.957031 215.300781 C 828.179688 215.484375 828.636719 215.570312 829.324219 215.558594 C 829.941406 215.558594 830.496094 215.238281 830.992188 214.59375 C 831.492188 213.953125 831.851562 213.179688 832.078125 212.285156 L 833.726562 205.941406 C 833.894531 205.347656 834.023438 204.761719 834.121094 204.1875 C 834.144531 204.003906 834.15625 203.832031 834.15625 203.667969 C 834.15625 203.3125 834.101562 202.980469 833.992188 202.667969 C 833.875 202.328125 833.695312 202.050781 833.445312 201.835938 C 833.195312 201.625 832.886719 201.519531 832.519531 201.515625 C 832.046875 201.519531 831.585938 201.640625 831.144531 201.886719 C 830.699219 202.132812 830.292969 202.460938 829.929688 202.878906 C 829.5625 203.292969 829.238281 203.769531 828.953125 204.316406 C 828.667969 204.863281 828.460938 205.4375 828.328125 206.046875 C 828.199219 206.359375 827.980469 206.519531 827.671875 206.53125 L 827.28125 206.53125 C 827 206.53125 826.855469 206.386719 826.855469 206.101562 L 826.855469 205.976562 C 827.035156 205.265625 827.304688 204.574219 827.671875 203.902344 C 828.039062 203.230469 828.476562 202.636719 828.988281 202.121094 C 829.496094 201.601562 830.066406 201.179688 830.691406 200.851562 C 831.320312 200.527344 832 200.363281 832.734375 200.359375 C 833.445312 200.363281 834.070312 200.519531 834.617188 200.828125 C 835.160156 201.136719 835.605469 201.550781 835.949219 202.066406 C 836.019531 202.195312 836.085938 202.332031 836.144531 202.472656 C 836.203125 202.617188 836.222656 202.65625 836.195312 202.585938 C 836.492188 202.082031 836.949219 201.585938 837.5625 201.09375 C 838.179688 200.605469 838.882812 200.363281 839.679688 200.359375 C 840.128906 200.363281 840.574219 200.417969 841.019531 200.527344 C 841.460938 200.636719 841.847656 200.8125 842.171875 201.054688 C 842.5 201.296875 842.738281 201.589844 842.890625 201.945312 C 842.976562 202.15625 843.015625 202.390625 843.015625 202.652344 C 843.015625 202.828125 842.992188 203.019531 842.945312 203.238281 Z M 842.945312 203.238281 "/>
</g>
<path style=" stroke:none;fill-rule:evenodd;fill:rgb(0%,0%,0%);fill-opacity:1;" d="M 853.5 221.304688 L 844.4375 221.304688 L 844.4375 220.773438 C 844.4375 220.734375 844.460938 220.675781 844.503906 220.601562 L 848.144531 217.070312 C 848.578125 216.644531 849.011719 216.210938 849.453125 215.765625 C 849.894531 215.324219 850.292969 214.867188 850.640625 214.40625 C 850.988281 213.941406 851.265625 213.464844 851.476562 212.972656 C 851.683594 212.480469 851.789062 211.964844 851.789062 211.421875 C 851.789062 210.96875 851.722656 210.542969 851.585938 210.144531 C 851.453125 209.75 851.261719 209.402344 851.007812 209.105469 C 850.753906 208.804688 850.4375 208.5625 850.0625 208.378906 C 849.683594 208.195312 849.246094 208.105469 848.746094 208.105469 C 848.003906 208.105469 847.347656 208.304688 846.78125 208.699219 C 846.214844 209.09375 845.835938 209.53125 845.652344 210.003906 C 845.613281 210.019531 845.671875 210.027344 845.828125 210.023438 L 846.019531 210.023438 C 846.242188 210.070312 846.433594 210.140625 846.597656 210.234375 C 846.761719 210.324219 846.898438 210.453125 847.011719 210.617188 C 847.121094 210.78125 847.175781 210.980469 847.175781 211.210938 C 847.175781 211.597656 847.035156 211.894531 846.753906 212.101562 C 846.472656 212.304688 846.15625 212.410156 845.804688 212.40625 C 845.472656 212.410156 845.160156 212.304688 844.871094 212.101562 C 844.582031 211.894531 844.4375 211.597656 844.4375 211.210938 C 844.4375 210.671875 844.554688 210.160156 844.792969 209.679688 C 845.03125 209.195312 845.355469 208.777344 845.761719 208.421875 C 846.171875 208.070312 846.652344 207.789062 847.210938 207.585938 C 847.765625 207.378906 848.359375 207.277344 848.980469 207.273438 C 849.753906 207.277344 850.460938 207.375 851.101562 207.578125 C 851.746094 207.78125 852.292969 208.074219 852.746094 208.453125 C 853.199219 208.832031 853.550781 209.273438 853.808594 209.769531 C 854.066406 210.269531 854.191406 210.820312 854.191406 211.421875 C 854.191406 212.09375 854.023438 212.710938 853.679688 213.273438 C 853.339844 213.835938 852.914062 214.351562 852.410156 214.820312 C 851.90625 215.289062 851.367188 215.734375 850.800781 216.148438 C 850.234375 216.5625 849.71875 216.964844 849.257812 217.359375 L 846.699219 219.507812 L 850.050781 219.507812 C 850.515625 219.511719 850.953125 219.507812 851.359375 219.5 C 851.761719 219.496094 852.105469 219.480469 852.386719 219.460938 C 852.671875 219.441406 852.816406 219.429688 852.824219 219.421875 C 852.882812 219.378906 852.9375 219.289062 852.988281 219.152344 C 853.042969 219.019531 853.089844 218.859375 853.132812 218.675781 C 853.179688 218.492188 853.222656 218.304688 853.269531 218.117188 C 853.3125 217.925781 853.355469 217.71875 853.390625 217.492188 L 854.214844 217.492188 Z M 853.5 221.304688 "/>
<path style="fill:none;stroke-width:0.3216;stroke-linecap:round;stroke-linejoin:round;stroke:rgb(0%,0%,0%);stroke-opacity:1;stroke-miterlimit:10;" d="M 8.970197 10.207638 L 14.599144 10.207638 " transform="matrix(4.392057,0,-0.00000476606,-4.38893,825.766491,250.503737)"/>
<path style="fill:none;stroke-width:0.3216;stroke-linecap:round;stroke-linejoin:round;stroke:rgb(0%,0%,0%);stroke-opacity:1;stroke-miterlimit:10;" d="M 11.785118 13.021892 L 11.785112 7.394275 " transform="matrix(4.392057,0,-0.00000476606,-4.38893,825.766491,250.503737)"/>
<path style=" stroke:none;fill-rule:evenodd;fill:rgb(0%,0%,0%);fill-opacity:1;" d="M 912.691406 216.679688 L 912.691406 214.628906 C 912.3125 215.097656 911.707031 215.558594 910.871094 216 C 910.035156 216.441406 909.101562 216.660156 908.074219 216.660156 C 906.984375 216.660156 905.953125 216.449219 904.980469 216.023438 C 904.015625 215.601562 903.171875 215.011719 902.460938 214.265625 C 901.691406 213.460938 901.109375 212.574219 900.710938 211.597656 C 900.316406 210.621094 900.113281 209.59375 900.113281 208.511719 C 900.113281 207.433594 900.324219 206.394531 900.738281 205.394531 C 901.152344 204.394531 901.757812 203.511719 902.546875 202.738281 C 903.34375 201.972656 904.25 201.378906 905.265625 200.957031 C 906.285156 200.539062 907.351562 200.328125 908.464844 200.324219 C 909.421875 200.328125 910.296875 200.53125 911.082031 200.941406 C 911.871094 201.347656 912.429688 201.765625 912.761719 202.1875 L 912.761719 195.019531 C 912.761719 194.726562 912.746094 194.433594 912.714844 194.148438 C 912.691406 193.867188 912.570312 193.652344 912.375 193.503906 C 912.171875 193.367188 911.851562 193.289062 911.410156 193.261719 C 910.976562 193.242188 910.492188 193.226562 909.976562 193.226562 L 909.976562 191.832031 L 915.566406 191.421875 L 915.566406 213.058594 C 915.566406 213.359375 915.585938 213.648438 915.609375 213.921875 C 915.640625 214.199219 915.757812 214.40625 915.964844 214.542969 C 916.171875 214.679688 916.496094 214.765625 916.9375 214.792969 C 917.375 214.820312 917.859375 214.835938 918.390625 214.835938 L 918.390625 216.246094 Z M 912.691406 204.132812 C 912.296875 203.367188 911.746094 202.730469 911.019531 202.230469 C 910.300781 201.734375 909.46875 201.484375 908.535156 201.480469 C 907.789062 201.484375 907.089844 201.660156 906.441406 202.007812 C 905.789062 202.355469 905.226562 202.84375 904.753906 203.464844 C 904.230469 204.164062 903.898438 204.949219 903.746094 205.816406 C 903.601562 206.683594 903.527344 207.582031 903.527344 208.511719 C 903.527344 209.441406 903.59375 210.332031 903.722656 211.183594 C 903.851562 212.035156 904.160156 212.832031 904.648438 213.578125 C 905.046875 214.164062 905.5625 214.636719 906.183594 214.992188 C 906.804688 215.347656 907.457031 215.523438 908.144531 215.523438 C 909.175781 215.523438 910.085938 215.242188 910.878906 214.671875 C 911.671875 214.101562 912.277344 213.375 912.691406 212.492188 Z M 912.691406 204.132812 "/>
<path style=" stroke:none;fill-rule:evenodd;fill:rgb(0%,0%,0%);fill-opacity:1;" d="M 936.890625 203.238281 C 936.761719 203.757812 936.5 204.144531 936.097656 204.402344 C 935.703125 204.660156 935.304688 204.789062 934.90625 204.789062 C 934.488281 204.789062 934.144531 204.65625 933.871094 204.394531 C 933.671875 204.199219 933.566406 203.945312 933.550781 203.632812 C 933.550781 203.511719 933.574219 203.347656 933.621094 203.152344 C 933.753906 202.71875 933.957031 202.386719 934.226562 202.164062 C 934.5 201.941406 934.691406 201.808594 934.792969 201.773438 C 934.570312 201.601562 934.109375 201.519531 933.410156 201.515625 C 932.796875 201.519531 932.242188 201.835938 931.761719 202.472656 C 931.273438 203.113281 930.914062 203.875 930.675781 204.769531 L 929.042969 211.078125 C 928.875 211.710938 928.75 212.316406 928.667969 212.886719 C 928.621094 213.082031 928.597656 213.253906 928.597656 213.40625 C 928.597656 213.761719 928.65625 214.101562 928.773438 214.421875 C 928.890625 214.765625 929.070312 215.042969 929.308594 215.25 C 929.546875 215.457031 929.847656 215.558594 930.214844 215.558594 C 930.6875 215.558594 931.144531 215.4375 931.578125 215.1875 C 932.019531 214.941406 932.421875 214.609375 932.789062 214.191406 C 933.15625 213.769531 933.480469 213.28125 933.765625 212.726562 C 934.046875 212.167969 934.273438 211.597656 934.4375 211.007812 C 934.507812 210.710938 934.710938 210.5625 935.046875 210.5625 L 935.453125 210.5625 C 935.761719 210.5625 935.914062 210.675781 935.914062 210.90625 C 935.914062 210.976562 935.898438 211.039062 935.863281 211.09375 C 935.695312 211.785156 935.425781 212.464844 935.054688 213.136719 C 934.679688 213.808594 934.246094 214.40625 933.75 214.921875 C 933.25 215.4375 932.6875 215.863281 932.054688 216.195312 C 931.417969 216.53125 930.742188 216.695312 930.019531 216.695312 C 929.28125 216.695312 928.652344 216.539062 928.117188 216.222656 C 927.585938 215.90625 927.152344 215.496094 926.824219 214.988281 C 926.71875 214.863281 926.632812 214.734375 926.574219 214.601562 C 926.515625 214.472656 926.492188 214.453125 926.519531 214.542969 C 926.234375 215.011719 925.785156 215.492188 925.171875 215.972656 C 924.558594 216.457031 923.84375 216.695312 923.039062 216.695312 C 922.589844 216.695312 922.144531 216.636719 921.707031 216.523438 C 921.265625 216.410156 920.886719 216.230469 920.558594 215.988281 C 920.234375 215.75 919.988281 215.457031 919.824219 215.109375 C 919.742188 214.90625 919.699219 214.679688 919.699219 214.4375 C 919.699219 214.265625 919.726562 214.066406 919.769531 213.835938 C 919.902344 213.320312 920.167969 212.933594 920.570312 212.671875 C 920.972656 212.414062 921.378906 212.285156 921.777344 212.285156 C 922.195312 212.285156 922.550781 212.417969 922.84375 212.679688 C 923.046875 212.878906 923.148438 213.128906 923.148438 213.4375 C 923.148438 213.601562 923.121094 213.761719 923.074219 213.921875 C 922.96875 214.324219 922.773438 214.648438 922.496094 214.894531 C 922.21875 215.144531 922.019531 215.277344 921.898438 215.300781 C 922.128906 215.484375 922.585938 215.570312 923.269531 215.558594 C 923.886719 215.558594 924.441406 215.238281 924.9375 214.59375 C 925.433594 213.953125 925.796875 213.179688 926.023438 212.285156 L 927.675781 205.941406 C 927.835938 205.347656 927.96875 204.761719 928.066406 204.1875 C 928.089844 204.003906 928.101562 203.832031 928.101562 203.667969 C 928.101562 203.3125 928.046875 202.980469 927.9375 202.667969 C 927.820312 202.328125 927.640625 202.050781 927.390625 201.835938 C 927.140625 201.625 926.832031 201.519531 926.46875 201.515625 C 925.992188 201.519531 925.53125 201.640625 925.089844 201.886719 C 924.644531 202.132812 924.242188 202.460938 923.871094 202.878906 C 923.507812 203.292969 923.183594 203.769531 922.898438 204.316406 C 922.609375 204.863281 922.40625 205.4375 922.273438 206.046875 C 922.144531 206.359375 921.925781 206.519531 921.617188 206.53125 L 921.226562 206.53125 C 920.941406 206.53125 920.800781 206.386719 920.800781 206.101562 L 920.800781 205.976562 C 920.976562 205.265625 921.253906 204.574219 921.617188 203.902344 C 921.984375 203.230469 922.421875 202.636719 922.933594 202.121094 C 923.441406 201.601562 924.011719 201.179688 924.636719 200.851562 C 925.265625 200.527344 925.945312 200.363281 926.679688 200.359375 C 927.390625 200.363281 928.019531 200.519531 928.5625 200.828125 C 929.105469 201.136719 929.550781 201.550781 929.894531 202.066406 C 929.964844 202.195312 930.03125 202.332031 930.089844 202.472656 C 930.148438 202.617188 930.164062 202.65625 930.144531 202.585938 C 930.4375 202.082031 930.894531 201.585938 931.507812 201.09375 C 932.125 200.605469 932.832031 200.363281 933.621094 200.359375 C 934.074219 200.363281 934.519531 200.417969 934.960938 200.527344 C 935.410156 200.636719 935.792969 200.8125 936.121094 201.054688 C 936.445312 201.296875 936.683594 201.589844 936.835938 201.945312 C 936.921875 202.15625 936.960938 202.390625 936.960938 202.652344 C 936.960938 202.828125 936.9375 203.019531 936.890625 203.238281 Z M 936.890625 203.238281 "/>
<path style=" stroke:none;fill-rule:evenodd;fill:rgb(0%,0%,0%);fill-opacity:1;" d="M 947.675781 221.304688 L 938.613281 221.304688 L 938.613281 220.773438 C 938.613281 220.734375 938.632812 220.675781 938.675781 220.601562 L 942.320312 217.070312 C 942.75 216.644531 943.1875 216.210938 943.628906 215.765625 C 944.070312 215.324219 944.464844 214.867188 944.8125 214.40625 C 945.164062 213.941406 945.441406 213.464844 945.648438 212.972656 C 945.859375 212.480469 945.960938 211.964844 945.960938 211.421875 C 945.960938 210.96875 945.894531 210.542969 945.761719 210.144531 C 945.625 209.75 945.433594 209.402344 945.183594 209.105469 C 944.925781 208.804688 944.609375 208.5625 944.234375 208.378906 C 943.855469 208.195312 943.417969 208.105469 942.921875 208.105469 C 942.179688 208.105469 941.523438 208.304688 940.957031 208.699219 C 940.386719 209.09375 940.007812 209.53125 939.824219 210.003906 C 939.789062 210.019531 939.847656 210.027344 940.003906 210.023438 L 940.191406 210.023438 C 940.417969 210.070312 940.605469 210.140625 940.773438 210.234375 C 940.933594 210.324219 941.070312 210.453125 941.183594 210.617188 C 941.296875 210.78125 941.351562 210.980469 941.351562 211.210938 C 941.351562 211.597656 941.210938 211.894531 940.925781 212.101562 C 940.644531 212.304688 940.328125 212.410156 939.980469 212.40625 C 939.648438 212.410156 939.335938 212.304688 939.046875 212.101562 C 938.757812 211.894531 938.613281 211.597656 938.613281 211.210938 C 938.613281 210.671875 938.730469 210.160156 938.96875 209.679688 C 939.203125 209.195312 939.53125 208.777344 939.933594 208.421875 C 940.34375 208.070312 940.824219 207.789062 941.382812 207.585938 C 941.941406 207.378906 942.527344 207.277344 943.152344 207.273438 C 943.925781 207.277344 944.632812 207.375 945.273438 207.578125 C 945.921875 207.78125 946.464844 208.074219 946.917969 208.453125 C 947.371094 208.832031 947.726562 209.273438 947.984375 209.769531 C 948.238281 210.269531 948.367188 210.820312 948.367188 211.421875 C 948.367188 212.09375 948.195312 212.710938 947.851562 213.273438 C 947.515625 213.835938 947.089844 214.351562 946.582031 214.820312 C 946.078125 215.289062 945.542969 215.734375 944.976562 216.148438 C 944.410156 216.5625 943.894531 216.964844 943.433594 217.359375 L 940.867188 219.507812 L 944.226562 219.507812 C 944.691406 219.511719 945.128906 219.507812 945.535156 219.5 C 945.9375 219.496094 946.28125 219.480469 946.5625 219.460938 C 946.847656 219.441406 946.988281 219.429688 946.996094 219.421875 C 947.058594 219.378906 947.109375 219.289062 947.164062 219.152344 C 947.214844 219.019531 947.265625 218.859375 947.308594 218.675781 C 947.351562 218.492188 947.394531 218.304688 947.445312 218.117188 C 947.488281 217.925781 947.527344 217.71875 947.5625 217.492188 L 948.386719 217.492188 Z M 947.675781 221.304688 "/>
<path style=" stroke:none;fill-rule:nonzero;fill:rgb(0%,0%,0%);fill-opacity:1;" d="M 812.359375 91.207031 L 812.359375 157.371094 L 810.164062 157.371094 L 810.164062 91.207031 C 810.164062 90.601562 810.65625 90.109375 811.261719 90.109375 C 811.867188 90.109375 812.359375 90.601562 812.359375 91.207031 Z M 811.261719 174.910156 L 817.851562 152.964844 L 812.359375 157.355469 L 810.164062 157.355469 L 804.671875 152.964844 Z M 811.261719 174.910156 "/>
<g clip-path="url(#clip6)" clip-rule="nonzero">
<path style=" stroke:none;fill-rule:evenodd;fill:rgb(0%,0%,0%);fill-opacity:1;" d="M 817.613281 54.117188 C 815.480469 54.050781 813.402344 54.015625 811.382812 54.015625 C 809.363281 54.015625 807.285156 54.050781 805.152344 54.117188 L 805.152344 52.664062 L 806.351562 52.664062 C 806.734375 52.664062 807.09375 52.660156 807.429688 52.648438 C 807.769531 52.640625 808.085938 52.609375 808.390625 52.566406 C 808.691406 52.519531 808.953125 52.476562 809.171875 52.429688 C 809.355469 52.394531 809.511719 52.292969 809.632812 52.117188 C 809.753906 51.941406 809.816406 51.75 809.816406 51.535156 L 809.816406 32.503906 C 809.234375 32.785156 808.523438 33 807.675781 33.144531 C 806.828125 33.292969 805.898438 33.363281 804.890625 33.363281 L 804.890625 31.929688 C 806.28125 31.929688 807.570312 31.765625 808.746094 31.433594 C 809.921875 31.101562 810.941406 30.476562 811.800781 29.566406 L 812.339844 29.566406 C 812.722656 29.566406 812.914062 29.75 812.914062 30.121094 L 812.914062 51.535156 C 812.914062 51.757812 812.972656 51.957031 813.085938 52.125 C 813.203125 52.292969 813.371094 52.394531 813.59375 52.429688 C 813.777344 52.476562 814.015625 52.519531 814.304688 52.566406 C 814.597656 52.609375 814.925781 52.640625 815.289062 52.648438 C 815.65625 52.660156 816.011719 52.664062 816.359375 52.664062 L 817.613281 52.664062 Z M 817.613281 54.117188 "/>
</g>
<path style=" stroke:none;fill-rule:nonzero;fill:rgb(0%,0%,0%);fill-opacity:1;" d="M 485.421875 132.234375 L 731.683594 132.234375 L 731.683594 133.882812 L 485.421875 133.882812 Z M 462.386719 133.058594 L 485.445312 137.996094 L 485.445312 128.121094 Z M 754.71875 133.058594 L 731.660156 128.121094 L 731.660156 137.996094 Z M 754.71875 133.058594 "/>
<path style="fill:none;stroke-width:5;stroke-linecap:round;stroke-linejoin:round;stroke:rgb(0%,0%,0%);stroke-opacity:1;stroke-miterlimit:10;" d="M 2105.35656 702.851763 L 2105.35656 323.295067 " transform="matrix(0.219602,0,0,-0.219448,0.0472314,245.653496)"/>
<path style="fill:none;stroke-width:5;stroke-linecap:round;stroke-linejoin:round;stroke:rgb(0%,0%,0%);stroke-opacity:1;stroke-miterlimit:10;" d="M 3436.567501 702.851763 L 3436.567501 323.295067 " transform="matrix(0.219602,0,0,-0.219448,0.0472314,245.653496)"/>
<path style=" stroke:none;fill-rule:evenodd;fill:rgb(0%,0%,0%);fill-opacity:1;" d="M 577.355469 80.09375 C 577.214844 80.542969 576.957031 80.914062 576.59375 81.207031 C 576.226562 81.5 575.8125 81.648438 575.347656 81.644531 C 574.875 81.648438 574.515625 81.488281 574.265625 81.164062 C 574.097656 80.980469 574.015625 80.734375 574.015625 80.421875 C 574.015625 80.296875 574.027344 80.164062 574.050781 80.027344 C 574.183594 79.578125 574.441406 79.210938 574.824219 78.914062 C 575.210938 78.625 575.625 78.476562 576.078125 78.476562 C 576.550781 78.476562 576.910156 78.632812 577.160156 78.941406 C 577.300781 79.160156 577.378906 79.417969 577.390625 79.714844 C 577.390625 79.84375 577.378906 79.96875 577.355469 80.09375 Z M 572.472656 103.820312 C 572.269531 104.546875 571.953125 105.242188 571.523438 105.90625 C 571.089844 106.574219 570.574219 107.160156 569.976562 107.664062 C 569.378906 108.167969 568.71875 108.566406 567.996094 108.851562 C 567.273438 109.140625 566.539062 109.285156 565.792969 109.285156 C 565.367188 109.285156 564.953125 109.226562 564.550781 109.109375 C 564.148438 108.996094 563.804688 108.828125 563.511719 108.601562 C 563.222656 108.378906 563.019531 108.089844 562.898438 107.730469 C 562.816406 107.550781 562.777344 107.335938 562.773438 107.09375 C 562.777344 106.945312 562.800781 106.765625 562.84375 106.5625 C 562.976562 106.042969 563.25 105.660156 563.664062 105.40625 C 564.078125 105.152344 564.480469 105.027344 564.871094 105.027344 C 565.285156 105.027344 565.632812 105.160156 565.917969 105.421875 C 566.121094 105.621094 566.21875 105.871094 566.21875 106.183594 C 566.21875 106.308594 566.195312 106.464844 566.148438 106.648438 C 566.042969 107.027344 565.851562 107.339844 565.570312 107.585938 C 565.292969 107.832031 565.125 107.96875 565.066406 107.992188 C 565.195312 108.070312 565.496094 108.117188 565.972656 108.128906 C 566.398438 108.128906 566.804688 108.011719 567.1875 107.777344 C 567.574219 107.539062 567.941406 107.222656 568.289062 106.828125 C 568.636719 106.429688 568.941406 105.96875 569.195312 105.441406 C 569.449219 104.914062 569.648438 104.351562 569.789062 103.753906 L 573.21875 90.398438 C 573.40625 89.652344 573.5 89.011719 573.5 88.46875 L 573.5 88.054688 C 573.441406 87.503906 573.164062 87.230469 572.667969 87.230469 C 572.21875 87.230469 571.792969 87.355469 571.386719 87.601562 C 570.984375 87.847656 570.605469 88.179688 570.25 88.597656 C 569.898438 89.019531 569.574219 89.507812 569.285156 90.0625 C 568.992188 90.621094 568.730469 91.203125 568.492188 91.8125 C 568.375 92.089844 568.171875 92.230469 567.890625 92.242188 L 567.480469 92.242188 C 567.222656 92.210938 567.078125 92.066406 567.054688 91.8125 L 567.054688 91.675781 C 567.304688 91.019531 567.613281 90.355469 567.988281 89.683594 C 568.359375 89.011719 568.789062 88.414062 569.273438 87.882812 C 569.757812 87.355469 570.296875 86.921875 570.890625 86.582031 C 571.484375 86.246094 572.132812 86.074219 572.84375 86.074219 C 573.460938 86.074219 573.992188 86.195312 574.441406 86.429688 C 574.894531 86.664062 575.253906 86.988281 575.527344 87.394531 C 575.800781 87.800781 575.96875 88.269531 576.042969 88.796875 L 576.042969 89.277344 C 576.042969 89.671875 575.992188 90.066406 575.898438 90.46875 Z M 572.472656 103.820312 "/>
<path style="fill:none;stroke-width:0.3216;stroke-linecap:round;stroke-linejoin:round;stroke:rgb(0%,0%,0%);stroke-opacity:1;stroke-miterlimit:10;" d="M 6.661428 7.194132 L 12.288563 7.194132 " transform="matrix(4.392083,0,-0.00000340226,-4.388934,558.375296,122.988632)"/>
<path style=" stroke:none;fill-rule:evenodd;fill:rgb(0%,0%,0%);fill-opacity:1;" d="M 631.730469 80.113281 C 631.625 80.550781 631.378906 80.914062 630.992188 81.207031 C 630.613281 81.5 630.195312 81.648438 629.742188 81.644531 C 629.269531 81.648438 628.90625 81.488281 628.660156 81.164062 C 628.496094 80.980469 628.40625 80.757812 628.394531 80.492188 C 628.394531 80.332031 628.414062 80.171875 628.464844 80.007812 C 628.570312 79.574219 628.820312 79.210938 629.210938 78.914062 C 629.601562 78.625 630.023438 78.476562 630.472656 78.476562 C 630.945312 78.476562 631.304688 78.632812 631.554688 78.941406 C 631.71875 79.160156 631.800781 79.394531 631.800781 79.648438 C 631.800781 79.808594 631.78125 79.964844 631.730469 80.113281 Z M 631.925781 96.824219 C 631.796875 97.425781 631.59375 98.054688 631.324219 98.714844 C 631.050781 99.375 630.71875 99.976562 630.320312 100.515625 C 629.921875 101.054688 629.460938 101.503906 628.925781 101.867188 C 628.394531 102.226562 627.777344 102.410156 627.082031 102.410156 C 626.488281 102.410156 625.976562 102.28125 625.550781 102.027344 C 625.125 101.777344 624.796875 101.445312 624.566406 101.03125 C 624.335938 100.617188 624.222656 100.15625 624.222656 99.652344 C 624.195312 99.628906 624.1875 99.582031 624.1875 99.511719 C 624.1875 98.996094 624.300781 98.46875 624.523438 97.929688 L 627.398438 90.347656 C 627.753906 89.394531 627.933594 88.613281 627.933594 88.003906 C 627.933594 87.488281 627.714844 87.230469 627.273438 87.230469 C 626.875 87.230469 626.515625 87.34375 626.195312 87.574219 C 625.871094 87.804688 625.578125 88.125 625.316406 88.53125 C 625.046875 88.9375 624.808594 89.421875 624.59375 89.976562 C 624.378906 90.535156 624.203125 91.128906 624.0625 91.761719 C 623.929688 92.070312 623.710938 92.230469 623.40625 92.242188 L 623.011719 92.242188 C 622.726562 92.242188 622.585938 92.101562 622.585938 91.8125 L 622.585938 91.691406 C 622.726562 91.058594 622.941406 90.414062 623.230469 89.753906 C 623.511719 89.09375 623.851562 88.496094 624.257812 87.953125 C 624.660156 87.414062 625.125 86.964844 625.65625 86.609375 C 626.195312 86.253906 626.804688 86.074219 627.488281 86.074219 C 628.082031 86.074219 628.582031 86.203125 629 86.453125 C 629.414062 86.707031 629.730469 87.042969 629.949219 87.460938 C 630.167969 87.882812 630.285156 88.355469 630.3125 88.882812 L 630.3125 89.003906 C 630.3125 89.5 630.210938 90.007812 630.011719 90.535156 L 627.132812 98.152344 C 626.804688 99.082031 626.636719 99.875 626.636719 100.53125 C 626.609375 100.554688 626.601562 100.554688 626.601562 100.53125 C 626.601562 101.027344 626.824219 101.273438 627.273438 101.269531 C 627.679688 101.273438 628.042969 101.152344 628.367188 100.910156 C 628.691406 100.667969 628.988281 100.347656 629.253906 99.945312 C 629.523438 99.542969 629.753906 99.0625 629.957031 98.5 C 630.160156 97.9375 630.339844 97.34375 630.507812 96.722656 C 630.578125 96.425781 630.78125 96.273438 631.125 96.273438 L 631.515625 96.273438 C 631.648438 96.273438 631.78125 96.316406 631.90625 96.394531 C 631.945312 96.488281 631.972656 96.570312 632 96.636719 C 632 96.707031 631.972656 96.769531 631.925781 96.824219 Z M 631.925781 96.824219 "/>
<path style="fill:none;stroke-width:0.3216;stroke-linecap:round;stroke-linejoin:round;stroke:rgb(0%,0%,0%);stroke-opacity:1;stroke-miterlimit:10;" d="M 19.095022 7.194132 L 24.723047 7.194132 " transform="matrix(4.392083,0,-0.00000340226,-4.388934,558.375296,122.988632)"/>
<path style=" stroke:none;fill-rule:evenodd;fill:rgb(0%,0%,0%);fill-opacity:1;" d="M 690.046875 101.871094 C 687.910156 101.800781 685.832031 101.769531 683.8125 101.769531 C 681.796875 101.769531 679.71875 101.800781 677.582031 101.871094 L 677.582031 100.417969 L 678.785156 100.417969 C 679.167969 100.417969 679.527344 100.414062 679.863281 100.402344 C 680.199219 100.390625 680.519531 100.363281 680.820312 100.316406 C 681.121094 100.273438 681.382812 100.226562 681.605469 100.179688 C 681.789062 100.148438 681.941406 100.046875 682.066406 99.871094 C 682.1875 99.695312 682.246094 99.5 682.246094 99.285156 L 682.246094 80.257812 C 681.664062 80.539062 680.953125 80.753906 680.105469 80.898438 C 679.257812 81.046875 678.332031 81.117188 677.320312 81.117188 L 677.320312 79.683594 C 678.714844 79.683594 680 79.515625 681.179688 79.183594 C 682.355469 78.851562 683.375 78.230469 684.230469 77.316406 L 684.769531 77.316406 C 685.152344 77.316406 685.347656 77.507812 685.347656 77.875 L 685.347656 99.285156 C 685.347656 99.511719 685.402344 99.710938 685.515625 99.878906 C 685.636719 100.046875 685.804688 100.148438 686.023438 100.179688 C 686.210938 100.226562 686.449219 100.273438 686.738281 100.316406 C 687.027344 100.363281 687.359375 100.390625 687.722656 100.402344 C 688.085938 100.414062 688.441406 100.417969 688.789062 100.417969 L 690.046875 100.417969 Z M 690.046875 101.871094 "/>
<path style=" stroke:none;fill-rule:nonzero;fill:rgb(0%,0%,0%);fill-opacity:1;" d="M 886.902344 132.234375 L 1334.839844 132.234375 L 1334.839844 133.882812 L 886.902344 133.882812 C 886.449219 133.882812 886.078125 133.511719 886.078125 133.058594 C 886.078125 132.605469 886.449219 132.234375 886.902344 132.234375 Z M 1357.875 133.058594 L 1334.816406 128.121094 L 1334.816406 137.996094 Z M 1357.875 133.058594 "/>
<path style="fill:none;stroke-width:5;stroke-linecap:round;stroke-linejoin:round;stroke:rgb(0%,0%,0%);stroke-opacity:1;stroke-miterlimit:10;" d="M 4038.474498 702.851763 L 4038.474498 323.295067 " transform="matrix(0.219602,0,0,-0.219448,0.0472314,245.653496)"/>
<path style="fill:none;stroke-width:5;stroke-linecap:round;stroke-linejoin:round;stroke:rgb(0%,0%,0%);stroke-opacity:1;stroke-miterlimit:10;" d="M 6183.143942 702.851763 L 6183.143942 323.295067 " transform="matrix(0.219602,0,0,-0.219448,0.0472314,245.653496)"/>
<g clip-path="url(#clip7)" clip-rule="nonzero">
<path style=" stroke:none;fill-rule:evenodd;fill:rgb(0%,0%,0%);fill-opacity:1;" d="M 1101.820312 96.773438 C 1101.652344 97.40625 1101.433594 98.054688 1101.164062 98.714844 C 1100.890625 99.375 1100.546875 99.976562 1100.132812 100.515625 C 1099.71875 101.054688 1099.242188 101.503906 1098.710938 101.867188 C 1098.179688 102.226562 1097.570312 102.410156 1096.882812 102.410156 C 1096.289062 102.410156 1095.777344 102.28125 1095.347656 102.027344 C 1094.914062 101.777344 1094.59375 101.445312 1094.378906 101.03125 C 1094.164062 100.617188 1094.042969 100.136719 1094.003906 99.582031 L 1094.003906 99.445312 C 1094.003906 98.953125 1094.113281 98.445312 1094.324219 97.929688 C 1094.714844 96.929688 1095.082031 95.929688 1095.425781 94.929688 C 1095.769531 93.933594 1096.078125 92.933594 1096.347656 91.933594 C 1096.515625 91.257812 1096.632812 90.601562 1096.703125 89.96875 C 1096.726562 89.785156 1096.738281 89.589844 1096.738281 89.382812 C 1096.738281 88.992188 1096.691406 88.636719 1096.597656 88.3125 C 1096.386719 87.589844 1095.9375 87.230469 1095.25 87.230469 C 1094.042969 87.230469 1093.003906 87.640625 1092.140625 88.460938 C 1091.277344 89.285156 1090.511719 90.382812 1089.847656 91.761719 L 1087.417969 101.132812 C 1087.308594 101.558594 1087.09375 101.878906 1086.769531 102.089844 C 1086.441406 102.300781 1086.113281 102.410156 1085.78125 102.410156 C 1085.429688 102.410156 1085.15625 102.292969 1084.964844 102.0625 C 1084.8125 101.914062 1084.734375 101.707031 1084.734375 101.441406 C 1084.734375 101.339844 1084.746094 101.214844 1084.769531 101.066406 L 1087.503906 90.398438 C 1087.695312 89.652344 1087.789062 89.011719 1087.789062 88.46875 L 1087.789062 88.054688 C 1087.730469 87.503906 1087.453125 87.230469 1086.953125 87.230469 C 1086.433594 87.230469 1085.996094 87.648438 1085.648438 88.488281 C 1085.300781 89.328125 1084.960938 90.417969 1084.628906 91.761719 C 1084.496094 92.070312 1084.277344 92.230469 1083.972656 92.242188 L 1083.5625 92.242188 C 1083.277344 92.242188 1083.136719 92.101562 1083.136719 91.8125 L 1083.136719 91.691406 C 1083.277344 91.152344 1083.4375 90.5625 1083.617188 89.925781 C 1083.792969 89.289062 1084.03125 88.6875 1084.328125 88.117188 C 1084.621094 87.546875 1084.996094 87.066406 1085.445312 86.667969 C 1085.894531 86.273438 1086.457031 86.074219 1087.132812 86.074219 C 1088.105469 86.074219 1088.867188 86.363281 1089.421875 86.9375 C 1089.980469 87.511719 1090.269531 88.074219 1090.292969 88.625 C 1090.792969 87.984375 1091.484375 87.398438 1092.371094 86.867188 C 1093.257812 86.339844 1094.289062 86.074219 1095.460938 86.074219 C 1096.160156 86.074219 1096.8125 86.203125 1097.414062 86.464844 C 1098.019531 86.722656 1098.488281 87.136719 1098.816406 87.710938 C 1099.171875 88.296875 1099.351562 88.957031 1099.351562 89.691406 L 1099.351562 89.777344 C 1099.328125 90.515625 1099.21875 91.257812 1099.03125 92 C 1098.757812 93.046875 1098.445312 94.078125 1098.089844 95.085938 C 1097.734375 96.097656 1097.363281 97.121094 1096.96875 98.152344 C 1096.617188 99.082031 1096.4375 99.863281 1096.4375 100.496094 C 1096.4375 101.015625 1096.65625 101.273438 1097.09375 101.269531 C 1097.5 101.273438 1097.863281 101.152344 1098.195312 100.910156 C 1098.527344 100.667969 1098.828125 100.34375 1099.09375 99.9375 C 1099.359375 99.53125 1099.597656 99.046875 1099.8125 98.488281 C 1100.027344 97.933594 1100.203125 97.339844 1100.34375 96.703125 C 1100.488281 96.417969 1100.6875 96.273438 1100.949219 96.273438 L 1101.394531 96.273438 C 1101.675781 96.273438 1101.820312 96.402344 1101.820312 96.652344 Z M 1101.820312 96.773438 "/>
</g>
<path style="fill:none;stroke-width:0.3216;stroke-linecap:round;stroke-linejoin:round;stroke:rgb(0%,0%,0%);stroke-opacity:1;stroke-miterlimit:10;" d="M 6.585751 7.194132 L 12.212959 7.194132 " transform="matrix(4.392027,0,-0.00000680451,-4.388934,1083.141661,122.988632)"/>
<path style=" stroke:none;fill-rule:evenodd;fill:rgb(0%,0%,0%);fill-opacity:1;" d="M 1161.585938 80.09375 C 1161.445312 80.542969 1161.191406 80.914062 1160.824219 81.207031 C 1160.457031 81.5 1160.042969 81.648438 1159.582031 81.644531 C 1159.109375 81.648438 1158.746094 81.488281 1158.5 81.164062 C 1158.332031 80.980469 1158.25 80.734375 1158.25 80.421875 C 1158.25 80.296875 1158.261719 80.164062 1158.285156 80.027344 C 1158.417969 79.578125 1158.671875 79.210938 1159.058594 78.914062 C 1159.445312 78.625 1159.863281 78.476562 1160.308594 78.476562 C 1160.785156 78.476562 1161.144531 78.632812 1161.394531 78.941406 C 1161.535156 79.160156 1161.609375 79.417969 1161.621094 79.714844 C 1161.621094 79.84375 1161.609375 79.96875 1161.585938 80.09375 Z M 1156.703125 103.820312 C 1156.507812 104.546875 1156.191406 105.242188 1155.753906 105.90625 C 1155.324219 106.574219 1154.8125 107.160156 1154.210938 107.664062 C 1153.613281 108.167969 1152.953125 108.566406 1152.234375 108.851562 C 1151.507812 109.140625 1150.773438 109.285156 1150.027344 109.285156 C 1149.601562 109.285156 1149.1875 109.226562 1148.785156 109.109375 C 1148.386719 108.996094 1148.039062 108.828125 1147.75 108.601562 C 1147.457031 108.378906 1147.257812 108.089844 1147.132812 107.730469 C 1147.054688 107.550781 1147.011719 107.335938 1147.011719 107.09375 C 1147.011719 106.945312 1147.035156 106.765625 1147.082031 106.5625 C 1147.210938 106.042969 1147.484375 105.660156 1147.898438 105.40625 C 1148.316406 105.152344 1148.714844 105.027344 1149.105469 105.027344 C 1149.523438 105.027344 1149.871094 105.160156 1150.15625 105.421875 C 1150.351562 105.621094 1150.453125 105.871094 1150.453125 106.183594 C 1150.453125 106.308594 1150.433594 106.464844 1150.382812 106.648438 C 1150.277344 107.027344 1150.085938 107.339844 1149.808594 107.585938 C 1149.527344 107.832031 1149.359375 107.96875 1149.296875 107.992188 C 1149.429688 108.070312 1149.734375 108.117188 1150.207031 108.128906 C 1150.632812 108.128906 1151.039062 108.011719 1151.425781 107.777344 C 1151.804688 107.539062 1152.175781 107.222656 1152.523438 106.828125 C 1152.875 106.429688 1153.175781 105.96875 1153.425781 105.441406 C 1153.683594 104.914062 1153.882812 104.351562 1154.023438 103.753906 L 1157.449219 90.398438 C 1157.640625 89.652344 1157.734375 89.011719 1157.734375 88.46875 L 1157.734375 88.054688 C 1157.675781 87.503906 1157.398438 87.230469 1156.902344 87.230469 C 1156.449219 87.230469 1156.027344 87.355469 1155.625 87.601562 C 1155.21875 87.847656 1154.839844 88.179688 1154.484375 88.597656 C 1154.128906 89.019531 1153.808594 89.507812 1153.519531 90.0625 C 1153.230469 90.621094 1152.964844 91.203125 1152.730469 91.8125 C 1152.609375 92.089844 1152.410156 92.230469 1152.121094 92.242188 L 1151.714844 92.242188 C 1151.457031 92.210938 1151.316406 92.066406 1151.289062 91.8125 L 1151.289062 91.675781 C 1151.539062 91.019531 1151.851562 90.355469 1152.21875 89.683594 C 1152.59375 89.011719 1153.023438 88.414062 1153.511719 87.882812 C 1153.992188 87.355469 1154.535156 86.921875 1155.121094 86.582031 C 1155.714844 86.246094 1156.371094 86.074219 1157.078125 86.074219 C 1157.695312 86.074219 1158.226562 86.195312 1158.675781 86.429688 C 1159.128906 86.664062 1159.488281 86.988281 1159.761719 87.394531 C 1160.03125 87.800781 1160.203125 88.269531 1160.273438 88.796875 L 1160.273438 89.277344 C 1160.273438 89.671875 1160.226562 90.066406 1160.132812 90.46875 Z M 1156.703125 103.820312 "/>
</g>
</svg>
