<?xml version="1.0" encoding="UTF-8"?>
<svg xmlns="http://www.w3.org/2000/svg" xmlns:xlink="http://www.w3.org/1999/xlink" width="963.96pt" height="813.96pt" viewBox="0 0 963.96 813.96" version="1.2">
<defs>
<clipPath id="clip1">
  <path d="M 291.527344 167 L 308 167 L 308 193 L 291.527344 193 Z M 291.527344 167 "/>
</clipPath>
<clipPath id="clip2">
  <path d="M 529.480469 162 L 546 162 L 546 188 L 529.480469 188 Z M 529.480469 162 "/>
</clipPath>
<clipPath id="clip3">
  <path d="M 674.296875 162 L 691 162 L 691 188 L 674.296875 188 Z M 674.296875 162 "/>
</clipPath>
<clipPath id="clip4">
  <path d="M 926.824219 162 L 944 162 L 944 188 L 926.824219 188 Z M 926.824219 162 "/>
</clipPath>
<clipPath id="clip5">
  <path d="M 293.230469 382 L 307 382 L 307 408 L 293.230469 408 Z M 293.230469 382 "/>
</clipPath>
<clipPath id="clip6">
  <path d="M 529.480469 377 L 546 377 L 546 404 L 529.480469 404 Z M 529.480469 377 "/>
</clipPath>
<clipPath id="clip7">
  <path d="M 674.296875 377 L 691 377 L 691 404 L 674.296875 404 Z M 674.296875 377 "/>
</clipPath>
<clipPath id="clip8">
  <path d="M 926.824219 377 L 944 377 L 944 404 L 926.824219 404 Z M 926.824219 377 "/>
</clipPath>
<clipPath id="clip9">
  <path d="M 291.527344 581 L 308 581 L 308 607 L 291.527344 607 Z M 291.527344 581 "/>
</clipPath>
<clipPath id="clip10">
  <path d="M 531.183594 576 L 545 576 L 545 601 L 531.183594 601 Z M 531.183594 576 "/>
</clipPath>
<clipPath id="clip11">
  <path d="M 674.296875 576 L 691 576 L 691 602 L 674.296875 602 Z M 674.296875 576 "/>
</clipPath>
<clipPath id="clip12">
  <path d="M 926.824219 576 L 944 576 L 944 602 L 926.824219 602 Z M 926.824219 576 "/>
</clipPath>
<clipPath id="clip13">
  <path d="M 293.230469 764 L 307 764 L 307 790 L 293.230469 790 Z M 293.230469 764 "/>
</clipPath>
<clipPath id="clip14">
  <path d="M 531.183594 759 L 545 759 L 545 785 L 531.183594 785 Z M 531.183594 759 "/>
</clipPath>
<clipPath id="clip15">
  <path d="M 674.296875 759 L 691 759 L 691 786 L 674.296875 786 Z M 674.296875 759 "/>
</clipPath>
<clipPath id="clip16">
  <path d="M 926.824219 759 L 944 759 L 944 786 L 926.824219 786 Z M 926.824219 759 "/>
</clipPath>
</defs>
<g id="surface1">
<path style=" stroke:none;fill-rule:evenodd;fill:rgb(0%,0%,0%);fill-opacity:1;" d="M 26.65625 125.667969 C 26.65625 129.140625 23.839844 131.953125 20.367188 131.953125 C 16.894531 131.953125 14.078125 129.140625 14.078125 125.667969 C 14.078125 122.191406 16.894531 119.378906 20.367188 119.378906 C 23.839844 119.378906 26.65625 122.191406 26.65625 125.667969 Z M 26.65625 125.667969 "/>
<path style=" stroke:none;fill-rule:evenodd;fill:rgb(0%,0%,0%);fill-opacity:1;" d="M 171.472656 125.667969 C 171.472656 129.140625 168.660156 131.953125 165.1875 131.953125 C 161.710938 131.953125 158.898438 129.140625 158.898438 125.667969 C 158.898438 122.191406 161.710938 119.378906 165.1875 119.378906 C 168.660156 119.378906 171.472656 122.191406 171.472656 125.667969 Z M 171.472656 125.667969 "/>
<path style=" stroke:none;fill-rule:evenodd;fill:rgb(0%,0%,0%);fill-opacity:1;" d="M 306.011719 125.667969 C 306.011719 129.140625 303.195312 131.953125 299.722656 131.953125 C 296.246094 131.953125 293.433594 129.140625 293.433594 125.667969 C 293.433594 122.191406 296.246094 119.378906 299.722656 119.378906 C 303.195312 119.378906 306.011719 122.191406 306.011719 125.667969 Z M 306.011719 125.667969 "/>
<path style=" stroke:none;fill-rule:evenodd;fill:rgb(0%,0%,0%);fill-opacity:1;" d="M 424 125.667969 C 424 129.140625 421.183594 131.953125 417.710938 131.953125 C 414.238281 131.953125 411.421875 129.140625 411.421875 125.667969 C 411.421875 122.191406 414.238281 119.378906 417.710938 119.378906 C 421.183594 119.378906 424 122.191406 424 125.667969 Z M 424 125.667969 "/>
<path style=" stroke:none;fill-rule:evenodd;fill:rgb(0%,0%,0%);fill-opacity:1;" d="M 543.960938 125.667969 C 543.960938 129.140625 541.148438 131.953125 537.671875 131.953125 C 534.199219 131.953125 531.386719 129.140625 531.386719 125.667969 C 531.386719 122.191406 534.199219 119.378906 537.671875 119.378906 C 541.148438 119.378906 543.960938 122.191406 543.960938 125.667969 Z M 543.960938 125.667969 "/>
<path style=" stroke:none;fill-rule:evenodd;fill:rgb(0%,0%,0%);fill-opacity:1;" d="M 688.78125 125.667969 C 688.78125 129.140625 685.964844 131.953125 682.492188 131.953125 C 679.019531 131.953125 676.203125 129.140625 676.203125 125.667969 C 676.203125 122.191406 679.019531 119.378906 682.492188 119.378906 C 685.964844 119.378906 688.78125 122.191406 688.78125 125.667969 Z M 688.78125 125.667969 "/>
<path style=" stroke:none;fill-rule:evenodd;fill:rgb(0%,0%,0%);fill-opacity:1;" d="M 823.316406 125.667969 C 823.316406 129.140625 820.5 131.953125 817.027344 131.953125 C 813.554688 131.953125 810.738281 129.140625 810.738281 125.667969 C 810.738281 122.191406 813.554688 119.378906 817.027344 119.378906 C 820.5 119.378906 823.316406 122.191406 823.316406 125.667969 Z M 823.316406 125.667969 "/>
<path style=" stroke:none;fill-rule:evenodd;fill:rgb(0%,0%,0%);fill-opacity:1;" d="M 941.308594 125.667969 C 941.308594 129.140625 938.492188 131.953125 935.019531 131.953125 C 931.542969 131.953125 928.730469 129.140625 928.730469 125.667969 C 928.730469 122.191406 931.542969 119.378906 935.019531 119.378906 C 938.492188 119.378906 941.308594 122.191406 941.308594 125.667969 Z M 941.308594 125.667969 "/>
<g clip-path="url(#clip1)" clip-rule="nonzero">
<path style=" stroke:none;fill-rule:evenodd;fill:rgb(0%,0%,0%);fill-opacity:1;" d="M 307.753906 180.363281 C 307.753906 181.988281 307.640625 183.601562 307.414062 185.207031 C 307.191406 186.8125 306.628906 188.316406 305.738281 189.726562 C 305.097656 190.75 304.246094 191.539062 303.179688 192.089844 C 302.113281 192.640625 300.953125 192.917969 299.699219 192.917969 C 298.492188 192.917969 297.351562 192.640625 296.28125 192.089844 C 295.207031 191.539062 294.351562 190.75 293.710938 189.726562 C 292.820312 188.316406 292.261719 186.8125 292.035156 185.207031 C 291.808594 183.601562 291.695312 181.988281 291.695312 180.363281 C 291.695312 178.722656 291.808594 177.078125 292.035156 175.441406 C 292.261719 173.800781 292.820312 172.265625 293.710938 170.835938 C 294.351562 169.800781 295.203125 168.992188 296.269531 168.417969 C 297.335938 167.84375 298.480469 167.558594 299.699219 167.554688 C 300.941406 167.558594 302.097656 167.84375 303.167969 168.417969 C 304.242188 168.992188 305.097656 169.800781 305.738281 170.835938 C 306.628906 172.265625 307.191406 173.800781 307.414062 175.441406 C 307.640625 177.078125 307.753906 178.722656 307.753906 180.363281 Z M 304.308594 179.773438 C 304.308594 179.0625 304.304688 178.316406 304.292969 177.527344 C 304.28125 176.738281 304.25 175.96875 304.207031 175.210938 C 304.160156 174.457031 304.074219 173.746094 303.953125 173.074219 C 303.832031 172.40625 303.683594 171.832031 303.507812 171.359375 C 303.160156 170.59375 302.652344 169.964844 301.976562 169.476562 C 301.304688 168.984375 300.542969 168.742188 299.699219 168.738281 C 298.875 168.742188 298.128906 168.988281 297.460938 169.484375 C 296.796875 169.980469 296.289062 170.605469 295.9375 171.359375 C 295.765625 171.832031 295.617188 172.40625 295.496094 173.074219 C 295.375 173.746094 295.289062 174.457031 295.242188 175.210938 C 295.195312 175.96875 295.167969 176.738281 295.15625 177.527344 C 295.144531 178.316406 295.140625 179.0625 295.140625 179.773438 C 295.140625 180.5625 295.144531 181.394531 295.15625 182.265625 C 295.167969 183.140625 295.195312 183.984375 295.242188 184.800781 C 295.289062 185.617188 295.375 186.390625 295.496094 187.125 C 295.617188 187.855469 295.765625 188.46875 295.9375 188.964844 C 296.265625 189.789062 296.765625 190.464844 297.445312 190.992188 C 298.125 191.523438 298.875 191.789062 299.699219 191.785156 C 300.558594 191.789062 301.324219 191.523438 302.003906 190.992188 C 302.683594 190.464844 303.183594 189.789062 303.507812 188.964844 C 303.683594 188.46875 303.832031 187.855469 303.953125 187.125 C 304.074219 186.390625 304.160156 185.617188 304.207031 184.800781 C 304.25 183.984375 304.28125 183.140625 304.292969 182.265625 C 304.304688 181.394531 304.308594 180.5625 304.308594 179.773438 Z M 304.308594 179.773438 "/>
</g>
<g clip-path="url(#clip2)" clip-rule="nonzero">
<path style=" stroke:none;fill-rule:evenodd;fill:rgb(0%,0%,0%);fill-opacity:1;" d="M 545.707031 175.273438 C 545.707031 176.898438 545.59375 178.511719 545.367188 180.117188 C 545.140625 181.71875 544.582031 183.226562 543.6875 184.632812 C 543.050781 185.660156 542.199219 186.449219 541.132812 187 C 540.066406 187.550781 538.902344 187.828125 537.652344 187.828125 C 536.445312 187.828125 535.304688 187.550781 534.230469 187 C 533.160156 186.449219 532.300781 185.660156 531.664062 184.632812 C 530.773438 183.226562 530.210938 181.71875 529.988281 180.117188 C 529.761719 178.511719 529.648438 176.898438 529.648438 175.273438 C 529.648438 173.628906 529.761719 171.988281 529.988281 170.347656 C 530.210938 168.710938 530.773438 167.175781 531.664062 165.746094 C 532.300781 164.710938 533.15625 163.902344 534.222656 163.328125 C 535.289062 162.753906 536.433594 162.46875 537.652344 162.464844 C 538.894531 162.46875 540.046875 162.753906 541.121094 163.328125 C 542.195312 163.902344 543.050781 164.710938 543.6875 165.746094 C 544.582031 167.175781 545.140625 168.710938 545.367188 170.347656 C 545.59375 171.988281 545.707031 173.628906 545.707031 175.273438 Z M 542.261719 174.683594 C 542.261719 173.972656 542.257812 173.226562 542.246094 172.4375 C 542.234375 171.648438 542.203125 170.875 542.15625 170.121094 C 542.113281 169.367188 542.027344 168.65625 541.90625 167.984375 C 541.785156 167.3125 541.636719 166.742188 541.460938 166.269531 C 541.113281 165.503906 540.601562 164.875 539.929688 164.386719 C 539.257812 163.894531 538.496094 163.648438 537.652344 163.648438 C 536.828125 163.648438 536.082031 163.898438 535.414062 164.394531 C 534.75 164.890625 534.242188 165.515625 533.890625 166.269531 C 533.71875 166.742188 533.570312 167.3125 533.449219 167.984375 C 533.328125 168.65625 533.242188 169.367188 533.195312 170.121094 C 533.148438 170.875 533.121094 171.648438 533.109375 172.4375 C 533.097656 173.226562 533.089844 173.972656 533.089844 174.683594 C 533.089844 175.472656 533.097656 176.304688 533.109375 177.175781 C 533.121094 178.050781 533.148438 178.894531 533.195312 179.710938 C 533.242188 180.527344 533.328125 181.300781 533.449219 182.035156 C 533.570312 182.765625 533.71875 183.378906 533.890625 183.875 C 534.21875 184.699219 534.71875 185.375 535.398438 185.902344 C 536.074219 186.433594 536.828125 186.695312 537.652344 186.695312 C 538.507812 186.695312 539.277344 186.433594 539.957031 185.902344 C 540.636719 185.375 541.136719 184.699219 541.460938 183.875 C 541.636719 183.378906 541.785156 182.765625 541.90625 182.035156 C 542.027344 181.300781 542.113281 180.527344 542.15625 179.710938 C 542.203125 178.894531 542.234375 178.050781 542.246094 177.175781 C 542.257812 176.304688 542.261719 175.472656 542.261719 174.683594 Z M 542.261719 174.683594 "/>
</g>
<g clip-path="url(#clip3)" clip-rule="nonzero">
<path style=" stroke:none;fill-rule:evenodd;fill:rgb(0%,0%,0%);fill-opacity:1;" d="M 690.523438 175.273438 C 690.523438 176.898438 690.414062 178.511719 690.1875 180.117188 C 689.960938 181.71875 689.402344 183.226562 688.507812 184.632812 C 687.871094 185.660156 687.015625 186.449219 685.949219 187 C 684.882812 187.550781 683.722656 187.828125 682.46875 187.828125 C 681.261719 187.828125 680.125 187.550781 679.050781 187 C 677.976562 186.449219 677.121094 185.660156 676.484375 184.632812 C 675.589844 183.226562 675.03125 181.71875 674.804688 180.117188 C 674.578125 178.511719 674.464844 176.898438 674.464844 175.273438 C 674.464844 173.628906 674.578125 171.988281 674.804688 170.347656 C 675.03125 168.710938 675.589844 167.175781 676.484375 165.746094 C 677.121094 164.710938 677.972656 163.902344 679.039062 163.328125 C 680.109375 162.753906 681.25 162.46875 682.46875 162.464844 C 683.710938 162.46875 684.867188 162.753906 685.941406 163.328125 C 687.011719 163.902344 687.871094 164.710938 688.507812 165.746094 C 689.402344 167.175781 689.960938 168.710938 690.1875 170.347656 C 690.414062 171.988281 690.523438 173.628906 690.523438 175.273438 Z M 687.078125 174.683594 C 687.078125 173.972656 687.074219 173.226562 687.0625 172.4375 C 687.050781 171.648438 687.023438 170.875 686.976562 170.121094 C 686.929688 169.367188 686.847656 168.65625 686.722656 167.984375 C 686.601562 167.3125 686.453125 166.742188 686.28125 166.269531 C 685.929688 165.503906 685.421875 164.875 684.75 164.386719 C 684.074219 163.894531 683.316406 163.648438 682.46875 163.648438 C 681.644531 163.648438 680.898438 163.898438 680.234375 164.394531 C 679.566406 164.890625 679.058594 165.515625 678.710938 166.269531 C 678.535156 166.742188 678.390625 167.3125 678.265625 167.984375 C 678.144531 168.65625 678.0625 169.367188 678.015625 170.121094 C 677.96875 170.875 677.9375 171.648438 677.925781 172.4375 C 677.914062 173.226562 677.910156 173.972656 677.910156 174.683594 C 677.910156 175.472656 677.914062 176.304688 677.925781 177.175781 C 677.9375 178.050781 677.96875 178.894531 678.015625 179.710938 C 678.0625 180.527344 678.144531 181.300781 678.265625 182.035156 C 678.390625 182.765625 678.535156 183.378906 678.710938 183.875 C 679.035156 184.699219 679.539062 185.375 680.214844 185.902344 C 680.894531 186.433594 681.644531 186.695312 682.46875 186.695312 C 683.328125 186.695312 684.097656 186.433594 684.773438 185.902344 C 685.453125 185.375 685.953125 184.699219 686.28125 183.875 C 686.453125 183.378906 686.601562 182.765625 686.722656 182.035156 C 686.847656 181.300781 686.929688 180.527344 686.976562 179.710938 C 687.023438 178.894531 687.050781 178.050781 687.0625 177.175781 C 687.074219 176.304688 687.078125 175.472656 687.078125 174.683594 Z M 687.078125 174.683594 "/>
</g>
<g clip-path="url(#clip4)" clip-rule="nonzero">
<path style=" stroke:none;fill-rule:evenodd;fill:rgb(0%,0%,0%);fill-opacity:1;" d="M 943.050781 175.273438 C 943.050781 176.898438 942.9375 178.511719 942.710938 180.117188 C 942.488281 181.71875 941.925781 183.226562 941.03125 184.632812 C 940.394531 185.660156 939.542969 186.449219 938.476562 187 C 937.410156 187.550781 936.25 187.828125 934.996094 187.828125 C 933.789062 187.828125 932.648438 187.550781 931.574219 187 C 930.503906 186.449219 929.648438 185.660156 929.007812 184.632812 C 928.117188 183.226562 927.558594 181.71875 927.332031 180.117188 C 927.105469 178.511719 926.992188 176.898438 926.992188 175.273438 C 926.992188 173.628906 927.105469 171.988281 927.332031 170.347656 C 927.558594 168.710938 928.117188 167.175781 929.007812 165.746094 C 929.648438 164.710938 930.5 163.902344 931.566406 163.328125 C 932.632812 162.753906 933.777344 162.46875 934.996094 162.464844 C 936.238281 162.46875 937.394531 162.753906 938.464844 163.328125 C 939.539062 163.902344 940.394531 164.710938 941.03125 165.746094 C 941.925781 167.175781 942.484375 168.710938 942.710938 170.347656 C 942.9375 171.988281 943.050781 173.628906 943.050781 175.273438 Z M 939.605469 174.683594 C 939.605469 173.972656 939.601562 173.226562 939.589844 172.4375 C 939.578125 171.648438 939.546875 170.875 939.5 170.121094 C 939.457031 169.367188 939.371094 168.65625 939.25 167.984375 C 939.128906 167.3125 938.980469 166.742188 938.804688 166.269531 C 938.457031 165.503906 937.945312 164.875 937.273438 164.386719 C 936.601562 163.894531 935.839844 163.648438 934.996094 163.648438 C 934.171875 163.648438 933.425781 163.898438 932.757812 164.394531 C 932.09375 164.890625 931.585938 165.515625 931.234375 166.269531 C 931.0625 166.742188 930.914062 167.3125 930.792969 167.984375 C 930.671875 168.65625 930.585938 169.367188 930.539062 170.121094 C 930.492188 170.875 930.464844 171.648438 930.453125 172.4375 C 930.441406 173.226562 930.4375 173.972656 930.4375 174.683594 C 930.4375 175.472656 930.441406 176.304688 930.453125 177.175781 C 930.464844 178.050781 930.492188 178.894531 930.539062 179.710938 C 930.585938 180.527344 930.671875 181.300781 930.792969 182.035156 C 930.914062 182.765625 931.0625 183.378906 931.234375 183.875 C 931.5625 184.699219 932.0625 185.375 932.742188 185.902344 C 933.421875 186.433594 934.171875 186.695312 934.996094 186.695312 C 935.851562 186.695312 936.621094 186.433594 937.300781 185.902344 C 937.980469 185.375 938.480469 184.699219 938.804688 183.875 C 938.980469 183.378906 939.128906 182.765625 939.25 182.035156 C 939.371094 181.300781 939.457031 180.527344 939.5 179.710938 C 939.546875 178.894531 939.578125 178.050781 939.589844 177.175781 C 939.601562 176.304688 939.605469 175.472656 939.605469 174.683594 Z M 939.605469 174.683594 "/>
</g>
<path style="fill:none;stroke-width:10;stroke-linecap:round;stroke-linejoin:round;stroke:rgb(0%,0%,0%);stroke-opacity:1;stroke-miterlimit:10;" d="M 689.488006 2898.253264 C 689.488006 3104.503429 1251.046516 3104.503429 1251.046516 2898.253264 " transform="matrix(0.239575,0,0,-0.239545,0.0036855,819.930807)"/>
<path style="fill:none;stroke-width:10;stroke-linecap:round;stroke-linejoin:round;stroke:rgb(0%,0%,0%);stroke-opacity:1;stroke-miterlimit:10;" d="M 1743.537291 2898.253264 C 1743.537291 3104.503429 2244.262061 3104.503429 2244.262061 2898.253264 " transform="matrix(0.239575,0,0,-0.239545,0.0036855,819.930807)"/>
<path style="fill:none;stroke-width:10;stroke-linecap:round;stroke-linejoin:round;stroke:rgb(0%,0%,0%);stroke-opacity:1;stroke-miterlimit:10;" d="M 84.998584 2898.253264 C 84.998584 3309.514268 2848.751483 3309.514268 2848.751483 2898.253264 " transform="matrix(0.239575,0,0,-0.239545,0.0036855,819.930807)"/>
<path style="fill:none;stroke-width:10;stroke-linecap:round;stroke-linejoin:round;stroke:rgb(0%,0%,0%);stroke-opacity:1;stroke-miterlimit:10;" d="M 3410.309993 2898.253264 C 3410.309993 3103.883766 3902.817073 3105.123093 3902.817073 2898.253264 " transform="matrix(0.239575,0,0,-0.239545,0.0036855,819.930807)"/>
<path style=" stroke:none;fill-rule:evenodd;fill:rgb(0%,0%,0%);fill-opacity:1;" d="M 26.65625 340.855469 C 26.65625 344.332031 23.839844 347.144531 20.367188 347.144531 C 16.894531 347.144531 14.078125 344.332031 14.078125 340.855469 C 14.078125 337.386719 16.894531 334.570312 20.367188 334.570312 C 23.839844 334.570312 26.65625 337.386719 26.65625 340.855469 Z M 26.65625 340.855469 "/>
<path style=" stroke:none;fill-rule:evenodd;fill:rgb(0%,0%,0%);fill-opacity:1;" d="M 171.472656 340.855469 C 171.472656 344.332031 168.660156 347.144531 165.1875 347.144531 C 161.710938 347.144531 158.898438 344.332031 158.898438 340.855469 C 158.898438 337.386719 161.710938 334.570312 165.1875 334.570312 C 168.660156 334.570312 171.472656 337.386719 171.472656 340.855469 Z M 171.472656 340.855469 "/>
<path style=" stroke:none;fill-rule:evenodd;fill:rgb(0%,0%,0%);fill-opacity:1;" d="M 306.011719 340.855469 C 306.011719 344.332031 303.195312 347.144531 299.722656 347.144531 C 296.246094 347.144531 293.433594 344.332031 293.433594 340.855469 C 293.433594 337.386719 296.246094 334.570312 299.722656 334.570312 C 303.195312 334.570312 306.011719 337.386719 306.011719 340.855469 Z M 306.011719 340.855469 "/>
<path style=" stroke:none;fill-rule:evenodd;fill:rgb(0%,0%,0%);fill-opacity:1;" d="M 424 340.855469 C 424 344.332031 421.183594 347.144531 417.710938 347.144531 C 414.238281 347.144531 411.421875 344.332031 411.421875 340.855469 C 411.421875 337.386719 414.238281 334.570312 417.710938 334.570312 C 421.183594 334.570312 424 337.386719 424 340.855469 Z M 424 340.855469 "/>
<path style=" stroke:none;fill-rule:evenodd;fill:rgb(0%,0%,0%);fill-opacity:1;" d="M 543.960938 340.855469 C 543.960938 344.332031 541.148438 347.144531 537.671875 347.144531 C 534.199219 347.144531 531.386719 344.332031 531.386719 340.855469 C 531.386719 337.386719 534.199219 334.570312 537.671875 334.570312 C 541.148438 334.570312 543.960938 337.386719 543.960938 340.855469 Z M 543.960938 340.855469 "/>
<path style=" stroke:none;fill-rule:evenodd;fill:rgb(0%,0%,0%);fill-opacity:1;" d="M 688.78125 340.855469 C 688.78125 344.332031 685.964844 347.144531 682.492188 347.144531 C 679.019531 347.144531 676.203125 344.332031 676.203125 340.855469 C 676.203125 337.386719 679.019531 334.570312 682.492188 334.570312 C 685.964844 334.570312 688.78125 337.386719 688.78125 340.855469 Z M 688.78125 340.855469 "/>
<path style=" stroke:none;fill-rule:evenodd;fill:rgb(0%,0%,0%);fill-opacity:1;" d="M 823.316406 340.855469 C 823.316406 344.332031 820.5 347.144531 817.027344 347.144531 C 813.554688 347.144531 810.738281 344.332031 810.738281 340.855469 C 810.738281 337.386719 813.554688 334.570312 817.027344 334.570312 C 820.5 334.570312 823.316406 337.386719 823.316406 340.855469 Z M 823.316406 340.855469 "/>
<path style=" stroke:none;fill-rule:evenodd;fill:rgb(0%,0%,0%);fill-opacity:1;" d="M 941.308594 340.855469 C 941.308594 344.332031 938.492188 347.144531 935.019531 347.144531 C 931.542969 347.144531 928.730469 344.332031 928.730469 340.855469 C 928.730469 337.386719 931.542969 334.570312 935.019531 334.570312 C 938.492188 334.570312 941.308594 337.386719 941.308594 340.855469 Z M 941.308594 340.855469 "/>
<g clip-path="url(#clip5)" clip-rule="nonzero">
<path style=" stroke:none;fill-rule:evenodd;fill:rgb(0%,0%,0%);fill-opacity:1;" d="M 306.074219 407.316406 C 303.941406 407.246094 301.863281 407.214844 299.847656 407.214844 C 297.828125 407.214844 295.75 407.246094 293.617188 407.316406 L 293.617188 405.863281 L 294.816406 405.863281 C 295.199219 405.863281 295.558594 405.859375 295.894531 405.847656 C 296.234375 405.835938 296.550781 405.808594 296.855469 405.761719 C 297.15625 405.71875 297.417969 405.671875 297.636719 405.625 C 297.820312 405.59375 297.976562 405.488281 298.097656 405.3125 C 298.21875 405.140625 298.28125 404.945312 298.28125 404.730469 L 298.28125 385.6875 C 297.699219 385.96875 296.988281 386.183594 296.140625 386.332031 C 295.292969 386.476562 294.367188 386.550781 293.355469 386.550781 L 293.355469 385.113281 C 294.746094 385.113281 296.03125 384.949219 297.210938 384.617188 C 298.386719 384.285156 299.40625 383.660156 300.265625 382.746094 L 300.804688 382.746094 C 301.1875 382.75 301.378906 382.933594 301.378906 383.304688 L 301.378906 404.730469 C 301.378906 404.957031 301.433594 405.152344 301.550781 405.320312 C 301.667969 405.492188 301.835938 405.59375 302.054688 405.625 C 302.242188 405.671875 302.480469 405.71875 302.769531 405.761719 C 303.058594 405.808594 303.386719 405.835938 303.753906 405.847656 C 304.117188 405.859375 304.476562 405.863281 304.824219 405.863281 L 306.074219 405.863281 Z M 306.074219 407.316406 "/>
</g>
<g clip-path="url(#clip6)" clip-rule="nonzero">
<path style=" stroke:none;fill-rule:evenodd;fill:rgb(0%,0%,0%);fill-opacity:1;" d="M 545.707031 390.464844 C 545.707031 392.085938 545.59375 393.703125 545.367188 395.304688 C 545.140625 396.910156 544.582031 398.417969 543.6875 399.824219 C 543.050781 400.851562 542.199219 401.640625 541.132812 402.191406 C 540.066406 402.742188 538.902344 403.019531 537.652344 403.019531 C 536.445312 403.019531 535.304688 402.742188 534.230469 402.191406 C 533.160156 401.640625 532.300781 400.851562 531.664062 399.824219 C 530.773438 398.417969 530.210938 396.910156 529.988281 395.304688 C 529.761719 393.703125 529.648438 392.085938 529.648438 390.464844 C 529.648438 388.820312 529.761719 387.179688 529.988281 385.539062 C 530.210938 383.902344 530.773438 382.367188 531.664062 380.933594 C 532.300781 379.898438 533.15625 379.09375 534.222656 378.519531 C 535.289062 377.945312 536.433594 377.65625 537.652344 377.65625 C 538.894531 377.65625 540.046875 377.945312 541.121094 378.519531 C 542.195312 379.09375 543.050781 379.898438 543.6875 380.933594 C 544.582031 382.367188 545.140625 383.902344 545.367188 385.539062 C 545.59375 387.179688 545.707031 388.820312 545.707031 390.464844 Z M 542.261719 389.875 C 542.261719 389.164062 542.257812 388.414062 542.246094 387.625 C 542.234375 386.839844 542.203125 386.066406 542.15625 385.3125 C 542.113281 384.558594 542.027344 383.84375 541.90625 383.175781 C 541.785156 382.503906 541.636719 381.933594 541.460938 381.457031 C 541.113281 380.695312 540.601562 380.066406 539.929688 379.574219 C 539.257812 379.085938 538.496094 378.839844 537.652344 378.839844 C 536.828125 378.839844 536.082031 379.089844 535.414062 379.585938 C 534.75 380.082031 534.242188 380.703125 533.890625 381.457031 C 533.71875 381.933594 533.570312 382.503906 533.449219 383.175781 C 533.328125 383.84375 533.242188 384.558594 533.195312 385.3125 C 533.148438 386.066406 533.121094 386.839844 533.109375 387.625 C 533.097656 388.414062 533.089844 389.164062 533.089844 389.875 C 533.089844 390.664062 533.097656 391.492188 533.109375 392.367188 C 533.121094 393.238281 533.148438 394.085938 533.195312 394.902344 C 533.242188 395.71875 533.328125 396.492188 533.449219 397.222656 C 533.570312 397.957031 533.71875 398.570312 533.890625 399.066406 C 534.21875 399.886719 534.71875 400.566406 535.398438 401.09375 C 536.074219 401.625 536.828125 401.886719 537.652344 401.886719 C 538.507812 401.886719 539.277344 401.625 539.957031 401.09375 C 540.636719 400.566406 541.136719 399.886719 541.460938 399.066406 C 541.636719 398.570312 541.785156 397.957031 541.90625 397.222656 C 542.027344 396.492188 542.113281 395.71875 542.15625 394.902344 C 542.203125 394.085938 542.234375 393.238281 542.246094 392.367188 C 542.257812 391.492188 542.261719 390.664062 542.261719 389.875 Z M 542.261719 389.875 "/>
</g>
<g clip-path="url(#clip7)" clip-rule="nonzero">
<path style=" stroke:none;fill-rule:evenodd;fill:rgb(0%,0%,0%);fill-opacity:1;" d="M 690.523438 390.464844 C 690.523438 392.085938 690.414062 393.703125 690.1875 395.304688 C 689.960938 396.910156 689.402344 398.417969 688.507812 399.824219 C 687.871094 400.851562 687.015625 401.640625 685.949219 402.191406 C 684.882812 402.742188 683.722656 403.019531 682.46875 403.019531 C 681.261719 403.019531 680.125 402.742188 679.050781 402.191406 C 677.976562 401.640625 677.121094 400.851562 676.484375 399.824219 C 675.589844 398.417969 675.03125 396.910156 674.804688 395.304688 C 674.578125 393.703125 674.464844 392.085938 674.464844 390.464844 C 674.464844 388.820312 674.578125 387.179688 674.804688 385.539062 C 675.03125 383.902344 675.589844 382.367188 676.484375 380.933594 C 677.121094 379.898438 677.972656 379.09375 679.039062 378.519531 C 680.109375 377.945312 681.25 377.65625 682.46875 377.65625 C 683.710938 377.65625 684.867188 377.945312 685.941406 378.519531 C 687.011719 379.09375 687.871094 379.898438 688.507812 380.933594 C 689.402344 382.367188 689.960938 383.902344 690.1875 385.539062 C 690.414062 387.179688 690.523438 388.820312 690.523438 390.464844 Z M 687.078125 389.875 C 687.078125 389.164062 687.074219 388.414062 687.0625 387.625 C 687.050781 386.839844 687.023438 386.066406 686.976562 385.3125 C 686.929688 384.558594 686.847656 383.84375 686.722656 383.175781 C 686.601562 382.503906 686.453125 381.933594 686.28125 381.457031 C 685.929688 380.695312 685.421875 380.066406 684.75 379.574219 C 684.074219 379.085938 683.316406 378.839844 682.46875 378.839844 C 681.644531 378.839844 680.898438 379.089844 680.234375 379.585938 C 679.566406 380.082031 679.058594 380.703125 678.710938 381.457031 C 678.535156 381.933594 678.390625 382.503906 678.265625 383.175781 C 678.144531 383.84375 678.0625 384.558594 678.015625 385.3125 C 677.96875 386.066406 677.9375 386.839844 677.925781 387.625 C 677.914062 388.414062 677.910156 389.164062 677.910156 389.875 C 677.910156 390.664062 677.914062 391.492188 677.925781 392.367188 C 677.9375 393.238281 677.96875 394.085938 678.015625 394.902344 C 678.0625 395.71875 678.144531 396.492188 678.265625 397.222656 C 678.390625 397.957031 678.535156 398.570312 678.710938 399.066406 C 679.035156 399.886719 679.539062 400.566406 680.214844 401.09375 C 680.894531 401.625 681.644531 401.886719 682.46875 401.886719 C 683.328125 401.886719 684.097656 401.625 684.773438 401.09375 C 685.453125 400.566406 685.953125 399.886719 686.28125 399.066406 C 686.453125 398.570312 686.601562 397.957031 686.722656 397.222656 C 686.847656 396.492188 686.929688 395.71875 686.976562 394.902344 C 687.023438 394.085938 687.050781 393.238281 687.0625 392.367188 C 687.074219 391.492188 687.078125 390.664062 687.078125 389.875 Z M 687.078125 389.875 "/>
</g>
<g clip-path="url(#clip8)" clip-rule="nonzero">
<path style=" stroke:none;fill-rule:evenodd;fill:rgb(0%,0%,0%);fill-opacity:1;" d="M 943.050781 390.464844 C 943.050781 392.085938 942.9375 393.703125 942.710938 395.304688 C 942.488281 396.910156 941.925781 398.417969 941.03125 399.824219 C 940.394531 400.851562 939.542969 401.640625 938.476562 402.191406 C 937.410156 402.742188 936.25 403.019531 934.996094 403.019531 C 933.789062 403.019531 932.648438 402.742188 931.574219 402.191406 C 930.503906 401.640625 929.648438 400.851562 929.007812 399.824219 C 928.117188 398.417969 927.558594 396.910156 927.332031 395.304688 C 927.105469 393.703125 926.992188 392.085938 926.992188 390.464844 C 926.992188 388.820312 927.105469 387.179688 927.332031 385.539062 C 927.558594 383.902344 928.117188 382.367188 929.007812 380.933594 C 929.648438 379.898438 930.5 379.09375 931.566406 378.519531 C 932.632812 377.945312 933.777344 377.65625 934.996094 377.65625 C 936.238281 377.65625 937.394531 377.945312 938.464844 378.519531 C 939.539062 379.09375 940.394531 379.898438 941.03125 380.933594 C 941.925781 382.367188 942.484375 383.902344 942.710938 385.539062 C 942.9375 387.179688 943.050781 388.820312 943.050781 390.464844 Z M 939.605469 389.875 C 939.605469 389.164062 939.601562 388.414062 939.589844 387.625 C 939.578125 386.839844 939.546875 386.066406 939.5 385.3125 C 939.457031 384.558594 939.371094 383.84375 939.25 383.175781 C 939.128906 382.503906 938.980469 381.933594 938.804688 381.457031 C 938.457031 380.695312 937.945312 380.066406 937.273438 379.574219 C 936.601562 379.085938 935.839844 378.839844 934.996094 378.839844 C 934.171875 378.839844 933.425781 379.089844 932.757812 379.585938 C 932.09375 380.082031 931.585938 380.703125 931.234375 381.457031 C 931.0625 381.933594 930.914062 382.503906 930.792969 383.175781 C 930.671875 383.84375 930.585938 384.558594 930.539062 385.3125 C 930.492188 386.066406 930.464844 386.839844 930.453125 387.625 C 930.441406 388.414062 930.4375 389.164062 930.4375 389.875 C 930.4375 390.664062 930.441406 391.492188 930.453125 392.367188 C 930.464844 393.238281 930.492188 394.085938 930.539062 394.902344 C 930.585938 395.71875 930.671875 396.492188 930.792969 397.222656 C 930.914062 397.957031 931.0625 398.570312 931.234375 399.066406 C 931.5625 399.886719 932.0625 400.566406 932.742188 401.09375 C 933.421875 401.625 934.171875 401.886719 934.996094 401.886719 C 935.851562 401.886719 936.621094 401.625 937.300781 401.09375 C 937.980469 400.566406 938.480469 399.886719 938.804688 399.066406 C 938.980469 398.570312 939.128906 397.957031 939.25 397.222656 C 939.371094 396.492188 939.457031 395.71875 939.5 394.902344 C 939.546875 394.085938 939.578125 393.238281 939.589844 392.367188 C 939.601562 391.492188 939.605469 390.664062 939.605469 389.875 Z M 939.605469 389.875 "/>
</g>
<path style="fill:none;stroke-width:10;stroke-linecap:round;stroke-linejoin:round;stroke:rgb(0%,0%,0%);stroke-opacity:1;stroke-miterlimit:10;" d="M 1743.537291 1999.936603 C 1743.537291 2206.186769 2244.262061 2206.186769 2244.262061 1999.936603 " transform="matrix(0.239575,0,0,-0.239545,0.0036855,819.930807)"/>
<path style="fill:none;stroke-width:10;stroke-linecap:round;stroke-linejoin:round;stroke:rgb(0%,0%,0%);stroke-opacity:1;stroke-miterlimit:10;" d="M 689.488006 1999.936603 C 689.488006 2338.468658 2848.751483 2338.468658 2848.751483 1999.936603 " transform="matrix(0.239575,0,0,-0.239545,0.0036855,819.930807)"/>
<path style="fill:none;stroke-width:10;stroke-linecap:round;stroke-linejoin:round;stroke:rgb(0%,0%,0%);stroke-opacity:1;stroke-miterlimit:10;" d="M 84.998584 1999.936603 C 84.998584 2338.468658 1251.046516 2338.468658 1251.046516 1999.936603 " transform="matrix(0.239575,0,0,-0.239545,0.0036855,819.930807)"/>
<path style="fill:none;stroke-width:10;stroke-linecap:round;stroke-linejoin:round;stroke:rgb(0%,0%,0%);stroke-opacity:1;stroke-miterlimit:10;" d="M 3410.309993 1999.936603 C 3410.309993 2206.186769 3902.817073 2206.186769 3902.817073 1999.936603 " transform="matrix(0.239575,0,0,-0.239545,0.0036855,819.930807)"/>
<path style=" stroke:none;fill-rule:evenodd;fill:rgb(0%,0%,0%);fill-opacity:1;" d="M 26.65625 539.332031 C 26.65625 542.804688 23.839844 545.621094 20.367188 545.621094 C 16.894531 545.621094 14.078125 542.804688 14.078125 539.332031 C 14.078125 535.859375 16.894531 533.042969 20.367188 533.042969 C 23.839844 533.042969 26.65625 535.859375 26.65625 539.332031 Z M 26.65625 539.332031 "/>
<path style=" stroke:none;fill-rule:evenodd;fill:rgb(0%,0%,0%);fill-opacity:1;" d="M 171.472656 539.332031 C 171.472656 542.804688 168.660156 545.621094 165.1875 545.621094 C 161.710938 545.621094 158.898438 542.804688 158.898438 539.332031 C 158.898438 535.859375 161.710938 533.042969 165.1875 533.042969 C 168.660156 533.042969 171.472656 535.859375 171.472656 539.332031 Z M 171.472656 539.332031 "/>
<path style=" stroke:none;fill-rule:evenodd;fill:rgb(0%,0%,0%);fill-opacity:1;" d="M 306.011719 539.332031 C 306.011719 542.804688 303.195312 545.621094 299.722656 545.621094 C 296.246094 545.621094 293.433594 542.804688 293.433594 539.332031 C 293.433594 535.859375 296.246094 533.042969 299.722656 533.042969 C 303.195312 533.042969 306.011719 535.859375 306.011719 539.332031 Z M 306.011719 539.332031 "/>
<path style=" stroke:none;fill-rule:evenodd;fill:rgb(0%,0%,0%);fill-opacity:1;" d="M 424 539.332031 C 424 542.804688 421.183594 545.621094 417.710938 545.621094 C 414.238281 545.621094 411.421875 542.804688 411.421875 539.332031 C 411.421875 535.859375 414.238281 533.042969 417.710938 533.042969 C 421.183594 533.042969 424 535.859375 424 539.332031 Z M 424 539.332031 "/>
<path style=" stroke:none;fill-rule:evenodd;fill:rgb(0%,0%,0%);fill-opacity:1;" d="M 543.960938 539.332031 C 543.960938 542.804688 541.148438 545.621094 537.671875 545.621094 C 534.199219 545.621094 531.386719 542.804688 531.386719 539.332031 C 531.386719 535.859375 534.199219 533.042969 537.671875 533.042969 C 541.148438 533.042969 543.960938 535.859375 543.960938 539.332031 Z M 543.960938 539.332031 "/>
<path style=" stroke:none;fill-rule:evenodd;fill:rgb(0%,0%,0%);fill-opacity:1;" d="M 688.78125 539.332031 C 688.78125 542.804688 685.964844 545.621094 682.492188 545.621094 C 679.019531 545.621094 676.203125 542.804688 676.203125 539.332031 C 676.203125 535.859375 679.019531 533.042969 682.492188 533.042969 C 685.964844 533.042969 688.78125 535.859375 688.78125 539.332031 Z M 688.78125 539.332031 "/>
<path style=" stroke:none;fill-rule:evenodd;fill:rgb(0%,0%,0%);fill-opacity:1;" d="M 823.316406 539.332031 C 823.316406 542.804688 820.5 545.621094 817.027344 545.621094 C 813.554688 545.621094 810.738281 542.804688 810.738281 539.332031 C 810.738281 535.859375 813.554688 533.042969 817.027344 533.042969 C 820.5 533.042969 823.316406 535.859375 823.316406 539.332031 Z M 823.316406 539.332031 "/>
<path style=" stroke:none;fill-rule:evenodd;fill:rgb(0%,0%,0%);fill-opacity:1;" d="M 941.308594 539.332031 C 941.308594 542.804688 938.492188 545.621094 935.019531 545.621094 C 931.542969 545.621094 928.730469 542.804688 928.730469 539.332031 C 928.730469 535.859375 931.542969 533.042969 935.019531 533.042969 C 938.492188 533.042969 941.308594 535.859375 941.308594 539.332031 Z M 941.308594 539.332031 "/>
<g clip-path="url(#clip9)" clip-rule="nonzero">
<path style=" stroke:none;fill-rule:evenodd;fill:rgb(0%,0%,0%);fill-opacity:1;" d="M 307.753906 594.03125 C 307.753906 595.652344 307.640625 597.265625 307.414062 598.871094 C 307.191406 600.476562 306.628906 601.984375 305.738281 603.390625 C 305.097656 604.417969 304.246094 605.203125 303.179688 605.757812 C 302.113281 606.308594 300.953125 606.585938 299.699219 606.585938 C 298.492188 606.585938 297.351562 606.308594 296.28125 605.757812 C 295.207031 605.203125 294.351562 604.417969 293.710938 603.390625 C 292.820312 601.984375 292.261719 600.476562 292.035156 598.871094 C 291.808594 597.265625 291.695312 595.652344 291.695312 594.03125 C 291.695312 592.386719 291.808594 590.746094 292.035156 589.105469 C 292.261719 587.464844 292.820312 585.933594 293.710938 584.5 C 294.351562 583.464844 295.203125 582.660156 296.269531 582.085938 C 297.335938 581.511719 298.480469 581.222656 299.699219 581.222656 C 300.941406 581.222656 302.097656 581.511719 303.167969 582.085938 C 304.242188 582.660156 305.097656 583.464844 305.738281 584.5 C 306.628906 585.933594 307.191406 587.464844 307.414062 589.105469 C 307.640625 590.746094 307.753906 592.386719 307.753906 594.03125 Z M 304.308594 593.4375 C 304.308594 592.730469 304.304688 591.980469 304.292969 591.191406 C 304.28125 590.40625 304.25 589.632812 304.207031 588.878906 C 304.160156 588.125 304.074219 587.410156 303.953125 586.742188 C 303.832031 586.070312 303.683594 585.5 303.507812 585.023438 C 303.160156 584.257812 302.652344 583.632812 301.976562 583.140625 C 301.304688 582.652344 300.542969 582.40625 299.699219 582.40625 C 298.875 582.40625 298.128906 582.65625 297.460938 583.148438 C 296.796875 583.644531 296.289062 584.269531 295.9375 585.023438 C 295.765625 585.5 295.617188 586.070312 295.496094 586.742188 C 295.375 587.410156 295.289062 588.125 295.242188 588.878906 C 295.195312 589.632812 295.167969 590.40625 295.15625 591.191406 C 295.144531 591.980469 295.140625 592.730469 295.140625 593.4375 C 295.140625 594.226562 295.144531 595.058594 295.15625 595.933594 C 295.167969 596.804688 295.195312 597.648438 295.242188 598.464844 C 295.289062 599.285156 295.375 600.058594 295.496094 600.789062 C 295.617188 601.523438 295.765625 602.136719 295.9375 602.628906 C 296.265625 603.453125 296.765625 604.128906 297.445312 604.660156 C 298.125 605.1875 298.875 605.453125 299.699219 605.453125 C 300.558594 605.453125 301.324219 605.1875 302.003906 604.660156 C 302.683594 604.128906 303.183594 603.453125 303.507812 602.628906 C 303.683594 602.136719 303.832031 601.523438 303.953125 600.789062 C 304.074219 600.058594 304.160156 599.285156 304.207031 598.464844 C 304.25 597.648438 304.28125 596.804688 304.292969 595.933594 C 304.304688 595.058594 304.308594 594.226562 304.308594 593.4375 Z M 304.308594 593.4375 "/>
</g>
<g clip-path="url(#clip10)" clip-rule="nonzero">
<path style=" stroke:none;fill-rule:evenodd;fill:rgb(0%,0%,0%);fill-opacity:1;" d="M 544.027344 600.699219 C 541.894531 600.632812 539.816406 600.597656 537.796875 600.597656 C 535.78125 600.597656 533.703125 600.632812 531.570312 600.699219 L 531.570312 599.246094 L 532.769531 599.246094 C 533.152344 599.246094 533.511719 599.242188 533.847656 599.230469 C 534.183594 599.21875 534.503906 599.191406 534.804688 599.144531 C 535.109375 599.101562 535.371094 599.054688 535.589844 599.011719 C 535.773438 598.976562 535.929688 598.875 536.050781 598.699219 C 536.171875 598.523438 536.230469 598.328125 536.230469 598.113281 L 536.230469 579.070312 C 535.652344 579.355469 534.9375 579.570312 534.09375 579.714844 C 533.246094 579.863281 532.316406 579.933594 531.308594 579.933594 L 531.308594 578.496094 C 532.699219 578.5 533.984375 578.332031 535.164062 578 C 536.339844 577.667969 537.359375 577.046875 538.214844 576.132812 L 538.757812 576.132812 C 539.136719 576.132812 539.328125 576.320312 539.328125 576.691406 L 539.328125 598.113281 C 539.328125 598.339844 539.386719 598.539062 539.503906 598.707031 C 539.621094 598.875 539.789062 598.976562 540.007812 599.011719 C 540.195312 599.054688 540.433594 599.101562 540.722656 599.144531 C 541.011719 599.191406 541.339844 599.21875 541.703125 599.230469 C 542.070312 599.242188 542.425781 599.246094 542.777344 599.246094 L 544.027344 599.246094 Z M 544.027344 600.699219 "/>
</g>
<g clip-path="url(#clip11)" clip-rule="nonzero">
<path style=" stroke:none;fill-rule:evenodd;fill:rgb(0%,0%,0%);fill-opacity:1;" d="M 690.523438 588.941406 C 690.523438 590.5625 690.414062 592.175781 690.1875 593.78125 C 689.960938 595.386719 689.402344 596.894531 688.507812 598.300781 C 687.871094 599.328125 687.015625 600.113281 685.949219 600.664062 C 684.882812 601.21875 683.722656 601.492188 682.46875 601.492188 C 681.261719 601.492188 680.125 601.21875 679.050781 600.664062 C 677.976562 600.113281 677.121094 599.328125 676.484375 598.300781 C 675.589844 596.894531 675.03125 595.386719 674.804688 593.78125 C 674.578125 592.175781 674.464844 590.5625 674.464844 588.941406 C 674.464844 587.296875 674.578125 585.65625 674.804688 584.015625 C 675.03125 582.375 675.589844 580.84375 676.484375 579.410156 C 677.121094 578.375 677.972656 577.570312 679.039062 576.996094 C 680.109375 576.421875 681.25 576.132812 682.46875 576.132812 C 683.710938 576.132812 684.867188 576.421875 685.941406 576.996094 C 687.011719 577.570312 687.871094 578.375 688.507812 579.410156 C 689.402344 580.84375 689.960938 582.375 690.1875 584.015625 C 690.414062 585.65625 690.523438 587.296875 690.523438 588.941406 Z M 687.078125 588.347656 C 687.078125 587.640625 687.074219 586.890625 687.0625 586.101562 C 687.050781 585.3125 687.023438 584.542969 686.976562 583.789062 C 686.929688 583.035156 686.847656 582.320312 686.722656 581.648438 C 686.601562 580.980469 686.453125 580.40625 686.28125 579.933594 C 685.929688 579.167969 685.421875 578.542969 684.75 578.050781 C 684.074219 577.5625 683.316406 577.316406 682.46875 577.316406 C 681.644531 577.316406 680.898438 577.5625 680.234375 578.058594 C 679.566406 578.554688 679.058594 579.179688 678.710938 579.933594 C 678.535156 580.40625 678.390625 580.980469 678.265625 581.648438 C 678.144531 582.320312 678.0625 583.035156 678.015625 583.789062 C 677.96875 584.542969 677.9375 585.3125 677.925781 586.101562 C 677.914062 586.890625 677.910156 587.640625 677.910156 588.347656 C 677.910156 589.136719 677.914062 589.96875 677.925781 590.839844 C 677.9375 591.714844 677.96875 592.558594 678.015625 593.375 C 678.0625 594.195312 678.144531 594.96875 678.265625 595.699219 C 678.390625 596.433594 678.535156 597.046875 678.710938 597.539062 C 679.035156 598.363281 679.539062 599.039062 680.214844 599.570312 C 680.894531 600.097656 681.644531 600.363281 682.46875 600.363281 C 683.328125 600.363281 684.097656 600.097656 684.773438 599.570312 C 685.453125 599.039062 685.953125 598.363281 686.28125 597.539062 C 686.453125 597.046875 686.601562 596.433594 686.722656 595.699219 C 686.847656 594.96875 686.929688 594.195312 686.976562 593.375 C 687.023438 592.558594 687.050781 591.714844 687.0625 590.839844 C 687.074219 589.96875 687.078125 589.136719 687.078125 588.347656 Z M 687.078125 588.347656 "/>
</g>
<g clip-path="url(#clip12)" clip-rule="nonzero">
<path style=" stroke:none;fill-rule:evenodd;fill:rgb(0%,0%,0%);fill-opacity:1;" d="M 943.050781 588.941406 C 943.050781 590.5625 942.9375 592.175781 942.710938 593.78125 C 942.488281 595.386719 941.925781 596.894531 941.03125 598.300781 C 940.394531 599.328125 939.542969 600.113281 938.476562 600.664062 C 937.410156 601.21875 936.25 601.492188 934.996094 601.492188 C 933.789062 601.492188 932.648438 601.21875 931.574219 600.664062 C 930.503906 600.113281 929.648438 599.328125 929.007812 598.300781 C 928.117188 596.894531 927.558594 595.386719 927.332031 593.78125 C 927.105469 592.175781 926.992188 590.5625 926.992188 588.941406 C 926.992188 587.296875 927.105469 585.65625 927.332031 584.015625 C 927.558594 582.375 928.117188 580.84375 929.007812 579.410156 C 929.648438 578.375 930.5 577.570312 931.566406 576.996094 C 932.632812 576.421875 933.777344 576.132812 934.996094 576.132812 C 936.238281 576.132812 937.394531 576.421875 938.464844 576.996094 C 939.539062 577.570312 940.394531 578.375 941.03125 579.410156 C 941.925781 580.84375 942.484375 582.375 942.710938 584.015625 C 942.9375 585.65625 943.050781 587.296875 943.050781 588.941406 Z M 939.605469 588.347656 C 939.605469 587.640625 939.601562 586.890625 939.589844 586.101562 C 939.578125 585.3125 939.546875 584.542969 939.5 583.789062 C 939.457031 583.035156 939.371094 582.320312 939.25 581.648438 C 939.128906 580.980469 938.980469 580.40625 938.804688 579.933594 C 938.457031 579.167969 937.945312 578.542969 937.273438 578.050781 C 936.601562 577.5625 935.839844 577.316406 934.996094 577.316406 C 934.171875 577.316406 933.425781 577.5625 932.757812 578.058594 C 932.09375 578.554688 931.585938 579.179688 931.234375 579.933594 C 931.0625 580.40625 930.914062 580.980469 930.792969 581.648438 C 930.671875 582.320312 930.585938 583.035156 930.539062 583.789062 C 930.492188 584.542969 930.464844 585.3125 930.453125 586.101562 C 930.441406 586.890625 930.4375 587.640625 930.4375 588.347656 C 930.4375 589.136719 930.441406 589.96875 930.453125 590.839844 C 930.464844 591.714844 930.492188 592.558594 930.539062 593.375 C 930.585938 594.195312 930.671875 594.96875 930.792969 595.699219 C 930.914062 596.433594 931.0625 597.046875 931.234375 597.539062 C 931.5625 598.363281 932.0625 599.039062 932.742188 599.570312 C 933.421875 600.097656 934.171875 600.363281 934.996094 600.363281 C 935.851562 600.363281 936.621094 600.097656 937.300781 599.570312 C 937.980469 599.039062 938.480469 598.363281 938.804688 597.539062 C 938.980469 597.046875 939.128906 596.433594 939.25 595.699219 C 939.371094 594.96875 939.457031 594.195312 939.5 593.375 C 939.546875 592.558594 939.578125 591.714844 939.589844 590.839844 C 939.601562 589.96875 939.605469 589.136719 939.605469 588.347656 Z M 939.605469 588.347656 "/>
</g>
<path style="fill:none;stroke-width:10;stroke-linecap:round;stroke-linejoin:round;stroke:rgb(0%,0%,0%);stroke-opacity:1;stroke-miterlimit:10;" d="M 689.488006 1171.381028 C 689.488006 1394.671945 1251.046516 1394.671945 1251.046516 1171.381028 " transform="matrix(0.239575,0,0,-0.239545,0.0036855,819.930807)"/>
<path style="fill:none;stroke-width:10;stroke-linecap:round;stroke-linejoin:round;stroke:rgb(0%,0%,0%);stroke-opacity:1;stroke-miterlimit:10;" d="M 84.998584 1171.381028 C 84.998584 1594.301493 2244.262061 1594.301493 2244.262061 1171.381028 " transform="matrix(0.239575,0,0,-0.239545,0.0036855,819.930807)"/>
<path style="fill:none;stroke-width:10;stroke-linecap:round;stroke-linejoin:round;stroke:rgb(0%,0%,0%);stroke-opacity:1;stroke-miterlimit:10;" d="M 1743.537291 1171.381028 C 1743.537291 1382.833107 2848.751483 1382.833107 2848.751483 1171.381028 " transform="matrix(0.239575,0,0,-0.239545,0.0036855,819.930807)"/>
<path style="fill:none;stroke-width:10;stroke-linecap:round;stroke-linejoin:round;stroke:rgb(0%,0%,0%);stroke-opacity:1;stroke-miterlimit:10;" d="M 3410.309993 1171.381028 C 3410.309993 1382.833107 3902.817073 1382.833107 3902.817073 1171.381028 " transform="matrix(0.239575,0,0,-0.239545,0.0036855,819.930807)"/>
<path style=" stroke:none;fill-rule:evenodd;fill:rgb(0%,0%,0%);fill-opacity:1;" d="M 26.65625 723.082031 C 26.65625 726.554688 23.839844 729.371094 20.367188 729.371094 C 16.894531 729.371094 14.078125 726.554688 14.078125 723.082031 C 14.078125 719.609375 16.894531 716.792969 20.367188 716.792969 C 23.839844 716.792969 26.65625 719.609375 26.65625 723.082031 Z M 26.65625 723.082031 "/>
<path style=" stroke:none;fill-rule:evenodd;fill:rgb(0%,0%,0%);fill-opacity:1;" d="M 171.472656 723.082031 C 171.472656 726.554688 168.660156 729.371094 165.1875 729.371094 C 161.710938 729.371094 158.898438 726.554688 158.898438 723.082031 C 158.898438 719.609375 161.710938 716.792969 165.1875 716.792969 C 168.660156 716.792969 171.472656 719.609375 171.472656 723.082031 Z M 171.472656 723.082031 "/>
<path style=" stroke:none;fill-rule:evenodd;fill:rgb(0%,0%,0%);fill-opacity:1;" d="M 306.011719 723.082031 C 306.011719 726.554688 303.195312 729.371094 299.722656 729.371094 C 296.246094 729.371094 293.433594 726.554688 293.433594 723.082031 C 293.433594 719.609375 296.246094 716.792969 299.722656 716.792969 C 303.195312 716.792969 306.011719 719.609375 306.011719 723.082031 Z M 306.011719 723.082031 "/>
<path style=" stroke:none;fill-rule:evenodd;fill:rgb(0%,0%,0%);fill-opacity:1;" d="M 424 723.082031 C 424 726.554688 421.183594 729.371094 417.710938 729.371094 C 414.238281 729.371094 411.421875 726.554688 411.421875 723.082031 C 411.421875 719.609375 414.238281 716.792969 417.710938 716.792969 C 421.183594 716.792969 424 719.609375 424 723.082031 Z M 424 723.082031 "/>
<path style=" stroke:none;fill-rule:evenodd;fill:rgb(0%,0%,0%);fill-opacity:1;" d="M 543.960938 723.082031 C 543.960938 726.554688 541.148438 729.371094 537.671875 729.371094 C 534.199219 729.371094 531.386719 726.554688 531.386719 723.082031 C 531.386719 719.609375 534.199219 716.792969 537.671875 716.792969 C 541.148438 716.792969 543.960938 719.609375 543.960938 723.082031 Z M 543.960938 723.082031 "/>
<path style=" stroke:none;fill-rule:evenodd;fill:rgb(0%,0%,0%);fill-opacity:1;" d="M 688.78125 723.082031 C 688.78125 726.554688 685.964844 729.371094 682.492188 729.371094 C 679.019531 729.371094 676.203125 726.554688 676.203125 723.082031 C 676.203125 719.609375 679.019531 716.792969 682.492188 716.792969 C 685.964844 716.792969 688.78125 719.609375 688.78125 723.082031 Z M 688.78125 723.082031 "/>
<path style=" stroke:none;fill-rule:evenodd;fill:rgb(0%,0%,0%);fill-opacity:1;" d="M 823.316406 723.082031 C 823.316406 726.554688 820.5 729.371094 817.027344 729.371094 C 813.554688 729.371094 810.738281 726.554688 810.738281 723.082031 C 810.738281 719.609375 813.554688 716.792969 817.027344 716.792969 C 820.5 716.792969 823.316406 719.609375 823.316406 723.082031 Z M 823.316406 723.082031 "/>
<path style=" stroke:none;fill-rule:evenodd;fill:rgb(0%,0%,0%);fill-opacity:1;" d="M 941.308594 723.082031 C 941.308594 726.554688 938.492188 729.371094 935.019531 729.371094 C 931.542969 729.371094 928.730469 726.554688 928.730469 723.082031 C 928.730469 719.609375 931.542969 716.792969 935.019531 716.792969 C 938.492188 716.792969 941.308594 719.609375 941.308594 723.082031 Z M 941.308594 723.082031 "/>
<g clip-path="url(#clip13)" clip-rule="nonzero">
<path style=" stroke:none;fill-rule:evenodd;fill:rgb(0%,0%,0%);fill-opacity:1;" d="M 306.074219 789.539062 C 303.941406 789.472656 301.863281 789.4375 299.847656 789.4375 C 297.828125 789.4375 295.75 789.472656 293.617188 789.539062 L 293.617188 788.085938 L 294.816406 788.085938 C 295.199219 788.089844 295.558594 788.082031 295.894531 788.070312 C 296.234375 788.0625 296.550781 788.03125 296.855469 787.988281 C 297.15625 787.941406 297.417969 787.898438 297.636719 787.851562 C 297.820312 787.816406 297.976562 787.714844 298.097656 787.539062 C 298.21875 787.363281 298.28125 787.171875 298.28125 786.957031 L 298.28125 767.914062 C 297.699219 768.195312 296.988281 768.410156 296.140625 768.554688 C 295.292969 768.703125 294.367188 768.777344 293.355469 768.773438 L 293.355469 767.339844 C 294.746094 767.339844 296.03125 767.171875 297.210938 766.839844 C 298.386719 766.507812 299.40625 765.886719 300.265625 764.972656 L 300.804688 764.972656 C 301.1875 764.972656 301.378906 765.160156 301.378906 765.53125 L 301.378906 786.957031 C 301.378906 787.179688 301.433594 787.378906 301.550781 787.546875 C 301.667969 787.714844 301.835938 787.816406 302.054688 787.851562 C 302.242188 787.898438 302.480469 787.941406 302.769531 787.988281 C 303.058594 788.03125 303.386719 788.0625 303.753906 788.070312 C 304.117188 788.082031 304.476562 788.089844 304.824219 788.085938 L 306.074219 788.085938 Z M 306.074219 789.539062 "/>
</g>
<g clip-path="url(#clip14)" clip-rule="nonzero">
<path style=" stroke:none;fill-rule:evenodd;fill:rgb(0%,0%,0%);fill-opacity:1;" d="M 544.027344 784.449219 C 541.894531 784.382812 539.816406 784.347656 537.796875 784.347656 C 535.78125 784.347656 533.703125 784.382812 531.570312 784.449219 L 531.570312 782.996094 L 532.769531 782.996094 C 533.152344 782.996094 533.511719 782.992188 533.847656 782.980469 C 534.183594 782.96875 534.503906 782.941406 534.804688 782.894531 C 535.109375 782.851562 535.371094 782.808594 535.589844 782.761719 C 535.773438 782.726562 535.929688 782.625 536.050781 782.449219 C 536.171875 782.273438 536.230469 782.078125 536.230469 781.863281 L 536.230469 762.824219 C 535.652344 763.105469 534.9375 763.320312 534.09375 763.464844 C 533.246094 763.613281 532.316406 763.683594 531.308594 763.683594 L 531.308594 762.246094 C 532.699219 762.25 533.984375 762.082031 535.164062 761.75 C 536.339844 761.417969 537.359375 760.796875 538.214844 759.882812 L 538.757812 759.882812 C 539.136719 759.882812 539.328125 760.070312 539.328125 760.441406 L 539.328125 781.863281 C 539.328125 782.089844 539.386719 782.289062 539.503906 782.457031 C 539.621094 782.625 539.789062 782.726562 540.007812 782.761719 C 540.195312 782.808594 540.433594 782.851562 540.722656 782.894531 C 541.011719 782.941406 541.339844 782.96875 541.703125 782.980469 C 542.070312 782.992188 542.425781 782.996094 542.777344 782.996094 L 544.027344 782.996094 Z M 544.027344 784.449219 "/>
</g>
<g clip-path="url(#clip15)" clip-rule="nonzero">
<path style=" stroke:none;fill-rule:evenodd;fill:rgb(0%,0%,0%);fill-opacity:1;" d="M 690.523438 772.691406 C 690.523438 774.3125 690.414062 775.925781 690.1875 777.53125 C 689.960938 779.136719 689.402344 780.644531 688.507812 782.050781 C 687.871094 783.078125 687.015625 783.863281 685.949219 784.417969 C 684.882812 784.96875 683.722656 785.242188 682.46875 785.242188 C 681.261719 785.242188 680.125 784.96875 679.050781 784.417969 C 677.976562 783.863281 677.121094 783.078125 676.484375 782.050781 C 675.589844 780.644531 675.03125 779.136719 674.804688 777.53125 C 674.578125 775.925781 674.464844 774.3125 674.464844 772.691406 C 674.464844 771.046875 674.578125 769.40625 674.804688 767.765625 C 675.03125 766.125 675.589844 764.59375 676.484375 763.160156 C 677.121094 762.125 677.972656 761.320312 679.039062 760.746094 C 680.109375 760.171875 681.25 759.882812 682.46875 759.882812 C 683.710938 759.882812 684.867188 760.171875 685.941406 760.746094 C 687.011719 761.320312 687.871094 762.125 688.507812 763.160156 C 689.402344 764.59375 689.960938 766.125 690.1875 767.765625 C 690.414062 769.40625 690.523438 771.046875 690.523438 772.691406 Z M 687.078125 772.097656 C 687.078125 771.390625 687.074219 770.640625 687.0625 769.851562 C 687.050781 769.066406 687.023438 768.292969 686.976562 767.539062 C 686.929688 766.785156 686.847656 766.070312 686.722656 765.402344 C 686.601562 764.730469 686.453125 764.160156 686.28125 763.683594 C 685.929688 762.917969 685.421875 762.292969 684.75 761.800781 C 684.074219 761.3125 683.316406 761.066406 682.46875 761.066406 C 681.644531 761.066406 680.898438 761.316406 680.234375 761.808594 C 679.566406 762.304688 679.058594 762.929688 678.710938 763.683594 C 678.535156 764.160156 678.390625 764.730469 678.265625 765.402344 C 678.144531 766.070312 678.0625 766.785156 678.015625 767.539062 C 677.96875 768.292969 677.9375 769.066406 677.925781 769.851562 C 677.914062 770.640625 677.910156 771.390625 677.910156 772.097656 C 677.910156 772.886719 677.914062 773.71875 677.925781 774.59375 C 677.9375 775.464844 677.96875 776.308594 678.015625 777.125 C 678.0625 777.945312 678.144531 778.71875 678.265625 779.449219 C 678.390625 780.183594 678.535156 780.796875 678.710938 781.289062 C 679.035156 782.113281 679.539062 782.789062 680.214844 783.320312 C 680.894531 783.847656 681.644531 784.113281 682.46875 784.113281 C 683.328125 784.113281 684.097656 783.847656 684.773438 783.320312 C 685.453125 782.789062 685.953125 782.113281 686.28125 781.289062 C 686.453125 780.796875 686.601562 780.183594 686.722656 779.449219 C 686.847656 778.71875 686.929688 777.945312 686.976562 777.125 C 687.023438 776.308594 687.050781 775.464844 687.0625 774.59375 C 687.074219 773.71875 687.078125 772.886719 687.078125 772.097656 Z M 687.078125 772.097656 "/>
</g>
<g clip-path="url(#clip16)" clip-rule="nonzero">
<path style=" stroke:none;fill-rule:evenodd;fill:rgb(0%,0%,0%);fill-opacity:1;" d="M 943.050781 772.691406 C 943.050781 774.3125 942.9375 775.925781 942.710938 777.53125 C 942.488281 779.136719 941.925781 780.644531 941.03125 782.050781 C 940.394531 783.078125 939.542969 783.863281 938.476562 784.417969 C 937.410156 784.96875 936.25 785.242188 934.996094 785.242188 C 933.789062 785.242188 932.648438 784.96875 931.574219 784.417969 C 930.503906 783.863281 929.648438 783.078125 929.007812 782.050781 C 928.117188 780.644531 927.558594 779.136719 927.332031 777.53125 C 927.105469 775.925781 926.992188 774.3125 926.992188 772.691406 C 926.992188 771.046875 927.105469 769.40625 927.332031 767.765625 C 927.558594 766.125 928.117188 764.59375 929.007812 763.160156 C 929.648438 762.125 930.5 761.320312 931.566406 760.746094 C 932.632812 760.171875 933.777344 759.882812 934.996094 759.882812 C 936.238281 759.882812 937.394531 760.171875 938.464844 760.746094 C 939.539062 761.320312 940.394531 762.125 941.03125 763.160156 C 941.925781 764.59375 942.484375 766.125 942.710938 767.765625 C 942.9375 769.40625 943.050781 771.046875 943.050781 772.691406 Z M 939.605469 772.097656 C 939.605469 771.390625 939.601562 770.640625 939.589844 769.851562 C 939.578125 769.066406 939.546875 768.292969 939.5 767.539062 C 939.457031 766.785156 939.371094 766.070312 939.25 765.402344 C 939.128906 764.730469 938.980469 764.160156 938.804688 763.683594 C 938.457031 762.917969 937.945312 762.292969 937.273438 761.800781 C 936.601562 761.3125 935.839844 761.066406 934.996094 761.066406 C 934.171875 761.066406 933.425781 761.316406 932.757812 761.808594 C 932.09375 762.304688 931.585938 762.929688 931.234375 763.683594 C 931.0625 764.160156 930.914062 764.730469 930.792969 765.402344 C 930.671875 766.070312 930.585938 766.785156 930.539062 767.539062 C 930.492188 768.292969 930.464844 769.066406 930.453125 769.851562 C 930.441406 770.640625 930.4375 771.390625 930.4375 772.097656 C 930.4375 772.886719 930.441406 773.71875 930.453125 774.59375 C 930.464844 775.464844 930.492188 776.308594 930.539062 777.125 C 930.585938 777.945312 930.671875 778.71875 930.792969 779.449219 C 930.914062 780.183594 931.0625 780.796875 931.234375 781.289062 C 931.5625 782.113281 932.0625 782.789062 932.742188 783.320312 C 933.421875 783.847656 934.171875 784.113281 934.996094 784.113281 C 935.851562 784.113281 936.621094 783.847656 937.300781 783.320312 C 937.980469 782.789062 938.480469 782.113281 938.804688 781.289062 C 938.980469 780.796875 939.128906 780.183594 939.25 779.449219 C 939.371094 778.71875 939.457031 777.945312 939.5 777.125 C 939.546875 776.308594 939.578125 775.464844 939.589844 774.59375 C 939.601562 773.71875 939.605469 772.886719 939.605469 772.097656 Z M 939.605469 772.097656 "/>
</g>
<path style="fill:none;stroke-width:10;stroke-linecap:round;stroke-linejoin:round;stroke:rgb(0%,0%,0%);stroke-opacity:1;stroke-miterlimit:10;" d="M 84.998584 404.302613 C 84.998584 700.713845 1251.046516 700.713845 1251.046516 404.302613 " transform="matrix(0.239575,0,0,-0.239545,0.0036855,819.930807)"/>
<path style="fill:none;stroke-width:10;stroke-linecap:round;stroke-linejoin:round;stroke:rgb(0%,0%,0%);stroke-opacity:1;stroke-miterlimit:10;" d="M 689.488006 404.302613 C 689.488006 700.713845 2244.262061 700.713845 2244.262061 404.302613 " transform="matrix(0.239575,0,0,-0.239545,0.0036855,819.930807)"/>
<path style="fill:none;stroke-width:10;stroke-linecap:round;stroke-linejoin:round;stroke:rgb(0%,0%,0%);stroke-opacity:1;stroke-miterlimit:10;" d="M 1743.537291 404.302613 C 1743.537291 696.63711 2848.751483 700.713845 2848.751483 404.302613 " transform="matrix(0.239575,0,0,-0.239545,0.0036855,819.930807)"/>
<path style="fill:none;stroke-width:10;stroke-linecap:round;stroke-linejoin:round;stroke:rgb(0%,0%,0%);stroke-opacity:1;stroke-miterlimit:10;" d="M 3410.309993 396.556817 C 3410.309993 608.025203 3902.817073 608.025203 3902.817073 396.556817 " transform="matrix(0.239575,0,0,-0.239545,0.0036855,819.930807)"/>
</g>
</svg>
