<?xml version="1.0" encoding="UTF-8"?>
<svg xmlns="http://www.w3.org/2000/svg" xmlns:xlink="http://www.w3.org/1999/xlink" width="1362.96pt" height="789pt" viewBox="0 0 1362.96 789" version="1.2">
<defs>
<clipPath id="clip1">
  <path d="M 451.496094 349 L 475 349 L 475 388 L 451.496094 388 Z M 451.496094 349 "/>
</clipPath>
<clipPath id="clip2">
  <path d="M 450.230469 73 L 476 73 L 476 112 L 450.230469 112 Z M 450.230469 73 "/>
</clipPath>
<clipPath id="clip3">
  <path d="M 79.578125 349 L 104 349 L 104 388 L 79.578125 388 Z M 79.578125 349 "/>
</clipPath>
<clipPath id="clip4">
  <path d="M 184.480469 678 L 210 678 L 210 718 L 184.480469 718 Z M 184.480469 678 "/>
</clipPath>
<clipPath id="clip5">
  <path d="M 678.605469 630 L 703 630 L 703 669 L 678.605469 669 Z M 678.605469 630 "/>
</clipPath>
<clipPath id="clip6">
  <path d="M 873.015625 351 L 893 351 L 893 389 L 873.015625 389 Z M 873.015625 351 "/>
</clipPath>
<clipPath id="clip7">
  <path d="M 1253.734375 351 L 1277 351 L 1277 389 L 1253.734375 389 Z M 1253.734375 351 "/>
</clipPath>
</defs>
<g id="surface1">
<path style="fill:none;stroke-width:10;stroke-linecap:round;stroke-linejoin:round;stroke:rgb(0%,0%,0%);stroke-opacity:1;stroke-miterlimit:10;" d="M 1470.50165 1171.003742 C 1470.50165 1070.288738 1388.848759 988.654061 1288.140629 988.654061 C 1187.4325 988.654061 1105.790472 1070.288738 1105.790472 1171.003742 C 1105.790472 1271.718745 1187.4325 1353.364288 1288.140629 1353.364288 C 1388.848759 1353.364288 1470.50165 1271.718745 1470.50165 1171.003742 Z M 1470.50165 1171.003742 " transform="matrix(0.359563,0,0,-0.3595,0,791.874138)"/>
<g clip-path="url(#clip1)" clip-rule="nonzero">
<path style=" stroke:none;fill-rule:evenodd;fill:rgb(0%,0%,0%);fill-opacity:1;" d="M 474.609375 375.390625 C 474.609375 377.050781 474.300781 378.632812 473.671875 380.136719 C 473.046875 381.640625 472.140625 382.992188 470.953125 384.191406 C 469.753906 385.359375 468.398438 386.25 466.894531 386.867188 C 465.386719 387.484375 463.789062 387.792969 462.097656 387.792969 C 460.636719 387.792969 459.273438 387.519531 458.011719 386.96875 C 456.75 386.417969 455.652344 385.667969 454.722656 384.710938 C 453.789062 383.757812 453.058594 382.652344 452.527344 381.390625 C 451.996094 380.132812 451.730469 378.792969 451.730469 377.371094 C 451.730469 376.390625 452.058594 375.652344 452.710938 375.152344 C 453.363281 374.65625 454.039062 374.40625 454.734375 374.402344 C 455.464844 374.40625 456.152344 374.648438 456.796875 375.140625 C 457.441406 375.632812 457.765625 376.375 457.765625 377.371094 C 457.765625 377.980469 457.628906 378.492188 457.359375 378.90625 C 457.089844 379.320312 456.757812 379.640625 456.367188 379.871094 C 455.976562 380.097656 455.535156 380.230469 455.046875 380.261719 L 454.210938 380.261719 C 454.613281 381.683594 455.542969 382.960938 457.007812 384.089844 C 458.46875 385.222656 460.167969 385.789062 462.097656 385.789062 C 463.109375 385.789062 464.09375 385.527344 465.050781 385.003906 C 466.007812 384.480469 466.792969 383.785156 467.402344 382.921875 C 468.117188 381.894531 468.574219 380.722656 468.773438 379.414062 C 468.972656 378.105469 469.074219 376.761719 469.074219 375.390625 C 469.074219 374.007812 469.03125 372.675781 468.945312 371.398438 C 468.859375 370.125 468.5 368.917969 467.871094 367.785156 C 467.421875 366.957031 466.839844 366.269531 466.136719 365.71875 C 465.429688 365.171875 464.644531 364.894531 463.773438 364.894531 C 462.117188 364.894531 460.679688 365.230469 459.460938 365.898438 C 458.242188 366.566406 457.257812 367.523438 456.511719 368.773438 C 456.355469 369.0625 456.101562 369.207031 455.753906 369.203125 L 455.542969 369.203125 C 454.933594 369.207031 454.628906 368.925781 454.628906 368.367188 L 454.628906 350.566406 C 454.628906 350.128906 454.882812 349.851562 455.386719 349.730469 C 455.472656 349.730469 455.539062 349.742188 455.582031 349.757812 C 455.628906 349.773438 455.664062 349.78125 455.699219 349.78125 C 458.226562 350.933594 460.828125 351.507812 463.511719 351.503906 C 466.226562 351.507812 468.832031 350.933594 471.320312 349.78125 C 471.355469 349.78125 471.390625 349.773438 471.425781 349.757812 C 471.460938 349.742188 471.511719 349.730469 471.582031 349.730469 C 472.15625 349.730469 472.433594 349.992188 472.417969 350.515625 C 472.417969 350.824219 472.367188 351.023438 472.261719 351.125 C 471.023438 352.816406 469.453125 354.140625 467.546875 355.09375 C 465.640625 356.050781 463.617188 356.527344 461.472656 356.527344 C 459.699219 356.527344 458.164062 356.324219 456.875 355.917969 L 456.875 365.605469 C 457.484375 364.964844 458.40625 364.394531 459.632812 363.894531 C 460.859375 363.394531 462.238281 363.144531 463.773438 363.144531 C 465.269531 363.144531 466.683594 363.484375 468.015625 364.160156 C 469.347656 364.835938 470.519531 365.714844 471.53125 366.796875 C 472.574219 368.015625 473.347656 369.363281 473.851562 370.84375 C 474.359375 372.320312 474.609375 373.839844 474.609375 375.390625 Z M 474.609375 375.390625 "/>
</g>
<path style="fill:none;stroke-width:10;stroke-linecap:round;stroke-linejoin:round;stroke:rgb(0%,0%,0%);stroke-opacity:1;stroke-miterlimit:10;" d="M 1470.50165 1937.270086 C 1470.50165 1836.555083 1388.848759 1754.920406 1288.140629 1754.920406 C 1187.4325 1754.920406 1105.790472 1836.555083 1105.790472 1937.270086 C 1105.790472 2037.98509 1187.4325 2119.619767 1288.140629 2119.619767 C 1388.848759 2119.619767 1470.50165 2037.98509 1470.50165 1937.270086 Z M 1470.50165 1937.270086 " transform="matrix(0.359563,0,0,-0.3595,0,791.874138)"/>
<g clip-path="url(#clip2)" clip-rule="nonzero">
<path style=" stroke:none;fill-rule:evenodd;fill:rgb(0%,0%,0%);fill-opacity:1;" d="M 470.21875 102.101562 L 470.21875 107.25 C 470.21875 107.554688 470.277344 107.839844 470.390625 108.101562 C 470.503906 108.363281 470.691406 108.539062 470.949219 108.621094 C 471.351562 108.804688 472.003906 108.910156 472.910156 108.925781 C 473.816406 108.941406 474.726562 108.949219 475.648438 108.949219 L 475.648438 111.128906 C 472.988281 111.027344 470.375 110.976562 467.816406 110.976562 C 465.292969 110.976562 462.636719 111.027344 459.851562 111.128906 L 459.851562 108.949219 C 460.808594 108.949219 461.734375 108.941406 462.621094 108.925781 C 463.507812 108.910156 464.171875 108.804688 464.605469 108.621094 C 464.867188 108.539062 465.058594 108.363281 465.179688 108.101562 C 465.300781 107.839844 465.363281 107.554688 465.363281 107.25 L 465.363281 102.101562 L 450.476562 102.101562 L 450.476562 100.046875 L 467.921875 74.109375 C 468.148438 73.804688 468.433594 73.652344 468.78125 73.652344 L 469.359375 73.652344 C 469.933594 73.652344 470.21875 73.941406 470.21875 74.515625 L 470.21875 99.871094 L 475.835938 99.871094 L 475.835938 102.101562 Z M 465.621094 80.777344 L 452.773438 99.871094 L 465.621094 99.871094 Z M 465.621094 80.777344 "/>
</g>
<path style="fill:none;stroke-width:10;stroke-linecap:round;stroke-linejoin:round;stroke:rgb(0%,0%,0%);stroke-opacity:1;stroke-miterlimit:10;" d="M 1288.140629 1357.504153 L 1288.140629 1749.226732 " transform="matrix(0.359563,0,0,-0.3595,0,791.874138)"/>
<path style="fill:none;stroke-width:10;stroke-linecap:round;stroke-linejoin:round;stroke:rgb(0%,0%,0%);stroke-opacity:1;stroke-miterlimit:10;" d="M 437.433963 1171.003742 C 437.433963 1070.288738 355.791936 988.654061 255.083806 988.654061 C 154.364813 988.654061 72.722785 1070.288738 72.722785 1171.003742 C 72.722785 1271.718745 154.364813 1353.364288 255.083806 1353.364288 C 355.791936 1353.364288 437.433963 1271.718745 437.433963 1171.003742 Z M 437.433963 1171.003742 " transform="matrix(0.359563,0,0,-0.3595,0,791.874138)"/>
<g clip-path="url(#clip3)" clip-rule="nonzero">
<path style=" stroke:none;fill-rule:evenodd;fill:rgb(0%,0%,0%);fill-opacity:1;" d="M 103.613281 375.289062 C 103.613281 377.050781 103.355469 378.625 102.832031 380.019531 C 102.308594 381.417969 101.421875 382.789062 100.167969 384.140625 C 98.929688 385.410156 97.664062 386.335938 96.367188 386.917969 C 95.070312 387.5 93.507812 387.792969 91.679688 387.792969 C 89.816406 387.792969 88.109375 387.332031 86.5625 386.410156 C 85.011719 385.492188 83.773438 384.242188 82.851562 382.667969 C 81.546875 380.523438 80.714844 378.257812 80.359375 375.875 C 80.003906 373.492188 79.824219 371.117188 79.824219 368.75 C 79.824219 366.382812 80.167969 364.054688 80.855469 361.765625 C 81.542969 359.472656 82.644531 357.355469 84.160156 355.410156 C 85.429688 353.757812 86.980469 352.394531 88.808594 351.328125 C 90.636719 350.265625 92.644531 349.730469 94.839844 349.730469 C 96.949219 349.730469 98.699219 350.273438 100.089844 351.355469 C 101.484375 352.4375 102.179688 353.992188 102.179688 356.019531 C 102.179688 356.964844 101.890625 357.667969 101.316406 358.125 C 100.742188 358.582031 100.078125 358.808594 99.332031 358.808594 C 98.617188 358.808594 97.976562 358.582031 97.410156 358.125 C 96.847656 357.667969 96.5625 356.964844 96.5625 356.019531 C 96.5625 355.007812 96.9375 354.246094 97.6875 353.738281 C 98.175781 353.433594 98.722656 353.28125 99.332031 353.28125 C 99.523438 353.28125 99.550781 353.273438 99.410156 353.253906 C 99.167969 352.882812 98.628906 352.519531 97.804688 352.152344 C 96.976562 351.789062 95.988281 351.609375 94.839844 351.605469 C 93.289062 351.609375 91.898438 352.070312 90.660156 352.992188 C 89.425781 353.914062 88.378906 355.066406 87.527344 356.449219 C 86.519531 358.207031 85.910156 360.125 85.699219 362.195312 C 85.488281 364.265625 85.367188 365.917969 85.332031 367.152344 C 85.648438 366.425781 86.402344 365.535156 87.59375 364.476562 C 88.785156 363.421875 90.296875 362.894531 92.121094 362.890625 C 93.863281 362.894531 95.367188 363.183594 96.628906 363.765625 C 97.890625 364.351562 99.105469 365.257812 100.273438 366.492188 C 101.492188 367.84375 102.351562 369.207031 102.855469 370.574219 C 103.363281 371.945312 103.613281 373.515625 103.613281 375.289062 Z M 98.050781 375.289062 C 98.050781 373.667969 98 372.210938 97.894531 370.917969 C 97.789062 369.625 97.445312 368.488281 96.851562 367.507812 C 96.242188 366.511719 95.5625 365.773438 94.816406 365.300781 C 94.066406 364.828125 93.152344 364.589844 92.070312 364.589844 C 90.902344 364.589844 89.910156 364.886719 89.082031 365.480469 C 88.253906 366.070312 87.554688 366.847656 86.980469 367.8125 C 86.40625 368.773438 85.996094 369.898438 85.75 371.183594 C 85.578125 372.0625 85.488281 373.003906 85.488281 373.996094 C 85.488281 374.386719 85.507812 374.800781 85.542969 375.238281 L 85.542969 375.441406 C 85.613281 376.710938 85.707031 377.894531 85.832031 378.996094 C 85.953125 380.09375 86.144531 380.988281 86.40625 381.679688 C 86.890625 382.898438 87.609375 383.886719 88.558594 384.648438 C 89.507812 385.410156 90.546875 385.789062 91.679688 385.789062 C 92.84375 385.789062 93.828125 385.566406 94.628906 385.117188 C 95.433594 384.671875 96.136719 383.945312 96.746094 382.949219 C 97.375 381.953125 97.75 380.824219 97.867188 379.566406 C 97.992188 378.304688 98.050781 376.882812 98.050781 375.289062 Z M 98.050781 375.289062 "/>
</g>
<path style="fill:none;stroke-width:10;stroke-linecap:round;stroke-linejoin:round;stroke:rgb(0%,0%,0%);stroke-opacity:1;stroke-miterlimit:10;" d="M 437.433963 1171.003742 L 1104.26953 1171.003742 " transform="matrix(0.359563,0,0,-0.3595,0,791.874138)"/>
<path style="fill:none;stroke-width:10;stroke-linecap:round;stroke-linejoin:round;stroke:rgb(0%,0%,0%);stroke-opacity:1;stroke-miterlimit:10;" d="M 730.291466 255.093743 C 730.291466 154.37874 648.649438 72.733197 547.941309 72.733197 C 447.233179 72.733197 365.591152 154.37874 365.591152 255.093743 C 365.591152 355.797881 447.233179 437.443423 547.941309 437.443423 C 648.649438 437.443423 730.291466 355.797881 730.291466 255.093743 Z M 730.291466 255.093743 " transform="matrix(0.359563,0,0,-0.3595,0,791.874138)"/>
<g clip-path="url(#clip4)" clip-rule="nonzero">
<path style=" stroke:none;fill-rule:evenodd;fill:rgb(0%,0%,0%);fill-opacity:1;" d="M 209.277344 681.566406 C 209.277344 681.667969 209.234375 681.8125 209.148438 681.996094 L 201.3125 692.722656 C 200.304688 694.125 199.515625 695.675781 198.949219 697.375 C 198.382812 699.074219 197.980469 700.859375 197.734375 702.726562 C 197.492188 704.59375 197.339844 706.5 197.277344 708.445312 C 197.21875 710.390625 197.1875 712.351562 197.1875 714.324219 C 197.1875 715.242188 196.886719 715.933594 196.285156 716.40625 C 195.6875 716.878906 195.027344 717.117188 194.3125 717.117188 C 193.601562 717.117188 192.953125 716.878906 192.367188 716.40625 C 191.785156 715.933594 191.496094 715.242188 191.496094 714.324219 C 191.496094 710.203125 192.210938 706.234375 193.648438 702.421875 C 195.082031 698.609375 197.019531 695.03125 199.457031 691.683594 L 204.417969 684.960938 L 195.019531 684.960938 C 193.835938 684.964844 192.734375 684.972656 191.714844 684.988281 C 190.699219 685.007812 189.832031 685.035156 189.117188 685.078125 C 188.40625 685.121094 188.039062 685.148438 188.019531 685.164062 C 187.84375 685.320312 187.695312 685.574219 187.5625 685.925781 C 187.433594 686.28125 187.3125 686.699219 187.199219 687.171875 C 187.085938 687.644531 186.984375 688.132812 186.898438 688.640625 C 186.8125 689.148438 186.722656 689.6875 186.636719 690.261719 L 184.703125 690.261719 L 186.582031 678.445312 L 188.492188 678.445312 L 188.492188 678.953125 C 188.492188 679.140625 188.59375 679.316406 188.804688 679.484375 C 189.167969 679.722656 189.550781 679.875 189.953125 679.941406 C 190.421875 680.011719 191 680.074219 191.675781 680.132812 C 192.355469 680.191406 193.082031 680.230469 193.855469 680.246094 C 194.632812 680.265625 195.410156 680.273438 196.195312 680.269531 L 209.277344 680.269531 Z M 209.277344 681.566406 "/>
</g>
<path style="fill:none;stroke-width:10;stroke-linecap:round;stroke-linejoin:round;stroke:rgb(0%,0%,0%);stroke-opacity:1;stroke-miterlimit:10;" d="M 673.223526 389.275378 L 1172.244801 1023.663635 " transform="matrix(0.359563,0,0,-0.3595,0,791.874138)"/>
<path style="fill:none;stroke-width:10;stroke-linecap:round;stroke-linejoin:round;stroke:rgb(0%,0%,0%);stroke-opacity:1;stroke-miterlimit:10;" d="M 2103.420196 389.275378 C 2103.420196 288.549509 2021.778169 206.914832 1921.070039 206.914832 C 1820.351046 206.914832 1738.709018 288.549509 1738.709018 389.275378 C 1738.709018 489.979516 1820.351046 571.625059 1921.070039 571.625059 C 2021.778169 571.625059 2103.420196 489.979516 2103.420196 389.275378 Z M 2103.420196 389.275378 " transform="matrix(0.359563,0,0,-0.3595,0,791.874138)"/>
<g clip-path="url(#clip5)" clip-rule="nonzero">
<path style=" stroke:none;fill-rule:evenodd;fill:rgb(0%,0%,0%);fill-opacity:1;" d="M 702.644531 658.074219 C 702.644531 659.53125 702.320312 660.925781 701.675781 662.261719 C 701.035156 663.597656 700.171875 664.738281 699.089844 665.683594 C 697.875 666.75 696.527344 667.539062 695.058594 668.054688 C 693.585938 668.570312 692.050781 668.828125 690.445312 668.828125 C 689.003906 668.828125 687.59375 668.625 686.21875 668.21875 C 684.84375 667.8125 683.601562 667.230469 682.496094 666.472656 C 681.390625 665.710938 680.507812 664.777344 679.84375 663.667969 C 679.183594 662.5625 678.851562 661.289062 678.851562 659.851562 C 678.851562 658.769531 679.214844 657.964844 679.9375 657.429688 C 680.660156 656.898438 681.417969 656.632812 682.21875 656.628906 C 683.058594 656.632812 683.835938 656.898438 684.558594 657.429688 C 685.28125 657.964844 685.640625 658.769531 685.640625 659.851562 C 685.640625 660.496094 685.515625 661.03125 685.261719 661.460938 C 685.011719 661.894531 684.691406 662.253906 684.296875 662.539062 C 683.90625 662.828125 683.457031 663.003906 682.953125 663.070312 C 682.691406 663.140625 682.449219 663.175781 682.21875 663.171875 C 681.996094 663.175781 681.960938 663.191406 682.117188 663.222656 C 682.65625 664.171875 683.71875 665.007812 685.304688 665.734375 C 686.886719 666.464844 688.601562 666.824219 690.445312 666.824219 C 691.316406 666.824219 692.132812 666.609375 692.890625 666.179688 C 693.644531 665.746094 694.277344 665.167969 694.78125 664.441406 C 695.410156 663.496094 695.835938 662.480469 696.0625 661.398438 C 696.289062 660.316406 696.402344 659.210938 696.402344 658.074219 C 696.402344 656.910156 696.289062 655.792969 696.0625 654.71875 C 695.835938 653.644531 695.410156 652.652344 694.78125 651.734375 C 694.257812 650.996094 693.625 650.394531 692.875 649.9375 C 692.128906 649.480469 691.316406 649.253906 690.445312 649.25 L 686.660156 649.25 C 686.15625 649.253906 685.886719 649.015625 685.851562 648.542969 L 685.851562 648.261719 C 685.851562 648.0625 685.914062 647.902344 686.035156 647.78125 C 686.191406 647.628906 686.390625 647.554688 686.632812 647.550781 C 687.140625 647.484375 687.660156 647.453125 688.199219 647.449219 C 688.722656 647.453125 689.238281 647.417969 689.742188 647.347656 C 690.683594 647.28125 691.5 646.992188 692.195312 646.476562 C 692.894531 645.960938 693.476562 645.300781 693.945312 644.5 C 694.417969 643.695312 694.773438 642.769531 695.015625 641.722656 C 695.261719 640.675781 695.382812 639.597656 695.382812 638.5 C 695.382812 637.691406 695.296875 636.921875 695.121094 636.195312 C 694.949219 635.46875 694.625 634.832031 694.15625 634.289062 C 693.179688 633.175781 691.945312 632.625 690.445312 632.640625 C 688.84375 632.644531 687.378906 632.945312 686.046875 633.542969 C 684.714844 634.144531 683.824219 634.792969 683.371094 635.484375 C 683.25 635.5 683.308594 635.507812 683.554688 635.507812 C 684.179688 635.507812 684.773438 635.695312 685.328125 636.066406 C 686.164062 636.558594 686.582031 637.386719 686.582031 638.550781 C 686.582031 639.53125 686.265625 640.273438 685.628906 640.769531 C 684.992188 641.269531 684.285156 641.519531 683.5 641.515625 C 682.734375 641.519531 682.015625 641.273438 681.347656 640.78125 C 680.675781 640.292969 680.339844 639.546875 680.339844 638.550781 C 680.339844 637.316406 680.636719 636.230469 681.226562 635.28125 C 681.820312 634.335938 682.582031 633.523438 683.511719 632.847656 C 684.445312 632.171875 685.519531 631.65625 686.738281 631.300781 C 687.957031 630.945312 689.195312 630.765625 690.445312 630.765625 C 691.789062 630.765625 693.085938 630.945312 694.339844 631.300781 C 695.59375 631.65625 696.777344 632.203125 697.890625 632.945312 C 698.796875 633.589844 699.558594 634.382812 700.175781 635.320312 C 700.792969 636.257812 701.101562 637.316406 701.101562 638.5 C 701.101562 639.683594 700.890625 640.800781 700.464844 641.847656 C 700.039062 642.898438 699.472656 643.84375 698.765625 644.6875 C 698.0625 645.535156 697.21875 646.277344 696.246094 646.921875 C 695.269531 647.5625 694.539062 647.96875 694.050781 648.136719 C 694.46875 648.1875 695.183594 648.4375 696.191406 648.886719 C 697.203125 649.332031 698.167969 649.929688 699.089844 650.671875 C 700.171875 651.601562 701.035156 652.714844 701.675781 654.007812 C 702.320312 655.300781 702.644531 656.65625 702.644531 658.074219 Z M 702.644531 658.074219 "/>
</g>
<path style="fill:none;stroke-width:10;stroke-linecap:round;stroke-linejoin:round;stroke:rgb(0%,0%,0%);stroke-opacity:1;stroke-miterlimit:10;" d="M 1361.080692 1003.877033 L 1798.253922 524.054632 " transform="matrix(0.359563,0,0,-0.3595,0,791.874138)"/>
<path style="fill:none;stroke-width:10;stroke-linecap:round;stroke-linejoin:round;stroke:rgb(0%,0%,0%);stroke-opacity:1;stroke-miterlimit:10;" d="M 1470.50165 1165.494786 L 2268.931345 1165.494786 " transform="matrix(0.359563,0,0,-0.3595,0,791.874138)"/>
<path style="fill:none;stroke-width:10;stroke-linecap:round;stroke-linejoin:round;stroke:rgb(0%,0%,0%);stroke-opacity:1;stroke-miterlimit:10;" d="M 2637.434016 1165.494786 C 2637.434016 1064.779783 2555.791989 983.145106 2455.083859 983.145106 C 2354.364866 983.145106 2272.733702 1064.779783 2272.733702 1165.494786 C 2272.733702 1266.20979 2354.364866 1347.855332 2455.083859 1347.855332 C 2555.791989 1347.855332 2637.434016 1266.20979 2637.434016 1165.494786 Z M 2637.434016 1165.494786 " transform="matrix(0.359563,0,0,-0.3595,0,791.874138)"/>
<g clip-path="url(#clip6)" clip-rule="nonzero">
<path style=" stroke:none;fill-rule:evenodd;fill:rgb(0%,0%,0%);fill-opacity:1;" d="M 892.292969 388.582031 C 889.089844 388.480469 885.972656 388.429688 882.945312 388.429688 C 879.914062 388.429688 876.796875 388.480469 873.59375 388.582031 L 873.59375 386.402344 L 875.398438 386.402344 C 875.96875 386.402344 876.511719 386.394531 877.015625 386.375 C 877.519531 386.359375 878 386.316406 878.453125 386.25 C 878.90625 386.183594 879.296875 386.113281 879.628906 386.046875 C 879.90625 385.996094 880.136719 385.839844 880.320312 385.578125 C 880.503906 385.316406 880.59375 385.023438 880.59375 384.703125 L 880.59375 356.121094 C 879.722656 356.546875 878.652344 356.871094 877.382812 357.089844 C 876.109375 357.308594 874.71875 357.417969 873.203125 357.417969 L 873.203125 355.261719 C 875.292969 355.261719 877.222656 355.011719 878.988281 354.515625 C 880.753906 354.015625 882.285156 353.082031 883.570312 351.710938 L 884.382812 351.710938 C 884.953125 351.710938 885.242188 351.992188 885.242188 352.546875 L 885.242188 384.703125 C 885.242188 385.039062 885.328125 385.335938 885.503906 385.589844 C 885.675781 385.84375 885.929688 385.996094 886.261719 386.046875 C 886.539062 386.113281 886.898438 386.183594 887.332031 386.25 C 887.765625 386.316406 888.257812 386.359375 888.804688 386.375 C 889.355469 386.394531 889.890625 386.402344 890.414062 386.402344 L 892.292969 386.402344 Z M 892.292969 388.582031 "/>
</g>
<path style="fill:none;stroke-width:10;stroke-linecap:round;stroke-linejoin:round;stroke:rgb(0%,0%,0%);stroke-opacity:1;stroke-miterlimit:10;" d="M 3701.724482 1165.494786 C 3701.724482 1064.779783 3620.082455 983.145106 3519.374325 983.145106 C 3418.655332 983.145106 3337.013305 1064.779783 3337.013305 1165.494786 C 3337.013305 1266.198924 3418.655332 1347.855332 3519.374325 1347.855332 C 3620.082455 1347.855332 3701.724482 1266.198924 3701.724482 1165.494786 Z M 3701.724482 1165.494786 " transform="matrix(0.359563,0,0,-0.3595,0,791.874138)"/>
<g clip-path="url(#clip7)" clip-rule="nonzero">
<path style=" stroke:none;fill-rule:evenodd;fill:rgb(0%,0%,0%);fill-opacity:1;" d="M 1275.226562 388.582031 L 1253.972656 388.582031 L 1253.972656 387.1875 C 1253.972656 387.085938 1254.023438 386.933594 1254.128906 386.730469 L 1262.667969 377.449219 C 1263.679688 376.335938 1264.699219 375.195312 1265.738281 374.027344 C 1266.773438 372.859375 1267.699219 371.667969 1268.519531 370.453125 C 1269.335938 369.234375 1269.988281 367.980469 1270.476562 366.6875 C 1270.964844 365.394531 1271.207031 364.035156 1271.207031 362.613281 C 1271.207031 361.417969 1271.050781 360.296875 1270.738281 359.257812 C 1270.425781 358.21875 1269.972656 357.304688 1269.378906 356.519531 C 1268.785156 355.730469 1268.046875 355.097656 1267.160156 354.617188 C 1266.269531 354.132812 1265.246094 353.894531 1264.078125 353.890625 C 1262.339844 353.894531 1260.800781 354.414062 1259.46875 355.453125 C 1258.136719 356.492188 1257.253906 357.640625 1256.816406 358.886719 C 1256.730469 358.921875 1256.871094 358.9375 1257.234375 358.9375 L 1257.679688 358.9375 C 1258.203125 359.058594 1258.65625 359.242188 1259.039062 359.484375 C 1259.421875 359.730469 1259.742188 360.066406 1260.003906 360.5 C 1260.265625 360.929688 1260.394531 361.449219 1260.394531 362.058594 C 1260.394531 363.074219 1260.066406 363.851562 1259.402344 364.390625 C 1258.742188 364.933594 1258 365.203125 1257.183594 365.203125 C 1256.402344 365.203125 1255.667969 364.933594 1254.988281 364.390625 C 1254.3125 363.851562 1253.972656 363.074219 1253.972656 362.058594 C 1253.972656 360.636719 1254.25 359.292969 1254.808594 358.027344 C 1255.367188 356.757812 1256.121094 355.660156 1257.078125 354.730469 C 1258.035156 353.800781 1259.167969 353.066406 1260.472656 352.523438 C 1261.78125 351.984375 1263.164062 351.710938 1264.625 351.710938 C 1266.4375 351.710938 1268.097656 351.980469 1269.601562 352.511719 C 1271.105469 353.042969 1272.390625 353.808594 1273.453125 354.804688 C 1274.515625 355.804688 1275.347656 356.957031 1275.949219 358.269531 C 1276.546875 359.578125 1276.847656 361.027344 1276.847656 362.613281 C 1276.847656 364.375 1276.449219 365.992188 1275.648438 367.472656 C 1274.847656 368.953125 1273.855469 370.308594 1272.671875 371.542969 C 1271.484375 372.777344 1270.226562 373.9375 1268.898438 375.027344 C 1267.566406 376.117188 1266.359375 377.179688 1265.28125 378.210938 L 1259.273438 383.863281 L 1267.132812 383.863281 C 1268.230469 383.867188 1269.253906 383.859375 1270.203125 383.839844 C 1271.152344 383.824219 1271.957031 383.789062 1272.617188 383.738281 C 1273.28125 383.6875 1273.621094 383.65625 1273.636719 383.636719 C 1273.773438 383.519531 1273.90625 383.28125 1274.027344 382.925781 C 1274.152344 382.574219 1274.261719 382.15625 1274.367188 381.671875 C 1274.472656 381.191406 1274.578125 380.703125 1274.683594 380.203125 C 1274.785156 379.703125 1274.882812 379.15625 1274.96875 378.566406 L 1276.902344 378.566406 Z M 1275.226562 388.582031 "/>
</g>
<path style="fill:none;stroke-width:10;stroke-linecap:round;stroke-linejoin:round;stroke:rgb(0%,0%,0%);stroke-opacity:1;stroke-miterlimit:10;" d="M 2637.347105 1171.003742 L 3322.56435 1166.722621 " transform="matrix(0.359563,0,0,-0.3595,0,791.874138)"/>
</g>
</svg>
