<?xml version="1.0" encoding="UTF-8"?>
<svg xmlns="http://www.w3.org/2000/svg" xmlns:xlink="http://www.w3.org/1999/xlink" width="1343.04pt" height="239.04pt" viewBox="0 0 1343.04 239.04" version="1.2">
<g id="surface1">
<path style="fill:none;stroke-width:10;stroke-linecap:round;stroke-linejoin:round;stroke:rgb(0%,0%,0%);stroke-opacity:1;stroke-miterlimit:10;" d="M 84.9973 85.014603 L 6630.282069 85.014603 " transform="matrix(0.198984,0,0,-0.198333,2.208,243.197105)"/>
<path style=" stroke:none;fill-rule:nonzero;fill:rgb(0%,0%,0%);fill-opacity:1;" d="M 77.105469 221.148438 L 161.441406 134.574219 L 162.867188 135.957031 L 78.53125 222.53125 Z M 77.949219 230.703125 C 75.53125 233.183594 71.550781 233.242188 69.058594 230.832031 C 66.566406 228.421875 66.507812 224.453125 68.925781 221.96875 C 71.347656 219.488281 75.328125 219.429688 77.816406 221.839844 C 80.3125 224.25 80.367188 228.21875 77.949219 230.703125 Z M 162.023438 126.402344 C 164.441406 123.917969 168.421875 123.859375 170.914062 126.273438 C 173.40625 128.683594 173.464844 132.652344 171.046875 135.132812 C 168.625 137.617188 164.648438 137.675781 162.15625 135.265625 C 159.660156 132.855469 159.605469 128.886719 162.023438 126.402344 Z M 162.023438 126.402344 "/>
<path style=" stroke:none;fill-rule:nonzero;fill:rgb(0%,0%,0%);fill-opacity:1;" d="M 170.199219 125.582031 L 258.800781 34.628906 L 260.226562 36.011719 L 171.628906 126.960938 Z M 171.046875 135.132812 C 168.625 137.617188 164.648438 137.675781 162.15625 135.265625 C 159.660156 132.855469 159.605469 128.886719 162.023438 126.402344 C 164.441406 123.917969 168.421875 123.859375 170.914062 126.273438 C 173.40625 128.683594 173.464844 132.652344 171.046875 135.132812 Z M 259.382812 26.457031 C 261.800781 23.972656 265.785156 23.917969 268.273438 26.328125 C 270.765625 28.738281 270.824219 32.707031 268.40625 35.191406 C 265.988281 37.671875 262.003906 37.730469 259.515625 35.320312 C 257.023438 32.910156 256.964844 28.941406 259.382812 26.457031 Z M 259.382812 26.457031 "/>
<path style=" stroke:none;fill-rule:nonzero;fill:rgb(0%,0%,0%);fill-opacity:1;" d="M 355.238281 118.652344 L 267.710938 33.949219 L 269.097656 32.527344 L 356.625 117.230469 Z M 364.824219 117.8125 C 367.316406 120.222656 367.375 124.191406 364.953125 126.675781 C 362.535156 129.15625 358.554688 129.214844 356.0625 126.804688 C 353.570312 124.394531 353.511719 120.425781 355.933594 117.941406 C 358.351562 115.460938 362.332031 115.402344 364.824219 117.8125 Z M 259.515625 33.371094 C 257.023438 30.957031 256.964844 26.988281 259.382812 24.503906 C 261.800781 22.023438 265.785156 21.964844 268.273438 24.375 C 270.765625 26.785156 270.824219 30.753906 268.40625 33.238281 C 265.988281 35.722656 262.003906 35.777344 259.515625 33.371094 Z M 259.515625 33.371094 "/>
<path style=" stroke:none;fill-rule:nonzero;fill:rgb(0%,0%,0%);fill-opacity:1;" d="M 364.109375 117.121094 L 452.808594 26.066406 L 454.238281 27.445312 L 365.535156 118.503906 Z M 364.953125 126.675781 C 362.535156 129.15625 358.554688 129.214844 356.0625 126.804688 C 353.570312 124.394531 353.511719 120.425781 355.933594 117.941406 C 358.351562 115.460938 362.332031 115.398438 364.824219 117.8125 C 367.3125 120.222656 367.375 124.191406 364.953125 126.675781 Z M 453.390625 17.894531 C 455.8125 15.410156 459.792969 15.351562 462.285156 17.761719 C 464.777344 20.175781 464.832031 24.144531 462.414062 26.625 C 459.996094 29.109375 456.015625 29.167969 453.523438 26.757812 C 451.03125 24.34375 450.972656 20.375 453.390625 17.894531 Z M 453.390625 17.894531 "/>
<path style=" stroke:none;fill-rule:nonzero;fill:rgb(0%,0%,0%);fill-opacity:1;" d="M 556.082031 118.652344 L 461.722656 27.335938 L 463.109375 25.914062 L 557.464844 117.230469 Z M 565.664062 117.8125 C 568.15625 120.222656 568.214844 124.191406 565.796875 126.675781 C 563.375 129.15625 559.398438 129.214844 556.90625 126.804688 C 554.414062 124.394531 554.355469 120.425781 556.773438 117.941406 C 559.195312 115.460938 563.171875 115.398438 565.664062 117.8125 Z M 453.523438 26.757812 C 451.03125 24.34375 450.972656 20.375 453.390625 17.894531 C 455.8125 15.410156 459.792969 15.351562 462.285156 17.761719 C 464.777344 20.175781 464.832031 24.144531 462.414062 26.625 C 459.996094 29.109375 456.015625 29.167969 453.523438 26.757812 Z M 453.523438 26.757812 "/>
<path style=" stroke:none;fill-rule:nonzero;fill:rgb(0%,0%,0%);fill-opacity:1;" d="M 663.574219 222.679688 L 565.105469 127.382812 L 566.492188 125.960938 L 664.960938 221.257812 Z M 673.15625 221.839844 C 675.652344 224.25 675.707031 228.21875 673.289062 230.703125 C 670.871094 233.183594 666.890625 233.242188 664.398438 230.832031 C 661.90625 228.421875 661.847656 224.453125 664.265625 221.96875 C 666.6875 219.488281 670.667969 219.429688 673.15625 221.839844 Z M 556.90625 126.804688 C 554.414062 124.394531 554.355469 120.425781 556.773438 117.941406 C 559.195312 115.460938 563.171875 115.402344 565.664062 117.8125 C 568.15625 120.222656 568.214844 124.191406 565.796875 126.675781 C 563.378906 129.15625 559.398438 129.214844 556.90625 126.804688 Z M 556.90625 126.804688 "/>
<path style=" stroke:none;fill-rule:nonzero;fill:rgb(0%,0%,0%);fill-opacity:1;" d="M 673.226562 221.148438 L 757.5625 134.574219 L 758.988281 135.957031 L 674.652344 222.53125 Z M 674.070312 230.703125 C 671.652344 233.183594 667.671875 233.242188 665.179688 230.832031 C 662.6875 228.421875 662.628906 224.453125 665.050781 221.96875 C 667.46875 219.488281 671.449219 219.429688 673.941406 221.839844 C 676.433594 224.25 676.492188 228.21875 674.070312 230.703125 Z M 758.144531 126.402344 C 760.566406 123.917969 764.546875 123.859375 767.035156 126.273438 C 769.527344 128.683594 769.585938 132.652344 767.167969 135.132812 C 764.75 137.617188 760.769531 137.675781 758.277344 135.265625 C 755.785156 132.855469 755.726562 128.886719 758.144531 126.402344 Z M 758.144531 126.402344 "/>
<path style=" stroke:none;fill-rule:nonzero;fill:rgb(0%,0%,0%);fill-opacity:1;" d="M 766.324219 125.582031 L 854.921875 34.628906 L 856.351562 36.011719 L 767.75 126.960938 Z M 767.167969 135.132812 C 764.75 137.617188 760.769531 137.675781 758.277344 135.265625 C 755.785156 132.855469 755.726562 128.886719 758.144531 126.402344 C 760.566406 123.917969 764.546875 123.859375 767.035156 126.273438 C 769.53125 128.683594 769.585938 132.652344 767.167969 135.132812 Z M 855.507812 26.457031 C 857.925781 23.972656 861.90625 23.917969 864.398438 26.328125 C 866.886719 28.738281 866.949219 32.707031 864.527344 35.191406 C 862.109375 37.671875 858.128906 37.730469 855.636719 35.320312 C 853.144531 32.910156 853.085938 28.941406 855.507812 26.457031 Z M 855.507812 26.457031 "/>
<path style=" stroke:none;fill-rule:nonzero;fill:rgb(0%,0%,0%);fill-opacity:1;" d="M 959.582031 128.53125 L 863.835938 35.871094 L 865.222656 34.449219 L 960.96875 127.109375 Z M 969.167969 127.6875 C 971.65625 130.101562 971.714844 134.070312 969.296875 136.550781 C 966.878906 139.035156 962.894531 139.09375 960.40625 136.683594 C 957.914062 134.269531 957.855469 130.300781 960.273438 127.820312 C 962.691406 125.335938 966.671875 125.277344 969.167969 127.6875 Z M 855.636719 35.289062 C 853.144531 32.878906 853.085938 28.914062 855.507812 26.429688 C 857.925781 23.945312 861.90625 23.886719 864.398438 26.296875 C 866.886719 28.707031 866.949219 32.675781 864.527344 35.160156 C 862.109375 37.644531 858.128906 37.703125 855.636719 35.289062 Z M 855.636719 35.289062 "/>
<path style=" stroke:none;fill-rule:nonzero;fill:rgb(0%,0%,0%);fill-opacity:1;" d="M 1056.867188 222.679688 L 968.601562 137.265625 L 969.988281 135.839844 L 1058.253906 221.257812 Z M 1066.453125 221.839844 C 1068.945312 224.25 1069.003906 228.21875 1066.585938 230.703125 C 1064.164062 233.183594 1060.183594 233.242188 1057.691406 230.832031 C 1055.199219 228.421875 1055.144531 224.453125 1057.5625 221.96875 C 1059.980469 219.488281 1063.960938 219.429688 1066.453125 221.839844 Z M 960.40625 136.683594 C 957.914062 134.269531 957.855469 130.300781 960.273438 127.820312 C 962.691406 125.335938 966.675781 125.277344 969.167969 127.6875 C 971.65625 130.101562 971.714844 134.070312 969.296875 136.550781 C 966.878906 139.035156 962.894531 139.09375 960.40625 136.683594 Z M 960.40625 136.683594 "/>
</g>
</svg>
