<?xml version="1.0" encoding="UTF-8"?>
<svg xmlns="http://www.w3.org/2000/svg" xmlns:xlink="http://www.w3.org/1999/xlink" width="684pt" height="795pt" viewBox="0 0 684 795" version="1.2">
<g id="surface1">
<path style="fill:none;stroke-width:10;stroke-linecap:round;stroke-linejoin:round;stroke:rgb(0%,0%,0%);stroke-opacity:1;stroke-miterlimit:10;" d="M 1129.408994 2102.408961 C 1129.408994 2018.896021 1059.971887 1951.199926 974.294806 1951.199926 C 888.629236 1951.199926 819.180619 2018.896021 819.180619 2102.408961 C 819.180619 2185.921901 888.629236 2253.617996 974.294806 2253.617996 C 1059.971887 2253.617996 1129.408994 2185.921901 1129.408994 2102.408961 Z M 1129.408994 2102.408961 " transform="matrix(0.339392,0,0,-0.339581,0,794.88263)"/>
<path style="fill:none;stroke-width:10;stroke-linecap:round;stroke-linejoin:round;stroke:rgb(0%,0%,0%);stroke-opacity:1;stroke-miterlimit:10;" d="M 592.143261 1479.075741 C 592.143261 1395.574305 522.694644 1327.866707 437.029073 1327.866707 C 351.363503 1327.866707 281.914886 1395.574305 281.914886 1479.075741 C 281.914886 1562.588681 351.363503 1630.284776 437.029073 1630.284776 C 522.694644 1630.284776 592.143261 1562.588681 592.143261 1479.075741 Z M 592.143261 1479.075741 " transform="matrix(0.339392,0,0,-0.339581,0,794.88263)"/>
<path style="fill:none;stroke-width:10;stroke-linecap:round;stroke-linejoin:round;stroke:rgb(0%,0%,0%);stroke-opacity:1;stroke-miterlimit:10;" d="M 1725.948903 1479.075741 C 1725.948903 1395.574305 1656.500286 1327.866707 1570.834715 1327.866707 C 1485.169144 1327.866707 1415.720527 1395.574305 1415.720527 1479.075741 C 1415.720527 1562.588681 1485.169144 1630.284776 1570.834715 1630.284776 C 1656.500286 1630.284776 1725.948903 1562.588681 1725.948903 1479.075741 Z M 1725.948903 1479.075741 " transform="matrix(0.339392,0,0,-0.339581,0,794.88263)"/>
<path style="fill:none;stroke-width:10;stroke-linecap:round;stroke-linejoin:round;stroke:rgb(0%,0%,0%);stroke-opacity:1;stroke-miterlimit:10;" d="M 974.294806 1951.199926 L 437.029073 1630.284776 " transform="matrix(0.339392,0,0,-0.339581,0,794.88263)"/>
<path style="fill:none;stroke-width:10;stroke-linecap:round;stroke-linejoin:round;stroke:rgb(0%,0%,0%);stroke-opacity:1;stroke-miterlimit:10;" d="M 974.294806 1951.199926 L 1570.834715 1630.284776 " transform="matrix(0.339392,0,0,-0.339581,0,794.88263)"/>
<path style="fill:none;stroke-width:10;stroke-linecap:round;stroke-linejoin:round;stroke:rgb(0%,0%,0%);stroke-opacity:1;stroke-miterlimit:10;" d="M 395.226393 811.21379 C 395.226393 727.700851 325.777776 660.004756 240.123714 660.004756 C 154.446634 660.004756 84.998017 727.700851 84.998017 811.21379 C 84.998017 894.715227 154.446634 962.422825 240.123714 962.422825 C 325.777776 962.422825 395.226393 894.715227 395.226393 811.21379 Z M 395.226393 811.21379 " transform="matrix(0.339392,0,0,-0.339581,0,794.88263)"/>
<path style="fill:none;stroke-width:10;stroke-linecap:round;stroke-linejoin:round;stroke:rgb(0%,0%,0%);stroke-opacity:1;stroke-miterlimit:10;" d="M 787.034449 818.345749 C 787.034449 734.844313 717.574323 667.136715 631.908752 667.136715 C 546.243181 667.136715 476.794564 734.844313 476.794564 818.345749 C 476.794564 901.858689 546.243181 969.554784 631.908752 969.554784 C 717.574323 969.554784 787.034449 901.858689 787.034449 818.345749 Z M 787.034449 818.345749 " transform="matrix(0.339392,0,0,-0.339581,0,794.88263)"/>
<path style="fill:none;stroke-width:10;stroke-linecap:round;stroke-linejoin:round;stroke:rgb(0%,0%,0%);stroke-opacity:1;stroke-miterlimit:10;" d="M 437.029073 1327.866707 L 240.123714 962.422825 " transform="matrix(0.339392,0,0,-0.339581,0,794.88263)"/>
<path style="fill:none;stroke-width:10;stroke-linecap:round;stroke-linejoin:round;stroke:rgb(0%,0%,0%);stroke-opacity:1;stroke-miterlimit:10;" d="M 437.029073 1327.866707 L 631.908752 969.554784 " transform="matrix(0.339392,0,0,-0.339581,0,794.88263)"/>
<path style="fill:none;stroke-width:10;stroke-linecap:round;stroke-linejoin:round;stroke:rgb(0%,0%,0%);stroke-opacity:1;stroke-miterlimit:10;" d="M 1547.735051 811.21379 C 1547.735051 727.700851 1478.286434 660.004756 1392.632373 660.004756 C 1306.955292 660.004756 1237.506675 727.700851 1237.506675 811.21379 C 1237.506675 894.715227 1306.955292 962.422825 1392.632373 962.422825 C 1478.286434 962.422825 1547.735051 894.715227 1547.735051 811.21379 Z M 1547.735051 811.21379 " transform="matrix(0.339392,0,0,-0.339581,0,794.88263)"/>
<path style="fill:none;stroke-width:10;stroke-linecap:round;stroke-linejoin:round;stroke:rgb(0%,0%,0%);stroke-opacity:1;stroke-miterlimit:10;" d="M 1570.834715 1327.866707 L 1392.632373 962.422825 " transform="matrix(0.339392,0,0,-0.339581,0,794.88263)"/>
<path style="fill:none;stroke-width:10;stroke-linecap:round;stroke-linejoin:round;stroke:rgb(0%,0%,0%);stroke-opacity:1;stroke-miterlimit:10;" d="M 1928.344317 818.345749 C 1928.344317 734.844313 1858.8957 667.136715 1773.218619 667.136715 C 1687.564558 667.136715 1618.104432 734.844313 1618.104432 818.345749 C 1618.104432 901.858689 1687.564558 969.554784 1773.218619 969.554784 C 1858.8957 969.554784 1928.344317 901.858689 1928.344317 818.345749 Z M 1928.344317 818.345749 " transform="matrix(0.339392,0,0,-0.339581,0,794.88263)"/>
<path style="fill:none;stroke-width:10;stroke-linecap:round;stroke-linejoin:round;stroke:rgb(0%,0%,0%);stroke-opacity:1;stroke-miterlimit:10;" d="M 1570.834715 1327.866707 L 1773.230129 969.554784 " transform="matrix(0.339392,0,0,-0.339581,0,794.88263)"/>
<path style="fill:none;stroke-width:10;stroke-linecap:round;stroke-linejoin:round;stroke:rgb(0%,0%,0%);stroke-opacity:1;stroke-miterlimit:10;" d="M 631.908752 236.205345 C 631.908752 152.703908 562.460135 84.99631 476.794564 84.99631 C 391.128993 84.99631 321.680376 152.703908 321.680376 236.205345 C 321.680376 319.718284 391.128993 387.414379 476.794564 387.414379 C 562.460135 387.414379 631.908752 319.718284 631.908752 236.205345 Z M 631.908752 236.205345 " transform="matrix(0.339392,0,0,-0.339581,0,794.88263)"/>
<path style="fill:none;stroke-width:10;stroke-linecap:round;stroke-linejoin:round;stroke:rgb(0%,0%,0%);stroke-opacity:1;stroke-miterlimit:10;" d="M 974.294806 236.205345 C 974.294806 152.703908 904.84619 84.99631 819.180619 84.99631 C 733.515048 84.99631 664.066431 152.703908 664.066431 236.205345 C 664.066431 319.718284 733.515048 387.414379 819.180619 387.414379 C 904.84619 387.414379 974.294806 319.718284 974.294806 236.205345 Z M 974.294806 236.205345 " transform="matrix(0.339392,0,0,-0.339581,0,794.88263)"/>
<path style="fill:none;stroke-width:10;stroke-linecap:round;stroke-linejoin:round;stroke:rgb(0%,0%,0%);stroke-opacity:1;stroke-miterlimit:10;" d="M 631.908752 667.136715 L 476.794564 387.414379 " transform="matrix(0.339392,0,0,-0.339581,0,794.88263)"/>
<path style="fill:none;stroke-width:10;stroke-linecap:round;stroke-linejoin:round;stroke:rgb(0%,0%,0%);stroke-opacity:1;stroke-miterlimit:10;" d="M 631.908752 667.136715 L 819.180619 387.414379 " transform="matrix(0.339392,0,0,-0.339581,0,794.88263)"/>
<path style="fill:none;stroke-width:10;stroke-linecap:round;stroke-linejoin:round;stroke:rgb(0%,0%,0%);stroke-opacity:1;stroke-miterlimit:10;" d="M 1392.632373 236.205345 C 1392.632373 152.703908 1323.183756 84.99631 1237.506675 84.99631 C 1151.841105 84.99631 1082.403997 152.703908 1082.403997 236.205345 C 1082.403997 319.718284 1151.841105 387.414379 1237.506675 387.414379 C 1323.183756 387.414379 1392.632373 319.718284 1392.632373 236.205345 Z M 1392.632373 236.205345 " transform="matrix(0.339392,0,0,-0.339581,0,794.88263)"/>
<path style="fill:none;stroke-width:10;stroke-linecap:round;stroke-linejoin:round;stroke:rgb(0%,0%,0%);stroke-opacity:1;stroke-miterlimit:10;" d="M 1725.948903 236.205345 C 1725.948903 152.703908 1656.500286 84.99631 1570.834715 84.99631 C 1485.169144 84.99631 1415.720527 152.703908 1415.720527 236.205345 C 1415.720527 319.718284 1485.169144 387.414379 1570.834715 387.414379 C 1656.500286 387.414379 1725.948903 319.718284 1725.948903 236.205345 Z M 1725.948903 236.205345 " transform="matrix(0.339392,0,0,-0.339581,0,794.88263)"/>
<path style="fill:none;stroke-width:10;stroke-linecap:round;stroke-linejoin:round;stroke:rgb(0%,0%,0%);stroke-opacity:1;stroke-miterlimit:10;" d="M 1392.632373 660.004756 L 1237.506675 387.414379 " transform="matrix(0.339392,0,0,-0.339581,0,794.88263)"/>
<path style="fill:none;stroke-width:10;stroke-linecap:round;stroke-linejoin:round;stroke:rgb(0%,0%,0%);stroke-opacity:1;stroke-miterlimit:10;" d="M 1392.632373 660.004756 L 1570.834715 387.414379 " transform="matrix(0.339392,0,0,-0.339581,0,794.88263)"/>
</g>
</svg>
