<?xml version="1.0" encoding="UTF-8"?>
<svg xmlns="http://www.w3.org/2000/svg" xmlns:xlink="http://www.w3.org/1999/xlink" width="1289.04pt" height="282.96pt" viewBox="0 0 1289.04 282.96" version="1.2">
<g id="surface1">
<path style="fill:none;stroke-width:10;stroke-linecap:round;stroke-linejoin:round;stroke:rgb(0%,0%,0%);stroke-opacity:1;stroke-miterlimit:10;" d="M 84.992866 85.001532 L 7080.512681 87.879897 " transform="matrix(0.179565,0,0,-0.179138,0,289.418424)"/>
<path style=" stroke:none;fill-rule:evenodd;fill:rgb(0%,0%,0%);fill-opacity:1;" d="M 90.121094 274.191406 C 90.121094 276.789062 88.007812 278.894531 85.40625 278.894531 C 82.800781 278.894531 80.691406 276.789062 80.691406 274.191406 C 80.691406 271.597656 82.800781 269.492188 85.40625 269.492188 C 88.007812 269.492188 90.121094 271.597656 90.121094 274.191406 Z M 90.121094 274.191406 "/>
<path style="fill:none;stroke-width:10;stroke-linecap:round;stroke-linejoin:round;stroke:rgb(0%,0%,0%);stroke-opacity:1;stroke-miterlimit:10;" d="M 476.717089 87.879897 L 1174.541803 785.708951 " transform="matrix(0.179565,0,0,-0.179138,0,289.418424)"/>
<path style=" stroke:none;fill-rule:evenodd;fill:rgb(0%,0%,0%);fill-opacity:1;" d="M 215.621094 148.667969 C 215.621094 151.265625 213.507812 153.371094 210.90625 153.371094 C 208.300781 153.371094 206.191406 151.265625 206.191406 148.667969 C 206.191406 146.074219 208.300781 143.96875 210.90625 143.96875 C 213.507812 143.96875 215.621094 146.074219 215.621094 148.667969 Z M 215.621094 148.667969 "/>
<path style="fill:none;stroke-width:10;stroke-linecap:round;stroke-linejoin:round;stroke:rgb(0%,0%,0%);stroke-opacity:1;stroke-miterlimit:10;" d="M 1182.9606 794.125987 L 1880.785314 1491.955041 " transform="matrix(0.179565,0,0,-0.179138,0,289.418424)"/>
<path style=" stroke:none;fill-rule:evenodd;fill:rgb(0%,0%,0%);fill-opacity:1;" d="M 342.4375 22.152344 C 342.4375 24.75 340.324219 26.855469 337.722656 26.855469 C 335.121094 26.855469 333.011719 24.75 333.011719 22.152344 C 333.011719 19.558594 335.121094 17.449219 337.722656 17.449219 C 340.324219 17.449219 342.4375 19.558594 342.4375 22.152344 Z M 342.4375 22.152344 "/>
<path style="fill:none;stroke-width:10;stroke-linecap:round;stroke-linejoin:round;stroke:rgb(0%,0%,0%);stroke-opacity:1;stroke-miterlimit:10;" d="M 2585.462538 794.125987 L 1887.659577 1491.955041 " transform="matrix(0.179565,0,0,-0.179138,0,289.418424)"/>
<path style=" stroke:none;fill-rule:evenodd;fill:rgb(0%,0%,0%);fill-opacity:1;" d="M 468.972656 147.160156 C 468.972656 149.757812 466.863281 151.863281 464.257812 151.863281 C 461.65625 151.863281 459.546875 149.757812 459.546875 147.160156 C 459.546875 144.5625 461.65625 142.457031 464.257812 142.457031 C 466.863281 142.457031 468.972656 144.5625 468.972656 147.160156 Z M 468.972656 147.160156 "/>
<path style="fill:none;stroke-width:10;stroke-linecap:round;stroke-linejoin:round;stroke:rgb(0%,0%,0%);stroke-opacity:1;stroke-miterlimit:10;" d="M 2578.283719 794.125987 L 3276.108433 1491.955041 " transform="matrix(0.179565,0,0,-0.179138,0,289.418424)"/>
<path style=" stroke:none;fill-rule:evenodd;fill:rgb(0%,0%,0%);fill-opacity:1;" d="M 592.984375 22.152344 C 592.984375 24.75 590.875 26.855469 588.273438 26.855469 C 585.667969 26.855469 583.558594 24.75 583.558594 22.152344 C 583.558594 19.558594 585.667969 17.449219 588.273438 17.449219 C 590.875 17.449219 592.984375 19.558594 592.984375 22.152344 Z M 592.984375 22.152344 "/>
<path style="fill:none;stroke-width:10;stroke-linecap:round;stroke-linejoin:round;stroke:rgb(0%,0%,0%);stroke-opacity:1;stroke-miterlimit:10;" d="M 3976.108547 794.125987 L 3278.283832 1491.955041 " transform="matrix(0.179565,0,0,-0.179138,0,289.418424)"/>
<path style=" stroke:none;fill-rule:evenodd;fill:rgb(0%,0%,0%);fill-opacity:1;" d="M 718.679688 147.160156 C 718.679688 149.757812 716.570312 151.863281 713.96875 151.863281 C 711.363281 151.863281 709.253906 149.757812 709.253906 147.160156 C 709.253906 144.5625 711.363281 142.457031 713.96875 142.457031 C 716.570312 142.457031 718.679688 144.5625 718.679688 147.160156 Z M 718.679688 147.160156 "/>
<path style="fill:none;stroke-width:10;stroke-linecap:round;stroke-linejoin:round;stroke:rgb(0%,0%,0%);stroke-opacity:1;stroke-miterlimit:10;" d="M 4682.352058 87.879897 L 3984.527343 785.708951 " transform="matrix(0.179565,0,0,-0.179138,0,289.418424)"/>
<path style=" stroke:none;fill-rule:evenodd;fill:rgb(0%,0%,0%);fill-opacity:1;" d="M 845.675781 273.851562 C 845.675781 276.449219 843.5625 278.554688 840.960938 278.554688 C 838.359375 278.554688 836.25 276.449219 836.25 273.851562 C 836.25 271.253906 838.359375 269.152344 840.960938 269.152344 C 843.5625 269.152344 845.675781 271.253906 845.675781 273.851562 Z M 845.675781 273.851562 "/>
<path style="fill:none;stroke-width:10;stroke-linecap:round;stroke-linejoin:round;stroke:rgb(0%,0%,0%);stroke-opacity:1;stroke-miterlimit:10;" d="M 4675.151485 87.879897 L 5372.976199 785.708951 " transform="matrix(0.179565,0,0,-0.179138,0,289.418424)"/>
<path style=" stroke:none;fill-rule:evenodd;fill:rgb(0%,0%,0%);fill-opacity:1;" d="M 969.507812 148.667969 C 969.507812 151.265625 967.398438 153.371094 964.796875 153.371094 C 962.195312 153.371094 960.082031 151.265625 960.082031 148.667969 C 960.082031 146.074219 962.195312 143.96875 964.796875 143.96875 C 967.398438 143.96875 969.507812 146.074219 969.507812 148.667969 Z M 969.507812 148.667969 "/>
<path style="fill:none;stroke-width:10;stroke-linecap:round;stroke-linejoin:round;stroke:rgb(0%,0%,0%);stroke-opacity:1;stroke-miterlimit:10;" d="M 6079.21971 87.879897 L 5381.394996 785.708951 " transform="matrix(0.179565,0,0,-0.179138,0,289.418424)"/>
<path style=" stroke:none;fill-rule:evenodd;fill:rgb(0%,0%,0%);fill-opacity:1;" d="M 1096.402344 273.75 C 1096.402344 276.347656 1094.289062 278.453125 1091.6875 278.453125 C 1089.085938 278.453125 1086.972656 276.347656 1086.972656 273.75 C 1086.972656 271.152344 1089.085938 269.046875 1091.6875 269.046875 C 1094.289062 269.046875 1096.402344 271.152344 1096.402344 273.75 Z M 1096.402344 273.75 "/>
</g>
</svg>
