<?xml version="1.0" encoding="UTF-8"?>
<svg xmlns="http://www.w3.org/2000/svg" xmlns:xlink="http://www.w3.org/1999/xlink" width="1321.02pt" height="264pt" viewBox="0 0 1321.02 264" version="1.2">
<defs>
<clipPath id="clip1">
  <path d="M 224.867188 219 L 243 219 L 243 236 L 224.867188 236 Z M 224.867188 219 "/>
</clipPath>
<clipPath id="clip2">
  <path d="M 310.296875 219 L 328 219 L 328 236 L 310.296875 236 Z M 310.296875 219 "/>
</clipPath>
<clipPath id="clip3">
  <path d="M 301.308594 26 L 315 26 L 315 51 L 301.308594 51 Z M 301.308594 26 "/>
</clipPath>
<clipPath id="clip4">
  <path d="M 777.925781 219 L 796 219 L 796 236 L 777.925781 236 Z M 777.925781 219 "/>
</clipPath>
<clipPath id="clip5">
  <path d="M 861.570312 219 L 879 219 L 879 236 L 861.570312 236 Z M 861.570312 219 "/>
</clipPath>
<clipPath id="clip6">
  <path d="M 856.152344 26 L 869 26 L 869 51 L 856.152344 51 Z M 856.152344 26 "/>
</clipPath>
</defs>
<g id="surface1">
<path style=" stroke:none;fill-rule:nonzero;fill:rgb(0%,0%,0%);fill-opacity:1;" d="M 18.652344 191.171875 L 1282.335938 191.171875 L 1282.335938 193.363281 L 18.652344 193.363281 C 18.046875 193.363281 17.554688 192.871094 17.554688 192.265625 C 17.554688 191.664062 18.046875 191.171875 18.652344 191.171875 Z M 1299.867188 192.265625 L 1277.921875 185.699219 L 1282.308594 191.171875 L 1282.308594 193.363281 L 1277.921875 198.835938 Z M 1299.867188 192.265625 "/>
<path style=" stroke:none;fill-rule:evenodd;fill:rgb(0%,0%,0%);fill-opacity:1;" d="M 243.851562 192.265625 C 243.851562 195.441406 241.273438 198.011719 238.089844 198.011719 C 234.90625 198.011719 232.328125 195.441406 232.328125 192.265625 C 232.328125 189.09375 234.90625 186.519531 238.089844 186.519531 C 241.273438 186.519531 243.851562 189.09375 243.851562 192.265625 Z M 243.851562 192.265625 "/>
<g clip-path="url(#clip1)" clip-rule="nonzero">
<path style=" stroke:none;fill-rule:evenodd;fill:rgb(0%,0%,0%);fill-opacity:1;" d="M 242.035156 222.042969 C 241.90625 222.558594 241.640625 222.945312 241.246094 223.203125 C 240.847656 223.460938 240.449219 223.589844 240.046875 223.589844 C 239.632812 223.589844 239.289062 223.457031 239.015625 223.195312 C 238.816406 223 238.710938 222.75 238.699219 222.4375 C 238.699219 222.3125 238.722656 222.152344 238.769531 221.957031 C 238.898438 221.523438 239.101562 221.191406 239.371094 220.96875 C 239.644531 220.746094 239.832031 220.617188 239.941406 220.582031 C 239.714844 220.410156 239.253906 220.324219 238.554688 220.324219 C 237.941406 220.324219 237.390625 220.644531 236.90625 221.277344 C 236.421875 221.914062 236.058594 222.679688 235.824219 223.574219 L 234.191406 229.863281 C 234.023438 230.496094 233.902344 231.097656 233.816406 231.667969 C 233.769531 231.863281 233.746094 232.035156 233.746094 232.183594 C 233.746094 232.539062 233.804688 232.875 233.925781 233.195312 C 234.042969 233.542969 234.21875 233.816406 234.457031 234.023438 C 234.695312 234.230469 234.996094 234.332031 235.363281 234.332031 C 235.835938 234.332031 236.292969 234.210938 236.726562 233.960938 C 237.167969 233.714844 237.570312 233.386719 237.9375 232.964844 C 238.300781 232.546875 238.625 232.0625 238.910156 231.503906 C 239.195312 230.949219 239.417969 230.378906 239.585938 229.792969 C 239.65625 229.496094 239.855469 229.347656 240.1875 229.347656 L 240.597656 229.347656 C 240.902344 229.347656 241.058594 229.460938 241.058594 229.691406 C 241.058594 229.761719 241.039062 229.824219 241.003906 229.878906 C 240.839844 230.566406 240.570312 231.246094 240.199219 231.917969 C 239.824219 232.585938 239.390625 233.179688 238.894531 233.695312 C 238.394531 234.210938 237.832031 234.636719 237.199219 234.96875 C 236.566406 235.300781 235.886719 235.464844 235.167969 235.464844 C 234.433594 235.464844 233.800781 235.308594 233.269531 234.992188 C 232.738281 234.679688 232.304688 234.269531 231.972656 233.765625 C 231.867188 233.640625 231.785156 233.511719 231.722656 233.378906 C 231.664062 233.246094 231.648438 233.226562 231.671875 233.316406 C 231.386719 233.789062 230.9375 234.261719 230.324219 234.746094 C 229.707031 235.226562 229 235.464844 228.191406 235.464844 C 227.742188 235.464844 227.300781 235.410156 226.863281 235.292969 C 226.425781 235.179688 226.042969 235.003906 225.71875 234.761719 C 225.390625 234.519531 225.148438 234.230469 224.980469 233.882812 C 224.898438 233.679688 224.859375 233.457031 224.855469 233.214844 C 224.859375 233.042969 224.882812 232.84375 224.929688 232.613281 C 225.058594 232.097656 225.324219 231.710938 225.726562 231.453125 C 226.128906 231.195312 226.53125 231.066406 226.933594 231.066406 C 227.347656 231.066406 227.703125 231.199219 227.996094 231.460938 C 228.199219 231.65625 228.300781 231.910156 228.300781 232.21875 C 228.300781 232.378906 228.277344 232.539062 228.226562 232.699219 C 228.121094 233.101562 227.929688 233.425781 227.652344 233.671875 C 227.375 233.917969 227.175781 234.050781 227.058594 234.074219 C 227.28125 234.257812 227.738281 234.34375 228.421875 234.332031 C 229.039062 234.332031 229.59375 234.011719 230.089844 233.371094 C 230.589844 232.726562 230.949219 231.960938 231.175781 231.066406 L 232.824219 224.742188 C 232.988281 224.144531 233.121094 223.5625 233.214844 222.988281 C 233.238281 222.804688 233.25 222.632812 233.25 222.472656 C 233.25 222.117188 233.199219 221.785156 233.089844 221.476562 C 232.972656 221.132812 232.789062 220.855469 232.539062 220.644531 C 232.292969 220.429688 231.984375 220.324219 231.617188 220.324219 C 231.144531 220.324219 230.683594 220.449219 230.242188 220.695312 C 229.796875 220.941406 229.394531 221.269531 229.027344 221.683594 C 228.660156 222.09375 228.335938 222.574219 228.050781 223.117188 C 227.765625 223.664062 227.5625 224.238281 227.429688 224.84375 C 227.300781 225.15625 227.082031 225.316406 226.773438 225.324219 L 226.382812 225.324219 C 226.097656 225.328125 225.957031 225.183594 225.957031 224.894531 L 225.957031 224.777344 C 226.136719 224.066406 226.40625 223.375 226.773438 222.707031 C 227.140625 222.035156 227.578125 221.441406 228.085938 220.925781 C 228.59375 220.410156 229.164062 219.992188 229.789062 219.664062 C 230.417969 219.335938 231.097656 219.171875 231.832031 219.171875 C 232.539062 219.171875 233.167969 219.328125 233.710938 219.636719 C 234.257812 219.949219 234.699219 220.359375 235.042969 220.875 C 235.113281 221 235.179688 221.136719 235.238281 221.277344 C 235.296875 221.421875 235.316406 221.460938 235.292969 221.390625 C 235.585938 220.886719 236.042969 220.390625 236.65625 219.90625 C 237.273438 219.417969 237.976562 219.171875 238.769531 219.171875 C 239.21875 219.171875 239.664062 219.230469 240.109375 219.335938 C 240.550781 219.445312 240.9375 219.621094 241.261719 219.863281 C 241.585938 220.101562 241.828125 220.398438 241.980469 220.753906 C 242.0625 220.960938 242.105469 221.195312 242.105469 221.457031 C 242.105469 221.632812 242.082031 221.824219 242.035156 222.042969 Z M 242.035156 222.042969 "/>
</g>
<path style=" stroke:none;fill-rule:evenodd;fill:rgb(0%,0%,0%);fill-opacity:1;" d="M 251.746094 240.0625 C 250.382812 240.023438 249.054688 240.003906 247.761719 240.003906 C 246.472656 240.003906 245.144531 240.023438 243.78125 240.0625 L 243.78125 239.234375 L 244.546875 239.234375 C 244.792969 239.234375 245.023438 239.230469 245.238281 239.226562 C 245.453125 239.21875 245.65625 239.203125 245.851562 239.175781 C 246.042969 239.152344 246.210938 239.125 246.351562 239.101562 C 246.46875 239.082031 246.566406 239.023438 246.644531 238.921875 C 246.722656 238.824219 246.761719 238.710938 246.761719 238.589844 L 246.761719 227.742188 C 246.390625 227.90625 245.933594 228.027344 245.394531 228.109375 C 244.851562 228.191406 244.257812 228.234375 243.613281 228.234375 L 243.613281 227.417969 C 244.503906 227.417969 245.324219 227.320312 246.078125 227.132812 C 246.832031 226.945312 247.480469 226.589844 248.03125 226.070312 L 248.375 226.070312 C 248.621094 226.070312 248.742188 226.175781 248.742188 226.386719 L 248.742188 238.589844 C 248.742188 238.71875 248.78125 238.832031 248.855469 238.925781 C 248.929688 239.023438 249.035156 239.082031 249.175781 239.101562 C 249.296875 239.125 249.449219 239.152344 249.632812 239.175781 C 249.816406 239.203125 250.027344 239.21875 250.261719 239.226562 C 250.496094 239.230469 250.722656 239.234375 250.945312 239.234375 L 251.746094 239.234375 Z M 251.746094 240.0625 "/>
<path style=" stroke:none;fill-rule:evenodd;fill:rgb(0%,0%,0%);fill-opacity:1;" d="M 375.511719 192.265625 C 375.511719 195.441406 372.933594 198.011719 369.753906 198.011719 C 366.570312 198.011719 363.992188 195.441406 363.992188 192.265625 C 363.992188 189.09375 366.570312 186.519531 369.753906 186.519531 C 372.933594 186.519531 375.511719 189.09375 375.511719 192.265625 Z M 375.511719 192.265625 "/>
<g clip-path="url(#clip2)" clip-rule="nonzero">
<path style=" stroke:none;fill-rule:evenodd;fill:rgb(0%,0%,0%);fill-opacity:1;" d="M 327.464844 222.042969 C 327.335938 222.558594 327.070312 222.945312 326.675781 223.203125 C 326.277344 223.460938 325.878906 223.589844 325.476562 223.589844 C 325.0625 223.589844 324.71875 223.457031 324.445312 223.195312 C 324.246094 223.003906 324.140625 222.75 324.128906 222.4375 C 324.128906 222.316406 324.152344 222.152344 324.199219 221.957031 C 324.328125 221.523438 324.53125 221.195312 324.800781 220.972656 C 325.074219 220.746094 325.261719 220.617188 325.371094 220.582031 C 325.144531 220.410156 324.683594 220.328125 323.984375 220.324219 C 323.371094 220.328125 322.820312 220.644531 322.335938 221.277344 C 321.851562 221.917969 321.488281 222.679688 321.253906 223.570312 L 319.621094 229.863281 C 319.453125 230.496094 319.332031 231.097656 319.246094 231.667969 C 319.199219 231.863281 319.175781 232.035156 319.175781 232.183594 C 319.175781 232.539062 319.234375 232.875 319.355469 233.195312 C 319.472656 233.542969 319.648438 233.816406 319.886719 234.023438 C 320.125 234.230469 320.425781 234.332031 320.792969 234.332031 C 321.265625 234.332031 321.722656 234.210938 322.15625 233.964844 C 322.597656 233.71875 323 233.386719 323.367188 232.964844 C 323.730469 232.546875 324.054688 232.0625 324.339844 231.503906 C 324.625 230.949219 324.847656 230.378906 325.015625 229.792969 C 325.085938 229.496094 325.285156 229.347656 325.617188 229.347656 L 326.027344 229.347656 C 326.332031 229.347656 326.488281 229.464844 326.488281 229.691406 C 326.488281 229.761719 326.472656 229.824219 326.433594 229.878906 C 326.269531 230.570312 326 231.246094 325.628906 231.917969 C 325.253906 232.589844 324.820312 233.179688 324.324219 233.695312 C 323.824219 234.210938 323.261719 234.636719 322.628906 234.96875 C 321.996094 235.300781 321.316406 235.464844 320.597656 235.464844 C 319.863281 235.464844 319.230469 235.308594 318.699219 234.992188 C 318.167969 234.679688 317.734375 234.269531 317.402344 233.765625 C 317.296875 233.640625 317.214844 233.511719 317.152344 233.378906 C 317.09375 233.246094 317.078125 233.226562 317.101562 233.316406 C 316.816406 233.789062 316.367188 234.265625 315.753906 234.746094 C 315.136719 235.226562 314.425781 235.464844 313.621094 235.464844 C 313.171875 235.464844 312.730469 235.410156 312.292969 235.292969 C 311.855469 235.179688 311.472656 235.003906 311.148438 234.761719 C 310.820312 234.519531 310.574219 234.230469 310.410156 233.882812 C 310.328125 233.679688 310.289062 233.457031 310.285156 233.214844 C 310.289062 233.042969 310.3125 232.84375 310.355469 232.613281 C 310.488281 232.097656 310.753906 231.710938 311.15625 231.453125 C 311.558594 231.195312 311.960938 231.066406 312.363281 231.066406 C 312.777344 231.066406 313.132812 231.199219 313.425781 231.460938 C 313.628906 231.65625 313.730469 231.910156 313.730469 232.21875 C 313.730469 232.378906 313.703125 232.539062 313.65625 232.699219 C 313.550781 233.101562 313.359375 233.425781 313.082031 233.671875 C 312.804688 233.917969 312.605469 234.050781 312.484375 234.074219 C 312.710938 234.257812 313.167969 234.34375 313.851562 234.332031 C 314.46875 234.332031 315.023438 234.011719 315.519531 233.371094 C 316.019531 232.730469 316.378906 231.960938 316.605469 231.066406 L 318.253906 224.742188 C 318.417969 224.144531 318.550781 223.5625 318.644531 222.988281 C 318.667969 222.804688 318.679688 222.632812 318.679688 222.472656 C 318.679688 222.117188 318.628906 221.785156 318.519531 221.472656 C 318.402344 221.132812 318.21875 220.855469 317.96875 220.644531 C 317.722656 220.433594 317.414062 220.328125 317.046875 220.324219 C 316.574219 220.328125 316.113281 220.449219 315.671875 220.695312 C 315.226562 220.941406 314.824219 221.269531 314.457031 221.683594 C 314.089844 222.097656 313.765625 222.574219 313.480469 223.117188 C 313.195312 223.664062 312.988281 224.238281 312.859375 224.84375 C 312.730469 225.15625 312.511719 225.3125 312.203125 225.328125 L 311.8125 225.328125 C 311.527344 225.328125 311.386719 225.183594 311.386719 224.898438 L 311.386719 224.773438 C 311.5625 224.066406 311.835938 223.375 312.203125 222.703125 C 312.570312 222.035156 313.007812 221.445312 313.515625 220.925781 C 314.023438 220.410156 314.59375 219.992188 315.21875 219.660156 C 315.847656 219.339844 316.527344 219.175781 317.257812 219.171875 C 317.96875 219.175781 318.597656 219.328125 319.140625 219.640625 C 319.6875 219.945312 320.128906 220.359375 320.472656 220.875 C 320.542969 221 320.609375 221.136719 320.667969 221.277344 C 320.726562 221.421875 320.746094 221.460938 320.71875 221.390625 C 321.015625 220.886719 321.472656 220.394531 322.085938 219.902344 C 322.703125 219.417969 323.40625 219.175781 324.199219 219.171875 C 324.648438 219.175781 325.09375 219.230469 325.539062 219.339844 C 325.980469 219.449219 326.367188 219.621094 326.691406 219.863281 C 327.015625 220.105469 327.257812 220.398438 327.410156 220.753906 C 327.492188 220.960938 327.535156 221.199219 327.535156 221.457031 C 327.535156 221.632812 327.511719 221.824219 327.464844 222.042969 Z M 327.464844 222.042969 "/>
</g>
<path style=" stroke:none;fill-rule:evenodd;fill:rgb(0%,0%,0%);fill-opacity:1;" d="M 337.175781 240.0625 C 335.8125 240.023438 334.484375 240.003906 333.191406 240.003906 C 331.902344 240.003906 330.574219 240.023438 329.210938 240.0625 L 329.210938 239.234375 L 329.976562 239.234375 C 330.222656 239.234375 330.453125 239.234375 330.667969 239.226562 C 330.882812 239.21875 331.085938 239.203125 331.28125 239.179688 C 331.472656 239.152344 331.640625 239.125 331.78125 239.101562 C 331.898438 239.082031 331.996094 239.023438 332.074219 238.921875 C 332.152344 238.824219 332.191406 238.714844 332.191406 238.589844 L 332.191406 227.742188 C 331.820312 227.90625 331.363281 228.027344 330.824219 228.109375 C 330.28125 228.195312 329.6875 228.234375 329.042969 228.234375 L 329.042969 227.417969 C 329.933594 227.417969 330.753906 227.324219 331.507812 227.132812 C 332.261719 226.945312 332.910156 226.589844 333.460938 226.070312 L 333.804688 226.070312 C 334.050781 226.070312 334.171875 226.175781 334.171875 226.386719 L 334.171875 238.589844 C 334.171875 238.71875 334.210938 238.832031 334.285156 238.925781 C 334.359375 239.023438 334.464844 239.082031 334.605469 239.101562 C 334.726562 239.125 334.878906 239.152344 335.0625 239.179688 C 335.25 239.203125 335.457031 239.21875 335.691406 239.226562 C 335.925781 239.234375 336.152344 239.234375 336.375 239.234375 L 337.175781 239.234375 Z M 337.175781 240.0625 "/>
<path style="fill:none;stroke-width:0.3216;stroke-linecap:round;stroke-linejoin:miter;stroke:rgb(0%,0%,0%);stroke-opacity:1;stroke-miterlimit:10;" d="M 8.597874 10.207905 L 14.225825 10.207905 " transform="matrix(4.38867,0,-0.00000119063,-4.377805,310.298029,269.188212)"/>
<path style="fill:none;stroke-width:0.3216;stroke-linecap:round;stroke-linejoin:miter;stroke:rgb(0%,0%,0%);stroke-opacity:1;stroke-miterlimit:10;" d="M 11.412295 13.022172 L 11.412294 7.39453 " transform="matrix(4.38867,0,-0.00000119063,-4.377805,310.298029,269.188212)"/>
<path style=" stroke:none;fill-rule:evenodd;fill:rgb(0%,0%,0%);fill-opacity:1;" d="M 395.515625 235.449219 L 395.515625 233.402344 C 395.140625 233.875 394.535156 234.332031 393.699219 234.769531 C 392.867188 235.210938 391.9375 235.429688 390.90625 235.429688 C 389.816406 235.429688 388.789062 235.21875 387.820312 234.796875 C 386.847656 234.375 386.007812 233.789062 385.296875 233.042969 C 384.527344 232.242188 383.945312 231.355469 383.550781 230.378906 C 383.15625 229.40625 382.953125 228.378906 382.953125 227.300781 C 382.953125 226.226562 383.164062 225.191406 383.574219 224.191406 C 383.992188 223.195312 384.59375 222.316406 385.386719 221.542969 C 386.179688 220.777344 387.082031 220.1875 388.101562 219.765625 C 389.117188 219.351562 390.183594 219.140625 391.296875 219.136719 C 392.253906 219.140625 393.125 219.34375 393.914062 219.75 C 394.699219 220.15625 395.257812 220.574219 395.59375 220.992188 L 395.59375 213.84375 C 395.59375 213.550781 395.574219 213.261719 395.546875 212.976562 C 395.515625 212.695312 395.402344 212.484375 395.203125 212.332031 C 395 212.199219 394.679688 212.121094 394.238281 212.09375 C 393.804688 212.070312 393.328125 212.058594 392.804688 212.058594 L 392.804688 210.664062 L 398.390625 210.253906 L 398.390625 231.839844 C 398.390625 232.136719 398.410156 232.425781 398.441406 232.699219 C 398.464844 232.972656 398.585938 233.179688 398.796875 233.316406 C 399 233.457031 399.320312 233.539062 399.761719 233.566406 C 400.199219 233.597656 400.683594 233.609375 401.214844 233.609375 L 401.214844 235.019531 Z M 395.515625 222.9375 C 395.132812 222.171875 394.574219 221.535156 393.847656 221.035156 C 393.128906 220.542969 392.300781 220.292969 391.367188 220.289062 C 390.621094 220.292969 389.921875 220.46875 389.273438 220.8125 C 388.621094 221.164062 388.0625 221.648438 387.585938 222.265625 C 387.070312 222.96875 386.730469 223.75 386.585938 224.613281 C 386.4375 225.480469 386.363281 226.375 386.363281 227.300781 C 386.363281 228.230469 386.429688 229.121094 386.554688 229.96875 C 386.6875 230.816406 386.996094 231.613281 387.480469 232.355469 C 387.886719 232.941406 388.394531 233.410156 389.019531 233.765625 C 389.636719 234.121094 390.289062 234.296875 390.976562 234.296875 C 392.007812 234.296875 392.914062 234.015625 393.710938 233.449219 C 394.503906 232.878906 395.105469 232.15625 395.515625 231.273438 Z M 395.515625 222.9375 "/>
<path style=" stroke:none;fill-rule:evenodd;fill:rgb(0%,0%,0%);fill-opacity:1;" d="M 419.699219 222.042969 C 419.570312 222.558594 419.308594 222.945312 418.910156 223.203125 C 418.515625 223.460938 418.113281 223.589844 417.714844 223.589844 C 417.296875 223.589844 416.957031 223.457031 416.683594 223.195312 C 416.480469 223.003906 416.375 222.75 416.363281 222.4375 C 416.363281 222.316406 416.390625 222.152344 416.433594 221.957031 C 416.566406 221.523438 416.765625 221.195312 417.039062 220.972656 C 417.3125 220.746094 417.5 220.617188 417.605469 220.582031 C 417.382812 220.410156 416.921875 220.328125 416.222656 220.324219 C 415.609375 220.328125 415.054688 220.644531 414.574219 221.277344 C 414.089844 221.917969 413.726562 222.679688 413.488281 223.570312 L 411.855469 229.863281 C 411.691406 230.496094 411.566406 231.097656 411.484375 231.667969 C 411.433594 231.863281 411.414062 232.035156 411.414062 232.183594 C 411.414062 232.539062 411.472656 232.875 411.59375 233.195312 C 411.707031 233.542969 411.886719 233.816406 412.125 234.023438 C 412.359375 234.230469 412.664062 234.332031 413.027344 234.332031 C 413.503906 234.332031 413.957031 234.210938 414.394531 233.964844 C 414.832031 233.71875 415.234375 233.386719 415.601562 232.964844 C 415.96875 232.546875 416.292969 232.0625 416.578125 231.503906 C 416.863281 230.949219 417.085938 230.378906 417.25 229.792969 C 417.324219 229.496094 417.523438 229.347656 417.855469 229.347656 L 418.265625 229.347656 C 418.570312 229.347656 418.722656 229.464844 418.722656 229.691406 C 418.722656 229.761719 418.707031 229.824219 418.671875 229.878906 C 418.503906 230.570312 418.238281 231.246094 417.863281 231.917969 C 417.492188 232.589844 417.058594 233.179688 416.5625 233.695312 C 416.0625 234.210938 415.5 234.636719 414.867188 234.96875 C 414.230469 235.300781 413.554688 235.464844 412.835938 235.464844 C 412.101562 235.464844 411.464844 235.308594 410.933594 234.992188 C 410.402344 234.679688 409.96875 234.269531 409.640625 233.765625 C 409.535156 233.640625 409.453125 233.511719 409.390625 233.378906 C 409.332031 233.246094 409.316406 233.226562 409.335938 233.316406 C 409.050781 233.789062 408.605469 234.265625 407.988281 234.746094 C 407.375 235.226562 406.664062 235.464844 405.855469 235.464844 C 405.410156 235.464844 404.964844 235.410156 404.527344 235.292969 C 404.09375 235.179688 403.707031 235.003906 403.382812 234.761719 C 403.058594 234.519531 402.8125 234.230469 402.648438 233.882812 C 402.566406 233.679688 402.527344 233.457031 402.523438 233.214844 C 402.527344 233.042969 402.546875 232.84375 402.597656 232.613281 C 402.722656 232.097656 402.992188 231.710938 403.394531 231.453125 C 403.792969 231.195312 404.199219 231.066406 404.597656 231.066406 C 405.015625 231.066406 405.371094 231.199219 405.664062 231.460938 C 405.867188 231.65625 405.964844 231.910156 405.964844 232.21875 C 405.964844 232.378906 405.941406 232.539062 405.894531 232.699219 C 405.792969 233.101562 405.597656 233.425781 405.316406 233.671875 C 405.039062 233.917969 404.84375 234.050781 404.726562 234.074219 C 404.949219 234.257812 405.40625 234.34375 406.089844 234.332031 C 406.703125 234.332031 407.261719 234.011719 407.757812 233.371094 C 408.253906 232.730469 408.617188 231.960938 408.839844 231.066406 L 410.492188 224.742188 C 410.65625 224.144531 410.785156 223.5625 410.882812 222.988281 C 410.902344 222.804688 410.917969 222.632812 410.917969 222.472656 C 410.917969 222.117188 410.863281 221.785156 410.753906 221.472656 C 410.640625 221.132812 410.457031 220.855469 410.207031 220.644531 C 409.960938 220.433594 409.648438 220.328125 409.285156 220.324219 C 408.808594 220.328125 408.351562 220.449219 407.90625 220.695312 C 407.464844 220.941406 407.058594 221.269531 406.695312 221.683594 C 406.328125 222.097656 406 222.574219 405.714844 223.117188 C 405.4375 223.664062 405.226562 224.238281 405.09375 224.84375 C 404.964844 225.15625 404.746094 225.3125 404.4375 225.328125 L 404.046875 225.328125 C 403.761719 225.328125 403.625 225.183594 403.625 224.898438 L 403.625 224.773438 C 403.804688 224.066406 404.074219 223.375 404.4375 222.703125 C 404.804688 222.035156 405.242188 221.445312 405.75 220.925781 C 406.261719 220.410156 406.832031 219.992188 407.457031 219.660156 C 408.082031 219.339844 408.761719 219.175781 409.496094 219.171875 C 410.207031 219.175781 410.832031 219.328125 411.378906 219.640625 C 411.921875 219.945312 412.367188 220.359375 412.707031 220.875 C 412.777344 221 412.84375 221.136719 412.90625 221.277344 C 412.960938 221.421875 412.980469 221.460938 412.957031 221.390625 C 413.25 220.886719 413.707031 220.394531 414.324219 219.902344 C 414.941406 219.417969 415.644531 219.175781 416.433594 219.171875 C 416.886719 219.175781 417.332031 219.230469 417.777344 219.339844 C 418.21875 219.449219 418.605469 219.621094 418.929688 219.863281 C 419.253906 220.105469 419.492188 220.398438 419.644531 220.753906 C 419.730469 220.960938 419.773438 221.199219 419.773438 221.457031 C 419.773438 221.632812 419.746094 221.824219 419.699219 222.042969 Z M 419.699219 222.042969 "/>
<path style=" stroke:none;fill-rule:evenodd;fill:rgb(0%,0%,0%);fill-opacity:1;" d="M 429.644531 240.0625 C 428.277344 240.023438 426.949219 240.003906 425.660156 240.003906 C 424.367188 240.003906 423.039062 240.023438 421.671875 240.0625 L 421.671875 239.234375 L 422.441406 239.234375 C 422.6875 239.234375 422.914062 239.234375 423.128906 239.226562 C 423.347656 239.21875 423.550781 239.203125 423.746094 239.179688 C 423.9375 239.152344 424.105469 239.125 424.246094 239.101562 C 424.363281 239.082031 424.460938 239.023438 424.539062 238.921875 C 424.617188 238.824219 424.65625 238.714844 424.65625 238.589844 L 424.65625 227.742188 C 424.285156 227.90625 423.828125 228.027344 423.289062 228.109375 C 422.746094 228.195312 422.152344 228.234375 421.507812 228.234375 L 421.507812 227.417969 C 422.398438 227.417969 423.21875 227.324219 423.972656 227.132812 C 424.722656 226.945312 425.378906 226.589844 425.925781 226.070312 L 426.269531 226.070312 C 426.515625 226.070312 426.636719 226.175781 426.636719 226.386719 L 426.636719 238.589844 C 426.636719 238.71875 426.671875 238.832031 426.746094 238.925781 C 426.820312 239.023438 426.929688 239.082031 427.070312 239.101562 C 427.191406 239.125 427.34375 239.152344 427.527344 239.179688 C 427.710938 239.203125 427.921875 239.21875 428.15625 239.226562 C 428.386719 239.234375 428.617188 239.234375 428.839844 239.234375 L 429.644531 239.234375 Z M 429.644531 240.0625 "/>
<path style=" stroke:none;fill-rule:nonzero;fill:rgb(0%,0%,0%);fill-opacity:1;" d="M 308.890625 94.164062 L 308.890625 174.773438 L 306.695312 174.773438 L 306.695312 94.164062 C 306.695312 93.558594 307.1875 93.066406 307.792969 93.066406 C 308.398438 93.066406 308.890625 93.558594 308.890625 94.164062 Z M 307.792969 192.265625 L 314.378906 170.378906 L 308.890625 174.757812 L 306.695312 174.757812 L 301.210938 170.378906 Z M 307.792969 192.265625 "/>
<g clip-path="url(#clip3)" clip-rule="nonzero">
<path style=" stroke:none;fill-rule:evenodd;fill:rgb(0%,0%,0%);fill-opacity:1;" d="M 314.140625 50.910156 C 312.007812 50.84375 309.933594 50.808594 307.914062 50.808594 C 305.898438 50.808594 303.820312 50.84375 301.6875 50.910156 L 301.6875 49.460938 L 302.890625 49.460938 C 303.269531 49.460938 303.632812 49.457031 303.964844 49.445312 C 304.304688 49.433594 304.621094 49.40625 304.921875 49.359375 C 305.226562 49.316406 305.484375 49.269531 305.707031 49.226562 C 305.890625 49.191406 306.046875 49.089844 306.167969 48.914062 C 306.289062 48.742188 306.347656 48.546875 306.347656 48.332031 L 306.347656 29.351562 C 305.769531 29.632812 305.054688 29.84375 304.210938 29.992188 C 303.363281 30.136719 302.4375 30.210938 301.425781 30.210938 L 301.425781 28.777344 C 302.820312 28.777344 304.105469 28.613281 305.28125 28.28125 C 306.457031 27.949219 307.472656 27.328125 308.332031 26.417969 L 308.871094 26.417969 C 309.253906 26.421875 309.445312 26.605469 309.445312 26.976562 L 309.445312 48.332031 C 309.445312 48.558594 309.503906 48.753906 309.617188 48.921875 C 309.734375 49.089844 309.902344 49.191406 310.121094 49.226562 C 310.308594 49.269531 310.546875 49.316406 310.835938 49.359375 C 311.125 49.40625 311.453125 49.433594 311.820312 49.445312 C 312.183594 49.457031 312.539062 49.460938 312.886719 49.460938 L 314.140625 49.460938 Z M 314.140625 50.910156 "/>
</g>
<path style=" stroke:none;fill-rule:evenodd;fill:rgb(0%,0%,0%);fill-opacity:1;" d="M 587.492188 164.730469 C 587.492188 165.929688 586.519531 166.898438 585.316406 166.898438 C 584.117188 166.898438 583.144531 165.929688 583.144531 164.730469 C 583.144531 163.535156 584.117188 162.5625 585.316406 162.5625 C 586.519531 162.5625 587.492188 163.535156 587.492188 164.730469 Z M 587.492188 164.730469 "/>
<path style=" stroke:none;fill-rule:evenodd;fill:rgb(0%,0%,0%);fill-opacity:1;" d="M 576.375 164.730469 C 576.375 165.929688 575.402344 166.898438 574.203125 166.898438 C 573.003906 166.898438 572.03125 165.929688 572.03125 164.730469 C 572.03125 163.535156 573.003906 162.5625 574.203125 162.5625 C 575.402344 162.5625 576.375 163.535156 576.375 164.730469 Z M 576.375 164.730469 "/>
<path style=" stroke:none;fill-rule:evenodd;fill:rgb(0%,0%,0%);fill-opacity:1;" d="M 598.605469 164.730469 C 598.605469 165.929688 597.632812 166.898438 596.433594 166.898438 C 595.230469 166.898438 594.257812 165.929688 594.257812 164.730469 C 594.257812 163.535156 595.230469 162.5625 596.433594 162.5625 C 597.632812 162.5625 598.605469 163.535156 598.605469 164.730469 Z M 598.605469 164.730469 "/>
<path style=" stroke:none;fill-rule:evenodd;fill:rgb(0%,0%,0%);fill-opacity:1;" d="M 798.695312 192.265625 C 798.695312 195.441406 796.117188 198.011719 792.933594 198.011719 C 789.75 198.011719 787.171875 195.441406 787.171875 192.265625 C 787.171875 189.09375 789.75 186.519531 792.933594 186.519531 C 796.117188 186.519531 798.695312 189.09375 798.695312 192.265625 Z M 798.695312 192.265625 "/>
<g clip-path="url(#clip4)" clip-rule="nonzero">
<path style=" stroke:none;fill-rule:evenodd;fill:rgb(0%,0%,0%);fill-opacity:1;" d="M 795.089844 222.042969 C 794.960938 222.558594 794.699219 222.945312 794.300781 223.203125 C 793.90625 223.460938 793.507812 223.589844 793.105469 223.589844 C 792.691406 223.589844 792.347656 223.457031 792.074219 223.195312 C 791.875 223 791.769531 222.75 791.757812 222.4375 C 791.757812 222.3125 791.78125 222.152344 791.828125 221.957031 C 791.957031 221.523438 792.160156 221.191406 792.429688 220.96875 C 792.703125 220.746094 792.890625 220.617188 793 220.582031 C 792.773438 220.410156 792.3125 220.324219 791.613281 220.324219 C 791 220.324219 790.449219 220.644531 789.964844 221.277344 C 789.480469 221.914062 789.117188 222.679688 788.882812 223.574219 L 787.25 229.863281 C 787.082031 230.496094 786.957031 231.097656 786.875 231.667969 C 786.828125 231.863281 786.804688 232.035156 786.804688 232.183594 C 786.804688 232.539062 786.863281 232.875 786.980469 233.195312 C 787.101562 233.542969 787.277344 233.816406 787.515625 234.023438 C 787.753906 234.230469 788.054688 234.332031 788.417969 234.332031 C 788.894531 234.332031 789.347656 234.210938 789.785156 233.960938 C 790.226562 233.714844 790.628906 233.386719 790.992188 232.964844 C 791.359375 232.546875 791.683594 232.0625 791.96875 231.503906 C 792.253906 230.949219 792.476562 230.378906 792.644531 229.792969 C 792.714844 229.496094 792.914062 229.347656 793.246094 229.347656 L 793.652344 229.347656 C 793.960938 229.347656 794.117188 229.460938 794.117188 229.691406 C 794.117188 229.761719 794.097656 229.824219 794.0625 229.878906 C 793.898438 230.566406 793.628906 231.246094 793.257812 231.917969 C 792.882812 232.585938 792.449219 233.179688 791.953125 233.695312 C 791.453125 234.210938 790.890625 234.636719 790.257812 234.96875 C 789.625 235.300781 788.945312 235.464844 788.226562 235.464844 C 787.492188 235.464844 786.859375 235.308594 786.328125 234.992188 C 785.792969 234.679688 785.363281 234.269531 785.03125 233.765625 C 784.925781 233.640625 784.839844 233.511719 784.78125 233.378906 C 784.722656 233.246094 784.703125 233.226562 784.726562 233.316406 C 784.445312 233.789062 783.996094 234.261719 783.378906 234.746094 C 782.765625 235.226562 782.054688 235.464844 781.25 235.464844 C 780.800781 235.464844 780.359375 235.410156 779.917969 235.292969 C 779.480469 235.179688 779.101562 235.003906 778.773438 234.761719 C 778.449219 234.519531 778.203125 234.230469 778.039062 233.882812 C 777.957031 233.679688 777.914062 233.457031 777.914062 233.214844 C 777.914062 233.042969 777.9375 232.84375 777.984375 232.613281 C 778.117188 232.097656 778.382812 231.710938 778.785156 231.453125 C 779.1875 231.195312 779.589844 231.066406 779.992188 231.066406 C 780.40625 231.066406 780.761719 231.199219 781.054688 231.460938 C 781.257812 231.65625 781.355469 231.910156 781.355469 232.21875 C 781.355469 232.378906 781.332031 232.539062 781.285156 232.699219 C 781.179688 233.101562 780.988281 233.425781 780.710938 233.671875 C 780.433594 233.917969 780.234375 234.050781 780.113281 234.074219 C 780.339844 234.257812 780.792969 234.34375 781.480469 234.332031 C 782.097656 234.332031 782.652344 234.011719 783.148438 233.371094 C 783.648438 232.726562 784.007812 231.960938 784.230469 231.066406 L 785.882812 224.742188 C 786.046875 224.144531 786.179688 223.5625 786.273438 222.988281 C 786.296875 222.804688 786.308594 222.632812 786.308594 222.472656 C 786.308594 222.117188 786.253906 221.785156 786.148438 221.476562 C 786.03125 221.132812 785.847656 220.855469 785.597656 220.644531 C 785.351562 220.429688 785.042969 220.324219 784.675781 220.324219 C 784.203125 220.324219 783.742188 220.449219 783.300781 220.695312 C 782.855469 220.941406 782.449219 221.269531 782.085938 221.683594 C 781.71875 222.09375 781.394531 222.574219 781.109375 223.117188 C 780.824219 223.664062 780.617188 224.238281 780.488281 224.84375 C 780.359375 225.15625 780.140625 225.316406 779.832031 225.324219 L 779.441406 225.324219 C 779.15625 225.328125 779.015625 225.183594 779.015625 224.894531 L 779.015625 224.777344 C 779.191406 224.066406 779.464844 223.375 779.832031 222.707031 C 780.195312 222.035156 780.636719 221.441406 781.144531 220.925781 C 781.652344 220.410156 782.222656 219.992188 782.847656 219.664062 C 783.476562 219.335938 784.15625 219.171875 784.886719 219.171875 C 785.597656 219.171875 786.226562 219.328125 786.769531 219.636719 C 787.3125 219.949219 787.757812 220.359375 788.101562 220.875 C 788.171875 221 788.238281 221.136719 788.296875 221.277344 C 788.355469 221.421875 788.371094 221.460938 788.347656 221.390625 C 788.644531 220.886719 789.101562 220.390625 789.714844 219.90625 C 790.332031 219.417969 791.035156 219.171875 791.828125 219.171875 C 792.277344 219.171875 792.722656 219.230469 793.167969 219.335938 C 793.609375 219.445312 793.996094 219.621094 794.320312 219.863281 C 794.644531 220.101562 794.886719 220.398438 795.039062 220.753906 C 795.121094 220.960938 795.164062 221.195312 795.164062 221.457031 C 795.164062 221.632812 795.140625 221.824219 795.089844 222.042969 Z M 795.089844 222.042969 "/>
</g>
<path style=" stroke:none;fill-rule:evenodd;fill:rgb(0%,0%,0%);fill-opacity:1;" d="M 808.164062 237.15625 C 808.0625 237.507812 807.925781 237.871094 807.753906 238.238281 C 807.582031 238.609375 807.367188 238.945312 807.109375 239.246094 C 806.847656 239.546875 806.550781 239.796875 806.21875 240 C 805.882812 240.203125 805.503906 240.304688 805.070312 240.304688 C 804.699219 240.304688 804.378906 240.234375 804.109375 240.089844 C 803.839844 239.949219 803.636719 239.765625 803.503906 239.535156 C 803.367188 239.300781 803.292969 239.03125 803.269531 238.722656 L 803.269531 238.648438 C 803.269531 238.371094 803.335938 238.089844 803.46875 237.800781 C 803.714844 237.242188 803.945312 236.683594 804.160156 236.125 C 804.375 235.570312 804.566406 235.011719 804.738281 234.453125 C 804.839844 234.074219 804.914062 233.707031 804.960938 233.355469 C 804.976562 233.25 804.980469 233.144531 804.980469 233.027344 C 804.980469 232.808594 804.953125 232.609375 804.894531 232.429688 C 804.761719 232.027344 804.476562 231.824219 804.046875 231.824219 C 803.292969 231.824219 802.640625 232.054688 802.101562 232.511719 C 801.558594 232.972656 801.082031 233.585938 800.664062 234.355469 L 799.140625 239.589844 C 799.074219 239.828125 798.9375 240.007812 798.734375 240.125 C 798.53125 240.242188 798.324219 240.304688 798.117188 240.304688 C 797.894531 240.304688 797.722656 240.238281 797.605469 240.109375 C 797.507812 240.027344 797.460938 239.910156 797.460938 239.765625 C 797.460938 239.707031 797.46875 239.636719 797.480469 239.550781 L 799.195312 233.59375 C 799.316406 233.179688 799.375 232.820312 799.375 232.515625 L 799.375 232.285156 C 799.335938 231.976562 799.164062 231.824219 798.851562 231.824219 C 798.523438 231.824219 798.253906 232.058594 798.03125 232.527344 C 797.816406 232.996094 797.601562 233.605469 797.394531 234.355469 C 797.3125 234.527344 797.175781 234.617188 796.980469 234.625 L 796.726562 234.625 C 796.546875 234.625 796.457031 234.546875 796.457031 234.382812 L 796.457031 234.316406 C 796.546875 234.015625 796.648438 233.6875 796.757812 233.332031 C 796.871094 232.976562 797.019531 232.636719 797.203125 232.320312 C 797.390625 232.003906 797.625 231.734375 797.90625 231.511719 C 798.1875 231.289062 798.539062 231.179688 798.960938 231.179688 C 799.570312 231.179688 800.050781 231.339844 800.398438 231.660156 C 800.746094 231.980469 800.929688 232.296875 800.941406 232.601562 C 801.253906 232.246094 801.6875 231.917969 802.246094 231.621094 C 802.800781 231.328125 803.445312 231.179688 804.179688 231.179688 C 804.617188 231.179688 805.027344 231.253906 805.40625 231.394531 C 805.785156 231.539062 806.078125 231.773438 806.285156 232.09375 C 806.507812 232.421875 806.617188 232.789062 806.617188 233.199219 L 806.617188 233.25 C 806.601562 233.660156 806.535156 234.074219 806.417969 234.488281 C 806.246094 235.074219 806.050781 235.648438 805.828125 236.214844 C 805.605469 236.777344 805.371094 237.347656 805.128906 237.925781 C 804.90625 238.445312 804.792969 238.882812 804.792969 239.234375 C 804.792969 239.523438 804.929688 239.667969 805.207031 239.667969 C 805.457031 239.667969 805.6875 239.601562 805.894531 239.464844 C 806.101562 239.332031 806.289062 239.152344 806.457031 238.921875 C 806.625 238.695312 806.773438 238.425781 806.90625 238.113281 C 807.042969 237.804688 807.152344 237.472656 807.242188 237.117188 C 807.332031 236.957031 807.457031 236.878906 807.621094 236.875 L 807.898438 236.875 C 808.078125 236.878906 808.164062 236.949219 808.164062 237.089844 Z M 808.164062 237.15625 "/>
<path style=" stroke:none;fill-rule:evenodd;fill:rgb(0%,0%,0%);fill-opacity:1;" d="M 930.355469 192.265625 C 930.355469 195.441406 927.777344 198.011719 924.597656 198.011719 C 921.414062 198.011719 918.835938 195.441406 918.835938 192.265625 C 918.835938 189.09375 921.414062 186.519531 924.597656 186.519531 C 927.777344 186.519531 930.355469 189.09375 930.355469 192.265625 Z M 930.355469 192.265625 "/>
<g clip-path="url(#clip5)" clip-rule="nonzero">
<path style=" stroke:none;fill-rule:evenodd;fill:rgb(0%,0%,0%);fill-opacity:1;" d="M 878.734375 222.042969 C 878.605469 222.558594 878.34375 222.945312 877.945312 223.203125 C 877.550781 223.460938 877.152344 223.589844 876.75 223.589844 C 876.335938 223.589844 875.992188 223.457031 875.71875 223.195312 C 875.519531 223.003906 875.410156 222.75 875.398438 222.4375 C 875.398438 222.316406 875.421875 222.152344 875.46875 221.957031 C 875.601562 221.523438 875.800781 221.195312 876.074219 220.972656 C 876.34375 220.746094 876.535156 220.617188 876.640625 220.582031 C 876.417969 220.410156 875.957031 220.328125 875.257812 220.324219 C 874.640625 220.328125 874.089844 220.644531 873.605469 221.277344 C 873.121094 221.917969 872.761719 222.679688 872.523438 223.570312 L 870.890625 229.863281 C 870.726562 230.496094 870.601562 231.097656 870.519531 231.667969 C 870.472656 231.863281 870.449219 232.035156 870.449219 232.183594 C 870.449219 232.539062 870.507812 232.875 870.625 233.195312 C 870.742188 233.542969 870.921875 233.816406 871.160156 234.023438 C 871.394531 234.230469 871.695312 234.332031 872.0625 234.332031 C 872.535156 234.332031 872.992188 234.210938 873.429688 233.964844 C 873.867188 233.71875 874.269531 233.386719 874.636719 232.964844 C 875.003906 232.546875 875.328125 232.0625 875.613281 231.503906 C 875.894531 230.949219 876.121094 230.378906 876.285156 229.792969 C 876.355469 229.496094 876.558594 229.347656 876.890625 229.347656 L 877.296875 229.347656 C 877.605469 229.347656 877.757812 229.464844 877.757812 229.691406 C 877.757812 229.761719 877.742188 229.824219 877.707031 229.878906 C 877.539062 230.570312 877.273438 231.246094 876.898438 231.917969 C 876.527344 232.589844 876.09375 233.179688 875.59375 233.695312 C 875.097656 234.210938 874.535156 234.636719 873.898438 234.96875 C 873.265625 235.300781 872.589844 235.464844 871.867188 235.464844 C 871.132812 235.464844 870.5 235.308594 869.96875 234.992188 C 869.4375 234.679688 869.003906 234.269531 868.671875 233.765625 C 868.566406 233.640625 868.484375 233.511719 868.425781 233.378906 C 868.367188 233.246094 868.347656 233.226562 868.371094 233.316406 C 868.089844 233.789062 867.640625 234.265625 867.023438 234.746094 C 866.410156 235.226562 865.699219 235.464844 864.894531 235.464844 C 864.445312 235.464844 864 235.410156 863.5625 235.292969 C 863.125 235.179688 862.742188 235.003906 862.417969 234.761719 C 862.09375 234.519531 861.847656 234.230469 861.679688 233.882812 C 861.597656 233.679688 861.558594 233.457031 861.558594 233.214844 C 861.558594 233.042969 861.582031 232.84375 861.628906 232.613281 C 861.757812 232.097656 862.023438 231.710938 862.425781 231.453125 C 862.832031 231.195312 863.230469 231.066406 863.632812 231.066406 C 864.046875 231.066406 864.402344 231.199219 864.699219 231.460938 C 864.898438 231.65625 865 231.910156 865 232.21875 C 865 232.378906 864.976562 232.539062 864.929688 232.699219 C 864.824219 233.101562 864.628906 233.425781 864.351562 233.671875 C 864.074219 233.917969 863.875 234.050781 863.757812 234.074219 C 863.984375 234.257812 864.4375 234.34375 865.125 234.332031 C 865.738281 234.332031 866.296875 234.011719 866.792969 233.371094 C 867.289062 232.730469 867.648438 231.960938 867.875 231.066406 L 869.523438 224.742188 C 869.691406 224.144531 869.820312 223.5625 869.914062 222.988281 C 869.941406 222.804688 869.953125 222.632812 869.953125 222.472656 C 869.953125 222.117188 869.898438 221.785156 869.789062 221.472656 C 869.671875 221.132812 869.492188 220.855469 869.242188 220.644531 C 868.992188 220.433594 868.683594 220.328125 868.320312 220.324219 C 867.84375 220.328125 867.386719 220.449219 866.941406 220.695312 C 866.5 220.941406 866.09375 221.269531 865.726562 221.683594 C 865.363281 222.097656 865.035156 222.574219 864.753906 223.117188 C 864.46875 223.664062 864.261719 224.238281 864.128906 224.84375 C 864 225.15625 863.78125 225.3125 863.472656 225.328125 L 863.082031 225.328125 C 862.800781 225.328125 862.65625 225.183594 862.65625 224.898438 L 862.65625 224.773438 C 862.835938 224.066406 863.109375 223.375 863.472656 222.703125 C 863.839844 222.035156 864.277344 221.445312 864.785156 220.925781 C 865.296875 220.410156 865.863281 219.992188 866.492188 219.660156 C 867.117188 219.339844 867.796875 219.175781 868.53125 219.171875 C 869.242188 219.175781 869.867188 219.328125 870.414062 219.640625 C 870.957031 219.945312 871.402344 220.359375 871.742188 220.875 C 871.8125 221 871.878906 221.136719 871.9375 221.277344 C 872 221.421875 872.015625 221.460938 871.992188 221.390625 C 872.289062 220.886719 872.742188 220.394531 873.359375 219.902344 C 873.972656 219.417969 874.675781 219.175781 875.46875 219.171875 C 875.921875 219.175781 876.367188 219.230469 876.808594 219.339844 C 877.253906 219.449219 877.640625 219.621094 877.964844 219.863281 C 878.289062 220.105469 878.527344 220.398438 878.683594 220.753906 C 878.765625 220.960938 878.804688 221.199219 878.804688 221.457031 C 878.804688 221.632812 878.78125 221.824219 878.734375 222.042969 Z M 878.734375 222.042969 "/>
</g>
<path style=" stroke:none;fill-rule:evenodd;fill:rgb(0%,0%,0%);fill-opacity:1;" d="M 891.808594 237.15625 C 891.703125 237.511719 891.566406 237.871094 891.398438 238.238281 C 891.226562 238.609375 891.011719 238.945312 890.753906 239.246094 C 890.492188 239.546875 890.195312 239.796875 889.863281 240 C 889.527344 240.203125 889.144531 240.304688 888.714844 240.304688 C 888.34375 240.304688 888.023438 240.234375 887.753906 240.089844 C 887.480469 239.949219 887.28125 239.765625 887.144531 239.535156 C 887.011719 239.304688 886.933594 239.035156 886.914062 238.726562 L 886.914062 238.648438 C 886.914062 238.371094 886.980469 238.089844 887.113281 237.800781 C 887.355469 237.242188 887.585938 236.683594 887.800781 236.128906 C 888.019531 235.570312 888.210938 235.011719 888.382812 234.453125 C 888.484375 234.074219 888.558594 233.707031 888.605469 233.355469 C 888.617188 233.253906 888.625 233.144531 888.625 233.027344 C 888.625 232.808594 888.597656 232.609375 888.535156 232.429688 C 888.402344 232.027344 888.121094 231.824219 887.691406 231.824219 C 886.933594 231.824219 886.285156 232.054688 885.742188 232.511719 C 885.203125 232.972656 884.722656 233.585938 884.308594 234.355469 L 882.785156 239.589844 C 882.71875 239.828125 882.582031 240.007812 882.378906 240.125 C 882.171875 240.246094 881.96875 240.304688 881.761719 240.304688 C 881.539062 240.304688 881.367188 240.238281 881.246094 240.109375 C 881.152344 240.027344 881.101562 239.910156 881.101562 239.765625 C 881.101562 239.707031 881.109375 239.636719 881.125 239.550781 L 882.839844 233.59375 C 882.957031 233.179688 883.015625 232.820312 883.015625 232.515625 L 883.015625 232.285156 C 882.980469 231.980469 882.804688 231.824219 882.496094 231.824219 C 882.167969 231.824219 881.894531 232.058594 881.675781 232.527344 C 881.457031 232.996094 881.246094 233.605469 881.035156 234.355469 C 880.957031 234.527344 880.820312 234.617188 880.625 234.625 L 880.367188 234.625 C 880.191406 234.625 880.101562 234.546875 880.101562 234.382812 L 880.101562 234.316406 C 880.191406 234.015625 880.292969 233.6875 880.402344 233.332031 C 880.511719 232.976562 880.664062 232.636719 880.847656 232.320312 C 881.03125 232.003906 881.265625 231.734375 881.546875 231.511719 C 881.832031 231.289062 882.183594 231.179688 882.605469 231.179688 C 883.214844 231.179688 883.691406 231.339844 884.042969 231.660156 C 884.390625 231.984375 884.570312 232.296875 884.585938 232.605469 C 884.898438 232.246094 885.332031 231.917969 885.886719 231.621094 C 886.445312 231.328125 887.089844 231.179688 887.824219 231.179688 C 888.261719 231.179688 888.671875 231.253906 889.050781 231.394531 C 889.425781 231.539062 889.71875 231.773438 889.929688 232.09375 C 890.152344 232.421875 890.261719 232.789062 890.261719 233.199219 L 890.261719 233.25 C 890.246094 233.660156 890.179688 234.074219 890.0625 234.488281 C 889.890625 235.074219 889.695312 235.648438 889.472656 236.214844 C 889.25 236.777344 889.015625 237.347656 888.769531 237.925781 C 888.546875 238.445312 888.4375 238.882812 888.4375 239.234375 C 888.4375 239.523438 888.574219 239.667969 888.847656 239.667969 C 889.101562 239.667969 889.332031 239.601562 889.539062 239.464844 C 889.746094 239.332031 889.933594 239.152344 890.101562 238.921875 C 890.265625 238.695312 890.417969 238.425781 890.550781 238.113281 C 890.683594 237.804688 890.796875 237.472656 890.886719 237.117188 C 890.972656 236.957031 891.101562 236.878906 891.261719 236.875 L 891.542969 236.875 C 891.71875 236.878906 891.808594 236.949219 891.808594 237.089844 Z M 891.808594 237.15625 "/>
<path style="fill:none;stroke-width:0.3216;stroke-linecap:round;stroke-linejoin:miter;stroke:rgb(0%,0%,0%);stroke-opacity:1;stroke-miterlimit:10;" d="M 9.411678 10.207905 L 15.040389 10.207905 " transform="matrix(4.388772,0,-0.0000047625,-4.377805,861.569338,269.188212)"/>
<path style="fill:none;stroke-width:0.3216;stroke-linecap:round;stroke-linejoin:miter;stroke:rgb(0%,0%,0%);stroke-opacity:1;stroke-miterlimit:10;" d="M 12.226037 13.022172 L 12.22603 7.39453 " transform="matrix(4.388772,0,-0.0000047625,-4.377805,861.569338,269.188212)"/>
<path style=" stroke:none;fill-rule:evenodd;fill:rgb(0%,0%,0%);fill-opacity:1;" d="M 950.363281 235.449219 L 950.363281 233.402344 C 949.984375 233.875 949.378906 234.332031 948.546875 234.769531 C 947.710938 235.210938 946.78125 235.429688 945.75 235.429688 C 944.660156 235.429688 943.636719 235.21875 942.664062 234.796875 C 941.695312 234.375 940.851562 233.789062 940.140625 233.042969 C 939.375 232.242188 938.792969 231.355469 938.394531 230.378906 C 938 229.40625 937.800781 228.378906 937.800781 227.300781 C 937.800781 226.226562 938.007812 225.191406 938.421875 224.191406 C 938.839844 223.195312 939.4375 222.316406 940.234375 221.542969 C 941.023438 220.777344 941.933594 220.1875 942.945312 219.765625 C 943.964844 219.351562 945.03125 219.140625 946.140625 219.136719 C 947.101562 219.140625 947.976562 219.34375 948.761719 219.75 C 949.546875 220.15625 950.105469 220.574219 950.4375 220.992188 L 950.4375 213.84375 C 950.4375 213.550781 950.421875 213.261719 950.394531 212.976562 C 950.363281 212.695312 950.25 212.484375 950.046875 212.332031 C 949.84375 212.199219 949.523438 212.121094 949.085938 212.09375 C 948.652344 212.070312 948.171875 212.058594 947.652344 212.058594 L 947.652344 210.664062 L 953.242188 210.253906 L 953.242188 231.839844 C 953.242188 232.136719 953.253906 232.425781 953.285156 232.699219 C 953.3125 232.972656 953.429688 233.179688 953.640625 233.316406 C 953.847656 233.457031 954.167969 233.539062 954.605469 233.566406 C 955.046875 233.597656 955.527344 233.609375 956.058594 233.609375 L 956.058594 235.019531 Z M 950.363281 222.9375 C 949.976562 222.171875 949.417969 221.535156 948.695312 221.035156 C 947.976562 220.542969 947.144531 220.292969 946.210938 220.289062 C 945.46875 220.292969 944.773438 220.46875 944.117188 220.8125 C 943.46875 221.164062 942.90625 221.648438 942.433594 222.265625 C 941.914062 222.96875 941.582031 223.75 941.433594 224.613281 C 941.28125 225.480469 941.207031 226.375 941.207031 227.300781 C 941.207031 228.230469 941.273438 229.121094 941.40625 229.96875 C 941.53125 230.816406 941.839844 231.613281 942.328125 232.355469 C 942.730469 232.941406 943.238281 233.410156 943.863281 233.765625 C 944.480469 234.121094 945.136719 234.296875 945.820312 234.296875 C 946.851562 234.296875 947.761719 234.015625 948.554688 233.449219 C 949.347656 232.878906 949.949219 232.15625 950.363281 231.273438 Z M 950.363281 222.9375 "/>
<path style=" stroke:none;fill-rule:evenodd;fill:rgb(0%,0%,0%);fill-opacity:1;" d="M 974.546875 222.042969 C 974.417969 222.558594 974.15625 222.945312 973.757812 223.203125 C 973.359375 223.460938 972.960938 223.589844 972.5625 223.589844 C 972.144531 223.589844 971.800781 223.457031 971.53125 223.195312 C 971.332031 223.003906 971.222656 222.75 971.210938 222.4375 C 971.210938 222.316406 971.234375 222.152344 971.28125 221.957031 C 971.410156 221.523438 971.613281 221.195312 971.886719 220.972656 C 972.15625 220.746094 972.347656 220.617188 972.453125 220.582031 C 972.226562 220.410156 971.765625 220.328125 971.070312 220.324219 C 970.453125 220.328125 969.902344 220.644531 969.417969 221.277344 C 968.9375 221.917969 968.570312 222.679688 968.335938 223.570312 L 966.703125 229.863281 C 966.535156 230.496094 966.414062 231.097656 966.328125 231.667969 C 966.285156 231.863281 966.257812 232.035156 966.257812 232.183594 C 966.257812 232.539062 966.320312 232.875 966.4375 233.195312 C 966.558594 233.542969 966.734375 233.816406 966.96875 234.023438 C 967.207031 234.230469 967.511719 234.332031 967.875 234.332031 C 968.347656 234.332031 968.804688 234.210938 969.242188 233.964844 C 969.679688 233.71875 970.082031 233.386719 970.449219 232.964844 C 970.816406 232.546875 971.140625 232.0625 971.425781 231.503906 C 971.710938 230.949219 971.933594 230.378906 972.097656 229.792969 C 972.171875 229.496094 972.371094 229.347656 972.703125 229.347656 L 973.109375 229.347656 C 973.417969 229.347656 973.570312 229.464844 973.570312 229.691406 C 973.570312 229.761719 973.554688 229.824219 973.519531 229.878906 C 973.351562 230.570312 973.082031 231.246094 972.710938 231.917969 C 972.335938 232.589844 971.902344 233.179688 971.40625 233.695312 C 970.910156 234.210938 970.34375 234.636719 969.714844 234.96875 C 969.078125 235.300781 968.402344 235.464844 967.679688 235.464844 C 966.949219 235.464844 966.3125 235.308594 965.78125 234.992188 C 965.25 234.679688 964.816406 234.269531 964.484375 233.765625 C 964.378906 233.640625 964.296875 233.511719 964.234375 233.378906 C 964.179688 233.246094 964.160156 233.226562 964.183594 233.316406 C 963.902344 233.789062 963.449219 234.265625 962.835938 234.746094 C 962.222656 235.226562 961.511719 235.464844 960.707031 235.464844 C 960.253906 235.464844 959.8125 235.410156 959.375 235.292969 C 958.9375 235.179688 958.558594 235.003906 958.226562 234.761719 C 957.902344 234.519531 957.65625 234.230469 957.496094 233.882812 C 957.410156 233.679688 957.371094 233.457031 957.367188 233.214844 C 957.371094 233.042969 957.394531 232.84375 957.441406 232.613281 C 957.570312 232.097656 957.835938 231.710938 958.242188 231.453125 C 958.640625 231.195312 959.042969 231.066406 959.441406 231.066406 C 959.859375 231.066406 960.214844 231.199219 960.511719 231.460938 C 960.710938 231.65625 960.8125 231.910156 960.8125 232.21875 C 960.8125 232.378906 960.785156 232.539062 960.742188 232.699219 C 960.636719 233.101562 960.445312 233.425781 960.164062 233.671875 C 959.886719 233.917969 959.6875 234.050781 959.570312 234.074219 C 959.792969 234.257812 960.25 234.34375 960.933594 234.332031 C 961.550781 234.332031 962.105469 234.011719 962.601562 233.371094 C 963.097656 232.730469 963.464844 231.960938 963.6875 231.066406 L 965.335938 224.742188 C 965.503906 224.144531 965.632812 223.5625 965.726562 222.988281 C 965.75 222.804688 965.761719 222.632812 965.761719 222.472656 C 965.761719 222.117188 965.710938 221.785156 965.601562 221.472656 C 965.488281 221.132812 965.300781 220.855469 965.050781 220.644531 C 964.804688 220.433594 964.496094 220.328125 964.128906 220.324219 C 963.65625 220.328125 963.199219 220.449219 962.753906 220.695312 C 962.308594 220.941406 961.90625 221.269531 961.542969 221.683594 C 961.171875 222.097656 960.847656 222.574219 960.5625 223.117188 C 960.28125 223.664062 960.074219 224.238281 959.945312 224.84375 C 959.8125 225.15625 959.59375 225.3125 959.285156 225.328125 L 958.894531 225.328125 C 958.613281 225.328125 958.46875 225.183594 958.46875 224.898438 L 958.46875 224.773438 C 958.648438 224.066406 958.921875 223.375 959.285156 222.703125 C 959.652344 222.035156 960.089844 221.445312 960.597656 220.925781 C 961.105469 220.410156 961.675781 219.992188 962.304688 219.660156 C 962.929688 219.339844 963.613281 219.175781 964.339844 219.171875 C 965.050781 219.175781 965.679688 219.328125 966.222656 219.640625 C 966.769531 219.945312 967.210938 220.359375 967.554688 220.875 C 967.625 221 967.691406 221.136719 967.75 221.277344 C 967.808594 221.421875 967.824219 221.460938 967.804688 221.390625 C 968.097656 220.886719 968.554688 220.394531 969.167969 219.902344 C 969.789062 219.417969 970.488281 219.175781 971.28125 219.171875 C 971.730469 219.175781 972.179688 219.230469 972.621094 219.339844 C 973.066406 219.449219 973.453125 219.621094 973.777344 219.863281 C 974.101562 220.105469 974.34375 220.398438 974.492188 220.753906 C 974.574219 220.960938 974.621094 221.199219 974.621094 221.457031 C 974.621094 221.632812 974.59375 221.824219 974.546875 222.042969 Z M 974.546875 222.042969 "/>
<path style=" stroke:none;fill-rule:evenodd;fill:rgb(0%,0%,0%);fill-opacity:1;" d="M 987.847656 237.15625 C 987.746094 237.511719 987.605469 237.871094 987.433594 238.238281 C 987.269531 238.609375 987.046875 238.945312 986.789062 239.246094 C 986.53125 239.546875 986.238281 239.796875 985.902344 240 C 985.570312 240.203125 985.183594 240.304688 984.753906 240.304688 C 984.382812 240.304688 984.0625 240.234375 983.792969 240.089844 C 983.519531 239.949219 983.316406 239.765625 983.1875 239.535156 C 983.050781 239.304688 982.976562 239.035156 982.953125 238.726562 L 982.953125 238.648438 C 982.953125 238.371094 983.019531 238.089844 983.152344 237.800781 C 983.398438 237.242188 983.625 236.683594 983.839844 236.128906 C 984.054688 235.570312 984.25 235.011719 984.417969 234.453125 C 984.523438 234.074219 984.601562 233.707031 984.644531 233.355469 C 984.65625 233.253906 984.664062 233.144531 984.664062 233.027344 C 984.664062 232.808594 984.636719 232.609375 984.578125 232.429688 C 984.441406 232.027344 984.160156 231.824219 983.730469 231.824219 C 982.976562 231.824219 982.328125 232.054688 981.78125 232.511719 C 981.242188 232.972656 980.765625 233.585938 980.347656 234.355469 L 978.824219 239.589844 C 978.757812 239.828125 978.621094 240.007812 978.414062 240.125 C 978.214844 240.246094 978.007812 240.304688 977.796875 240.304688 C 977.578125 240.304688 977.40625 240.238281 977.289062 240.109375 C 977.191406 240.027344 977.144531 239.910156 977.144531 239.765625 C 977.144531 239.707031 977.152344 239.636719 977.164062 239.550781 L 978.875 233.59375 C 978.996094 233.179688 979.058594 232.820312 979.058594 232.515625 L 979.058594 232.285156 C 979.023438 231.980469 978.847656 231.824219 978.535156 231.824219 C 978.210938 231.824219 977.933594 232.058594 977.71875 232.527344 C 977.5 232.996094 977.285156 233.605469 977.078125 234.355469 C 976.992188 234.527344 976.859375 234.617188 976.664062 234.625 L 976.410156 234.625 C 976.230469 234.625 976.144531 234.546875 976.144531 234.382812 L 976.144531 234.316406 C 976.230469 234.015625 976.332031 233.6875 976.441406 233.332031 C 976.554688 232.976562 976.699219 232.636719 976.886719 232.320312 C 977.074219 232.003906 977.304688 231.734375 977.585938 231.511719 C 977.871094 231.289062 978.222656 231.179688 978.644531 231.179688 C 979.253906 231.179688 979.734375 231.339844 980.078125 231.660156 C 980.429688 231.984375 980.609375 232.296875 980.628906 232.605469 C 980.941406 232.246094 981.371094 231.917969 981.925781 231.621094 C 982.484375 231.328125 983.128906 231.179688 983.863281 231.179688 C 984.300781 231.179688 984.710938 231.253906 985.085938 231.394531 C 985.46875 231.539062 985.757812 231.773438 985.96875 232.09375 C 986.1875 232.421875 986.300781 232.789062 986.300781 233.199219 L 986.300781 233.25 C 986.285156 233.660156 986.21875 234.074219 986.101562 234.488281 C 985.929688 235.074219 985.738281 235.648438 985.511719 236.214844 C 985.289062 236.777344 985.054688 237.347656 984.808594 237.925781 C 984.585938 238.445312 984.476562 238.882812 984.476562 239.234375 C 984.476562 239.523438 984.613281 239.667969 984.890625 239.667969 C 985.140625 239.667969 985.371094 239.601562 985.578125 239.464844 C 985.785156 239.332031 985.972656 239.152344 986.140625 238.921875 C 986.308594 238.695312 986.457031 238.425781 986.59375 238.113281 C 986.722656 237.804688 986.832031 237.472656 986.925781 237.117188 C 987.011719 236.957031 987.140625 236.878906 987.304688 236.875 L 987.578125 236.875 C 987.757812 236.878906 987.847656 236.949219 987.847656 237.089844 Z M 987.847656 237.15625 "/>
<path style=" stroke:none;fill-rule:nonzero;fill:rgb(0%,0%,0%);fill-opacity:1;" d="M 863.734375 94.164062 L 863.734375 174.773438 L 861.539062 174.773438 L 861.539062 94.164062 C 861.539062 93.558594 862.03125 93.066406 862.636719 93.066406 C 863.242188 93.066406 863.734375 93.558594 863.734375 94.164062 Z M 862.636719 192.265625 L 869.222656 170.378906 L 863.734375 174.757812 L 861.539062 174.757812 L 856.054688 170.378906 Z M 862.636719 192.265625 "/>
<g clip-path="url(#clip6)" clip-rule="nonzero">
<path style=" stroke:none;fill-rule:evenodd;fill:rgb(0%,0%,0%);fill-opacity:1;" d="M 868.984375 50.910156 C 866.851562 50.84375 864.777344 50.808594 862.757812 50.808594 C 860.742188 50.808594 858.664062 50.84375 856.53125 50.910156 L 856.53125 49.460938 L 857.734375 49.460938 C 858.113281 49.460938 858.476562 49.457031 858.808594 49.445312 C 859.148438 49.433594 859.464844 49.40625 859.765625 49.359375 C 860.070312 49.316406 860.328125 49.269531 860.550781 49.226562 C 860.734375 49.191406 860.890625 49.089844 861.011719 48.914062 C 861.132812 48.742188 861.191406 48.546875 861.191406 48.332031 L 861.191406 29.351562 C 860.613281 29.632812 859.898438 29.84375 859.054688 29.992188 C 858.207031 30.136719 857.28125 30.210938 856.269531 30.210938 L 856.269531 28.777344 C 857.664062 28.777344 858.949219 28.613281 860.125 28.28125 C 861.300781 27.949219 862.316406 27.328125 863.175781 26.417969 L 863.714844 26.417969 C 864.097656 26.421875 864.289062 26.605469 864.289062 26.976562 L 864.289062 48.332031 C 864.289062 48.558594 864.347656 48.753906 864.460938 48.921875 C 864.578125 49.089844 864.746094 49.191406 864.964844 49.226562 C 865.152344 49.269531 865.390625 49.316406 865.679688 49.359375 C 865.96875 49.40625 866.296875 49.433594 866.664062 49.445312 C 867.027344 49.457031 867.382812 49.460938 867.730469 49.460938 L 868.984375 49.460938 Z M 868.984375 50.910156 "/>
</g>
</g>
</svg>
