<?xml version="1.0" encoding="UTF-8"?>
<svg xmlns="http://www.w3.org/2000/svg" xmlns:xlink="http://www.w3.org/1999/xlink" width="1098pt" height="808.98pt" viewBox="0 0 1098 808.98" version="1.2">
<defs>
<clipPath id="clip1">
  <path d="M 23.976562 510 L 52 510 L 52 540 L 23.976562 540 Z M 23.976562 510 "/>
</clipPath>
<clipPath id="clip2">
  <path d="M 471.824219 755.773438 L 488 755.773438 L 488 775 L 471.824219 775 Z M 471.824219 755.773438 "/>
</clipPath>
<clipPath id="clip3">
  <path d="M 58.976562 379 L 87 379 L 87 410 L 58.976562 410 Z M 58.976562 379 "/>
</clipPath>
<clipPath id="clip4">
  <path d="M 94 377.144531 L 107 377.144531 L 107 416 L 94 416 Z M 94 377.144531 "/>
</clipPath>
<clipPath id="clip5">
  <path d="M 125 377.144531 L 138 377.144531 L 138 416 L 125 416 Z M 125 377.144531 "/>
</clipPath>
</defs>
<g id="surface1">
<path style=" stroke:none;fill-rule:nonzero;fill:rgb(0%,0%,0%);fill-opacity:1;" d="M 480.210938 527.011719 L 480.210938 533.003906 L 478.710938 533.003906 L 478.710938 527.011719 C 478.710938 526.601562 479.046875 526.265625 479.460938 526.265625 C 479.875 526.265625 480.210938 526.601562 480.210938 527.011719 Z M 480.210938 536 L 480.210938 541.992188 L 478.710938 541.992188 L 478.710938 536 Z M 480.210938 544.988281 L 480.210938 550.980469 L 478.710938 550.980469 L 478.710938 544.988281 Z M 480.210938 553.976562 L 480.210938 559.96875 L 478.710938 559.96875 L 478.710938 553.976562 Z M 480.210938 562.964844 L 480.210938 568.957031 L 478.710938 568.957031 L 478.710938 562.964844 Z M 480.210938 571.953125 L 480.210938 577.945312 L 478.710938 577.945312 L 478.710938 571.953125 Z M 480.210938 580.941406 L 480.210938 586.933594 L 478.710938 586.933594 L 478.710938 580.941406 Z M 480.210938 589.929688 L 480.210938 595.921875 L 478.710938 595.921875 L 478.710938 589.929688 Z M 480.210938 598.917969 L 480.210938 604.90625 L 478.710938 604.90625 L 478.710938 598.917969 Z M 480.210938 607.902344 L 480.210938 613.894531 L 478.710938 613.894531 L 478.710938 607.902344 Z M 480.210938 616.890625 L 480.210938 622.882812 L 478.710938 622.882812 L 478.710938 616.890625 Z M 480.210938 625.878906 L 480.210938 631.871094 L 478.710938 631.871094 L 478.710938 625.878906 Z M 480.210938 634.867188 L 480.210938 640.859375 L 478.710938 640.859375 L 478.710938 634.867188 Z M 480.210938 643.855469 L 480.210938 649.847656 L 478.710938 649.847656 L 478.710938 643.855469 Z M 480.210938 652.84375 L 480.210938 658.835938 L 478.710938 658.835938 L 478.710938 652.84375 Z M 480.210938 661.832031 L 480.210938 667.824219 L 478.710938 667.824219 L 478.710938 661.832031 Z M 480.210938 670.820312 L 480.210938 676.8125 L 478.710938 676.8125 L 478.710938 670.820312 Z M 480.210938 679.808594 L 480.210938 685.796875 L 478.710938 685.796875 L 478.710938 679.808594 Z M 480.210938 688.792969 L 480.210938 694.785156 L 478.710938 694.785156 L 478.710938 688.792969 Z M 480.210938 697.78125 L 480.210938 703.773438 L 478.710938 703.773438 L 478.710938 697.78125 Z M 480.210938 706.769531 L 480.210938 712.761719 L 478.710938 712.761719 L 478.710938 706.769531 Z M 480.210938 715.757812 L 480.210938 717.394531 C 480.210938 717.808594 479.875 718.144531 479.460938 718.144531 C 479.046875 718.144531 478.710938 717.808594 478.710938 717.394531 L 478.710938 715.757812 Z M 480.210938 715.757812 "/>
<path style=" stroke:none;fill-rule:nonzero;fill:rgb(0%,0%,0%);fill-opacity:1;" d="M 206.914062 526.265625 L 212.90625 526.265625 L 212.90625 527.761719 L 206.914062 527.761719 C 206.503906 527.761719 206.167969 527.425781 206.167969 527.011719 C 206.167969 526.601562 206.503906 526.265625 206.914062 526.265625 Z M 215.902344 526.265625 L 221.890625 526.265625 L 221.890625 527.761719 L 215.902344 527.761719 Z M 224.886719 526.265625 L 230.878906 526.265625 L 230.878906 527.761719 L 224.886719 527.761719 Z M 233.871094 526.265625 L 239.863281 526.265625 L 239.863281 527.761719 L 233.871094 527.761719 Z M 242.859375 526.265625 L 248.847656 526.265625 L 248.847656 527.761719 L 242.859375 527.761719 Z M 251.84375 526.265625 L 257.835938 526.265625 L 257.835938 527.761719 L 251.84375 527.761719 Z M 260.828125 526.265625 L 266.820312 526.265625 L 266.820312 527.761719 L 260.828125 527.761719 Z M 269.816406 526.265625 L 275.804688 526.265625 L 275.804688 527.761719 L 269.816406 527.761719 Z M 278.800781 526.265625 L 284.792969 526.265625 L 284.792969 527.761719 L 278.800781 527.761719 Z M 287.785156 526.265625 L 293.777344 526.265625 L 293.777344 527.761719 L 287.785156 527.761719 Z M 296.773438 526.265625 L 302.761719 526.265625 L 302.761719 527.761719 L 296.773438 527.761719 Z M 305.757812 526.265625 L 311.75 526.265625 L 311.75 527.761719 L 305.757812 527.761719 Z M 314.742188 526.265625 L 320.734375 526.265625 L 320.734375 527.761719 L 314.742188 527.761719 Z M 323.730469 526.265625 L 329.71875 526.265625 L 329.71875 527.761719 L 323.730469 527.761719 Z M 332.714844 526.265625 L 338.707031 526.265625 L 338.707031 527.761719 L 332.714844 527.761719 Z M 341.699219 526.265625 L 347.691406 526.265625 L 347.691406 527.761719 L 341.699219 527.761719 Z M 350.6875 526.265625 L 356.675781 526.265625 L 356.675781 527.761719 L 350.6875 527.761719 Z M 359.671875 526.265625 L 365.664062 526.265625 L 365.664062 527.761719 L 359.671875 527.761719 Z M 368.65625 526.265625 L 374.648438 526.265625 L 374.648438 527.761719 L 368.65625 527.761719 Z M 377.644531 526.265625 L 383.632812 526.265625 L 383.632812 527.761719 L 377.644531 527.761719 Z M 386.628906 526.265625 L 392.621094 526.265625 L 392.621094 527.761719 L 386.628906 527.761719 Z M 395.613281 526.265625 L 401.605469 526.265625 L 401.605469 527.761719 L 395.613281 527.761719 Z M 404.601562 526.265625 L 410.589844 526.265625 L 410.589844 527.761719 L 404.601562 527.761719 Z M 413.585938 526.265625 L 419.578125 526.265625 L 419.578125 527.761719 L 413.585938 527.761719 Z M 422.574219 526.265625 L 428.5625 526.265625 L 428.5625 527.761719 L 422.574219 527.761719 Z M 431.558594 526.265625 L 437.546875 526.265625 L 437.546875 527.761719 L 431.558594 527.761719 Z M 440.542969 526.265625 L 446.535156 526.265625 L 446.535156 527.761719 L 440.542969 527.761719 Z M 449.53125 526.265625 L 455.519531 526.265625 L 455.519531 527.761719 L 449.53125 527.761719 Z M 458.515625 526.265625 L 464.503906 526.265625 L 464.503906 527.761719 L 458.515625 527.761719 Z M 467.5 526.265625 L 473.492188 526.265625 L 473.492188 527.761719 L 467.5 527.761719 Z M 476.488281 526.265625 L 478.335938 526.265625 C 478.75 526.265625 479.085938 526.601562 479.085938 527.011719 C 479.085938 527.425781 478.75 527.761719 478.335938 527.761719 L 476.488281 527.761719 Z M 476.488281 526.265625 "/>
<path style=" stroke:none;fill-rule:nonzero;fill:rgb(0%,0%,0%);fill-opacity:1;" d="M 139.890625 716.269531 L 959.203125 716.269531 L 959.203125 718.515625 L 139.890625 718.515625 C 139.269531 718.515625 138.769531 718.015625 138.769531 717.394531 C 138.769531 716.773438 139.269531 716.269531 139.890625 716.269531 Z M 990.621094 717.394531 L 959.171875 708.40625 L 959.171875 726.382812 Z M 990.621094 717.394531 "/>
<path style=" stroke:none;fill-rule:nonzero;fill:rgb(0%,0%,0%);fill-opacity:1;" d="M 205.792969 761.699219 L 205.792969 61.429688 L 208.039062 61.429688 L 208.039062 761.699219 C 208.039062 762.316406 207.535156 762.820312 206.914062 762.820312 C 206.296875 762.820312 205.792969 762.316406 205.792969 761.699219 Z M 206.914062 29.996094 L 197.929688 61.453125 L 215.902344 61.453125 Z M 206.914062 29.996094 "/>
<path style="fill:none;stroke-width:10;stroke-linecap:round;stroke-linejoin:round;stroke:rgb(0%,0%,0%);stroke-opacity:1;stroke-miterlimit:10;" d="M 693.204229 309.645772 C 743.94889 410.185204 798.945096 458.153636 868.065298 488.650553 C 937.198542 519.147471 1018.199593 554.651151 1099.683182 604.418887 C 1181.15373 654.199662 1241.223097 696.105217 1309.704263 754.126288 C 1378.198471 812.147358 1426.204408 847.651038 1476.205701 873.649693 C 1526.193952 899.648348 1575.204088 919.649319 1600.700313 934.643529 " transform="matrix(0.299524,0,0,-0.299595,0.0135723,809.651083)"/>
<path style=" stroke:none;fill-rule:evenodd;fill:rgb(0%,0%,0%);fill-opacity:1;" d="M 487.324219 529.636719 C 487.324219 533.980469 483.804688 537.5 479.460938 537.5 C 475.121094 537.5 471.597656 533.980469 471.597656 529.636719 C 471.597656 525.289062 475.121094 521.769531 479.460938 521.769531 C 483.804688 521.769531 487.324219 525.289062 487.324219 529.636719 Z M 487.324219 529.636719 "/>
<path style=" stroke:none;fill-rule:evenodd;fill:rgb(100%,100%,100%);fill-opacity:1;" d="M 484.703125 529.636719 C 484.703125 532.527344 482.355469 534.878906 479.460938 534.878906 C 476.566406 534.878906 474.21875 532.527344 474.21875 529.636719 C 474.21875 526.738281 476.566406 524.390625 479.460938 524.390625 C 482.355469 524.390625 484.703125 526.738281 484.703125 529.636719 Z M 484.703125 529.636719 "/>
<g clip-path="url(#clip1)" clip-rule="nonzero">
<path style=" stroke:none;fill-rule:evenodd;fill:rgb(0%,0%,0%);fill-opacity:1;" d="M 48.949219 521.644531 C 48.867188 521.960938 48.652344 522.164062 48.300781 522.253906 L 47.835938 522.253906 C 47.476562 522.253906 47.28125 522.066406 47.253906 521.6875 C 47.386719 520.785156 47.460938 519.941406 47.472656 519.15625 C 47.472656 518.726562 47.460938 518.320312 47.433594 517.941406 C 47.324219 516.792969 47.035156 515.777344 46.566406 514.894531 C 46.097656 514.011719 45.464844 513.308594 44.667969 512.777344 C 43.875 512.25 42.90625 511.984375 41.761719 511.984375 C 40.363281 511.984375 38.957031 512.324219 37.542969 513.003906 C 36.128906 513.683594 34.851562 514.589844 33.707031 515.726562 C 32.375 517.074219 31.332031 518.5625 30.578125 520.199219 C 29.828125 521.832031 29.234375 523.496094 28.800781 525.195312 C 28.332031 526.921875 28.078125 528.601562 28.035156 530.234375 C 28.007812 530.390625 27.996094 530.527344 27.996094 530.644531 C 27.996094 532.09375 28.292969 533.421875 28.882812 534.625 C 29.449219 535.761719 30.261719 536.671875 31.324219 537.347656 C 32.390625 538.03125 33.648438 538.367188 35.101562 538.367188 C 35.882812 538.367188 36.65625 538.265625 37.421875 538.054688 C 38.1875 537.847656 38.886719 537.542969 39.511719 537.144531 C 40.136719 536.746094 40.679688 536.273438 41.136719 535.730469 C 41.59375 535.191406 41.898438 534.605469 42.042969 533.976562 L 42.914062 530.527344 C 42.96875 530.332031 42.992188 530.140625 42.992188 529.957031 C 42.992188 529.75 42.941406 529.625 42.832031 529.585938 C 42.550781 529.46875 42.058594 529.394531 41.359375 529.363281 C 40.660156 529.328125 39.9375 529.3125 39.199219 529.3125 C 38.996094 529.3125 38.847656 529.253906 38.753906 529.132812 C 38.660156 529.042969 38.613281 528.945312 38.613281 528.839844 C 38.613281 528.761719 38.625 528.691406 38.652344 528.625 L 38.734375 528.273438 C 38.773438 528.089844 38.871094 527.949219 39.027344 527.84375 C 39.183594 527.738281 39.347656 527.683594 39.519531 527.683594 C 41.445312 527.761719 43.417969 527.804688 45.4375 527.800781 C 46.726562 527.804688 48.027344 527.761719 49.332031 527.683594 C 49.519531 527.683594 49.679688 527.75 49.816406 527.878906 C 49.871094 527.984375 49.898438 528.078125 49.898438 528.15625 C 49.898438 528.234375 49.882812 528.304688 49.855469 528.371094 L 49.777344 528.722656 C 49.695312 529.128906 49.433594 529.324219 48.988281 529.3125 C 48.515625 529.3125 48.125 529.324219 47.808594 529.351562 C 47.492188 529.378906 47.257812 529.445312 47.113281 529.546875 C 46.992188 529.601562 46.84375 529.960938 46.667969 530.625 L 44.609375 538.503906 C 44.609375 538.625 44.535156 538.753906 44.386719 538.894531 C 44.265625 539.015625 44.101562 539.074219 43.902344 539.074219 C 43.726562 539.074219 43.59375 539.007812 43.5 538.878906 C 43.191406 538.527344 42.910156 538.148438 42.660156 537.75 C 42.414062 537.351562 42.246094 537.035156 42.164062 536.800781 C 41.386719 537.726562 40.242188 538.488281 38.734375 539.074219 C 37.226562 539.660156 35.714844 539.957031 34.191406 539.957031 C 32.335938 539.957031 30.683594 539.566406 29.238281 538.789062 C 27.789062 538.011719 26.617188 536.9375 25.714844 535.5625 C 24.773438 534.089844 24.21875 532.453125 24.058594 530.664062 C 24.003906 530.179688 23.976562 529.679688 23.976562 529.152344 C 23.976562 527.835938 24.148438 526.488281 24.484375 525.117188 C 24.996094 523.195312 25.804688 521.34375 26.917969 519.558594 C 28.027344 517.777344 29.414062 516.152344 31.082031 514.6875 C 32.660156 513.355469 34.363281 512.296875 36.203125 511.511719 C 38.039062 510.730469 39.878906 510.335938 41.722656 510.335938 C 43.1875 510.335938 44.445312 510.660156 45.488281 511.308594 C 46.53125 511.953125 47.300781 512.734375 47.796875 513.648438 L 50.523438 510.609375 C 50.628906 510.429688 50.8125 510.335938 51.066406 510.335938 L 51.226562 510.335938 C 51.550781 510.335938 51.714844 510.492188 51.714844 510.804688 L 51.714844 510.964844 Z M 48.949219 521.644531 "/>
</g>
<path style=" stroke:none;fill-rule:evenodd;fill:rgb(0%,0%,0%);fill-opacity:1;" d="M 88.3125 534.289062 C 88.410156 534.382812 88.457031 534.480469 88.457031 534.585938 C 88.457031 534.703125 88.402344 534.832031 88.292969 534.976562 C 87.226562 536.453125 85.875 537.582031 84.226562 538.359375 C 82.578125 539.136719 80.925781 539.523438 79.273438 539.523438 C 78.101562 539.523438 77.085938 539.265625 76.222656 538.75 C 75.363281 538.234375 74.683594 537.558594 74.1875 536.722656 C 73.621094 535.78125 73.296875 534.753906 73.21875 533.644531 C 73.191406 533.371094 73.175781 533.09375 73.175781 532.820312 C 73.175781 531.984375 73.285156 531.117188 73.5 530.214844 C 73.820312 529.011719 74.316406 527.855469 74.984375 526.746094 C 75.648438 525.632812 76.484375 524.613281 77.496094 523.683594 C 78.425781 522.875 79.449219 522.214844 80.574219 521.707031 C 81.695312 521.195312 82.824219 520.941406 83.953125 520.941406 C 84.640625 520.941406 85.28125 521.046875 85.878906 521.253906 C 86.480469 521.464844 86.988281 521.769531 87.414062 522.167969 C 87.839844 522.566406 88.144531 523.035156 88.332031 523.566406 C 88.382812 523.855469 88.414062 524.144531 88.414062 524.429688 C 88.414062 524.746094 88.371094 525.078125 88.292969 525.429688 C 88.144531 526.019531 87.839844 526.46875 87.382812 526.773438 C 86.929688 527.082031 86.46875 527.234375 86.011719 527.234375 C 85.527344 527.234375 85.136719 527.0625 84.839844 526.722656 C 84.609375 526.503906 84.496094 526.214844 84.496094 525.859375 C 84.496094 525.71875 84.527344 525.542969 84.582031 525.332031 C 84.722656 524.757812 85.019531 524.332031 85.453125 524.050781 C 85.890625 523.769531 86.234375 523.621094 86.472656 523.605469 C 86.339844 523.28125 86.023438 522.976562 85.515625 522.6875 C 85.011719 522.398438 84.414062 522.253906 83.710938 522.253906 C 83.039062 522.253906 82.347656 522.460938 81.644531 522.871094 C 80.9375 523.285156 80.316406 523.816406 79.777344 524.46875 C 79.050781 525.320312 78.496094 526.238281 78.113281 527.226562 C 77.726562 528.210938 77.402344 529.234375 77.132812 530.292969 C 76.863281 531.335938 76.65625 532.351562 76.507812 533.328125 C 76.453125 533.644531 76.425781 533.9375 76.425781 534.210938 C 76.425781 534.855469 76.53125 535.46875 76.75 536.054688 C 76.949219 536.707031 77.289062 537.234375 77.765625 537.632812 C 78.246094 538.03125 78.820312 538.230469 79.492188 538.230469 C 80.917969 538.230469 82.3125 537.867188 83.671875 537.132812 C 85.03125 536.402344 86.15625 535.410156 87.042969 534.152344 C 87.121094 534.011719 87.277344 533.898438 87.503906 533.820312 L 87.664062 533.820312 C 87.804688 533.820312 87.917969 533.867188 88.007812 533.957031 Z M 88.3125 534.289062 "/>
<path style="fill:none;stroke-width:0.268;stroke-linecap:round;stroke-linejoin:round;stroke:rgb(0%,0%,0%);stroke-opacity:1;stroke-miterlimit:10;" d="M 12.708 6.789099 L 17.397788 6.7891 " transform="matrix(5.990409,0.000000625818,-0.000000150318,-5.991912,23.975453,567.695307)"/>
<path style=" stroke:none;fill-rule:evenodd;fill:rgb(0%,0%,0%);fill-opacity:1;" d="M 158.273438 525.542969 C 158.273438 527.386719 158.148438 529.21875 157.890625 531.046875 C 157.632812 532.871094 157 534.585938 155.980469 536.183594 C 155.253906 537.351562 154.289062 538.246094 153.074219 538.871094 C 151.863281 539.5 150.539062 539.8125 149.121094 539.8125 C 147.75 539.8125 146.449219 539.5 145.234375 538.871094 C 144.011719 538.246094 143.039062 537.351562 142.316406 536.183594 C 141.296875 534.585938 140.664062 532.871094 140.40625 531.046875 C 140.148438 529.21875 140.015625 527.386719 140.015625 525.542969 C 140.015625 523.671875 140.148438 521.804688 140.40625 519.941406 C 140.664062 518.078125 141.296875 516.335938 142.316406 514.707031 C 143.039062 513.53125 144.003906 512.613281 145.222656 511.960938 C 146.4375 511.308594 147.730469 510.980469 149.121094 510.980469 C 150.527344 510.980469 151.847656 511.308594 153.0625 511.960938 C 154.285156 512.613281 155.253906 513.53125 155.980469 514.707031 C 157 516.335938 157.632812 518.078125 157.890625 519.941406 C 158.148438 521.804688 158.273438 523.671875 158.273438 525.542969 Z M 154.363281 524.867188 C 154.363281 524.0625 154.355469 523.210938 154.339844 522.3125 C 154.328125 521.417969 154.296875 520.542969 154.242188 519.683594 C 154.1875 518.824219 154.09375 518.015625 153.957031 517.253906 C 153.816406 516.492188 153.648438 515.839844 153.453125 515.300781 C 153.058594 514.433594 152.476562 513.71875 151.707031 513.160156 C 150.941406 512.605469 150.078125 512.324219 149.121094 512.324219 C 148.179688 512.324219 147.335938 512.609375 146.574219 513.171875 C 145.820312 513.734375 145.238281 514.445312 144.84375 515.300781 C 144.644531 515.839844 144.476562 516.492188 144.339844 517.253906 C 144.203125 518.015625 144.105469 518.824219 144.054688 519.683594 C 144 520.542969 143.96875 521.417969 143.957031 522.3125 C 143.9375 523.210938 143.933594 524.0625 143.933594 524.867188 C 143.933594 525.765625 143.9375 526.710938 143.957031 527.703125 C 143.96875 528.695312 144 529.65625 144.054688 530.585938 C 144.105469 531.515625 144.203125 532.394531 144.339844 533.226562 C 144.476562 534.058594 144.644531 534.757812 144.84375 535.320312 C 145.214844 536.253906 145.785156 537.023438 146.558594 537.625 C 147.328125 538.226562 148.179688 538.527344 149.121094 538.527344 C 150.097656 538.527344 150.964844 538.226562 151.738281 537.625 C 152.511719 537.023438 153.082031 536.253906 153.453125 535.320312 C 153.648438 534.757812 153.816406 534.058594 153.957031 533.226562 C 154.09375 532.394531 154.1875 531.515625 154.242188 530.585938 C 154.296875 529.65625 154.328125 528.695312 154.339844 527.703125 C 154.355469 526.710938 154.363281 525.765625 154.363281 524.867188 Z M 154.363281 524.867188 "/>
<path style=" stroke:none;fill-rule:evenodd;fill:rgb(0%,0%,0%);fill-opacity:1;" d="M 69.066406 546.179688 C 55.984375 537.554688 55.984375 516.472656 69.066406 507.847656 L 71.121094 507.847656 C 59.324219 516.472656 59.324219 537.554688 71.121094 546.179688 "/>
<path style=" stroke:none;fill-rule:evenodd;fill:rgb(0%,0%,0%);fill-opacity:1;" d="M 162.582031 507.847656 C 175.664062 516.472656 175.664062 537.554688 162.582031 546.179688 L 160.527344 546.179688 C 172.328125 537.554688 172.328125 516.472656 160.527344 507.847656 "/>
<g clip-path="url(#clip2)" clip-rule="nonzero">
<path style=" stroke:none;fill-rule:evenodd;fill:rgb(0%,0%,0%);fill-opacity:1;" d="M 486.953125 768.972656 C 487.046875 769.066406 487.09375 769.164062 487.09375 769.269531 C 487.09375 769.386719 487.039062 769.519531 486.933594 769.660156 C 485.867188 771.136719 484.511719 772.265625 482.863281 773.042969 C 481.214844 773.820312 479.566406 774.207031 477.910156 774.207031 C 476.738281 774.207031 475.722656 773.949219 474.859375 773.433594 C 474 772.917969 473.320312 772.242188 472.820312 771.40625 C 472.257812 770.464844 471.933594 769.4375 471.851562 768.328125 C 471.824219 768.054688 471.8125 767.78125 471.8125 767.503906 C 471.8125 766.667969 471.921875 765.800781 472.136719 764.898438 C 472.460938 763.695312 472.953125 762.539062 473.621094 761.429688 C 474.285156 760.320312 475.125 759.296875 476.132812 758.371094 C 477.0625 757.558594 478.085938 756.898438 479.210938 756.390625 C 480.335938 755.882812 481.460938 755.625 482.589844 755.625 C 483.277344 755.625 483.921875 755.730469 484.519531 755.941406 C 485.121094 756.148438 485.628906 756.453125 486.054688 756.851562 C 486.476562 757.25 486.785156 757.71875 486.972656 758.25 C 487.027344 758.539062 487.050781 758.828125 487.050781 759.113281 C 487.050781 759.429688 487.011719 759.761719 486.933594 760.113281 C 486.785156 760.703125 486.480469 761.152344 486.023438 761.457031 C 485.566406 761.765625 485.109375 761.917969 484.652344 761.917969 C 484.167969 761.917969 483.777344 761.75 483.480469 761.40625 C 483.25 761.1875 483.136719 760.898438 483.136719 760.546875 C 483.136719 760.402344 483.164062 760.226562 483.21875 760.015625 C 483.367188 759.441406 483.660156 759.015625 484.097656 758.734375 C 484.535156 758.453125 484.875 758.304688 485.113281 758.289062 C 484.980469 757.964844 484.660156 757.660156 484.15625 757.371094 C 483.652344 757.085938 483.050781 756.941406 482.351562 756.9375 C 481.675781 756.941406 480.988281 757.144531 480.28125 757.558594 C 479.574219 757.96875 478.953125 758.5 478.414062 759.152344 C 477.6875 760.003906 477.132812 760.921875 476.75 761.910156 C 476.367188 762.894531 476.039062 763.917969 475.769531 764.976562 C 475.5 766.023438 475.292969 767.035156 475.144531 768.011719 C 475.089844 768.328125 475.0625 768.621094 475.0625 768.894531 C 475.0625 769.539062 475.171875 770.152344 475.386719 770.738281 C 475.585938 771.394531 475.925781 771.917969 476.40625 772.316406 C 476.882812 772.71875 477.457031 772.914062 478.128906 772.914062 C 479.558594 772.914062 480.949219 772.550781 482.308594 771.816406 C 483.667969 771.085938 484.792969 770.09375 485.679688 768.835938 C 485.761719 768.695312 485.917969 768.582031 486.144531 768.503906 L 486.304688 768.503906 C 486.441406 768.503906 486.554688 768.550781 486.648438 768.640625 Z M 486.953125 768.972656 "/>
</g>
<path style=" stroke:none;fill-rule:evenodd;fill:rgb(0%,0%,0%);fill-opacity:1;" d="M 487.324219 395.847656 C 487.324219 400.191406 483.804688 403.710938 479.460938 403.710938 C 475.121094 403.710938 471.597656 400.191406 471.597656 395.847656 C 471.597656 391.507812 475.121094 387.984375 479.460938 387.984375 C 483.804688 387.984375 487.324219 391.507812 487.324219 395.847656 Z M 487.324219 395.847656 "/>
<path style=" stroke:none;fill-rule:nonzero;fill:rgb(0%,0%,0%);fill-opacity:1;" d="M 206.914062 154.019531 L 212.90625 154.019531 L 212.90625 155.515625 L 206.914062 155.515625 C 206.503906 155.515625 206.167969 155.179688 206.167969 154.765625 C 206.167969 154.351562 206.503906 154.019531 206.914062 154.019531 Z M 215.902344 154.019531 L 221.890625 154.019531 L 221.890625 155.515625 L 215.902344 155.515625 Z M 224.886719 154.019531 L 230.878906 154.019531 L 230.878906 155.515625 L 224.886719 155.515625 Z M 233.871094 154.019531 L 239.863281 154.019531 L 239.863281 155.515625 L 233.871094 155.515625 Z M 242.859375 154.019531 L 248.847656 154.019531 L 248.847656 155.515625 L 242.859375 155.515625 Z M 251.84375 154.019531 L 257.835938 154.019531 L 257.835938 155.515625 L 251.84375 155.515625 Z M 260.828125 154.019531 L 266.820312 154.019531 L 266.820312 155.515625 L 260.828125 155.515625 Z M 269.816406 154.019531 L 275.804688 154.019531 L 275.804688 155.515625 L 269.816406 155.515625 Z M 278.800781 154.019531 L 284.792969 154.019531 L 284.792969 155.515625 L 278.800781 155.515625 Z M 287.785156 154.019531 L 293.777344 154.019531 L 293.777344 155.515625 L 287.785156 155.515625 Z M 296.773438 154.019531 L 302.761719 154.019531 L 302.761719 155.515625 L 296.773438 155.515625 Z M 305.757812 154.019531 L 311.75 154.019531 L 311.75 155.515625 L 305.757812 155.515625 Z M 314.742188 154.019531 L 320.734375 154.019531 L 320.734375 155.515625 L 314.742188 155.515625 Z M 323.730469 154.019531 L 329.71875 154.019531 L 329.71875 155.515625 L 323.730469 155.515625 Z M 332.714844 154.019531 L 338.707031 154.019531 L 338.707031 155.515625 L 332.714844 155.515625 Z M 341.699219 154.019531 L 347.691406 154.019531 L 347.691406 155.515625 L 341.699219 155.515625 Z M 350.6875 154.019531 L 356.675781 154.019531 L 356.675781 155.515625 L 350.6875 155.515625 Z M 359.671875 154.019531 L 365.664062 154.019531 L 365.664062 155.515625 L 359.671875 155.515625 Z M 368.65625 154.019531 L 374.648438 154.019531 L 374.648438 155.515625 L 368.65625 155.515625 Z M 377.644531 154.019531 L 383.632812 154.019531 L 383.632812 155.515625 L 377.644531 155.515625 Z M 386.628906 154.019531 L 392.621094 154.019531 L 392.621094 155.515625 L 386.628906 155.515625 Z M 395.613281 154.019531 L 401.605469 154.019531 L 401.605469 155.515625 L 395.613281 155.515625 Z M 404.601562 154.019531 L 410.589844 154.019531 L 410.589844 155.515625 L 404.601562 155.515625 Z M 413.585938 154.019531 L 419.578125 154.019531 L 419.578125 155.515625 L 413.585938 155.515625 Z M 422.574219 154.019531 L 428.5625 154.019531 L 428.5625 155.515625 L 422.574219 155.515625 Z M 431.558594 154.019531 L 437.546875 154.019531 L 437.546875 155.515625 L 431.558594 155.515625 Z M 440.542969 154.019531 L 446.535156 154.019531 L 446.535156 155.515625 L 440.542969 155.515625 Z M 449.53125 154.019531 L 455.519531 154.019531 L 455.519531 155.515625 L 449.53125 155.515625 Z M 458.515625 154.019531 L 464.503906 154.019531 L 464.503906 155.515625 L 458.515625 155.515625 Z M 467.5 154.019531 L 473.492188 154.019531 L 473.492188 155.515625 L 467.5 155.515625 Z M 476.488281 154.019531 L 482.476562 154.019531 L 482.476562 155.515625 L 476.488281 155.515625 Z M 485.472656 154.019531 L 491.460938 154.019531 L 491.460938 155.515625 L 485.472656 155.515625 Z M 494.457031 154.019531 L 500.449219 154.019531 L 500.449219 155.515625 L 494.457031 155.515625 Z M 503.445312 154.019531 L 509.433594 154.019531 L 509.433594 155.515625 L 503.445312 155.515625 Z M 512.429688 154.019531 L 518.417969 154.019531 L 518.417969 155.515625 L 512.429688 155.515625 Z M 521.414062 154.019531 L 527.40625 154.019531 L 527.40625 155.515625 L 521.414062 155.515625 Z M 530.402344 154.019531 L 536.390625 154.019531 L 536.390625 155.515625 L 530.402344 155.515625 Z M 539.386719 154.019531 L 545.378906 154.019531 L 545.378906 155.515625 L 539.386719 155.515625 Z M 548.371094 154.019531 L 554.363281 154.019531 L 554.363281 155.515625 L 548.371094 155.515625 Z M 557.359375 154.019531 L 563.347656 154.019531 L 563.347656 155.515625 L 557.359375 155.515625 Z M 566.34375 154.019531 L 572.335938 154.019531 L 572.335938 155.515625 L 566.34375 155.515625 Z M 575.328125 154.019531 L 581.320312 154.019531 L 581.320312 155.515625 L 575.328125 155.515625 Z M 584.316406 154.019531 L 590.304688 154.019531 L 590.304688 155.515625 L 584.316406 155.515625 Z M 593.300781 154.019531 L 599.292969 154.019531 L 599.292969 155.515625 L 593.300781 155.515625 Z M 602.285156 154.019531 L 608.277344 154.019531 L 608.277344 155.515625 L 602.285156 155.515625 Z M 611.273438 154.019531 L 617.261719 154.019531 L 617.261719 155.515625 L 611.273438 155.515625 Z M 620.257812 154.019531 L 626.25 154.019531 L 626.25 155.515625 L 620.257812 155.515625 Z M 629.242188 154.019531 L 635.234375 154.019531 L 635.234375 155.515625 L 629.242188 155.515625 Z M 638.230469 154.019531 L 644.21875 154.019531 L 644.21875 155.515625 L 638.230469 155.515625 Z M 647.214844 154.019531 L 653.207031 154.019531 L 653.207031 155.515625 L 647.214844 155.515625 Z M 656.199219 154.019531 L 662.191406 154.019531 L 662.191406 155.515625 L 656.199219 155.515625 Z M 665.1875 154.019531 L 671.175781 154.019531 L 671.175781 155.515625 L 665.1875 155.515625 Z M 674.171875 154.019531 L 680.164062 154.019531 L 680.164062 155.515625 L 674.171875 155.515625 Z M 683.15625 154.019531 L 689.148438 154.019531 L 689.148438 155.515625 L 683.15625 155.515625 Z M 692.144531 154.019531 L 698.132812 154.019531 L 698.132812 155.515625 L 692.144531 155.515625 Z M 701.128906 154.019531 L 707.121094 154.019531 L 707.121094 155.515625 L 701.128906 155.515625 Z M 710.113281 154.019531 L 716.105469 154.019531 L 716.105469 155.515625 L 710.113281 155.515625 Z M 719.101562 154.019531 L 725.089844 154.019531 L 725.089844 155.515625 L 719.101562 155.515625 Z M 728.085938 154.019531 L 734.078125 154.019531 L 734.078125 155.515625 L 728.085938 155.515625 Z M 737.070312 154.019531 L 743.0625 154.019531 L 743.0625 155.515625 L 737.070312 155.515625 Z M 746.058594 154.019531 L 752.046875 154.019531 L 752.046875 155.515625 L 746.058594 155.515625 Z M 755.042969 154.019531 L 761.035156 154.019531 L 761.035156 155.515625 L 755.042969 155.515625 Z M 764.027344 154.019531 L 770.019531 154.019531 L 770.019531 155.515625 L 764.027344 155.515625 Z M 773.015625 154.019531 L 779.003906 154.019531 L 779.003906 155.515625 L 773.015625 155.515625 Z M 782 154.019531 L 787.992188 154.019531 L 787.992188 155.515625 L 782 155.515625 Z M 790.984375 154.019531 L 796.976562 154.019531 L 796.976562 155.515625 L 790.984375 155.515625 Z M 799.972656 154.019531 L 805.960938 154.019531 L 805.960938 155.515625 L 799.972656 155.515625 Z M 808.957031 154.019531 L 814.949219 154.019531 L 814.949219 155.515625 L 808.957031 155.515625 Z M 817.945312 154.019531 L 823.933594 154.019531 L 823.933594 155.515625 L 817.945312 155.515625 Z M 826.929688 154.019531 L 832.917969 154.019531 L 832.917969 155.515625 L 826.929688 155.515625 Z M 835.914062 154.019531 L 841.90625 154.019531 L 841.90625 155.515625 L 835.914062 155.515625 Z M 844.902344 154.019531 L 850.890625 154.019531 L 850.890625 155.515625 L 844.902344 155.515625 Z M 853.886719 154.019531 L 859.875 154.019531 L 859.875 155.515625 L 853.886719 155.515625 Z M 862.871094 154.019531 L 868.863281 154.019531 L 868.863281 155.515625 L 862.871094 155.515625 Z M 871.859375 154.019531 L 877.847656 154.019531 L 877.847656 155.515625 L 871.859375 155.515625 Z M 880.84375 154.019531 L 886.832031 154.019531 L 886.832031 155.515625 L 880.84375 155.515625 Z M 889.828125 154.019531 L 895.820312 154.019531 L 895.820312 155.515625 L 889.828125 155.515625 Z M 898.816406 154.019531 L 904.804688 154.019531 L 904.804688 155.515625 L 898.816406 155.515625 Z M 907.800781 154.019531 L 913.789062 154.019531 L 913.789062 155.515625 L 907.800781 155.515625 Z M 916.785156 154.019531 L 922.777344 154.019531 L 922.777344 155.515625 L 916.785156 155.515625 Z M 925.773438 154.019531 L 931.761719 154.019531 L 931.761719 155.515625 L 925.773438 155.515625 Z M 934.757812 154.019531 L 940.746094 154.019531 L 940.746094 155.515625 L 934.757812 155.515625 Z M 943.742188 154.019531 L 949.734375 154.019531 L 949.734375 155.515625 L 943.742188 155.515625 Z M 952.730469 154.019531 L 958.71875 154.019531 L 958.71875 155.515625 L 952.730469 155.515625 Z M 961.714844 154.019531 L 967.707031 154.019531 L 967.707031 155.515625 L 961.714844 155.515625 Z M 970.699219 154.019531 L 976.691406 154.019531 L 976.691406 155.515625 L 970.699219 155.515625 Z M 979.6875 154.019531 L 985.675781 154.019531 L 985.675781 155.515625 L 979.6875 155.515625 Z M 988.671875 154.019531 L 994.664062 154.019531 L 994.664062 155.515625 L 988.671875 155.515625 Z M 997.65625 154.019531 L 1003.648438 154.019531 L 1003.648438 155.515625 L 997.65625 155.515625 Z M 1006.644531 154.019531 L 1012.632812 154.019531 L 1012.632812 155.515625 L 1006.644531 155.515625 Z M 1015.628906 154.019531 L 1021.621094 154.019531 L 1021.621094 155.515625 L 1015.628906 155.515625 Z M 1024.613281 154.019531 L 1030.605469 154.019531 L 1030.605469 155.515625 L 1024.613281 155.515625 Z M 1033.601562 154.019531 L 1039.589844 154.019531 L 1039.589844 155.515625 L 1033.601562 155.515625 Z M 1042.585938 154.019531 L 1048.578125 154.019531 L 1048.578125 155.515625 L 1042.585938 155.515625 Z M 1051.570312 154.019531 L 1057.5625 154.019531 L 1057.5625 155.515625 L 1051.570312 155.515625 Z M 1060.558594 154.019531 L 1066.546875 154.019531 L 1066.546875 155.515625 L 1060.558594 155.515625 Z M 1069.542969 154.019531 L 1071.394531 154.019531 C 1071.808594 154.019531 1072.144531 154.351562 1072.144531 154.765625 C 1072.144531 155.179688 1071.808594 155.515625 1071.394531 155.515625 L 1069.542969 155.515625 Z M 1069.542969 154.019531 "/>
<path style="fill:none;stroke-width:10;stroke-linecap:round;stroke-linejoin:round;stroke:rgb(0%,0%,0%);stroke-opacity:1;stroke-miterlimit:10;" d="M 1603.204291 1379.645582 C 1670.876881 1487.955927 1743.570467 1552.444065 1821.024217 1594.805966 C 1898.49101 1637.154828 1981.943872 1666.673863 2140.69863 1710.248339 C 2299.46643 1753.822814 2395.465261 1787.905304 2544.660565 1841.923573 C 2693.855869 1895.95488 2837.834553 1964.145936 2943.366756 2005.217031 C 3048.912 2046.288125 3126.678748 2075.402968 3194.807792 2095.351786 C 3262.923795 2115.300603 3317.972167 2124.649167 3379.189191 2132.146271 C 3440.419257 2139.656415 3498.062897 2144.650138 3543.199693 2144.650138 " transform="matrix(0.299524,0,0,-0.299595,0.0135723,809.651083)"/>
<g clip-path="url(#clip3)" clip-rule="nonzero">
<path style=" stroke:none;fill-rule:evenodd;fill:rgb(0%,0%,0%);fill-opacity:1;" d="M 83.949219 390.945312 C 83.871094 391.261719 83.65625 391.460938 83.304688 391.554688 L 82.839844 391.554688 C 82.476562 391.554688 82.28125 391.363281 82.253906 390.984375 C 82.390625 390.082031 82.464844 389.242188 82.476562 388.457031 C 82.476562 388.027344 82.464844 387.621094 82.4375 387.242188 C 82.328125 386.089844 82.039062 385.074219 81.570312 384.195312 C 81.097656 383.3125 80.464844 382.605469 79.671875 382.074219 C 78.878906 381.546875 77.90625 381.28125 76.765625 381.28125 C 75.363281 381.28125 73.957031 381.621094 72.546875 382.300781 C 71.132812 382.980469 69.855469 383.890625 68.710938 385.023438 C 67.378906 386.371094 66.335938 387.863281 65.582031 389.496094 C 64.828125 391.128906 64.234375 392.796875 63.804688 394.492188 C 63.335938 396.21875 63.078125 397.898438 63.039062 399.53125 C 63.011719 399.691406 62.996094 399.828125 62.996094 399.945312 C 62.996094 401.394531 63.292969 402.722656 63.886719 403.921875 C 64.453125 405.0625 65.265625 405.96875 66.328125 406.648438 C 67.390625 407.328125 68.652344 407.667969 70.101562 407.667969 C 70.882812 407.667969 71.65625 407.5625 72.425781 407.355469 C 73.191406 407.148438 73.886719 406.84375 74.515625 406.441406 C 75.140625 406.042969 75.679688 405.574219 76.140625 405.03125 C 76.597656 404.492188 76.898438 403.90625 77.046875 403.277344 L 77.914062 399.824219 C 77.96875 399.632812 77.996094 399.441406 77.996094 399.257812 C 77.996094 399.050781 77.941406 398.925781 77.835938 398.882812 C 77.554688 398.769531 77.0625 398.695312 76.359375 398.660156 C 75.660156 398.628906 74.941406 398.613281 74.199219 398.609375 C 74 398.613281 73.851562 398.550781 73.757812 398.433594 C 73.664062 398.34375 73.613281 398.246094 73.613281 398.140625 C 73.613281 398.0625 73.628906 397.992188 73.65625 397.925781 L 73.734375 397.570312 C 73.777344 397.390625 73.875 397.246094 74.03125 397.140625 C 74.183594 397.039062 74.351562 396.984375 74.523438 396.984375 C 76.449219 397.0625 78.417969 397.101562 80.4375 397.101562 C 81.730469 397.101562 83.027344 397.0625 84.332031 396.984375 C 84.523438 396.984375 84.683594 397.050781 84.820312 397.179688 C 84.871094 397.285156 84.898438 397.375 84.898438 397.453125 C 84.898438 397.535156 84.886719 397.605469 84.859375 397.667969 L 84.777344 398.023438 C 84.695312 398.429688 84.433594 398.625 83.988281 398.609375 C 83.519531 398.613281 83.125 398.625 82.808594 398.652344 C 82.492188 398.679688 82.261719 398.742188 82.113281 398.847656 C 81.992188 398.898438 81.84375 399.257812 81.667969 399.921875 L 79.609375 407.804688 C 79.609375 407.921875 79.535156 408.054688 79.390625 408.195312 C 79.265625 408.3125 79.105469 408.371094 78.902344 408.371094 C 78.730469 408.371094 78.59375 408.308594 78.5 408.175781 C 78.191406 407.824219 77.914062 407.449219 77.664062 407.050781 C 77.414062 406.652344 77.25 406.335938 77.167969 406.097656 C 76.386719 407.027344 75.242188 407.785156 73.738281 408.371094 C 72.230469 408.960938 70.714844 409.253906 69.195312 409.253906 C 67.335938 409.253906 65.6875 408.867188 64.238281 408.089844 C 62.792969 407.3125 61.617188 406.238281 60.71875 404.863281 C 59.773438 403.390625 59.222656 401.753906 59.0625 399.964844 C 59.007812 399.480469 58.980469 398.976562 58.980469 398.453125 C 58.980469 397.136719 59.148438 395.789062 59.484375 394.414062 C 59.996094 392.496094 60.808594 390.644531 61.917969 388.859375 C 63.027344 387.074219 64.417969 385.453125 66.085938 383.984375 C 67.660156 382.65625 69.367188 381.597656 71.203125 380.8125 C 73.042969 380.027344 74.882812 379.636719 76.722656 379.632812 C 78.191406 379.636719 79.445312 379.957031 80.488281 380.605469 C 81.53125 381.253906 82.300781 382.035156 82.800781 382.949219 L 85.523438 379.910156 C 85.632812 379.726562 85.8125 379.636719 86.070312 379.632812 L 86.230469 379.632812 C 86.554688 379.636719 86.714844 379.792969 86.714844 380.105469 L 86.714844 380.261719 Z M 83.949219 390.945312 "/>
</g>
<path style=" stroke:none;fill-rule:evenodd;fill:rgb(0%,0%,0%);fill-opacity:1;" d="M 123.316406 403.589844 C 123.410156 403.683594 123.457031 403.78125 123.457031 403.882812 C 123.457031 404.003906 123.40625 404.132812 123.296875 404.277344 C 122.230469 405.753906 120.875 406.882812 119.230469 407.660156 C 117.578125 408.4375 115.929688 408.824219 114.273438 408.824219 C 113.101562 408.824219 112.085938 408.566406 111.226562 408.050781 C 110.367188 407.535156 109.6875 406.859375 109.1875 406.019531 C 108.625 405.082031 108.300781 404.054688 108.21875 402.941406 C 108.191406 402.667969 108.179688 402.394531 108.179688 402.121094 C 108.179688 401.285156 108.285156 400.414062 108.5 399.511719 C 108.824219 398.3125 109.320312 397.15625 109.984375 396.042969 C 110.652344 394.933594 111.488281 393.914062 112.5 392.984375 C 113.425781 392.175781 114.453125 391.515625 115.574219 391.003906 C 116.699219 390.496094 117.824219 390.242188 118.953125 390.238281 C 119.644531 390.242188 120.285156 390.347656 120.882812 390.554688 C 121.480469 390.765625 121.992188 391.066406 122.417969 391.464844 C 122.839844 391.867188 123.148438 392.332031 123.332031 392.867188 C 123.386719 393.15625 123.417969 393.441406 123.417969 393.730469 C 123.417969 394.042969 123.375 394.378906 123.296875 394.730469 C 123.148438 395.316406 122.839844 395.765625 122.386719 396.074219 C 121.929688 396.378906 121.46875 396.535156 121.015625 396.53125 C 120.53125 396.535156 120.140625 396.363281 119.839844 396.023438 C 119.613281 395.800781 119.5 395.515625 119.5 395.160156 C 119.5 395.019531 119.527344 394.839844 119.582031 394.628906 C 119.726562 394.058594 120.019531 393.628906 120.457031 393.347656 C 120.894531 393.066406 121.234375 392.921875 121.476562 392.90625 C 121.34375 392.578125 121.027344 392.273438 120.515625 391.984375 C 120.015625 391.699219 119.414062 391.554688 118.714844 391.554688 C 118.042969 391.554688 117.351562 391.761719 116.644531 392.171875 C 115.941406 392.582031 115.316406 393.117188 114.777344 393.769531 C 114.050781 394.617188 113.496094 395.539062 113.113281 396.523438 C 112.730469 397.511719 112.402344 398.535156 112.132812 399.589844 C 111.867188 400.636719 111.65625 401.648438 111.507812 402.628906 C 111.453125 402.945312 111.425781 403.238281 111.425781 403.511719 C 111.425781 404.152344 111.535156 404.765625 111.75 405.355469 C 111.953125 406.007812 112.292969 406.535156 112.769531 406.933594 C 113.246094 407.332031 113.824219 407.53125 114.496094 407.53125 C 115.921875 407.53125 117.3125 407.164062 118.671875 406.433594 C 120.03125 405.703125 121.160156 404.707031 122.046875 403.453125 C 122.121094 403.308594 122.277344 403.199219 122.507812 403.121094 L 122.667969 403.121094 C 122.804688 403.121094 122.917969 403.164062 123.007812 403.257812 Z M 123.316406 403.589844 "/>
<g clip-path="url(#clip4)" clip-rule="nonzero">
<path style=" stroke:none;fill-rule:evenodd;fill:rgb(0%,0%,0%);fill-opacity:1;" d="M 104.070312 415.480469 C 90.984375 406.855469 90.984375 385.769531 104.070312 377.144531 L 106.125 377.144531 C 94.324219 385.769531 94.324219 406.855469 106.125 415.480469 "/>
</g>
<g clip-path="url(#clip5)" clip-rule="nonzero">
<path style=" stroke:none;fill-rule:evenodd;fill:rgb(0%,0%,0%);fill-opacity:1;" d="M 127.582031 377.144531 C 140.664062 385.769531 140.664062 406.855469 127.582031 415.480469 L 125.527344 415.480469 C 137.328125 406.855469 137.328125 385.769531 125.527344 377.144531 "/>
</g>
<path style=" stroke:none;fill-rule:nonzero;fill:rgb(0%,0%,0%);fill-opacity:1;" d="M 206.914062 395.097656 L 212.90625 395.097656 L 212.90625 396.597656 L 206.914062 396.597656 C 206.503906 396.597656 206.167969 396.261719 206.167969 395.847656 C 206.167969 395.433594 206.503906 395.097656 206.914062 395.097656 Z M 215.902344 395.097656 L 221.890625 395.097656 L 221.890625 396.597656 L 215.902344 396.597656 Z M 224.886719 395.097656 L 230.878906 395.097656 L 230.878906 396.597656 L 224.886719 396.597656 Z M 233.871094 395.097656 L 239.863281 395.097656 L 239.863281 396.597656 L 233.871094 396.597656 Z M 242.859375 395.097656 L 248.847656 395.097656 L 248.847656 396.597656 L 242.859375 396.597656 Z M 251.84375 395.097656 L 257.835938 395.097656 L 257.835938 396.597656 L 251.84375 396.597656 Z M 260.828125 395.097656 L 266.820312 395.097656 L 266.820312 396.597656 L 260.828125 396.597656 Z M 269.816406 395.097656 L 275.804688 395.097656 L 275.804688 396.597656 L 269.816406 396.597656 Z M 278.800781 395.097656 L 284.792969 395.097656 L 284.792969 396.597656 L 278.800781 396.597656 Z M 287.785156 395.097656 L 293.777344 395.097656 L 293.777344 396.597656 L 287.785156 396.597656 Z M 296.773438 395.097656 L 302.761719 395.097656 L 302.761719 396.597656 L 296.773438 396.597656 Z M 305.757812 395.097656 L 311.75 395.097656 L 311.75 396.597656 L 305.757812 396.597656 Z M 314.742188 395.097656 L 320.734375 395.097656 L 320.734375 396.597656 L 314.742188 396.597656 Z M 323.730469 395.097656 L 329.71875 395.097656 L 329.71875 396.597656 L 323.730469 396.597656 Z M 332.714844 395.097656 L 338.707031 395.097656 L 338.707031 396.597656 L 332.714844 396.597656 Z M 341.699219 395.097656 L 347.691406 395.097656 L 347.691406 396.597656 L 341.699219 396.597656 Z M 350.6875 395.097656 L 356.675781 395.097656 L 356.675781 396.597656 L 350.6875 396.597656 Z M 359.671875 395.097656 L 365.664062 395.097656 L 365.664062 396.597656 L 359.671875 396.597656 Z M 368.65625 395.097656 L 374.648438 395.097656 L 374.648438 396.597656 L 368.65625 396.597656 Z M 377.644531 395.097656 L 383.632812 395.097656 L 383.632812 396.597656 L 377.644531 396.597656 Z M 386.628906 395.097656 L 392.621094 395.097656 L 392.621094 396.597656 L 386.628906 396.597656 Z M 395.613281 395.097656 L 401.605469 395.097656 L 401.605469 396.597656 L 395.613281 396.597656 Z M 404.601562 395.097656 L 410.589844 395.097656 L 410.589844 396.597656 L 404.601562 396.597656 Z M 413.585938 395.097656 L 419.578125 395.097656 L 419.578125 396.597656 L 413.585938 396.597656 Z M 422.574219 395.097656 L 428.5625 395.097656 L 428.5625 396.597656 L 422.574219 396.597656 Z M 431.558594 395.097656 L 437.546875 395.097656 L 437.546875 396.597656 L 431.558594 396.597656 Z M 440.542969 395.097656 L 446.535156 395.097656 L 446.535156 396.597656 L 440.542969 396.597656 Z M 449.53125 395.097656 L 455.519531 395.097656 L 455.519531 396.597656 L 449.53125 396.597656 Z M 458.515625 395.097656 L 464.503906 395.097656 L 464.503906 396.597656 L 458.515625 396.597656 Z M 467.5 395.097656 L 473.492188 395.097656 L 473.492188 396.597656 L 467.5 396.597656 Z M 476.488281 395.097656 L 479.460938 395.097656 C 479.875 395.097656 480.210938 395.433594 480.210938 395.847656 C 480.210938 396.261719 479.875 396.597656 479.460938 396.597656 L 476.488281 396.597656 Z M 476.488281 395.097656 "/>
<path style=" stroke:none;fill-rule:nonzero;fill:rgb(0%,0%,0%);fill-opacity:1;" d="M 480.210938 395.847656 L 480.210938 401.839844 L 478.710938 401.839844 L 478.710938 395.847656 C 478.710938 395.433594 479.046875 395.097656 479.460938 395.097656 C 479.875 395.097656 480.210938 395.433594 480.210938 395.847656 Z M 480.210938 404.835938 L 480.210938 410.828125 L 478.710938 410.828125 L 478.710938 404.835938 Z M 480.210938 413.824219 L 480.210938 419.816406 L 478.710938 419.816406 L 478.710938 413.824219 Z M 480.210938 422.8125 L 480.210938 428.804688 L 478.710938 428.804688 L 478.710938 422.8125 Z M 480.210938 431.800781 L 480.210938 437.789062 L 478.710938 437.789062 L 478.710938 431.800781 Z M 480.210938 440.785156 L 480.210938 446.777344 L 478.710938 446.777344 L 478.710938 440.785156 Z M 480.210938 449.773438 L 480.210938 455.765625 L 478.710938 455.765625 L 478.710938 449.773438 Z M 480.210938 458.761719 L 480.210938 464.753906 L 478.710938 464.753906 L 478.710938 458.761719 Z M 480.210938 467.75 L 480.210938 473.742188 L 478.710938 473.742188 L 478.710938 467.75 Z M 480.210938 476.738281 L 480.210938 482.730469 L 478.710938 482.730469 L 478.710938 476.738281 Z M 480.210938 485.726562 L 480.210938 491.71875 L 478.710938 491.71875 L 478.710938 485.726562 Z M 480.210938 494.714844 L 480.210938 500.707031 L 478.710938 500.707031 L 478.710938 494.714844 Z M 480.210938 503.703125 L 480.210938 509.695312 L 478.710938 509.695312 L 478.710938 503.703125 Z M 480.210938 512.691406 L 480.210938 518.679688 L 478.710938 518.679688 L 478.710938 512.691406 Z M 480.210938 521.675781 L 480.210938 527.011719 C 480.210938 527.425781 479.875 527.761719 479.460938 527.761719 C 479.046875 527.761719 478.710938 527.425781 478.710938 527.011719 L 478.710938 521.675781 Z M 480.210938 521.675781 "/>
<path style=" stroke:none;fill-rule:nonzero;fill:rgb(0%,0%,0%);fill-opacity:1;" d="M 206.914062 460.683594 L 212.90625 460.683594 L 212.90625 462.179688 L 206.914062 462.179688 C 206.503906 462.179688 206.167969 461.84375 206.167969 461.433594 C 206.167969 461.019531 206.503906 460.683594 206.914062 460.683594 Z M 215.902344 460.683594 L 221.890625 460.683594 L 221.890625 462.179688 L 215.902344 462.179688 Z M 224.886719 460.683594 L 230.878906 460.683594 L 230.878906 462.179688 L 224.886719 462.179688 Z M 233.871094 460.683594 L 239.863281 460.683594 L 239.863281 462.179688 L 233.871094 462.179688 Z M 242.859375 460.683594 L 248.847656 460.683594 L 248.847656 462.179688 L 242.859375 462.179688 Z M 251.84375 460.683594 L 257.835938 460.683594 L 257.835938 462.179688 L 251.84375 462.179688 Z M 260.828125 460.683594 L 266.820312 460.683594 L 266.820312 462.179688 L 260.828125 462.179688 Z M 269.816406 460.683594 L 275.804688 460.683594 L 275.804688 462.179688 L 269.816406 462.179688 Z M 278.800781 460.683594 L 284.792969 460.683594 L 284.792969 462.179688 L 278.800781 462.179688 Z M 287.785156 460.683594 L 293.777344 460.683594 L 293.777344 462.179688 L 287.785156 462.179688 Z M 296.773438 460.683594 L 302.761719 460.683594 L 302.761719 462.179688 L 296.773438 462.179688 Z M 305.757812 460.683594 L 311.75 460.683594 L 311.75 462.179688 L 305.757812 462.179688 Z M 314.742188 460.683594 L 320.734375 460.683594 L 320.734375 462.179688 L 314.742188 462.179688 Z M 323.730469 460.683594 L 329.71875 460.683594 L 329.71875 462.179688 L 323.730469 462.179688 Z M 332.714844 460.683594 L 338.707031 460.683594 L 338.707031 462.179688 L 332.714844 462.179688 Z M 341.699219 460.683594 L 347.691406 460.683594 L 347.691406 462.179688 L 341.699219 462.179688 Z M 350.6875 460.683594 L 356.675781 460.683594 L 356.675781 462.179688 L 350.6875 462.179688 Z M 359.671875 460.683594 L 365.664062 460.683594 L 365.664062 462.179688 L 359.671875 462.179688 Z M 368.65625 460.683594 L 374.648438 460.683594 L 374.648438 462.179688 L 368.65625 462.179688 Z M 377.644531 460.683594 L 383.632812 460.683594 L 383.632812 462.179688 L 377.644531 462.179688 Z M 386.628906 460.683594 L 392.621094 460.683594 L 392.621094 462.179688 L 386.628906 462.179688 Z M 395.613281 460.683594 L 401.605469 460.683594 L 401.605469 462.179688 L 395.613281 462.179688 Z M 404.601562 460.683594 L 410.589844 460.683594 L 410.589844 462.179688 L 404.601562 462.179688 Z M 413.585938 460.683594 L 419.578125 460.683594 L 419.578125 462.179688 L 413.585938 462.179688 Z M 422.574219 460.683594 L 428.5625 460.683594 L 428.5625 462.179688 L 422.574219 462.179688 Z M 431.558594 460.683594 L 437.546875 460.683594 L 437.546875 462.179688 L 431.558594 462.179688 Z M 440.542969 460.683594 L 446.535156 460.683594 L 446.535156 462.179688 L 440.542969 462.179688 Z M 449.53125 460.683594 L 455.519531 460.683594 L 455.519531 462.179688 L 449.53125 462.179688 Z M 458.515625 460.683594 L 464.503906 460.683594 L 464.503906 462.179688 L 458.515625 462.179688 Z M 467.5 460.683594 L 473.492188 460.683594 L 473.492188 462.179688 L 467.5 462.179688 Z M 476.488281 460.683594 L 479.460938 460.683594 C 479.875 460.683594 480.210938 461.019531 480.210938 461.433594 C 480.210938 461.84375 479.875 462.179688 479.460938 462.179688 L 476.488281 462.179688 Z M 476.488281 460.683594 "/>
<path style=" stroke:none;fill-rule:evenodd;fill:rgb(0%,0%,0%);fill-opacity:1;" d="M 522.953125 473.328125 C 520.527344 473.25 518.167969 473.210938 515.871094 473.210938 C 513.578125 473.210938 511.214844 473.25 508.789062 473.328125 L 508.789062 471.675781 L 510.15625 471.675781 C 510.589844 471.675781 511 471.667969 511.378906 471.65625 C 511.761719 471.644531 512.125 471.613281 512.46875 471.5625 C 512.8125 471.511719 513.109375 471.457031 513.359375 471.40625 C 513.570312 471.367188 513.746094 471.25 513.882812 471.050781 C 514.023438 470.855469 514.089844 470.632812 514.089844 470.386719 L 514.089844 448.738281 C 513.433594 449.058594 512.621094 449.304688 511.65625 449.46875 C 510.695312 449.636719 509.640625 449.71875 508.492188 449.71875 L 508.492188 448.085938 C 510.074219 448.085938 511.535156 447.898438 512.875 447.519531 C 514.214844 447.140625 515.371094 446.433594 516.347656 445.394531 L 516.960938 445.394531 C 517.394531 445.394531 517.613281 445.605469 517.613281 446.027344 L 517.613281 470.386719 C 517.613281 470.644531 517.675781 470.871094 517.808594 471.0625 C 517.941406 471.253906 518.132812 471.367188 518.382812 471.40625 C 518.59375 471.457031 518.867188 471.511719 519.195312 471.5625 C 519.523438 471.613281 519.898438 471.644531 520.3125 471.65625 C 520.726562 471.667969 521.132812 471.675781 521.527344 471.675781 L 522.953125 471.675781 Z M 522.953125 473.328125 "/>
<path style="fill:none;stroke-width:0.268;stroke-linecap:round;stroke-linejoin:round;stroke:rgb(0%,0%,0%);stroke-opacity:1;stroke-miterlimit:10;" d="M 6.40946 6.990372 L 11.099808 6.990374 " transform="matrix(5.990527,0.00000180478,-0.00000240988,-5.991912,496.353969,503.315375)"/>
<path style=" stroke:none;fill-rule:evenodd;fill:rgb(0%,0%,0%);fill-opacity:1;" d="M 598.074219 457.945312 C 597.585938 459.773438 596.90625 461.539062 596.011719 463.238281 C 595.125 464.9375 594.078125 466.476562 592.863281 467.863281 C 592.863281 468.503906 592.878906 469.125 592.902344 469.726562 C 592.933594 470.328125 592.992188 470.855469 593.089844 471.304688 C 593.179688 471.753906 593.304688 472.09375 593.449219 472.3125 C 593.597656 472.535156 593.789062 472.648438 594.035156 472.644531 C 594.480469 472.648438 594.902344 472.472656 595.304688 472.117188 C 595.710938 471.765625 595.976562 471.339844 596.097656 470.84375 C 596.175781 470.476562 596.414062 470.292969 596.804688 470.292969 L 597.042969 470.292969 C 597.355469 470.292969 597.523438 470.453125 597.546875 470.765625 L 597.546875 470.902344 C 597.457031 471.320312 597.289062 471.714844 597.042969 472.078125 C 596.804688 472.445312 596.507812 472.769531 596.164062 473.050781 C 595.820312 473.328125 595.449219 473.546875 595.042969 473.703125 C 594.640625 473.859375 594.214844 473.941406 593.773438 473.941406 C 592.605469 473.941406 591.710938 473.589844 591.105469 472.882812 C 590.5 472.175781 590.113281 471.4375 589.9375 470.667969 C 588.765625 471.621094 587.429688 472.40625 585.917969 473.019531 C 584.414062 473.632812 582.84375 473.9375 581.214844 473.9375 C 580.035156 473.9375 578.957031 473.699219 577.988281 473.214844 C 577.015625 472.734375 576.25 472.039062 575.6875 471.136719 C 575.082031 470.261719 574.703125 469.25 574.554688 468.097656 C 574.5 467.773438 574.476562 467.417969 574.476562 467.039062 C 574.476562 466.257812 574.589844 465.445312 574.816406 464.609375 C 575.140625 463.394531 575.65625 462.226562 576.363281 461.113281 C 577.070312 459.992188 577.945312 458.984375 578.992188 458.082031 C 580.019531 457.246094 581.125 456.582031 582.316406 456.09375 C 583.511719 455.601562 584.695312 455.359375 585.882812 455.355469 C 587.007812 455.359375 588.007812 455.570312 588.878906 455.996094 C 589.746094 456.417969 590.476562 456.992188 591.074219 457.710938 C 591.675781 458.429688 592.125 459.269531 592.417969 460.230469 C 592.71875 461.1875 592.863281 462.199219 592.863281 463.257812 L 592.863281 465.84375 C 593.582031 464.917969 594.292969 463.734375 595.007812 462.296875 C 595.71875 460.859375 596.265625 459.390625 596.640625 457.886719 C 596.71875 457.519531 596.957031 457.332031 597.347656 457.316406 L 597.546875 457.316406 C 597.898438 457.316406 598.074219 457.476562 598.074219 457.785156 Z M 589.675781 469.273438 C 589.664062 469.183594 589.652344 469.046875 589.632812 468.863281 C 589.621094 468.679688 589.613281 468.496094 589.613281 468.3125 L 589.613281 463.902344 C 589.613281 462.949219 589.546875 462.039062 589.421875 461.171875 C 589.296875 460.300781 589.085938 459.527344 588.800781 458.847656 C 588.507812 458.167969 588.109375 457.636719 587.609375 457.25 C 587.097656 456.863281 586.445312 456.671875 585.636719 456.671875 C 584.882812 456.671875 584.121094 456.871094 583.355469 457.269531 C 582.585938 457.667969 581.90625 458.214844 581.300781 458.90625 C 580.542969 459.742188 579.96875 460.652344 579.574219 461.640625 C 579.171875 462.628906 578.84375 463.648438 578.574219 464.707031 C 578.304688 465.753906 578.105469 466.761719 577.988281 467.726562 C 577.957031 467.976562 577.945312 468.222656 577.945312 468.46875 C 577.945312 469.164062 578.058594 469.832031 578.292969 470.46875 C 578.542969 471.125 578.945312 471.652344 579.476562 472.050781 C 580.019531 472.449219 580.664062 472.648438 581.417969 472.644531 C 582.941406 472.648438 584.402344 472.347656 585.808594 471.746094 C 587.21875 471.144531 588.507812 470.320312 589.675781 469.273438 Z M 589.675781 469.273438 "/>
</g>
</svg>
