<?xml version="1.0" encoding="UTF-8"?>
<svg xmlns="http://www.w3.org/2000/svg" xmlns:xlink="http://www.w3.org/1999/xlink" width="578.04pt" height="758.04pt" viewBox="0 0 578.04 758.04" version="1.2">
<defs>
<clipPath id="clip1">
  <path d="M 220 27.578125 L 231 27.578125 L 231 63 L 220 63 Z M 220 27.578125 "/>
</clipPath>
<clipPath id="clip2">
  <path d="M 341 27.578125 L 352 27.578125 L 352 63 L 341 63 Z M 341 27.578125 "/>
</clipPath>
<clipPath id="clip3">
  <path d="M 57.113281 201.511719 L 69 201.511719 L 69 237 L 57.113281 237 Z M 57.113281 201.511719 "/>
</clipPath>
<clipPath id="clip4">
  <path d="M 136 201.511719 L 147 201.511719 L 147 237 L 136 237 Z M 136 201.511719 "/>
</clipPath>
<clipPath id="clip5">
  <path d="M 241 346.074219 L 252 346.074219 L 252 382 L 241 382 Z M 241 346.074219 "/>
</clipPath>
<clipPath id="clip6">
  <path d="M 320 346.074219 L 331 346.074219 L 331 382 L 320 382 Z M 320 346.074219 "/>
</clipPath>
<clipPath id="clip7">
  <path d="M 432 201.511719 L 443 201.511719 L 443 237 L 432 237 Z M 432 201.511719 "/>
</clipPath>
<clipPath id="clip8">
  <path d="M 512 201.511719 L 523 201.511719 L 523 237 L 512 237 Z M 512 201.511719 "/>
</clipPath>
<clipPath id="clip9">
  <path d="M 16.023438 469.191406 L 28 469.191406 L 28 505 L 16.023438 505 Z M 16.023438 469.191406 "/>
</clipPath>
<clipPath id="clip10">
  <path d="M 50 469.191406 L 62 469.191406 L 62 505 L 50 505 Z M 50 469.191406 "/>
</clipPath>
<clipPath id="clip11">
  <path d="M 295 496.820312 L 306 496.820312 L 306 532 L 295 532 Z M 295 496.820312 "/>
</clipPath>
<clipPath id="clip12">
  <path d="M 331 496.820312 L 343 496.820312 L 343 532 L 331 532 Z M 331 496.820312 "/>
</clipPath>
<clipPath id="clip13">
  <path d="M 527 476 L 545 476 L 545 504 L 527 504 Z M 527 476 "/>
</clipPath>
<clipPath id="clip14">
  <path d="M 510.996094 511.9375 L 562.703125 511.9375 L 562.703125 474.035156 L 510.996094 474.03125 Z M 510.996094 511.9375 "/>
</clipPath>
<clipPath id="clip15">
  <path d="M 511 474 L 523 474 L 523 509 L 511 509 Z M 511 474 "/>
</clipPath>
<clipPath id="clip16">
  <path d="M 510.996094 511.9375 L 562.703125 511.9375 L 562.703125 474.035156 L 510.996094 474.03125 Z M 510.996094 511.9375 "/>
</clipPath>
<clipPath id="clip17">
  <path d="M 549 474 L 560 474 L 560 509 L 549 509 Z M 549 474 "/>
</clipPath>
<clipPath id="clip18">
  <path d="M 510.996094 511.9375 L 562.703125 511.9375 L 562.703125 474.035156 L 510.996094 474.03125 Z M 510.996094 511.9375 "/>
</clipPath>
</defs>
<g id="surface1">
<path style=" stroke:none;fill-rule:evenodd;fill:rgb(0%,0%,0%);fill-opacity:1;" d="M 291.246094 100.101562 C 291.246094 102.992188 288.902344 105.335938 286.011719 105.335938 C 283.121094 105.335938 280.777344 102.992188 280.777344 100.101562 C 280.777344 97.210938 283.121094 94.867188 286.011719 94.867188 C 288.902344 94.867188 291.246094 97.210938 291.246094 100.101562 Z M 291.246094 100.101562 "/>
<path style=" stroke:none;fill-rule:evenodd;fill:rgb(0%,0%,0%);fill-opacity:1;" d="M 249.402344 56.199219 C 247.140625 56.128906 244.941406 56.09375 242.800781 56.09375 C 240.664062 56.09375 238.464844 56.128906 236.199219 56.199219 L 236.199219 54.660156 L 237.472656 54.660156 C 237.878906 54.664062 238.261719 54.65625 238.617188 54.644531 C 238.972656 54.632812 239.3125 54.601562 239.632812 54.554688 C 239.953125 54.507812 240.226562 54.460938 240.460938 54.410156 C 240.65625 54.375 240.820312 54.265625 240.949219 54.082031 C 241.078125 53.894531 241.144531 53.691406 241.144531 53.460938 L 241.144531 33.289062 C 240.527344 33.589844 239.773438 33.816406 238.875 33.96875 C 237.976562 34.125 236.996094 34.203125 235.925781 34.203125 L 235.925781 32.679688 C 237.402344 32.679688 238.761719 32.503906 240.007812 32.152344 C 241.257812 31.800781 242.335938 31.140625 243.246094 30.175781 L 243.816406 30.175781 C 244.222656 30.175781 244.425781 30.371094 244.425781 30.765625 L 244.425781 53.460938 C 244.425781 53.703125 244.484375 53.910156 244.609375 54.089844 C 244.730469 54.269531 244.910156 54.375 245.144531 54.410156 C 245.339844 54.460938 245.59375 54.507812 245.898438 54.554688 C 246.207031 54.601562 246.554688 54.632812 246.941406 54.644531 C 247.328125 54.65625 247.707031 54.664062 248.074219 54.660156 L 249.402344 54.660156 Z M 249.402344 56.199219 "/>
<path style=" stroke:none;fill-rule:evenodd;fill:rgb(0%,0%,0%);fill-opacity:1;" d="M 264.644531 56.058594 C 264.644531 57.484375 264.359375 58.828125 263.773438 60.097656 C 263.191406 61.363281 262.371094 62.484375 261.320312 63.457031 C 261.207031 63.53125 261.078125 63.566406 260.941406 63.566406 C 260.839844 63.566406 260.707031 63.53125 260.546875 63.457031 L 260.453125 63.3125 C 260.355469 63.214844 260.300781 63.105469 260.300781 62.980469 C 260.300781 62.871094 260.355469 62.746094 260.453125 62.597656 C 261.40625 61.722656 262.136719 60.722656 262.644531 59.601562 C 263.152344 58.484375 263.40625 57.300781 263.40625 56.058594 C 263.40625 55.976562 263.402344 55.882812 263.390625 55.777344 C 263.378906 55.675781 263.367188 55.738281 263.367188 55.96875 C 263.167969 56.199219 262.703125 56.316406 261.976562 56.316406 C 261.25 56.316406 260.695312 56.089844 260.320312 55.640625 C 259.941406 55.191406 259.753906 54.691406 259.753906 54.140625 C 259.753906 53.59375 259.941406 53.097656 260.320312 52.652344 C 260.695312 52.210938 261.25 51.988281 261.976562 51.984375 C 262.515625 51.988281 262.953125 52.125 263.292969 52.398438 C 263.632812 52.671875 263.902344 53.003906 264.101562 53.394531 C 264.300781 53.785156 264.445312 54.214844 264.527344 54.691406 C 264.605469 55.164062 264.644531 55.621094 264.644531 56.058594 Z M 264.644531 56.058594 "/>
<path style=" stroke:none;fill-rule:evenodd;fill:rgb(0%,0%,0%);fill-opacity:1;" d="M 291.558594 56.199219 L 276.550781 56.199219 L 276.550781 55.214844 C 276.550781 55.144531 276.585938 55.039062 276.660156 54.894531 L 282.6875 48.34375 C 283.402344 47.554688 284.125 46.75 284.855469 45.925781 C 285.585938 45.105469 286.242188 44.261719 286.820312 43.402344 C 287.398438 42.542969 287.855469 41.65625 288.203125 40.746094 C 288.546875 39.832031 288.71875 38.875 288.71875 37.871094 C 288.71875 37.023438 288.605469 36.234375 288.386719 35.5 C 288.164062 34.765625 287.84375 34.121094 287.429688 33.566406 C 287.011719 33.011719 286.488281 32.566406 285.859375 32.226562 C 285.230469 31.882812 284.511719 31.714844 283.683594 31.714844 C 282.457031 31.714844 281.371094 32.082031 280.429688 32.816406 C 279.492188 33.550781 278.867188 34.359375 278.558594 35.238281 C 278.5 35.265625 278.601562 35.277344 278.855469 35.277344 L 279.171875 35.277344 C 279.535156 35.359375 279.855469 35.488281 280.128906 35.660156 C 280.398438 35.835938 280.625 36.074219 280.808594 36.378906 C 280.992188 36.683594 281.085938 37.046875 281.085938 37.476562 C 281.085938 38.195312 280.851562 38.742188 280.386719 39.125 C 279.917969 39.507812 279.398438 39.699219 278.820312 39.695312 C 278.265625 39.699219 277.75 39.507812 277.273438 39.125 C 276.792969 38.742188 276.550781 38.195312 276.550781 37.476562 C 276.550781 36.476562 276.75 35.527344 277.140625 34.632812 C 277.535156 33.738281 278.070312 32.960938 278.742188 32.304688 C 279.421875 31.648438 280.21875 31.128906 281.140625 30.75 C 282.0625 30.367188 283.042969 30.175781 284.070312 30.175781 C 285.351562 30.175781 286.519531 30.363281 287.585938 30.738281 C 288.644531 31.113281 289.554688 31.65625 290.300781 32.359375 C 291.050781 33.0625 291.640625 33.878906 292.0625 34.800781 C 292.488281 35.726562 292.699219 36.75 292.699219 37.871094 C 292.699219 39.113281 292.417969 40.257812 291.851562 41.300781 C 291.285156 42.34375 290.585938 43.300781 289.75 44.171875 C 288.914062 45.042969 288.027344 45.863281 287.085938 46.632812 C 286.144531 47.402344 285.296875 48.152344 284.535156 48.878906 L 280.292969 52.871094 L 285.84375 52.871094 C 286.617188 52.871094 287.335938 52.867188 288.007812 52.855469 C 288.679688 52.84375 289.246094 52.820312 289.714844 52.78125 C 290.179688 52.746094 290.421875 52.722656 290.433594 52.710938 C 290.527344 52.628906 290.625 52.460938 290.707031 52.210938 C 290.796875 51.960938 290.875 51.664062 290.945312 51.324219 C 291.023438 50.984375 291.09375 50.636719 291.171875 50.285156 C 291.242188 49.933594 291.308594 49.546875 291.375 49.128906 L 292.738281 49.128906 Z M 291.558594 56.199219 "/>
<path style=" stroke:none;fill-rule:evenodd;fill:rgb(0%,0%,0%);fill-opacity:1;" d="M 306.742188 56.058594 C 306.742188 57.484375 306.453125 58.828125 305.871094 60.097656 C 305.289062 61.363281 304.472656 62.484375 303.417969 63.457031 C 303.304688 63.53125 303.179688 63.566406 303.039062 63.566406 C 302.9375 63.566406 302.808594 63.53125 302.644531 63.457031 L 302.550781 63.3125 C 302.449219 63.214844 302.402344 63.105469 302.402344 62.980469 C 302.402344 62.871094 302.449219 62.746094 302.550781 62.597656 C 303.503906 61.722656 304.234375 60.722656 304.742188 59.601562 C 305.253906 58.484375 305.503906 57.300781 305.503906 56.058594 C 305.503906 55.976562 305.5 55.882812 305.488281 55.777344 C 305.472656 55.675781 305.46875 55.738281 305.46875 55.96875 C 305.265625 56.199219 304.800781 56.316406 304.074219 56.316406 C 303.347656 56.316406 302.796875 56.089844 302.421875 55.640625 C 302.042969 55.191406 301.855469 54.691406 301.855469 54.140625 C 301.855469 53.59375 302.042969 53.097656 302.421875 52.652344 C 302.796875 52.210938 303.347656 51.988281 304.074219 51.984375 C 304.613281 51.988281 305.054688 52.125 305.390625 52.398438 C 305.730469 52.671875 306 53.003906 306.203125 53.394531 C 306.402344 53.785156 306.539062 54.214844 306.625 54.691406 C 306.703125 55.164062 306.742188 55.621094 306.742188 56.058594 Z M 306.742188 56.058594 "/>
<path style=" stroke:none;fill-rule:evenodd;fill:rgb(0%,0%,0%);fill-opacity:1;" d="M 335.152344 49.453125 C 335.152344 50.480469 334.925781 51.464844 334.46875 52.40625 C 334.015625 53.351562 333.40625 54.15625 332.644531 54.820312 C 331.785156 55.574219 330.832031 56.132812 329.796875 56.496094 C 328.757812 56.859375 327.671875 57.042969 326.542969 57.042969 C 325.519531 57.042969 324.527344 56.898438 323.558594 56.613281 C 322.585938 56.324219 321.710938 55.914062 320.929688 55.378906 C 320.148438 54.839844 319.527344 54.183594 319.058594 53.398438 C 318.59375 52.621094 318.355469 51.722656 318.355469 50.707031 C 318.355469 49.941406 318.613281 49.371094 319.125 48.996094 C 319.632812 48.621094 320.167969 48.433594 320.734375 48.433594 C 321.324219 48.433594 321.875 48.621094 322.386719 48.996094 C 322.894531 49.371094 323.152344 49.941406 323.152344 50.707031 C 323.152344 51.160156 323.0625 51.539062 322.882812 51.84375 C 322.703125 52.148438 322.476562 52.402344 322.203125 52.605469 C 321.921875 52.808594 321.609375 52.929688 321.253906 52.980469 C 321.070312 53.027344 320.894531 53.050781 320.734375 53.050781 C 320.574219 53.050781 320.550781 53.0625 320.664062 53.085938 C 321.042969 53.753906 321.792969 54.347656 322.910156 54.859375 C 324.027344 55.371094 325.238281 55.628906 326.542969 55.628906 C 327.15625 55.628906 327.730469 55.476562 328.265625 55.171875 C 328.796875 54.867188 329.246094 54.460938 329.605469 53.945312 C 330.046875 53.277344 330.347656 52.5625 330.503906 51.796875 C 330.664062 51.035156 330.746094 50.253906 330.746094 49.453125 C 330.746094 48.628906 330.664062 47.839844 330.503906 47.082031 C 330.347656 46.324219 330.046875 45.621094 329.605469 44.976562 C 329.234375 44.453125 328.78125 44.03125 328.257812 43.707031 C 327.730469 43.386719 327.15625 43.222656 326.542969 43.222656 L 323.867188 43.222656 C 323.515625 43.222656 323.324219 43.058594 323.296875 42.722656 L 323.296875 42.523438 C 323.296875 42.382812 323.34375 42.269531 323.425781 42.183594 C 323.539062 42.078125 323.675781 42.023438 323.847656 42.023438 C 324.207031 41.976562 324.574219 41.953125 324.957031 41.953125 C 325.324219 41.953125 325.6875 41.929688 326.042969 41.878906 C 326.707031 41.832031 327.285156 41.628906 327.777344 41.265625 C 328.269531 40.902344 328.679688 40.433594 329.007812 39.867188 C 329.34375 39.300781 329.597656 38.648438 329.765625 37.90625 C 329.9375 37.167969 330.027344 36.410156 330.027344 35.632812 C 330.027344 35.0625 329.960938 34.519531 329.84375 34.007812 C 329.71875 33.492188 329.492188 33.042969 329.15625 32.664062 C 328.472656 31.875 327.597656 31.488281 326.542969 31.5 C 325.414062 31.5 324.375 31.710938 323.4375 32.136719 C 322.496094 32.558594 321.867188 33.015625 321.542969 33.503906 C 321.460938 33.515625 321.503906 33.523438 321.675781 33.519531 C 322.117188 33.523438 322.535156 33.652344 322.929688 33.914062 C 323.519531 34.261719 323.8125 34.847656 323.8125 35.667969 C 323.8125 36.363281 323.589844 36.886719 323.140625 37.238281 C 322.691406 37.589844 322.191406 37.765625 321.640625 37.765625 C 321.097656 37.765625 320.589844 37.59375 320.117188 37.246094 C 319.644531 36.898438 319.40625 36.375 319.40625 35.667969 C 319.40625 34.800781 319.617188 34.03125 320.03125 33.363281 C 320.449219 32.695312 320.988281 32.121094 321.648438 31.644531 C 322.304688 31.167969 323.0625 30.800781 323.925781 30.550781 C 324.785156 30.300781 325.65625 30.175781 326.542969 30.175781 C 327.484375 30.175781 328.402344 30.300781 329.289062 30.550781 C 330.175781 30.800781 331.007812 31.191406 331.792969 31.714844 C 332.433594 32.167969 332.972656 32.726562 333.410156 33.386719 C 333.84375 34.050781 334.0625 34.800781 334.0625 35.632812 C 334.0625 36.46875 333.910156 37.257812 333.613281 37.996094 C 333.3125 38.738281 332.910156 39.40625 332.414062 40.003906 C 331.917969 40.597656 331.324219 41.125 330.632812 41.578125 C 329.945312 42.03125 329.429688 42.316406 329.085938 42.4375 C 329.378906 42.472656 329.886719 42.648438 330.597656 42.964844 C 331.3125 43.28125 331.992188 43.703125 332.644531 44.226562 C 333.40625 44.882812 334.015625 45.667969 334.46875 46.582031 C 334.925781 47.492188 335.152344 48.449219 335.152344 49.453125 Z M 335.152344 49.453125 "/>
<g clip-path="url(#clip1)" clip-rule="nonzero">
<path style=" stroke:none;fill-rule:evenodd;fill:rgb(0%,0%,0%);fill-opacity:1;" d="M 229.429688 27.714844 C 226.433594 28.804688 224.441406 31.652344 224.441406 34.839844 L 224.441406 39.027344 C 224.441406 41.585938 222.839844 43.871094 220.433594 44.746094 L 220.433594 45.480469 C 222.839844 46.355469 224.441406 48.644531 224.441406 51.203125 L 224.441406 55.390625 C 224.441406 58.578125 226.433594 61.425781 229.429688 62.515625 L 230.949219 62.402344 C 228.804688 61.402344 227.433594 59.25 227.433594 56.886719 L 227.433594 51.203125 C 227.433594 48.644531 225.832031 46.355469 223.425781 45.480469 L 223.425781 44.746094 C 225.832031 43.871094 227.433594 41.585938 227.433594 39.027344 L 227.433594 33.34375 C 227.433594 30.980469 228.804688 28.828125 230.949219 27.828125 "/>
</g>
<g clip-path="url(#clip2)" clip-rule="nonzero">
<path style=" stroke:none;fill-rule:evenodd;fill:rgb(0%,0%,0%);fill-opacity:1;" d="M 342.597656 62.515625 C 345.59375 61.425781 347.585938 58.578125 347.585938 55.390625 L 347.585938 51.203125 C 347.585938 48.644531 349.1875 46.355469 351.589844 45.480469 L 351.589844 44.746094 C 349.1875 43.871094 347.585938 41.585938 347.585938 39.027344 L 347.585938 34.839844 C 347.585938 31.652344 345.59375 28.804688 342.597656 27.714844 L 341.078125 27.828125 C 343.222656 28.828125 344.59375 30.980469 344.59375 33.34375 L 344.59375 39.027344 C 344.59375 41.585938 346.195312 43.871094 348.597656 44.746094 L 348.597656 45.480469 C 346.195312 46.355469 344.59375 48.644531 344.59375 51.203125 L 344.59375 56.886719 C 344.59375 59.25 343.222656 61.402344 341.078125 62.402344 "/>
</g>
<path style=" stroke:none;fill-rule:evenodd;fill:rgb(0%,0%,0%);fill-opacity:1;" d="M 107.65625 274.035156 C 107.65625 276.925781 105.3125 279.269531 102.421875 279.269531 C 99.527344 279.269531 97.1875 276.925781 97.1875 274.035156 C 97.1875 271.144531 99.527344 268.800781 102.421875 268.800781 C 105.3125 268.800781 107.65625 271.144531 107.65625 274.035156 Z M 107.65625 274.035156 "/>
<path style=" stroke:none;fill-rule:evenodd;fill:rgb(0%,0%,0%);fill-opacity:1;" d="M 86.859375 230.132812 C 84.597656 230.0625 82.398438 230.023438 80.257812 230.023438 C 78.121094 230.023438 75.921875 230.0625 73.65625 230.132812 L 73.65625 228.59375 L 74.929688 228.59375 C 75.335938 228.59375 75.71875 228.589844 76.074219 228.578125 C 76.429688 228.566406 76.769531 228.535156 77.085938 228.488281 C 77.40625 228.441406 77.683594 228.390625 77.917969 228.34375 C 78.113281 228.308594 78.277344 228.199219 78.40625 228.011719 C 78.535156 227.828125 78.597656 227.621094 78.597656 227.394531 L 78.597656 207.222656 C 77.984375 207.519531 77.230469 207.746094 76.332031 207.902344 C 75.433594 208.058594 74.449219 208.136719 73.382812 208.132812 L 73.382812 206.613281 C 74.855469 206.613281 76.21875 206.4375 77.464844 206.085938 C 78.714844 205.734375 79.792969 205.074219 80.703125 204.105469 L 81.273438 204.105469 C 81.679688 204.105469 81.878906 204.304688 81.878906 204.695312 L 81.878906 227.394531 C 81.878906 227.632812 81.941406 227.84375 82.066406 228.023438 C 82.1875 228.199219 82.367188 228.308594 82.601562 228.34375 C 82.796875 228.390625 83.050781 228.441406 83.355469 228.488281 C 83.664062 228.535156 84.011719 228.566406 84.398438 228.578125 C 84.785156 228.589844 85.164062 228.59375 85.53125 228.59375 L 86.859375 228.59375 Z M 86.859375 230.132812 "/>
<path style=" stroke:none;fill-rule:evenodd;fill:rgb(0%,0%,0%);fill-opacity:1;" d="M 102.101562 229.992188 C 102.101562 231.414062 101.816406 232.761719 101.226562 234.027344 C 100.644531 235.296875 99.828125 236.414062 98.777344 237.390625 C 98.664062 237.460938 98.535156 237.5 98.398438 237.5 C 98.296875 237.5 98.164062 237.460938 98.003906 237.390625 L 97.910156 237.242188 C 97.8125 237.144531 97.757812 237.035156 97.757812 236.914062 C 97.757812 236.804688 97.8125 236.675781 97.910156 236.53125 C 98.863281 235.652344 99.59375 234.65625 100.101562 233.535156 C 100.609375 232.414062 100.863281 231.234375 100.863281 229.992188 C 100.863281 229.90625 100.859375 229.8125 100.84375 229.710938 C 100.832031 229.605469 100.824219 229.667969 100.824219 229.898438 C 100.625 230.132812 100.160156 230.246094 99.433594 230.246094 C 98.707031 230.246094 98.152344 230.023438 97.777344 229.574219 C 97.398438 229.121094 97.210938 228.621094 97.210938 228.074219 C 97.210938 227.527344 97.398438 227.03125 97.777344 226.585938 C 98.152344 226.140625 98.707031 225.917969 99.433594 225.917969 C 99.972656 225.917969 100.410156 226.054688 100.75 226.332031 C 101.089844 226.605469 101.359375 226.9375 101.558594 227.324219 C 101.757812 227.714844 101.902344 228.148438 101.980469 228.621094 C 102.0625 229.097656 102.101562 229.554688 102.101562 229.992188 Z M 102.101562 229.992188 "/>
<path style=" stroke:none;fill-rule:evenodd;fill:rgb(0%,0%,0%);fill-opacity:1;" d="M 129.015625 230.132812 L 114.011719 230.132812 L 114.011719 229.148438 C 114.011719 229.078125 114.046875 228.96875 114.121094 228.824219 L 120.148438 222.273438 C 120.863281 221.488281 121.582031 220.683594 122.316406 219.859375 C 123.046875 219.035156 123.703125 218.195312 124.28125 217.335938 C 124.855469 216.476562 125.316406 215.589844 125.660156 214.675781 C 126.007812 213.765625 126.179688 212.804688 126.179688 211.804688 C 126.179688 210.957031 126.066406 210.167969 125.847656 209.433594 C 125.625 208.699219 125.304688 208.054688 124.886719 207.5 C 124.46875 206.945312 123.945312 206.496094 123.320312 206.15625 C 122.691406 205.816406 121.964844 205.648438 121.144531 205.644531 C 119.917969 205.648438 118.832031 206.015625 117.890625 206.746094 C 116.949219 207.480469 116.328125 208.289062 116.019531 209.171875 C 115.960938 209.195312 116.054688 209.210938 116.316406 209.207031 L 116.625 209.207031 C 116.996094 209.292969 117.316406 209.421875 117.585938 209.59375 C 117.859375 209.765625 118.085938 210.003906 118.269531 210.308594 C 118.453125 210.613281 118.542969 210.980469 118.542969 211.410156 C 118.542969 212.125 118.3125 212.675781 117.847656 213.058594 C 117.375 213.441406 116.855469 213.628906 116.28125 213.628906 C 115.726562 213.628906 115.210938 213.441406 114.726562 213.058594 C 114.25 212.675781 114.011719 212.125 114.011719 211.410156 C 114.011719 210.410156 114.207031 209.460938 114.601562 208.566406 C 114.996094 207.667969 115.53125 206.894531 116.203125 206.238281 C 116.878906 205.582031 117.679688 205.0625 118.601562 204.679688 C 119.523438 204.296875 120.5 204.105469 121.53125 204.105469 C 122.808594 204.105469 123.980469 204.296875 125.046875 204.671875 C 126.105469 205.046875 127.011719 205.585938 127.761719 206.292969 C 128.511719 206.996094 129.097656 207.808594 129.523438 208.734375 C 129.945312 209.660156 130.160156 210.683594 130.160156 211.804688 C 130.160156 213.046875 129.875 214.1875 129.308594 215.230469 C 128.746094 216.277344 128.042969 217.234375 127.210938 218.105469 C 126.375 218.976562 125.484375 219.796875 124.546875 220.566406 C 123.605469 221.335938 122.757812 222.085938 121.996094 222.8125 L 117.75 226.804688 L 123.304688 226.804688 C 124.078125 226.804688 124.796875 226.796875 125.46875 226.785156 C 126.136719 226.773438 126.703125 226.75 127.171875 226.714844 C 127.640625 226.679688 127.882812 226.65625 127.890625 226.640625 C 127.988281 226.558594 128.082031 226.394531 128.167969 226.140625 C 128.257812 225.890625 128.335938 225.597656 128.40625 225.257812 C 128.484375 224.914062 128.554688 224.570312 128.632812 224.21875 C 128.703125 223.867188 128.769531 223.480469 128.832031 223.0625 L 130.195312 223.0625 Z M 129.015625 230.132812 "/>
<g clip-path="url(#clip3)" clip-rule="nonzero">
<path style=" stroke:none;fill-rule:evenodd;fill:rgb(0%,0%,0%);fill-opacity:1;" d="M 66.886719 201.644531 C 63.890625 202.738281 61.898438 205.585938 61.898438 208.773438 L 61.898438 212.960938 C 61.898438 215.519531 60.296875 217.804688 57.890625 218.679688 L 57.890625 219.414062 C 60.296875 220.289062 61.898438 222.574219 61.898438 225.136719 L 61.898438 229.320312 C 61.898438 232.511719 63.890625 235.359375 66.886719 236.449219 L 68.40625 236.335938 C 66.261719 235.335938 64.890625 233.183594 64.890625 230.816406 L 64.890625 225.136719 C 64.890625 222.574219 63.289062 220.289062 60.882812 219.414062 L 60.882812 218.679688 C 63.289062 217.804688 64.890625 215.519531 64.890625 212.960938 L 64.890625 207.277344 C 64.890625 204.910156 66.261719 202.757812 68.40625 201.757812 "/>
</g>
<g clip-path="url(#clip4)" clip-rule="nonzero">
<path style=" stroke:none;fill-rule:evenodd;fill:rgb(0%,0%,0%);fill-opacity:1;" d="M 137.957031 236.449219 C 140.949219 235.359375 142.945312 232.511719 142.945312 229.320312 L 142.945312 225.136719 C 142.945312 222.574219 144.546875 220.289062 146.953125 219.414062 L 146.953125 218.679688 C 144.546875 217.804688 142.945312 215.519531 142.945312 212.960938 L 142.945312 208.773438 C 142.945312 205.585938 140.949219 202.738281 137.957031 201.644531 L 136.4375 201.757812 C 138.582031 202.757812 139.953125 204.910156 139.953125 207.277344 L 139.953125 212.960938 C 139.953125 215.519531 141.550781 217.804688 143.957031 218.679688 L 143.957031 219.414062 C 141.550781 220.289062 139.953125 222.574219 139.953125 225.136719 L 139.953125 230.816406 C 139.953125 233.183594 138.582031 235.335938 136.4375 236.335938 "/>
</g>
<path style=" stroke:none;fill-rule:evenodd;fill:rgb(0%,0%,0%);fill-opacity:1;" d="M 291.246094 274.035156 C 291.246094 276.925781 288.902344 279.269531 286.011719 279.269531 C 283.121094 279.269531 280.777344 276.925781 280.777344 274.035156 C 280.777344 271.144531 283.121094 268.800781 286.011719 268.800781 C 288.902344 268.800781 291.246094 271.144531 291.246094 274.035156 Z M 291.246094 274.035156 "/>
<path style=" stroke:none;fill-rule:evenodd;fill:rgb(0%,0%,0%);fill-opacity:1;" d="M 270.449219 374.695312 C 268.1875 374.625 265.988281 374.589844 263.847656 374.589844 C 261.710938 374.589844 259.511719 374.625 257.25 374.695312 L 257.25 373.15625 L 258.523438 373.15625 C 258.925781 373.15625 259.308594 373.152344 259.664062 373.140625 C 260.019531 373.128906 260.359375 373.097656 260.679688 373.050781 C 261 373.003906 261.273438 372.953125 261.507812 372.90625 C 261.703125 372.871094 261.867188 372.761719 261.996094 372.574219 C 262.125 372.390625 262.191406 372.183594 262.191406 371.957031 L 262.191406 351.785156 C 261.574219 352.082031 260.820312 352.3125 259.921875 352.464844 C 259.023438 352.621094 258.042969 352.699219 256.972656 352.695312 L 256.972656 351.175781 C 258.449219 351.175781 259.808594 351 261.058594 350.648438 C 262.304688 350.296875 263.382812 349.636719 264.292969 348.667969 L 264.863281 348.667969 C 265.269531 348.671875 265.472656 348.867188 265.472656 349.261719 L 265.472656 371.957031 C 265.472656 372.195312 265.53125 372.40625 265.65625 372.585938 C 265.78125 372.761719 265.957031 372.871094 266.191406 372.90625 C 266.386719 372.953125 266.640625 373.003906 266.945312 373.050781 C 267.253906 373.097656 267.601562 373.128906 267.988281 373.140625 C 268.375 373.152344 268.753906 373.15625 269.121094 373.15625 L 270.449219 373.15625 Z M 270.449219 374.695312 "/>
<path style=" stroke:none;fill-rule:evenodd;fill:rgb(0%,0%,0%);fill-opacity:1;" d="M 285.691406 374.554688 C 285.691406 375.980469 285.40625 377.324219 284.820312 378.589844 C 284.238281 379.859375 283.417969 380.976562 282.367188 381.953125 C 282.253906 382.023438 282.128906 382.0625 281.988281 382.0625 C 281.886719 382.0625 281.757812 382.023438 281.59375 381.953125 L 281.5 381.804688 C 281.402344 381.707031 281.347656 381.597656 281.347656 381.476562 C 281.347656 381.367188 281.402344 381.238281 281.5 381.09375 C 282.453125 380.214844 283.183594 379.21875 283.691406 378.097656 C 284.199219 376.976562 284.453125 375.796875 284.453125 374.554688 C 284.453125 374.46875 284.449219 374.375 284.4375 374.273438 C 284.425781 374.167969 284.417969 374.230469 284.417969 374.464844 C 284.21875 374.695312 283.75 374.808594 283.023438 374.808594 C 282.296875 374.808594 281.746094 374.585938 281.371094 374.136719 C 280.992188 373.683594 280.804688 373.183594 280.804688 372.636719 C 280.804688 372.089844 280.992188 371.59375 281.371094 371.148438 C 281.746094 370.703125 282.296875 370.480469 283.023438 370.480469 C 283.5625 370.480469 284 370.617188 284.339844 370.894531 C 284.679688 371.167969 284.949219 371.5 285.148438 371.890625 C 285.347656 372.277344 285.492188 372.710938 285.574219 373.183594 C 285.652344 373.660156 285.691406 374.117188 285.691406 374.554688 Z M 285.691406 374.554688 "/>
<path style=" stroke:none;fill-rule:evenodd;fill:rgb(0%,0%,0%);fill-opacity:1;" d="M 314.101562 367.949219 C 314.101562 368.972656 313.871094 369.960938 313.417969 370.902344 C 312.964844 371.84375 312.355469 372.652344 311.589844 373.316406 C 310.734375 374.070312 309.785156 374.628906 308.742188 374.992188 C 307.707031 375.355469 306.621094 375.535156 305.488281 375.535156 C 304.472656 375.535156 303.476562 375.394531 302.507812 375.105469 C 301.535156 374.820312 300.660156 374.410156 299.878906 373.875 C 299.097656 373.335938 298.472656 372.675781 298.007812 371.894531 C 297.542969 371.113281 297.304688 370.214844 297.304688 369.199219 C 297.304688 368.4375 297.5625 367.867188 298.070312 367.492188 C 298.582031 367.117188 299.121094 366.929688 299.683594 366.925781 C 300.273438 366.929688 300.824219 367.117188 301.332031 367.492188 C 301.84375 367.867188 302.101562 368.4375 302.101562 369.199219 C 302.101562 369.65625 302.011719 370.035156 301.832031 370.339844 C 301.652344 370.644531 301.425781 370.894531 301.152344 371.097656 C 300.871094 371.300781 300.554688 371.425781 300.203125 371.472656 C 300.019531 371.523438 299.847656 371.546875 299.683594 371.546875 C 299.523438 371.546875 299.5 371.558594 299.609375 371.582031 C 299.988281 372.25 300.738281 372.84375 301.859375 373.355469 C 302.976562 373.867188 304.191406 374.125 305.488281 374.121094 C 306.109375 374.125 306.679688 373.972656 307.214844 373.667969 C 307.75 373.363281 308.199219 372.953125 308.550781 372.441406 C 308.996094 371.773438 309.292969 371.058594 309.453125 370.292969 C 309.613281 369.53125 309.691406 368.75 309.691406 367.949219 C 309.691406 367.125 309.613281 366.335938 309.453125 365.578125 C 309.292969 364.820312 308.996094 364.117188 308.550781 363.472656 C 308.179688 362.949219 307.734375 362.523438 307.203125 362.203125 C 306.679688 361.878906 306.109375 361.71875 305.488281 361.71875 L 302.816406 361.71875 C 302.460938 361.71875 302.269531 361.550781 302.246094 361.21875 L 302.246094 361.019531 C 302.246094 360.878906 302.292969 360.765625 302.375 360.679688 C 302.488281 360.574219 302.625 360.519531 302.800781 360.519531 C 303.15625 360.472656 303.523438 360.449219 303.90625 360.449219 C 304.273438 360.449219 304.636719 360.425781 304.996094 360.375 C 305.65625 360.328125 306.234375 360.125 306.726562 359.757812 C 307.214844 359.394531 307.632812 358.929688 307.960938 358.363281 C 308.292969 357.796875 308.542969 357.144531 308.714844 356.402344 C 308.886719 355.664062 308.976562 354.90625 308.976562 354.128906 C 308.976562 353.558594 308.914062 353.015625 308.792969 352.5 C 308.667969 351.988281 308.441406 351.539062 308.109375 351.15625 C 307.417969 350.371094 306.546875 349.984375 305.488281 349.992188 C 304.359375 349.996094 303.324219 350.207031 302.386719 350.628906 C 301.445312 351.054688 300.816406 351.511719 300.496094 352 C 300.410156 352.011719 300.453125 352.019531 300.625 352.015625 C 301.066406 352.019531 301.484375 352.148438 301.875 352.410156 C 302.46875 352.757812 302.761719 353.34375 302.761719 354.164062 C 302.761719 354.859375 302.539062 355.378906 302.089844 355.730469 C 301.640625 356.085938 301.140625 356.261719 300.589844 356.257812 C 300.046875 356.261719 299.539062 356.085938 299.070312 355.742188 C 298.59375 355.394531 298.359375 354.871094 298.359375 354.164062 C 298.359375 353.292969 298.566406 352.527344 298.984375 351.855469 C 299.402344 351.1875 299.9375 350.617188 300.597656 350.136719 C 301.253906 349.660156 302.011719 349.296875 302.875 349.046875 C 303.734375 348.796875 304.609375 348.671875 305.488281 348.667969 C 306.4375 348.671875 307.351562 348.796875 308.238281 349.046875 C 309.121094 349.296875 309.960938 349.683594 310.746094 350.207031 C 311.382812 350.664062 311.921875 351.222656 312.355469 351.882812 C 312.796875 352.546875 313.011719 353.292969 313.011719 354.128906 C 313.011719 354.964844 312.863281 355.753906 312.5625 356.492188 C 312.261719 357.234375 311.863281 357.902344 311.363281 358.496094 C 310.867188 359.09375 310.269531 359.621094 309.585938 360.074219 C 308.894531 360.527344 308.382812 360.8125 308.035156 360.929688 C 308.328125 360.96875 308.835938 361.144531 309.546875 361.460938 C 310.257812 361.777344 310.941406 362.195312 311.589844 362.71875 C 312.355469 363.378906 312.964844 364.164062 313.417969 365.074219 C 313.871094 365.988281 314.101562 366.945312 314.101562 367.949219 Z M 314.101562 367.949219 "/>
<g clip-path="url(#clip5)" clip-rule="nonzero">
<path style=" stroke:none;fill-rule:evenodd;fill:rgb(0%,0%,0%);fill-opacity:1;" d="M 250.476562 346.207031 C 247.480469 347.300781 245.488281 350.148438 245.488281 353.335938 L 245.488281 357.523438 C 245.488281 360.082031 243.886719 362.367188 241.480469 363.242188 L 241.480469 363.976562 C 243.886719 364.851562 245.488281 367.140625 245.488281 369.699219 L 245.488281 373.882812 C 245.488281 377.074219 247.480469 379.921875 250.476562 381.011719 L 251.996094 380.898438 C 249.851562 379.898438 248.480469 377.746094 248.480469 375.378906 L 248.480469 369.699219 C 248.480469 367.140625 246.878906 364.851562 244.472656 363.976562 L 244.472656 363.242188 C 246.878906 362.367188 248.480469 360.082031 248.480469 357.523438 L 248.480469 351.839844 C 248.480469 349.472656 249.851562 347.320312 251.996094 346.320312 "/>
</g>
<g clip-path="url(#clip6)" clip-rule="nonzero">
<path style=" stroke:none;fill-rule:evenodd;fill:rgb(0%,0%,0%);fill-opacity:1;" d="M 321.546875 381.011719 C 324.539062 379.921875 326.535156 377.074219 326.535156 373.882812 L 326.535156 369.699219 C 326.535156 367.140625 328.136719 364.851562 330.542969 363.976562 L 330.542969 363.242188 C 328.136719 362.367188 326.535156 360.082031 326.535156 357.523438 L 326.535156 353.335938 C 326.535156 350.148438 324.539062 347.300781 321.546875 346.207031 L 320.027344 346.320312 C 322.171875 347.320312 323.542969 349.472656 323.542969 351.839844 L 323.542969 357.523438 C 323.542969 360.082031 325.144531 362.367188 327.546875 363.242188 L 327.546875 363.976562 C 325.144531 364.851562 323.542969 367.140625 323.542969 369.699219 L 323.542969 375.378906 C 323.542969 377.746094 322.171875 379.898438 320.027344 380.898438 "/>
</g>
<path style=" stroke:none;fill-rule:evenodd;fill:rgb(0%,0%,0%);fill-opacity:1;" d="M 482.539062 274.035156 C 482.539062 276.925781 480.195312 279.269531 477.304688 279.269531 C 474.410156 279.269531 472.070312 276.925781 472.070312 274.035156 C 472.070312 271.144531 474.410156 268.800781 477.304688 268.800781 C 480.195312 268.800781 482.539062 271.144531 482.539062 274.035156 Z M 482.539062 274.035156 "/>
<path style=" stroke:none;fill-rule:evenodd;fill:rgb(0%,0%,0%);fill-opacity:1;" d="M 462.542969 230.132812 L 447.535156 230.132812 L 447.535156 229.148438 C 447.535156 229.078125 447.574219 228.96875 447.648438 228.824219 L 453.675781 222.273438 C 454.390625 221.488281 455.109375 220.683594 455.84375 219.859375 C 456.574219 219.035156 457.226562 218.195312 457.804688 217.335938 C 458.382812 216.476562 458.84375 215.589844 459.1875 214.675781 C 459.53125 213.765625 459.703125 212.804688 459.703125 211.804688 C 459.703125 210.957031 459.59375 210.167969 459.371094 209.433594 C 459.152344 208.699219 458.832031 208.054688 458.414062 207.5 C 457.996094 206.945312 457.472656 206.496094 456.847656 206.15625 C 456.21875 205.816406 455.496094 205.648438 454.671875 205.644531 C 453.441406 205.648438 452.359375 206.015625 451.417969 206.746094 C 450.476562 207.480469 449.855469 208.289062 449.546875 209.171875 C 449.484375 209.195312 449.585938 209.210938 449.84375 209.207031 L 450.15625 209.207031 C 450.523438 209.292969 450.84375 209.421875 451.113281 209.59375 C 451.382812 209.765625 451.613281 210.003906 451.796875 210.308594 C 451.980469 210.613281 452.074219 210.980469 452.074219 211.410156 C 452.074219 212.125 451.839844 212.675781 451.371094 213.058594 C 450.90625 213.441406 450.382812 213.628906 449.804688 213.628906 C 449.253906 213.628906 448.734375 213.441406 448.257812 213.058594 C 447.777344 212.675781 447.535156 212.125 447.535156 211.410156 C 447.535156 210.40625 447.734375 209.460938 448.128906 208.566406 C 448.519531 207.667969 449.054688 206.894531 449.730469 206.238281 C 450.40625 205.582031 451.207031 205.0625 452.128906 204.679688 C 453.050781 204.296875 454.027344 204.105469 455.058594 204.105469 C 456.335938 204.105469 457.507812 204.296875 458.570312 204.671875 C 459.632812 205.046875 460.539062 205.585938 461.289062 206.292969 C 462.039062 206.996094 462.625 207.808594 463.050781 208.734375 C 463.472656 209.660156 463.683594 210.683594 463.683594 211.804688 C 463.683594 213.046875 463.402344 214.1875 462.835938 215.230469 C 462.273438 216.277344 461.570312 217.234375 460.738281 218.105469 C 459.902344 218.976562 459.011719 219.796875 458.074219 220.566406 C 457.132812 221.335938 456.28125 222.085938 455.519531 222.8125 L 451.28125 226.804688 L 456.828125 226.804688 C 457.601562 226.804688 458.324219 226.796875 458.996094 226.785156 C 459.664062 226.773438 460.234375 226.75 460.699219 226.714844 C 461.167969 226.679688 461.40625 226.65625 461.417969 226.640625 C 461.515625 226.558594 461.609375 226.394531 461.695312 226.140625 C 461.78125 225.890625 461.859375 225.597656 461.933594 225.257812 C 462.007812 224.914062 462.082031 224.570312 462.15625 224.21875 C 462.230469 223.867188 462.296875 223.480469 462.359375 223.0625 L 463.722656 223.0625 Z M 462.542969 230.132812 "/>
<path style=" stroke:none;fill-rule:evenodd;fill:rgb(0%,0%,0%);fill-opacity:1;" d="M 477.738281 229.992188 C 477.738281 231.414062 477.445312 232.761719 476.863281 234.027344 C 476.28125 235.296875 475.464844 236.414062 474.40625 237.390625 C 474.296875 237.460938 474.171875 237.5 474.03125 237.5 C 473.933594 237.5 473.800781 237.460938 473.636719 237.390625 L 473.542969 237.242188 C 473.441406 237.144531 473.394531 237.035156 473.394531 236.914062 C 473.394531 236.804688 473.441406 236.675781 473.542969 236.53125 C 474.496094 235.652344 475.230469 234.65625 475.734375 233.535156 C 476.242188 232.414062 476.496094 231.234375 476.496094 229.992188 C 476.496094 229.90625 476.488281 229.8125 476.476562 229.710938 C 476.464844 229.605469 476.457031 229.667969 476.457031 229.898438 C 476.257812 230.132812 475.796875 230.246094 475.070312 230.246094 C 474.339844 230.246094 473.789062 230.023438 473.410156 229.574219 C 473.035156 229.121094 472.847656 228.621094 472.847656 228.074219 C 472.847656 227.527344 473.035156 227.03125 473.410156 226.585938 C 473.789062 226.140625 474.339844 225.917969 475.070312 225.917969 C 475.609375 225.917969 476.046875 226.054688 476.386719 226.332031 C 476.726562 226.605469 476.992188 226.9375 477.195312 227.324219 C 477.394531 227.714844 477.535156 228.148438 477.613281 228.621094 C 477.699219 229.097656 477.738281 229.554688 477.738281 229.992188 Z M 477.738281 229.992188 "/>
<path style=" stroke:none;fill-rule:evenodd;fill:rgb(0%,0%,0%);fill-opacity:1;" d="M 506.140625 223.382812 C 506.140625 224.410156 505.917969 225.398438 505.464844 226.339844 C 505.007812 227.28125 504.398438 228.085938 503.636719 228.753906 C 502.777344 229.507812 501.828125 230.0625 500.789062 230.429688 C 499.753906 230.792969 498.664062 230.972656 497.535156 230.972656 C 496.515625 230.972656 495.519531 230.832031 494.546875 230.542969 C 493.578125 230.257812 492.703125 229.847656 491.921875 229.308594 C 491.140625 228.773438 490.519531 228.113281 490.050781 227.332031 C 489.582031 226.550781 489.351562 225.652344 489.351562 224.636719 C 489.351562 223.875 489.605469 223.304688 490.117188 222.929688 C 490.628906 222.554688 491.160156 222.367188 491.726562 222.363281 C 492.320312 222.367188 492.867188 222.554688 493.378906 222.929688 C 493.890625 223.304688 494.144531 223.875 494.144531 224.636719 C 494.144531 225.089844 494.054688 225.472656 493.875 225.773438 C 493.699219 226.078125 493.472656 226.332031 493.191406 226.535156 C 492.917969 226.738281 492.601562 226.863281 492.242188 226.910156 C 492.058594 226.960938 491.886719 226.984375 491.726562 226.980469 C 491.570312 226.984375 491.542969 226.996094 491.652344 227.019531 C 492.035156 227.6875 492.785156 228.277344 493.902344 228.792969 C 495.023438 229.304688 496.230469 229.5625 497.535156 229.558594 C 498.148438 229.5625 498.722656 229.410156 499.257812 229.105469 C 499.792969 228.800781 500.238281 228.390625 500.59375 227.878906 C 501.035156 227.210938 501.339844 226.496094 501.5 225.730469 C 501.660156 224.96875 501.738281 224.183594 501.738281 223.382812 C 501.738281 222.5625 501.660156 221.773438 501.5 221.015625 C 501.339844 220.257812 501.035156 219.554688 500.59375 218.910156 C 500.226562 218.386719 499.777344 217.960938 499.25 217.640625 C 498.71875 217.316406 498.148438 217.15625 497.535156 217.15625 L 494.863281 217.15625 C 494.503906 217.15625 494.316406 216.988281 494.292969 216.652344 L 494.292969 216.457031 C 494.292969 216.316406 494.332031 216.203125 494.421875 216.117188 C 494.53125 216.011719 494.671875 215.957031 494.84375 215.957031 C 495.203125 215.910156 495.570312 215.886719 495.949219 215.882812 C 496.320312 215.886719 496.679688 215.863281 497.035156 215.8125 C 497.703125 215.765625 498.277344 215.5625 498.765625 215.195312 C 499.261719 214.832031 499.671875 214.367188 500.003906 213.800781 C 500.339844 213.234375 500.589844 212.582031 500.761719 211.839844 C 500.933594 211.101562 501.019531 210.34375 501.019531 209.566406 C 501.019531 208.992188 500.957031 208.453125 500.832031 207.9375 C 500.710938 207.425781 500.484375 206.976562 500.152344 206.59375 C 499.464844 205.808594 498.59375 205.417969 497.535156 205.429688 C 496.402344 205.433594 495.371094 205.644531 494.429688 206.066406 C 493.492188 206.492188 492.855469 206.949219 492.539062 207.4375 C 492.453125 207.449219 492.496094 207.453125 492.667969 207.453125 C 493.113281 207.453125 493.527344 207.585938 493.921875 207.847656 C 494.511719 208.195312 494.808594 208.777344 494.808594 209.601562 C 494.808594 210.296875 494.582031 210.816406 494.132812 211.167969 C 493.6875 211.519531 493.183594 211.695312 492.632812 211.695312 C 492.089844 211.695312 491.585938 211.523438 491.109375 211.179688 C 490.640625 210.832031 490.398438 210.304688 490.398438 209.601562 C 490.398438 208.730469 490.613281 207.960938 491.027344 207.292969 C 491.445312 206.625 491.984375 206.054688 492.640625 205.574219 C 493.300781 205.097656 494.058594 204.734375 494.917969 204.484375 C 495.777344 204.234375 496.648438 204.105469 497.535156 204.105469 C 498.480469 204.105469 499.398438 204.234375 500.28125 204.484375 C 501.167969 204.734375 502 205.121094 502.789062 205.644531 C 503.429688 206.101562 503.964844 206.660156 504.402344 207.320312 C 504.835938 207.984375 505.058594 208.730469 505.058594 209.566406 C 505.058594 210.402344 504.90625 211.191406 504.605469 211.929688 C 504.304688 212.671875 503.902344 213.339844 503.40625 213.933594 C 502.90625 214.53125 502.316406 215.054688 501.625 215.507812 C 500.941406 215.964844 500.421875 216.25 500.078125 216.367188 C 500.375 216.40625 500.878906 216.582031 501.589844 216.898438 C 502.304688 217.214844 502.988281 217.632812 503.636719 218.15625 C 504.398438 218.816406 505.007812 219.601562 505.464844 220.511719 C 505.917969 221.425781 506.140625 222.382812 506.140625 223.382812 Z M 506.140625 223.382812 "/>
<g clip-path="url(#clip7)" clip-rule="nonzero">
<path style=" stroke:none;fill-rule:evenodd;fill:rgb(0%,0%,0%);fill-opacity:1;" d="M 441.015625 201.644531 C 438.019531 202.738281 436.027344 205.585938 436.027344 208.773438 L 436.027344 212.960938 C 436.027344 215.519531 434.425781 217.804688 432.019531 218.679688 L 432.019531 219.414062 C 434.425781 220.289062 436.027344 222.574219 436.027344 225.136719 L 436.027344 229.320312 C 436.027344 232.511719 438.019531 235.359375 441.015625 236.449219 L 442.535156 236.335938 C 440.390625 235.335938 439.019531 233.183594 439.019531 230.816406 L 439.019531 225.136719 C 439.019531 222.574219 437.417969 220.289062 435.011719 219.414062 L 435.011719 218.679688 C 437.417969 217.804688 439.019531 215.519531 439.019531 212.960938 L 439.019531 207.277344 C 439.019531 204.910156 440.390625 202.757812 442.535156 201.757812 "/>
</g>
<g clip-path="url(#clip8)" clip-rule="nonzero">
<path style=" stroke:none;fill-rule:evenodd;fill:rgb(0%,0%,0%);fill-opacity:1;" d="M 513.585938 236.449219 C 516.585938 235.359375 518.582031 232.511719 518.582031 229.320312 L 518.582031 225.136719 C 518.582031 222.574219 520.179688 220.289062 522.585938 219.414062 L 522.585938 218.679688 C 520.179688 217.804688 518.582031 215.519531 518.582031 212.960938 L 518.582031 208.773438 C 518.582031 205.585938 516.585938 202.738281 513.585938 201.644531 L 512.070312 201.757812 C 514.21875 202.757812 515.585938 204.910156 515.585938 207.277344 L 515.585938 212.960938 C 515.585938 215.519531 517.1875 217.804688 519.59375 218.679688 L 519.59375 219.414062 C 517.1875 220.289062 515.585938 222.574219 515.585938 225.136719 L 515.585938 230.816406 C 515.585938 233.183594 514.21875 235.335938 512.070312 236.335938 "/>
</g>
<path style=" stroke:none;fill-rule:evenodd;fill:rgb(0%,0%,0%);fill-opacity:1;" d="M 107.65625 486.726562 C 107.65625 489.613281 105.3125 491.960938 102.421875 491.960938 C 99.527344 491.960938 97.1875 489.613281 97.1875 486.726562 C 97.1875 483.835938 99.527344 481.492188 102.421875 481.492188 C 105.3125 481.492188 107.65625 483.835938 107.65625 486.726562 Z M 107.65625 486.726562 "/>
<path style=" stroke:none;fill-rule:evenodd;fill:rgb(0%,0%,0%);fill-opacity:1;" d="M 45.765625 497.808594 C 43.503906 497.738281 41.304688 497.703125 39.164062 497.703125 C 37.027344 497.703125 34.828125 497.738281 32.566406 497.808594 L 32.566406 496.269531 L 33.839844 496.269531 C 34.242188 496.269531 34.625 496.265625 34.980469 496.253906 C 35.335938 496.242188 35.675781 496.210938 35.996094 496.164062 C 36.316406 496.117188 36.589844 496.066406 36.824219 496.019531 C 37.019531 495.984375 37.183594 495.875 37.3125 495.6875 C 37.441406 495.503906 37.507812 495.296875 37.507812 495.070312 L 37.507812 474.898438 C 36.890625 475.199219 36.136719 475.425781 35.238281 475.578125 C 34.339844 475.734375 33.359375 475.8125 32.289062 475.808594 L 32.289062 474.289062 C 33.765625 474.289062 35.125 474.113281 36.375 473.761719 C 37.621094 473.410156 38.699219 472.75 39.609375 471.78125 L 40.179688 471.78125 C 40.585938 471.785156 40.789062 471.980469 40.789062 472.375 L 40.789062 495.070312 C 40.789062 495.308594 40.847656 495.519531 40.972656 495.699219 C 41.09375 495.878906 41.273438 495.984375 41.507812 496.019531 C 41.703125 496.066406 41.957031 496.117188 42.261719 496.164062 C 42.570312 496.210938 42.917969 496.242188 43.304688 496.253906 C 43.691406 496.265625 44.070312 496.269531 44.4375 496.269531 L 45.765625 496.269531 Z M 45.765625 497.808594 "/>
<g clip-path="url(#clip9)" clip-rule="nonzero">
<path style=" stroke:none;fill-rule:evenodd;fill:rgb(0%,0%,0%);fill-opacity:1;" d="M 25.796875 469.324219 C 22.800781 470.414062 20.808594 473.261719 20.808594 476.449219 L 20.808594 480.636719 C 20.808594 483.195312 19.207031 485.480469 16.800781 486.355469 L 16.800781 487.089844 C 19.207031 487.964844 20.808594 490.253906 20.808594 492.8125 L 20.808594 496.996094 C 20.808594 500.1875 22.800781 503.035156 25.796875 504.125 L 27.316406 504.011719 C 25.171875 503.011719 23.800781 500.859375 23.800781 498.492188 L 23.800781 492.8125 C 23.800781 490.253906 22.199219 487.964844 19.792969 487.089844 L 19.792969 486.355469 C 22.199219 485.480469 23.800781 483.195312 23.800781 480.636719 L 23.800781 474.953125 C 23.800781 472.585938 25.171875 470.433594 27.316406 469.433594 "/>
</g>
<g clip-path="url(#clip10)" clip-rule="nonzero">
<path style=" stroke:none;fill-rule:evenodd;fill:rgb(0%,0%,0%);fill-opacity:1;" d="M 52.277344 504.125 C 55.273438 503.035156 57.269531 500.1875 57.269531 496.996094 L 57.269531 492.8125 C 57.269531 490.253906 58.867188 487.964844 61.277344 487.089844 L 61.277344 486.355469 C 58.867188 485.480469 57.269531 483.195312 57.269531 480.636719 L 57.269531 476.449219 C 57.269531 473.261719 55.273438 470.414062 52.277344 469.324219 L 50.761719 469.433594 C 52.902344 470.433594 54.273438 472.585938 54.273438 474.953125 L 54.273438 480.636719 C 54.273438 483.195312 55.875 485.480469 58.28125 486.355469 L 58.28125 487.089844 C 55.875 487.964844 54.273438 490.253906 54.273438 492.8125 L 54.273438 498.492188 C 54.273438 500.859375 52.902344 503.011719 50.761719 504.011719 "/>
</g>
<path style=" stroke:none;fill-rule:evenodd;fill:rgb(0%,0%,0%);fill-opacity:1;" d="M 291.246094 486.726562 C 291.246094 489.613281 288.902344 491.960938 286.011719 491.960938 C 283.121094 491.960938 280.777344 489.613281 280.777344 486.726562 C 280.777344 483.835938 283.121094 481.492188 286.011719 481.492188 C 288.902344 481.492188 291.246094 483.835938 291.246094 486.726562 Z M 291.246094 486.726562 "/>
<path style=" stroke:none;fill-rule:evenodd;fill:rgb(0%,0%,0%);fill-opacity:1;" d="M 325.683594 525.4375 L 310.679688 525.4375 L 310.679688 524.457031 C 310.679688 524.382812 310.714844 524.277344 310.789062 524.132812 L 316.816406 517.582031 C 317.53125 516.796875 318.253906 515.988281 318.984375 515.167969 C 319.714844 514.34375 320.371094 513.5 320.945312 512.640625 C 321.523438 511.78125 321.984375 510.898438 322.332031 509.984375 C 322.675781 509.070312 322.847656 508.113281 322.847656 507.109375 C 322.847656 506.265625 322.734375 505.472656 322.515625 504.738281 C 322.292969 504.003906 321.972656 503.363281 321.554688 502.804688 C 321.136719 502.25 320.613281 501.804688 319.988281 501.464844 C 319.363281 501.125 318.636719 500.953125 317.8125 500.953125 C 316.585938 500.953125 315.5 501.320312 314.558594 502.054688 C 313.621094 502.789062 312.996094 503.597656 312.6875 504.480469 C 312.628906 504.503906 312.726562 504.515625 312.984375 504.515625 L 313.296875 504.515625 C 313.664062 504.597656 313.984375 504.726562 314.253906 504.902344 C 314.527344 505.074219 314.753906 505.3125 314.9375 505.617188 C 315.121094 505.921875 315.214844 506.289062 315.214844 506.714844 C 315.214844 507.433594 314.980469 507.984375 314.515625 508.363281 C 314.046875 508.746094 313.523438 508.9375 312.945312 508.9375 C 312.394531 508.9375 311.878906 508.746094 311.398438 508.363281 C 310.917969 507.984375 310.679688 507.433594 310.679688 506.714844 C 310.679688 505.714844 310.875 504.765625 311.269531 503.871094 C 311.664062 502.976562 312.195312 502.203125 312.871094 501.542969 C 313.546875 500.890625 314.347656 500.371094 315.269531 499.988281 C 316.191406 499.605469 317.167969 499.414062 318.199219 499.414062 C 319.476562 499.414062 320.648438 499.601562 321.710938 499.976562 C 322.773438 500.355469 323.679688 500.894531 324.429688 501.597656 C 325.179688 502.304688 325.769531 503.117188 326.191406 504.042969 C 326.617188 504.964844 326.828125 505.988281 326.828125 507.109375 C 326.828125 508.351562 326.546875 509.496094 325.980469 510.539062 C 325.414062 511.585938 324.714844 512.542969 323.878906 513.414062 C 323.042969 514.285156 322.152344 515.101562 321.214844 515.875 C 320.273438 516.644531 319.421875 517.390625 318.660156 518.117188 L 314.421875 522.109375 L 319.96875 522.109375 C 320.746094 522.113281 321.46875 522.105469 322.136719 522.09375 C 322.808594 522.082031 323.375 522.058594 323.839844 522.023438 C 324.308594 521.984375 324.546875 521.960938 324.558594 521.949219 C 324.65625 521.867188 324.75 521.699219 324.835938 521.449219 C 324.921875 521.199219 325.003906 520.902344 325.078125 520.5625 C 325.152344 520.222656 325.222656 519.878906 325.296875 519.523438 C 325.371094 519.171875 325.4375 518.789062 325.5 518.371094 L 326.863281 518.371094 Z M 325.683594 525.4375 "/>
<g clip-path="url(#clip11)" clip-rule="nonzero">
<path style=" stroke:none;fill-rule:evenodd;fill:rgb(0%,0%,0%);fill-opacity:1;" d="M 304.148438 496.953125 C 301.152344 498.042969 299.160156 500.890625 299.160156 504.078125 L 299.160156 508.265625 C 299.160156 510.824219 297.558594 513.113281 295.152344 513.988281 L 295.152344 514.722656 C 297.558594 515.597656 299.160156 517.882812 299.160156 520.441406 L 299.160156 524.628906 C 299.160156 527.816406 301.152344 530.664062 304.148438 531.753906 L 305.667969 531.640625 C 303.523438 530.640625 302.152344 528.492188 302.152344 526.125 L 302.152344 520.441406 C 302.152344 517.882812 300.550781 515.597656 298.144531 514.722656 L 298.144531 513.988281 C 300.550781 513.113281 302.152344 510.824219 302.152344 508.265625 L 302.152344 502.582031 C 302.152344 500.21875 303.523438 498.066406 305.667969 497.066406 "/>
</g>
<g clip-path="url(#clip12)" clip-rule="nonzero">
<path style=" stroke:none;fill-rule:evenodd;fill:rgb(0%,0%,0%);fill-opacity:1;" d="M 333.390625 531.753906 C 336.390625 530.664062 338.382812 527.816406 338.382812 524.628906 L 338.382812 520.441406 C 338.382812 517.882812 339.980469 515.597656 342.386719 514.722656 L 342.386719 513.988281 C 339.980469 513.113281 338.382812 510.824219 338.382812 508.265625 L 338.382812 504.078125 C 338.382812 500.890625 336.390625 498.042969 333.390625 496.953125 L 331.875 497.066406 C 334.019531 498.066406 335.386719 500.21875 335.386719 502.582031 L 335.386719 508.265625 C 335.386719 510.824219 336.992188 513.113281 339.394531 513.988281 L 339.394531 514.722656 C 336.992188 515.597656 335.386719 517.882812 335.386719 520.441406 L 335.386719 526.125 C 335.386719 528.492188 334.019531 530.640625 331.875 531.640625 "/>
</g>
<path style=" stroke:none;fill-rule:evenodd;fill:rgb(0%,0%,0%);fill-opacity:1;" d="M 482.539062 491.566406 C 482.539062 494.457031 480.195312 496.800781 477.304688 496.800781 C 474.410156 496.800781 472.070312 494.457031 472.070312 491.566406 C 472.070312 488.675781 474.410156 486.332031 477.304688 486.332031 C 480.195312 486.332031 482.539062 488.675781 482.539062 491.566406 Z M 482.539062 491.566406 "/>
<g clip-path="url(#clip13)" clip-rule="nonzero">
<g clip-path="url(#clip14)" clip-rule="nonzero">
<path style=" stroke:none;fill-rule:evenodd;fill:rgb(0%,0%,0%);fill-opacity:1;" d="M 544.097656 495.90625 C 544.097656 496.929688 543.871094 497.917969 543.417969 498.859375 C 542.964844 499.800781 542.355469 500.605469 541.59375 501.273438 C 540.734375 502.027344 539.78125 502.585938 538.746094 502.949219 C 537.707031 503.3125 536.621094 503.492188 535.492188 503.492188 C 534.472656 503.492188 533.476562 503.351562 532.503906 503.0625 C 531.535156 502.777344 530.660156 502.367188 529.878906 501.832031 C 529.097656 501.292969 528.472656 500.632812 528.007812 499.851562 C 527.539062 499.070312 527.304688 498.171875 527.304688 497.15625 C 527.304688 496.394531 527.5625 495.824219 528.070312 495.449219 C 528.582031 495.074219 529.117188 494.886719 529.683594 494.882812 C 530.273438 494.886719 530.824219 495.074219 531.332031 495.449219 C 531.84375 495.824219 532.097656 496.394531 532.097656 497.15625 C 532.097656 497.613281 532.011719 497.992188 531.832031 498.296875 C 531.652344 498.597656 531.425781 498.851562 531.148438 499.054688 C 530.871094 499.257812 530.554688 499.382812 530.199219 499.429688 C 530.015625 499.480469 529.84375 499.503906 529.683594 499.503906 C 529.523438 499.503906 529.5 499.515625 529.609375 499.539062 C 529.992188 500.207031 530.742188 500.796875 531.859375 501.3125 C 532.980469 501.824219 534.1875 502.082031 535.492188 502.078125 C 536.105469 502.082031 536.679688 501.929688 537.214844 501.625 C 537.75 501.320312 538.195312 500.910156 538.550781 500.398438 C 538.996094 499.730469 539.292969 499.015625 539.453125 498.25 C 539.613281 497.488281 539.691406 496.707031 539.691406 495.90625 C 539.691406 495.082031 539.613281 494.292969 539.453125 493.535156 C 539.292969 492.777344 538.996094 492.074219 538.550781 491.429688 C 538.183594 490.90625 537.734375 490.480469 537.207031 490.160156 C 536.675781 489.835938 536.105469 489.675781 535.488281 489.675781 L 532.816406 489.675781 C 532.460938 489.675781 532.269531 489.507812 532.246094 489.175781 L 532.246094 488.976562 C 532.246094 488.835938 532.289062 488.722656 532.375 488.636719 C 532.484375 488.53125 532.628906 488.476562 532.800781 488.476562 C 533.15625 488.429688 533.523438 488.40625 533.90625 488.402344 C 534.273438 488.40625 534.636719 488.382812 534.992188 488.332031 C 535.65625 488.285156 536.234375 488.082031 536.726562 487.714844 C 537.21875 487.351562 537.628906 486.886719 537.960938 486.320312 C 538.292969 485.753906 538.542969 485.101562 538.714844 484.359375 C 538.890625 483.621094 538.976562 482.863281 538.976562 482.085938 C 538.976562 481.515625 538.914062 480.972656 538.789062 480.457031 C 538.667969 479.945312 538.441406 479.496094 538.109375 479.113281 C 537.421875 478.328125 536.546875 477.9375 535.488281 477.949219 C 534.359375 477.953125 533.324219 478.164062 532.386719 478.585938 C 531.445312 479.011719 530.816406 479.46875 530.496094 479.957031 C 530.410156 479.96875 530.453125 479.972656 530.625 479.972656 C 531.066406 479.972656 531.484375 480.105469 531.878906 480.367188 C 532.46875 480.714844 532.761719 481.300781 532.761719 482.121094 C 532.761719 482.816406 532.539062 483.335938 532.089844 483.6875 C 531.640625 484.039062 531.140625 484.21875 530.585938 484.214844 C 530.046875 484.21875 529.539062 484.042969 529.066406 483.699219 C 528.59375 483.351562 528.355469 482.828125 528.355469 482.121094 C 528.355469 481.25 528.566406 480.484375 528.984375 479.8125 C 529.402344 479.144531 529.9375 478.574219 530.597656 478.09375 C 531.253906 477.617188 532.011719 477.253906 532.875 477.003906 C 533.734375 476.753906 534.605469 476.628906 535.488281 476.625 C 536.4375 476.628906 537.351562 476.753906 538.238281 477.003906 C 539.121094 477.253906 539.957031 477.640625 540.742188 478.164062 C 541.382812 478.621094 541.921875 479.179688 542.355469 479.839844 C 542.792969 480.503906 543.011719 481.25 543.011719 482.085938 C 543.011719 482.921875 542.863281 483.710938 542.5625 484.449219 C 542.257812 485.191406 541.859375 485.859375 541.363281 486.453125 C 540.863281 487.050781 540.273438 487.578125 539.582031 488.03125 C 538.894531 488.484375 538.378906 488.769531 538.035156 488.886719 C 538.328125 488.925781 538.835938 489.101562 539.546875 489.417969 C 540.257812 489.734375 540.941406 490.152344 541.59375 490.675781 C 542.355469 491.335938 542.964844 492.121094 543.417969 493.03125 C 543.871094 493.945312 544.097656 494.902344 544.097656 495.90625 Z M 544.097656 495.90625 "/>
</g>
</g>
<g clip-path="url(#clip15)" clip-rule="nonzero">
<g clip-path="url(#clip16)" clip-rule="nonzero">
<path style=" stroke:none;fill-rule:evenodd;fill:rgb(0%,0%,0%);fill-opacity:1;" d="M 520.769531 474.164062 C 517.773438 475.257812 515.78125 478.105469 515.78125 481.292969 L 515.78125 485.480469 C 515.78125 488.039062 514.179688 490.324219 511.773438 491.199219 L 511.773438 491.933594 C 514.179688 492.808594 515.78125 495.09375 515.78125 497.65625 L 515.78125 501.839844 C 515.78125 505.03125 517.773438 507.878906 520.769531 508.96875 L 522.289062 508.855469 C 520.144531 507.855469 518.773438 505.703125 518.773438 503.335938 L 518.773438 497.65625 C 518.773438 495.09375 517.171875 492.808594 514.765625 491.933594 L 514.765625 491.199219 C 517.171875 490.324219 518.773438 488.039062 518.773438 485.480469 L 518.773438 479.796875 C 518.773438 477.429688 520.144531 475.277344 522.289062 474.277344 "/>
</g>
</g>
<g clip-path="url(#clip17)" clip-rule="nonzero">
<g clip-path="url(#clip18)" clip-rule="nonzero">
<path style=" stroke:none;fill-rule:evenodd;fill:rgb(0%,0%,0%);fill-opacity:1;" d="M 550.632812 508.96875 C 553.628906 507.878906 555.621094 505.03125 555.621094 501.839844 L 555.621094 497.65625 C 555.621094 495.09375 557.222656 492.808594 559.628906 491.933594 L 559.628906 491.199219 C 557.222656 490.324219 555.621094 488.039062 555.621094 485.480469 L 555.621094 481.292969 C 555.621094 478.105469 553.628906 475.257812 550.632812 474.164062 L 549.113281 474.277344 C 551.257812 475.277344 552.628906 477.429688 552.628906 479.796875 L 552.628906 485.480469 C 552.628906 488.039062 554.230469 490.324219 556.632812 491.199219 L 556.632812 491.933594 C 554.230469 492.808594 552.628906 495.09375 552.628906 497.65625 L 552.628906 503.335938 C 552.628906 505.703125 551.257812 507.855469 549.113281 508.855469 "/>
</g>
</g>
<path style=" stroke:none;fill-rule:evenodd;fill:rgb(0%,0%,0%);fill-opacity:1;" d="M 291.246094 673.875 C 291.246094 676.761719 288.902344 679.109375 286.011719 679.109375 C 283.121094 679.109375 280.777344 676.761719 280.777344 673.875 C 280.777344 670.980469 283.121094 668.640625 286.011719 668.640625 C 288.902344 668.640625 291.246094 670.980469 291.246094 673.875 Z M 291.246094 673.875 "/>
<path style=" stroke:none;fill-rule:evenodd;fill:rgb(0%,0%,0%);fill-opacity:1;" d="M 298.882812 707.625 C 299.035156 707.800781 299.109375 707.988281 299.09375 708.183594 C 299.082031 708.386719 298.984375 708.558594 298.804688 708.703125 L 295.296875 711.6875 C 296.042969 712.632812 296.617188 713.679688 297.011719 714.820312 C 297.410156 715.964844 297.609375 717.132812 297.609375 718.320312 C 297.609375 719.789062 297.328125 721.191406 296.761719 722.519531 C 296.199219 723.847656 295.378906 725.035156 294.296875 726.078125 C 293.21875 727.125 291.992188 727.917969 290.617188 728.464844 C 289.242188 729.011719 287.796875 729.28125 286.28125 729.28125 C 284.765625 729.28125 283.328125 729.011719 281.964844 728.460938 C 280.605469 727.914062 279.386719 727.125 278.304688 726.101562 L 274.761719 729.09375 C 274.605469 729.222656 274.414062 729.28125 274.183594 729.28125 C 273.976562 729.28125 273.8125 729.199219 273.683594 729.023438 C 273.527344 728.875 273.457031 728.695312 273.46875 728.484375 C 273.484375 728.273438 273.566406 728.105469 273.71875 727.976562 L 277.265625 724.960938 C 276.519531 724.015625 275.949219 722.980469 275.550781 721.847656 C 275.152344 720.71875 274.953125 719.542969 274.953125 718.320312 C 274.953125 716.859375 275.238281 715.46875 275.804688 714.148438 C 276.367188 712.832031 277.191406 711.652344 278.265625 710.605469 C 279.347656 709.5625 280.574219 708.769531 281.949219 708.222656 C 283.324219 707.675781 284.765625 707.402344 286.28125 707.398438 C 287.796875 707.402344 289.238281 707.671875 290.597656 708.207031 C 291.957031 708.742188 293.179688 709.535156 294.257812 710.578125 L 297.800781 707.585938 C 297.984375 707.464844 298.175781 707.402344 298.378906 707.398438 C 298.585938 707.402344 298.753906 707.476562 298.882812 707.625 Z M 293.101562 711.589844 C 292.175781 710.71875 291.132812 710.050781 289.960938 709.589844 C 288.792969 709.128906 287.566406 708.898438 286.28125 708.894531 C 284.972656 708.898438 283.71875 709.136719 282.523438 709.609375 C 281.332031 710.082031 280.285156 710.769531 279.386719 711.664062 C 278.460938 712.5625 277.75 713.585938 277.25 714.734375 C 276.746094 715.882812 276.496094 717.089844 276.496094 718.359375 C 276.496094 720.457031 277.148438 722.351562 278.460938 724.046875 Z M 296.070312 718.285156 C 296.070312 716.167969 295.414062 714.285156 294.101562 712.636719 L 279.460938 725.09375 C 280.363281 725.96875 281.402344 726.636719 282.582031 727.097656 C 283.765625 727.558594 285 727.789062 286.28125 727.785156 C 287.589844 727.789062 288.84375 727.546875 290.039062 727.058594 C 291.234375 726.574219 292.28125 725.890625 293.179688 725.019531 C 294.105469 724.121094 294.820312 723.09375 295.320312 721.933594 C 295.820312 720.773438 296.070312 719.558594 296.070312 718.285156 Z M 296.070312 718.285156 "/>
<path style="fill:none;stroke-width:10;stroke-linecap:round;stroke-linejoin:round;stroke:rgb(0%,0%,0%);stroke-opacity:1;stroke-miterlimit:10;" d="M 513.636067 1368.913648 L 1434.321861 430.342566 " transform="matrix(0.199406,0,0,-0.199397,0,759.684099)"/>
<path style="fill:none;stroke-width:10;stroke-linecap:round;stroke-linejoin:round;stroke:rgb(0%,0%,0%);stroke-opacity:1;stroke-miterlimit:10;" d="M 1434.321861 1368.913648 L 1434.321861 430.342566 " transform="matrix(0.199406,0,0,-0.199397,0,759.684099)"/>
<path style="fill:none;stroke-width:10;stroke-linecap:round;stroke-linejoin:round;stroke:rgb(0%,0%,0%);stroke-opacity:1;stroke-miterlimit:10;" d="M 1434.321861 430.342566 L 2393.638103 1344.641271 " transform="matrix(0.199406,0,0,-0.199397,0,759.684099)"/>
<path style="fill:none;stroke-width:10;stroke-linecap:round;stroke-linejoin:round;stroke:rgb(0%,0%,0%);stroke-opacity:1;stroke-miterlimit:10;" d="M 513.636067 1368.913648 L 1434.321861 2435.585676 " transform="matrix(0.199406,0,0,-0.199397,0,759.684099)"/>
<path style="fill:none;stroke-width:10;stroke-linecap:round;stroke-linejoin:round;stroke:rgb(0%,0%,0%);stroke-opacity:1;stroke-miterlimit:10;" d="M 513.636067 1368.913648 L 513.636067 2435.585676 " transform="matrix(0.199406,0,0,-0.199397,0,759.684099)"/>
<path style="fill:none;stroke-width:10;stroke-linecap:round;stroke-linejoin:round;stroke:rgb(0%,0%,0%);stroke-opacity:1;stroke-miterlimit:10;" d="M 1434.321861 1368.913648 L 2393.638103 2435.585676 " transform="matrix(0.199406,0,0,-0.199397,0,759.684099)"/>
<path style="fill:none;stroke-width:10;stroke-linecap:round;stroke-linejoin:round;stroke:rgb(0%,0%,0%);stroke-opacity:1;stroke-miterlimit:10;" d="M 1434.321861 1368.913648 L 513.636067 2435.585676 " transform="matrix(0.199406,0,0,-0.199397,0,759.684099)"/>
<path style="fill:none;stroke-width:10;stroke-linecap:round;stroke-linejoin:round;stroke:rgb(0%,0%,0%);stroke-opacity:1;stroke-miterlimit:10;" d="M 2393.638103 1344.641271 L 2393.638103 2435.585676 " transform="matrix(0.199406,0,0,-0.199397,0,759.684099)"/>
<path style="fill:none;stroke-width:10;stroke-linecap:round;stroke-linejoin:round;stroke:rgb(0%,0%,0%);stroke-opacity:1;stroke-miterlimit:10;" d="M 2393.638103 1324.189002 L 1434.321861 2435.585676 " transform="matrix(0.199406,0,0,-0.199397,0,759.684099)"/>
<path style="fill:none;stroke-width:10;stroke-linecap:round;stroke-linejoin:round;stroke:rgb(0%,0%,0%);stroke-opacity:1;stroke-miterlimit:10;" d="M 513.636067 2435.585676 L 1434.321861 3313.074215 " transform="matrix(0.199406,0,0,-0.199397,0,759.684099)"/>
<path style="fill:none;stroke-width:10;stroke-linecap:round;stroke-linejoin:round;stroke:rgb(0%,0%,0%);stroke-opacity:1;stroke-miterlimit:10;" d="M 1434.321861 3313.074215 L 2400.964567 2443.735239 " transform="matrix(0.199406,0,0,-0.199397,0,759.684099)"/>
<path style="fill:none;stroke-width:10;stroke-linecap:round;stroke-linejoin:round;stroke:rgb(0%,0%,0%);stroke-opacity:1;stroke-miterlimit:10;" d="M 1434.321861 2435.585676 L 1434.321861 3307.882786 " transform="matrix(0.199406,0,0,-0.199397,0,759.684099)"/>
</g>
</svg>
