<?xml version="1.0" encoding="UTF-8"?>
<svg xmlns="http://www.w3.org/2000/svg" xmlns:xlink="http://www.w3.org/1999/xlink" width="1401.96pt" height="722.04pt" viewBox="0 0 1401.96 722.04" version="1.2">
<defs>
<clipPath id="clip1">
  <path d="M 556.539062 79 L 602 79 L 602 150 L 556.539062 150 Z M 556.539062 79 "/>
</clipPath>
<clipPath id="clip2">
  <path d="M 135.140625 103 L 196 103 L 196 149 L 135.140625 149 Z M 135.140625 103 "/>
</clipPath>
<clipPath id="clip3">
  <path d="M 55.21875 598 L 116 598 L 116 644 L 55.21875 644 Z M 55.21875 598 "/>
</clipPath>
<clipPath id="clip4">
  <path d="M 555.636719 599 L 616 599 L 616 645 L 555.636719 645 Z M 555.636719 599 "/>
</clipPath>
</defs>
<g id="surface1">
<g clip-path="url(#clip1)" clip-rule="nonzero">
<path style=" stroke:none;fill-rule:evenodd;fill:rgb(0%,0%,0%);fill-opacity:1;" d="M 601.125 114.648438 C 601.125 119.105469 600.816406 123.535156 600.195312 127.945312 C 599.574219 132.355469 598.035156 136.492188 595.582031 140.355469 C 593.828125 143.175781 591.484375 145.339844 588.550781 146.851562 C 585.617188 148.371094 582.429688 149.125 578.984375 149.125 C 575.671875 149.125 572.535156 148.371094 569.589844 146.851562 C 566.640625 145.339844 564.285156 143.175781 562.535156 140.355469 C 560.078125 136.492188 558.542969 132.355469 557.921875 127.945312 C 557.300781 123.535156 556.984375 119.105469 556.984375 114.648438 C 556.984375 110.136719 557.300781 105.625 557.921875 101.121094 C 558.542969 96.621094 560.078125 92.40625 562.535156 88.476562 C 564.285156 85.632812 566.632812 83.417969 569.566406 81.839844 C 572.5 80.265625 575.640625 79.472656 578.984375 79.472656 C 582.398438 79.472656 585.578125 80.265625 588.527344 81.839844 C 591.476562 83.417969 593.828125 85.632812 595.582031 88.476562 C 598.035156 92.40625 599.574219 96.621094 600.195312 101.121094 C 600.816406 105.625 601.125 110.136719 601.125 114.648438 Z M 591.65625 113.023438 C 591.65625 111.078125 591.640625 109.019531 591.609375 106.855469 C 591.578125 104.691406 591.496094 102.570312 591.371094 100.496094 C 591.242188 98.425781 591.011719 96.46875 590.675781 94.625 C 590.34375 92.789062 589.9375 91.214844 589.457031 89.914062 C 588.503906 87.8125 587.101562 86.085938 585.25 84.742188 C 583.402344 83.394531 581.3125 82.722656 578.984375 82.71875 C 576.722656 82.722656 574.675781 83.40625 572.84375 84.765625 C 571.007812 86.128906 569.613281 87.84375 568.652344 89.914062 C 568.179688 91.214844 567.773438 92.789062 567.433594 94.625 C 567.101562 96.46875 566.871094 98.425781 566.742188 100.496094 C 566.613281 102.570312 566.535156 104.691406 566.503906 106.855469 C 566.472656 109.019531 566.453125 111.078125 566.453125 113.023438 C 566.453125 115.191406 566.472656 117.472656 566.503906 119.871094 C 566.535156 122.269531 566.613281 124.589844 566.742188 126.832031 C 566.871094 129.078125 567.101562 131.203125 567.433594 133.210938 C 567.773438 135.226562 568.179688 136.910156 568.652344 138.265625 C 569.546875 140.53125 570.929688 142.386719 572.792969 143.839844 C 574.660156 145.296875 576.722656 146.019531 578.984375 146.019531 C 581.347656 146.019531 583.460938 145.296875 585.324219 143.839844 C 587.1875 142.386719 588.566406 140.53125 589.457031 138.265625 C 589.9375 136.910156 590.34375 135.226562 590.675781 133.210938 C 591.011719 131.203125 591.242188 129.078125 591.371094 126.832031 C 591.496094 124.589844 591.578125 122.269531 591.609375 119.871094 C 591.640625 117.472656 591.65625 115.191406 591.65625 113.023438 Z M 591.65625 113.023438 "/>
</g>
<path style=" stroke:none;fill-rule:evenodd;fill:rgb(0%,0%,0%);fill-opacity:1;" d="M 636.355469 146.578125 C 636.355469 150.273438 635.597656 153.761719 634.085938 157.042969 C 632.574219 160.328125 630.453125 163.230469 627.71875 165.757812 C 627.429688 165.945312 627.101562 166.039062 626.742188 166.039062 C 626.484375 166.039062 626.144531 165.945312 625.71875 165.757812 L 625.472656 165.378906 C 625.214844 165.125 625.082031 164.84375 625.082031 164.523438 C 625.082031 164.242188 625.214844 163.910156 625.472656 163.53125 C 627.945312 161.257812 629.84375 158.671875 631.160156 155.765625 C 632.476562 152.863281 633.136719 149.796875 633.136719 146.578125 C 633.136719 146.359375 633.121094 146.117188 633.085938 145.847656 C 633.054688 145.582031 633.035156 145.742188 633.035156 146.339844 C 632.515625 146.941406 631.3125 147.242188 629.429688 147.242188 C 627.542969 147.242188 626.113281 146.660156 625.132812 145.492188 C 624.15625 144.328125 623.667969 143.03125 623.667969 141.605469 C 623.667969 140.1875 624.15625 138.90625 625.132812 137.75 C 626.113281 136.597656 627.542969 136.023438 629.429688 136.019531 C 630.824219 136.023438 631.964844 136.378906 632.839844 137.085938 C 633.722656 137.796875 634.421875 138.660156 634.941406 139.667969 C 635.460938 140.679688 635.828125 141.800781 636.035156 143.03125 C 636.25 144.261719 636.355469 145.445312 636.355469 146.578125 Z M 636.355469 146.578125 "/>
<path style=" stroke:none;fill-rule:evenodd;fill:rgb(0%,0%,0%);fill-opacity:1;" d="M 737.535156 146.945312 C 731.675781 146.761719 725.960938 146.667969 720.421875 146.667969 C 714.878906 146.667969 709.164062 146.761719 703.304688 146.945312 L 703.304688 142.953125 L 706.609375 142.953125 C 707.648438 142.957031 708.648438 142.941406 709.570312 142.910156 C 710.492188 142.882812 711.375 142.804688 712.203125 142.679688 C 713.035156 142.558594 713.746094 142.433594 714.351562 142.304688 C 714.863281 142.214844 715.285156 141.929688 715.613281 141.449219 C 715.957031 140.96875 716.113281 140.4375 716.113281 139.84375 L 716.113281 87.546875 C 714.523438 88.324219 712.558594 88.914062 710.242188 89.3125 C 707.914062 89.714844 705.359375 89.914062 702.59375 89.914062 L 702.59375 85.96875 C 706.414062 85.972656 709.941406 85.515625 713.179688 84.601562 C 716.417969 83.691406 719.207031 81.980469 721.566406 79.472656 L 723.054688 79.472656 C 724.105469 79.472656 724.632812 79.984375 724.632812 81.003906 L 724.632812 139.84375 C 724.632812 140.464844 724.789062 141.007812 725.105469 141.472656 C 725.421875 141.9375 725.898438 142.214844 726.488281 142.304688 C 727.003906 142.433594 727.660156 142.558594 728.449219 142.679688 C 729.253906 142.804688 730.148438 142.882812 731.148438 142.910156 C 732.164062 142.941406 733.136719 142.957031 734.097656 142.953125 L 737.535156 142.953125 Z M 737.535156 146.945312 "/>
<path style=" stroke:none;fill-rule:evenodd;fill:rgb(0%,0%,0%);fill-opacity:1;" d="M 777.082031 146.578125 C 777.082031 150.273438 776.320312 153.761719 774.804688 157.042969 C 773.304688 160.328125 771.171875 163.230469 768.445312 165.757812 C 768.15625 165.945312 767.828125 166.039062 767.472656 166.039062 C 767.210938 166.039062 766.867188 165.945312 766.445312 165.757812 L 766.195312 165.378906 C 765.933594 165.125 765.8125 164.84375 765.8125 164.523438 C 765.8125 164.242188 765.933594 163.910156 766.195312 163.53125 C 768.671875 161.257812 770.566406 158.671875 771.882812 155.765625 C 773.199219 152.863281 773.859375 149.796875 773.859375 146.578125 C 773.859375 146.359375 773.84375 146.117188 773.804688 145.847656 C 773.777344 145.582031 773.765625 145.742188 773.765625 146.339844 C 773.238281 146.941406 772.042969 147.242188 770.160156 147.242188 C 768.261719 147.242188 766.839844 146.660156 765.855469 145.492188 C 764.878906 144.328125 764.390625 143.03125 764.390625 141.605469 C 764.390625 140.1875 764.878906 138.90625 765.855469 137.75 C 766.839844 136.597656 768.261719 136.023438 770.160156 136.019531 C 771.554688 136.023438 772.6875 136.378906 773.570312 137.085938 C 774.449219 137.796875 775.148438 138.660156 775.660156 139.667969 C 776.1875 140.679688 776.558594 141.800781 776.769531 143.03125 C 776.976562 144.261719 777.082031 145.445312 777.082031 146.578125 Z M 777.082031 146.578125 "/>
<path style=" stroke:none;fill-rule:evenodd;fill:rgb(0%,0%,0%);fill-opacity:1;" d="M 878.402344 146.945312 L 839.488281 146.945312 L 839.488281 144.394531 C 839.488281 144.210938 839.578125 143.933594 839.777344 143.558594 L 855.402344 126.574219 C 857.261719 124.535156 859.128906 122.445312 861.027344 120.3125 C 862.921875 118.175781 864.621094 115.996094 866.121094 113.769531 C 867.621094 111.542969 868.804688 109.242188 869.703125 106.875 C 870.597656 104.511719 871.042969 102.027344 871.042969 99.425781 C 871.042969 97.234375 870.753906 95.183594 870.1875 93.28125 C 869.609375 91.378906 868.78125 89.707031 867.699219 88.269531 C 866.609375 86.828125 865.25 85.671875 863.632812 84.789062 C 862.011719 83.90625 860.128906 83.464844 857.984375 83.460938 C 854.796875 83.464844 851.996094 84.417969 849.558594 86.320312 C 847.109375 88.222656 845.492188 90.320312 844.699219 92.605469 C 844.542969 92.667969 844.792969 92.699219 845.464844 92.699219 L 846.28125 92.699219 C 847.230469 92.917969 848.058594 93.25 848.769531 93.699219 C 849.464844 94.148438 850.058594 94.765625 850.53125 95.554688 C 851.007812 96.34375 851.242188 97.292969 851.242188 98.40625 C 851.242188 100.265625 850.652344 101.6875 849.425781 102.679688 C 848.214844 103.671875 846.859375 104.164062 845.371094 104.160156 C 843.9375 104.164062 842.59375 103.671875 841.355469 102.679688 C 840.105469 101.6875 839.488281 100.265625 839.488281 98.40625 C 839.488281 95.808594 840 93.351562 841.015625 91.03125 C 842.042969 88.710938 843.421875 86.699219 845.175781 84.996094 C 846.925781 83.296875 849.007812 81.953125 851.390625 80.960938 C 853.785156 79.96875 856.324219 79.472656 859 79.472656 C 862.304688 79.472656 865.34375 79.960938 868.109375 80.9375 C 870.859375 81.910156 873.21875 83.3125 875.152344 85.136719 C 877.101562 86.964844 878.628906 89.074219 879.71875 91.472656 C 880.828125 93.871094 881.367188 96.519531 881.367188 99.425781 C 881.367188 102.644531 880.640625 105.609375 879.167969 108.316406 C 877.707031 111.023438 875.890625 113.507812 873.71875 115.765625 C 871.558594 118.023438 869.253906 120.148438 866.820312 122.144531 C 864.371094 124.140625 862.171875 126.082031 860.195312 127.964844 L 849.191406 138.3125 L 863.578125 138.3125 C 865.59375 138.316406 867.464844 138.300781 869.203125 138.269531 C 870.9375 138.242188 872.414062 138.179688 873.625 138.085938 C 874.835938 137.992188 875.453125 137.929688 875.496094 137.894531 C 875.746094 137.683594 875.980469 137.25 876.207031 136.601562 C 876.429688 135.949219 876.640625 135.183594 876.824219 134.304688 C 877.023438 133.421875 877.21875 132.523438 877.402344 131.609375 C 877.601562 130.699219 877.773438 129.699219 877.929688 128.617188 L 881.472656 128.617188 Z M 878.402344 146.945312 "/>
<path style=" stroke:none;fill-rule:evenodd;fill:rgb(0%,0%,0%);fill-opacity:1;" d="M 917.808594 146.578125 C 917.808594 150.273438 917.042969 153.761719 915.53125 157.042969 C 914.03125 160.328125 911.898438 163.230469 909.171875 165.757812 C 908.882812 165.945312 908.550781 166.039062 908.195312 166.039062 C 907.933594 166.039062 907.589844 165.945312 907.171875 165.757812 L 906.921875 165.378906 C 906.65625 165.125 906.539062 164.84375 906.539062 164.523438 C 906.539062 164.242188 906.65625 163.910156 906.921875 163.53125 C 909.394531 161.257812 911.292969 158.671875 912.609375 155.765625 C 913.925781 152.863281 914.582031 149.796875 914.582031 146.578125 C 914.582031 146.359375 914.570312 146.117188 914.542969 145.847656 C 914.503906 145.582031 914.492188 145.742188 914.492188 146.339844 C 913.964844 146.941406 912.765625 147.242188 910.882812 147.242188 C 908.988281 147.242188 907.566406 146.660156 906.578125 145.492188 C 905.605469 144.328125 905.117188 143.03125 905.117188 141.605469 C 905.117188 140.1875 905.605469 138.90625 906.578125 137.75 C 907.566406 136.597656 908.988281 136.023438 910.882812 136.019531 C 912.277344 136.023438 913.410156 136.378906 914.292969 137.085938 C 915.175781 137.796875 915.871094 138.660156 916.386719 139.667969 C 916.914062 140.679688 917.28125 141.800781 917.492188 143.03125 C 917.703125 144.261719 917.808594 145.445312 917.808594 146.578125 Z M 917.808594 146.578125 "/>
<path style=" stroke:none;fill-rule:evenodd;fill:rgb(0%,0%,0%);fill-opacity:1;" d="M 1023 129.449219 C 1023 132.113281 1022.417969 134.667969 1021.234375 137.109375 C 1020.0625 139.554688 1018.484375 141.644531 1016.496094 143.371094 C 1014.269531 145.324219 1011.808594 146.769531 1009.109375 147.710938 C 1006.425781 148.65625 1003.605469 149.125 1000.671875 149.125 C 998.023438 149.125 995.457031 148.753906 992.929688 148.011719 C 990.414062 147.269531 988.148438 146.207031 986.121094 144.8125 C 984.09375 143.421875 982.476562 141.714844 981.265625 139.6875 C 980.054688 137.660156 979.449219 135.332031 979.449219 132.699219 C 979.449219 130.722656 980.105469 129.246094 981.4375 128.269531 C 982.753906 127.296875 984.148438 126.808594 985.609375 126.804688 C 987.148438 126.808594 988.570312 127.296875 989.886719 128.269531 C 991.21875 129.246094 991.875 130.722656 991.875 132.699219 C 991.875 133.875 991.652344 134.859375 991.191406 135.648438 C 990.71875 136.4375 990.136719 137.097656 989.414062 137.621094 C 988.703125 138.148438 987.875 138.46875 986.953125 138.59375 C 986.476562 138.71875 986.03125 138.78125 985.609375 138.777344 C 985.203125 138.78125 985.136719 138.8125 985.425781 138.871094 C 986.414062 140.605469 988.359375 142.140625 991.257812 143.46875 C 994.152344 144.800781 997.300781 145.464844 1000.671875 145.460938 C 1002.277344 145.464844 1003.765625 145.070312 1005.148438 144.28125 C 1006.527344 143.492188 1007.6875 142.433594 1008.609375 141.097656 C 1009.769531 139.371094 1010.542969 137.511719 1010.953125 135.53125 C 1011.375 133.554688 1011.570312 131.527344 1011.570312 129.449219 C 1011.570312 127.320312 1011.375 125.269531 1010.953125 123.304688 C 1010.542969 121.34375 1009.769531 119.523438 1008.609375 117.847656 C 1007.660156 116.492188 1006.488281 115.394531 1005.121094 114.558594 C 1003.75 113.722656 1002.277344 113.304688 1000.671875 113.300781 L 993.746094 113.300781 C 992.824219 113.304688 992.324219 112.871094 992.257812 112.003906 L 992.257812 111.492188 C 992.257812 111.121094 992.375 110.832031 992.601562 110.609375 C 992.875 110.335938 993.246094 110.195312 993.691406 110.191406 C 994.628906 110.070312 995.574219 110.011719 996.5625 110.007812 C 997.523438 110.011719 998.457031 109.949219 999.378906 109.820312 C 1001.105469 109.699219 1002.605469 109.167969 1003.882812 108.222656 C 1005.160156 107.28125 1006.226562 106.074219 1007.082031 104.601562 C 1007.9375 103.136719 1008.597656 101.441406 1009.042969 99.523438 C 1009.492188 97.605469 1009.714844 95.636719 1009.714844 93.625 C 1009.714844 92.144531 1009.558594 90.738281 1009.242188 89.40625 C 1008.910156 88.078125 1008.332031 86.914062 1007.464844 85.921875 C 1005.6875 83.882812 1003.421875 82.878906 1000.671875 82.90625 C 997.746094 82.910156 995.0625 83.460938 992.625 84.554688 C 990.179688 85.65625 988.546875 86.839844 987.714844 88.105469 C 987.492188 88.136719 987.609375 88.152344 988.058594 88.148438 C 989.203125 88.152344 990.28125 88.492188 991.308594 89.171875 C 992.835938 90.070312 993.601562 91.585938 993.601562 93.71875 C 993.601562 95.515625 993.023438 96.871094 991.851562 97.78125 C 990.691406 98.695312 989.386719 99.148438 987.953125 99.148438 C 986.558594 99.148438 985.242188 98.703125 984.015625 97.804688 C 982.792969 96.910156 982.171875 95.546875 982.171875 93.71875 C 982.171875 91.460938 982.714844 89.46875 983.792969 87.734375 C 984.886719 86.003906 986.28125 84.519531 987.980469 83.28125 C 989.691406 82.042969 991.652344 81.097656 993.890625 80.449219 C 996.117188 79.800781 998.378906 79.472656 1000.671875 79.472656 C 1003.132812 79.472656 1005.503906 79.800781 1007.804688 80.449219 C 1010.097656 81.097656 1012.269531 82.105469 1014.296875 83.460938 C 1015.957031 84.640625 1017.351562 86.085938 1018.484375 87.804688 C 1019.617188 89.523438 1020.179688 91.460938 1020.179688 93.625 C 1020.179688 95.792969 1019.800781 97.835938 1019.011719 99.753906 C 1018.234375 101.675781 1017.191406 103.40625 1015.902344 104.953125 C 1014.613281 106.5 1013.074219 107.859375 1011.296875 109.035156 C 1009.503906 110.210938 1008.160156 110.953125 1007.28125 111.261719 C 1008.042969 111.355469 1009.347656 111.8125 1011.203125 112.632812 C 1013.046875 113.453125 1014.808594 114.542969 1016.496094 115.902344 C 1018.484375 117.605469 1020.0625 119.640625 1021.234375 122.003906 C 1022.417969 124.371094 1023 126.855469 1023 129.449219 Z M 1023 129.449219 "/>
<path style=" stroke:none;fill-rule:evenodd;fill:rgb(0%,0%,0%);fill-opacity:1;" d="M 1058.53125 146.578125 C 1058.53125 150.273438 1057.769531 153.761719 1056.253906 157.042969 C 1054.753906 160.328125 1052.621094 163.230469 1049.894531 165.757812 C 1049.605469 165.945312 1049.277344 166.039062 1048.921875 166.039062 C 1048.660156 166.039062 1048.316406 165.945312 1047.894531 165.757812 L 1047.644531 165.378906 C 1047.394531 165.125 1047.261719 164.84375 1047.261719 164.523438 C 1047.261719 164.242188 1047.394531 163.910156 1047.644531 163.53125 C 1050.121094 161.257812 1052.015625 158.671875 1053.332031 155.765625 C 1054.648438 152.863281 1055.308594 149.796875 1055.308594 146.578125 C 1055.308594 146.359375 1055.292969 146.117188 1055.265625 145.847656 C 1055.226562 145.582031 1055.214844 145.742188 1055.214844 146.339844 C 1054.6875 146.941406 1053.488281 147.242188 1051.605469 147.242188 C 1049.710938 147.242188 1048.289062 146.660156 1047.300781 145.492188 C 1046.328125 144.328125 1045.839844 143.03125 1045.839844 141.605469 C 1045.839844 140.1875 1046.328125 138.90625 1047.300781 137.75 C 1048.289062 136.597656 1049.710938 136.023438 1051.605469 136.019531 C 1053.003906 136.023438 1054.136719 136.378906 1055.015625 137.085938 C 1055.898438 137.796875 1056.597656 138.660156 1057.109375 139.667969 C 1057.636719 140.679688 1058.003906 141.800781 1058.214844 143.03125 C 1058.425781 144.261719 1058.53125 145.445312 1058.53125 146.578125 Z M 1058.53125 146.578125 "/>
<path style=" stroke:none;fill-rule:evenodd;fill:rgb(0%,0%,0%);fill-opacity:1;" d="M 1154.929688 130.425781 L 1154.929688 139.84375 C 1154.929688 140.40625 1155.035156 140.925781 1155.246094 141.402344 C 1155.457031 141.882812 1155.796875 142.199219 1156.273438 142.351562 C 1157.007812 142.695312 1158.207031 142.882812 1159.851562 142.910156 C 1161.511719 142.941406 1163.183594 142.957031 1164.867188 142.953125 L 1164.867188 146.945312 C 1159.996094 146.761719 1155.21875 146.667969 1150.53125 146.667969 C 1145.910156 146.667969 1141.050781 146.761719 1135.945312 146.945312 L 1135.945312 142.953125 C 1137.707031 142.957031 1139.394531 142.941406 1141.011719 142.910156 C 1142.644531 142.882812 1143.855469 142.695312 1144.648438 142.351562 C 1145.132812 142.199219 1145.476562 141.882812 1145.699219 141.402344 C 1145.921875 140.925781 1146.042969 140.40625 1146.042969 139.84375 L 1146.042969 130.425781 L 1118.789062 130.425781 L 1118.789062 126.664062 L 1150.730469 79.195312 C 1151.136719 78.640625 1151.664062 78.359375 1152.296875 78.359375 L 1153.347656 78.359375 C 1154.402344 78.359375 1154.929688 78.886719 1154.929688 79.9375 L 1154.929688 126.34375 L 1165.210938 126.34375 L 1165.210938 130.425781 Z M 1146.515625 91.398438 L 1122.988281 126.34375 L 1146.515625 126.34375 Z M 1146.515625 91.398438 "/>
<path style=" stroke:none;fill-rule:evenodd;fill:rgb(0%,0%,0%);fill-opacity:1;" d="M 1199.257812 146.578125 C 1199.257812 150.273438 1198.507812 153.761719 1196.992188 157.042969 C 1195.476562 160.328125 1193.359375 163.230469 1190.632812 165.757812 C 1190.34375 165.945312 1190.015625 166.039062 1189.644531 166.039062 C 1189.394531 166.039062 1189.054688 165.945312 1188.632812 165.757812 L 1188.382812 165.378906 C 1188.117188 165.125 1187.988281 164.84375 1187.988281 164.523438 C 1187.988281 164.242188 1188.117188 163.910156 1188.382812 163.53125 C 1190.855469 161.257812 1192.753906 158.671875 1194.070312 155.765625 C 1195.386719 152.863281 1196.042969 149.796875 1196.042969 146.578125 C 1196.042969 146.359375 1196.03125 146.117188 1195.992188 145.847656 C 1195.964844 145.582031 1195.9375 145.742188 1195.9375 146.339844 C 1195.425781 146.941406 1194.226562 147.242188 1192.332031 147.242188 C 1190.449219 147.242188 1189.015625 146.660156 1188.039062 145.492188 C 1187.066406 144.328125 1186.578125 143.03125 1186.578125 141.605469 C 1186.578125 140.1875 1187.066406 138.90625 1188.039062 137.75 C 1189.015625 136.597656 1190.449219 136.023438 1192.332031 136.019531 C 1193.726562 136.023438 1194.871094 136.378906 1195.753906 137.085938 C 1196.625 137.796875 1197.335938 138.660156 1197.847656 139.667969 C 1198.375 140.679688 1198.730469 141.800781 1198.941406 143.03125 C 1199.164062 144.261719 1199.257812 145.445312 1199.257812 146.578125 Z M 1199.257812 146.578125 "/>
<path style=" stroke:none;fill-rule:evenodd;fill:rgb(0%,0%,0%);fill-opacity:1;" d="M 1316.429688 118.207031 C 1316.429688 121.503906 1313.753906 124.179688 1310.449219 124.179688 C 1307.144531 124.179688 1304.472656 121.503906 1304.472656 118.207031 C 1304.472656 114.90625 1307.144531 112.230469 1310.449219 112.230469 C 1313.753906 112.230469 1316.429688 114.90625 1316.429688 118.207031 Z M 1316.429688 118.207031 "/>
<path style=" stroke:none;fill-rule:evenodd;fill:rgb(0%,0%,0%);fill-opacity:1;" d="M 1285.871094 118.207031 C 1285.871094 121.503906 1283.183594 124.179688 1279.894531 124.179688 C 1276.589844 124.179688 1273.917969 121.503906 1273.917969 118.207031 C 1273.917969 114.90625 1276.589844 112.230469 1279.894531 112.230469 C 1283.183594 112.230469 1285.871094 114.90625 1285.871094 118.207031 Z M 1285.871094 118.207031 "/>
<path style=" stroke:none;fill-rule:evenodd;fill:rgb(0%,0%,0%);fill-opacity:1;" d="M 1346.996094 118.207031 C 1346.996094 121.503906 1344.3125 124.179688 1341.019531 124.179688 C 1337.714844 124.179688 1335.042969 121.503906 1335.042969 118.207031 C 1335.042969 114.90625 1337.714844 112.230469 1341.019531 112.230469 C 1344.3125 112.230469 1346.996094 114.90625 1346.996094 118.207031 Z M 1346.996094 118.207031 "/>
<g clip-path="url(#clip2)" clip-rule="nonzero">
<path style=" stroke:none;fill-rule:evenodd;fill:rgb(0%,0%,0%);fill-opacity:1;" d="M 193.242188 104.394531 C 194.25 105.28125 194.902344 106.527344 195.195312 108.136719 C 195.257812 108.957031 195.292969 109.8125 195.292969 110.691406 C 195.292969 111.484375 195.257812 112.273438 195.195312 113.0625 C 194.996094 114.832031 194.683594 116.636719 194.242188 118.484375 C 193.804688 120.332031 193.386719 121.996094 192.996094 123.476562 C 192.21875 126.476562 191.128906 129.457031 189.730469 132.40625 C 188.332031 135.359375 186.648438 138.015625 184.679688 140.382812 C 182.714844 142.75 180.46875 144.6875 177.945312 146.183594 C 175.425781 147.683594 172.6875 148.429688 169.726562 148.429688 C 166.574219 148.429688 164.261719 147.523438 162.800781 145.710938 C 161.335938 143.898438 160.492188 142.054688 160.261719 140.191406 C 158.929688 142.214844 157.011719 144.097656 154.507812 145.828125 C 152.003906 147.5625 149.140625 148.429688 145.917969 148.429688 C 142.992188 148.429688 140.707031 147.644531 139.066406 146.066406 C 137.421875 144.488281 136.324219 142.5 135.769531 140.097656 C 135.382812 138.523438 135.171875 136.769531 135.136719 134.839844 C 135.136719 133.929688 135.167969 133.011719 135.234375 132.09375 C 135.496094 129.160156 136 126.226562 136.746094 123.289062 C 137.59375 120.164062 138.761719 117.121094 140.257812 114.152344 C 141.757812 111.1875 143.546875 108.328125 145.628906 105.578125 C 145.953125 105.109375 146.375 104.808594 146.894531 104.679688 L 147.234375 104.679688 C 147.496094 104.683594 147.757812 104.730469 148.015625 104.820312 C 148.441406 105.011719 148.699219 105.34375 148.796875 105.816406 L 148.796875 106.054688 C 148.796875 106.339844 148.667969 106.671875 148.40625 107.046875 C 146.519531 109.703125 144.863281 112.394531 143.429688 115.121094 C 142 117.855469 140.929688 120.640625 140.210938 123.476562 C 139.625 125.65625 139.332031 127.742188 139.332031 129.726562 L 139.429688 129.824219 C 139.429688 132.035156 139.75 133.914062 140.382812 135.460938 C 141.015625 137.007812 141.945312 138.230469 143.164062 139.128906 C 144.382812 140.027344 145.902344 140.480469 147.722656 140.476562 C 150.164062 140.480469 152.46875 139.761719 154.628906 138.324219 C 156.789062 136.890625 158.621094 135 160.113281 132.664062 C 160.246094 131.183594 160.480469 129.644531 160.824219 128.050781 C 161.167969 126.457031 161.53125 124.867188 161.921875 123.289062 C 161.988281 123.039062 162.09375 122.636719 162.238281 122.082031 C 162.386719 121.53125 162.605469 120.988281 162.898438 120.449219 C 163.191406 119.914062 163.582031 119.402344 164.066406 118.910156 C 164.558594 118.421875 165.242188 118.179688 166.117188 118.175781 C 166.964844 118.179688 167.554688 118.445312 167.898438 118.980469 C 168.242188 119.519531 168.410156 120.085938 168.410156 120.683594 C 168.410156 121.222656 168.34375 121.761719 168.214844 122.296875 C 168.082031 122.835938 167.984375 123.230469 167.921875 123.476562 C 167.53125 125.121094 167.039062 126.765625 166.433594 128.40625 C 165.832031 130.046875 165.191406 131.609375 164.507812 133.089844 C 164.765625 135.238281 165.460938 137.007812 166.582031 138.394531 C 167.703125 139.785156 169.339844 140.480469 171.484375 140.476562 C 173.464844 140.480469 175.417969 140.015625 177.335938 139.082031 C 179.253906 138.152344 181.027344 136.902344 182.65625 135.34375 C 184.28125 133.777344 185.6875 131.949219 186.875 129.847656 C 188.0625 127.75 188.933594 125.5625 189.484375 123.289062 C 189.8125 122.09375 189.992188 120.90625 190.023438 119.738281 C 190.023438 118.664062 189.875 117.640625 189.582031 116.660156 C 188.96875 114.578125 187.859375 112.828125 186.265625 111.402344 C 185.421875 110.710938 184.996094 109.890625 184.996094 108.941406 C 184.996094 108.691406 185.03125 108.46875 185.09375 108.277344 C 185.320312 107.144531 185.851562 106.160156 186.683594 105.320312 C 187.507812 104.488281 188.527344 103.890625 189.726562 103.542969 C 190.054688 103.484375 190.378906 103.453125 190.703125 103.449219 C 191.648438 103.453125 192.496094 103.765625 193.242188 104.394531 Z M 193.242188 104.394531 "/>
</g>
<g clip-path="url(#clip3)" clip-rule="nonzero">
<path style=" stroke:none;fill-rule:evenodd;fill:rgb(0%,0%,0%);fill-opacity:1;" d="M 113.320312 599.363281 C 114.324219 600.246094 114.976562 601.496094 115.269531 603.101562 C 115.335938 603.929688 115.367188 604.769531 115.367188 605.652344 C 115.367188 606.457031 115.335938 607.246094 115.269531 608.023438 C 115.074219 609.792969 114.757812 611.605469 114.320312 613.449219 C 113.882812 615.296875 113.464844 616.964844 113.074219 618.441406 C 112.296875 621.445312 111.207031 624.421875 109.808594 627.371094 C 108.410156 630.324219 106.726562 632.984375 104.753906 635.351562 C 102.789062 637.71875 100.546875 639.652344 98.023438 641.152344 C 95.503906 642.648438 92.761719 643.398438 89.800781 643.398438 C 86.648438 643.398438 84.339844 642.492188 82.875 640.675781 C 81.414062 638.863281 80.566406 637.023438 80.339844 635.160156 C 79.007812 637.183594 77.085938 639.0625 74.582031 640.796875 C 72.078125 642.53125 69.214844 643.398438 65.992188 643.398438 C 63.066406 643.398438 60.785156 642.609375 59.140625 641.03125 C 57.496094 639.457031 56.398438 637.46875 55.84375 635.0625 C 55.457031 633.488281 55.246094 631.738281 55.210938 629.808594 C 55.210938 628.894531 55.242188 627.976562 55.308594 627.0625 C 55.570312 624.128906 56.074219 621.191406 56.820312 618.253906 C 57.667969 615.132812 58.839844 612.085938 60.332031 609.117188 C 61.832031 606.152344 63.621094 603.296875 65.703125 600.546875 C 66.027344 600.074219 66.449219 599.769531 66.96875 599.640625 L 67.308594 599.640625 C 67.570312 599.652344 67.832031 599.691406 68.089844 599.785156 C 68.515625 599.980469 68.777344 600.308594 68.875 600.785156 L 68.875 601.019531 C 68.875 601.308594 68.742188 601.640625 68.480469 602.007812 C 66.597656 604.664062 64.9375 607.363281 63.503906 610.089844 C 62.074219 612.820312 61.003906 615.605469 60.285156 618.441406 C 59.699219 620.625 59.40625 622.707031 59.40625 624.695312 L 59.503906 624.789062 C 59.503906 627.003906 59.824219 628.882812 60.457031 630.425781 C 61.089844 631.976562 62.019531 633.195312 63.238281 634.097656 C 64.457031 634.996094 65.976562 635.445312 67.796875 635.441406 C 70.238281 635.445312 72.542969 634.730469 74.703125 633.289062 C 76.867188 631.855469 78.695312 629.96875 80.191406 627.628906 C 80.320312 626.148438 80.558594 624.609375 80.898438 623.015625 C 81.242188 621.421875 81.605469 619.835938 81.996094 618.253906 C 82.0625 618.003906 82.167969 617.601562 82.3125 617.050781 C 82.460938 616.5 82.679688 615.953125 82.976562 615.417969 C 83.265625 614.878906 83.65625 614.367188 84.144531 613.875 C 84.632812 613.386719 85.316406 613.140625 86.191406 613.140625 C 87.039062 613.140625 87.632812 613.414062 87.972656 613.949219 C 88.316406 614.484375 88.484375 615.050781 88.484375 615.648438 C 88.484375 616.1875 88.417969 616.726562 88.289062 617.261719 C 88.160156 617.800781 88.0625 618.195312 87.996094 618.441406 C 87.609375 620.089844 87.113281 621.730469 86.507812 623.371094 C 85.90625 625.015625 85.265625 626.574219 84.582031 628.054688 C 84.84375 630.203125 85.535156 631.976562 86.65625 633.363281 C 87.78125 634.753906 89.414062 635.445312 91.558594 635.441406 C 93.542969 635.445312 95.492188 634.980469 97.410156 634.046875 C 99.332031 633.121094 101.105469 631.871094 102.730469 630.308594 C 104.359375 628.746094 105.765625 626.917969 106.953125 624.816406 C 108.140625 622.714844 109.011719 620.53125 109.5625 618.253906 C 109.886719 617.058594 110.066406 615.875 110.097656 614.703125 C 110.097656 613.628906 109.953125 612.605469 109.660156 611.625 C 109.042969 609.542969 107.9375 607.796875 106.34375 606.363281 C 105.496094 605.679688 105.074219 604.851562 105.074219 603.902344 C 105.074219 603.652344 105.105469 603.441406 105.171875 603.246094 C 105.398438 602.113281 105.929688 601.125 106.757812 600.285156 C 107.585938 599.453125 108.601562 598.863281 109.804688 598.507812 C 110.128906 598.453125 110.457031 598.414062 110.78125 598.414062 C 111.726562 598.414062 112.574219 598.730469 113.320312 599.363281 Z M 113.320312 599.363281 "/>
</g>
<path style="fill:none;stroke-width:0.2948;stroke-linecap:round;stroke-linejoin:miter;stroke:rgb(0%,0%,0%);stroke-opacity:1;stroke-miterlimit:10;" d="M 6.706604 9.603964 L 11.866038 9.603964 " transform="matrix(13.165355,0,-0.000000240692,-13.158414,55.216894,739.552625)"/>
<path style="fill:none;stroke-width:0.2948;stroke-linecap:round;stroke-linejoin:miter;stroke:rgb(0%,0%,0%);stroke-opacity:1;stroke-miterlimit:10;" d="M 9.286173 12.184003 L 9.286173 7.024519 " transform="matrix(13.165355,0,-0.000000240692,-13.158414,55.216894,739.552625)"/>
<path style=" stroke:none;fill-rule:evenodd;fill:rgb(0%,0%,0%);fill-opacity:1;" d="M 274.867188 641.917969 C 268.996094 641.730469 263.296875 641.640625 257.738281 641.640625 C 252.195312 641.640625 246.496094 641.730469 240.625 641.917969 L 240.625 637.925781 L 243.929688 637.925781 C 244.980469 637.929688 245.96875 637.914062 246.890625 637.882812 C 247.8125 637.855469 248.695312 637.777344 249.523438 637.652344 C 250.355469 637.527344 251.066406 637.40625 251.671875 637.277344 C 252.183594 637.1875 252.605469 636.902344 252.933594 636.421875 C 253.277344 635.941406 253.449219 635.410156 253.449219 634.816406 L 253.449219 582.519531 C 251.855469 583.296875 249.894531 583.886719 247.5625 584.285156 C 245.234375 584.691406 242.691406 584.886719 239.914062 584.886719 L 239.914062 580.941406 C 243.730469 580.941406 247.273438 580.492188 250.511719 579.574219 C 253.738281 578.664062 256.542969 576.953125 258.898438 574.441406 L 260.371094 574.441406 C 261.425781 574.441406 261.953125 574.953125 261.953125 575.980469 L 261.953125 634.816406 C 261.953125 635.4375 262.109375 635.980469 262.425781 636.445312 C 262.753906 636.910156 263.214844 637.1875 263.820312 637.277344 C 264.335938 637.40625 264.980469 637.527344 265.785156 637.652344 C 266.574219 637.777344 267.480469 637.855469 268.484375 637.882812 C 269.484375 637.914062 270.46875 637.929688 271.417969 637.925781 L 274.867188 637.925781 Z M 274.867188 641.917969 "/>
<g clip-path="url(#clip4)" clip-rule="nonzero">
<path style=" stroke:none;fill-rule:evenodd;fill:rgb(0%,0%,0%);fill-opacity:1;" d="M 613.726562 600.222656 C 614.738281 601.109375 615.386719 602.355469 615.679688 603.960938 C 615.742188 604.785156 615.777344 605.636719 615.777344 606.519531 C 615.777344 607.3125 615.742188 608.101562 615.679688 608.886719 C 615.484375 610.65625 615.167969 612.464844 614.730469 614.3125 C 614.289062 616.15625 613.875 617.824219 613.484375 619.304688 C 612.703125 622.304688 611.613281 625.28125 610.214844 628.234375 C 608.816406 631.1875 607.132812 633.84375 605.164062 636.210938 C 603.195312 638.578125 600.953125 640.515625 598.429688 642.011719 C 595.90625 643.511719 593.167969 644.257812 590.207031 644.257812 C 587.050781 644.257812 584.742188 643.355469 583.277344 641.539062 C 581.816406 639.726562 580.96875 637.882812 580.738281 636.019531 C 579.40625 638.042969 577.488281 639.921875 574.980469 641.65625 C 572.476562 643.390625 569.613281 644.257812 566.390625 644.257812 C 563.464844 644.257812 561.179688 643.472656 559.535156 641.894531 C 557.894531 640.316406 556.796875 638.328125 556.242188 635.925781 C 555.851562 634.351562 555.644531 632.597656 555.609375 630.667969 C 555.609375 629.757812 555.640625 628.839844 555.707031 627.921875 C 555.964844 624.988281 556.472656 622.054688 557.21875 619.113281 C 558.066406 615.992188 559.238281 612.949219 560.734375 609.980469 C 562.230469 607.011719 564.019531 604.15625 566.097656 601.40625 C 566.425781 600.933594 566.847656 600.636719 567.367188 600.503906 L 567.710938 600.503906 C 567.96875 600.507812 568.230469 600.554688 568.492188 600.648438 C 568.914062 600.839844 569.175781 601.171875 569.273438 601.640625 L 569.273438 601.878906 C 569.273438 602.164062 569.140625 602.496094 568.882812 602.875 C 566.996094 605.527344 565.335938 608.222656 563.90625 610.949219 C 562.472656 613.683594 561.398438 616.464844 560.683594 619.304688 C 560.097656 621.484375 559.804688 623.570312 559.804688 625.554688 L 559.902344 625.648438 C 559.902344 627.863281 560.222656 629.742188 560.855469 631.289062 C 561.488281 632.835938 562.414062 634.058594 563.636719 634.957031 C 564.855469 635.855469 566.375 636.304688 568.199219 636.304688 C 570.636719 636.304688 572.941406 635.589844 575.105469 634.152344 C 577.269531 632.714844 579.097656 630.828125 580.59375 628.488281 C 580.722656 627.011719 580.960938 625.472656 581.300781 623.875 C 581.644531 622.285156 582.007812 620.695312 582.398438 619.113281 C 582.464844 618.867188 582.570312 618.464844 582.714844 617.910156 C 582.863281 617.359375 583.082031 616.816406 583.375 616.277344 C 583.667969 615.742188 584.058594 615.230469 584.546875 614.738281 C 585.035156 614.25 585.71875 614.003906 586.597656 614 C 587.441406 614.003906 588.039062 614.273438 588.378906 614.808594 C 588.71875 615.347656 588.890625 615.914062 588.890625 616.511719 C 588.890625 617.050781 588.824219 617.589844 588.695312 618.125 C 588.5625 618.660156 588.464844 619.054688 588.402344 619.304688 C 588.011719 620.949219 587.515625 622.59375 586.910156 624.230469 C 586.3125 625.875 585.667969 627.4375 584.984375 628.917969 C 585.246094 631.066406 585.9375 632.835938 587.058594 634.222656 C 588.183594 635.613281 589.816406 636.304688 591.964844 636.304688 C 593.949219 636.304688 595.902344 635.839844 597.820312 634.910156 C 599.738281 633.980469 601.511719 632.730469 603.140625 631.167969 C 604.769531 629.605469 606.175781 627.777344 607.363281 625.675781 C 608.550781 623.578125 609.417969 621.390625 609.96875 619.113281 C 610.296875 617.917969 610.476562 616.734375 610.503906 615.5625 C 610.503906 614.492188 610.359375 613.46875 610.066406 612.484375 C 609.453125 610.40625 608.34375 608.652344 606.746094 607.230469 C 605.902344 606.535156 605.480469 605.71875 605.480469 604.765625 C 605.480469 604.519531 605.511719 604.296875 605.578125 604.105469 C 605.804688 602.972656 606.335938 601.984375 607.164062 601.148438 C 607.996094 600.3125 609.011719 599.71875 610.214844 599.371094 C 610.539062 599.308594 610.863281 599.277344 611.191406 599.273438 C 612.132812 599.277344 612.980469 599.59375 613.726562 600.222656 Z M 613.726562 600.222656 "/>
</g>
<path style=" stroke:none;fill-rule:evenodd;fill:rgb(0%,0%,0%);fill-opacity:1;" d="M 637.257812 642.410156 C 637.257812 646.105469 636.503906 649.59375 634.988281 652.875 C 633.476562 656.164062 631.355469 659.066406 628.621094 661.589844 C 628.332031 661.78125 628.003906 661.875 627.644531 661.875 C 627.386719 661.875 627.046875 661.78125 626.621094 661.589844 L 626.375 661.210938 C 626.117188 660.960938 625.984375 660.675781 625.984375 660.359375 C 625.984375 660.074219 626.117188 659.742188 626.375 659.363281 C 628.847656 657.089844 630.746094 654.503906 632.0625 651.597656 C 633.378906 648.695312 634.035156 645.632812 634.035156 642.410156 C 634.035156 642.191406 634.023438 641.949219 633.988281 641.679688 C 633.957031 641.414062 633.941406 641.578125 633.941406 642.175781 C 633.421875 642.777344 632.21875 643.074219 630.328125 643.074219 C 628.441406 643.074219 627.011719 642.496094 626.035156 641.324219 C 625.058594 640.160156 624.570312 638.863281 624.570312 637.441406 C 624.570312 636.023438 625.058594 634.738281 626.035156 633.582031 C 627.011719 632.433594 628.441406 631.855469 630.328125 631.851562 C 631.726562 631.855469 632.867188 632.210938 633.742188 632.921875 C 634.621094 633.632812 635.320312 634.492188 635.84375 635.503906 C 636.363281 636.515625 636.730469 637.632812 636.941406 638.863281 C 637.15625 640.09375 637.257812 641.277344 637.257812 642.410156 Z M 637.257812 642.410156 "/>
<path style=" stroke:none;fill-rule:evenodd;fill:rgb(0%,0%,0%);fill-opacity:1;" d="M 742.753906 610.480469 C 742.753906 614.9375 742.4375 619.371094 741.820312 623.777344 C 741.203125 628.1875 739.660156 632.324219 737.199219 636.1875 C 735.449219 639.007812 733.105469 641.171875 730.167969 642.683594 C 727.246094 644.203125 724.046875 644.960938 720.609375 644.960938 C 717.292969 644.960938 714.160156 644.203125 711.210938 642.683594 C 708.261719 641.171875 705.90625 639.007812 704.15625 636.1875 C 701.707031 632.324219 700.164062 628.1875 699.546875 623.777344 C 698.925781 619.371094 698.613281 614.9375 698.613281 610.480469 C 698.613281 605.96875 698.925781 601.457031 699.546875 596.957031 C 700.164062 592.453125 701.707031 588.242188 704.15625 584.308594 C 705.90625 581.464844 708.261719 579.253906 711.183594 577.675781 C 714.121094 576.097656 717.265625 575.308594 720.609375 575.304688 C 724.019531 575.308594 727.207031 576.097656 730.15625 577.675781 C 733.105469 579.253906 735.449219 581.464844 737.199219 584.308594 C 739.660156 588.242188 741.203125 592.453125 741.820312 596.957031 C 742.4375 601.457031 742.753906 605.96875 742.753906 610.480469 Z M 733.277344 608.855469 C 733.277344 606.910156 733.261719 604.855469 733.238281 602.6875 C 733.195312 600.523438 733.117188 598.402344 733 596.328125 C 732.867188 594.257812 732.632812 592.300781 732.300781 590.460938 C 731.972656 588.621094 731.566406 587.050781 731.078125 585.746094 C 730.128906 583.644531 728.722656 581.921875 726.878906 580.574219 C 725.019531 579.230469 722.941406 578.554688 720.609375 578.554688 C 718.347656 578.554688 716.304688 579.238281 714.460938 580.597656 C 712.632812 581.960938 711.238281 583.675781 710.277344 585.746094 C 709.800781 587.050781 709.394531 588.621094 709.066406 590.460938 C 708.722656 592.300781 708.5 594.257812 708.367188 596.328125 C 708.234375 598.402344 708.15625 600.523438 708.128906 602.6875 C 708.089844 604.855469 708.078125 606.910156 708.078125 608.855469 C 708.078125 611.027344 708.089844 613.308594 708.128906 615.703125 C 708.15625 618.101562 708.234375 620.421875 708.367188 622.664062 C 708.5 624.910156 708.722656 627.035156 709.066406 629.046875 C 709.394531 631.058594 709.800781 632.742188 710.277344 634.101562 C 711.171875 636.363281 712.554688 638.21875 714.410156 639.671875 C 716.28125 641.128906 718.347656 641.855469 720.609375 641.851562 C 722.96875 641.855469 725.085938 641.128906 726.945312 639.671875 C 728.8125 638.21875 730.195312 636.363281 731.078125 634.101562 C 731.566406 632.742188 731.972656 631.058594 732.300781 629.046875 C 732.632812 627.035156 732.867188 624.910156 733 622.664062 C 733.117188 620.421875 733.195312 618.101562 733.238281 615.703125 C 733.261719 613.308594 733.277344 611.027344 733.277344 608.855469 Z M 733.277344 608.855469 "/>
<path style=" stroke:none;fill-rule:evenodd;fill:rgb(0%,0%,0%);fill-opacity:1;" d="M 777.984375 642.410156 C 777.984375 646.105469 777.222656 649.59375 775.722656 652.875 C 774.207031 656.164062 772.074219 659.066406 769.347656 661.589844 C 769.058594 661.78125 768.730469 661.875 768.375 661.875 C 768.113281 661.875 767.769531 661.78125 767.347656 661.589844 L 767.097656 661.210938 C 766.835938 660.960938 766.714844 660.675781 766.714844 660.359375 C 766.714844 660.074219 766.835938 659.742188 767.097656 659.363281 C 769.574219 657.089844 771.46875 654.503906 772.785156 651.597656 C 774.101562 648.695312 774.761719 645.632812 774.761719 642.410156 C 774.761719 642.191406 774.746094 641.949219 774.71875 641.679688 C 774.679688 641.414062 774.667969 641.578125 774.667969 642.175781 C 774.140625 642.777344 772.941406 643.074219 771.058594 643.074219 C 769.164062 643.074219 767.742188 642.496094 766.753906 641.324219 C 765.78125 640.160156 765.292969 638.863281 765.292969 637.441406 C 765.292969 636.023438 765.78125 634.738281 766.753906 633.582031 C 767.742188 632.433594 769.164062 631.855469 771.058594 631.851562 C 772.457031 631.855469 773.589844 632.210938 774.46875 632.921875 C 775.351562 633.632812 776.050781 634.492188 776.5625 635.503906 C 777.089844 636.515625 777.457031 637.632812 777.667969 638.863281 C 777.878906 640.09375 777.984375 641.277344 777.984375 642.410156 Z M 777.984375 642.410156 "/>
<path style=" stroke:none;fill-rule:evenodd;fill:rgb(0%,0%,0%);fill-opacity:1;" d="M 879.175781 642.777344 C 873.300781 642.59375 867.601562 642.5 862.046875 642.5 C 856.503906 642.5 850.804688 642.59375 844.929688 642.777344 L 844.929688 638.789062 L 848.234375 638.789062 C 849.277344 638.789062 850.277344 638.777344 851.199219 638.746094 C 852.121094 638.714844 853 638.636719 853.832031 638.511719 C 854.660156 638.390625 855.371094 638.265625 855.976562 638.136719 C 856.492188 638.046875 856.910156 637.765625 857.242188 637.28125 C 857.582031 636.804688 857.742188 636.269531 857.742188 635.679688 L 857.742188 583.378906 C 856.148438 584.15625 854.1875 584.746094 851.871094 585.144531 C 849.539062 585.550781 846.984375 585.75 844.207031 585.746094 L 844.207031 581.804688 C 848.039062 581.804688 851.566406 581.351562 854.804688 580.4375 C 858.042969 579.523438 860.835938 577.816406 863.203125 575.304688 L 864.679688 575.304688 C 865.734375 575.308594 866.257812 575.816406 866.257812 576.835938 L 866.257812 635.679688 C 866.257812 636.300781 866.417969 636.839844 866.734375 637.304688 C 867.0625 637.769531 867.523438 638.046875 868.128906 638.136719 C 868.628906 638.265625 869.289062 638.390625 870.089844 638.511719 C 870.878906 638.636719 871.789062 638.714844 872.789062 638.746094 C 873.789062 638.777344 874.777344 638.789062 875.726562 638.789062 L 879.175781 638.789062 Z M 879.175781 642.777344 "/>
<path style=" stroke:none;fill-rule:evenodd;fill:rgb(0%,0%,0%);fill-opacity:1;" d="M 918.710938 642.410156 C 918.710938 646.105469 917.960938 649.59375 916.445312 652.875 C 914.929688 656.164062 912.796875 659.066406 910.074219 661.589844 C 909.785156 661.78125 909.453125 661.875 909.097656 661.875 C 908.835938 661.875 908.492188 661.78125 908.070312 661.589844 L 907.820312 661.210938 C 907.570312 660.960938 907.441406 660.675781 907.441406 660.359375 C 907.441406 660.074219 907.570312 659.742188 907.820312 659.363281 C 910.296875 657.089844 912.191406 654.503906 913.507812 651.597656 C 914.824219 648.695312 915.484375 645.632812 915.484375 642.410156 C 915.484375 642.191406 915.472656 641.949219 915.445312 641.679688 C 915.40625 641.414062 915.390625 641.578125 915.390625 642.175781 C 914.867188 642.777344 913.667969 643.074219 911.785156 643.074219 C 909.890625 643.074219 908.46875 642.496094 907.480469 641.324219 C 906.503906 640.160156 906.019531 638.863281 906.019531 637.441406 C 906.019531 636.023438 906.503906 634.738281 907.480469 633.582031 C 908.46875 632.433594 909.890625 631.855469 911.785156 631.851562 C 913.179688 631.855469 914.3125 632.210938 915.195312 632.921875 C 916.078125 633.632812 916.773438 634.492188 917.289062 635.503906 C 917.816406 636.515625 918.183594 637.632812 918.394531 638.863281 C 918.605469 640.09375 918.710938 641.277344 918.710938 642.410156 Z M 918.710938 642.410156 "/>
<path style=" stroke:none;fill-rule:evenodd;fill:rgb(0%,0%,0%);fill-opacity:1;" d="M 1020.042969 642.777344 L 981.113281 642.777344 L 981.113281 640.226562 C 981.113281 640.042969 981.207031 639.765625 981.402344 639.390625 L 997.042969 622.40625 C 998.886719 620.367188 1000.757812 618.277344 1002.652344 616.144531 C 1004.546875 614.011719 1006.257812 611.828125 1007.746094 609.601562 C 1009.246094 607.375 1010.445312 605.078125 1011.339844 602.710938 C 1012.238281 600.34375 1012.671875 597.859375 1012.671875 595.261719 C 1012.671875 593.066406 1012.394531 591.015625 1011.816406 589.113281 C 1011.234375 587.210938 1010.40625 585.542969 1009.328125 584.101562 C 1008.246094 582.664062 1006.890625 581.503906 1005.257812 580.621094 C 1003.640625 579.738281 1001.757812 579.296875 999.625 579.296875 C 996.4375 579.296875 993.621094 580.25 991.183594 582.152344 C 988.734375 584.054688 987.117188 586.152344 986.328125 588.4375 C 986.167969 588.5 986.417969 588.535156 987.089844 588.53125 L 987.90625 588.53125 C 988.855469 588.75 989.683594 589.085938 990.394531 589.53125 C 991.09375 589.980469 991.683594 590.597656 992.160156 591.386719 C 992.632812 592.175781 992.871094 593.128906 992.871094 594.238281 C 992.871094 596.097656 992.277344 597.523438 991.066406 598.511719 C 989.84375 599.503906 988.484375 599.996094 987 599.992188 C 985.5625 599.996094 984.21875 599.503906 982.984375 598.511719 C 981.730469 597.523438 981.113281 596.097656 981.113281 594.238281 C 981.113281 591.644531 981.625 589.183594 982.640625 586.863281 C 983.667969 584.542969 985.050781 582.53125 986.800781 580.832031 C 988.550781 579.132812 990.632812 577.785156 993.015625 576.792969 C 995.410156 575.804688 997.953125 575.308594 1000.625 575.304688 C 1003.941406 575.308594 1006.984375 575.796875 1009.734375 576.769531 C 1012.5 577.746094 1014.84375 579.144531 1016.792969 580.96875 C 1018.726562 582.796875 1020.253906 584.90625 1021.359375 587.304688 C 1022.453125 589.703125 1023.003906 592.351562 1023.003906 595.261719 C 1023.003906 598.480469 1022.269531 601.441406 1020.808594 604.148438 C 1019.332031 606.859375 1017.515625 609.339844 1015.355469 611.597656 C 1013.183594 613.855469 1010.878906 615.984375 1008.445312 617.976562 C 1006.007812 619.972656 1003.796875 621.914062 1001.824219 623.800781 L 990.816406 634.148438 L 1005.21875 634.148438 C 1007.21875 634.152344 1009.101562 634.136719 1010.828125 634.101562 C 1012.566406 634.074219 1014.039062 634.011719 1015.265625 633.917969 C 1016.476562 633.824219 1017.09375 633.765625 1017.121094 633.730469 C 1017.371094 633.515625 1017.621094 633.082031 1017.84375 632.433594 C 1018.070312 631.785156 1018.265625 631.019531 1018.464844 630.136719 C 1018.648438 629.253906 1018.84375 628.359375 1019.042969 627.445312 C 1019.226562 626.535156 1019.398438 625.535156 1019.554688 624.449219 L 1023.097656 624.449219 Z M 1020.042969 642.777344 "/>
<path style=" stroke:none;fill-rule:evenodd;fill:rgb(0%,0%,0%);fill-opacity:1;" d="M 1059.433594 642.410156 C 1059.433594 646.105469 1058.683594 649.59375 1057.167969 652.875 C 1055.65625 656.164062 1053.523438 659.066406 1050.796875 661.589844 C 1050.507812 661.78125 1050.179688 661.875 1049.824219 661.875 C 1049.558594 661.875 1049.21875 661.78125 1048.796875 661.589844 L 1048.546875 661.210938 C 1048.296875 660.960938 1048.164062 660.675781 1048.164062 660.359375 C 1048.164062 660.074219 1048.296875 659.742188 1048.546875 659.363281 C 1051.019531 657.089844 1052.917969 654.503906 1054.234375 651.597656 C 1055.550781 648.695312 1056.207031 645.632812 1056.207031 642.410156 C 1056.207031 642.191406 1056.195312 641.949219 1056.167969 641.679688 C 1056.128906 641.414062 1056.117188 641.578125 1056.117188 642.175781 C 1055.589844 642.777344 1054.390625 643.074219 1052.507812 643.074219 C 1050.613281 643.074219 1049.191406 642.496094 1048.203125 641.324219 C 1047.230469 640.160156 1046.742188 638.863281 1046.742188 637.441406 C 1046.742188 636.023438 1047.230469 634.738281 1048.203125 633.582031 C 1049.191406 632.433594 1050.613281 631.855469 1052.507812 631.851562 C 1053.90625 631.855469 1055.035156 632.210938 1055.917969 632.921875 C 1056.800781 633.632812 1057.5 634.492188 1058.011719 635.503906 C 1058.539062 636.515625 1058.90625 637.632812 1059.117188 638.863281 C 1059.328125 640.09375 1059.433594 641.277344 1059.433594 642.410156 Z M 1059.433594 642.410156 "/>
<path style=" stroke:none;fill-rule:evenodd;fill:rgb(0%,0%,0%);fill-opacity:1;" d="M 1164.636719 625.285156 C 1164.636719 627.945312 1164.046875 630.503906 1162.875 632.945312 C 1161.6875 635.390625 1160.109375 637.476562 1158.132812 639.203125 C 1155.898438 641.15625 1153.433594 642.601562 1150.75 643.542969 C 1148.050781 644.488281 1145.234375 644.960938 1142.308594 644.960938 C 1139.664062 644.960938 1137.082031 644.589844 1134.554688 643.847656 C 1132.039062 643.105469 1129.777344 642.039062 1127.75 640.648438 C 1125.722656 639.253906 1124.101562 637.546875 1122.890625 635.519531 C 1121.679688 633.496094 1121.074219 631.164062 1121.074219 628.53125 C 1121.074219 626.554688 1121.734375 625.078125 1123.0625 624.101562 C 1124.378906 623.128906 1125.773438 622.640625 1127.234375 622.636719 C 1128.777344 622.640625 1130.199219 623.128906 1131.515625 624.101562 C 1132.84375 625.078125 1133.503906 626.554688 1133.503906 628.53125 C 1133.503906 629.710938 1133.277344 630.691406 1132.816406 631.480469 C 1132.355469 632.269531 1131.765625 632.929688 1131.039062 633.453125 C 1130.328125 633.984375 1129.5 634.304688 1128.578125 634.425781 C 1128.105469 634.554688 1127.65625 634.613281 1127.234375 634.613281 C 1126.828125 634.613281 1126.761719 634.644531 1127.050781 634.703125 C 1128.039062 636.4375 1129.988281 637.972656 1132.882812 639.300781 C 1135.792969 640.632812 1138.925781 641.296875 1142.308594 641.292969 C 1143.902344 641.296875 1145.390625 640.902344 1146.773438 640.113281 C 1148.167969 639.324219 1149.328125 638.265625 1150.25 636.929688 C 1151.394531 635.203125 1152.171875 633.347656 1152.59375 631.367188 C 1153 629.386719 1153.210938 627.359375 1153.210938 625.285156 C 1153.210938 623.152344 1153 621.105469 1152.59375 619.136719 C 1152.171875 617.175781 1151.394531 615.355469 1150.25 613.683594 C 1149.289062 612.324219 1148.117188 611.226562 1146.746094 610.390625 C 1145.378906 609.554688 1143.902344 609.136719 1142.308594 609.136719 L 1135.371094 609.136719 C 1134.449219 609.136719 1133.949219 608.707031 1133.882812 607.835938 L 1133.882812 607.324219 C 1133.882812 606.957031 1134.003906 606.664062 1134.226562 606.441406 C 1134.515625 606.167969 1134.871094 606.027344 1135.320312 606.027344 C 1136.253906 605.902344 1137.203125 605.84375 1138.1875 605.839844 C 1139.148438 605.84375 1140.085938 605.78125 1141.007812 605.65625 C 1142.730469 605.53125 1144.230469 605.003906 1145.507812 604.054688 C 1146.785156 603.113281 1147.851562 601.90625 1148.707031 600.4375 C 1149.578125 598.96875 1150.222656 597.277344 1150.667969 595.355469 C 1151.117188 593.4375 1151.339844 591.472656 1151.339844 589.460938 C 1151.339844 587.976562 1151.183594 586.570312 1150.867188 585.238281 C 1150.550781 583.910156 1149.957031 582.746094 1149.089844 581.753906 C 1147.3125 579.71875 1145.046875 578.710938 1142.308594 578.738281 C 1139.375 578.742188 1136.6875 579.292969 1134.253906 580.390625 C 1131.816406 581.488281 1130.171875 582.671875 1129.34375 583.9375 C 1129.117188 583.972656 1129.238281 583.984375 1129.683594 583.984375 C 1130.828125 583.984375 1131.910156 584.324219 1132.9375 585.003906 C 1134.464844 585.902344 1135.226562 587.421875 1135.226562 589.550781 C 1135.226562 591.351562 1134.648438 592.703125 1133.476562 593.613281 C 1132.316406 594.527344 1131.015625 594.984375 1129.578125 594.980469 C 1128.183594 594.984375 1126.867188 594.539062 1125.640625 593.640625 C 1124.40625 592.742188 1123.800781 591.378906 1123.800781 589.550781 C 1123.800781 587.296875 1124.339844 585.304688 1125.417969 583.570312 C 1126.511719 581.835938 1127.90625 580.351562 1129.605469 579.113281 C 1131.316406 577.878906 1133.277344 576.933594 1135.515625 576.28125 C 1137.753906 575.632812 1140.007812 575.308594 1142.308594 575.304688 C 1144.757812 575.308594 1147.140625 575.632812 1149.433594 576.28125 C 1151.722656 576.933594 1153.894531 577.941406 1155.9375 579.296875 C 1157.59375 580.472656 1158.992188 581.921875 1160.121094 583.636719 C 1161.253906 585.355469 1161.820312 587.296875 1161.820312 589.460938 C 1161.820312 591.628906 1161.425781 593.671875 1160.648438 595.585938 C 1159.871094 597.507812 1158.832031 599.238281 1157.542969 600.785156 C 1156.253906 602.332031 1154.710938 603.695312 1152.921875 604.867188 C 1151.144531 606.046875 1149.800781 606.785156 1148.90625 607.09375 C 1149.667969 607.1875 1150.972656 607.648438 1152.828125 608.464844 C 1154.671875 609.285156 1156.449219 610.375 1158.132812 611.734375 C 1160.109375 613.441406 1161.6875 615.472656 1162.875 617.839844 C 1164.046875 620.207031 1164.636719 622.6875 1164.636719 625.285156 Z M 1164.636719 625.285156 "/>
<path style=" stroke:none;fill-rule:evenodd;fill:rgb(0%,0%,0%);fill-opacity:1;" d="M 1200.171875 642.410156 C 1200.171875 646.105469 1199.40625 649.59375 1197.894531 652.875 C 1196.378906 656.164062 1194.261719 659.066406 1191.535156 661.589844 C 1191.246094 661.78125 1190.917969 661.875 1190.546875 661.875 C 1190.296875 661.875 1189.957031 661.78125 1189.535156 661.589844 L 1189.285156 661.210938 C 1189.019531 660.960938 1188.890625 660.675781 1188.890625 660.359375 C 1188.890625 660.074219 1189.019531 659.742188 1189.285156 659.363281 C 1191.757812 657.089844 1193.65625 654.503906 1194.972656 651.597656 C 1196.289062 648.695312 1196.945312 645.632812 1196.945312 642.410156 C 1196.945312 642.191406 1196.933594 641.949219 1196.894531 641.679688 C 1196.867188 641.414062 1196.855469 641.578125 1196.855469 642.175781 C 1196.328125 642.777344 1195.128906 643.074219 1193.234375 643.074219 C 1191.351562 643.074219 1189.914062 642.496094 1188.941406 641.324219 C 1187.96875 640.160156 1187.480469 638.863281 1187.480469 637.441406 C 1187.480469 636.023438 1187.96875 634.738281 1188.941406 633.582031 C 1189.914062 632.433594 1191.351562 631.855469 1193.234375 631.851562 C 1194.628906 631.855469 1195.773438 632.210938 1196.65625 632.921875 C 1197.523438 633.632812 1198.234375 634.492188 1198.75 635.503906 C 1199.277344 636.515625 1199.644531 637.632812 1199.855469 638.863281 C 1200.066406 640.09375 1200.171875 641.277344 1200.171875 642.410156 Z M 1200.171875 642.410156 "/>
<path style=" stroke:none;fill-rule:evenodd;fill:rgb(0%,0%,0%);fill-opacity:1;" d="M 1317.328125 614.039062 C 1317.328125 617.339844 1314.65625 620.011719 1311.351562 620.011719 C 1308.046875 620.011719 1305.375 617.339844 1305.375 614.039062 C 1305.375 610.742188 1308.046875 608.066406 1311.351562 608.066406 C 1314.65625 608.066406 1317.328125 610.742188 1317.328125 614.039062 Z M 1317.328125 614.039062 "/>
<path style=" stroke:none;fill-rule:evenodd;fill:rgb(0%,0%,0%);fill-opacity:1;" d="M 1286.761719 614.039062 C 1286.761719 617.339844 1284.085938 620.011719 1280.78125 620.011719 C 1277.492188 620.011719 1274.804688 617.339844 1274.804688 614.039062 C 1274.804688 610.742188 1277.492188 608.066406 1280.78125 608.066406 C 1284.085938 608.066406 1286.761719 610.742188 1286.761719 614.039062 Z M 1286.761719 614.039062 "/>
<path style=" stroke:none;fill-rule:evenodd;fill:rgb(0%,0%,0%);fill-opacity:1;" d="M 1347.886719 614.039062 C 1347.886719 617.339844 1345.214844 620.011719 1341.910156 620.011719 C 1338.617188 620.011719 1335.933594 617.339844 1335.933594 614.039062 C 1335.933594 610.742188 1338.617188 608.066406 1341.910156 608.066406 C 1345.214844 608.066406 1347.886719 610.742188 1347.886719 614.039062 Z M 1347.886719 614.039062 "/>
<path style=" stroke:none;fill-rule:nonzero;fill:rgb(0%,0%,0%);fill-opacity:1;" d="M 591.683594 228.707031 L 591.683594 494.804688 L 585.101562 494.804688 L 585.101562 228.707031 Z M 588.390625 176.125 L 568.644531 241.917969 L 585.101562 228.761719 L 591.683594 228.761719 L 608.136719 241.917969 Z M 588.390625 547.386719 L 608.136719 481.59375 L 591.683594 494.753906 L 585.101562 494.753906 L 568.644531 481.59375 Z M 588.390625 547.386719 "/>
<path style=" stroke:none;fill-rule:nonzero;fill:rgb(0%,0%,0%);fill-opacity:1;" d="M 730.382812 228.707031 L 730.382812 494.804688 L 723.800781 494.804688 L 723.800781 228.707031 Z M 727.09375 176.125 L 707.34375 241.917969 L 723.800781 228.761719 L 730.382812 228.761719 L 746.839844 241.917969 Z M 727.09375 547.386719 L 746.839844 481.59375 L 730.382812 494.753906 L 723.800781 494.753906 L 707.34375 481.59375 Z M 727.09375 547.386719 "/>
<path style=" stroke:none;fill-rule:nonzero;fill:rgb(0%,0%,0%);fill-opacity:1;" d="M 862.035156 228.707031 L 862.035156 494.804688 L 855.453125 494.804688 L 855.453125 228.707031 Z M 858.742188 176.125 L 838.996094 241.917969 L 855.453125 228.761719 L 862.035156 228.761719 L 878.492188 241.917969 Z M 858.742188 547.386719 L 878.492188 481.59375 L 862.035156 494.753906 L 855.453125 494.753906 L 838.996094 481.59375 Z M 858.742188 547.386719 "/>
<path style=" stroke:none;fill-rule:nonzero;fill:rgb(0%,0%,0%);fill-opacity:1;" d="M 1020.332031 228.707031 L 1020.332031 494.804688 L 1013.75 494.804688 L 1013.75 228.707031 Z M 1017.039062 176.125 L 997.292969 241.917969 L 1013.75 228.761719 L 1020.332031 228.761719 L 1036.789062 241.917969 Z M 1017.039062 547.386719 L 1036.789062 481.59375 L 1020.332031 494.753906 L 1013.75 494.753906 L 997.292969 481.59375 Z M 1017.039062 547.386719 "/>
<path style=" stroke:none;fill-rule:nonzero;fill:rgb(0%,0%,0%);fill-opacity:1;" d="M 1155.117188 228.707031 L 1155.117188 494.804688 L 1148.535156 494.804688 L 1148.535156 228.707031 Z M 1151.824219 176.125 L 1132.078125 241.917969 L 1148.535156 228.761719 L 1155.117188 228.761719 L 1171.574219 241.917969 Z M 1151.824219 547.386719 L 1171.574219 481.59375 L 1155.117188 494.753906 L 1148.535156 494.753906 L 1132.078125 481.59375 Z M 1151.824219 547.386719 "/>
</g>
</svg>
