<?xml version="1.0" encoding="UTF-8"?>
<svg xmlns="http://www.w3.org/2000/svg" xmlns:xlink="http://www.w3.org/1999/xlink" width="1383.96pt" height="393pt" viewBox="0 0 1383.96 393" version="1.2">
<defs>
<clipPath id="clip1">
  <path d="M 271 53.527344 L 288 53.527344 L 288 122 L 271 122 Z M 271 53.527344 "/>
</clipPath>
<clipPath id="clip2">
  <path d="M 410 53.527344 L 426 53.527344 L 426 122 L 410 122 Z M 410 53.527344 "/>
</clipPath>
<clipPath id="clip3">
  <path d="M 529 53.527344 L 546 53.527344 L 546 122 L 529 122 Z M 529 53.527344 "/>
</clipPath>
<clipPath id="clip4">
  <path d="M 664 53.527344 L 681 53.527344 L 681 122 L 664 122 Z M 664 53.527344 "/>
</clipPath>
<clipPath id="clip5">
  <path d="M 784 53.527344 L 800 53.527344 L 800 122 L 784 122 Z M 784 53.527344 "/>
</clipPath>
<clipPath id="clip6">
  <path d="M 921 53.527344 L 938 53.527344 L 938 122 L 921 122 Z M 921 53.527344 "/>
</clipPath>
<clipPath id="clip7">
  <path d="M 1182 53.527344 L 1198 53.527344 L 1198 122 L 1182 122 Z M 1182 53.527344 "/>
</clipPath>
<clipPath id="clip8">
  <path d="M 1320 53.527344 L 1337 53.527344 L 1337 122 L 1320 122 Z M 1320 53.527344 "/>
</clipPath>
<clipPath id="clip9">
  <path d="M 37.890625 290 L 78 290 L 78 341 L 37.890625 341 Z M 37.890625 290 "/>
</clipPath>
<clipPath id="clip10">
  <path d="M 608.210938 291 L 633 291 L 633 339 L 608.210938 339 Z M 608.210938 291 "/>
</clipPath>
<clipPath id="clip11">
  <path d="M 711 317 L 758 317 L 758 340 L 711 340 Z M 711 317 "/>
</clipPath>
<clipPath id="clip12">
  <path d="M 706.300781 352.015625 L 770.527344 352.015625 L 770.527344 292.167969 L 706.296875 292.167969 Z M 706.300781 352.015625 "/>
</clipPath>
<clipPath id="clip13">
  <path d="M 711 298 L 758 298 L 758 321 L 711 321 Z M 711 298 "/>
</clipPath>
<clipPath id="clip14">
  <path d="M 706.300781 352.015625 L 770.527344 352.015625 L 770.527344 292.167969 L 706.296875 292.167969 Z M 706.300781 352.015625 "/>
</clipPath>
<clipPath id="clip15">
  <path d="M 754 336 L 758 336 L 758 340 L 754 340 Z M 754 336 "/>
</clipPath>
<clipPath id="clip16">
  <path d="M 706.300781 352.015625 L 770.527344 352.015625 L 770.527344 292.167969 L 706.296875 292.167969 Z M 706.300781 352.015625 "/>
</clipPath>
<clipPath id="clip17">
  <path d="M 711 317 L 714 317 L 714 321 L 711 321 Z M 711 317 "/>
</clipPath>
<clipPath id="clip18">
  <path d="M 706.300781 352.015625 L 770.527344 352.015625 L 770.527344 292.167969 L 706.296875 292.167969 Z M 706.300781 352.015625 "/>
</clipPath>
<clipPath id="clip19">
  <path d="M 754 298 L 758 298 L 758 302 L 754 302 Z M 754 298 "/>
</clipPath>
<clipPath id="clip20">
  <path d="M 706.300781 352.015625 L 770.527344 352.015625 L 770.527344 292.167969 L 706.296875 292.167969 Z M 706.300781 352.015625 "/>
</clipPath>
<clipPath id="clip21">
  <path d="M 966 308 L 1013 308 L 1013 330 L 966 330 Z M 966 308 "/>
</clipPath>
<clipPath id="clip22">
  <path d="M 961.523438 342.847656 L 1223.066406 342.847656 L 1223.066406 283 L 961.519531 283 Z M 961.523438 342.847656 "/>
</clipPath>
<clipPath id="clip23">
  <path d="M 966 289 L 1013 289 L 1013 312 L 966 312 Z M 966 289 "/>
</clipPath>
<clipPath id="clip24">
  <path d="M 961.523438 342.847656 L 1223.066406 342.847656 L 1223.066406 283 L 961.519531 283 Z M 961.523438 342.847656 "/>
</clipPath>
<clipPath id="clip25">
  <path d="M 1010 327 L 1013 327 L 1013 330 L 1010 330 Z M 1010 327 "/>
</clipPath>
<clipPath id="clip26">
  <path d="M 961.523438 342.847656 L 1223.066406 342.847656 L 1223.066406 283 L 961.519531 283 Z M 961.523438 342.847656 "/>
</clipPath>
<clipPath id="clip27">
  <path d="M 966 308 L 970 308 L 970 312 L 966 312 Z M 966 308 "/>
</clipPath>
<clipPath id="clip28">
  <path d="M 961.523438 342.847656 L 1223.066406 342.847656 L 1223.066406 283 L 961.519531 283 Z M 961.523438 342.847656 "/>
</clipPath>
<clipPath id="clip29">
  <path d="M 1010 289 L 1013 289 L 1013 293 L 1010 293 Z M 1010 289 "/>
</clipPath>
<clipPath id="clip30">
  <path d="M 961.523438 342.847656 L 1223.066406 342.847656 L 1223.066406 283 L 961.519531 283 Z M 961.523438 342.847656 "/>
</clipPath>
<clipPath id="clip31">
  <path d="M 1055 305 L 1065 305 L 1065 314 L 1055 314 Z M 1055 305 "/>
</clipPath>
<clipPath id="clip32">
  <path d="M 961.523438 342.847656 L 1223.066406 342.847656 L 1223.066406 283 L 961.519531 283 Z M 961.523438 342.847656 "/>
</clipPath>
<clipPath id="clip33">
  <path d="M 1034 305 L 1043 305 L 1043 314 L 1034 314 Z M 1034 305 "/>
</clipPath>
<clipPath id="clip34">
  <path d="M 961.523438 342.847656 L 1223.066406 342.847656 L 1223.066406 283 L 961.519531 283 Z M 961.523438 342.847656 "/>
</clipPath>
<clipPath id="clip35">
  <path d="M 1077 305 L 1086 305 L 1086 314 L 1077 314 Z M 1077 305 "/>
</clipPath>
<clipPath id="clip36">
  <path d="M 961.523438 342.847656 L 1223.066406 342.847656 L 1223.066406 283 L 961.519531 283 Z M 961.523438 342.847656 "/>
</clipPath>
<clipPath id="clip37">
  <path d="M 1107 308 L 1154 308 L 1154 330 L 1107 330 Z M 1107 308 "/>
</clipPath>
<clipPath id="clip38">
  <path d="M 961.523438 342.847656 L 1223.066406 342.847656 L 1223.066406 283 L 961.519531 283 Z M 961.523438 342.847656 "/>
</clipPath>
<clipPath id="clip39">
  <path d="M 1107 289 L 1154 289 L 1154 312 L 1107 312 Z M 1107 289 "/>
</clipPath>
<clipPath id="clip40">
  <path d="M 961.523438 342.847656 L 1223.066406 342.847656 L 1223.066406 283 L 961.519531 283 Z M 961.523438 342.847656 "/>
</clipPath>
<clipPath id="clip41">
  <path d="M 1150 327 L 1154 327 L 1154 330 L 1150 330 Z M 1150 327 "/>
</clipPath>
<clipPath id="clip42">
  <path d="M 961.523438 342.847656 L 1223.066406 342.847656 L 1223.066406 283 L 961.519531 283 Z M 961.523438 342.847656 "/>
</clipPath>
<clipPath id="clip43">
  <path d="M 1107 308 L 1111 308 L 1111 312 L 1107 312 Z M 1107 308 "/>
</clipPath>
<clipPath id="clip44">
  <path d="M 961.523438 342.847656 L 1223.066406 342.847656 L 1223.066406 283 L 961.519531 283 Z M 961.523438 342.847656 "/>
</clipPath>
<clipPath id="clip45">
  <path d="M 1150 289 L 1154 289 L 1154 293 L 1150 293 Z M 1150 289 "/>
</clipPath>
<clipPath id="clip46">
  <path d="M 961.523438 342.847656 L 1223.066406 342.847656 L 1223.066406 283 L 961.519531 283 Z M 961.523438 342.847656 "/>
</clipPath>
<clipPath id="clip47">
  <path d="M 1173 299 L 1216 299 L 1216 331 L 1173 331 Z M 1173 299 "/>
</clipPath>
<clipPath id="clip48">
  <path d="M 961.523438 342.847656 L 1223.066406 342.847656 L 1223.066406 283 L 961.519531 283 Z M 961.523438 342.847656 "/>
</clipPath>
</defs>
<g id="surface1">
<g clip-path="url(#clip1)" clip-rule="nonzero">
<path style=" stroke:none;fill-rule:evenodd;fill:rgb(0%,0%,0%);fill-opacity:1;" d="M 287.324219 119.679688 C 287.460938 120.042969 287.449219 120.390625 287.289062 120.726562 C 287.128906 121.066406 286.855469 121.300781 286.484375 121.4375 C 286.113281 121.574219 285.753906 121.5625 285.40625 121.402344 C 285.058594 121.246094 284.8125 120.988281 284.671875 120.625 L 271.980469 88.195312 C 271.886719 87.929688 271.886719 87.613281 271.980469 87.25 L 284.671875 54.816406 C 284.8125 54.464844 285.058594 54.207031 285.40625 54.046875 C 285.753906 53.886719 286.113281 53.875 286.484375 54.011719 C 286.855469 54.144531 287.128906 54.382812 287.289062 54.722656 C 287.449219 55.058594 287.460938 55.410156 287.324219 55.761719 L 274.839844 87.722656 Z M 287.324219 119.679688 "/>
</g>
<path style=" stroke:none;fill-rule:evenodd;fill:rgb(0%,0%,0%);fill-opacity:1;" d="M 326.753906 82.203125 C 326.753906 85.308594 326.535156 88.394531 326.101562 91.464844 C 325.671875 94.539062 324.597656 97.421875 322.882812 100.113281 C 321.660156 102.078125 320.023438 103.585938 317.980469 104.640625 C 315.933594 105.695312 313.707031 106.222656 311.304688 106.222656 C 308.992188 106.222656 306.808594 105.695312 304.75 104.640625 C 302.695312 103.585938 301.050781 102.078125 299.828125 100.113281 C 298.117188 97.421875 297.042969 94.539062 296.609375 91.464844 C 296.175781 88.394531 295.957031 85.308594 295.957031 82.203125 C 295.957031 79.058594 296.175781 75.914062 296.609375 72.78125 C 297.042969 69.644531 298.117188 66.707031 299.828125 63.96875 C 301.050781 61.988281 302.6875 60.445312 304.734375 59.347656 C 306.78125 58.246094 308.972656 57.695312 311.304688 57.695312 C 313.6875 57.695312 315.90625 58.246094 317.960938 59.347656 C 320.019531 60.445312 321.660156 61.988281 322.882812 63.96875 C 324.597656 66.707031 325.671875 69.644531 326.101562 72.78125 C 326.535156 75.914062 326.753906 79.058594 326.753906 82.203125 Z M 320.148438 81.070312 C 320.148438 79.714844 320.136719 78.28125 320.113281 76.773438 C 320.09375 75.265625 320.035156 73.789062 319.949219 72.34375 C 319.859375 70.898438 319.699219 69.535156 319.464844 68.253906 C 319.230469 66.972656 318.945312 65.878906 318.613281 64.96875 C 317.945312 63.507812 316.96875 62.304688 315.675781 61.367188 C 314.386719 60.429688 312.929688 59.960938 311.304688 59.957031 C 309.726562 59.960938 308.300781 60.433594 307.019531 61.382812 C 305.742188 62.332031 304.765625 63.527344 304.097656 64.96875 C 303.765625 65.878906 303.484375 66.972656 303.25 68.253906 C 303.015625 69.535156 302.851562 70.898438 302.765625 72.34375 C 302.675781 73.789062 302.621094 75.265625 302.597656 76.773438 C 302.574219 78.28125 302.5625 79.714844 302.5625 81.070312 C 302.5625 82.582031 302.574219 84.171875 302.597656 85.839844 C 302.621094 87.511719 302.675781 89.128906 302.765625 90.691406 C 302.851562 92.253906 303.015625 93.738281 303.25 95.136719 C 303.484375 96.539062 303.765625 97.710938 304.097656 98.660156 C 304.722656 100.234375 305.683594 101.527344 306.984375 102.539062 C 308.289062 103.554688 309.726562 104.058594 311.304688 104.058594 C 312.953125 104.058594 314.429688 103.554688 315.726562 102.539062 C 317.027344 101.527344 317.992188 100.234375 318.613281 98.660156 C 318.945312 97.710938 319.230469 96.539062 319.464844 95.136719 C 319.699219 93.738281 319.859375 92.253906 319.949219 90.691406 C 320.035156 89.128906 320.09375 87.511719 320.113281 85.839844 C 320.136719 84.171875 320.148438 82.582031 320.148438 81.070312 Z M 320.148438 81.070312 "/>
<path style=" stroke:none;fill-rule:evenodd;fill:rgb(0%,0%,0%);fill-opacity:1;" d="M 350.316406 104.449219 C 350.316406 107.023438 349.789062 109.453125 348.734375 111.738281 C 347.679688 114.03125 346.199219 116.050781 344.292969 117.8125 C 344.089844 117.941406 343.863281 118.007812 343.613281 118.007812 C 343.429688 118.007812 343.195312 117.941406 342.898438 117.8125 L 342.726562 117.546875 C 342.546875 117.371094 342.453125 117.175781 342.453125 116.953125 C 342.453125 116.753906 342.546875 116.523438 342.726562 116.261719 C 344.453125 114.675781 345.773438 112.875 346.695312 110.851562 C 347.613281 108.828125 348.070312 106.691406 348.070312 104.449219 C 348.070312 104.296875 348.0625 104.128906 348.039062 103.941406 C 348.015625 103.753906 348.003906 103.867188 348.003906 104.285156 C 347.640625 104.703125 346.800781 104.910156 345.484375 104.910156 C 344.167969 104.910156 343.171875 104.507812 342.488281 103.691406 C 341.808594 102.878906 341.464844 101.976562 341.464844 100.984375 C 341.464844 99.996094 341.808594 99.101562 342.488281 98.296875 C 343.171875 97.496094 344.167969 97.09375 345.484375 97.09375 C 346.460938 97.09375 347.253906 97.34375 347.867188 97.835938 C 348.480469 98.332031 348.96875 98.933594 349.332031 99.636719 C 349.695312 100.339844 349.949219 101.121094 350.097656 101.976562 C 350.246094 102.835938 350.316406 103.660156 350.316406 104.449219 Z M 350.316406 104.449219 "/>
<path style=" stroke:none;fill-rule:evenodd;fill:rgb(0%,0%,0%);fill-opacity:1;" d="M 398.90625 104.703125 C 394.808594 104.574219 390.832031 104.511719 386.953125 104.511719 C 383.085938 104.511719 379.101562 104.574219 375.011719 104.703125 L 375.011719 101.925781 L 377.320312 101.925781 C 378.042969 101.925781 378.742188 101.917969 379.386719 101.894531 C 380.027344 101.875 380.644531 101.820312 381.222656 101.734375 C 381.800781 101.648438 382.296875 101.558594 382.71875 101.472656 C 383.078125 101.410156 383.371094 101.210938 383.601562 100.875 C 383.839844 100.542969 383.949219 100.171875 383.949219 99.757812 L 383.949219 63.320312 C 382.839844 63.863281 381.472656 64.273438 379.855469 64.550781 C 378.226562 64.832031 376.445312 64.972656 374.507812 64.96875 L 374.507812 62.222656 C 377.179688 62.222656 379.644531 61.90625 381.902344 61.269531 C 384.164062 60.636719 386.109375 59.441406 387.761719 57.695312 L 388.792969 57.695312 C 389.527344 57.695312 389.894531 58.050781 389.894531 58.761719 L 389.894531 99.757812 C 389.894531 100.191406 390.003906 100.570312 390.222656 100.890625 C 390.445312 101.214844 390.777344 101.410156 391.199219 101.472656 C 391.546875 101.558594 392.007812 101.648438 392.566406 101.734375 C 393.117188 101.820312 393.75 101.875 394.449219 101.894531 C 395.148438 101.917969 395.835938 101.925781 396.5 101.925781 L 398.90625 101.925781 Z M 398.90625 104.703125 "/>
<g clip-path="url(#clip2)" clip-rule="nonzero">
<path style=" stroke:none;fill-rule:evenodd;fill:rgb(0%,0%,0%);fill-opacity:1;" d="M 412.984375 120.625 C 412.847656 120.988281 412.609375 121.246094 412.289062 121.402344 C 411.964844 121.5625 411.609375 121.574219 411.242188 121.4375 C 410.863281 121.300781 410.597656 121.066406 410.433594 120.726562 C 410.277344 120.390625 410.265625 120.042969 410.40625 119.679688 L 422.886719 87.722656 L 410.40625 55.761719 C 410.265625 55.410156 410.277344 55.058594 410.433594 54.722656 C 410.597656 54.382812 410.863281 54.144531 411.242188 54.011719 C 411.609375 53.875 411.964844 53.886719 412.289062 54.046875 C 412.609375 54.207031 412.847656 54.464844 412.984375 54.816406 L 425.671875 87.25 C 425.808594 87.523438 425.808594 87.839844 425.671875 88.195312 Z M 412.984375 120.625 "/>
</g>
<path style="fill:none;stroke-width:0.2948;stroke-linecap:round;stroke-linejoin:round;stroke:rgb(0%,0%,0%);stroke-opacity:1;stroke-miterlimit:10;" d="M 25.25007 2.517054 L 20.504071 4.580599 " transform="matrix(9.185367,0.000000212628,0,-9.167703,267.627422,126.677163)"/>
<path style="fill:none;stroke-width:0.2948;stroke-linecap:round;stroke-linejoin:round;stroke:rgb(0%,0%,0%);stroke-opacity:1;stroke-miterlimit:10;" d="M 20.504071 4.580599 L 25.25007 6.64457 " transform="matrix(9.185367,0.000000212628,0,-9.167703,267.627422,126.677163)"/>
<path style=" stroke:none;fill-rule:evenodd;fill:rgb(0%,0%,0%);fill-opacity:1;" d="M 499.558594 102.25 C 500.3125 102.25 500.917969 102.855469 500.917969 103.601562 C 500.917969 104.347656 500.3125 104.953125 499.558594 104.953125 C 498.8125 104.953125 498.207031 104.347656 498.207031 103.601562 C 498.207031 102.855469 498.8125 102.25 499.558594 102.25 Z M 499.558594 102.25 "/>
<path style=" stroke:none;fill-rule:evenodd;fill:rgb(0%,0%,0%);fill-opacity:1;" d="M 455.964844 83.332031 C 456.707031 83.332031 457.3125 83.933594 457.3125 84.683594 C 457.3125 85.429688 456.707031 86.03125 455.964844 86.03125 C 455.210938 86.03125 454.605469 85.429688 454.605469 84.683594 C 454.605469 83.933594 455.210938 83.332031 455.964844 83.332031 Z M 455.964844 83.332031 "/>
<path style=" stroke:none;fill-rule:evenodd;fill:rgb(0%,0%,0%);fill-opacity:1;" d="M 499.558594 64.410156 C 500.3125 64.410156 500.917969 65.015625 500.917969 65.761719 C 500.917969 66.507812 500.3125 67.113281 499.558594 67.113281 C 498.8125 67.113281 498.207031 66.507812 498.207031 65.761719 C 498.207031 65.015625 498.8125 64.410156 499.558594 64.410156 Z M 499.558594 64.410156 "/>
<g clip-path="url(#clip3)" clip-rule="nonzero">
<path style=" stroke:none;fill-rule:evenodd;fill:rgb(0%,0%,0%);fill-opacity:1;" d="M 545.210938 119.679688 C 545.355469 120.042969 545.335938 120.390625 545.183594 120.726562 C 545.015625 121.066406 544.75 121.300781 544.375 121.4375 C 544.007812 121.574219 543.636719 121.5625 543.296875 121.402344 C 542.949219 121.246094 542.703125 120.988281 542.5625 120.625 L 529.871094 88.195312 C 529.777344 87.929688 529.777344 87.613281 529.871094 87.25 L 542.5625 54.816406 C 542.703125 54.464844 542.949219 54.207031 543.296875 54.046875 C 543.636719 53.886719 544.007812 53.875 544.375 54.011719 C 544.75 54.144531 545.015625 54.382812 545.183594 54.722656 C 545.335938 55.058594 545.355469 55.410156 545.210938 55.761719 L 532.726562 87.722656 Z M 545.210938 119.679688 "/>
</g>
<path style=" stroke:none;fill-rule:evenodd;fill:rgb(0%,0%,0%);fill-opacity:1;" d="M 578.15625 104.703125 C 574.070312 104.574219 570.082031 104.511719 566.214844 104.511719 C 562.347656 104.511719 558.363281 104.574219 554.273438 104.703125 L 554.273438 101.925781 L 556.570312 101.925781 C 557.304688 101.925781 557.996094 101.917969 558.636719 101.894531 C 559.289062 101.875 559.898438 101.820312 560.476562 101.734375 C 561.054688 101.648438 561.558594 101.558594 561.980469 101.472656 C 562.332031 101.410156 562.632812 101.210938 562.863281 100.875 C 563.101562 100.542969 563.210938 100.171875 563.210938 99.757812 L 563.210938 63.320312 C 562.101562 63.863281 560.734375 64.273438 559.105469 64.550781 C 557.488281 64.832031 555.707031 64.972656 553.769531 64.96875 L 553.769531 62.222656 C 556.441406 62.222656 558.90625 61.90625 561.164062 61.269531 C 563.421875 60.636719 565.371094 59.441406 567.015625 57.695312 L 568.054688 57.695312 C 568.789062 57.695312 569.15625 58.050781 569.15625 58.761719 L 569.15625 99.757812 C 569.15625 100.191406 569.265625 100.570312 569.484375 100.890625 C 569.707031 101.214844 570.039062 101.410156 570.449219 101.472656 C 570.808594 101.558594 571.269531 101.648438 571.820312 101.734375 C 572.378906 101.820312 573.003906 101.875 573.710938 101.894531 C 574.410156 101.917969 575.089844 101.925781 575.757812 101.925781 L 578.15625 101.925781 Z M 578.15625 104.703125 "/>
<path style=" stroke:none;fill-rule:evenodd;fill:rgb(0%,0%,0%);fill-opacity:1;" d="M 604.730469 104.449219 C 604.730469 107.023438 604.207031 109.453125 603.152344 111.738281 C 602.09375 114.03125 600.617188 116.050781 598.714844 117.8125 C 598.511719 117.941406 598.28125 118.007812 598.023438 118.007812 C 597.851562 118.007812 597.613281 117.941406 597.316406 117.8125 L 597.144531 117.546875 C 596.960938 117.371094 596.867188 117.175781 596.867188 116.953125 C 596.867188 116.753906 596.960938 116.523438 597.144531 116.261719 C 598.871094 114.675781 600.191406 112.875 601.113281 110.851562 C 602.03125 108.828125 602.488281 106.691406 602.488281 104.449219 C 602.488281 104.296875 602.480469 104.128906 602.453125 103.941406 C 602.433594 103.753906 602.425781 103.867188 602.425781 104.285156 C 602.058594 104.703125 601.222656 104.910156 599.898438 104.910156 C 598.585938 104.910156 597.585938 104.507812 596.90625 103.691406 C 596.226562 102.878906 595.886719 101.976562 595.886719 100.984375 C 595.886719 99.996094 596.226562 99.101562 596.90625 98.296875 C 597.585938 97.496094 598.585938 97.09375 599.898438 97.09375 C 600.871094 97.09375 601.671875 97.34375 602.285156 97.835938 C 602.894531 98.332031 603.390625 98.933594 603.746094 99.636719 C 604.113281 100.339844 604.363281 101.121094 604.511719 101.976562 C 604.667969 102.835938 604.730469 103.660156 604.730469 104.449219 Z M 604.730469 104.449219 "/>
<path style=" stroke:none;fill-rule:evenodd;fill:rgb(0%,0%,0%);fill-opacity:1;" d="M 653.320312 104.703125 C 649.222656 104.574219 645.246094 104.511719 641.371094 104.511719 C 637.503906 104.511719 633.527344 104.574219 629.429688 104.703125 L 629.429688 101.925781 L 631.734375 101.925781 C 632.460938 101.925781 633.160156 101.917969 633.800781 101.894531 C 634.445312 101.875 635.058594 101.820312 635.640625 101.734375 C 636.21875 101.648438 636.714844 101.558594 637.136719 101.472656 C 637.496094 101.410156 637.789062 101.210938 638.019531 100.875 C 638.257812 100.542969 638.367188 100.171875 638.367188 99.757812 L 638.367188 63.320312 C 637.253906 63.863281 635.886719 64.273438 634.269531 64.550781 C 632.644531 64.832031 630.863281 64.972656 628.925781 64.96875 L 628.925781 62.222656 C 631.597656 62.222656 634.058594 61.90625 636.320312 61.269531 C 638.578125 60.636719 640.527344 59.441406 642.179688 57.695312 L 643.207031 57.695312 C 643.941406 57.695312 644.308594 58.050781 644.308594 58.761719 L 644.308594 99.757812 C 644.308594 100.191406 644.421875 100.570312 644.640625 100.890625 C 644.871094 101.214844 645.191406 101.410156 645.613281 101.472656 C 645.964844 101.558594 646.421875 101.648438 646.984375 101.734375 C 647.535156 101.820312 648.167969 101.875 648.867188 101.894531 C 649.5625 101.917969 650.253906 101.925781 650.914062 101.925781 L 653.320312 101.925781 Z M 653.320312 104.703125 "/>
<g clip-path="url(#clip4)" clip-rule="nonzero">
<path style=" stroke:none;fill-rule:evenodd;fill:rgb(0%,0%,0%);fill-opacity:1;" d="M 667.402344 120.625 C 667.265625 120.988281 667.027344 121.246094 666.703125 121.402344 C 666.382812 121.5625 666.035156 121.574219 665.65625 121.4375 C 665.28125 121.300781 665.015625 121.066406 664.847656 120.726562 C 664.691406 120.390625 664.683594 120.042969 664.820312 119.679688 L 677.304688 87.722656 L 664.820312 55.761719 C 664.683594 55.410156 664.691406 55.058594 664.847656 54.722656 C 665.015625 54.382812 665.28125 54.144531 665.65625 54.011719 C 666.035156 53.875 666.382812 53.886719 666.703125 54.046875 C 667.027344 54.207031 667.265625 54.464844 667.402344 54.816406 L 680.085938 87.25 C 680.226562 87.523438 680.226562 87.839844 680.085938 88.195312 Z M 667.402344 120.625 "/>
</g>
<path style="fill:none;stroke-width:0.2948;stroke-linecap:round;stroke-linejoin:round;stroke:rgb(0%,0%,0%);stroke-opacity:1;stroke-miterlimit:10;" d="M 52.947826 2.517055 L 48.201827 4.5806 " transform="matrix(9.185367,0.000000212628,0,-9.167703,267.627422,126.677163)"/>
<path style="fill:none;stroke-width:0.2948;stroke-linecap:round;stroke-linejoin:round;stroke:rgb(0%,0%,0%);stroke-opacity:1;stroke-miterlimit:10;" d="M 48.201827 4.5806 L 52.947826 6.644571 " transform="matrix(9.185367,0.000000212628,0,-9.167703,267.627422,126.677163)"/>
<path style=" stroke:none;fill-rule:evenodd;fill:rgb(0%,0%,0%);fill-opacity:1;" d="M 753.972656 102.25 C 754.726562 102.25 755.332031 102.855469 755.332031 103.601562 C 755.332031 104.347656 754.726562 104.953125 753.972656 104.953125 C 753.230469 104.953125 752.625 104.347656 752.625 103.601562 C 752.625 102.855469 753.230469 102.25 753.972656 102.25 Z M 753.972656 102.25 "/>
<path style=" stroke:none;fill-rule:evenodd;fill:rgb(0%,0%,0%);fill-opacity:1;" d="M 710.378906 83.332031 C 711.125 83.332031 711.730469 83.933594 711.730469 84.683594 C 711.730469 85.429688 711.125 86.03125 710.378906 86.03125 C 709.636719 86.03125 709.03125 85.429688 709.03125 84.683594 C 709.03125 83.933594 709.636719 83.332031 710.378906 83.332031 Z M 710.378906 83.332031 "/>
<path style=" stroke:none;fill-rule:evenodd;fill:rgb(0%,0%,0%);fill-opacity:1;" d="M 753.972656 64.410156 C 754.726562 64.410156 755.332031 65.015625 755.332031 65.761719 C 755.332031 66.507812 754.726562 67.113281 753.972656 67.113281 C 753.230469 67.113281 752.625 66.507812 752.625 65.761719 C 752.625 65.015625 753.230469 64.410156 753.972656 64.410156 Z M 753.972656 64.410156 "/>
<g clip-path="url(#clip5)" clip-rule="nonzero">
<path style=" stroke:none;fill-rule:evenodd;fill:rgb(0%,0%,0%);fill-opacity:1;" d="M 799.625 119.679688 C 799.773438 120.042969 799.753906 120.390625 799.597656 120.726562 C 799.433594 121.066406 799.167969 121.300781 798.789062 121.4375 C 798.421875 121.574219 798.054688 121.5625 797.714844 121.402344 C 797.367188 121.246094 797.117188 120.988281 796.980469 120.625 L 784.285156 88.195312 C 784.195312 87.929688 784.195312 87.613281 784.285156 87.25 L 796.980469 54.816406 C 797.117188 54.464844 797.367188 54.207031 797.714844 54.046875 C 798.054688 53.886719 798.421875 53.875 798.789062 54.011719 C 799.167969 54.144531 799.433594 54.382812 799.597656 54.722656 C 799.753906 55.058594 799.773438 55.410156 799.625 55.761719 L 787.152344 87.722656 Z M 799.625 119.679688 "/>
</g>
<path style=" stroke:none;fill-rule:evenodd;fill:rgb(0%,0%,0%);fill-opacity:1;" d="M 835.394531 104.703125 L 808.242188 104.703125 L 808.242188 102.925781 C 808.242188 102.800781 808.304688 102.605469 808.445312 102.34375 L 819.347656 90.511719 C 820.640625 89.089844 821.945312 87.636719 823.269531 86.148438 C 824.589844 84.660156 825.777344 83.140625 826.824219 81.589844 C 827.871094 80.039062 828.707031 78.4375 829.332031 76.789062 C 829.957031 75.140625 830.257812 73.410156 830.257812 71.597656 C 830.257812 70.070312 830.058594 68.640625 829.660156 67.316406 C 829.257812 65.988281 828.679688 64.828125 827.925781 63.824219 C 827.171875 62.820312 826.226562 62.015625 825.085938 61.398438 C 823.957031 60.785156 822.644531 60.476562 821.15625 60.476562 C 818.933594 60.476562 816.96875 61.140625 815.257812 62.464844 C 813.558594 63.792969 812.429688 65.253906 811.878906 66.84375 C 811.769531 66.890625 811.941406 66.910156 812.410156 66.910156 L 812.980469 66.910156 C 813.640625 67.0625 814.222656 67.296875 814.707031 67.605469 C 815.203125 67.917969 815.617188 68.351562 815.949219 68.898438 C 816.277344 69.449219 816.445312 70.113281 816.445312 70.886719 C 816.445312 72.179688 816.03125 73.171875 815.175781 73.863281 C 814.332031 74.554688 813.386719 74.898438 812.347656 74.894531 C 811.347656 74.898438 810.410156 74.554688 809.546875 73.863281 C 808.671875 73.171875 808.242188 72.179688 808.242188 70.886719 C 808.242188 69.078125 808.601562 67.363281 809.308594 65.746094 C 810.023438 64.132812 810.988281 62.730469 812.210938 61.542969 C 813.429688 60.359375 814.882812 59.421875 816.546875 58.730469 C 818.214844 58.042969 819.980469 57.695312 821.855469 57.695312 C 824.167969 57.695312 826.289062 58.035156 828.210938 58.714844 C 830.128906 59.394531 831.773438 60.371094 833.132812 61.640625 C 834.484375 62.914062 835.550781 64.386719 836.320312 66.054688 C 837.082031 67.726562 837.46875 69.574219 837.46875 71.597656 C 837.46875 73.839844 836.953125 75.90625 835.933594 77.792969 C 834.90625 79.679688 833.640625 81.40625 832.132812 82.980469 C 830.617188 84.554688 829.007812 86.035156 827.308594 87.425781 C 825.609375 88.816406 824.066406 90.167969 822.691406 91.480469 L 815.011719 98.691406 L 825.058594 98.691406 C 826.457031 98.695312 827.761719 98.683594 828.972656 98.660156 C 830.183594 98.640625 831.214844 98.597656 832.058594 98.53125 C 832.914062 98.46875 833.34375 98.425781 833.363281 98.398438 C 833.539062 98.25 833.710938 97.949219 833.867188 97.496094 C 834.023438 97.042969 834.164062 96.511719 834.300781 95.898438 C 834.429688 95.28125 834.566406 94.65625 834.695312 94.019531 C 834.832031 93.386719 834.953125 92.691406 835.0625 91.933594 L 837.535156 91.933594 Z M 835.394531 104.703125 "/>
<path style=" stroke:none;fill-rule:evenodd;fill:rgb(0%,0%,0%);fill-opacity:1;" d="M 861.875 104.449219 C 861.875 107.023438 861.351562 109.453125 860.292969 111.742188 C 859.238281 114.03125 857.757812 116.050781 855.847656 117.8125 C 855.648438 117.941406 855.417969 118.007812 855.167969 118.007812 C 854.984375 118.007812 854.746094 117.941406 854.453125 117.8125 L 854.289062 117.546875 C 854.105469 117.371094 854.011719 117.175781 854.011719 116.953125 C 854.011719 116.753906 854.105469 116.523438 854.289062 116.261719 C 856.003906 114.675781 857.328125 112.875 858.246094 110.851562 C 859.164062 108.828125 859.625 106.691406 859.625 104.449219 C 859.625 104.296875 859.613281 104.128906 859.597656 103.941406 C 859.570312 103.753906 859.558594 103.867188 859.558594 104.285156 C 859.191406 104.703125 858.355469 104.910156 857.042969 104.910156 C 855.730469 104.910156 854.730469 104.507812 854.050781 103.691406 C 853.359375 102.878906 853.019531 101.976562 853.019531 100.984375 C 853.019531 99.996094 853.359375 99.101562 854.050781 98.296875 C 854.730469 97.496094 855.730469 97.09375 857.042969 97.09375 C 858.015625 97.09375 858.816406 97.34375 859.421875 97.835938 C 860.039062 98.332031 860.523438 98.933594 860.890625 99.636719 C 861.25 100.339844 861.507812 101.121094 861.65625 101.976562 C 861.800781 102.835938 861.875 103.660156 861.875 104.449219 Z M 861.875 104.449219 "/>
<path style=" stroke:none;fill-rule:evenodd;fill:rgb(0%,0%,0%);fill-opacity:1;" d="M 910.457031 104.703125 C 906.367188 104.574219 902.382812 104.511719 898.515625 104.511719 C 894.648438 104.511719 890.660156 104.574219 886.566406 104.703125 L 886.566406 101.925781 L 888.871094 101.925781 C 889.605469 101.925781 890.292969 101.917969 890.9375 101.894531 C 891.589844 101.875 892.195312 101.820312 892.773438 101.734375 C 893.351562 101.648438 893.859375 101.558594 894.273438 101.472656 C 894.628906 101.410156 894.921875 101.210938 895.164062 100.875 C 895.390625 100.542969 895.511719 100.171875 895.511719 99.757812 L 895.511719 63.320312 C 894.398438 63.863281 893.03125 64.273438 891.40625 64.550781 C 889.78125 64.832031 888.007812 64.972656 886.070312 64.96875 L 886.070312 62.222656 C 888.742188 62.222656 891.203125 61.90625 893.464844 61.269531 C 895.714844 60.636719 897.671875 59.441406 899.3125 57.695312 L 900.351562 57.695312 C 901.078125 57.695312 901.445312 58.050781 901.445312 58.761719 L 901.445312 99.757812 C 901.445312 100.191406 901.554688 100.570312 901.785156 100.890625 C 902.003906 101.214844 902.328125 101.410156 902.75 101.472656 C 903.109375 101.558594 903.566406 101.648438 904.117188 101.734375 C 904.679688 101.820312 905.304688 101.875 906 101.894531 C 906.707031 101.917969 907.386719 101.925781 908.058594 101.925781 L 910.457031 101.925781 Z M 910.457031 104.703125 "/>
<g clip-path="url(#clip6)" clip-rule="nonzero">
<path style=" stroke:none;fill-rule:evenodd;fill:rgb(0%,0%,0%);fill-opacity:1;" d="M 924.539062 120.625 C 924.398438 120.988281 924.171875 121.246094 923.839844 121.402344 C 923.519531 121.5625 923.167969 121.574219 922.792969 121.4375 C 922.425781 121.300781 922.160156 121.066406 921.992188 120.726562 C 921.828125 120.390625 921.820312 120.042969 921.957031 119.679688 L 934.4375 87.722656 L 921.957031 55.761719 C 921.820312 55.410156 921.828125 55.058594 921.992188 54.722656 C 922.160156 54.382812 922.425781 54.144531 922.792969 54.011719 C 923.167969 53.875 923.519531 53.886719 923.839844 54.046875 C 924.171875 54.207031 924.398438 54.464844 924.539062 54.816406 L 937.230469 87.25 C 937.371094 87.523438 937.371094 87.839844 937.230469 88.195312 Z M 924.539062 120.625 "/>
</g>
<path style="fill:none;stroke-width:0.2948;stroke-linecap:round;stroke-linejoin:round;stroke:rgb(0%,0%,0%);stroke-opacity:1;stroke-miterlimit:10;" d="M 80.942845 2.517055 L 76.195995 4.5806 " transform="matrix(9.185367,0.000000212628,0,-9.167703,267.627422,126.677163)"/>
<path style="fill:none;stroke-width:0.2948;stroke-linecap:round;stroke-linejoin:round;stroke:rgb(0%,0%,0%);stroke-opacity:1;stroke-miterlimit:10;" d="M 76.195995 4.5806 L 80.942845 6.644572 " transform="matrix(9.185367,0.000000212628,0,-9.167703,267.627422,126.677163)"/>
<path style=" stroke:none;fill-rule:evenodd;fill:rgb(0%,0%,0%);fill-opacity:1;" d="M 1011.117188 102.25 C 1011.863281 102.25 1012.46875 102.855469 1012.46875 103.601562 C 1012.46875 104.347656 1011.863281 104.953125 1011.117188 104.953125 C 1010.367188 104.953125 1009.757812 104.347656 1009.757812 103.601562 C 1009.757812 102.855469 1010.367188 102.25 1011.117188 102.25 Z M 1011.117188 102.25 "/>
<path style=" stroke:none;fill-rule:evenodd;fill:rgb(0%,0%,0%);fill-opacity:1;" d="M 967.515625 83.332031 C 968.269531 83.332031 968.875 83.933594 968.875 84.683594 C 968.875 85.429688 968.269531 86.03125 967.515625 86.03125 C 966.773438 86.03125 966.164062 85.429688 966.164062 84.683594 C 966.164062 83.933594 966.773438 83.332031 967.515625 83.332031 Z M 967.515625 83.332031 "/>
<path style=" stroke:none;fill-rule:evenodd;fill:rgb(0%,0%,0%);fill-opacity:1;" d="M 1011.117188 64.410156 C 1011.863281 64.410156 1012.46875 65.015625 1012.46875 65.761719 C 1012.46875 66.507812 1011.863281 67.113281 1011.117188 67.113281 C 1010.367188 67.113281 1009.757812 66.507812 1009.757812 65.761719 C 1009.757812 65.015625 1010.367188 64.410156 1011.117188 64.410156 Z M 1011.117188 64.410156 "/>
<path style=" stroke:none;fill-rule:evenodd;fill:rgb(0%,0%,0%);fill-opacity:1;" d="M 1063.886719 84.683594 C 1063.886719 86.980469 1062.023438 88.84375 1059.71875 88.84375 C 1057.421875 88.84375 1055.546875 86.980469 1055.546875 84.683594 C 1055.546875 82.382812 1057.421875 80.519531 1059.71875 80.519531 C 1062.023438 80.519531 1063.886719 82.382812 1063.886719 84.683594 Z M 1063.886719 84.683594 "/>
<path style=" stroke:none;fill-rule:evenodd;fill:rgb(0%,0%,0%);fill-opacity:1;" d="M 1042.570312 84.683594 C 1042.570312 86.980469 1040.703125 88.84375 1038.398438 88.84375 C 1036.09375 88.84375 1034.230469 86.980469 1034.230469 84.683594 C 1034.230469 82.382812 1036.09375 80.519531 1038.398438 80.519531 C 1040.703125 80.519531 1042.570312 82.382812 1042.570312 84.683594 Z M 1042.570312 84.683594 "/>
<path style=" stroke:none;fill-rule:evenodd;fill:rgb(0%,0%,0%);fill-opacity:1;" d="M 1085.21875 84.683594 C 1085.21875 86.980469 1083.351562 88.84375 1081.046875 88.84375 C 1078.742188 88.84375 1076.875 86.980469 1076.875 84.683594 C 1076.875 82.382812 1078.742188 80.519531 1081.046875 80.519531 C 1083.351562 80.519531 1085.21875 82.382812 1085.21875 84.683594 Z M 1085.21875 84.683594 "/>
<path style="fill:none;stroke-width:0.2948;stroke-linecap:round;stroke-linejoin:round;stroke:rgb(0%,0%,0%);stroke-opacity:1;stroke-miterlimit:10;" d="M 96.272084 2.517056 L 91.526084 4.580601 " transform="matrix(9.185367,0.000000212628,0,-9.167703,267.627422,126.677163)"/>
<path style="fill:none;stroke-width:0.2948;stroke-linecap:round;stroke-linejoin:round;stroke:rgb(0%,0%,0%);stroke-opacity:1;stroke-miterlimit:10;" d="M 91.526084 4.580601 L 96.272084 6.644572 " transform="matrix(9.185367,0.000000212628,0,-9.167703,267.627422,126.677163)"/>
<path style=" stroke:none;fill-rule:evenodd;fill:rgb(0%,0%,0%);fill-opacity:1;" d="M 1151.921875 102.25 C 1152.675781 102.25 1153.28125 102.855469 1153.28125 103.601562 C 1153.28125 104.347656 1152.675781 104.953125 1151.921875 104.953125 C 1151.175781 104.953125 1150.570312 104.347656 1150.570312 103.601562 C 1150.570312 102.855469 1151.175781 102.25 1151.921875 102.25 Z M 1151.921875 102.25 "/>
<path style=" stroke:none;fill-rule:evenodd;fill:rgb(0%,0%,0%);fill-opacity:1;" d="M 1108.328125 83.332031 C 1109.070312 83.332031 1109.675781 83.933594 1109.675781 84.683594 C 1109.675781 85.429688 1109.070312 86.03125 1108.328125 86.03125 C 1107.582031 86.03125 1106.976562 85.429688 1106.976562 84.683594 C 1106.976562 83.933594 1107.582031 83.332031 1108.328125 83.332031 Z M 1108.328125 83.332031 "/>
<path style=" stroke:none;fill-rule:evenodd;fill:rgb(0%,0%,0%);fill-opacity:1;" d="M 1151.921875 64.410156 C 1152.675781 64.410156 1153.28125 65.015625 1153.28125 65.761719 C 1153.28125 66.507812 1152.675781 67.113281 1151.921875 67.113281 C 1151.175781 67.113281 1150.570312 66.507812 1150.570312 65.761719 C 1150.570312 65.015625 1151.175781 64.410156 1151.921875 64.410156 Z M 1151.921875 64.410156 "/>
<g clip-path="url(#clip7)" clip-rule="nonzero">
<path style=" stroke:none;fill-rule:evenodd;fill:rgb(0%,0%,0%);fill-opacity:1;" d="M 1197.554688 119.679688 C 1197.738281 120.042969 1197.738281 120.390625 1197.554688 120.726562 C 1197.371094 121.066406 1197.09375 121.300781 1196.726562 121.4375 C 1196.359375 121.574219 1195.992188 121.5625 1195.625 121.402344 C 1195.347656 121.246094 1195.074219 120.988281 1194.890625 120.625 L 1182.234375 88.195312 C 1182.140625 87.929688 1182.140625 87.613281 1182.234375 87.25 L 1194.890625 54.816406 C 1195.074219 54.464844 1195.347656 54.207031 1195.625 54.046875 C 1195.992188 53.886719 1196.359375 53.875 1196.726562 54.011719 C 1197.09375 54.144531 1197.371094 54.382812 1197.554688 54.722656 C 1197.738281 55.058594 1197.738281 55.410156 1197.554688 55.761719 L 1185.097656 87.722656 Z M 1197.554688 119.679688 "/>
</g>
<path style=" stroke:none;fill-rule:evenodd;fill:rgb(0%,0%,0%);fill-opacity:1;" d="M 1237.050781 82.203125 C 1237.050781 85.308594 1236.777344 88.394531 1236.316406 91.464844 C 1235.949219 94.539062 1234.847656 97.421875 1233.101562 100.113281 C 1231.90625 102.078125 1230.253906 103.585938 1228.234375 104.640625 C 1226.210938 105.695312 1224.007812 106.222656 1221.527344 106.222656 C 1219.230469 106.222656 1217.027344 105.695312 1215.007812 104.640625 C 1212.984375 103.585938 1211.332031 102.078125 1210.046875 100.113281 C 1208.394531 97.421875 1207.289062 94.539062 1206.832031 91.464844 C 1206.464844 88.394531 1206.1875 85.308594 1206.1875 82.203125 C 1206.1875 79.058594 1206.464844 75.914062 1206.832031 72.78125 C 1207.289062 69.644531 1208.394531 66.707031 1210.046875 63.96875 C 1211.332031 61.988281 1212.984375 60.445312 1215.007812 59.347656 C 1217.027344 58.246094 1219.230469 57.695312 1221.527344 57.695312 C 1223.917969 57.695312 1226.121094 58.246094 1228.234375 59.347656 C 1230.253906 60.445312 1231.90625 61.988281 1233.101562 63.96875 C 1234.847656 66.707031 1235.949219 69.644531 1236.316406 72.78125 C 1236.777344 75.914062 1237.050781 79.058594 1237.050781 82.203125 Z M 1230.4375 81.070312 C 1230.4375 79.714844 1230.347656 78.28125 1230.347656 76.773438 C 1230.347656 75.265625 1230.253906 73.789062 1230.160156 72.34375 C 1230.070312 70.898438 1229.976562 69.535156 1229.703125 68.253906 C 1229.519531 66.972656 1229.242188 65.878906 1228.875 64.96875 C 1228.234375 63.507812 1227.222656 62.304688 1225.9375 61.367188 C 1224.652344 60.429688 1223.179688 59.960938 1221.527344 59.957031 C 1219.964844 59.960938 1218.589844 60.433594 1217.300781 61.382812 C 1216.015625 62.332031 1215.007812 63.527344 1214.363281 64.96875 C 1213.996094 65.878906 1213.71875 66.972656 1213.535156 68.253906 C 1213.261719 69.535156 1213.078125 70.898438 1212.984375 72.34375 C 1212.894531 73.789062 1212.894531 75.265625 1212.894531 76.773438 C 1212.800781 78.28125 1212.800781 79.714844 1212.800781 81.070312 C 1212.800781 82.582031 1212.800781 84.171875 1212.894531 85.839844 C 1212.894531 87.511719 1212.894531 89.128906 1212.984375 90.691406 C 1213.078125 92.253906 1213.261719 93.738281 1213.535156 95.136719 C 1213.71875 96.539062 1213.996094 97.710938 1214.363281 98.660156 C 1215.007812 100.234375 1215.925781 101.527344 1217.210938 102.539062 C 1218.496094 103.554688 1219.964844 104.058594 1221.527344 104.058594 C 1223.179688 104.058594 1224.652344 103.554688 1225.9375 102.539062 C 1227.316406 101.527344 1228.234375 100.234375 1228.875 98.660156 C 1229.242188 97.710938 1229.519531 96.539062 1229.703125 95.136719 C 1229.976562 93.738281 1230.070312 92.253906 1230.160156 90.691406 C 1230.253906 89.128906 1230.347656 87.511719 1230.347656 85.839844 C 1230.347656 84.171875 1230.4375 82.582031 1230.4375 81.070312 Z M 1230.4375 81.070312 "/>
<path style=" stroke:none;fill-rule:evenodd;fill:rgb(0%,0%,0%);fill-opacity:1;" d="M 1260.566406 104.449219 C 1260.566406 107.023438 1260.015625 109.453125 1259.003906 111.742188 C 1257.902344 114.03125 1256.433594 116.050781 1254.503906 117.8125 C 1254.320312 117.941406 1254.136719 118.007812 1253.859375 118.007812 C 1253.675781 118.007812 1253.492188 117.941406 1253.125 117.8125 L 1252.941406 117.546875 C 1252.757812 117.371094 1252.667969 117.175781 1252.667969 116.953125 C 1252.667969 116.753906 1252.757812 116.523438 1252.941406 116.261719 C 1254.6875 114.675781 1256.066406 112.875 1256.984375 110.851562 C 1257.902344 108.828125 1258.359375 106.691406 1258.359375 104.449219 C 1258.359375 104.296875 1258.359375 104.128906 1258.269531 103.941406 C 1258.269531 103.753906 1258.269531 103.867188 1258.269531 104.285156 C 1257.902344 104.703125 1257.074219 104.910156 1255.699219 104.910156 C 1254.410156 104.910156 1253.402344 104.507812 1252.757812 103.691406 C 1252.023438 102.878906 1251.746094 101.976562 1251.746094 100.984375 C 1251.746094 99.996094 1252.023438 99.101562 1252.757812 98.296875 C 1253.402344 97.496094 1254.410156 97.09375 1255.699219 97.09375 C 1256.707031 97.09375 1257.535156 97.34375 1258.085938 97.835938 C 1258.730469 98.332031 1259.1875 98.933594 1259.554688 99.636719 C 1259.921875 100.339844 1260.199219 101.121094 1260.382812 101.976562 C 1260.472656 102.835938 1260.566406 103.660156 1260.566406 104.449219 Z M 1260.566406 104.449219 "/>
<path style=" stroke:none;fill-rule:evenodd;fill:rgb(0%,0%,0%);fill-opacity:1;" d="M 1312.1875 82.203125 C 1312.1875 85.308594 1311.910156 88.394531 1311.542969 91.464844 C 1311.085938 94.539062 1309.984375 97.421875 1308.328125 100.113281 C 1307.042969 102.078125 1305.390625 103.585938 1303.371094 104.640625 C 1301.347656 105.695312 1299.144531 106.222656 1296.757812 106.222656 C 1294.367188 106.222656 1292.253906 105.695312 1290.140625 104.640625 C 1288.121094 103.585938 1286.46875 102.078125 1285.273438 100.113281 C 1283.527344 97.421875 1282.425781 94.539062 1282.058594 91.464844 C 1281.601562 88.394531 1281.324219 85.308594 1281.324219 82.203125 C 1281.324219 79.058594 1281.601562 75.914062 1282.058594 72.78125 C 1282.425781 69.644531 1283.527344 66.707031 1285.273438 63.96875 C 1286.46875 61.988281 1288.121094 60.445312 1290.140625 59.347656 C 1292.164062 58.246094 1294.367188 57.695312 1296.757812 57.695312 C 1299.050781 57.695312 1301.347656 58.246094 1303.371094 59.347656 C 1305.390625 60.445312 1307.042969 61.988281 1308.328125 63.96875 C 1309.984375 66.707031 1311.085938 69.644531 1311.542969 72.78125 C 1311.910156 75.914062 1312.1875 79.058594 1312.1875 82.203125 Z M 1305.574219 81.070312 C 1305.574219 79.714844 1305.574219 78.28125 1305.480469 76.773438 C 1305.480469 75.265625 1305.480469 73.789062 1305.390625 72.34375 C 1305.296875 70.898438 1305.113281 69.535156 1304.839844 68.253906 C 1304.65625 66.972656 1304.378906 65.878906 1304.011719 64.96875 C 1303.371094 63.507812 1302.359375 62.304688 1301.074219 61.367188 C 1299.789062 60.429688 1298.316406 59.960938 1296.757812 59.957031 C 1295.101562 59.960938 1293.726562 60.433594 1292.4375 61.382812 C 1291.152344 62.332031 1290.140625 63.527344 1289.5 64.96875 C 1289.132812 65.878906 1288.855469 66.972656 1288.671875 68.253906 C 1288.398438 69.535156 1288.214844 70.898438 1288.214844 72.34375 C 1288.121094 73.789062 1288.03125 75.265625 1288.03125 76.773438 C 1287.9375 78.28125 1287.9375 79.714844 1287.9375 81.070312 C 1287.9375 82.582031 1287.9375 84.171875 1288.03125 85.839844 C 1288.03125 87.511719 1288.121094 89.128906 1288.214844 90.691406 C 1288.214844 92.253906 1288.398438 93.738281 1288.671875 95.136719 C 1288.855469 96.539062 1289.132812 97.710938 1289.5 98.660156 C 1290.140625 100.234375 1291.0625 101.527344 1292.347656 102.539062 C 1293.726562 103.554688 1295.101562 104.058594 1296.757812 104.058594 C 1298.316406 104.058594 1299.789062 103.554688 1301.164062 102.539062 C 1302.449219 101.527344 1303.371094 100.234375 1304.011719 98.660156 C 1304.378906 97.710938 1304.65625 96.539062 1304.839844 95.136719 C 1305.113281 93.738281 1305.296875 92.253906 1305.390625 90.691406 C 1305.480469 89.128906 1305.480469 87.511719 1305.480469 85.839844 C 1305.574219 84.171875 1305.574219 82.582031 1305.574219 81.070312 Z M 1305.574219 81.070312 "/>
<g clip-path="url(#clip8)" clip-rule="nonzero">
<path style=" stroke:none;fill-rule:evenodd;fill:rgb(0%,0%,0%);fill-opacity:1;" d="M 1323.210938 120.625 C 1323.117188 120.988281 1322.84375 121.246094 1322.566406 121.402344 C 1322.199219 121.5625 1321.832031 121.574219 1321.464844 121.4375 C 1321.097656 121.300781 1320.820312 121.066406 1320.730469 120.726562 C 1320.546875 120.390625 1320.546875 120.042969 1320.636719 119.679688 L 1333.128906 87.722656 L 1320.636719 55.761719 C 1320.546875 55.410156 1320.546875 55.058594 1320.730469 54.722656 C 1320.820312 54.382812 1321.097656 54.144531 1321.464844 54.011719 C 1321.832031 53.875 1322.199219 53.886719 1322.566406 54.046875 C 1322.84375 54.207031 1323.117188 54.464844 1323.210938 54.816406 L 1335.886719 87.25 C 1336.070312 87.523438 1336.070312 87.839844 1335.886719 88.195312 Z M 1323.210938 120.625 "/>
</g>
<g clip-path="url(#clip9)" clip-rule="nonzero">
<path style=" stroke:none;fill-rule:evenodd;fill:rgb(0%,0%,0%);fill-opacity:1;" d="M 73.5625 307.316406 C 73.425781 307.933594 73.085938 308.242188 72.539062 308.238281 C 72.496094 308.285156 72.382812 308.308594 72.199219 308.304688 C 72.085938 308.308594 71.996094 308.285156 71.925781 308.238281 L 71.621094 308.238281 C 71.03125 308.242188 70.738281 308.019531 70.738281 307.578125 L 70.738281 307.347656 C 71.007812 305.722656 71.144531 304.214844 71.144531 302.828125 L 71.144531 301.574219 C 71.007812 299.882812 70.628906 298.425781 70.003906 297.207031 C 69.378906 295.984375 68.464844 295.039062 67.261719 294.367188 C 66.0625 293.699219 64.539062 293.363281 62.703125 293.359375 C 61.636719 293.363281 60.554688 293.59375 59.453125 294.054688 C 58.351562 294.515625 57.324219 295.144531 56.371094 295.933594 C 55.328125 296.792969 54.476562 297.765625 53.820312 298.855469 C 53.160156 299.945312 52.683594 301.058594 52.390625 302.203125 C 52.160156 303.019531 52.039062 303.796875 52.011719 304.542969 C 52.011719 305.578125 52.242188 306.570312 52.695312 307.511719 C 53.355469 309.097656 54.535156 310.113281 56.234375 310.550781 L 64.0625 312.726562 C 65.492188 313.148438 66.714844 313.8125 67.722656 314.726562 C 68.734375 315.636719 69.496094 316.714844 70.003906 317.957031 C 70.515625 319.199219 70.816406 320.558594 70.90625 322.03125 L 70.90625 322.625 C 70.90625 323.902344 70.722656 325.207031 70.359375 326.550781 C 69.886719 328.398438 69.125 330.179688 68.078125 331.894531 C 67.035156 333.613281 65.742188 335.152344 64.199219 336.511719 C 62.726562 337.769531 61.109375 338.773438 59.347656 339.53125 C 57.589844 340.289062 55.828125 340.671875 54.054688 340.671875 C 51.445312 340.671875 49.222656 340.253906 47.386719 339.417969 C 45.546875 338.582031 44.183594 337.527344 43.300781 336.25 L 39.929688 340.242188 C 39.636719 340.527344 39.328125 340.671875 39.011719 340.671875 L 38.808594 340.671875 C 38.242188 340.671875 37.933594 340.453125 37.886719 340.011719 C 37.886719 339.878906 37.921875 339.757812 37.988281 339.648438 L 41.9375 324.207031 C 42.074219 323.59375 42.472656 323.277344 43.128906 323.25 L 43.878906 323.25 C 44.152344 323.253906 44.398438 323.363281 44.628906 323.582031 C 44.71875 323.757812 44.765625 323.914062 44.765625 324.042969 C 44.765625 324.132812 44.742188 324.242188 44.695312 324.371094 C 44.285156 325.957031 44.082031 327.433594 44.082031 328.792969 C 44.082031 330.972656 44.617188 332.820312 45.683594 334.335938 C 47.386719 336.777344 50.359375 338 54.601562 337.996094 C 55.667969 338 56.753906 337.753906 57.851562 337.257812 C 58.953125 336.761719 59.980469 336.097656 60.933594 335.257812 C 61.976562 334.292969 62.855469 333.222656 63.570312 332.042969 C 64.285156 330.867188 64.8125 329.652344 65.152344 328.398438 C 65.378906 327.386719 65.492188 326.441406 65.492188 325.558594 C 65.492188 324.460938 65.347656 323.40625 65.050781 322.394531 C 64.371094 320.703125 63.113281 319.613281 61.273438 319.125 L 53.546875 316.949219 C 52.160156 316.578125 50.972656 315.96875 49.972656 315.121094 C 48.972656 314.273438 48.195312 313.269531 47.640625 312.101562 C 47.085938 310.9375 46.761719 309.648438 46.671875 308.238281 L 46.671875 307.511719 C 46.671875 306.417969 46.808594 305.261719 47.078125 304.050781 C 47.554688 302.292969 48.316406 300.609375 49.359375 299.003906 C 50.402344 297.398438 51.695312 295.980469 53.238281 294.746094 C 54.691406 293.558594 56.289062 292.609375 58.023438 291.894531 C 59.757812 291.179688 61.476562 290.820312 63.179688 290.820312 C 65.519531 290.820312 67.445312 291.257812 68.964844 292.125 C 70.488281 292.996094 71.585938 294.023438 72.265625 295.207031 L 75.535156 291.28125 C 75.71875 290.976562 76.011719 290.820312 76.421875 290.820312 L 76.726562 290.820312 C 77.269531 290.820312 77.542969 291.085938 77.542969 291.613281 L 77.542969 291.875 Z M 73.5625 307.316406 "/>
</g>
<path style=" stroke:none;fill-rule:evenodd;fill:rgb(0%,0%,0%);fill-opacity:1;" d="M 154.296875 309.261719 C 155.003906 309.878906 155.453125 310.75 155.65625 311.867188 C 155.703125 312.441406 155.730469 313.035156 155.730469 313.648438 C 155.730469 314.203125 155.703125 314.75 155.65625 315.300781 C 155.519531 316.53125 155.296875 317.792969 154.992188 319.078125 C 154.691406 320.367188 154.398438 321.527344 154.128906 322.558594 C 153.578125 324.648438 152.816406 326.722656 151.84375 328.777344 C 150.871094 330.835938 149.695312 332.6875 148.324219 334.335938 C 146.949219 335.988281 145.386719 337.335938 143.621094 338.378906 C 141.859375 339.421875 139.949219 339.945312 137.890625 339.945312 C 135.6875 339.945312 134.070312 339.3125 133.050781 338.050781 C 132.03125 336.785156 131.441406 335.503906 131.277344 334.203125 C 130.351562 335.613281 129.011719 336.921875 127.261719 338.132812 C 125.515625 339.339844 123.515625 339.945312 121.269531 339.945312 C 119.230469 339.945312 117.632812 339.394531 116.488281 338.296875 C 115.34375 337.199219 114.578125 335.8125 114.191406 334.136719 C 113.917969 333.039062 113.769531 331.820312 113.746094 330.476562 C 113.746094 329.839844 113.769531 329.203125 113.8125 328.5625 C 113.996094 326.519531 114.347656 324.472656 114.871094 322.425781 C 115.460938 320.25 116.277344 318.128906 117.320312 316.058594 C 118.367188 313.992188 119.617188 312.003906 121.066406 310.085938 C 121.292969 309.757812 121.589844 309.550781 121.953125 309.460938 L 122.1875 309.460938 C 122.371094 309.460938 122.554688 309.496094 122.734375 309.558594 C 123.03125 309.695312 123.210938 309.925781 123.28125 310.25 L 123.28125 310.417969 C 123.28125 310.617188 123.191406 310.847656 123.007812 311.109375 C 121.691406 312.960938 120.535156 314.835938 119.535156 316.738281 C 118.539062 318.640625 117.785156 320.582031 117.285156 322.558594 C 116.878906 324.078125 116.675781 325.527344 116.675781 326.914062 L 116.742188 326.976562 C 116.742188 328.519531 116.964844 329.832031 117.40625 330.90625 C 117.847656 331.984375 118.496094 332.835938 119.347656 333.464844 C 120.199219 334.089844 121.257812 334.402344 122.53125 334.402344 C 124.234375 334.402344 125.839844 333.90625 127.347656 332.902344 C 128.859375 331.902344 130.136719 330.585938 131.175781 328.957031 C 131.269531 327.925781 131.433594 326.855469 131.671875 325.742188 C 131.910156 324.632812 132.167969 323.527344 132.433594 322.425781 C 132.480469 322.253906 132.554688 321.972656 132.65625 321.585938 C 132.765625 321.203125 132.914062 320.824219 133.125 320.449219 C 133.324219 320.074219 133.601562 319.71875 133.933594 319.375 C 134.28125 319.035156 134.757812 318.863281 135.363281 318.863281 C 135.953125 318.863281 136.375 319.050781 136.613281 319.425781 C 136.851562 319.800781 136.964844 320.195312 136.964844 320.613281 C 136.964844 320.988281 136.917969 321.363281 136.835938 321.734375 C 136.742188 322.109375 136.667969 322.382812 136.625 322.558594 C 136.355469 323.703125 136.007812 324.847656 135.585938 325.992188 C 135.171875 327.136719 134.722656 328.222656 134.246094 329.253906 C 134.429688 330.75 134.90625 331.984375 135.6875 332.953125 C 136.476562 333.921875 137.617188 334.402344 139.113281 334.402344 C 140.5 334.402344 141.859375 334.078125 143.199219 333.429688 C 144.542969 332.785156 145.773438 331.914062 146.910156 330.824219 C 148.039062 329.734375 149.023438 328.460938 149.851562 326.996094 C 150.6875 325.535156 151.292969 324.011719 151.679688 322.425781 C 151.898438 321.59375 152.027344 320.769531 152.046875 319.953125 C 152.046875 319.203125 151.945312 318.492188 151.742188 317.808594 C 151.3125 316.359375 150.539062 315.136719 149.425781 314.144531 C 148.839844 313.664062 148.546875 313.089844 148.546875 312.429688 C 148.546875 312.257812 148.5625 312.101562 148.609375 311.96875 C 148.765625 311.179688 149.144531 310.492188 149.722656 309.90625 C 150.300781 309.324219 151.007812 308.910156 151.84375 308.667969 C 152.074219 308.628906 152.304688 308.605469 152.523438 308.601562 C 153.183594 308.605469 153.773438 308.824219 154.296875 309.261719 Z M 154.296875 309.261719 "/>
<path style=" stroke:none;fill-rule:evenodd;fill:rgb(0%,0%,0%);fill-opacity:1;" d="M 106.820312 351.148438 C 84.75 336.632812 84.75 301.148438 106.820312 286.632812 L 110.285156 286.632812 C 90.382812 301.148438 90.382812 336.632812 110.285156 351.148438 "/>
<path style=" stroke:none;fill-rule:evenodd;fill:rgb(0%,0%,0%);fill-opacity:1;" d="M 162.683594 286.632812 C 184.753906 301.148438 184.753906 336.632812 162.683594 351.148438 L 159.21875 351.148438 C 179.125 336.632812 179.125 301.148438 159.21875 286.632812 "/>
<path style=" stroke:none;fill-rule:evenodd;fill:rgb(0%,0%,0%);fill-opacity:1;" d="M 369.875 316.40625 C 369.875 319.515625 369.660156 322.601562 369.226562 325.671875 C 368.792969 328.746094 367.71875 331.628906 366.007812 334.320312 C 364.785156 336.285156 363.148438 337.792969 361.101562 338.847656 C 359.058594 339.902344 356.832031 340.429688 354.429688 340.429688 C 352.117188 340.429688 349.929688 339.902344 347.875 338.847656 C 345.816406 337.792969 344.175781 336.285156 342.953125 334.320312 C 341.238281 331.628906 340.167969 328.746094 339.734375 325.671875 C 339.300781 322.601562 339.082031 319.515625 339.082031 316.40625 C 339.082031 313.261719 339.300781 310.121094 339.734375 306.984375 C 340.167969 303.847656 341.238281 300.914062 342.953125 298.171875 C 344.175781 296.191406 345.8125 294.652344 347.859375 293.550781 C 349.90625 292.453125 352.09375 291.902344 354.429688 291.898438 C 356.808594 291.902344 359.027344 292.453125 361.085938 293.550781 C 363.144531 294.652344 364.785156 296.191406 366.007812 298.171875 C 367.71875 300.914062 368.792969 303.847656 369.226562 306.984375 C 369.660156 310.121094 369.875 313.261719 369.875 316.40625 Z M 363.269531 315.277344 C 363.269531 313.921875 363.257812 312.488281 363.238281 310.976562 C 363.214844 309.46875 363.160156 307.992188 363.070312 306.546875 C 362.980469 305.105469 362.820312 303.742188 362.585938 302.457031 C 362.351562 301.175781 362.070312 300.082031 361.734375 299.175781 C 361.070312 297.710938 360.09375 296.507812 358.800781 295.570312 C 357.511719 294.632812 356.054688 294.164062 354.429688 294.164062 C 352.851562 294.164062 351.421875 294.640625 350.144531 295.589844 C 348.863281 296.539062 347.890625 297.730469 347.222656 299.175781 C 346.890625 300.082031 346.605469 301.175781 346.371094 302.457031 C 346.140625 303.742188 345.976562 305.105469 345.886719 306.546875 C 345.800781 307.992188 345.746094 309.46875 345.722656 310.976562 C 345.699219 312.488281 345.6875 313.921875 345.6875 315.277344 C 345.6875 316.789062 345.699219 318.378906 345.722656 320.046875 C 345.746094 321.71875 345.800781 323.335938 345.886719 324.898438 C 345.976562 326.460938 346.140625 327.941406 346.371094 329.34375 C 346.605469 330.746094 346.890625 331.917969 347.222656 332.867188 C 347.84375 334.441406 348.808594 335.734375 350.109375 336.746094 C 351.410156 337.761719 352.851562 338.265625 354.429688 338.265625 C 356.078125 338.265625 357.550781 337.761719 358.851562 336.746094 C 360.152344 335.734375 361.113281 334.441406 361.734375 332.867188 C 362.070312 331.917969 362.351562 330.746094 362.585938 329.34375 C 362.820312 327.941406 362.980469 326.460938 363.070312 324.898438 C 363.160156 323.335938 363.214844 321.71875 363.238281 320.046875 C 363.257812 318.378906 363.269531 316.789062 363.269531 315.277344 Z M 363.269531 315.277344 "/>
<g clip-path="url(#clip10)" clip-rule="nonzero">
<path style=" stroke:none;fill-rule:evenodd;fill:rgb(0%,0%,0%);fill-opacity:1;" d="M 632.828125 338.910156 C 628.738281 338.78125 624.753906 338.71875 620.882812 338.71875 C 617.015625 338.71875 613.03125 338.78125 608.9375 338.910156 L 608.9375 336.132812 L 611.242188 336.132812 C 611.976562 336.132812 612.667969 336.125 613.308594 336.101562 C 613.957031 336.082031 614.566406 336.027344 615.144531 335.9375 C 615.726562 335.855469 616.226562 335.765625 616.648438 335.679688 C 617.003906 335.617188 617.296875 335.417969 617.53125 335.082031 C 617.765625 334.75 617.882812 334.375 617.882812 333.964844 L 617.882812 297.527344 C 616.769531 298.066406 615.402344 298.476562 613.777344 298.757812 C 612.152344 299.039062 610.375 299.175781 608.4375 299.175781 L 608.4375 296.425781 C 611.109375 296.429688 613.574219 296.109375 615.832031 295.476562 C 618.085938 294.839844 620.039062 293.648438 621.6875 291.898438 L 622.71875 291.898438 C 623.453125 291.902344 623.820312 292.257812 623.820312 292.96875 L 623.820312 333.964844 C 623.820312 334.398438 623.929688 334.777344 624.152344 335.097656 C 624.375 335.421875 624.699219 335.617188 625.121094 335.679688 C 625.476562 335.765625 625.9375 335.855469 626.488281 335.9375 C 627.046875 336.027344 627.675781 336.082031 628.375 336.101562 C 629.074219 336.125 629.761719 336.132812 630.425781 336.132812 L 632.828125 336.132812 Z M 632.828125 338.910156 "/>
</g>
<path style="fill:none;stroke-width:0.2948;stroke-linecap:round;stroke-linejoin:round;stroke:rgb(0%,0%,0%);stroke-opacity:1;stroke-miterlimit:10;" d="M 5.434919 1.549637 L 0.688634 3.613527 " transform="matrix(9.184815,0,0,-9.168066,458.925021,352.01577)"/>
<path style="fill:none;stroke-width:0.2948;stroke-linecap:round;stroke-linejoin:round;stroke:rgb(0%,0%,0%);stroke-opacity:1;stroke-miterlimit:10;" d="M 0.688634 3.613527 L 5.434919 5.67699 " transform="matrix(9.184815,0,0,-9.168066,458.925021,352.01577)"/>
<path style=" stroke:none;fill-rule:evenodd;fill:rgb(0%,0%,0%);fill-opacity:1;" d="M 508.84375 336.457031 C 509.59375 336.457031 510.199219 337.0625 510.199219 337.808594 C 510.199219 338.554688 509.59375 339.160156 508.84375 339.160156 C 508.097656 339.160156 507.492188 338.554688 507.492188 337.808594 C 507.492188 337.0625 508.097656 336.457031 508.84375 336.457031 Z M 508.84375 336.457031 "/>
<path style=" stroke:none;fill-rule:evenodd;fill:rgb(0%,0%,0%);fill-opacity:1;" d="M 465.25 317.535156 C 466 317.535156 466.605469 318.140625 466.605469 318.886719 C 466.605469 319.636719 466 320.238281 465.25 320.238281 C 464.503906 320.238281 463.898438 319.636719 463.898438 318.886719 C 463.898438 318.140625 464.503906 317.535156 465.25 317.535156 Z M 465.25 317.535156 "/>
<path style=" stroke:none;fill-rule:evenodd;fill:rgb(0%,0%,0%);fill-opacity:1;" d="M 508.84375 298.617188 C 509.59375 298.617188 510.199219 299.222656 510.199219 299.96875 C 510.199219 300.714844 509.59375 301.320312 508.84375 301.320312 C 508.097656 301.320312 507.492188 300.714844 507.492188 299.96875 C 507.492188 299.222656 508.097656 298.617188 508.84375 298.617188 Z M 508.84375 298.617188 "/>
<g clip-path="url(#clip11)" clip-rule="nonzero">
<g clip-path="url(#clip12)" clip-rule="nonzero">
<path style="fill:none;stroke-width:0.2948;stroke-linecap:round;stroke-linejoin:round;stroke:rgb(0%,0%,0%);stroke-opacity:1;stroke-miterlimit:10;" d="M 5.435047 1.549637 L 0.688764 3.613527 " transform="matrix(9.184815,0,-0.000007634,-9.168066,706.298862,352.01577)"/>
</g>
</g>
<g clip-path="url(#clip13)" clip-rule="nonzero">
<g clip-path="url(#clip14)" clip-rule="nonzero">
<path style="fill:none;stroke-width:0.2948;stroke-linecap:round;stroke-linejoin:round;stroke:rgb(0%,0%,0%);stroke-opacity:1;stroke-miterlimit:10;" d="M 0.688764 3.613527 L 5.43505 5.67699 " transform="matrix(9.184815,0,-0.000007634,-9.168066,706.298862,352.01577)"/>
</g>
</g>
<g clip-path="url(#clip15)" clip-rule="nonzero">
<g clip-path="url(#clip16)" clip-rule="nonzero">
<path style=" stroke:none;fill-rule:evenodd;fill:rgb(0%,0%,0%);fill-opacity:1;" d="M 756.21875 336.457031 C 756.964844 336.457031 757.570312 337.0625 757.570312 337.808594 C 757.570312 338.554688 756.964844 339.160156 756.21875 339.160156 C 755.46875 339.160156 754.863281 338.554688 754.863281 337.808594 C 754.863281 337.0625 755.46875 336.457031 756.21875 336.457031 Z M 756.21875 336.457031 "/>
</g>
</g>
<g clip-path="url(#clip17)" clip-rule="nonzero">
<g clip-path="url(#clip18)" clip-rule="nonzero">
<path style=" stroke:none;fill-rule:evenodd;fill:rgb(0%,0%,0%);fill-opacity:1;" d="M 712.625 317.535156 C 713.371094 317.535156 713.976562 318.140625 713.976562 318.886719 C 713.976562 319.636719 713.371094 320.238281 712.625 320.238281 C 711.875 320.238281 711.269531 319.636719 711.269531 318.886719 C 711.269531 318.140625 711.875 317.535156 712.625 317.535156 Z M 712.625 317.535156 "/>
</g>
</g>
<g clip-path="url(#clip19)" clip-rule="nonzero">
<g clip-path="url(#clip20)" clip-rule="nonzero">
<path style=" stroke:none;fill-rule:evenodd;fill:rgb(0%,0%,0%);fill-opacity:1;" d="M 756.21875 298.617188 C 756.964844 298.617188 757.570312 299.222656 757.570312 299.96875 C 757.570312 300.714844 756.964844 301.320312 756.21875 301.320312 C 755.46875 301.320312 754.863281 300.714844 754.863281 299.96875 C 754.863281 299.222656 755.46875 298.617188 756.21875 298.617188 Z M 756.21875 298.617188 "/>
</g>
</g>
<path style=" stroke:none;fill-rule:evenodd;fill:rgb(0%,0%,0%);fill-opacity:1;" d="M 873.226562 338.910156 L 846.070312 338.910156 L 846.070312 337.132812 C 846.070312 337.007812 846.136719 336.8125 846.273438 336.550781 L 857.183594 324.71875 C 858.472656 323.296875 859.777344 321.84375 861.101562 320.355469 C 862.425781 318.867188 863.613281 317.347656 864.65625 315.796875 C 865.699219 314.242188 866.535156 312.644531 867.160156 310.996094 C 867.78125 309.34375 868.09375 307.617188 868.09375 305.804688 C 868.09375 304.273438 867.890625 302.847656 867.492188 301.519531 C 867.089844 300.195312 866.511719 299.03125 865.753906 298.027344 C 865 297.027344 864.054688 296.21875 862.921875 295.605469 C 861.789062 294.988281 860.472656 294.683594 858.984375 294.679688 C 856.761719 294.683594 854.796875 295.34375 853.09375 296.671875 C 851.394531 297.996094 850.265625 299.457031 849.707031 301.050781 C 849.597656 301.09375 849.777344 301.117188 850.242188 301.113281 L 850.808594 301.113281 C 851.476562 301.269531 852.054688 301.5 852.542969 301.8125 C 853.035156 302.125 853.445312 302.554688 853.777344 303.105469 C 854.113281 303.65625 854.277344 304.316406 854.277344 305.09375 C 854.277344 306.386719 853.859375 307.378906 853.011719 308.066406 C 852.164062 308.757812 851.21875 309.101562 850.175781 309.101562 C 849.175781 309.101562 848.238281 308.757812 847.375 308.066406 C 846.507812 307.378906 846.070312 306.386719 846.070312 305.09375 C 846.070312 303.28125 846.429688 301.570312 847.140625 299.953125 C 847.851562 298.335938 848.820312 296.9375 850.042969 295.75 C 851.265625 294.566406 852.710938 293.628906 854.378906 292.9375 C 856.046875 292.246094 857.816406 291.902344 859.683594 291.898438 C 861.996094 291.902344 864.117188 292.242188 866.039062 292.921875 C 867.964844 293.601562 869.605469 294.574219 870.960938 295.847656 C 872.316406 297.121094 873.378906 298.589844 874.148438 300.261719 C 874.914062 301.929688 875.296875 303.777344 875.296875 305.804688 C 875.296875 308.046875 874.785156 310.113281 873.761719 311.996094 C 872.742188 313.882812 871.472656 315.613281 869.960938 317.1875 C 868.449219 318.761719 866.839844 320.242188 865.136719 321.632812 C 863.4375 323.023438 861.898438 324.375 860.519531 325.6875 L 852.84375 332.898438 L 862.886719 332.898438 C 864.289062 332.898438 865.59375 332.890625 866.804688 332.867188 C 868.019531 332.847656 869.046875 332.800781 869.894531 332.738281 C 870.738281 332.671875 871.171875 332.632812 871.195312 332.605469 C 871.371094 332.457031 871.539062 332.15625 871.695312 331.703125 C 871.851562 331.25 871.996094 330.71875 872.128906 330.101562 C 872.261719 329.488281 872.394531 328.863281 872.527344 328.226562 C 872.664062 327.59375 872.785156 326.894531 872.894531 326.140625 L 875.363281 326.140625 Z M 873.226562 338.910156 "/>
<g clip-path="url(#clip21)" clip-rule="nonzero">
<g clip-path="url(#clip22)" clip-rule="nonzero">
<path style="fill:none;stroke-width:0.2948;stroke-linecap:round;stroke-linejoin:round;stroke:rgb(0%,0%,0%);stroke-opacity:1;stroke-miterlimit:10;" d="M 5.435127 1.549661 L 0.688721 3.613551 " transform="matrix(9.185396,0,-0.000015268,-9.168066,961.521539,342.848024)"/>
</g>
</g>
<g clip-path="url(#clip23)" clip-rule="nonzero">
<g clip-path="url(#clip24)" clip-rule="nonzero">
<path style="fill:none;stroke-width:0.2948;stroke-linecap:round;stroke-linejoin:round;stroke:rgb(0%,0%,0%);stroke-opacity:1;stroke-miterlimit:10;" d="M 0.688721 3.613551 L 5.435134 5.677014 " transform="matrix(9.185396,0,-0.000015268,-9.168066,961.521539,342.848024)"/>
</g>
</g>
<g clip-path="url(#clip25)" clip-rule="nonzero">
<g clip-path="url(#clip26)" clip-rule="nonzero">
<path style=" stroke:none;fill-rule:evenodd;fill:rgb(0%,0%,0%);fill-opacity:1;" d="M 1011.445312 327.289062 C 1012.191406 327.289062 1012.796875 327.894531 1012.796875 328.640625 C 1012.796875 329.386719 1012.191406 329.992188 1011.445312 329.992188 C 1010.695312 329.992188 1010.089844 329.386719 1010.089844 328.640625 C 1010.089844 327.894531 1010.695312 327.289062 1011.445312 327.289062 Z M 1011.445312 327.289062 "/>
</g>
</g>
<g clip-path="url(#clip27)" clip-rule="nonzero">
<g clip-path="url(#clip28)" clip-rule="nonzero">
<path style=" stroke:none;fill-rule:evenodd;fill:rgb(0%,0%,0%);fill-opacity:1;" d="M 967.847656 308.367188 C 968.59375 308.367188 969.203125 308.972656 969.203125 309.71875 C 969.203125 310.46875 968.59375 311.070312 967.847656 311.070312 C 967.097656 311.070312 966.492188 310.46875 966.492188 309.71875 C 966.492188 308.972656 967.097656 308.367188 967.847656 308.367188 Z M 967.847656 308.367188 "/>
</g>
</g>
<g clip-path="url(#clip29)" clip-rule="nonzero">
<g clip-path="url(#clip30)" clip-rule="nonzero">
<path style=" stroke:none;fill-rule:evenodd;fill:rgb(0%,0%,0%);fill-opacity:1;" d="M 1011.445312 289.449219 C 1012.191406 289.449219 1012.796875 290.054688 1012.796875 290.800781 C 1012.796875 291.546875 1012.191406 292.152344 1011.445312 292.152344 C 1010.695312 292.152344 1010.089844 291.546875 1010.089844 290.800781 C 1010.089844 290.054688 1010.695312 289.449219 1011.445312 289.449219 Z M 1011.445312 289.449219 "/>
</g>
</g>
<g clip-path="url(#clip31)" clip-rule="nonzero">
<g clip-path="url(#clip32)" clip-rule="nonzero">
<path style=" stroke:none;fill-rule:evenodd;fill:rgb(0%,0%,0%);fill-opacity:1;" d="M 1064.222656 309.71875 C 1064.222656 312.019531 1062.347656 313.882812 1060.054688 313.882812 C 1057.746094 313.882812 1055.882812 312.019531 1055.882812 309.71875 C 1055.882812 307.421875 1057.746094 305.558594 1060.054688 305.558594 C 1062.347656 305.558594 1064.222656 307.421875 1064.222656 309.71875 Z M 1064.222656 309.71875 "/>
</g>
</g>
<g clip-path="url(#clip33)" clip-rule="nonzero">
<g clip-path="url(#clip34)" clip-rule="nonzero">
<path style=" stroke:none;fill-rule:evenodd;fill:rgb(0%,0%,0%);fill-opacity:1;" d="M 1042.894531 309.71875 C 1042.894531 312.019531 1041.027344 313.882812 1038.726562 313.882812 C 1036.421875 313.882812 1034.554688 312.019531 1034.554688 309.71875 C 1034.554688 307.421875 1036.421875 305.558594 1038.726562 305.558594 C 1041.027344 305.558594 1042.894531 307.421875 1042.894531 309.71875 Z M 1042.894531 309.71875 "/>
</g>
</g>
<g clip-path="url(#clip35)" clip-rule="nonzero">
<g clip-path="url(#clip36)" clip-rule="nonzero">
<path style=" stroke:none;fill-rule:evenodd;fill:rgb(0%,0%,0%);fill-opacity:1;" d="M 1085.542969 309.71875 C 1085.542969 312.019531 1083.679688 313.882812 1081.371094 313.882812 C 1079.066406 313.882812 1077.203125 312.019531 1077.203125 309.71875 C 1077.203125 307.421875 1079.066406 305.558594 1081.371094 305.558594 C 1083.679688 305.558594 1085.542969 307.421875 1085.542969 309.71875 Z M 1085.542969 309.71875 "/>
</g>
</g>
<g clip-path="url(#clip37)" clip-rule="nonzero">
<g clip-path="url(#clip38)" clip-rule="nonzero">
<path style="fill:none;stroke-width:0.2948;stroke-linecap:round;stroke-linejoin:round;stroke:rgb(0%,0%,0%);stroke-opacity:1;stroke-miterlimit:10;" d="M 20.765168 1.549661 L 16.017911 3.613551 " transform="matrix(9.185396,0,-0.000015268,-9.168066,961.521539,342.848024)"/>
</g>
</g>
<g clip-path="url(#clip39)" clip-rule="nonzero">
<g clip-path="url(#clip40)" clip-rule="nonzero">
<path style="fill:none;stroke-width:0.2948;stroke-linecap:round;stroke-linejoin:round;stroke:rgb(0%,0%,0%);stroke-opacity:1;stroke-miterlimit:10;" d="M 16.017911 3.613551 L 20.765175 5.677014 " transform="matrix(9.185396,0,-0.000015268,-9.168066,961.521539,342.848024)"/>
</g>
</g>
<g clip-path="url(#clip41)" clip-rule="nonzero">
<g clip-path="url(#clip42)" clip-rule="nonzero">
<path style=" stroke:none;fill-rule:evenodd;fill:rgb(0%,0%,0%);fill-opacity:1;" d="M 1152.257812 327.289062 C 1153 327.289062 1153.605469 327.894531 1153.605469 328.640625 C 1153.605469 329.386719 1153 329.992188 1152.257812 329.992188 C 1151.503906 329.992188 1150.898438 329.386719 1150.898438 328.640625 C 1150.898438 327.894531 1151.503906 327.289062 1152.257812 327.289062 Z M 1152.257812 327.289062 "/>
</g>
</g>
<g clip-path="url(#clip43)" clip-rule="nonzero">
<g clip-path="url(#clip44)" clip-rule="nonzero">
<path style=" stroke:none;fill-rule:evenodd;fill:rgb(0%,0%,0%);fill-opacity:1;" d="M 1108.652344 308.367188 C 1109.40625 308.367188 1110.011719 308.972656 1110.011719 309.71875 C 1110.011719 310.46875 1109.40625 311.070312 1108.652344 311.070312 C 1107.910156 311.070312 1107.304688 310.46875 1107.304688 309.71875 C 1107.304688 308.972656 1107.910156 308.367188 1108.652344 308.367188 Z M 1108.652344 308.367188 "/>
</g>
</g>
<g clip-path="url(#clip45)" clip-rule="nonzero">
<g clip-path="url(#clip46)" clip-rule="nonzero">
<path style=" stroke:none;fill-rule:evenodd;fill:rgb(0%,0%,0%);fill-opacity:1;" d="M 1152.257812 289.449219 C 1153 289.449219 1153.605469 290.054688 1153.605469 290.800781 C 1153.605469 291.546875 1153 292.152344 1152.257812 292.152344 C 1151.503906 292.152344 1150.898438 291.546875 1150.898438 290.800781 C 1150.898438 290.054688 1151.503906 289.449219 1152.257812 289.449219 Z M 1152.257812 289.449219 "/>
</g>
</g>
<g clip-path="url(#clip47)" clip-rule="nonzero">
<g clip-path="url(#clip48)" clip-rule="nonzero">
<path style=" stroke:none;fill-rule:evenodd;fill:rgb(0%,0%,0%);fill-opacity:1;" d="M 1214.3125 300.09375 C 1215.019531 300.710938 1215.46875 301.578125 1215.671875 302.699219 C 1215.71875 303.273438 1215.746094 303.867188 1215.746094 304.480469 C 1215.746094 305.035156 1215.71875 305.582031 1215.671875 306.128906 C 1215.535156 307.363281 1215.3125 308.625 1215.011719 309.910156 C 1214.707031 311.195312 1214.414062 312.359375 1214.148438 313.386719 C 1213.597656 315.480469 1212.832031 317.554688 1211.859375 319.609375 C 1210.886719 321.667969 1209.710938 323.519531 1208.34375 325.167969 C 1206.964844 326.820312 1205.402344 328.167969 1203.640625 329.210938 C 1201.886719 330.253906 1199.964844 330.777344 1197.90625 330.777344 C 1195.703125 330.777344 1194.085938 330.144531 1193.066406 328.878906 C 1192.046875 327.617188 1191.460938 326.335938 1191.292969 325.035156 C 1190.367188 326.445312 1189.027344 327.753906 1187.28125 328.964844 C 1185.535156 330.171875 1183.53125 330.777344 1181.292969 330.777344 C 1179.242188 330.777344 1177.652344 330.226562 1176.503906 329.128906 C 1175.359375 328.027344 1174.59375 326.644531 1174.210938 324.96875 C 1173.933594 323.871094 1173.785156 322.652344 1173.757812 321.308594 C 1173.757812 320.671875 1173.785156 320.03125 1173.832031 319.394531 C 1174.015625 317.351562 1174.367188 315.304688 1174.890625 313.257812 C 1175.476562 311.082031 1176.292969 308.960938 1177.339844 306.890625 C 1178.390625 304.824219 1179.628906 302.832031 1181.078125 300.917969 C 1181.308594 300.589844 1181.605469 300.382812 1181.972656 300.289062 L 1182.210938 300.289062 C 1182.382812 300.292969 1182.566406 300.324219 1182.75 300.390625 C 1183.046875 300.523438 1183.230469 300.753906 1183.292969 301.082031 L 1183.292969 301.246094 C 1183.292969 301.449219 1183.210938 301.679688 1183.027344 301.941406 C 1181.703125 303.789062 1180.546875 305.664062 1179.554688 307.566406 C 1178.554688 309.472656 1177.800781 311.410156 1177.304688 313.386719 C 1176.902344 314.910156 1176.6875 316.359375 1176.6875 317.742188 L 1176.761719 317.808594 C 1176.761719 319.351562 1176.984375 320.660156 1177.425781 321.738281 C 1177.863281 322.816406 1178.507812 323.667969 1179.363281 324.292969 C 1180.214844 324.921875 1181.273438 325.234375 1182.550781 325.234375 C 1184.25 325.234375 1185.855469 324.734375 1187.363281 323.734375 C 1188.878906 322.734375 1190.15625 321.417969 1191.191406 319.789062 C 1191.285156 318.757812 1191.449219 317.6875 1191.6875 316.574219 C 1191.929688 315.464844 1192.183594 314.359375 1192.453125 313.257812 C 1192.496094 313.082031 1192.570312 312.804688 1192.679688 312.417969 C 1192.78125 312.035156 1192.929688 311.65625 1193.140625 311.28125 C 1193.34375 310.90625 1193.617188 310.550781 1193.957031 310.207031 C 1194.296875 309.867188 1194.777344 309.695312 1195.382812 309.695312 C 1195.96875 309.695312 1196.390625 309.882812 1196.632812 310.257812 C 1196.871094 310.632812 1196.980469 311.027344 1196.980469 311.441406 C 1196.980469 311.816406 1196.941406 312.191406 1196.851562 312.566406 C 1196.757812 312.941406 1196.6875 313.214844 1196.640625 313.386719 C 1196.375 314.535156 1196.023438 315.679688 1195.601562 316.820312 C 1195.1875 317.96875 1194.738281 319.054688 1194.261719 320.085938 C 1194.445312 321.582031 1194.921875 322.816406 1195.703125 323.78125 C 1196.492188 324.753906 1197.632812 325.234375 1199.128906 325.234375 C 1200.515625 325.234375 1201.875 324.910156 1203.21875 324.261719 C 1204.558594 323.613281 1205.789062 322.746094 1206.925781 321.65625 C 1208.058594 320.566406 1209.039062 319.292969 1209.867188 317.828125 C 1210.703125 316.367188 1211.308594 314.84375 1211.695312 313.257812 C 1211.914062 312.421875 1212.042969 311.597656 1212.0625 310.78125 C 1212.0625 310.035156 1211.960938 309.320312 1211.757812 308.636719 C 1211.328125 307.1875 1210.554688 305.96875 1209.445312 304.976562 C 1208.855469 304.492188 1208.5625 303.921875 1208.5625 303.261719 C 1208.5625 303.085938 1208.582031 302.933594 1208.628906 302.796875 C 1208.78125 302.007812 1209.160156 301.320312 1209.738281 300.738281 C 1210.316406 300.15625 1211.023438 299.742188 1211.859375 299.5 C 1212.089844 299.457031 1212.320312 299.433594 1212.539062 299.433594 C 1213.203125 299.433594 1213.789062 299.65625 1214.3125 300.09375 Z M 1214.3125 300.09375 "/>
</g>
</g>
<path style=" stroke:none;fill-rule:evenodd;fill:rgb(0%,0%,0%);fill-opacity:1;" d="M 338.925781 181.8125 C 338.460938 181.816406 338.230469 181.390625 338.230469 180.527344 C 338.230469 179.902344 338.300781 179.519531 338.4375 179.378906 C 338.527344 179.292969 338.902344 179.160156 339.554688 178.972656 C 343.832031 177.941406 347.175781 175.847656 349.59375 172.6875 C 351.640625 170.214844 352.9375 167.511719 353.496094 164.582031 C 353.636719 163.773438 353.796875 163.28125 353.984375 163.09375 C 354.128906 162.964844 354.289062 162.894531 354.476562 162.894531 C 354.894531 162.894531 355.148438 163.121094 355.242188 163.570312 L 355.449219 164.648438 C 356.242188 168.167969 357.894531 171.226562 360.398438 173.839844 C 362.957031 176.457031 365.957031 178.167969 369.394531 178.972656 C 370.042969 179.160156 370.417969 179.292969 370.507812 179.378906 C 370.648438 179.519531 370.71875 179.902344 370.71875 180.527344 C 370.71875 181.429688 370.488281 181.882812 370.023438 181.878906 C 369.742188 181.882812 369.398438 181.816406 368.972656 181.675781 C 363.585938 180.238281 359.378906 177.335938 356.355469 172.960938 L 355.867188 172.285156 L 355.867188 224.039062 L 356.359375 223.363281 C 358.5 220.214844 361.402344 217.78125 365.074219 216.066406 C 367.308594 215.035156 368.957031 214.519531 370.023438 214.511719 C 370.488281 214.519531 370.71875 214.945312 370.71875 215.796875 C 370.71875 216.429688 370.648438 216.8125 370.507812 216.945312 C 370.417969 217.039062 370.042969 217.171875 369.394531 217.351562 C 365.90625 218.207031 362.910156 219.945312 360.398438 222.554688 C 357.894531 225.121094 356.242188 228.164062 355.449219 231.675781 L 355.242188 232.757812 C 355.148438 233.207031 354.894531 233.433594 354.476562 233.433594 C 354.289062 233.433594 354.128906 233.363281 353.984375 233.230469 C 353.796875 233.050781 353.636719 232.53125 353.496094 231.675781 C 352.523438 226.945312 350.269531 223.34375 346.734375 220.863281 C 344.503906 219.15625 342.109375 217.984375 339.554688 217.351562 C 338.902344 217.171875 338.527344 217.039062 338.4375 216.945312 C 338.300781 216.8125 338.230469 216.429688 338.230469 215.796875 C 338.230469 214.902344 338.460938 214.449219 338.925781 214.445312 C 339.207031 214.449219 339.554688 214.519531 339.972656 214.648438 C 345.363281 216.09375 349.570312 218.996094 352.59375 223.363281 L 353.078125 224.039062 L 353.078125 172.285156 L 352.59375 172.960938 C 350.457031 176.117188 347.574219 178.550781 343.945312 180.257812 C 341.621094 181.296875 339.949219 181.816406 338.925781 181.8125 Z M 338.925781 181.8125 "/>
<path style=" stroke:none;fill-rule:evenodd;fill:rgb(0%,0%,0%);fill-opacity:1;" d="M 605.09375 182.4375 C 604.628906 182.441406 604.394531 182.015625 604.394531 181.15625 C 604.394531 180.53125 604.46875 180.144531 604.601562 180.007812 C 604.695312 179.921875 605.070312 179.789062 605.71875 179.601562 C 609.996094 178.570312 613.34375 176.476562 615.757812 173.316406 C 617.808594 170.84375 619.105469 168.140625 619.664062 165.210938 C 619.804688 164.402344 619.964844 163.910156 620.152344 163.722656 C 620.296875 163.59375 620.457031 163.523438 620.640625 163.519531 C 621.0625 163.523438 621.316406 163.75 621.40625 164.195312 L 621.613281 165.277344 C 622.410156 168.796875 624.058594 171.855469 626.566406 174.464844 C 629.125 177.085938 632.125 178.792969 635.558594 179.601562 C 636.210938 179.789062 636.582031 179.921875 636.675781 180.007812 C 636.816406 180.144531 636.882812 180.53125 636.882812 181.15625 C 636.882812 182.058594 636.65625 182.511719 636.191406 182.507812 C 635.910156 182.511719 635.5625 182.441406 635.140625 182.304688 C 629.75 180.867188 625.546875 177.960938 622.523438 173.589844 L 622.035156 172.914062 L 622.035156 224.667969 L 622.523438 223.992188 C 624.664062 220.84375 627.566406 218.410156 631.238281 216.695312 C 633.472656 215.664062 635.125 215.144531 636.191406 215.140625 C 636.65625 215.144531 636.882812 215.570312 636.882812 216.425781 C 636.882812 217.058594 636.816406 217.4375 636.675781 217.574219 C 636.582031 217.667969 636.210938 217.800781 635.558594 217.980469 C 632.074219 218.835938 629.078125 220.570312 626.566406 223.183594 C 624.058594 225.75 622.410156 228.789062 621.613281 232.304688 L 621.40625 233.382812 C 621.316406 233.835938 621.0625 234.058594 620.640625 234.058594 C 620.457031 234.058594 620.296875 233.992188 620.152344 233.855469 C 619.964844 233.679688 619.804688 233.160156 619.664062 232.304688 C 618.691406 227.574219 616.4375 223.972656 612.898438 221.492188 C 610.671875 219.78125 608.273438 218.613281 605.71875 217.980469 C 605.070312 217.800781 604.695312 217.667969 604.601562 217.574219 C 604.46875 217.4375 604.394531 217.058594 604.394531 216.425781 C 604.394531 215.53125 604.628906 215.078125 605.09375 215.074219 C 605.375 215.078125 605.71875 215.144531 606.140625 215.277344 C 611.527344 216.71875 615.738281 219.625 618.757812 223.992188 L 619.246094 224.667969 L 619.246094 172.914062 L 618.757812 173.589844 C 616.625 176.746094 613.742188 179.179688 610.113281 180.882812 C 607.789062 181.925781 606.117188 182.441406 605.09375 182.4375 Z M 605.09375 182.4375 "/>
<path style=" stroke:none;fill-rule:evenodd;fill:rgb(0%,0%,0%);fill-opacity:1;" d="M 845.160156 182.4375 C 844.695312 182.441406 844.460938 182.015625 844.460938 181.15625 C 844.460938 180.53125 844.535156 180.144531 844.667969 180.007812 C 844.761719 179.921875 845.136719 179.789062 845.785156 179.601562 C 850.0625 178.570312 853.410156 176.476562 855.828125 173.316406 C 857.875 170.84375 859.171875 168.140625 859.730469 165.210938 C 859.871094 164.402344 860.03125 163.910156 860.21875 163.722656 C 860.363281 163.59375 860.523438 163.523438 860.710938 163.519531 C 861.128906 163.523438 861.382812 163.75 861.472656 164.195312 L 861.683594 165.277344 C 862.476562 168.796875 864.128906 171.855469 866.632812 174.464844 C 869.191406 177.085938 872.191406 178.792969 875.625 179.601562 C 876.277344 179.789062 876.652344 179.921875 876.742188 180.007812 C 876.882812 180.144531 876.949219 180.53125 876.949219 181.15625 C 876.949219 182.058594 876.722656 182.511719 876.257812 182.507812 C 875.976562 182.511719 875.632812 182.441406 875.207031 182.304688 C 869.816406 180.867188 865.613281 177.960938 862.589844 173.589844 L 862.101562 172.914062 L 862.101562 224.667969 L 862.589844 223.992188 C 864.730469 220.84375 867.632812 218.410156 871.308594 216.695312 C 873.539062 215.664062 875.191406 215.144531 876.257812 215.140625 C 876.722656 215.144531 876.949219 215.570312 876.949219 216.425781 C 876.949219 217.058594 876.882812 217.4375 876.742188 217.574219 C 876.652344 217.667969 876.277344 217.800781 875.625 217.980469 C 872.140625 218.835938 869.144531 220.570312 866.632812 223.183594 C 864.128906 225.75 862.476562 228.789062 861.683594 232.304688 L 861.472656 233.382812 C 861.382812 233.835938 861.128906 234.058594 860.710938 234.058594 C 860.523438 234.058594 860.363281 233.992188 860.21875 233.855469 C 860.03125 233.679688 859.871094 233.160156 859.730469 232.304688 C 858.757812 227.574219 856.503906 223.972656 852.964844 221.492188 C 850.738281 219.78125 848.34375 218.613281 845.785156 217.980469 C 845.136719 217.800781 844.761719 217.667969 844.671875 217.574219 C 844.535156 217.4375 844.460938 217.058594 844.460938 216.425781 C 844.460938 215.53125 844.695312 215.078125 845.160156 215.074219 C 845.441406 215.078125 845.785156 215.144531 846.207031 215.277344 C 851.597656 216.71875 855.804688 219.625 858.828125 223.992188 L 859.3125 224.667969 L 859.3125 172.914062 L 858.828125 173.589844 C 856.691406 176.746094 853.808594 179.179688 850.179688 180.882812 C 847.855469 181.925781 846.183594 182.441406 845.160156 182.4375 Z M 845.160156 182.4375 "/>
</g>
</svg>
