<?xml version="1.0" encoding="UTF-8"?>
<svg xmlns="http://www.w3.org/2000/svg" xmlns:xlink="http://www.w3.org/1999/xlink" width="1391.04pt" height="408pt" viewBox="0 0 1391.04 408" version="1.2">
<defs>
<clipPath id="clip1">
  <path d="M 39.507812 321 L 84 321 L 84 355 L 39.507812 355 Z M 39.507812 321 "/>
</clipPath>
<clipPath id="clip2">
  <path d="M 830.546875 304 L 862 304 L 862 354 L 830.546875 354 Z M 830.546875 304 "/>
</clipPath>
<clipPath id="clip3">
  <path d="M 1094.441406 304 L 1127 304 L 1127 356 L 1094.441406 356 Z M 1094.441406 304 "/>
</clipPath>
<clipPath id="clip4">
  <path d="M 1220 331 L 1269 331 L 1269 354 L 1220 354 Z M 1220 331 "/>
</clipPath>
<clipPath id="clip5">
  <path d="M 1215.460938 367.238281 L 1354.214844 367.238281 L 1354.214844 304.832031 L 1215.457031 304.832031 Z M 1215.460938 367.238281 "/>
</clipPath>
<clipPath id="clip6">
  <path d="M 1220 311 L 1269 311 L 1269 335 L 1220 335 Z M 1220 311 "/>
</clipPath>
<clipPath id="clip7">
  <path d="M 1215.460938 367.238281 L 1354.214844 367.238281 L 1354.214844 304.832031 L 1215.457031 304.832031 Z M 1215.460938 367.238281 "/>
</clipPath>
<clipPath id="clip8">
  <path d="M 1266 351 L 1269 351 L 1269 354 L 1266 354 Z M 1266 351 "/>
</clipPath>
<clipPath id="clip9">
  <path d="M 1215.460938 367.238281 L 1354.214844 367.238281 L 1354.214844 304.832031 L 1215.457031 304.832031 Z M 1215.460938 367.238281 "/>
</clipPath>
<clipPath id="clip10">
  <path d="M 1220 331 L 1224 331 L 1224 335 L 1220 335 Z M 1220 331 "/>
</clipPath>
<clipPath id="clip11">
  <path d="M 1215.460938 367.238281 L 1354.214844 367.238281 L 1354.214844 304.832031 L 1215.457031 304.832031 Z M 1215.460938 367.238281 "/>
</clipPath>
<clipPath id="clip12">
  <path d="M 1266 311 L 1269 311 L 1269 315 L 1266 315 Z M 1266 311 "/>
</clipPath>
<clipPath id="clip13">
  <path d="M 1215.460938 367.238281 L 1354.214844 367.238281 L 1354.214844 304.832031 L 1215.457031 304.832031 Z M 1215.460938 367.238281 "/>
</clipPath>
<clipPath id="clip14">
  <path d="M 1313 328 L 1323 328 L 1323 338 L 1313 338 Z M 1313 328 "/>
</clipPath>
<clipPath id="clip15">
  <path d="M 1215.460938 367.238281 L 1354.214844 367.238281 L 1354.214844 304.832031 L 1215.457031 304.832031 Z M 1215.460938 367.238281 "/>
</clipPath>
<clipPath id="clip16">
  <path d="M 1291 328 L 1301 328 L 1301 338 L 1291 338 Z M 1291 328 "/>
</clipPath>
<clipPath id="clip17">
  <path d="M 1215.460938 367.238281 L 1354.214844 367.238281 L 1354.214844 304.832031 L 1215.457031 304.832031 Z M 1215.460938 367.238281 "/>
</clipPath>
<clipPath id="clip18">
  <path d="M 1336 328 L 1345 328 L 1345 338 L 1336 338 Z M 1336 328 "/>
</clipPath>
<clipPath id="clip19">
  <path d="M 1215.460938 367.238281 L 1354.214844 367.238281 L 1354.214844 304.832031 L 1215.457031 304.832031 Z M 1215.460938 367.238281 "/>
</clipPath>
</defs>
<g id="surface1">
<path style=" stroke:none;fill-rule:evenodd;fill:rgb(0%,0%,0%);fill-opacity:1;" d="M 249.984375 124.976562 C 250.132812 125.355469 250.117188 125.714844 249.949219 126.066406 C 249.78125 126.421875 249.5 126.667969 249.113281 126.808594 C 248.726562 126.949219 248.347656 126.941406 247.988281 126.773438 C 247.625 126.609375 247.371094 126.339844 247.222656 125.960938 L 233.988281 92.144531 C 233.890625 91.867188 233.890625 91.539062 233.988281 91.15625 L 247.222656 57.339844 C 247.371094 56.972656 247.625 56.703125 247.988281 56.535156 C 248.347656 56.371094 248.726562 56.359375 249.113281 56.5 C 249.5 56.640625 249.78125 56.886719 249.949219 57.238281 C 250.117188 57.589844 250.132812 57.957031 249.984375 58.328125 L 236.972656 91.652344 Z M 249.984375 124.976562 "/>
<path style=" stroke:none;fill-rule:evenodd;fill:rgb(0%,0%,0%);fill-opacity:1;" d="M 291.097656 85.894531 C 291.097656 89.132812 290.871094 92.355469 290.417969 95.554688 C 289.964844 98.757812 288.847656 101.765625 287.0625 104.574219 C 285.785156 106.621094 284.082031 108.191406 281.949219 109.292969 C 279.816406 110.394531 277.496094 110.945312 274.992188 110.945312 C 272.578125 110.945312 270.300781 110.394531 268.15625 109.292969 C 266.011719 108.191406 264.300781 106.621094 263.023438 104.574219 C 261.242188 101.765625 260.121094 98.757812 259.667969 95.554688 C 259.21875 92.355469 258.988281 89.132812 258.988281 85.894531 C 258.988281 82.617188 259.21875 79.339844 259.667969 76.070312 C 260.121094 72.800781 261.242188 69.738281 263.023438 66.882812 C 264.300781 64.816406 266.003906 63.207031 268.136719 62.0625 C 270.269531 60.917969 272.554688 60.34375 274.992188 60.339844 C 277.472656 60.34375 279.785156 60.917969 281.929688 62.0625 C 284.074219 63.207031 285.785156 64.816406 287.0625 66.882812 C 288.847656 69.738281 289.964844 72.800781 290.417969 76.070312 C 290.871094 79.339844 291.097656 82.617188 291.097656 85.894531 Z M 284.207031 84.714844 C 284.207031 83.300781 284.195312 81.808594 284.175781 80.234375 C 284.152344 78.660156 284.09375 77.121094 284 75.613281 C 283.90625 74.109375 283.742188 72.6875 283.496094 71.351562 C 283.253906 70.015625 282.957031 68.871094 282.609375 67.925781 C 281.914062 66.402344 280.894531 65.148438 279.546875 64.167969 C 278.203125 63.191406 276.683594 62.703125 274.992188 62.703125 C 273.34375 62.703125 271.855469 63.199219 270.519531 64.1875 C 269.1875 65.175781 268.171875 66.421875 267.476562 67.925781 C 267.128906 68.871094 266.835938 70.015625 266.589844 71.351562 C 266.347656 72.6875 266.179688 74.109375 266.085938 75.613281 C 265.992188 77.121094 265.933594 78.660156 265.914062 80.234375 C 265.890625 81.808594 265.875 83.300781 265.875 84.714844 C 265.875 86.292969 265.890625 87.949219 265.914062 89.691406 C 265.933594 91.433594 265.992188 93.117188 266.085938 94.746094 C 266.179688 96.378906 266.347656 97.921875 266.589844 99.382812 C 266.835938 100.84375 267.128906 102.070312 267.476562 103.054688 C 268.125 104.699219 269.132812 106.046875 270.488281 107.101562 C 271.84375 108.160156 273.34375 108.6875 274.992188 108.6875 C 276.707031 108.6875 278.242188 108.160156 279.597656 107.101562 C 280.957031 106.046875 281.960938 104.699219 282.609375 103.054688 C 282.957031 102.070312 283.253906 100.84375 283.496094 99.382812 C 283.742188 97.921875 283.90625 96.378906 284 94.746094 C 284.09375 93.117188 284.152344 91.433594 284.175781 89.691406 C 284.195312 87.949219 284.207031 86.292969 284.207031 84.714844 Z M 284.207031 84.714844 "/>
<path style=" stroke:none;fill-rule:evenodd;fill:rgb(0%,0%,0%);fill-opacity:1;" d="M 315.675781 109.09375 C 315.675781 111.777344 315.125 114.3125 314.023438 116.695312 C 312.925781 119.082031 311.378906 121.191406 309.390625 123.027344 C 309.179688 123.164062 308.945312 123.230469 308.679688 123.230469 C 308.492188 123.230469 308.246094 123.164062 307.9375 123.027344 L 307.757812 122.75 C 307.570312 122.566406 307.472656 122.363281 307.472656 122.132812 C 307.472656 121.925781 307.570312 121.683594 307.757812 121.410156 C 309.558594 119.757812 310.9375 117.878906 311.894531 115.769531 C 312.855469 113.65625 313.332031 111.433594 313.332031 109.09375 C 313.332031 108.933594 313.320312 108.757812 313.296875 108.5625 C 313.273438 108.367188 313.261719 108.488281 313.261719 108.921875 C 312.882812 109.359375 312.007812 109.574219 310.636719 109.574219 C 309.261719 109.574219 308.222656 109.152344 307.511719 108.304688 C 306.800781 107.457031 306.445312 106.515625 306.445312 105.480469 C 306.445312 104.449219 306.800781 103.519531 307.511719 102.679688 C 308.222656 101.84375 309.261719 101.425781 310.636719 101.421875 C 311.652344 101.425781 312.480469 101.683594 313.117188 102.199219 C 313.757812 102.714844 314.265625 103.339844 314.644531 104.074219 C 315.027344 104.808594 315.289062 105.621094 315.441406 106.515625 C 315.597656 107.410156 315.675781 108.269531 315.675781 109.09375 Z M 315.675781 109.09375 "/>
<path style=" stroke:none;fill-rule:evenodd;fill:rgb(0%,0%,0%);fill-opacity:1;" d="M 369.460938 85.894531 C 369.460938 89.132812 369.230469 92.355469 368.78125 95.554688 C 368.332031 98.757812 367.210938 101.765625 365.429688 104.574219 C 364.152344 106.621094 362.441406 108.191406 360.3125 109.292969 C 358.175781 110.394531 355.859375 110.945312 353.351562 110.945312 C 350.945312 110.945312 348.667969 110.394531 346.519531 109.292969 C 344.375 108.191406 342.660156 106.621094 341.386719 104.574219 C 339.605469 101.765625 338.484375 98.757812 338.035156 95.554688 C 337.585938 92.355469 337.355469 89.132812 337.355469 85.894531 C 337.355469 82.617188 337.585938 79.339844 338.035156 76.070312 C 338.484375 72.800781 339.605469 69.738281 341.386719 66.882812 C 342.660156 64.816406 344.367188 63.207031 346.5 62.0625 C 348.636719 60.917969 350.917969 60.34375 353.351562 60.339844 C 355.839844 60.34375 358.148438 60.917969 360.292969 62.0625 C 362.441406 63.207031 364.152344 64.816406 365.429688 66.882812 C 367.210938 69.738281 368.332031 72.800781 368.78125 76.070312 C 369.230469 79.339844 369.460938 82.617188 369.460938 85.894531 Z M 362.574219 84.714844 C 362.574219 83.300781 362.5625 81.808594 362.535156 80.234375 C 362.515625 78.660156 362.457031 77.121094 362.363281 75.613281 C 362.265625 74.109375 362.105469 72.6875 361.855469 71.351562 C 361.617188 70.015625 361.320312 68.871094 360.972656 67.925781 C 360.273438 66.402344 359.257812 65.148438 357.910156 64.167969 C 356.566406 63.191406 355.046875 62.703125 353.351562 62.703125 C 351.703125 62.703125 350.21875 63.199219 348.886719 64.1875 C 347.554688 65.175781 346.539062 66.421875 345.839844 67.925781 C 345.496094 68.871094 345.199219 70.015625 344.949219 71.351562 C 344.710938 72.6875 344.539062 74.109375 344.453125 75.613281 C 344.355469 77.121094 344.300781 78.660156 344.28125 80.234375 C 344.25 81.808594 344.242188 83.300781 344.242188 84.714844 C 344.242188 86.292969 344.25 87.949219 344.28125 89.691406 C 344.300781 91.433594 344.355469 93.117188 344.453125 94.746094 C 344.539062 96.378906 344.710938 97.921875 344.949219 99.382812 C 345.199219 100.84375 345.496094 102.070312 345.839844 103.054688 C 346.492188 104.699219 347.496094 106.046875 348.847656 107.101562 C 350.207031 108.160156 351.703125 108.6875 353.351562 108.6875 C 355.074219 108.6875 356.605469 108.160156 357.964844 107.101562 C 359.316406 106.046875 360.324219 104.699219 360.972656 103.054688 C 361.320312 102.070312 361.617188 100.84375 361.855469 99.382812 C 362.105469 97.921875 362.265625 96.378906 362.363281 94.746094 C 362.457031 93.117188 362.515625 91.433594 362.535156 89.691406 C 362.5625 87.949219 362.574219 86.292969 362.574219 84.714844 Z M 362.574219 84.714844 "/>
<path style=" stroke:none;fill-rule:evenodd;fill:rgb(0%,0%,0%);fill-opacity:1;" d="M 381.019531 125.960938 C 380.878906 126.339844 380.628906 126.609375 380.292969 126.773438 C 379.957031 126.941406 379.585938 126.949219 379.199219 126.808594 C 378.808594 126.667969 378.53125 126.421875 378.359375 126.066406 C 378.195312 125.714844 378.1875 125.355469 378.328125 124.976562 L 391.347656 91.652344 L 378.328125 58.328125 C 378.1875 57.957031 378.195312 57.589844 378.359375 57.238281 C 378.53125 56.886719 378.808594 56.640625 379.199219 56.5 C 379.585938 56.359375 379.957031 56.371094 380.292969 56.535156 C 380.628906 56.703125 380.878906 56.972656 381.019531 57.339844 L 394.25 91.15625 C 394.390625 91.445312 394.390625 91.773438 394.25 92.144531 Z M 381.019531 125.960938 "/>
<path style="fill:none;stroke-width:0.2948;stroke-linecap:round;stroke-linejoin:round;stroke:rgb(0%,0%,0%);stroke-opacity:1;stroke-miterlimit:10;" d="M 25.249925 2.5173 L 20.503946 4.58087 " transform="matrix(9.578008,0,-0.00000325831,-9.559434,229.449002,132.270991)"/>
<path style="fill:none;stroke-width:0.2948;stroke-linecap:round;stroke-linejoin:round;stroke:rgb(0%,0%,0%);stroke-opacity:1;stroke-miterlimit:10;" d="M 20.503946 4.58087 L 25.249927 6.64444 " transform="matrix(9.578008,0,-0.00000325831,-9.559434,229.449002,132.270991)"/>
<path style=" stroke:none;fill-rule:evenodd;fill:rgb(0%,0%,0%);fill-opacity:1;" d="M 471.292969 106.800781 C 472.078125 106.800781 472.710938 107.429688 472.710938 108.207031 C 472.710938 108.984375 472.078125 109.617188 471.292969 109.617188 C 470.519531 109.617188 469.886719 108.984375 469.886719 108.207031 C 469.886719 107.429688 470.519531 106.800781 471.292969 106.800781 Z M 471.292969 106.800781 "/>
<path style=" stroke:none;fill-rule:evenodd;fill:rgb(0%,0%,0%);fill-opacity:1;" d="M 425.835938 87.070312 C 426.613281 87.070312 427.246094 87.703125 427.246094 88.480469 C 427.246094 89.257812 426.613281 89.890625 425.835938 89.890625 C 425.050781 89.890625 424.417969 89.257812 424.417969 88.480469 C 424.417969 87.703125 425.050781 87.070312 425.835938 87.070312 Z M 425.835938 87.070312 "/>
<path style=" stroke:none;fill-rule:evenodd;fill:rgb(0%,0%,0%);fill-opacity:1;" d="M 471.292969 67.34375 C 472.078125 67.34375 472.710938 67.976562 472.710938 68.753906 C 472.710938 69.53125 472.078125 70.164062 471.292969 70.164062 C 470.519531 70.164062 469.886719 69.53125 469.886719 68.753906 C 469.886719 67.976562 470.519531 67.34375 471.292969 67.34375 Z M 471.292969 67.34375 "/>
<path style=" stroke:none;fill-rule:evenodd;fill:rgb(0%,0%,0%);fill-opacity:1;" d="M 518.894531 124.976562 C 519.050781 125.355469 519.03125 125.714844 518.867188 126.066406 C 518.695312 126.421875 518.417969 126.667969 518.023438 126.808594 C 517.640625 126.949219 517.257812 126.941406 516.902344 126.773438 C 516.539062 126.609375 516.28125 126.339844 516.136719 125.960938 L 502.902344 92.144531 C 502.804688 91.867188 502.804688 91.539062 502.902344 91.15625 L 516.136719 57.339844 C 516.28125 56.972656 516.539062 56.703125 516.902344 56.535156 C 517.257812 56.371094 517.640625 56.359375 518.023438 56.5 C 518.417969 56.640625 518.695312 56.886719 518.867188 57.238281 C 519.03125 57.589844 519.050781 57.957031 518.894531 58.328125 L 505.878906 91.652344 Z M 518.894531 124.976562 "/>
<path style=" stroke:none;fill-rule:evenodd;fill:rgb(0%,0%,0%);fill-opacity:1;" d="M 560.003906 85.894531 C 560.003906 89.132812 559.785156 92.355469 559.335938 95.554688 C 558.882812 98.757812 557.765625 101.765625 555.972656 104.574219 C 554.699219 106.621094 552.992188 108.191406 550.859375 109.292969 C 548.730469 110.394531 546.414062 110.945312 543.90625 110.945312 C 541.492188 110.945312 539.210938 110.394531 537.066406 109.292969 C 534.921875 108.191406 533.214844 106.621094 531.941406 104.574219 C 530.152344 101.765625 529.039062 98.757812 528.578125 95.554688 C 528.128906 92.355469 527.898438 89.132812 527.898438 85.894531 C 527.898438 82.617188 528.128906 79.339844 528.578125 76.070312 C 529.039062 72.800781 530.152344 69.738281 531.941406 66.882812 C 533.214844 64.816406 534.921875 63.207031 537.046875 62.0625 C 539.183594 60.917969 541.472656 60.34375 543.90625 60.339844 C 546.386719 60.34375 548.695312 60.917969 550.839844 62.0625 C 552.984375 63.207031 554.699219 64.816406 555.972656 66.882812 C 557.765625 69.738281 558.882812 72.800781 559.335938 76.070312 C 559.785156 79.339844 560.003906 82.617188 560.003906 85.894531 Z M 553.117188 84.714844 C 553.117188 83.300781 553.109375 81.808594 553.089844 80.234375 C 553.070312 78.660156 553.003906 77.121094 552.917969 75.613281 C 552.820312 74.109375 552.660156 72.6875 552.410156 71.351562 C 552.171875 70.015625 551.875 68.871094 551.519531 67.925781 C 550.828125 66.402344 549.804688 65.148438 548.464844 64.167969 C 547.113281 63.191406 545.601562 62.703125 543.90625 62.703125 C 542.257812 62.703125 540.773438 63.199219 539.429688 64.1875 C 538.101562 65.175781 537.085938 66.421875 536.386719 67.925781 C 536.039062 68.871094 535.742188 70.015625 535.503906 71.351562 C 535.265625 72.6875 535.09375 74.109375 534.996094 75.613281 C 534.902344 77.121094 534.851562 78.660156 534.824219 80.234375 C 534.804688 81.808594 534.785156 83.300781 534.785156 84.714844 C 534.785156 86.292969 534.804688 87.949219 534.824219 89.691406 C 534.851562 91.433594 534.902344 93.117188 534.996094 94.746094 C 535.09375 96.378906 535.265625 97.921875 535.503906 99.382812 C 535.742188 100.84375 536.039062 102.070312 536.386719 103.054688 C 537.039062 104.699219 538.042969 106.046875 539.402344 107.101562 C 540.753906 108.160156 542.257812 108.6875 543.90625 108.6875 C 545.617188 108.6875 547.160156 108.160156 548.511719 107.101562 C 549.871094 106.046875 550.867188 104.699219 551.519531 103.054688 C 551.875 102.070312 552.171875 100.84375 552.410156 99.382812 C 552.660156 97.921875 552.820312 96.378906 552.917969 94.746094 C 553.003906 93.117188 553.070312 91.433594 553.089844 89.691406 C 553.109375 87.949219 553.117188 86.292969 553.117188 84.714844 Z M 553.117188 84.714844 "/>
<path style=" stroke:none;fill-rule:evenodd;fill:rgb(0%,0%,0%);fill-opacity:1;" d="M 584.582031 109.09375 C 584.582031 111.777344 584.035156 114.3125 582.933594 116.695312 C 581.832031 119.082031 580.292969 121.191406 578.308594 123.027344 C 578.097656 123.164062 577.859375 123.230469 577.589844 123.230469 C 577.410156 123.230469 577.160156 123.164062 576.851562 123.027344 L 576.671875 122.75 C 576.480469 122.566406 576.382812 122.363281 576.382812 122.132812 C 576.382812 121.925781 576.480469 121.683594 576.671875 121.410156 C 578.472656 119.757812 579.851562 117.878906 580.808594 115.769531 C 581.765625 113.65625 582.246094 111.433594 582.246094 109.09375 C 582.246094 108.933594 582.234375 108.757812 582.207031 108.5625 C 582.1875 108.367188 582.179688 108.488281 582.179688 108.921875 C 581.796875 109.359375 580.921875 109.574219 579.542969 109.574219 C 578.175781 109.574219 577.140625 109.152344 576.421875 108.304688 C 575.714844 107.457031 575.359375 106.515625 575.359375 105.480469 C 575.359375 104.449219 575.714844 103.519531 576.421875 102.679688 C 577.140625 101.84375 578.175781 101.425781 579.542969 101.421875 C 580.570312 101.425781 581.394531 101.683594 582.035156 102.199219 C 582.675781 102.714844 583.183594 103.339844 583.558594 104.074219 C 583.941406 104.808594 584.199219 105.621094 584.351562 106.515625 C 584.515625 107.410156 584.582031 108.269531 584.582031 109.09375 Z M 584.582031 109.09375 "/>
<path style=" stroke:none;fill-rule:evenodd;fill:rgb(0%,0%,0%);fill-opacity:1;" d="M 635.242188 109.359375 C 630.976562 109.226562 626.820312 109.15625 622.789062 109.15625 C 618.757812 109.15625 614.601562 109.226562 610.335938 109.359375 L 610.335938 106.460938 L 612.742188 106.460938 C 613.5 106.460938 614.214844 106.453125 614.898438 106.429688 C 615.566406 106.40625 616.199219 106.351562 616.804688 106.261719 C 617.414062 106.171875 617.933594 106.082031 618.375 105.988281 C 618.746094 105.921875 619.054688 105.714844 619.292969 105.367188 C 619.53125 105.019531 619.65625 104.632812 619.65625 104.203125 L 619.65625 66.207031 C 618.5 66.773438 617.070312 67.199219 615.375 67.492188 C 613.691406 67.78125 611.832031 67.929688 609.8125 67.925781 L 609.8125 65.0625 C 612.597656 65.0625 615.164062 64.734375 617.519531 64.066406 C 619.878906 63.40625 621.90625 62.164062 623.621094 60.339844 L 624.703125 60.339844 C 625.472656 60.34375 625.855469 60.714844 625.855469 61.453125 L 625.855469 104.203125 C 625.855469 104.652344 625.96875 105.046875 626.199219 105.382812 C 626.429688 105.71875 626.765625 105.921875 627.203125 105.988281 C 627.578125 106.082031 628.058594 106.171875 628.632812 106.261719 C 629.214844 106.351562 629.867188 106.40625 630.59375 106.429688 C 631.332031 106.453125 632.042969 106.460938 632.742188 106.460938 L 635.242188 106.460938 Z M 635.242188 109.359375 "/>
<path style=" stroke:none;fill-rule:evenodd;fill:rgb(0%,0%,0%);fill-opacity:1;" d="M 649.933594 125.960938 C 649.789062 126.339844 649.539062 126.609375 649.207031 126.773438 C 648.871094 126.941406 648.507812 126.949219 648.113281 126.808594 C 647.730469 126.667969 647.453125 126.421875 647.28125 126.066406 C 647.109375 125.714844 647.097656 125.355469 647.242188 124.976562 L 660.257812 91.652344 L 647.242188 58.328125 C 647.097656 57.957031 647.109375 57.589844 647.28125 57.238281 C 647.453125 56.886719 647.730469 56.640625 648.113281 56.5 C 648.507812 56.359375 648.871094 56.371094 649.207031 56.535156 C 649.539062 56.703125 649.789062 56.972656 649.933594 57.339844 L 663.160156 91.15625 C 663.304688 91.445312 663.304688 91.773438 663.160156 92.144531 Z M 649.933594 125.960938 "/>
<path style="fill:none;stroke-width:0.2948;stroke-linecap:round;stroke-linejoin:round;stroke:rgb(0%,0%,0%);stroke-opacity:1;stroke-miterlimit:10;" d="M 53.326126 2.5173 L 48.580147 4.58087 " transform="matrix(9.578008,0,-0.00000325831,-9.559434,229.449002,132.270991)"/>
<path style="fill:none;stroke-width:0.2948;stroke-linecap:round;stroke-linejoin:round;stroke:rgb(0%,0%,0%);stroke-opacity:1;stroke-miterlimit:10;" d="M 48.580147 4.58087 L 53.326127 6.64444 " transform="matrix(9.578008,0,-0.00000325831,-9.559434,229.449002,132.270991)"/>
<path style=" stroke:none;fill-rule:evenodd;fill:rgb(0%,0%,0%);fill-opacity:1;" d="M 740.207031 106.800781 C 740.992188 106.800781 741.625 107.429688 741.625 108.207031 C 741.625 108.984375 740.992188 109.617188 740.207031 109.617188 C 739.429688 109.617188 738.796875 108.984375 738.796875 108.207031 C 738.796875 107.429688 739.429688 106.800781 740.207031 106.800781 Z M 740.207031 106.800781 "/>
<path style=" stroke:none;fill-rule:evenodd;fill:rgb(0%,0%,0%);fill-opacity:1;" d="M 694.75 87.070312 C 695.523438 87.070312 696.15625 87.703125 696.15625 88.480469 C 696.15625 89.257812 695.523438 89.890625 694.75 89.890625 C 693.972656 89.890625 693.339844 89.257812 693.339844 88.480469 C 693.339844 87.703125 693.972656 87.070312 694.75 87.070312 Z M 694.75 87.070312 "/>
<path style=" stroke:none;fill-rule:evenodd;fill:rgb(0%,0%,0%);fill-opacity:1;" d="M 740.207031 67.34375 C 740.992188 67.34375 741.625 67.976562 741.625 68.753906 C 741.625 69.53125 740.992188 70.164062 740.207031 70.164062 C 739.429688 70.164062 738.796875 69.53125 738.796875 68.753906 C 738.796875 67.976562 739.429688 67.34375 740.207031 67.34375 Z M 740.207031 67.34375 "/>
<path style=" stroke:none;fill-rule:evenodd;fill:rgb(0%,0%,0%);fill-opacity:1;" d="M 787.808594 124.976562 C 787.960938 125.355469 787.941406 125.714844 787.78125 126.066406 C 787.605469 126.421875 787.328125 126.667969 786.9375 126.808594 C 786.554688 126.949219 786.179688 126.941406 785.816406 126.773438 C 785.453125 126.609375 785.195312 126.339844 785.050781 125.960938 L 771.8125 92.144531 C 771.71875 91.867188 771.71875 91.539062 771.8125 91.15625 L 785.050781 57.339844 C 785.195312 56.972656 785.453125 56.703125 785.816406 56.535156 C 786.179688 56.371094 786.554688 56.359375 786.9375 56.5 C 787.328125 56.640625 787.605469 56.886719 787.78125 57.238281 C 787.941406 57.589844 787.960938 57.957031 787.808594 58.328125 L 774.800781 91.652344 Z M 787.808594 124.976562 "/>
<path style=" stroke:none;fill-rule:evenodd;fill:rgb(0%,0%,0%);fill-opacity:1;" d="M 822.164062 109.359375 C 817.894531 109.226562 813.746094 109.15625 809.714844 109.15625 C 805.671875 109.15625 801.523438 109.226562 797.261719 109.359375 L 797.261719 106.460938 L 799.65625 106.460938 C 800.421875 106.460938 801.140625 106.453125 801.8125 106.429688 C 802.492188 106.40625 803.125 106.351562 803.726562 106.261719 C 804.332031 106.171875 804.855469 106.082031 805.296875 105.988281 C 805.660156 105.921875 805.96875 105.714844 806.21875 105.367188 C 806.457031 105.019531 806.582031 104.632812 806.582031 104.203125 L 806.582031 66.207031 C 805.421875 66.773438 803.996094 67.199219 802.300781 67.492188 C 800.605469 67.78125 798.757812 67.929688 796.734375 67.925781 L 796.734375 65.0625 C 799.523438 65.0625 802.089844 64.734375 804.445312 64.066406 C 806.800781 63.40625 808.832031 62.164062 810.546875 60.339844 L 811.628906 60.339844 C 812.386719 60.34375 812.769531 60.714844 812.769531 61.453125 L 812.769531 104.203125 C 812.769531 104.652344 812.882812 105.046875 813.125 105.382812 C 813.351562 105.71875 813.6875 105.921875 814.128906 105.988281 C 814.503906 106.082031 814.980469 106.171875 815.554688 106.261719 C 816.128906 106.351562 816.792969 106.40625 817.519531 106.429688 C 818.246094 106.453125 818.964844 106.460938 819.664062 106.460938 L 822.164062 106.460938 Z M 822.164062 109.359375 "/>
<path style=" stroke:none;fill-rule:evenodd;fill:rgb(0%,0%,0%);fill-opacity:1;" d="M 849.882812 109.09375 C 849.882812 111.777344 849.328125 114.3125 848.226562 116.695312 C 847.132812 119.082031 845.582031 121.191406 843.601562 123.027344 C 843.390625 123.164062 843.148438 123.230469 842.882812 123.230469 C 842.699219 123.230469 842.449219 123.164062 842.144531 123.027344 L 841.960938 122.75 C 841.769531 122.566406 841.683594 122.363281 841.683594 122.132812 C 841.683594 121.925781 841.769531 121.683594 841.960938 121.410156 C 843.761719 119.757812 845.140625 117.878906 846.101562 115.769531 C 847.058594 113.65625 847.535156 111.433594 847.535156 109.09375 C 847.535156 108.933594 847.527344 108.757812 847.5 108.5625 C 847.480469 108.367188 847.46875 108.488281 847.46875 108.921875 C 847.085938 109.359375 846.214844 109.574219 844.835938 109.574219 C 843.464844 109.574219 842.433594 109.152344 841.714844 108.304688 C 841.003906 107.457031 840.648438 106.515625 840.648438 105.480469 C 840.648438 104.449219 841.003906 103.519531 841.714844 102.679688 C 842.433594 101.84375 843.464844 101.425781 844.835938 101.421875 C 845.859375 101.425781 846.683594 101.683594 847.328125 102.199219 C 847.96875 102.714844 848.476562 103.339844 848.847656 104.074219 C 849.230469 104.808594 849.5 105.621094 849.644531 106.515625 C 849.808594 107.410156 849.882812 108.269531 849.882812 109.09375 Z M 849.882812 109.09375 "/>
<path style=" stroke:none;fill-rule:evenodd;fill:rgb(0%,0%,0%);fill-opacity:1;" d="M 900.53125 109.359375 C 896.269531 109.226562 892.113281 109.15625 888.082031 109.15625 C 884.046875 109.15625 879.890625 109.226562 875.628906 109.359375 L 875.628906 106.460938 L 878.035156 106.460938 C 878.789062 106.460938 879.519531 106.453125 880.1875 106.429688 C 880.859375 106.40625 881.492188 106.351562 882.105469 106.261719 C 882.707031 106.171875 883.226562 106.082031 883.664062 105.988281 C 884.039062 105.921875 884.34375 105.714844 884.585938 105.367188 C 884.832031 105.019531 884.949219 104.632812 884.949219 104.203125 L 884.949219 66.207031 C 883.789062 66.773438 882.363281 67.199219 880.675781 67.492188 C 878.980469 67.78125 877.125 67.929688 875.113281 67.925781 L 875.113281 65.0625 C 877.890625 65.0625 880.457031 64.734375 882.8125 64.066406 C 885.167969 63.40625 887.199219 62.164062 888.914062 60.339844 L 889.996094 60.339844 C 890.761719 60.34375 891.144531 60.714844 891.144531 61.453125 L 891.144531 104.203125 C 891.144531 104.652344 891.261719 105.046875 891.492188 105.382812 C 891.71875 105.71875 892.054688 105.921875 892.496094 105.988281 C 892.871094 106.082031 893.347656 106.171875 893.921875 106.261719 C 894.507812 106.351562 895.160156 106.40625 895.886719 106.429688 C 896.625 106.453125 897.332031 106.460938 898.03125 106.460938 L 900.53125 106.460938 Z M 900.53125 109.359375 "/>
<path style=" stroke:none;fill-rule:evenodd;fill:rgb(0%,0%,0%);fill-opacity:1;" d="M 915.226562 125.960938 C 915.082031 126.339844 914.832031 126.609375 914.496094 126.773438 C 914.160156 126.941406 913.796875 126.949219 913.40625 126.808594 C 913.023438 126.667969 912.742188 126.421875 912.570312 126.066406 C 912.398438 125.714844 912.390625 125.355469 912.535156 124.976562 L 925.550781 91.652344 L 912.535156 58.328125 C 912.390625 57.957031 912.398438 57.589844 912.570312 57.238281 C 912.742188 56.886719 913.023438 56.640625 913.40625 56.5 C 913.796875 56.359375 914.160156 56.371094 914.496094 56.535156 C 914.832031 56.703125 915.082031 56.972656 915.226562 57.339844 L 928.453125 91.15625 C 928.59375 91.445312 928.59375 91.773438 928.453125 92.144531 Z M 915.226562 125.960938 "/>
<path style="fill:none;stroke-width:0.2948;stroke-linecap:round;stroke-linejoin:round;stroke:rgb(0%,0%,0%);stroke-opacity:1;stroke-miterlimit:10;" d="M 81.023855 2.5173 L 76.277876 4.58087 " transform="matrix(9.578008,0,-0.00000325831,-9.559434,229.449002,132.270991)"/>
<path style="fill:none;stroke-width:0.2948;stroke-linecap:round;stroke-linejoin:round;stroke:rgb(0%,0%,0%);stroke-opacity:1;stroke-miterlimit:10;" d="M 76.277876 4.58087 L 81.023857 6.64444 " transform="matrix(9.578008,0,-0.00000325831,-9.559434,229.449002,132.270991)"/>
<path style=" stroke:none;fill-rule:evenodd;fill:rgb(0%,0%,0%);fill-opacity:1;" d="M 1005.496094 106.800781 C 1006.28125 106.800781 1006.914062 107.429688 1006.914062 108.207031 C 1006.914062 108.984375 1006.28125 109.617188 1005.496094 109.617188 C 1004.722656 109.617188 1004.089844 108.984375 1004.089844 108.207031 C 1004.089844 107.429688 1004.722656 106.800781 1005.496094 106.800781 Z M 1005.496094 106.800781 "/>
<path style=" stroke:none;fill-rule:evenodd;fill:rgb(0%,0%,0%);fill-opacity:1;" d="M 960.039062 87.070312 C 960.816406 87.070312 961.449219 87.703125 961.449219 88.480469 C 961.449219 89.257812 960.816406 89.890625 960.039062 89.890625 C 959.265625 89.890625 958.632812 89.257812 958.632812 88.480469 C 958.632812 87.703125 959.265625 87.070312 960.039062 87.070312 Z M 960.039062 87.070312 "/>
<path style=" stroke:none;fill-rule:evenodd;fill:rgb(0%,0%,0%);fill-opacity:1;" d="M 1005.496094 67.34375 C 1006.28125 67.34375 1006.914062 67.976562 1006.914062 68.753906 C 1006.914062 69.53125 1006.28125 70.164062 1005.496094 70.164062 C 1004.722656 70.164062 1004.089844 69.53125 1004.089844 68.753906 C 1004.089844 67.976562 1004.722656 67.34375 1005.496094 67.34375 Z M 1005.496094 67.34375 "/>
<path style=" stroke:none;fill-rule:evenodd;fill:rgb(0%,0%,0%);fill-opacity:1;" d="M 1053.101562 124.976562 C 1053.253906 125.355469 1053.234375 125.714844 1053.070312 126.066406 C 1052.898438 126.421875 1052.621094 126.667969 1052.230469 126.808594 C 1051.84375 126.949219 1051.472656 126.941406 1051.109375 126.773438 C 1050.742188 126.609375 1050.484375 126.339844 1050.339844 125.960938 L 1037.105469 92.144531 C 1037.007812 91.867188 1037.007812 91.539062 1037.105469 91.15625 L 1050.339844 57.339844 C 1050.484375 56.972656 1050.742188 56.703125 1051.109375 56.535156 C 1051.472656 56.371094 1051.84375 56.359375 1052.230469 56.5 C 1052.621094 56.640625 1052.898438 56.886719 1053.070312 57.238281 C 1053.234375 57.589844 1053.253906 57.957031 1053.101562 58.328125 L 1040.09375 91.652344 Z M 1053.101562 124.976562 "/>
<path style=" stroke:none;fill-rule:evenodd;fill:rgb(0%,0%,0%);fill-opacity:1;" d="M 1090.398438 109.359375 L 1062.085938 109.359375 L 1062.085938 107.503906 C 1062.085938 107.371094 1062.152344 107.171875 1062.285156 106.898438 L 1073.664062 94.558594 C 1075.015625 93.078125 1076.375 91.5625 1077.753906 90.011719 C 1079.132812 88.460938 1080.367188 86.875 1081.460938 85.257812 C 1082.542969 83.640625 1083.414062 81.96875 1084.066406 80.25 C 1084.71875 78.53125 1085.042969 76.726562 1085.042969 74.839844 C 1085.042969 73.246094 1084.832031 71.753906 1084.410156 70.371094 C 1084 68.992188 1083.394531 67.777344 1082.601562 66.730469 C 1081.816406 65.6875 1080.828125 64.84375 1079.652344 64.203125 C 1078.460938 63.5625 1077.09375 63.242188 1075.542969 63.242188 C 1073.222656 63.242188 1071.175781 63.933594 1069.402344 65.316406 C 1067.628906 66.699219 1066.453125 68.222656 1065.867188 69.882812 C 1065.761719 69.929688 1065.945312 69.949219 1066.433594 69.949219 L 1067.015625 69.949219 C 1067.714844 70.109375 1068.320312 70.351562 1068.828125 70.675781 C 1069.34375 71.003906 1069.765625 71.453125 1070.121094 72.023438 C 1070.464844 72.597656 1070.636719 73.289062 1070.636719 74.097656 C 1070.636719 75.445312 1070.195312 76.480469 1069.316406 77.199219 C 1068.433594 77.921875 1067.449219 78.277344 1066.355469 78.277344 C 1065.3125 78.277344 1064.34375 77.921875 1063.433594 77.199219 C 1062.535156 76.480469 1062.085938 75.445312 1062.085938 74.097656 C 1062.085938 72.210938 1062.449219 70.421875 1063.195312 68.738281 C 1063.941406 67.050781 1064.949219 65.59375 1066.222656 64.355469 C 1067.496094 63.121094 1069 62.144531 1070.742188 61.421875 C 1072.484375 60.703125 1074.324219 60.34375 1076.269531 60.339844 C 1078.683594 60.34375 1080.894531 60.699219 1082.898438 61.40625 C 1084.910156 62.113281 1086.613281 63.132812 1088.03125 64.457031 C 1089.449219 65.785156 1090.550781 67.316406 1091.355469 69.058594 C 1092.148438 70.800781 1092.550781 72.726562 1092.550781 74.839844 C 1092.550781 77.175781 1092.023438 79.328125 1090.953125 81.296875 C 1089.890625 83.261719 1088.566406 85.066406 1086.988281 86.707031 C 1085.40625 88.347656 1083.730469 89.894531 1081.957031 91.34375 C 1080.1875 92.792969 1078.578125 94.203125 1077.140625 95.570312 L 1069.144531 103.089844 L 1079.613281 103.089844 C 1081.078125 103.089844 1082.4375 103.082031 1083.703125 103.058594 C 1084.964844 103.035156 1086.039062 102.992188 1086.921875 102.921875 C 1087.800781 102.855469 1088.25 102.8125 1088.269531 102.785156 C 1088.460938 102.628906 1088.632812 102.316406 1088.796875 101.84375 C 1088.960938 101.371094 1089.113281 100.816406 1089.246094 100.175781 C 1089.390625 99.535156 1089.523438 98.882812 1089.667969 98.21875 C 1089.804688 97.558594 1089.9375 96.832031 1090.050781 96.042969 L 1092.617188 96.042969 Z M 1090.398438 109.359375 "/>
<path style=" stroke:none;fill-rule:evenodd;fill:rgb(0%,0%,0%);fill-opacity:1;" d="M 1118.011719 109.09375 C 1118.011719 111.777344 1117.464844 114.3125 1116.363281 116.695312 C 1115.261719 119.082031 1113.71875 121.191406 1111.726562 123.027344 C 1111.515625 123.164062 1111.285156 123.230469 1111.019531 123.230469 C 1110.835938 123.230469 1110.585938 123.164062 1110.269531 123.027344 L 1110.097656 122.75 C 1109.90625 122.566406 1109.8125 122.363281 1109.8125 122.132812 C 1109.8125 121.925781 1109.90625 121.683594 1110.097656 121.410156 C 1111.898438 119.757812 1113.277344 117.878906 1114.238281 115.769531 C 1115.195312 113.65625 1115.671875 111.433594 1115.671875 109.09375 C 1115.671875 108.933594 1115.664062 108.757812 1115.636719 108.5625 C 1115.617188 108.367188 1115.597656 108.488281 1115.597656 108.921875 C 1115.222656 109.359375 1114.34375 109.574219 1112.972656 109.574219 C 1111.601562 109.574219 1110.558594 109.152344 1109.851562 108.304688 C 1109.140625 107.457031 1108.785156 106.515625 1108.785156 105.480469 C 1108.785156 104.449219 1109.140625 103.519531 1109.851562 102.679688 C 1110.558594 101.84375 1111.601562 101.425781 1112.972656 101.421875 C 1113.988281 101.425781 1114.820312 101.683594 1115.453125 102.199219 C 1116.09375 102.714844 1116.601562 103.339844 1116.984375 104.074219 C 1117.367188 104.808594 1117.628906 105.621094 1117.78125 106.515625 C 1117.933594 107.410156 1118.011719 108.269531 1118.011719 109.09375 Z M 1118.011719 109.09375 "/>
<path style=" stroke:none;fill-rule:evenodd;fill:rgb(0%,0%,0%);fill-opacity:1;" d="M 1168.667969 109.359375 C 1164.398438 109.226562 1160.25 109.15625 1156.21875 109.15625 C 1152.175781 109.15625 1148.027344 109.226562 1143.765625 109.359375 L 1143.765625 106.460938 L 1146.160156 106.460938 C 1146.925781 106.460938 1147.644531 106.453125 1148.316406 106.429688 C 1148.996094 106.40625 1149.628906 106.351562 1150.230469 106.261719 C 1150.835938 106.171875 1151.359375 106.082031 1151.800781 105.988281 C 1152.164062 105.921875 1152.472656 105.714844 1152.722656 105.367188 C 1152.960938 105.019531 1153.085938 104.632812 1153.085938 104.203125 L 1153.085938 66.207031 C 1151.925781 66.773438 1150.5 67.199219 1148.804688 67.492188 C 1147.109375 67.78125 1145.257812 67.929688 1143.238281 67.925781 L 1143.238281 65.0625 C 1146.027344 65.0625 1148.59375 64.734375 1150.949219 64.066406 C 1153.304688 63.40625 1155.335938 62.164062 1157.050781 60.339844 L 1158.132812 60.339844 C 1158.890625 60.34375 1159.273438 60.714844 1159.273438 61.453125 L 1159.273438 104.203125 C 1159.273438 104.652344 1159.386719 105.046875 1159.625 105.382812 C 1159.855469 105.71875 1160.191406 105.921875 1160.632812 105.988281 C 1161.007812 106.082031 1161.484375 106.171875 1162.058594 106.261719 C 1162.632812 106.351562 1163.296875 106.40625 1164.023438 106.429688 C 1164.75 106.453125 1165.46875 106.460938 1166.167969 106.460938 L 1168.667969 106.460938 Z M 1168.667969 109.359375 "/>
<path style=" stroke:none;fill-rule:evenodd;fill:rgb(0%,0%,0%);fill-opacity:1;" d="M 1183.359375 125.960938 C 1183.207031 126.339844 1182.96875 126.609375 1182.632812 126.773438 C 1182.296875 126.941406 1181.925781 126.949219 1181.542969 126.808594 C 1181.148438 126.667969 1180.871094 126.421875 1180.699219 126.066406 C 1180.535156 125.714844 1180.515625 125.355469 1180.667969 124.976562 L 1193.667969 91.652344 L 1180.667969 58.328125 C 1180.515625 57.957031 1180.535156 57.589844 1180.699219 57.238281 C 1180.871094 56.886719 1181.148438 56.640625 1181.542969 56.5 C 1181.925781 56.359375 1182.296875 56.371094 1182.632812 56.535156 C 1182.96875 56.703125 1183.207031 56.972656 1183.359375 57.339844 L 1196.539062 91.15625 C 1196.730469 91.445312 1196.730469 91.773438 1196.539062 92.144531 Z M 1183.359375 125.960938 "/>
<path style="fill:none;stroke-width:0.2948;stroke-linecap:round;stroke-linejoin:round;stroke:rgb(0%,0%,0%);stroke-opacity:1;stroke-miterlimit:10;" d="M 109.02012 2.5173 L 104.270063 4.58087 " transform="matrix(9.578008,0,-0.00000325831,-9.559434,229.449002,132.270991)"/>
<path style="fill:none;stroke-width:0.2948;stroke-linecap:round;stroke-linejoin:round;stroke:rgb(0%,0%,0%);stroke-opacity:1;stroke-miterlimit:10;" d="M 104.270063 4.58087 L 109.020122 6.64444 " transform="matrix(9.578008,0,-0.00000325831,-9.559434,229.449002,132.270991)"/>
<path style=" stroke:none;fill-rule:evenodd;fill:rgb(0%,0%,0%);fill-opacity:1;" d="M 1273.644531 106.800781 C 1274.410156 106.800781 1275.082031 107.429688 1275.082031 108.207031 C 1275.082031 108.984375 1274.410156 109.617188 1273.644531 109.617188 C 1272.878906 109.617188 1272.207031 108.984375 1272.207031 108.207031 C 1272.207031 107.429688 1272.878906 106.800781 1273.644531 106.800781 Z M 1273.644531 106.800781 "/>
<path style=" stroke:none;fill-rule:evenodd;fill:rgb(0%,0%,0%);fill-opacity:1;" d="M 1228.148438 87.070312 C 1228.914062 87.070312 1229.585938 87.703125 1229.585938 88.480469 C 1229.585938 89.257812 1228.914062 89.890625 1228.148438 89.890625 C 1227.382812 89.890625 1226.808594 89.257812 1226.808594 88.480469 C 1226.808594 87.703125 1227.382812 87.070312 1228.148438 87.070312 Z M 1228.148438 87.070312 "/>
<path style=" stroke:none;fill-rule:evenodd;fill:rgb(0%,0%,0%);fill-opacity:1;" d="M 1273.644531 67.34375 C 1274.410156 67.34375 1275.078125 67.976562 1275.078125 68.753906 C 1275.078125 69.53125 1274.410156 70.164062 1273.644531 70.164062 C 1272.878906 70.164062 1272.207031 69.53125 1272.207031 68.753906 C 1272.207031 67.976562 1272.878906 67.34375 1273.644531 67.34375 Z M 1273.644531 67.34375 "/>
<path style=" stroke:none;fill-rule:evenodd;fill:rgb(0%,0%,0%);fill-opacity:1;" d="M 1328.621094 88.480469 C 1328.621094 90.878906 1326.707031 92.820312 1324.3125 92.820312 C 1321.917969 92.820312 1320 90.878906 1320 88.480469 C 1320 86.085938 1321.917969 84.140625 1324.3125 84.140625 C 1326.707031 84.140625 1328.621094 86.085938 1328.621094 88.480469 Z M 1328.621094 88.480469 "/>
<path style=" stroke:none;fill-rule:evenodd;fill:rgb(0%,0%,0%);fill-opacity:1;" d="M 1306.398438 88.480469 C 1306.398438 90.878906 1304.484375 92.820312 1302.089844 92.820312 C 1299.695312 92.820312 1297.78125 90.878906 1297.78125 88.480469 C 1297.78125 86.085938 1299.695312 84.140625 1302.089844 84.140625 C 1304.484375 84.140625 1306.398438 86.085938 1306.398438 88.480469 Z M 1306.398438 88.480469 "/>
<path style=" stroke:none;fill-rule:evenodd;fill:rgb(0%,0%,0%);fill-opacity:1;" d="M 1350.9375 88.480469 C 1350.9375 90.878906 1348.925781 92.820312 1346.53125 92.820312 C 1344.136719 92.820312 1342.222656 90.878906 1342.222656 88.480469 C 1342.222656 86.085938 1344.136719 84.140625 1346.53125 84.140625 C 1348.925781 84.140625 1350.9375 86.085938 1350.9375 88.480469 Z M 1350.9375 88.480469 "/>
<g clip-path="url(#clip1)" clip-rule="nonzero">
<path style=" stroke:none;fill-rule:evenodd;fill:rgb(0%,0%,0%);fill-opacity:1;" d="M 81.777344 322.660156 C 82.511719 323.304688 82.984375 324.210938 83.199219 325.375 C 83.246094 325.972656 83.269531 326.59375 83.269531 327.234375 C 83.269531 327.808594 83.246094 328.382812 83.199219 328.953125 C 83.054688 330.238281 82.824219 331.554688 82.507812 332.894531 C 82.1875 334.238281 81.882812 335.445312 81.597656 336.523438 C 81.035156 338.703125 80.242188 340.863281 79.222656 343.007812 C 78.207031 345.152344 76.980469 347.085938 75.546875 348.804688 C 74.117188 350.523438 72.484375 351.929688 70.648438 353.019531 C 68.816406 354.105469 66.824219 354.648438 64.667969 354.648438 C 62.375 354.648438 60.695312 353.992188 59.632812 352.675781 C 58.566406 351.355469 57.949219 350.019531 57.785156 348.664062 C 56.816406 350.136719 55.417969 351.5 53.597656 352.761719 C 51.773438 354.019531 49.691406 354.648438 47.347656 354.648438 C 45.21875 354.648438 43.558594 354.078125 42.363281 352.933594 C 41.167969 351.785156 40.367188 350.339844 39.964844 348.597656 C 39.683594 347.453125 39.53125 346.179688 39.503906 344.777344 C 39.503906 344.117188 39.527344 343.449219 39.574219 342.78125 C 39.765625 340.652344 40.132812 338.519531 40.675781 336.382812 C 41.292969 334.117188 42.144531 331.902344 43.230469 329.746094 C 44.320312 327.59375 45.621094 325.515625 47.136719 323.519531 C 47.375 323.175781 47.679688 322.960938 48.058594 322.863281 L 48.308594 322.863281 C 48.496094 322.867188 48.6875 322.902344 48.875 322.96875 C 49.183594 323.109375 49.375 323.347656 49.445312 323.691406 L 49.445312 323.863281 C 49.445312 324.070312 49.347656 324.3125 49.160156 324.585938 C 47.789062 326.515625 46.582031 328.46875 45.539062 330.453125 C 44.5 332.4375 43.71875 334.460938 43.195312 336.523438 C 42.769531 338.105469 42.558594 339.621094 42.558594 341.0625 L 42.628906 341.132812 C 42.628906 342.738281 42.859375 344.105469 43.320312 345.226562 C 43.78125 346.351562 44.457031 347.238281 45.34375 347.890625 C 46.230469 348.546875 47.335938 348.875 48.660156 348.871094 C 50.4375 348.875 52.113281 348.351562 53.6875 347.308594 C 55.257812 346.265625 56.589844 344.894531 57.675781 343.195312 C 57.773438 342.121094 57.945312 341.003906 58.191406 339.84375 C 58.441406 338.6875 58.707031 337.53125 58.992188 336.382812 C 59.039062 336.203125 59.117188 335.910156 59.222656 335.507812 C 59.328125 335.109375 59.488281 334.714844 59.703125 334.324219 C 59.914062 333.933594 60.199219 333.5625 60.554688 333.203125 C 60.910156 332.847656 61.40625 332.671875 62.042969 332.667969 C 62.660156 332.671875 63.089844 332.867188 63.339844 333.253906 C 63.589844 333.648438 63.710938 334.058594 63.710938 334.492188 C 63.710938 334.882812 63.664062 335.273438 63.570312 335.664062 C 63.472656 336.054688 63.402344 336.339844 63.355469 336.523438 C 63.074219 337.71875 62.714844 338.910156 62.273438 340.101562 C 61.835938 341.292969 61.371094 342.429688 60.871094 343.503906 C 61.0625 345.066406 61.566406 346.351562 62.382812 347.359375 C 63.199219 348.371094 64.386719 348.875 65.949219 348.871094 C 67.390625 348.875 68.808594 348.535156 70.207031 347.859375 C 71.601562 347.183594 72.890625 346.277344 74.074219 345.140625 C 75.261719 344.003906 76.28125 342.675781 77.148438 341.152344 C 78.011719 339.625 78.644531 338.039062 79.046875 336.382812 C 79.28125 335.515625 79.414062 334.65625 79.433594 333.804688 C 79.433594 333.027344 79.328125 332.28125 79.117188 331.570312 C 78.667969 330.058594 77.863281 328.785156 76.703125 327.75 C 76.085938 327.246094 75.777344 326.652344 75.777344 325.960938 C 75.777344 325.78125 75.804688 325.617188 75.851562 325.480469 C 76.015625 324.65625 76.402344 323.941406 77.003906 323.332031 C 77.609375 322.726562 78.347656 322.292969 79.222656 322.039062 C 79.457031 321.996094 79.695312 321.972656 79.933594 321.972656 C 80.621094 321.972656 81.234375 322.203125 81.777344 322.660156 Z M 81.777344 322.660156 "/>
</g>
<path style=" stroke:none;fill-rule:evenodd;fill:rgb(0%,0%,0%);fill-opacity:1;" d="M 334.304688 330.109375 C 334.304688 333.347656 334.082031 336.566406 333.628906 339.769531 C 333.175781 342.972656 332.058594 345.980469 330.269531 348.785156 C 328.996094 350.835938 327.289062 352.40625 325.15625 353.507812 C 323.023438 354.609375 320.703125 355.160156 318.199219 355.160156 C 315.789062 355.160156 313.507812 354.609375 311.363281 353.507812 C 309.21875 352.40625 307.507812 350.835938 306.230469 348.785156 C 304.445312 345.980469 303.328125 342.972656 302.875 339.769531 C 302.421875 336.566406 302.195312 333.347656 302.195312 330.109375 C 302.195312 326.828125 302.421875 323.554688 302.875 320.285156 C 303.328125 317.011719 304.445312 313.953125 306.230469 311.09375 C 307.507812 309.03125 309.210938 307.421875 311.347656 306.277344 C 313.480469 305.128906 315.765625 304.554688 318.199219 304.554688 C 320.679688 304.554688 322.996094 305.128906 325.140625 306.277344 C 327.285156 307.421875 328.996094 309.03125 330.269531 311.09375 C 332.058594 313.953125 333.175781 317.011719 333.628906 320.285156 C 334.082031 323.554688 334.304688 326.828125 334.304688 330.109375 Z M 327.417969 328.929688 C 327.417969 327.515625 327.40625 326.019531 327.382812 324.445312 C 327.359375 322.875 327.300781 321.335938 327.207031 319.828125 C 327.117188 318.324219 326.949219 316.902344 326.703125 315.5625 C 326.460938 314.226562 326.164062 313.085938 325.816406 312.140625 C 325.125 310.613281 324.105469 309.359375 322.757812 308.382812 C 321.414062 307.40625 319.890625 306.914062 318.199219 306.914062 C 316.550781 306.914062 315.0625 307.410156 313.730469 308.398438 C 312.394531 309.390625 311.378906 310.636719 310.683594 312.140625 C 310.335938 313.085938 310.042969 314.226562 309.796875 315.5625 C 309.554688 316.902344 309.386719 318.324219 309.292969 319.828125 C 309.199219 321.335938 309.144531 322.875 309.121094 324.445312 C 309.097656 326.019531 309.082031 327.515625 309.082031 328.929688 C 309.082031 330.503906 309.097656 332.164062 309.121094 333.902344 C 309.144531 335.648438 309.199219 337.332031 309.292969 338.960938 C 309.386719 340.59375 309.554688 342.136719 309.796875 343.597656 C 310.042969 345.058594 310.335938 346.285156 310.683594 347.269531 C 311.332031 348.914062 312.339844 350.261719 313.695312 351.316406 C 315.050781 352.375 316.554688 352.902344 318.199219 352.898438 C 319.917969 352.902344 321.453125 352.375 322.808594 351.316406 C 324.167969 350.261719 325.167969 348.914062 325.816406 347.269531 C 326.164062 346.285156 326.460938 345.058594 326.703125 343.597656 C 326.949219 342.136719 327.117188 340.59375 327.207031 338.960938 C 327.300781 337.332031 327.359375 335.648438 327.382812 333.902344 C 327.40625 332.164062 327.417969 330.503906 327.417969 328.929688 Z M 327.417969 328.929688 "/>
<path style=" stroke:none;fill-rule:evenodd;fill:rgb(0%,0%,0%);fill-opacity:1;" d="M 608.496094 353.574219 C 604.226562 353.4375 600.074219 353.371094 596.039062 353.371094 C 592.003906 353.371094 587.851562 353.4375 583.582031 353.574219 L 583.582031 350.675781 L 585.984375 350.675781 C 586.75 350.675781 587.46875 350.667969 588.140625 350.644531 C 588.816406 350.621094 589.453125 350.566406 590.054688 350.472656 C 590.660156 350.386719 591.179688 350.296875 591.621094 350.203125 C 591.992188 350.136719 592.300781 349.929688 592.542969 349.582031 C 592.789062 349.234375 592.90625 348.84375 592.90625 348.417969 L 592.90625 310.417969 C 591.75 310.984375 590.320312 311.414062 588.628906 311.703125 C 586.9375 311.996094 585.078125 312.140625 583.0625 312.140625 L 583.0625 309.273438 C 585.847656 309.273438 588.414062 308.945312 590.769531 308.28125 C 593.125 307.621094 595.160156 306.375 596.875 304.554688 L 597.953125 304.554688 C 598.71875 304.554688 599.101562 304.925781 599.101562 305.667969 L 599.101562 348.417969 C 599.101562 348.867188 599.214844 349.261719 599.449219 349.597656 C 599.679688 349.933594 600.019531 350.136719 600.457031 350.203125 C 600.828125 350.296875 601.308594 350.386719 601.882812 350.472656 C 602.464844 350.566406 603.121094 350.621094 603.851562 350.644531 C 604.582031 350.667969 605.292969 350.675781 605.988281 350.675781 L 608.496094 350.675781 Z M 608.496094 353.574219 "/>
<path style="fill:none;stroke-width:0.2948;stroke-linecap:round;stroke-linejoin:round;stroke:rgb(0%,0%,0%);stroke-opacity:1;stroke-miterlimit:10;" d="M 5.435091 1.549905 L 0.688827 3.613393 " transform="matrix(9.577432,0,-0.0000039828,-9.559813,427.156729,367.238676)"/>
<path style="fill:none;stroke-width:0.2948;stroke-linecap:round;stroke-linejoin:round;stroke:rgb(0%,0%,0%);stroke-opacity:1;stroke-miterlimit:10;" d="M 0.688827 3.613393 L 5.435093 5.676882 " transform="matrix(9.577432,0,-0.0000039828,-9.559813,427.156729,367.238676)"/>
<path style=" stroke:none;fill-rule:evenodd;fill:rgb(0%,0%,0%);fill-opacity:1;" d="M 479.210938 351.015625 C 479.988281 351.015625 480.621094 351.644531 480.621094 352.421875 C 480.621094 353.203125 479.988281 353.832031 479.210938 353.832031 C 478.429688 353.832031 477.796875 353.203125 477.796875 352.421875 C 477.796875 351.644531 478.429688 351.015625 479.210938 351.015625 Z M 479.210938 351.015625 "/>
<path style=" stroke:none;fill-rule:evenodd;fill:rgb(0%,0%,0%);fill-opacity:1;" d="M 433.753906 331.285156 C 434.53125 331.285156 435.164062 331.917969 435.164062 332.695312 C 435.164062 333.472656 434.53125 334.105469 433.753906 334.105469 C 432.972656 334.105469 432.339844 333.472656 432.339844 332.695312 C 432.339844 331.917969 432.972656 331.285156 433.753906 331.285156 Z M 433.753906 331.285156 "/>
<path style=" stroke:none;fill-rule:evenodd;fill:rgb(0%,0%,0%);fill-opacity:1;" d="M 479.210938 311.558594 C 479.988281 311.558594 480.621094 312.1875 480.621094 312.96875 C 480.621094 313.746094 479.988281 314.375 479.210938 314.375 C 478.429688 314.375 477.796875 313.746094 477.796875 312.96875 C 477.796875 312.1875 478.429688 311.558594 479.210938 311.558594 Z M 479.210938 311.558594 "/>
<path style="fill:none;stroke-width:0.2948;stroke-linecap:round;stroke-linejoin:round;stroke:rgb(0%,0%,0%);stroke-opacity:1;stroke-miterlimit:10;" d="M 5.435204 1.549905 L 0.688532 3.613393 " transform="matrix(9.577432,0,-0.00000796032,-9.559813,685.104876,367.238676)"/>
<path style="fill:none;stroke-width:0.2948;stroke-linecap:round;stroke-linejoin:round;stroke:rgb(0%,0%,0%);stroke-opacity:1;stroke-miterlimit:10;" d="M 0.688532 3.613393 L 5.434799 5.676882 " transform="matrix(9.577432,0,-0.00000796032,-9.559813,685.104876,367.238676)"/>
<path style=" stroke:none;fill-rule:evenodd;fill:rgb(0%,0%,0%);fill-opacity:1;" d="M 737.160156 351.015625 C 737.9375 351.015625 738.570312 351.644531 738.570312 352.421875 C 738.570312 353.203125 737.9375 353.832031 737.160156 353.832031 C 736.378906 353.832031 735.746094 353.203125 735.746094 352.421875 C 735.746094 351.644531 736.378906 351.015625 737.160156 351.015625 Z M 737.160156 351.015625 "/>
<path style=" stroke:none;fill-rule:evenodd;fill:rgb(0%,0%,0%);fill-opacity:1;" d="M 691.699219 331.285156 C 692.480469 331.285156 693.113281 331.917969 693.113281 332.695312 C 693.113281 333.472656 692.480469 334.105469 691.699219 334.105469 C 690.921875 334.105469 690.289062 333.472656 690.289062 332.695312 C 690.289062 331.917969 690.921875 331.285156 691.699219 331.285156 Z M 691.699219 331.285156 "/>
<path style=" stroke:none;fill-rule:evenodd;fill:rgb(0%,0%,0%);fill-opacity:1;" d="M 737.15625 311.558594 C 737.9375 311.558594 738.570312 312.1875 738.570312 312.96875 C 738.570312 313.746094 737.9375 314.375 737.15625 314.375 C 736.378906 314.375 735.746094 313.746094 735.746094 312.96875 C 735.746094 312.1875 736.378906 311.558594 737.15625 311.558594 Z M 737.15625 311.558594 "/>
<g clip-path="url(#clip2)" clip-rule="nonzero">
<path style=" stroke:none;fill-rule:evenodd;fill:rgb(0%,0%,0%);fill-opacity:1;" d="M 859.167969 353.574219 L 830.851562 353.574219 L 830.851562 351.71875 C 830.851562 351.585938 830.921875 351.382812 831.0625 351.113281 L 842.4375 338.773438 C 843.78125 337.292969 845.144531 335.773438 846.523438 334.222656 C 847.90625 332.675781 849.140625 331.089844 850.230469 329.46875 C 851.320312 327.851562 852.191406 326.183594 852.839844 324.464844 C 853.492188 322.746094 853.8125 320.941406 853.8125 319.050781 C 853.8125 317.457031 853.605469 315.96875 853.1875 314.585938 C 852.769531 313.203125 852.167969 311.988281 851.378906 310.945312 C 850.589844 309.898438 849.605469 309.054688 848.421875 308.414062 C 847.238281 307.777344 845.871094 307.457031 844.316406 307.453125 C 842 307.457031 839.949219 308.144531 838.175781 309.527344 C 836.402344 310.910156 835.222656 312.433594 834.644531 314.09375 C 834.53125 314.140625 834.714844 314.164062 835.199219 314.164062 L 835.792969 314.164062 C 836.488281 314.320312 837.089844 314.566406 837.601562 314.890625 C 838.113281 315.214844 838.539062 315.664062 838.890625 316.238281 C 839.238281 316.8125 839.410156 317.503906 839.410156 318.308594 C 839.410156 319.660156 838.972656 320.695312 838.089844 321.414062 C 837.207031 322.132812 836.21875 322.492188 835.132812 322.488281 C 834.089844 322.492188 833.113281 322.132812 832.210938 321.414062 C 831.304688 320.695312 830.851562 319.660156 830.851562 318.308594 C 830.851562 316.421875 831.222656 314.636719 831.96875 312.949219 C 832.710938 311.265625 833.71875 309.804688 834.992188 308.566406 C 836.265625 307.332031 837.773438 306.355469 839.515625 305.636719 C 841.253906 304.917969 843.097656 304.554688 845.046875 304.554688 C 847.460938 304.554688 849.667969 304.910156 851.675781 305.617188 C 853.679688 306.324219 855.390625 307.34375 856.804688 308.667969 C 858.21875 309.996094 859.328125 311.53125 860.128906 313.269531 C 860.929688 315.011719 861.328125 316.941406 861.328125 319.050781 C 861.328125 321.390625 860.796875 323.542969 859.726562 325.507812 C 858.660156 327.476562 857.339844 329.28125 855.761719 330.921875 C 854.1875 332.5625 852.507812 334.105469 850.734375 335.554688 C 848.960938 337.003906 847.355469 338.414062 845.917969 339.785156 L 837.914062 347.304688 L 848.386719 347.304688 C 849.847656 347.304688 851.210938 347.292969 852.472656 347.273438 C 853.738281 347.25 854.808594 347.203125 855.691406 347.136719 C 856.574219 347.070312 857.027344 347.023438 857.046875 347 C 857.234375 346.84375 857.410156 346.53125 857.570312 346.058594 C 857.734375 345.585938 857.882812 345.03125 858.023438 344.390625 C 858.164062 343.75 858.300781 343.097656 858.441406 342.433594 C 858.582031 341.773438 858.707031 341.046875 858.824219 340.257812 L 861.394531 340.257812 Z M 859.167969 353.574219 "/>
</g>
<path style="fill:none;stroke-width:0.2948;stroke-linecap:round;stroke-linejoin:round;stroke:rgb(0%,0%,0%);stroke-opacity:1;stroke-miterlimit:10;" d="M 5.435151 1.549905 L 0.688481 3.613393 " transform="matrix(9.577432,0,-0.0000159206,-9.559813,940.878832,367.238676)"/>
<path style="fill:none;stroke-width:0.2948;stroke-linecap:round;stroke-linejoin:round;stroke:rgb(0%,0%,0%);stroke-opacity:1;stroke-miterlimit:10;" d="M 0.688481 3.613393 L 5.435158 5.676882 " transform="matrix(9.577432,0,-0.0000159206,-9.559813,940.878832,367.238676)"/>
<path style=" stroke:none;fill-rule:evenodd;fill:rgb(0%,0%,0%);fill-opacity:1;" d="M 992.933594 351.015625 C 993.710938 351.015625 994.34375 351.644531 994.34375 352.421875 C 994.34375 353.203125 993.710938 353.832031 992.933594 353.832031 C 992.152344 353.832031 991.519531 353.203125 991.519531 352.421875 C 991.519531 351.644531 992.152344 351.015625 992.933594 351.015625 Z M 992.933594 351.015625 "/>
<path style=" stroke:none;fill-rule:evenodd;fill:rgb(0%,0%,0%);fill-opacity:1;" d="M 947.472656 331.285156 C 948.253906 331.285156 948.886719 331.917969 948.886719 332.695312 C 948.886719 333.472656 948.253906 334.105469 947.472656 334.105469 C 946.695312 334.105469 946.0625 333.472656 946.0625 332.695312 C 946.0625 331.917969 946.695312 331.285156 947.472656 331.285156 Z M 947.472656 331.285156 "/>
<path style=" stroke:none;fill-rule:evenodd;fill:rgb(0%,0%,0%);fill-opacity:1;" d="M 992.933594 311.558594 C 993.710938 311.558594 994.34375 312.1875 994.34375 312.96875 C 994.34375 313.746094 993.710938 314.375 992.933594 314.375 C 992.152344 314.375 991.519531 313.746094 991.519531 312.96875 C 991.519531 312.1875 992.152344 311.558594 992.933594 311.558594 Z M 992.933594 311.558594 "/>
<g clip-path="url(#clip3)" clip-rule="nonzero">
<path style=" stroke:none;fill-rule:evenodd;fill:rgb(0%,0%,0%);fill-opacity:1;" d="M 1126.453125 340.863281 C 1126.453125 342.796875 1126.023438 344.652344 1125.164062 346.429688 C 1124.308594 348.203125 1123.160156 349.722656 1121.71875 350.976562 C 1120.097656 352.394531 1118.304688 353.445312 1116.34375 354.128906 C 1114.386719 354.816406 1112.339844 355.160156 1110.203125 355.160156 C 1108.277344 355.160156 1106.402344 354.890625 1104.570312 354.347656 C 1102.738281 353.808594 1101.085938 353.035156 1099.613281 352.027344 C 1098.140625 351.015625 1096.964844 349.773438 1096.082031 348.300781 C 1095.199219 346.828125 1094.757812 345.136719 1094.757812 343.222656 C 1094.757812 341.789062 1095.238281 340.714844 1096.203125 340.007812 C 1097.164062 339.296875 1098.179688 338.945312 1099.246094 338.941406 C 1100.359375 338.945312 1101.398438 339.296875 1102.359375 340.007812 C 1103.324219 340.714844 1103.804688 341.789062 1103.804688 343.222656 C 1103.804688 344.078125 1103.636719 344.792969 1103.300781 345.367188 C 1102.964844 345.941406 1102.535156 346.417969 1102.011719 346.800781 C 1101.492188 347.183594 1100.894531 347.417969 1100.21875 347.507812 C 1099.875 347.597656 1099.546875 347.644531 1099.246094 347.640625 C 1098.945312 347.644531 1098.898438 347.664062 1099.105469 347.707031 C 1099.828125 348.96875 1101.242188 350.082031 1103.351562 351.046875 C 1105.464844 352.015625 1107.746094 352.496094 1110.203125 352.496094 C 1111.367188 352.496094 1112.449219 352.210938 1113.457031 351.636719 C 1114.46875 351.0625 1115.308594 350.296875 1115.980469 349.324219 C 1116.816406 348.070312 1117.382812 346.722656 1117.6875 345.28125 C 1117.988281 343.84375 1118.136719 342.371094 1118.136719 340.863281 C 1118.136719 339.316406 1117.988281 337.828125 1117.6875 336.398438 C 1117.382812 334.972656 1116.816406 333.652344 1115.980469 332.433594 C 1115.285156 331.449219 1114.4375 330.652344 1113.441406 330.042969 C 1112.445312 329.4375 1111.367188 329.132812 1110.203125 329.132812 L 1105.160156 329.132812 C 1104.492188 329.132812 1104.128906 328.820312 1104.082031 328.1875 L 1104.082031 327.816406 C 1104.082031 327.550781 1104.164062 327.335938 1104.324219 327.175781 C 1104.535156 326.976562 1104.800781 326.875 1105.125 326.871094 C 1105.796875 326.785156 1106.496094 326.738281 1107.214844 326.738281 C 1107.910156 326.738281 1108.59375 326.695312 1109.265625 326.601562 C 1110.519531 326.515625 1111.609375 326.128906 1112.539062 325.441406 C 1113.464844 324.757812 1114.242188 323.878906 1114.867188 322.8125 C 1115.492188 321.746094 1115.96875 320.515625 1116.292969 319.121094 C 1116.617188 317.726562 1116.78125 316.300781 1116.78125 314.835938 C 1116.78125 313.761719 1116.664062 312.738281 1116.433594 311.769531 C 1116.199219 310.804688 1115.773438 309.960938 1115.144531 309.238281 C 1113.847656 307.757812 1112.199219 307.027344 1110.203125 307.050781 C 1108.074219 307.050781 1106.117188 307.453125 1104.34375 308.246094 C 1102.570312 309.046875 1101.378906 309.90625 1100.777344 310.824219 C 1100.617188 310.851562 1100.695312 310.859375 1101.023438 310.859375 C 1101.859375 310.859375 1102.644531 311.105469 1103.386719 311.601562 C 1104.5 312.253906 1105.054688 313.355469 1105.054688 314.902344 C 1105.054688 316.210938 1104.632812 317.195312 1103.789062 317.855469 C 1102.941406 318.519531 1101.996094 318.851562 1100.953125 318.847656 C 1099.929688 318.851562 1098.972656 318.527344 1098.082031 317.871094 C 1097.1875 317.222656 1096.742188 316.230469 1096.742188 314.902344 C 1096.742188 313.265625 1097.136719 311.816406 1097.925781 310.558594 C 1098.714844 309.300781 1099.726562 308.21875 1100.96875 307.320312 C 1102.210938 306.421875 1103.640625 305.734375 1105.265625 305.265625 C 1106.890625 304.792969 1108.535156 304.554688 1110.203125 304.554688 C 1111.992188 304.554688 1113.71875 304.792969 1115.390625 305.265625 C 1117.058594 305.734375 1118.636719 306.464844 1120.121094 307.453125 C 1121.328125 308.308594 1122.339844 309.359375 1123.164062 310.609375 C 1123.988281 311.855469 1124.398438 313.265625 1124.398438 314.835938 C 1124.398438 316.414062 1124.117188 317.894531 1123.546875 319.289062 C 1122.980469 320.683594 1122.226562 321.941406 1121.289062 323.066406 C 1120.347656 324.191406 1119.230469 325.179688 1117.929688 326.03125 C 1116.628906 326.886719 1115.65625 327.425781 1115.003906 327.648438 C 1115.5625 327.71875 1116.515625 328.050781 1117.859375 328.644531 C 1119.207031 329.242188 1120.492188 330.035156 1121.71875 331.019531 C 1123.160156 332.257812 1124.308594 333.734375 1125.164062 335.453125 C 1126.023438 337.175781 1126.453125 338.976562 1126.453125 340.863281 Z M 1126.453125 340.863281 "/>
</g>
<g clip-path="url(#clip4)" clip-rule="nonzero">
<g clip-path="url(#clip5)" clip-rule="nonzero">
<path style="fill:none;stroke-width:0.2948;stroke-linecap:round;stroke-linejoin:round;stroke:rgb(0%,0%,0%);stroke-opacity:1;stroke-miterlimit:10;" d="M 5.435088 1.549905 L 0.688637 3.613393 " transform="matrix(9.577873,0,-0.0000159206,-9.559813,1215.459063,367.238676)"/>
</g>
</g>
<g clip-path="url(#clip6)" clip-rule="nonzero">
<g clip-path="url(#clip7)" clip-rule="nonzero">
<path style="fill:none;stroke-width:0.2948;stroke-linecap:round;stroke-linejoin:round;stroke:rgb(0%,0%,0%);stroke-opacity:1;stroke-miterlimit:10;" d="M 0.688637 3.613393 L 5.435095 5.676882 " transform="matrix(9.577873,0,-0.0000159206,-9.559813,1215.459063,367.238676)"/>
</g>
</g>
<g clip-path="url(#clip8)" clip-rule="nonzero">
<g clip-path="url(#clip9)" clip-rule="nonzero">
<path style=" stroke:none;fill-rule:evenodd;fill:rgb(0%,0%,0%);fill-opacity:1;" d="M 1267.515625 351.015625 C 1268.292969 351.015625 1268.925781 351.644531 1268.925781 352.421875 C 1268.925781 353.203125 1268.292969 353.832031 1267.515625 353.832031 C 1266.734375 353.832031 1266.101562 353.203125 1266.101562 352.421875 C 1266.101562 351.644531 1266.734375 351.015625 1267.515625 351.015625 Z M 1267.515625 351.015625 "/>
</g>
</g>
<g clip-path="url(#clip10)" clip-rule="nonzero">
<g clip-path="url(#clip11)" clip-rule="nonzero">
<path style=" stroke:none;fill-rule:evenodd;fill:rgb(0%,0%,0%);fill-opacity:1;" d="M 1222.054688 331.285156 C 1222.835938 331.285156 1223.46875 331.917969 1223.46875 332.695312 C 1223.46875 333.472656 1222.835938 334.105469 1222.054688 334.105469 C 1221.273438 334.105469 1220.644531 333.472656 1220.644531 332.695312 C 1220.644531 331.917969 1221.273438 331.285156 1222.054688 331.285156 Z M 1222.054688 331.285156 "/>
</g>
</g>
<g clip-path="url(#clip12)" clip-rule="nonzero">
<g clip-path="url(#clip13)" clip-rule="nonzero">
<path style=" stroke:none;fill-rule:evenodd;fill:rgb(0%,0%,0%);fill-opacity:1;" d="M 1267.515625 311.558594 C 1268.292969 311.558594 1268.925781 312.1875 1268.925781 312.96875 C 1268.925781 313.746094 1268.292969 314.375 1267.515625 314.375 C 1266.734375 314.375 1266.101562 313.746094 1266.101562 312.96875 C 1266.101562 312.1875 1266.734375 311.558594 1267.515625 311.558594 Z M 1267.515625 311.558594 "/>
</g>
</g>
<g clip-path="url(#clip14)" clip-rule="nonzero">
<g clip-path="url(#clip15)" clip-rule="nonzero">
<path style=" stroke:none;fill-rule:evenodd;fill:rgb(0%,0%,0%);fill-opacity:1;" d="M 1322.550781 332.695312 C 1322.550781 335.09375 1320.59375 337.035156 1318.199219 337.035156 C 1315.796875 337.035156 1313.851562 335.09375 1313.851562 332.695312 C 1313.851562 330.296875 1315.796875 328.355469 1318.199219 328.355469 C 1320.59375 328.355469 1322.550781 330.296875 1322.550781 332.695312 Z M 1322.550781 332.695312 "/>
</g>
</g>
<g clip-path="url(#clip16)" clip-rule="nonzero">
<g clip-path="url(#clip17)" clip-rule="nonzero">
<path style=" stroke:none;fill-rule:evenodd;fill:rgb(0%,0%,0%);fill-opacity:1;" d="M 1300.308594 332.695312 C 1300.308594 335.09375 1298.363281 337.035156 1295.960938 337.035156 C 1293.558594 337.035156 1291.613281 335.09375 1291.613281 332.695312 C 1291.613281 330.296875 1293.558594 328.355469 1295.960938 328.355469 C 1298.363281 328.355469 1300.308594 330.296875 1300.308594 332.695312 Z M 1300.308594 332.695312 "/>
</g>
</g>
<g clip-path="url(#clip18)" clip-rule="nonzero">
<g clip-path="url(#clip19)" clip-rule="nonzero">
<path style=" stroke:none;fill-rule:evenodd;fill:rgb(0%,0%,0%);fill-opacity:1;" d="M 1344.78125 332.695312 C 1344.78125 335.09375 1342.835938 337.035156 1340.429688 337.035156 C 1338.027344 337.035156 1336.082031 335.09375 1336.082031 332.695312 C 1336.082031 330.296875 1338.027344 328.355469 1340.429688 328.355469 C 1342.835938 328.355469 1344.78125 330.296875 1344.78125 332.695312 Z M 1344.78125 332.695312 "/>
</g>
</g>
<path style=" stroke:none;fill-rule:evenodd;fill:rgb(0%,0%,0%);fill-opacity:1;" d="M 302.027344 189.765625 C 301.542969 189.769531 301.300781 189.324219 301.300781 188.425781 C 301.300781 187.773438 301.375 187.375 301.515625 187.230469 C 301.613281 187.140625 302.003906 187 302.683594 186.804688 C 307.140625 185.730469 310.632812 183.546875 313.152344 180.253906 C 315.285156 177.675781 316.640625 174.855469 317.222656 171.800781 C 317.367188 170.957031 317.535156 170.441406 317.730469 170.25 C 317.878906 170.113281 318.046875 170.042969 318.242188 170.039062 C 318.679688 170.042969 318.945312 170.277344 319.039062 170.742188 L 319.257812 171.871094 C 320.085938 175.539062 321.804688 178.730469 324.417969 181.453125 C 327.085938 184.183594 330.214844 185.964844 333.796875 186.804688 C 334.476562 187 334.863281 187.140625 334.960938 187.230469 C 335.105469 187.375 335.179688 187.773438 335.179688 188.425781 C 335.179688 189.371094 334.941406 189.839844 334.453125 189.835938 C 334.164062 189.839844 333.800781 189.769531 333.359375 189.625 C 327.742188 188.128906 323.355469 185.097656 320.203125 180.535156 L 319.691406 179.832031 L 319.691406 233.800781 L 320.203125 233.09375 C 322.4375 229.808594 325.464844 227.273438 329.292969 225.484375 C 331.621094 224.410156 333.34375 223.871094 334.453125 223.863281 C 334.941406 223.871094 335.179688 224.3125 335.179688 225.203125 C 335.179688 225.863281 335.105469 226.261719 334.960938 226.402344 C 334.863281 226.5 334.476562 226.640625 333.796875 226.824219 C 330.164062 227.71875 327.039062 229.527344 324.417969 232.25 C 321.804688 234.925781 320.085938 238.097656 319.257812 241.761719 L 319.039062 242.886719 C 318.945312 243.359375 318.679688 243.59375 318.242188 243.59375 C 318.046875 243.59375 317.878906 243.523438 317.730469 243.382812 C 317.535156 243.195312 317.367188 242.65625 317.222656 241.761719 C 316.207031 236.828125 313.855469 233.074219 310.167969 230.488281 C 307.84375 228.703125 305.347656 227.484375 302.683594 226.824219 C 302.003906 226.640625 301.613281 226.5 301.515625 226.402344 C 301.375 226.261719 301.300781 225.863281 301.300781 225.203125 C 301.300781 224.269531 301.542969 223.800781 302.027344 223.796875 C 302.320312 223.800781 302.683594 223.871094 303.117188 224.007812 C 308.738281 225.511719 313.128906 228.542969 316.277344 233.09375 L 316.785156 233.800781 L 316.785156 179.832031 L 316.277344 180.535156 C 314.050781 183.828125 311.046875 186.367188 307.261719 188.144531 C 304.839844 189.230469 303.097656 189.769531 302.027344 189.765625 Z M 302.027344 189.765625 "/>
<path style=" stroke:none;fill-rule:evenodd;fill:rgb(0%,0%,0%);fill-opacity:1;" d="M 579.574219 190.414062 C 579.089844 190.417969 578.847656 189.976562 578.847656 189.078125 C 578.847656 188.425781 578.921875 188.023438 579.0625 187.878906 C 579.160156 187.789062 579.546875 187.648438 580.226562 187.457031 C 584.6875 186.382812 588.175781 184.199219 590.695312 180.902344 C 592.832031 178.324219 594.183594 175.507812 594.765625 172.449219 C 594.914062 171.609375 595.082031 171.09375 595.273438 170.898438 C 595.425781 170.761719 595.59375 170.691406 595.785156 170.6875 C 596.222656 170.691406 596.488281 170.925781 596.585938 171.394531 L 596.800781 172.519531 C 597.628906 176.1875 599.351562 179.378906 601.960938 182.101562 C 604.632812 184.832031 607.757812 186.613281 611.339844 187.457031 C 612.023438 187.648438 612.410156 187.789062 612.507812 187.878906 C 612.652344 188.023438 612.722656 188.425781 612.722656 189.078125 C 612.722656 190.019531 612.484375 190.492188 612 190.484375 C 611.707031 190.492188 611.347656 190.417969 610.90625 190.273438 C 605.285156 188.777344 600.898438 185.746094 597.75 181.1875 L 597.238281 180.480469 L 597.238281 234.449219 L 597.75 233.746094 C 599.980469 230.460938 603.007812 227.925781 606.835938 226.136719 C 609.167969 225.0625 610.886719 224.519531 612 224.515625 C 612.484375 224.519531 612.722656 224.964844 612.722656 225.855469 C 612.722656 226.515625 612.652344 226.910156 612.507812 227.050781 C 612.410156 227.148438 612.023438 227.289062 611.339844 227.472656 C 607.707031 228.367188 604.582031 230.179688 601.960938 232.898438 C 599.351562 235.578125 597.628906 238.746094 596.800781 242.410156 L 596.585938 243.539062 C 596.488281 244.007812 596.222656 244.242188 595.785156 244.242188 C 595.59375 244.242188 595.425781 244.171875 595.273438 244.03125 C 595.082031 243.847656 594.914062 243.304688 594.765625 242.410156 C 593.753906 237.480469 591.402344 233.722656 587.714844 231.136719 C 585.386719 229.355469 582.890625 228.136719 580.226562 227.472656 C 579.546875 227.289062 579.160156 227.148438 579.0625 227.050781 C 578.921875 226.910156 578.847656 226.515625 578.847656 225.855469 C 578.847656 224.921875 579.089844 224.449219 579.574219 224.445312 C 579.863281 224.449219 580.226562 224.519531 580.664062 224.65625 C 586.285156 226.160156 590.671875 229.191406 593.824219 233.746094 L 594.332031 234.449219 L 594.332031 180.480469 L 593.824219 181.1875 C 591.597656 184.480469 588.589844 187.015625 584.804688 188.792969 C 582.382812 189.878906 580.640625 190.417969 579.574219 190.414062 Z M 579.574219 190.414062 "/>
<path style=" stroke:none;fill-rule:evenodd;fill:rgb(0%,0%,0%);fill-opacity:1;" d="M 829.902344 190.414062 C 829.417969 190.417969 829.175781 189.976562 829.175781 189.078125 C 829.175781 188.425781 829.25 188.023438 829.390625 187.878906 C 829.488281 187.789062 829.875 187.648438 830.554688 187.457031 C 835.015625 186.382812 838.503906 184.199219 841.023438 180.902344 C 843.160156 178.324219 844.511719 175.507812 845.097656 172.449219 C 845.242188 171.609375 845.410156 171.09375 845.601562 170.898438 C 845.753906 170.761719 845.921875 170.691406 846.117188 170.6875 C 846.550781 170.691406 846.816406 170.925781 846.914062 171.394531 L 847.128906 172.519531 C 847.960938 176.1875 849.679688 179.378906 852.292969 182.101562 C 854.960938 184.832031 858.089844 186.613281 861.671875 187.457031 C 862.351562 187.648438 862.738281 187.789062 862.835938 187.878906 C 862.980469 188.023438 863.050781 188.425781 863.050781 189.078125 C 863.050781 190.019531 862.8125 190.492188 862.328125 190.484375 C 862.035156 190.492188 861.675781 190.417969 861.234375 190.273438 C 855.613281 188.777344 851.226562 185.746094 848.078125 181.1875 L 847.566406 180.480469 L 847.566406 234.449219 L 848.078125 233.746094 C 850.3125 230.460938 853.335938 227.925781 857.167969 226.136719 C 859.496094 225.0625 861.214844 224.519531 862.328125 224.515625 C 862.8125 224.519531 863.050781 224.964844 863.050781 225.855469 C 863.050781 226.515625 862.980469 226.910156 862.835938 227.050781 C 862.738281 227.148438 862.351562 227.289062 861.671875 227.472656 C 858.035156 228.367188 854.910156 230.179688 852.292969 232.898438 C 849.679688 235.578125 847.960938 238.746094 847.128906 242.410156 L 846.914062 243.539062 C 846.816406 244.007812 846.550781 244.242188 846.117188 244.242188 C 845.921875 244.242188 845.753906 244.171875 845.601562 244.03125 C 845.410156 243.847656 845.242188 243.304688 845.097656 242.410156 C 844.082031 237.480469 841.730469 233.722656 838.042969 231.136719 C 835.71875 229.355469 833.21875 228.136719 830.554688 227.472656 C 829.875 227.289062 829.488281 227.148438 829.390625 227.050781 C 829.25 226.910156 829.175781 226.515625 829.175781 225.855469 C 829.175781 224.921875 829.417969 224.449219 829.902344 224.445312 C 830.195312 224.449219 830.554688 224.519531 830.992188 224.65625 C 836.613281 226.160156 841.003906 229.191406 844.152344 233.746094 L 844.660156 234.449219 L 844.660156 180.480469 L 844.152344 181.1875 C 841.925781 184.480469 838.921875 187.015625 835.136719 188.792969 C 832.710938 189.878906 830.96875 190.417969 829.902344 190.414062 Z M 829.902344 190.414062 "/>
<path style=" stroke:none;fill-rule:evenodd;fill:rgb(0%,0%,0%);fill-opacity:1;" d="M 1094.382812 191.394531 C 1093.898438 191.398438 1093.65625 190.957031 1093.65625 190.054688 C 1093.65625 189.40625 1093.730469 189.003906 1093.871094 188.859375 C 1093.96875 188.769531 1094.355469 188.628906 1095.035156 188.4375 C 1099.496094 187.363281 1102.984375 185.175781 1105.503906 181.882812 C 1107.640625 179.304688 1108.992188 176.484375 1109.574219 173.429688 C 1109.722656 172.589844 1109.890625 172.074219 1110.082031 171.878906 C 1110.234375 171.742188 1110.402344 171.671875 1110.597656 171.667969 C 1111.03125 171.671875 1111.296875 171.90625 1111.394531 172.375 L 1111.609375 173.5 C 1112.441406 177.167969 1114.160156 180.359375 1116.773438 183.082031 C 1119.441406 185.8125 1122.570312 187.59375 1126.152344 188.4375 C 1126.832031 188.628906 1127.21875 188.769531 1127.316406 188.859375 C 1127.460938 189.003906 1127.53125 189.40625 1127.53125 190.054688 C 1127.53125 191 1127.292969 191.46875 1126.808594 191.464844 C 1126.515625 191.46875 1126.15625 191.398438 1125.714844 191.253906 C 1120.09375 189.757812 1115.707031 186.726562 1112.558594 182.167969 L 1112.046875 181.460938 L 1112.046875 235.429688 L 1112.558594 234.722656 C 1114.792969 231.441406 1117.816406 228.902344 1121.648438 227.113281 C 1123.976562 226.039062 1125.695312 225.5 1126.808594 225.496094 C 1127.292969 225.5 1127.53125 225.945312 1127.53125 226.835938 C 1127.53125 227.496094 1127.460938 227.890625 1127.316406 228.03125 C 1127.21875 228.128906 1126.832031 228.269531 1126.152344 228.453125 C 1122.515625 229.347656 1119.390625 231.15625 1116.773438 233.878906 C 1114.160156 236.554688 1112.441406 239.726562 1111.609375 243.390625 L 1111.394531 244.519531 C 1111.296875 244.988281 1111.03125 245.222656 1110.597656 245.222656 C 1110.402344 245.222656 1110.234375 245.152344 1110.082031 245.011719 C 1109.890625 244.824219 1109.722656 244.285156 1109.574219 243.390625 C 1108.5625 238.457031 1106.210938 234.703125 1102.523438 232.117188 C 1100.199219 230.335938 1097.699219 229.113281 1095.035156 228.453125 C 1094.355469 228.269531 1093.96875 228.128906 1093.871094 228.03125 C 1093.730469 227.890625 1093.65625 227.496094 1093.65625 226.835938 C 1093.65625 225.898438 1093.898438 225.429688 1094.382812 225.425781 C 1094.675781 225.429688 1095.035156 225.5 1095.472656 225.636719 C 1101.09375 227.140625 1105.484375 230.171875 1108.632812 234.722656 L 1109.140625 235.429688 L 1109.140625 181.460938 L 1108.632812 182.167969 C 1106.40625 185.460938 1103.402344 187.996094 1099.613281 189.773438 C 1097.191406 190.859375 1095.449219 191.398438 1094.382812 191.394531 Z M 1094.382812 191.394531 "/>
</g>
</svg>
