<?xml version="1.0" encoding="UTF-8"?>
<svg xmlns="http://www.w3.org/2000/svg" xmlns:xlink="http://www.w3.org/1999/xlink" width="1318.02pt" height="478.98pt" viewBox="0 0 1318.02 478.98" version="1.2">
<defs>
<clipPath id="clip1">
  <path d="M 633.996094 266.019531 L 664 266.019531 L 664 292 L 633.996094 292 Z M 633.996094 266.019531 "/>
</clipPath>
<clipPath id="clip2">
  <path d="M 623.855469 427 L 654 427 L 654 452 L 623.855469 452 Z M 623.855469 427 "/>
</clipPath>
</defs>
<g id="surface1">
<path style="fill:none;stroke-width:10;stroke-linecap:round;stroke-linejoin:round;stroke:rgb(0%,0%,0%);stroke-opacity:1;stroke-miterlimit:10;" d="M 85.002506 1063.402989 L 5907.789809 1063.402989 " transform="matrix(0.219525,0,0,-0.219228,0,480.858333)"/>
<path style=" stroke:none;fill-rule:nonzero;fill:rgb(0%,0%,0%);fill-opacity:1;" d="M 460.039062 296.972656 L 837.351562 296.972656 L 837.351562 298.617188 L 460.039062 298.617188 Z M 437.011719 297.796875 L 460.058594 302.730469 L 460.058594 292.863281 Z M 860.382812 297.796875 L 837.332031 292.863281 L 837.332031 302.730469 Z M 860.382812 297.796875 "/>
<path style="fill:none;stroke-width:5;stroke-linecap:round;stroke-linejoin:round;stroke:rgb(0%,0%,0%);stroke-opacity:1;stroke-miterlimit:10;" d="M 1990.717045 1024.808776 L 1990.717045 645.24557 " transform="matrix(0.219525,0,0,-0.219228,0,480.858333)"/>
<path style="fill:none;stroke-width:5;stroke-linecap:round;stroke-linejoin:round;stroke:rgb(0%,0%,0%);stroke-opacity:1;stroke-miterlimit:10;" d="M 3919.297028 1024.808776 L 3919.297028 645.24557 " transform="matrix(0.219525,0,0,-0.219228,0,480.858333)"/>
<g clip-path="url(#clip1)" clip-rule="nonzero">
<path style=" stroke:none;fill-rule:evenodd;fill:rgb(0%,0%,0%);fill-opacity:1;" d="M 663.289062 267.59375 C 663.253906 267.746094 663.171875 267.871094 663.046875 267.972656 C 662.925781 268.078125 662.777344 268.128906 662.613281 268.128906 C 662.234375 268.128906 661.859375 268.183594 661.484375 268.292969 C 661.113281 268.402344 660.726562 268.554688 660.324219 268.746094 C 659.824219 268.976562 659.339844 269.246094 658.859375 269.558594 C 658.378906 269.867188 657.898438 270.222656 657.410156 270.625 L 650.347656 276.320312 L 654.625 287.371094 C 654.789062 287.796875 654.957031 288.199219 655.121094 288.578125 C 655.289062 288.957031 655.476562 289.226562 655.691406 289.386719 C 655.855469 289.527344 656.089844 289.613281 656.390625 289.65625 C 656.691406 289.695312 657.042969 289.714844 657.449219 289.714844 C 657.753906 289.714844 657.910156 289.863281 657.910156 290.160156 L 657.910156 290.316406 L 657.835938 290.625 C 657.707031 290.96875 657.476562 291.140625 657.144531 291.140625 C 656.128906 291.074219 655.121094 291.039062 654.128906 291.039062 L 653.363281 291.039062 C 652.109375 291.0625 650.824219 291.097656 649.511719 291.140625 C 649.179688 291.140625 649.015625 290.992188 649.015625 290.695312 L 649.015625 290.539062 L 649.121094 290.246094 C 649.191406 289.882812 649.410156 289.703125 649.777344 289.714844 C 650.203125 289.714844 650.546875 289.691406 650.808594 289.644531 C 651.070312 289.601562 651.269531 289.492188 651.410156 289.316406 C 651.53125 289.179688 651.589844 289.027344 651.589844 288.851562 L 651.589844 288.75 C 651.566406 288.542969 651.488281 288.257812 651.359375 287.890625 L 647.699219 278.472656 L 642.871094 282.328125 L 641.257812 288.644531 C 641.183594 288.898438 641.148438 289.101562 641.148438 289.25 C 641.148438 289.386719 641.179688 289.472656 641.238281 289.507812 C 641.40625 289.613281 641.730469 289.671875 642.214844 289.6875 C 642.699219 289.707031 643.222656 289.714844 643.777344 289.714844 C 644.109375 289.714844 644.273438 289.851562 644.273438 290.128906 C 644.273438 290.195312 644.261719 290.269531 644.238281 290.351562 L 644.167969 290.609375 C 644.097656 290.964844 643.867188 291.140625 643.476562 291.140625 C 641.996094 291.074219 640.503906 291.039062 639 291.039062 C 637.523438 291.039062 636.023438 291.074219 634.511719 291.140625 C 634.332031 291.140625 634.203125 291.089844 634.121094 290.988281 C 634.039062 290.90625 633.996094 290.820312 633.996094 290.730469 C 633.996094 290.660156 634.007812 290.59375 634.03125 290.523438 L 634.101562 290.265625 C 634.136719 290.117188 634.222656 289.988281 634.351562 289.878906 C 634.480469 289.769531 634.628906 289.714844 634.792969 289.714844 C 635.351562 289.714844 635.871094 289.707031 636.355469 289.6875 C 636.84375 289.671875 637.210938 289.613281 637.457031 289.507812 C 637.671875 289.394531 637.835938 289.082031 637.953125 288.578125 L 642.980469 269.179688 C 643.027344 268.960938 643.050781 268.789062 643.050781 268.660156 C 643.050781 268.492188 643.015625 268.382812 642.945312 268.335938 C 642.789062 268.246094 642.46875 268.1875 641.984375 268.164062 C 641.5 268.140625 640.976562 268.128906 640.421875 268.128906 C 640.246094 268.128906 640.113281 268.070312 640.03125 267.957031 C 639.960938 267.886719 639.925781 267.800781 639.925781 267.699219 C 639.925781 267.628906 639.941406 267.566406 639.976562 267.507812 L 640.03125 267.234375 C 640.160156 266.890625 640.390625 266.71875 640.722656 266.714844 C 642.203125 266.765625 643.695312 266.785156 645.199219 266.785156 C 646.703125 266.785156 648.203125 266.765625 649.707031 266.714844 C 650.039062 266.71875 650.203125 266.871094 650.203125 267.179688 L 650.203125 267.320312 L 650.097656 267.613281 C 650.027344 267.957031 649.808594 268.128906 649.441406 268.128906 C 648.882812 268.128906 648.359375 268.140625 647.859375 268.164062 C 647.363281 268.1875 647.003906 268.246094 646.777344 268.34375 C 646.554688 268.441406 646.375 268.742188 646.246094 269.246094 L 643.421875 280.210938 L 656.363281 269.78125 C 656.613281 269.621094 656.785156 269.421875 656.878906 269.179688 C 656.960938 269.03125 657.003906 268.902344 657.003906 268.800781 C 657.003906 268.753906 656.992188 268.714844 656.96875 268.679688 C 656.910156 268.3125 656.59375 268.128906 656.027344 268.128906 C 655.695312 268.128906 655.53125 267.972656 655.53125 267.664062 L 655.53125 267.527344 L 655.636719 267.234375 C 655.707031 266.890625 655.921875 266.71875 656.273438 266.714844 C 656.949219 266.742188 657.621094 266.757812 658.289062 266.769531 C 658.960938 266.78125 659.636719 266.785156 660.324219 266.785156 L 661.585938 266.785156 C 662.011719 266.785156 662.441406 266.765625 662.878906 266.714844 C 663.058594 266.71875 663.207031 266.773438 663.324219 266.890625 C 663.371094 266.980469 663.394531 267.066406 663.394531 267.148438 C 663.394531 267.21875 663.378906 267.28125 663.339844 267.335938 Z M 663.289062 267.59375 "/>
</g>
<path style="fill:none;stroke-width:10;stroke-linecap:round;stroke-linejoin:round;stroke:rgb(0%,0%,0%);stroke-opacity:1;stroke-miterlimit:10;" d="M 1990.717045 2094.025249 L 3919.297028 2094.025249 " transform="matrix(0.219525,0,0,-0.219228,0,480.858333)"/>
<path style="fill:none;stroke-width:10;stroke-linecap:round;stroke-linejoin:round;stroke:rgb(0%,0%,0%);stroke-opacity:1;stroke-miterlimit:10;" d="M 2005.183664 2095.575432 C 1961.730426 2095.575432 1921.426747 2051.992126 1896.12351 2007.197181 C 1870.802479 1962.402237 1850.07233 1909.678196 1830.747917 1820.337763 C 1811.423504 1730.997329 1795.818062 1665.978733 1783.308796 1591.534311 C 1770.799531 1517.089889 1755.229677 1455.171659 1733.378499 1401.111253 C 1711.527321 1347.033029 1690.74379 1300.01081 1661.294523 1250.173316 C 1631.827463 1200.335823 1600.420843 1161.367429 1510.008925 1118.960123 C 1419.597007 1076.570635 1360.912003 1061.21135 1317.672294 1067.465537 " transform="matrix(0.219525,0,0,-0.219228,0,480.858333)"/>
<path style="fill:none;stroke-width:10;stroke-linecap:round;stroke-linejoin:round;stroke:rgb(0%,0%,0%);stroke-opacity:1;stroke-miterlimit:10;" d="M 3919.297028 2096.038706 C 3960.098942 2087.218699 3997.964827 2075.458689 4024.246741 2044.04521 C 4050.528654 2012.613913 4069.728509 1955.773869 4082.771598 1898.933824 C 4095.832481 1842.075961 4116.3491 1772.513725 4135.317631 1689.071114 C 4154.286161 1605.646322 4169.286604 1532.538265 4190.123517 1471.475308 C 4210.96043 1410.430169 4243.772785 1350.293758 4277.118964 1299.636628 C 4310.465142 1248.979497 4348.651321 1211.151468 4380.485 1181.573263 C 4412.300885 1151.995058 4450.166769 1123.984854 4492.712508 1097.881197 C 4535.258246 1071.813177 4593.195897 1060.748077 4675.173402 1069.568084 " transform="matrix(0.219525,0,0,-0.219228,0,480.858333)"/>
<path style=" stroke:none;fill-rule:nonzero;fill:rgb(0%,0%,0%);fill-opacity:1;" d="M 312.292969 389.960938 L 1003.289062 389.960938 L 1003.289062 391.605469 L 312.292969 391.605469 Z M 289.261719 390.78125 L 312.3125 395.714844 L 312.3125 385.847656 Z M 1026.316406 390.78125 L 1003.265625 385.847656 L 1003.265625 395.714844 Z M 1026.316406 390.78125 "/>
<path style="fill:none;stroke-width:5;stroke-linecap:round;stroke-linejoin:round;stroke:rgb(0%,0%,0%);stroke-opacity:1;stroke-miterlimit:10;" d="M 1317.672294 600.664445 L 1317.672294 221.101239 " transform="matrix(0.219525,0,0,-0.219228,0,480.858333)"/>
<path style="fill:none;stroke-width:5;stroke-linecap:round;stroke-linejoin:round;stroke:rgb(0%,0%,0%);stroke-opacity:1;stroke-miterlimit:10;" d="M 4675.173402 600.664445 L 4675.173402 221.101239 " transform="matrix(0.219525,0,0,-0.219228,0,480.858333)"/>
<g clip-path="url(#clip2)" clip-rule="nonzero">
<path style=" stroke:none;fill-rule:evenodd;fill:rgb(0%,0%,0%);fill-opacity:1;" d="M 653.144531 427.988281 C 653.109375 428.140625 653.03125 428.265625 652.90625 428.367188 C 652.78125 428.472656 652.636719 428.523438 652.472656 428.523438 C 652.09375 428.523438 651.714844 428.578125 651.34375 428.6875 C 650.972656 428.796875 650.585938 428.949219 650.183594 429.140625 C 649.683594 429.371094 649.195312 429.640625 648.714844 429.953125 C 648.238281 430.261719 647.757812 430.617188 647.269531 431.019531 L 640.203125 436.714844 L 644.480469 447.765625 C 644.648438 448.191406 644.8125 448.59375 644.980469 448.972656 C 645.144531 449.351562 645.335938 449.621094 645.546875 449.78125 C 645.714844 449.917969 645.945312 450.007812 646.25 450.046875 C 646.550781 450.089844 646.902344 450.105469 647.304688 450.105469 C 647.613281 450.105469 647.765625 450.257812 647.765625 450.554688 L 647.765625 450.707031 L 647.695312 451.019531 C 647.566406 451.363281 647.335938 451.535156 647.003906 451.535156 C 645.984375 451.464844 644.980469 451.433594 643.984375 451.433594 L 643.222656 451.433594 C 641.96875 451.457031 640.683594 451.488281 639.371094 451.535156 C 639.039062 451.535156 638.871094 451.386719 638.871094 451.085938 L 638.871094 450.933594 L 638.980469 450.640625 C 639.050781 450.273438 639.269531 450.09375 639.636719 450.105469 C 640.0625 450.105469 640.40625 450.085938 640.667969 450.039062 C 640.925781 449.992188 641.128906 449.882812 641.269531 449.710938 C 641.386719 449.574219 641.445312 449.417969 641.445312 449.246094 L 641.445312 449.144531 C 641.421875 448.9375 641.347656 448.648438 641.214844 448.28125 L 637.558594 438.867188 L 632.730469 442.722656 L 631.113281 449.039062 C 631.042969 449.292969 631.007812 449.492188 631.007812 449.640625 C 631.007812 449.78125 631.039062 449.867188 631.097656 449.898438 C 631.261719 450.003906 631.589844 450.0625 632.074219 450.082031 C 632.558594 450.097656 633.078125 450.105469 633.636719 450.105469 C 633.96875 450.105469 634.132812 450.246094 634.132812 450.519531 C 634.132812 450.589844 634.121094 450.664062 634.097656 450.742188 L 634.027344 451 C 633.953125 451.359375 633.722656 451.535156 633.332031 451.535156 C 631.855469 451.464844 630.363281 451.433594 628.859375 451.433594 C 627.378906 451.433594 625.882812 451.464844 624.367188 451.535156 C 624.191406 451.535156 624.0625 451.484375 623.976562 451.378906 C 623.894531 451.300781 623.855469 451.214844 623.855469 451.121094 C 623.855469 451.054688 623.867188 450.984375 623.890625 450.914062 L 623.960938 450.65625 C 623.996094 450.507812 624.078125 450.382812 624.210938 450.269531 C 624.339844 450.164062 624.488281 450.105469 624.652344 450.105469 C 625.207031 450.105469 625.730469 450.097656 626.214844 450.082031 C 626.699219 450.0625 627.066406 450.003906 627.316406 449.898438 C 627.527344 449.785156 627.695312 449.476562 627.8125 448.96875 L 632.835938 429.570312 C 632.882812 429.355469 632.90625 429.183594 632.90625 429.054688 C 632.90625 428.882812 632.871094 428.777344 632.800781 428.730469 C 632.648438 428.636719 632.328125 428.582031 631.84375 428.558594 C 631.359375 428.535156 630.835938 428.523438 630.28125 428.523438 C 630.101562 428.523438 629.972656 428.464844 629.890625 428.351562 C 629.816406 428.28125 629.78125 428.195312 629.78125 428.089844 C 629.78125 428.023438 629.800781 427.960938 629.835938 427.902344 L 629.890625 427.625 C 630.019531 427.285156 630.25 427.113281 630.582031 427.109375 C 632.0625 427.15625 633.554688 427.179688 635.054688 427.179688 C 636.558594 427.179688 638.0625 427.15625 639.566406 427.109375 C 639.898438 427.113281 640.0625 427.265625 640.0625 427.574219 L 640.0625 427.714844 L 639.957031 428.003906 C 639.882812 428.351562 639.664062 428.523438 639.296875 428.523438 C 638.742188 428.523438 638.214844 428.535156 637.71875 428.558594 C 637.222656 428.582031 636.859375 428.640625 636.636719 428.738281 C 636.410156 428.835938 636.234375 429.136719 636.101562 429.640625 L 633.28125 440.605469 L 646.222656 430.175781 C 646.472656 430.015625 646.644531 429.8125 646.738281 429.570312 C 646.820312 429.421875 646.863281 429.296875 646.863281 429.191406 C 646.863281 429.148438 646.851562 429.109375 646.824219 429.074219 C 646.765625 428.707031 646.453125 428.523438 645.882812 428.523438 C 645.554688 428.523438 645.386719 428.367188 645.386719 428.058594 L 645.386719 427.917969 L 645.496094 427.625 C 645.566406 427.285156 645.777344 427.113281 646.132812 427.109375 C 646.808594 427.132812 647.480469 427.152344 648.148438 427.164062 C 648.816406 427.175781 649.496094 427.179688 650.183594 427.179688 L 651.441406 427.179688 C 651.867188 427.179688 652.300781 427.15625 652.738281 427.109375 C 652.914062 427.113281 653.0625 427.167969 653.183594 427.28125 C 653.230469 427.375 653.253906 427.460938 653.253906 427.539062 C 653.253906 427.609375 653.234375 427.675781 653.199219 427.730469 Z M 653.144531 427.988281 "/>
</g>
<path style=" stroke:none;fill-rule:evenodd;fill:rgb(0%,0%,0%);fill-opacity:1;" d="M 661.953125 456.535156 L 652.890625 456.535156 L 652.890625 456.003906 C 652.890625 455.96875 652.914062 455.910156 652.957031 455.832031 L 656.597656 452.304688 C 657.027344 451.878906 657.464844 451.445312 657.90625 451.003906 C 658.347656 450.558594 658.746094 450.105469 659.09375 449.644531 C 659.441406 449.179688 659.71875 448.703125 659.929688 448.210938 C 660.136719 447.722656 660.238281 447.203125 660.238281 446.664062 C 660.238281 446.210938 660.171875 445.785156 660.039062 445.386719 C 659.90625 444.992188 659.714844 444.644531 659.460938 444.347656 C 659.207031 444.046875 658.894531 443.808594 658.515625 443.625 C 658.136719 443.441406 657.699219 443.347656 657.199219 443.347656 C 656.457031 443.347656 655.804688 443.546875 655.234375 443.941406 C 654.667969 444.335938 654.289062 444.773438 654.105469 445.246094 C 654.066406 445.261719 654.128906 445.269531 654.28125 445.265625 L 654.472656 445.265625 C 654.695312 445.3125 654.886719 445.382812 655.050781 445.476562 C 655.214844 445.566406 655.351562 445.695312 655.464844 445.859375 C 655.574219 446.023438 655.628906 446.222656 655.628906 446.453125 C 655.628906 446.839844 655.488281 447.132812 655.207031 447.339844 C 654.925781 447.546875 654.609375 447.648438 654.261719 447.648438 C 653.925781 447.648438 653.613281 447.546875 653.324219 447.339844 C 653.035156 447.132812 652.890625 446.839844 652.890625 446.453125 C 652.890625 445.914062 653.007812 445.402344 653.246094 444.921875 C 653.484375 444.4375 653.808594 444.019531 654.214844 443.667969 C 654.625 443.3125 655.105469 443.035156 655.664062 442.828125 C 656.21875 442.625 656.808594 442.519531 657.433594 442.519531 C 658.207031 442.519531 658.914062 442.621094 659.554688 442.824219 C 660.195312 443.027344 660.746094 443.316406 661.199219 443.695312 C 661.648438 444.074219 662.003906 444.515625 662.261719 445.011719 C 662.515625 445.511719 662.644531 446.0625 662.644531 446.664062 C 662.644531 447.332031 662.472656 447.949219 662.132812 448.511719 C 661.792969 449.074219 661.367188 449.589844 660.863281 450.058594 C 660.359375 450.527344 659.824219 450.96875 659.253906 451.382812 C 658.6875 451.796875 658.171875 452.199219 657.710938 452.59375 L 655.152344 454.742188 L 658.503906 454.742188 C 658.96875 454.742188 659.40625 454.738281 659.8125 454.734375 C 660.214844 454.726562 660.558594 454.714844 660.839844 454.695312 C 661.125 454.675781 661.269531 454.664062 661.273438 454.65625 C 661.335938 454.609375 661.390625 454.519531 661.441406 454.386719 C 661.496094 454.25 661.542969 454.09375 661.585938 453.910156 C 661.632812 453.726562 661.675781 453.539062 661.722656 453.351562 C 661.765625 453.160156 661.804688 452.953125 661.84375 452.726562 L 662.667969 452.726562 Z M 661.953125 456.535156 "/>
<path style=" stroke:none;fill-rule:evenodd;fill:rgb(0%,0%,0%);fill-opacity:1;" d="M 673.917969 448.265625 C 674.054688 448.355469 674.121094 448.46875 674.121094 448.601562 L 674.121094 448.640625 C 674.109375 448.796875 674.039062 448.925781 673.917969 449.035156 C 673.800781 449.144531 673.667969 449.214844 673.519531 449.246094 C 673.464844 449.261719 673.410156 449.269531 673.339844 449.265625 C 673.230469 449.269531 673.121094 449.234375 673.003906 449.171875 C 672.710938 448.980469 672.390625 448.820312 672.042969 448.699219 C 671.703125 448.578125 671.328125 448.515625 670.925781 448.515625 C 670.441406 448.515625 669.957031 448.550781 669.480469 448.617188 C 668.996094 448.683594 668.519531 448.808594 668.054688 448.988281 C 667.710938 449.117188 667.425781 449.269531 667.191406 449.441406 C 666.957031 449.613281 666.804688 449.808594 666.730469 450.027344 C 666.699219 450.121094 666.683594 450.210938 666.683594 450.296875 C 666.683594 450.433594 666.71875 450.558594 666.785156 450.675781 C 666.878906 450.875 667.027344 451.042969 667.230469 451.183594 C 667.332031 451.261719 667.4375 451.328125 667.539062 451.378906 C 668.160156 451.132812 668.8125 451.011719 669.511719 451.011719 L 669.96875 451.011719 C 670.191406 451.011719 670.40625 451.03125 670.613281 451.066406 C 670.824219 451.101562 671 451.164062 671.148438 451.253906 C 671.289062 451.316406 671.359375 451.421875 671.359375 451.5625 C 671.359375 451.613281 671.351562 451.660156 671.335938 451.707031 C 671.285156 451.894531 671.15625 452.035156 670.957031 452.128906 C 670.75 452.226562 670.535156 452.289062 670.300781 452.3125 C 670.074219 452.339844 669.847656 452.351562 669.632812 452.351562 L 669.175781 452.351562 C 668.867188 452.351562 668.554688 452.332031 668.242188 452.289062 C 667.929688 452.246094 667.65625 452.179688 667.417969 452.082031 C 667.367188 452.109375 667.300781 452.144531 667.21875 452.1875 C 667.136719 452.234375 667.050781 452.28125 666.960938 452.332031 C 666.621094 452.539062 666.332031 452.777344 666.09375 453.050781 C 665.855469 453.324219 665.695312 453.613281 665.613281 453.914062 C 665.585938 454.035156 665.570312 454.15625 665.570312 454.269531 C 665.570312 454.417969 665.605469 454.5625 665.671875 454.703125 C 665.78125 454.953125 665.960938 455.164062 666.207031 455.332031 C 666.523438 455.550781 666.902344 455.695312 667.339844 455.773438 C 667.78125 455.851562 668.246094 455.890625 668.742188 455.890625 C 669.121094 455.890625 669.496094 455.878906 669.867188 455.851562 C 670.238281 455.824219 670.578125 455.769531 670.886719 455.6875 C 671.195312 455.605469 671.46875 455.488281 671.710938 455.335938 C 671.953125 455.183594 672.136719 454.992188 672.257812 454.75 C 672.332031 454.644531 672.425781 454.570312 672.527344 454.53125 L 672.621094 454.53125 C 672.664062 454.53125 672.710938 454.539062 672.765625 454.558594 C 672.828125 454.597656 672.882812 454.660156 672.929688 454.742188 L 672.929688 454.839844 C 672.929688 454.878906 672.917969 454.917969 672.894531 454.953125 C 672.6875 455.320312 672.421875 455.632812 672.101562 455.890625 C 671.777344 456.148438 671.417969 456.359375 671.011719 456.523438 C 670.613281 456.691406 670.195312 456.8125 669.757812 456.882812 C 669.316406 456.953125 668.886719 456.988281 668.464844 456.988281 C 667.902344 456.988281 667.371094 456.917969 666.875 456.777344 C 666.375 456.636719 665.9375 456.40625 665.558594 456.089844 C 665.242188 455.816406 665.015625 455.488281 664.878906 455.109375 C 664.785156 454.917969 664.734375 454.699219 664.734375 454.460938 C 664.734375 454.269531 664.765625 454.074219 664.824219 453.875 C 664.953125 453.417969 665.199219 452.996094 665.570312 452.613281 C 665.941406 452.226562 666.328125 451.933594 666.730469 451.734375 C 666.5 451.601562 666.277344 451.382812 666.0625 451.078125 C 665.933594 450.878906 665.871094 450.664062 665.871094 450.433594 C 665.871094 450.28125 665.894531 450.125 665.9375 449.972656 C 666.066406 449.578125 666.308594 449.222656 666.671875 448.90625 C 667.035156 448.589844 667.425781 448.332031 667.84375 448.140625 C 668.382812 447.875 668.941406 447.691406 669.511719 447.582031 C 670.082031 447.472656 670.640625 447.417969 671.179688 447.417969 C 671.730469 447.417969 672.226562 447.496094 672.679688 447.65625 C 673.128906 447.820312 673.542969 448.019531 673.917969 448.265625 Z M 670.546875 451.65625 C 670.554688 451.640625 670.480469 451.644531 670.332031 451.675781 C 670.179688 451.710938 669.839844 451.726562 669.3125 451.726562 C 668.925781 451.71875 668.703125 451.710938 668.640625 451.695312 C 668.734375 451.671875 668.980469 451.65625 669.378906 451.65625 C 669.898438 451.65625 670.238281 451.671875 670.402344 451.695312 C 670.5 451.710938 670.546875 451.695312 670.546875 451.65625 Z M 670.546875 451.65625 "/>
</g>
</svg>
