<?xml version="1.0" encoding="UTF-8"?>
<svg xmlns="http://www.w3.org/2000/svg" xmlns:xlink="http://www.w3.org/1999/xlink" width="1404pt" height="489pt" viewBox="0 0 1404 489" version="1.2">
<g id="surface1">
<path style=" stroke:none;fill-rule:evenodd;fill:rgb(0%,0%,0%);fill-opacity:1;" d="M 53.328125 150.960938 C 53.328125 157.898438 47.691406 163.523438 40.746094 163.523438 C 33.792969 163.523438 28.160156 157.898438 28.160156 150.960938 C 28.160156 144.019531 33.792969 138.398438 40.746094 138.398438 C 47.691406 138.398438 53.328125 144.019531 53.328125 150.960938 Z M 53.328125 150.960938 "/>
<path style=" stroke:none;fill-rule:evenodd;fill:rgb(0%,0%,0%);fill-opacity:1;" d="M 261.042969 150.960938 C 261.042969 157.898438 255.410156 163.523438 248.457031 163.523438 C 241.511719 163.523438 235.875 157.898438 235.875 150.960938 C 235.875 144.019531 241.511719 138.398438 248.457031 138.398438 C 255.410156 138.398438 261.042969 144.019531 261.042969 150.960938 Z M 261.042969 150.960938 "/>
<path style="fill:none;stroke-width:10;stroke-linecap:round;stroke-linejoin:round;stroke:rgb(0%,0%,0%);stroke-opacity:1;stroke-miterlimit:10;" d="M 85.003803 716.467715 L 518.326806 716.467715 " transform="matrix(0.479344,0,0,-0.478572,0,493.8426)"/>
<path style="fill:none;stroke-width:10;stroke-linecap:round;stroke-linejoin:round;stroke:rgb(0%,0%,0%);stroke-opacity:1;stroke-miterlimit:10;" d="M 518.326806 716.467715 L 951.666108 716.467715 " transform="matrix(0.479344,0,0,-0.478572,0,493.8426)"/>
<path style=" stroke:none;fill-rule:evenodd;fill:rgb(0%,0%,0%);fill-opacity:1;" d="M 468.761719 150.960938 C 468.761719 157.898438 463.125 163.523438 456.175781 163.523438 C 449.226562 163.523438 443.59375 157.898438 443.59375 150.960938 C 443.59375 144.019531 449.226562 138.398438 456.175781 138.398438 C 463.125 138.398438 468.761719 144.019531 468.761719 150.960938 Z M 468.761719 150.960938 "/>
<path style=" stroke:none;fill-rule:evenodd;fill:rgb(0%,0%,0%);fill-opacity:1;" d="M 695.648438 150.960938 C 695.648438 157.898438 690.015625 163.523438 683.066406 163.523438 C 676.113281 163.523438 670.484375 157.898438 670.484375 150.960938 C 670.484375 144.019531 676.113281 138.398438 683.066406 138.398438 C 690.015625 138.398438 695.648438 144.019531 695.648438 150.960938 Z M 695.648438 150.960938 "/>
<path style="fill:none;stroke-width:10;stroke-linecap:round;stroke-linejoin:round;stroke:rgb(0%,0%,0%);stroke-opacity:1;stroke-miterlimit:10;" d="M 951.666108 716.467715 L 1425.001446 716.467715 " transform="matrix(0.479344,0,0,-0.478572,0,493.8426)"/>
<path style="fill:none;stroke-width:0.2948;stroke-linecap:round;stroke-linejoin:round;stroke:rgb(0%,0%,0%);stroke-opacity:1;stroke-miterlimit:10;" d="M 6.640383 7.993604 L 14.872086 7.993604 " transform="matrix(9.587078,0,-0.000000814274,-9.571394,166.658447,444.822431)"/>
<path style=" stroke:none;fill-rule:evenodd;fill:rgb(0%,0%,0%);fill-opacity:1;" d="M 264.390625 333.296875 L 264.390625 340.148438 C 264.390625 340.550781 264.464844 340.933594 264.621094 341.277344 C 264.773438 341.632812 265.023438 341.863281 265.367188 341.96875 C 265.902344 342.21875 266.777344 342.351562 267.984375 342.378906 C 269.183594 342.398438 270.398438 342.410156 271.636719 342.410156 L 271.636719 345.308594 C 268.082031 345.175781 264.601562 345.109375 261.1875 345.109375 C 257.824219 345.109375 254.285156 345.175781 250.570312 345.308594 L 250.570312 342.410156 C 251.847656 342.410156 253.078125 342.398438 254.261719 342.378906 C 255.445312 342.351562 256.328125 342.21875 256.90625 341.96875 C 257.257812 341.863281 257.511719 341.632812 257.675781 341.277344 C 257.835938 340.933594 257.917969 340.550781 257.917969 340.148438 L 257.917969 333.296875 L 238.070312 333.296875 L 238.070312 330.558594 L 261.328125 296.027344 C 261.632812 295.625 262.015625 295.421875 262.476562 295.421875 L 263.25 295.421875 C 264.003906 295.421875 264.390625 295.804688 264.390625 296.570312 L 264.390625 330.320312 L 271.875 330.320312 L 271.875 333.296875 Z M 258.265625 304.90625 L 241.132812 330.320312 L 258.265625 330.320312 Z M 258.265625 304.90625 "/>
<path style=" stroke:none;fill-rule:evenodd;fill:rgb(0%,0%,0%);fill-opacity:1;" d="M 292.527344 332.195312 C 292.527344 332.816406 292.191406 333.152344 291.5 333.199219 L 291.070312 333.199219 C 290.503906 333.199219 290.148438 332.875 290.003906 332.234375 L 287.089844 299.335938 L 287.089844 298.992188 C 287.089844 297.957031 287.464844 297.078125 288.195312 296.339844 C 289.046875 295.566406 290.082031 295.171875 291.289062 295.171875 C 292.449219 295.171875 293.476562 295.566406 294.378906 296.339844 C 295.136719 297.078125 295.519531 297.957031 295.519531 298.992188 L 295.519531 299.335938 Z M 295.519531 342.359375 C 295.519531 343.488281 295.097656 344.445312 294.273438 345.25 C 293.449219 346.054688 292.449219 346.457031 291.289062 346.457031 C 290.128906 346.457031 289.144531 346.054688 288.320312 345.25 C 287.503906 344.445312 287.089844 343.488281 287.089844 342.359375 C 287.089844 341.230469 287.503906 340.273438 288.320312 339.480469 C 289.144531 338.695312 290.128906 338.292969 291.289062 338.292969 C 292.449219 338.292969 293.449219 338.695312 294.273438 339.480469 C 295.097656 340.273438 295.519531 341.230469 295.519531 342.359375 Z M 295.519531 342.359375 "/>
<path style=" stroke:none;fill-rule:evenodd;fill:rgb(0%,0%,0%);fill-opacity:1;" d="M 282.835938 433.121094 L 254.496094 433.121094 L 254.496094 431.265625 C 254.496094 431.132812 254.5625 430.929688 254.703125 430.660156 L 266.085938 418.304688 C 267.4375 416.820312 268.800781 415.300781 270.179688 413.75 C 271.558594 412.195312 272.796875 410.609375 273.890625 408.988281 C 274.984375 407.371094 275.84375 405.699219 276.496094 403.976562 C 277.148438 402.253906 277.476562 400.449219 277.476562 398.558594 C 277.476562 396.960938 277.265625 395.472656 276.851562 394.085938 C 276.429688 392.703125 275.828125 391.488281 275.039062 390.441406 C 274.246094 389.394531 273.257812 388.550781 272.078125 387.910156 C 270.898438 387.269531 269.527344 386.949219 267.976562 386.945312 C 265.65625 386.949219 263.601562 387.640625 261.824219 389.023438 C 260.050781 390.40625 258.871094 391.933594 258.289062 393.59375 C 258.175781 393.640625 258.363281 393.664062 258.847656 393.664062 L 259.4375 393.664062 C 260.136719 393.824219 260.738281 394.066406 261.25 394.390625 C 261.761719 394.71875 262.191406 395.167969 262.539062 395.742188 C 262.882812 396.316406 263.066406 397.007812 263.066406 397.816406 C 263.066406 399.167969 262.625 400.203125 261.738281 400.921875 C 260.855469 401.644531 259.867188 402.003906 258.777344 402 C 257.734375 402.003906 256.757812 401.644531 255.855469 400.921875 C 254.949219 400.203125 254.496094 399.167969 254.496094 397.816406 C 254.496094 395.925781 254.867188 394.136719 255.609375 392.449219 C 256.355469 390.761719 257.363281 389.300781 258.640625 388.0625 C 259.914062 386.824219 261.425781 385.847656 263.160156 385.125 C 264.90625 384.40625 266.757812 384.046875 268.703125 384.042969 C 271.121094 384.046875 273.324219 384.398438 275.335938 385.109375 C 277.339844 385.816406 279.058594 386.835938 280.464844 388.164062 C 281.886719 389.492188 282.996094 391.027344 283.792969 392.769531 C 284.597656 394.515625 284.992188 396.445312 284.992188 398.558594 C 284.992188 400.898438 284.464844 403.054688 283.390625 405.023438 C 282.328125 406.996094 281.003906 408.800781 279.421875 410.441406 C 277.847656 412.085938 276.171875 413.632812 274.398438 415.082031 C 272.613281 416.535156 271.015625 417.945312 269.574219 419.316406 L 261.5625 426.84375 L 272.050781 426.84375 C 273.507812 426.847656 274.867188 426.835938 276.132812 426.8125 C 277.398438 426.792969 278.472656 426.746094 279.355469 426.679688 C 280.238281 426.609375 280.6875 426.566406 280.714844 426.539062 C 280.898438 426.382812 281.070312 426.070312 281.234375 425.597656 C 281.398438 425.125 281.550781 424.570312 281.683594 423.925781 C 281.828125 423.285156 281.972656 422.632812 282.105469 421.96875 C 282.25 421.304688 282.375 420.578125 282.488281 419.789062 L 285.070312 419.789062 Z M 282.835938 433.121094 "/>
<path style="fill:none;stroke-width:0.2948;stroke-linecap:round;stroke-linejoin:round;stroke:rgb(0%,0%,0%);stroke-opacity:1;stroke-miterlimit:10;" d="M 17.857061 8.767394 L 23.016186 8.767394 " transform="matrix(9.587078,0,-0.000000814274,-9.571394,166.658447,444.822431)"/>
<path style="fill:none;stroke-width:0.2948;stroke-linecap:round;stroke-linejoin:round;stroke:rgb(0%,0%,0%);stroke-opacity:1;stroke-miterlimit:10;" d="M 17.857061 7.219814 L 23.016186 7.219814 " transform="matrix(9.587078,0,-0.000000814274,-9.571394,166.658447,444.822431)"/>
<path style=" stroke:none;fill-rule:evenodd;fill:rgb(0%,0%,0%);fill-opacity:1;" d="M 433.515625 389.21875 C 429.25 389.082031 425.097656 389.015625 421.050781 389.015625 C 417.015625 389.015625 412.863281 389.082031 408.589844 389.21875 L 408.589844 386.3125 L 410.996094 386.3125 C 411.761719 386.316406 412.480469 386.304688 413.152344 386.28125 C 413.824219 386.261719 414.464844 386.203125 415.070312 386.113281 C 415.671875 386.023438 416.191406 385.933594 416.632812 385.839844 C 417.003906 385.777344 417.3125 385.570312 417.550781 385.21875 C 417.800781 384.871094 417.917969 384.484375 417.917969 384.050781 L 417.917969 346.007812 C 416.765625 346.570312 415.335938 347.003906 413.640625 347.300781 C 411.945312 347.585938 410.082031 347.730469 408.070312 347.730469 L 408.070312 344.859375 C 410.851562 344.867188 413.429688 344.535156 415.777344 343.871094 C 418.136719 343.203125 420.179688 341.957031 421.894531 340.140625 L 422.96875 340.140625 C 423.734375 340.140625 424.121094 340.511719 424.121094 341.25 L 424.121094 384.050781 C 424.121094 384.503906 424.234375 384.898438 424.464844 385.234375 C 424.695312 385.574219 425.039062 385.777344 425.480469 385.839844 C 425.84375 385.933594 426.324219 386.023438 426.910156 386.113281 C 427.484375 386.203125 428.136719 386.261719 428.875 386.28125 C 429.601562 386.304688 430.3125 386.316406 431.011719 386.3125 L 433.515625 386.3125 Z M 433.515625 389.21875 "/>
<path style=" stroke:none;fill-rule:evenodd;fill:rgb(0%,0%,0%);fill-opacity:1;" d="M 470.867188 389.21875 L 442.527344 389.21875 L 442.527344 387.359375 C 442.527344 387.226562 442.59375 387.027344 442.738281 386.753906 L 454.117188 374.398438 C 455.46875 372.914062 456.832031 371.394531 458.210938 369.84375 C 459.601562 368.292969 460.828125 366.703125 461.921875 365.085938 C 463.015625 363.464844 463.886719 361.792969 464.527344 360.070312 C 465.179688 358.351562 465.507812 356.542969 465.507812 354.652344 C 465.507812 353.058594 465.296875 351.566406 464.882812 350.179688 C 464.460938 348.800781 463.859375 347.585938 463.070312 346.535156 C 462.277344 345.492188 461.296875 344.648438 460.109375 344.007812 C 458.929688 343.367188 457.558594 343.039062 456.007812 343.039062 C 453.6875 343.039062 451.632812 343.738281 449.859375 345.117188 C 448.085938 346.503906 446.90625 348.027344 446.324219 349.691406 C 446.207031 349.738281 446.390625 349.757812 446.878906 349.757812 L 447.472656 349.757812 C 448.171875 349.917969 448.769531 350.160156 449.285156 350.484375 C 449.792969 350.8125 450.226562 351.261719 450.570312 351.835938 C 450.925781 352.410156 451.097656 353.101562 451.097656 353.910156 C 451.097656 355.261719 450.65625 356.296875 449.773438 357.015625 C 448.882812 357.738281 447.90625 358.097656 446.8125 358.09375 C 445.765625 358.097656 444.789062 357.738281 443.886719 357.015625 C 442.976562 356.296875 442.527344 355.261719 442.527344 353.910156 C 442.527344 352.019531 442.902344 350.230469 443.640625 348.542969 C 444.386719 346.859375 445.394531 345.394531 446.667969 344.160156 C 447.941406 342.914062 449.457031 341.941406 451.191406 341.222656 C 452.9375 340.503906 454.789062 340.140625 456.734375 340.140625 C 459.152344 340.140625 461.355469 340.496094 463.367188 341.203125 C 465.371094 341.910156 467.089844 342.933594 468.496094 344.253906 C 469.917969 345.585938 471.027344 347.117188 471.824219 348.871094 C 472.628906 350.609375 473.03125 352.539062 473.03125 354.652344 C 473.03125 356.992188 472.496094 359.148438 471.421875 361.117188 C 470.359375 363.089844 469.035156 364.894531 467.460938 366.535156 C 465.878906 368.179688 464.203125 369.726562 462.429688 371.175781 C 460.65625 372.628906 459.046875 374.039062 457.605469 375.410156 L 449.59375 382.9375 L 460.082031 382.9375 C 461.539062 382.941406 462.910156 382.929688 464.164062 382.90625 C 465.429688 382.886719 466.503906 382.839844 467.386719 382.773438 C 468.269531 382.703125 468.726562 382.660156 468.746094 382.636719 C 468.929688 382.480469 469.101562 382.164062 469.265625 381.691406 C 469.429688 381.21875 469.582031 380.664062 469.726562 380.019531 C 469.859375 379.378906 470.003906 378.726562 470.136719 378.0625 C 470.28125 377.402344 470.40625 376.671875 470.519531 375.882812 L 473.101562 375.882812 Z M 470.867188 389.21875 "/>
<path style="fill:none;stroke-width:0.2948;stroke-linecap:round;stroke-linejoin:round;stroke:rgb(0%,0%,0%);stroke-opacity:1;stroke-miterlimit:10;" d="M 6.49274 9.603925 L 11.651963 9.603925 " transform="matrix(9.586898,0.0000014048,0,-9.57141,804.555541,242.884028)"/>
<path style="fill:none;stroke-width:0.2948;stroke-linecap:round;stroke-linejoin:round;stroke:rgb(0%,0%,0%);stroke-opacity:1;stroke-miterlimit:10;" d="M 9.072352 12.184037 L 9.072352 7.024629 " transform="matrix(9.586898,0.0000014048,0,-9.57141,804.555541,242.884028)"/>
<path style=" stroke:none;fill-rule:evenodd;fill:rgb(0%,0%,0%);fill-opacity:1;" d="M 1206.703125 150.960938 C 1206.703125 157.898438 1201.0625 163.523438 1194.117188 163.523438 C 1187.167969 163.523438 1181.535156 157.898438 1181.535156 150.960938 C 1181.535156 144.019531 1187.167969 138.398438 1194.117188 138.398438 C 1201.0625 138.398438 1206.703125 144.019531 1206.703125 150.960938 Z M 1206.703125 150.960938 "/>
<path style="fill:none;stroke-width:10;stroke-linecap:round;stroke-linejoin:round;stroke:rgb(0%,0%,0%);stroke-opacity:1;stroke-miterlimit:10;" d="M 2491.14684 716.467715 L 2787.702626 935.739666 " transform="matrix(0.479344,0,0,-0.478572,0,493.8426)"/>
<path style=" stroke:none;fill-rule:evenodd;fill:rgb(0%,0%,0%);fill-opacity:1;" d="M 1348.851562 46.023438 C 1348.851562 52.960938 1343.21875 58.585938 1336.269531 58.585938 C 1329.324219 58.585938 1323.683594 52.960938 1323.683594 46.023438 C 1323.683594 39.082031 1329.324219 33.460938 1336.269531 33.460938 C 1343.21875 33.460938 1348.851562 39.082031 1348.851562 46.023438 Z M 1348.851562 46.023438 "/>
<path style="fill:none;stroke-width:10;stroke-linecap:round;stroke-linejoin:round;stroke:rgb(0%,0%,0%);stroke-opacity:1;stroke-miterlimit:10;" d="M 2491.14684 716.467715 L 2840.98993 590.686716 " transform="matrix(0.479344,0,0,-0.478572,0,493.8426)"/>
<path style=" stroke:none;fill-rule:evenodd;fill:rgb(0%,0%,0%);fill-opacity:1;" d="M 1374.394531 211.15625 C 1374.394531 218.09375 1368.757812 223.71875 1361.8125 223.71875 C 1354.863281 223.71875 1349.230469 218.09375 1349.230469 211.15625 C 1349.230469 204.214844 1354.863281 198.59375 1361.8125 198.59375 C 1368.757812 198.59375 1374.394531 204.214844 1374.394531 211.15625 Z M 1374.394531 211.15625 "/>
<path style="fill:none;stroke-width:10;stroke-linecap:round;stroke-linejoin:round;stroke:rgb(0%,0%,0%);stroke-opacity:1;stroke-miterlimit:10;" d="M 2491.14684 716.467715 L 2188.022837 590.686716 " transform="matrix(0.479344,0,0,-0.478572,0,493.8426)"/>
<path style=" stroke:none;fill-rule:evenodd;fill:rgb(0%,0%,0%);fill-opacity:1;" d="M 1061.398438 211.15625 C 1061.398438 218.09375 1055.765625 223.71875 1048.816406 223.71875 C 1041.863281 223.71875 1036.230469 218.09375 1036.230469 211.15625 C 1036.230469 204.214844 1041.863281 198.59375 1048.816406 198.59375 C 1055.765625 198.59375 1061.398438 204.214844 1061.398438 211.15625 Z M 1061.398438 211.15625 "/>
<path style=" stroke:none;fill-rule:evenodd;fill:rgb(0%,0%,0%);fill-opacity:1;" d="M 1203.539062 377.195312 L 1203.539062 384.050781 C 1203.539062 384.457031 1203.613281 384.832031 1203.765625 385.179688 C 1203.917969 385.53125 1204.167969 385.761719 1204.511719 385.871094 C 1205.050781 386.121094 1205.921875 386.257812 1207.125 386.277344 C 1208.332031 386.300781 1209.554688 386.3125 1210.78125 386.3125 L 1210.78125 389.214844 C 1207.230469 389.078125 1203.75 389.011719 1200.335938 389.011719 C 1196.96875 389.011719 1193.429688 389.078125 1189.714844 389.214844 L 1189.714844 386.3125 C 1190.992188 386.3125 1192.222656 386.300781 1193.40625 386.277344 C 1194.589844 386.257812 1195.472656 386.121094 1196.050781 385.871094 C 1196.402344 385.761719 1196.65625 385.53125 1196.820312 385.179688 C 1196.980469 384.832031 1197.0625 384.457031 1197.0625 384.050781 L 1197.0625 377.195312 L 1177.214844 377.195312 L 1177.214844 374.460938 L 1200.476562 339.929688 C 1200.777344 339.527344 1201.160156 339.324219 1201.625 339.320312 L 1202.390625 339.320312 C 1203.15625 339.324219 1203.539062 339.707031 1203.539062 340.46875 L 1203.539062 374.226562 L 1211.027344 374.226562 L 1211.027344 377.195312 Z M 1197.410156 348.808594 L 1180.277344 374.226562 L 1197.410156 374.226562 Z M 1197.410156 348.808594 "/>
</g>
</svg>
