<?xml version="1.0" encoding="UTF-8"?>
<svg xmlns="http://www.w3.org/2000/svg" xmlns:xlink="http://www.w3.org/1999/xlink" width="809.04pt" height="789pt" viewBox="0 0 809.04 789" version="1.2">
<defs>
<clipPath id="clip1">
  <path d="M 767.085938 703 L 786 703 L 786 722 L 767.085938 722 Z M 767.085938 703 "/>
</clipPath>
<clipPath id="clip2">
  <path d="M 41.777344 34 L 69 34 L 69 61 L 41.777344 61 Z M 41.777344 34 "/>
</clipPath>
<clipPath id="clip3">
  <path d="M 246.8125 741 L 266 741 L 266 759 L 246.8125 759 Z M 246.8125 741 "/>
</clipPath>
<clipPath id="clip4">
  <path d="M 312.804688 741 L 332 741 L 332 759 L 312.804688 759 Z M 312.804688 741 "/>
</clipPath>
<clipPath id="clip5">
  <path d="M 440.289062 741 L 459 741 L 459 759 L 440.289062 759 Z M 440.289062 741 "/>
</clipPath>
<clipPath id="clip6">
  <path d="M 494.144531 741 L 513 741 L 513 759 L 494.144531 759 Z M 494.144531 741 "/>
</clipPath>
<clipPath id="clip7">
  <path d="M 28.691406 594 L 47 594 L 47 620 L 28.691406 620 Z M 28.691406 594 "/>
</clipPath>
<clipPath id="clip8">
  <path d="M 29.851562 520 L 48 520 L 48 546 L 29.851562 546 Z M 29.851562 520 "/>
</clipPath>
<clipPath id="clip9">
  <path d="M 28.960938 480 L 47 480 L 47 506 L 28.960938 506 Z M 28.960938 480 "/>
</clipPath>
<clipPath id="clip10">
  <path d="M 28.761719 389 L 47 389 L 47 415 L 28.761719 415 Z M 28.761719 389 "/>
</clipPath>
</defs>
<g id="surface1">
<path style=" stroke:none;fill-rule:nonzero;fill:rgb(0%,0%,0%);fill-opacity:1;" d="M 24.636719 708.59375 L 710.152344 708.59375 L 710.152344 710.535156 L 24.636719 710.535156 C 24.101562 710.535156 23.664062 710.101562 23.664062 709.5625 C 23.664062 709.027344 24.101562 708.59375 24.636719 708.59375 Z M 737.351562 709.5625 L 710.121094 701.789062 L 710.121094 717.339844 Z M 737.351562 709.5625 "/>
<path style=" stroke:none;fill-rule:nonzero;fill:rgb(0%,0%,0%);fill-opacity:1;" d="M 80.15625 747.074219 L 80.15625 128.914062 L 82.101562 128.914062 L 82.101562 747.074219 C 82.101562 747.609375 81.664062 748.046875 81.128906 748.046875 C 80.589844 748.046875 80.15625 747.609375 80.15625 747.074219 Z M 81.128906 101.726562 L 73.347656 128.941406 L 88.910156 128.941406 Z M 81.128906 101.726562 "/>
<g clip-path="url(#clip1)" clip-rule="nonzero">
<path style=" stroke:none;fill-rule:evenodd;fill:rgb(0%,0%,0%);fill-opacity:1;" d="M 785.679688 706.902344 C 785.539062 707.460938 785.253906 707.882812 784.824219 708.160156 C 784.394531 708.441406 783.964844 708.582031 783.527344 708.582031 C 783.082031 708.582031 782.707031 708.4375 782.414062 708.152344 C 782.195312 707.941406 782.082031 707.667969 782.066406 707.332031 C 782.066406 707.195312 782.09375 707.019531 782.144531 706.808594 C 782.285156 706.335938 782.503906 705.980469 782.796875 705.738281 C 783.09375 705.492188 783.296875 705.355469 783.414062 705.316406 C 783.171875 705.128906 782.671875 705.039062 781.914062 705.035156 C 781.246094 705.039062 780.652344 705.382812 780.125 706.074219 C 779.601562 706.761719 779.207031 707.59375 778.953125 708.5625 L 777.183594 715.390625 C 777.003906 716.074219 776.871094 716.726562 776.78125 717.347656 C 776.730469 717.558594 776.703125 717.746094 776.703125 717.90625 C 776.703125 718.292969 776.765625 718.660156 776.894531 719.007812 C 777.023438 719.382812 777.214844 719.679688 777.472656 719.902344 C 777.730469 720.128906 778.054688 720.238281 778.453125 720.238281 C 778.964844 720.238281 779.460938 720.105469 779.933594 719.839844 C 780.40625 719.570312 780.84375 719.210938 781.242188 718.757812 C 781.636719 718.304688 781.988281 717.777344 782.296875 717.171875 C 782.605469 716.570312 782.847656 715.949219 783.027344 715.3125 C 783.105469 714.992188 783.324219 714.832031 783.679688 714.828125 L 784.125 714.828125 C 784.457031 714.832031 784.625 714.953125 784.625 715.203125 C 784.625 715.277344 784.605469 715.347656 784.566406 715.40625 C 784.386719 716.15625 784.09375 716.890625 783.691406 717.621094 C 783.289062 718.347656 782.816406 718.992188 782.277344 719.550781 C 781.742188 720.109375 781.128906 720.570312 780.441406 720.929688 C 779.757812 721.289062 779.023438 721.46875 778.242188 721.46875 C 777.449219 721.46875 776.761719 721.300781 776.1875 720.957031 C 775.609375 720.617188 775.140625 720.171875 774.78125 719.625 C 774.667969 719.488281 774.578125 719.347656 774.511719 719.203125 C 774.449219 719.0625 774.429688 719.039062 774.453125 719.136719 C 774.148438 719.648438 773.660156 720.164062 772.992188 720.6875 C 772.328125 721.210938 771.558594 721.46875 770.6875 721.46875 C 770.199219 721.46875 769.71875 721.40625 769.246094 721.285156 C 768.769531 721.160156 768.355469 720.96875 768.003906 720.707031 C 767.652344 720.445312 767.386719 720.128906 767.207031 719.753906 C 767.117188 719.53125 767.074219 719.289062 767.074219 719.027344 C 767.074219 718.839844 767.097656 718.621094 767.148438 718.375 C 767.289062 717.816406 767.578125 717.394531 768.015625 717.117188 C 768.453125 716.835938 768.886719 716.695312 769.320312 716.695312 C 769.769531 716.695312 770.15625 716.839844 770.476562 717.125 C 770.695312 717.335938 770.800781 717.609375 770.800781 717.945312 C 770.800781 718.117188 770.777344 718.292969 770.726562 718.46875 C 770.609375 718.902344 770.402344 719.253906 770.101562 719.523438 C 769.800781 719.789062 769.585938 719.9375 769.457031 719.960938 C 769.699219 720.160156 770.191406 720.253906 770.9375 720.238281 C 771.601562 720.238281 772.207031 719.890625 772.742188 719.195312 C 773.28125 718.5 773.671875 717.667969 773.917969 716.695312 L 775.703125 709.828125 C 775.882812 709.183594 776.023438 708.550781 776.128906 707.925781 C 776.152344 707.730469 776.164062 707.542969 776.164062 707.367188 C 776.164062 706.984375 776.109375 706.621094 775.992188 706.285156 C 775.863281 705.914062 775.667969 705.613281 775.398438 705.382812 C 775.128906 705.152344 774.792969 705.039062 774.398438 705.035156 C 773.882812 705.039062 773.386719 705.171875 772.90625 705.4375 C 772.425781 705.707031 771.988281 706.0625 771.589844 706.511719 C 771.195312 706.957031 770.839844 707.480469 770.535156 708.070312 C 770.226562 708.660156 770 709.285156 769.859375 709.941406 C 769.71875 710.277344 769.484375 710.453125 769.148438 710.464844 L 768.726562 710.464844 C 768.417969 710.464844 768.265625 710.3125 768.265625 709.996094 L 768.265625 709.867188 C 768.457031 709.097656 768.753906 708.347656 769.148438 707.621094 C 769.546875 706.894531 770.019531 706.25 770.570312 705.691406 C 771.121094 705.128906 771.738281 704.671875 772.417969 704.320312 C 773.097656 703.964844 773.832031 703.789062 774.628906 703.785156 C 775.398438 703.789062 776.074219 703.957031 776.664062 704.289062 C 777.253906 704.625 777.734375 705.074219 778.105469 705.632812 C 778.183594 705.769531 778.253906 705.917969 778.320312 706.074219 C 778.382812 706.230469 778.402344 706.269531 778.375 706.191406 C 778.695312 705.648438 779.191406 705.109375 779.855469 704.582031 C 780.523438 704.050781 781.285156 703.789062 782.144531 703.785156 C 782.632812 703.789062 783.113281 703.847656 783.59375 703.964844 C 784.074219 704.082031 784.492188 704.273438 784.84375 704.535156 C 785.199219 704.792969 785.457031 705.117188 785.625 705.503906 C 785.714844 705.726562 785.757812 705.984375 785.757812 706.265625 C 785.757812 706.453125 785.730469 706.664062 785.679688 706.902344 Z M 785.679688 706.902344 "/>
</g>
<g clip-path="url(#clip2)" clip-rule="nonzero">
<path style=" stroke:none;fill-rule:evenodd;fill:rgb(0%,0%,0%);fill-opacity:1;" d="M 67.515625 42.957031 C 67.480469 43.117188 67.398438 43.257812 67.277344 43.375 C 67.15625 43.496094 67.023438 43.554688 66.882812 43.550781 C 66.855469 43.578125 66.792969 43.589844 66.691406 43.589844 C 66.535156 43.589844 66.460938 43.578125 66.460938 43.550781 L 66.421875 43.550781 C 66.089844 43.554688 65.921875 43.417969 65.921875 43.140625 L 65.921875 43.011719 C 66 42.429688 66.0625 41.835938 66.113281 41.238281 C 66.164062 40.78125 66.191406 40.359375 66.191406 39.972656 L 66.191406 39.652344 C 66.164062 39.15625 66.105469 38.710938 66.015625 38.3125 C 65.929688 37.914062 65.773438 37.585938 65.554688 37.320312 C 65.070312 36.75 64.375 36.410156 63.46875 36.304688 C 62.566406 36.199219 61.582031 36.148438 60.519531 36.144531 L 56.617188 36.144531 C 55.9375 36.148438 55.539062 36.199219 55.425781 36.296875 C 55.359375 36.347656 55.230469 36.710938 55.039062 37.394531 L 52.539062 47.003906 L 55.117188 47.003906 C 55.796875 47.003906 56.421875 46.980469 56.992188 46.929688 C 57.5625 46.878906 58.050781 46.6875 58.460938 46.351562 C 58.820312 46.066406 59.101562 45.632812 59.308594 45.054688 C 59.511719 44.476562 59.71875 43.839844 59.921875 43.140625 C 59.960938 42.96875 60.054688 42.828125 60.203125 42.722656 C 60.347656 42.617188 60.507812 42.566406 60.671875 42.5625 L 60.980469 42.5625 C 61.160156 42.566406 61.320312 42.625 61.460938 42.75 C 61.511719 42.851562 61.539062 42.945312 61.539062 43.03125 C 61.539062 43.105469 61.519531 43.175781 61.480469 43.234375 L 59.132812 52.46875 C 58.996094 52.84375 58.742188 53.03125 58.382812 53.027344 L 58.078125 53.027344 C 57.730469 53.03125 57.546875 52.867188 57.519531 52.542969 L 57.519531 52.394531 C 57.726562 51.648438 57.875 50.984375 57.960938 50.398438 C 57.988281 50.261719 58 50.132812 58 50.007812 C 58 49.660156 57.921875 49.378906 57.769531 49.167969 C 57.550781 48.871094 57.171875 48.691406 56.625 48.636719 C 56.082031 48.582031 55.476562 48.550781 54.808594 48.550781 L 52.117188 48.550781 L 49.636719 58.269531 C 49.585938 58.457031 49.558594 58.640625 49.558594 58.8125 C 49.558594 59.011719 49.609375 59.128906 49.714844 59.164062 C 49.984375 59.28125 50.46875 59.351562 51.164062 59.382812 C 51.863281 59.414062 52.578125 59.429688 53.308594 59.425781 C 53.667969 59.429688 53.847656 59.578125 53.847656 59.875 C 53.847656 59.949219 53.835938 60.03125 53.808594 60.117188 L 53.730469 60.417969 C 53.589844 60.789062 53.347656 60.976562 53 60.976562 C 51.246094 60.925781 49.484375 60.890625 47.714844 60.863281 L 46.925781 60.863281 C 45.402344 60.863281 43.871094 60.902344 42.332031 60.976562 C 42.140625 60.976562 42 60.917969 41.910156 60.808594 C 41.820312 60.722656 41.777344 60.628906 41.773438 60.527344 C 41.777344 60.453125 41.789062 60.378906 41.8125 60.304688 L 41.890625 60.023438 C 41.929688 59.863281 42.019531 59.726562 42.160156 59.605469 C 42.300781 59.488281 42.460938 59.429688 42.640625 59.425781 C 43.242188 59.429688 43.804688 59.417969 44.332031 59.402344 C 44.855469 59.382812 45.253906 59.316406 45.523438 59.203125 C 45.753906 59.078125 45.933594 58.742188 46.0625 58.195312 L 51.464844 37.300781 C 51.539062 37.03125 51.578125 36.8125 51.578125 36.648438 C 51.578125 36.5 51.546875 36.414062 51.484375 36.390625 C 51.304688 36.277344 50.949219 36.210938 50.425781 36.183594 C 49.902344 36.160156 49.335938 36.148438 48.734375 36.144531 C 48.375 36.148438 48.195312 35.980469 48.195312 35.644531 L 48.195312 35.511719 L 48.273438 35.195312 C 48.375 34.785156 48.625 34.582031 49.023438 34.578125 L 67.996094 34.578125 C 68.355469 34.582031 68.535156 34.78125 68.535156 35.175781 Z M 67.515625 42.957031 "/>
</g>
<path style=" stroke:none;fill-rule:evenodd;fill:rgb(0%,0%,0%);fill-opacity:1;" d="M 107.585938 46.835938 C 107.445312 47.394531 107.160156 47.816406 106.730469 48.097656 C 106.304688 48.375 105.871094 48.515625 105.433594 48.515625 C 104.988281 48.515625 104.613281 48.371094 104.320312 48.085938 C 104.101562 47.875 103.988281 47.601562 103.972656 47.265625 C 103.972656 47.128906 103.996094 46.953125 104.050781 46.742188 C 104.195312 46.269531 104.414062 45.914062 104.703125 45.671875 C 105 45.429688 105.207031 45.289062 105.320312 45.25 C 105.078125 45.0625 104.578125 44.972656 103.820312 44.96875 C 103.15625 44.972656 102.5625 45.316406 102.03125 46.007812 C 101.507812 46.695312 101.117188 47.527344 100.859375 48.496094 L 99.089844 55.324219 C 98.914062 56.007812 98.78125 56.660156 98.6875 57.28125 C 98.640625 57.492188 98.613281 57.679688 98.613281 57.839844 C 98.613281 58.230469 98.675781 58.59375 98.804688 58.941406 C 98.929688 59.316406 99.121094 59.613281 99.382812 59.839844 C 99.636719 60.0625 99.960938 60.175781 100.363281 60.171875 C 100.875 60.175781 101.367188 60.042969 101.839844 59.773438 C 102.316406 59.507812 102.753906 59.144531 103.148438 58.691406 C 103.546875 58.238281 103.898438 57.710938 104.203125 57.105469 C 104.515625 56.503906 104.753906 55.882812 104.9375 55.25 C 105.015625 54.925781 105.230469 54.765625 105.589844 54.765625 L 106.03125 54.765625 C 106.363281 54.765625 106.527344 54.890625 106.527344 55.136719 C 106.527344 55.210938 106.511719 55.28125 106.472656 55.34375 C 106.296875 56.089844 106.003906 56.824219 105.601562 57.554688 C 105.195312 58.28125 104.722656 58.925781 104.183594 59.484375 C 103.648438 60.042969 103.039062 60.503906 102.351562 60.863281 C 101.664062 61.226562 100.933594 61.40625 100.148438 61.40625 C 99.355469 61.40625 98.671875 61.234375 98.09375 60.890625 C 97.519531 60.550781 97.046875 60.105469 96.6875 59.558594 C 96.574219 59.421875 96.488281 59.28125 96.417969 59.140625 C 96.355469 58.996094 96.335938 58.976562 96.363281 59.074219 C 96.054688 59.582031 95.570312 60.101562 94.898438 60.621094 C 94.234375 61.144531 93.46875 61.40625 92.59375 61.40625 C 92.109375 61.40625 91.628906 61.34375 91.152344 61.21875 C 90.679688 61.09375 90.265625 60.902344 89.914062 60.640625 C 89.5625 60.378906 89.296875 60.0625 89.117188 59.6875 C 89.027344 59.464844 88.984375 59.222656 88.980469 58.960938 C 88.984375 58.777344 89.007812 58.558594 89.058594 58.308594 C 89.199219 57.75 89.488281 57.328125 89.921875 57.050781 C 90.359375 56.769531 90.792969 56.628906 91.230469 56.628906 C 91.679688 56.628906 92.0625 56.773438 92.382812 57.058594 C 92.601562 57.269531 92.710938 57.542969 92.710938 57.878906 C 92.710938 58.054688 92.683594 58.230469 92.632812 58.402344 C 92.519531 58.835938 92.308594 59.1875 92.007812 59.457031 C 91.707031 59.726562 91.492188 59.871094 91.363281 59.894531 C 91.609375 60.09375 92.101562 60.1875 92.84375 60.171875 C 93.511719 60.175781 94.113281 59.828125 94.652344 59.128906 C 95.191406 58.433594 95.578125 57.601562 95.824219 56.628906 L 97.613281 49.765625 C 97.792969 49.117188 97.933594 48.484375 98.03125 47.863281 C 98.058594 47.664062 98.074219 47.476562 98.074219 47.300781 C 98.074219 46.917969 98.015625 46.558594 97.898438 46.21875 C 97.773438 45.847656 97.578125 45.546875 97.304688 45.316406 C 97.035156 45.085938 96.703125 44.972656 96.304688 44.96875 C 95.792969 44.972656 95.292969 45.105469 94.816406 45.371094 C 94.335938 45.640625 93.898438 45.996094 93.5 46.445312 C 93.101562 46.894531 92.75 47.414062 92.441406 48.003906 C 92.132812 48.59375 91.910156 49.21875 91.769531 49.875 C 91.628906 50.214844 91.390625 50.386719 91.058594 50.398438 L 90.632812 50.398438 C 90.328125 50.398438 90.171875 50.246094 90.171875 49.933594 L 90.171875 49.800781 C 90.367188 49.03125 90.660156 48.28125 91.058594 47.554688 C 91.453125 46.828125 91.929688 46.183594 92.480469 45.625 C 93.03125 45.0625 93.644531 44.605469 94.324219 44.253906 C 95.003906 43.898438 95.738281 43.722656 96.535156 43.71875 C 97.304688 43.722656 97.984375 43.890625 98.570312 44.226562 C 99.164062 44.558594 99.644531 45.007812 100.015625 45.566406 C 100.09375 45.703125 100.164062 45.851562 100.226562 46.007812 C 100.289062 46.164062 100.308594 46.203125 100.285156 46.125 C 100.605469 45.582031 101.097656 45.042969 101.761719 44.515625 C 102.429688 43.984375 103.195312 43.722656 104.050781 43.71875 C 104.535156 43.722656 105.023438 43.78125 105.5 43.898438 C 105.984375 44.015625 106.398438 44.207031 106.75 44.46875 C 107.105469 44.726562 107.363281 45.050781 107.53125 45.4375 C 107.617188 45.660156 107.664062 45.917969 107.664062 46.203125 C 107.664062 46.390625 107.636719 46.601562 107.585938 46.835938 Z M 107.585938 46.835938 "/>
<path style=" stroke:none;fill-rule:evenodd;fill:rgb(0%,0%,0%);fill-opacity:1;" d="M 85.070312 67.738281 C 72.609375 59.53125 72.609375 39.46875 85.070312 31.261719 L 87.027344 31.261719 C 75.789062 39.46875 75.789062 59.53125 87.027344 67.738281 "/>
<path style=" stroke:none;fill-rule:evenodd;fill:rgb(0%,0%,0%);fill-opacity:1;" d="M 111.589844 31.261719 C 124.054688 39.46875 124.054688 59.53125 111.589844 67.738281 L 109.636719 67.738281 C 120.875 59.53125 120.875 39.46875 109.636719 31.261719 "/>
<path style="fill:none;stroke-width:10;stroke-linecap:round;stroke-linejoin:round;stroke:rgb(0%,0%,0%);stroke-opacity:1;stroke-miterlimit:10;" d="M 718.900324 602.361063 L 1011.397923 737.366432 " transform="matrix(0.259337,0,0,-0.259191,0,791.396146)"/>
<path style="fill:none;stroke-width:10;stroke-linecap:round;stroke-linejoin:round;stroke:rgb(0%,0%,0%);stroke-opacity:1;stroke-miterlimit:10;" d="M 1011.397923 737.366432 L 1261.404368 1022.357672 " transform="matrix(0.259337,0,0,-0.259191,0,791.396146)"/>
<path style="fill:none;stroke-width:10;stroke-linecap:round;stroke-linejoin:round;stroke:rgb(0%,0%,0%);stroke-opacity:1;stroke-miterlimit:10;" d="M 1261.404368 1022.357672 L 1756.401463 1022.357672 " transform="matrix(0.259337,0,0,-0.259191,0,791.396146)"/>
<path style=" stroke:none;fill-rule:nonzero;fill:rgb(0%,0%,0%);fill-opacity:1;" d="M 454.722656 525.371094 L 503.246094 489.296875 L 504.792969 491.378906 L 456.273438 527.449219 C 455.695312 527.875 454.886719 527.757812 454.457031 527.183594 C 454.03125 526.609375 454.152344 525.796875 454.722656 525.371094 Z M 504.679688 479.644531 L 507.65625 478.304688 L 510.769531 478.15625 L 513.738281 479.195312 L 516.199219 481.355469 L 517.535156 484.328125 L 517.6875 487.441406 L 516.644531 490.410156 L 514.484375 492.863281 L 511.511719 494.203125 L 508.394531 494.351562 L 505.425781 493.3125 L 502.964844 491.15625 L 501.628906 488.179688 L 501.480469 485.070312 L 502.519531 482.097656 Z M 504.632812 483.621094 L 504.886719 483.195312 L 504.011719 485.683594 L 504.082031 485.195312 L 504.207031 487.8125 L 504.09375 487.339844 L 505.21875 489.835938 L 504.890625 489.394531 L 506.945312 491.199219 L 506.519531 490.949219 L 509.015625 491.824219 L 508.523438 491.75 L 511.140625 491.625 L 510.671875 491.738281 L 513.164062 490.617188 L 512.722656 490.945312 L 514.53125 488.890625 L 514.28125 489.316406 L 515.15625 486.824219 L 515.082031 487.3125 L 514.957031 484.695312 L 515.070312 485.167969 L 513.949219 482.671875 L 514.277344 483.117188 L 512.214844 481.308594 L 512.644531 481.558594 L 510.152344 480.6875 L 510.640625 480.757812 L 508.023438 480.882812 L 508.492188 480.769531 L 506 481.890625 L 506.441406 481.5625 Z M 504.632812 483.621094 "/>
<path style=" stroke:none;fill-rule:evenodd;fill:rgb(0%,0%,0%);fill-opacity:1;" d="M 516.359375 395.195312 C 516.359375 398.953125 513.3125 401.996094 509.554688 401.996094 C 505.796875 401.996094 502.746094 398.953125 502.746094 395.195312 C 502.746094 391.4375 505.796875 388.390625 509.554688 388.390625 C 513.3125 388.390625 516.359375 391.4375 516.359375 395.195312 Z M 516.359375 395.195312 "/>
<path style="fill:none;stroke-width:10;stroke-linecap:round;stroke-linejoin:round;stroke:rgb(0%,0%,0%);stroke-opacity:1;stroke-miterlimit:10;" d="M 1964.835562 1528.605198 L 2403.905803 1957.358016 " transform="matrix(0.259337,0,0,-0.259191,0,791.396146)"/>
<path style="fill:none;stroke-width:5;stroke-linecap:round;stroke-linejoin:round;stroke:rgb(0%,0%,0%);stroke-opacity:1;stroke-dasharray:20,10;stroke-miterlimit:10;" d="M 1011.397923 737.366432 L 1011.397923 315.727092 " transform="matrix(0.259337,0,0,-0.259191,0,791.396146)"/>
<g clip-path="url(#clip3)" clip-rule="nonzero">
<path style=" stroke:none;fill-rule:evenodd;fill:rgb(0%,0%,0%);fill-opacity:1;" d="M 265.40625 744.292969 C 265.265625 744.855469 264.980469 745.273438 264.550781 745.554688 C 264.121094 745.832031 263.691406 745.972656 263.253906 745.972656 C 262.804688 745.972656 262.433594 745.828125 262.140625 745.542969 C 261.921875 745.332031 261.808594 745.058594 261.792969 744.722656 C 261.792969 744.585938 261.816406 744.410156 261.871094 744.199219 C 262.011719 743.726562 262.230469 743.371094 262.523438 743.128906 C 262.816406 742.886719 263.023438 742.746094 263.136719 742.707031 C 262.894531 742.523438 262.394531 742.429688 261.636719 742.425781 C 260.972656 742.429688 260.375 742.773438 259.851562 743.464844 C 259.328125 744.152344 258.933594 744.984375 258.679688 745.953125 L 256.910156 752.78125 C 256.730469 753.464844 256.597656 754.117188 256.507812 754.738281 C 256.453125 754.953125 256.429688 755.136719 256.429688 755.300781 C 256.429688 755.6875 256.492188 756.050781 256.621094 756.398438 C 256.75 756.773438 256.941406 757.074219 257.199219 757.296875 C 257.457031 757.519531 257.78125 757.632812 258.179688 757.628906 C 258.691406 757.632812 259.183594 757.5 259.660156 757.230469 C 260.132812 756.964844 260.570312 756.601562 260.964844 756.148438 C 261.363281 755.695312 261.714844 755.167969 262.023438 754.5625 C 262.332031 753.960938 262.574219 753.339844 262.753906 752.707031 C 262.832031 752.382812 263.050781 752.222656 263.40625 752.222656 L 263.847656 752.222656 C 264.183594 752.222656 264.351562 752.347656 264.351562 752.59375 C 264.351562 752.667969 264.332031 752.738281 264.292969 752.800781 C 264.113281 753.546875 263.820312 754.285156 263.417969 755.011719 C 263.015625 755.738281 262.542969 756.382812 262.003906 756.941406 C 261.464844 757.5 260.855469 757.960938 260.167969 758.320312 C 259.484375 758.683594 258.75 758.863281 257.96875 758.863281 C 257.171875 758.863281 256.488281 758.691406 255.910156 758.347656 C 255.335938 758.007812 254.867188 757.5625 254.507812 757.015625 C 254.390625 756.878906 254.300781 756.738281 254.238281 756.597656 C 254.175781 756.453125 254.152344 756.433594 254.179688 756.53125 C 253.871094 757.039062 253.386719 757.558594 252.71875 758.078125 C 252.054688 758.601562 251.285156 758.863281 250.410156 758.863281 C 249.925781 758.863281 249.445312 758.800781 248.96875 758.675781 C 248.496094 758.550781 248.082031 758.359375 247.730469 758.097656 C 247.378906 757.835938 247.113281 757.519531 246.933594 757.144531 C 246.84375 756.921875 246.800781 756.679688 246.796875 756.417969 C 246.800781 756.234375 246.824219 756.015625 246.875 755.765625 C 247.015625 755.207031 247.304688 754.785156 247.742188 754.507812 C 248.175781 754.226562 248.613281 754.085938 249.046875 754.085938 C 249.496094 754.085938 249.882812 754.230469 250.199219 754.515625 C 250.417969 754.726562 250.527344 755 250.527344 755.335938 C 250.527344 755.511719 250.5 755.6875 250.449219 755.859375 C 250.335938 756.292969 250.128906 756.648438 249.828125 756.914062 C 249.527344 757.183594 249.308594 757.328125 249.179688 757.351562 C 249.425781 757.550781 249.917969 757.644531 250.660156 757.628906 C 251.328125 757.632812 251.929688 757.285156 252.46875 756.585938 C 253.007812 755.890625 253.398438 755.058594 253.640625 754.085938 L 255.429688 747.222656 C 255.609375 746.574219 255.75 745.941406 255.851562 745.320312 C 255.878906 745.121094 255.890625 744.933594 255.890625 744.757812 C 255.890625 744.375 255.832031 744.015625 255.71875 743.675781 C 255.589844 743.304688 255.390625 743.003906 255.121094 742.773438 C 254.851562 742.542969 254.519531 742.429688 254.121094 742.425781 C 253.609375 742.429688 253.113281 742.5625 252.632812 742.828125 C 252.152344 743.097656 251.710938 743.453125 251.316406 743.902344 C 250.917969 744.351562 250.566406 744.871094 250.257812 745.460938 C 249.953125 746.050781 249.726562 746.675781 249.585938 747.332031 C 249.445312 747.671875 249.207031 747.84375 248.875 747.855469 L 248.453125 747.855469 C 248.144531 747.855469 247.992188 747.703125 247.992188 747.390625 L 247.992188 747.257812 C 248.183594 746.488281 248.476562 745.738281 248.875 745.011719 C 249.269531 744.285156 249.746094 743.640625 250.296875 743.082031 C 250.847656 742.523438 251.464844 742.066406 252.144531 741.710938 C 252.820312 741.355469 253.558594 741.179688 254.351562 741.175781 C 255.121094 741.179688 255.800781 741.347656 256.390625 741.683594 C 256.980469 742.019531 257.460938 742.464844 257.832031 743.023438 C 257.910156 743.160156 257.980469 743.308594 258.042969 743.464844 C 258.109375 743.621094 258.128906 743.660156 258.101562 743.582031 C 258.421875 743.039062 258.914062 742.5 259.582031 741.972656 C 260.25 741.445312 261.011719 741.179688 261.871094 741.175781 C 262.355469 741.179688 262.839844 741.238281 263.320312 741.355469 C 263.800781 741.476562 264.21875 741.664062 264.570312 741.925781 C 264.921875 742.1875 265.183594 742.507812 265.347656 742.894531 C 265.4375 743.117188 265.484375 743.375 265.484375 743.660156 C 265.484375 743.847656 265.457031 744.058594 265.40625 744.292969 Z M 265.40625 744.292969 "/>
</g>
<path style=" stroke:none;fill-rule:evenodd;fill:rgb(0%,0%,0%);fill-opacity:1;" d="M 278.121094 756.582031 C 278.121094 757.585938 278.042969 758.582031 277.886719 759.574219 C 277.730469 760.566406 277.34375 761.5 276.722656 762.367188 C 276.28125 763.003906 275.691406 763.488281 274.953125 763.832031 C 274.210938 764.171875 273.410156 764.34375 272.539062 764.34375 C 271.703125 764.34375 270.914062 764.171875 270.171875 763.832031 C 269.429688 763.488281 268.835938 763.003906 268.394531 762.367188 C 267.773438 761.5 267.386719 760.566406 267.230469 759.574219 C 267.074219 758.582031 266.996094 757.585938 266.996094 756.582031 C 266.996094 755.566406 267.074219 754.550781 267.230469 753.535156 C 267.386719 752.523438 267.773438 751.574219 268.394531 750.6875 C 268.835938 750.050781 269.425781 749.550781 270.164062 749.195312 C 270.90625 748.839844 271.695312 748.664062 272.539062 748.664062 C 273.402344 748.664062 274.203125 748.839844 274.945312 749.195312 C 275.6875 749.550781 276.28125 750.050781 276.722656 750.6875 C 277.34375 751.574219 277.730469 752.523438 277.886719 753.535156 C 278.042969 754.550781 278.121094 755.566406 278.121094 756.582031 Z M 275.734375 756.214844 C 275.734375 755.777344 275.730469 755.3125 275.722656 754.828125 C 275.714844 754.339844 275.695312 753.863281 275.664062 753.394531 C 275.628906 752.929688 275.574219 752.488281 275.488281 752.074219 C 275.402344 751.660156 275.300781 751.304688 275.179688 751.011719 C 274.9375 750.539062 274.585938 750.152344 274.121094 749.847656 C 273.652344 749.546875 273.125 749.394531 272.539062 749.394531 C 271.96875 749.394531 271.453125 749.546875 270.992188 749.855469 C 270.53125 750.160156 270.175781 750.546875 269.9375 751.011719 C 269.816406 751.304688 269.714844 751.660156 269.628906 752.074219 C 269.542969 752.488281 269.484375 752.929688 269.453125 753.394531 C 269.421875 753.863281 269.402344 754.339844 269.394531 754.828125 C 269.386719 755.3125 269.382812 755.777344 269.382812 756.214844 C 269.382812 756.703125 269.386719 757.21875 269.394531 757.757812 C 269.402344 758.296875 269.421875 758.820312 269.453125 759.324219 C 269.484375 759.828125 269.542969 760.308594 269.628906 760.761719 C 269.714844 761.214844 269.816406 761.59375 269.9375 761.898438 C 270.160156 762.40625 270.507812 762.824219 270.980469 763.152344 C 271.449219 763.480469 271.96875 763.644531 272.539062 763.644531 C 273.132812 763.644531 273.667969 763.480469 274.136719 763.152344 C 274.609375 762.824219 274.953125 762.40625 275.179688 761.898438 C 275.300781 761.59375 275.402344 761.214844 275.488281 760.761719 C 275.574219 760.308594 275.628906 759.828125 275.664062 759.324219 C 275.695312 758.820312 275.714844 758.296875 275.722656 757.757812 C 275.730469 757.21875 275.734375 756.703125 275.734375 756.214844 Z M 275.734375 756.214844 "/>
<path style="fill:none;stroke-width:5;stroke-linecap:round;stroke-linejoin:round;stroke:rgb(0%,0%,0%);stroke-opacity:1;stroke-dasharray:20,10;stroke-miterlimit:10;" d="M 1261.404368 1022.357672 L 1261.404368 315.727092 " transform="matrix(0.259337,0,0,-0.259191,0,791.396146)"/>
<g clip-path="url(#clip4)" clip-rule="nonzero">
<path style=" stroke:none;fill-rule:evenodd;fill:rgb(0%,0%,0%);fill-opacity:1;" d="M 331.402344 744.292969 C 331.261719 744.855469 330.976562 745.273438 330.546875 745.554688 C 330.117188 745.832031 329.683594 745.972656 329.25 745.972656 C 328.800781 745.972656 328.429688 745.828125 328.132812 745.542969 C 327.917969 745.332031 327.800781 745.058594 327.789062 744.722656 C 327.789062 744.585938 327.8125 744.410156 327.863281 744.199219 C 328.003906 743.726562 328.222656 743.371094 328.515625 743.128906 C 328.8125 742.886719 329.019531 742.746094 329.132812 742.707031 C 328.890625 742.523438 328.390625 742.429688 327.632812 742.425781 C 326.96875 742.429688 326.371094 742.773438 325.847656 743.464844 C 325.320312 744.152344 324.929688 744.984375 324.671875 745.953125 L 322.902344 752.78125 C 322.722656 753.464844 322.589844 754.117188 322.5 754.738281 C 322.449219 754.953125 322.421875 755.136719 322.421875 755.300781 C 322.421875 755.6875 322.488281 756.050781 322.617188 756.398438 C 322.742188 756.773438 322.9375 757.074219 323.191406 757.296875 C 323.449219 757.519531 323.777344 757.632812 324.171875 757.628906 C 324.6875 757.632812 325.179688 757.5 325.652344 757.230469 C 326.128906 756.964844 326.566406 756.601562 326.960938 756.148438 C 327.359375 755.695312 327.710938 755.167969 328.019531 754.5625 C 328.324219 753.960938 328.570312 753.339844 328.75 752.707031 C 328.824219 752.382812 329.042969 752.222656 329.402344 752.222656 L 329.84375 752.222656 C 330.175781 752.222656 330.34375 752.347656 330.34375 752.59375 C 330.34375 752.667969 330.324219 752.738281 330.289062 752.800781 C 330.105469 753.546875 329.816406 754.285156 329.414062 755.011719 C 329.007812 755.738281 328.539062 756.382812 328 756.941406 C 327.460938 757.5 326.847656 757.960938 326.164062 758.320312 C 325.476562 758.683594 324.742188 758.863281 323.960938 758.863281 C 323.167969 758.863281 322.480469 758.691406 321.90625 758.347656 C 321.328125 758.007812 320.859375 757.5625 320.5 757.015625 C 320.386719 756.878906 320.296875 756.738281 320.230469 756.597656 C 320.167969 756.453125 320.148438 756.433594 320.175781 756.53125 C 319.867188 757.039062 319.378906 757.558594 318.714844 758.078125 C 318.046875 758.601562 317.277344 758.863281 316.40625 758.863281 C 315.917969 758.863281 315.4375 758.800781 314.964844 758.675781 C 314.492188 758.550781 314.078125 758.359375 313.722656 758.097656 C 313.371094 757.835938 313.105469 757.519531 312.925781 757.144531 C 312.835938 756.921875 312.792969 756.679688 312.792969 756.417969 C 312.792969 756.234375 312.820312 756.015625 312.867188 755.765625 C 313.011719 755.207031 313.296875 754.785156 313.734375 754.507812 C 314.171875 754.226562 314.605469 754.085938 315.039062 754.085938 C 315.488281 754.085938 315.875 754.230469 316.195312 754.515625 C 316.414062 754.726562 316.519531 755 316.519531 755.335938 C 316.519531 755.511719 316.496094 755.6875 316.445312 755.859375 C 316.328125 756.292969 316.121094 756.648438 315.820312 756.914062 C 315.519531 757.183594 315.304688 757.328125 315.175781 757.351562 C 315.417969 757.550781 315.914062 757.644531 316.65625 757.628906 C 317.324219 757.632812 317.925781 757.285156 318.460938 756.585938 C 319 755.890625 319.390625 755.058594 319.636719 754.085938 L 321.421875 747.222656 C 321.601562 746.574219 321.742188 745.941406 321.847656 745.320312 C 321.871094 745.121094 321.886719 744.933594 321.886719 744.757812 C 321.886719 744.375 321.828125 744.015625 321.710938 743.675781 C 321.585938 743.304688 321.386719 743.003906 321.117188 742.773438 C 320.847656 742.542969 320.511719 742.429688 320.117188 742.425781 C 319.601562 742.429688 319.105469 742.5625 318.625 742.828125 C 318.144531 743.097656 317.707031 743.453125 317.308594 743.902344 C 316.914062 744.351562 316.5625 744.871094 316.253906 745.460938 C 315.945312 746.050781 315.722656 746.675781 315.578125 747.332031 C 315.4375 747.671875 315.203125 747.84375 314.867188 747.855469 L 314.445312 747.855469 C 314.136719 747.855469 313.984375 747.703125 313.984375 747.390625 L 313.984375 747.257812 C 314.175781 746.488281 314.472656 745.738281 314.867188 745.011719 C 315.265625 744.285156 315.738281 743.640625 316.289062 743.082031 C 316.84375 742.523438 317.457031 742.066406 318.136719 741.710938 C 318.816406 741.355469 319.554688 741.179688 320.347656 741.175781 C 321.117188 741.179688 321.796875 741.347656 322.382812 741.683594 C 322.976562 742.019531 323.457031 742.464844 323.828125 743.023438 C 323.902344 743.160156 323.976562 743.308594 324.039062 743.464844 C 324.101562 743.621094 324.121094 743.660156 324.09375 743.582031 C 324.417969 743.039062 324.910156 742.5 325.578125 741.972656 C 326.242188 741.445312 327.003906 741.179688 327.863281 741.175781 C 328.351562 741.179688 328.835938 741.238281 329.316406 741.355469 C 329.796875 741.476562 330.214844 741.664062 330.566406 741.925781 C 330.917969 742.1875 331.179688 742.507812 331.34375 742.894531 C 331.433594 743.117188 331.476562 743.375 331.476562 743.660156 C 331.476562 743.847656 331.453125 744.058594 331.402344 744.292969 Z M 331.402344 744.292969 "/>
</g>
<path style=" stroke:none;fill-rule:evenodd;fill:rgb(0%,0%,0%);fill-opacity:1;" d="M 341.925781 763.851562 C 340.445312 763.808594 339.007812 763.789062 337.609375 763.789062 C 336.210938 763.789062 334.773438 763.808594 333.292969 763.851562 L 333.292969 762.953125 L 334.125 762.953125 C 334.390625 762.953125 334.640625 762.949219 334.871094 762.945312 C 335.105469 762.9375 335.324219 762.917969 335.535156 762.890625 C 335.746094 762.863281 335.925781 762.835938 336.078125 762.808594 C 336.207031 762.785156 336.3125 762.722656 336.398438 762.613281 C 336.480469 762.507812 336.523438 762.386719 336.523438 762.253906 L 336.523438 750.480469 C 336.121094 750.65625 335.628906 750.789062 335.039062 750.878906 C 334.453125 750.96875 333.8125 751.015625 333.113281 751.011719 L 333.113281 750.125 C 334.078125 750.125 334.96875 750.023438 335.78125 749.816406 C 336.597656 749.613281 337.304688 749.226562 337.898438 748.664062 L 338.273438 748.664062 C 338.535156 748.664062 338.667969 748.777344 338.667969 749.007812 L 338.667969 762.253906 C 338.667969 762.394531 338.710938 762.515625 338.789062 762.621094 C 338.871094 762.722656 338.988281 762.785156 339.140625 762.808594 C 339.269531 762.835938 339.433594 762.863281 339.632812 762.890625 C 339.835938 762.917969 340.0625 762.9375 340.316406 762.945312 C 340.566406 762.949219 340.816406 762.953125 341.058594 762.953125 L 341.925781 762.953125 Z M 341.925781 763.851562 "/>
<path style="fill:none;stroke-width:5;stroke-linecap:round;stroke-linejoin:round;stroke:rgb(0%,0%,0%);stroke-opacity:1;stroke-dasharray:20,10;stroke-miterlimit:10;" d="M 1756.401463 1022.357672 L 1756.401463 315.727092 " transform="matrix(0.259337,0,0,-0.259191,0,791.396146)"/>
<g clip-path="url(#clip5)" clip-rule="nonzero">
<path style=" stroke:none;fill-rule:evenodd;fill:rgb(0%,0%,0%);fill-opacity:1;" d="M 458.886719 744.292969 C 458.746094 744.855469 458.460938 745.273438 458.03125 745.554688 C 457.601562 745.832031 457.167969 745.972656 456.734375 745.972656 C 456.285156 745.972656 455.914062 745.828125 455.617188 745.542969 C 455.402344 745.332031 455.285156 745.058594 455.273438 744.722656 C 455.273438 744.585938 455.296875 744.410156 455.347656 744.199219 C 455.488281 743.726562 455.707031 743.371094 456.003906 743.128906 C 456.296875 742.886719 456.503906 742.746094 456.617188 742.707031 C 456.375 742.523438 455.875 742.429688 455.117188 742.425781 C 454.453125 742.429688 453.855469 742.773438 453.332031 743.464844 C 452.804688 744.152344 452.414062 744.984375 452.15625 745.953125 L 450.390625 752.78125 C 450.207031 753.464844 450.074219 754.117188 449.984375 754.738281 C 449.933594 754.953125 449.90625 755.136719 449.90625 755.300781 C 449.90625 755.6875 449.972656 756.050781 450.101562 756.398438 C 450.230469 756.773438 450.421875 757.074219 450.679688 757.296875 C 450.933594 757.519531 451.261719 757.632812 451.65625 757.628906 C 452.171875 757.632812 452.664062 757.5 453.136719 757.230469 C 453.613281 756.964844 454.050781 756.601562 454.445312 756.148438 C 454.84375 755.695312 455.195312 755.167969 455.503906 754.5625 C 455.8125 753.960938 456.054688 753.339844 456.234375 752.707031 C 456.308594 752.382812 456.527344 752.222656 456.886719 752.222656 L 457.328125 752.222656 C 457.664062 752.222656 457.828125 752.347656 457.828125 752.59375 C 457.828125 752.667969 457.808594 752.738281 457.773438 752.800781 C 457.59375 753.546875 457.300781 754.285156 456.898438 755.011719 C 456.492188 755.738281 456.023438 756.382812 455.484375 756.941406 C 454.945312 757.5 454.332031 757.960938 453.648438 758.320312 C 452.960938 758.683594 452.226562 758.863281 451.445312 758.863281 C 450.652344 758.863281 449.964844 758.691406 449.390625 758.347656 C 448.8125 758.007812 448.34375 757.5625 447.984375 757.015625 C 447.871094 756.878906 447.78125 756.738281 447.71875 756.597656 C 447.652344 756.453125 447.632812 756.433594 447.660156 756.53125 C 447.351562 757.039062 446.867188 757.558594 446.199219 758.078125 C 445.53125 758.601562 444.761719 758.863281 443.890625 758.863281 C 443.402344 758.863281 442.921875 758.800781 442.449219 758.675781 C 441.976562 758.550781 441.5625 758.359375 441.207031 758.097656 C 440.855469 757.835938 440.589844 757.519531 440.410156 757.144531 C 440.320312 756.921875 440.277344 756.679688 440.277344 756.417969 C 440.277344 756.234375 440.304688 756.015625 440.355469 755.765625 C 440.496094 755.207031 440.78125 754.785156 441.21875 754.507812 C 441.65625 754.226562 442.089844 754.085938 442.527344 754.085938 C 442.976562 754.085938 443.359375 754.230469 443.679688 754.515625 C 443.898438 754.726562 444.007812 755 444.007812 755.335938 C 444.007812 755.511719 443.980469 755.6875 443.929688 755.859375 C 443.816406 756.292969 443.605469 756.648438 443.304688 756.914062 C 443.003906 757.183594 442.789062 757.328125 442.660156 757.351562 C 442.902344 757.550781 443.398438 757.644531 444.140625 757.628906 C 444.808594 757.632812 445.410156 757.285156 445.945312 756.585938 C 446.484375 755.890625 446.878906 755.058594 447.121094 754.085938 L 448.910156 747.222656 C 449.085938 746.574219 449.230469 745.941406 449.332031 745.320312 C 449.359375 745.121094 449.371094 744.933594 449.371094 744.757812 C 449.371094 744.375 449.3125 744.015625 449.195312 743.675781 C 449.070312 743.304688 448.871094 743.003906 448.601562 742.773438 C 448.332031 742.542969 448 742.429688 447.601562 742.425781 C 447.089844 742.429688 446.589844 742.5625 446.109375 742.828125 C 445.628906 743.097656 445.191406 743.453125 444.792969 743.902344 C 444.398438 744.351562 444.046875 744.871094 443.738281 745.460938 C 443.429688 746.050781 443.207031 746.675781 443.0625 747.332031 C 442.921875 747.671875 442.6875 747.84375 442.351562 747.855469 L 441.929688 747.855469 C 441.621094 747.855469 441.46875 747.703125 441.46875 747.390625 L 441.46875 747.257812 C 441.660156 746.488281 441.957031 745.738281 442.351562 745.011719 C 442.75 744.285156 443.226562 743.640625 443.773438 743.082031 C 444.328125 742.523438 444.941406 742.066406 445.621094 741.710938 C 446.300781 741.355469 447.039062 741.179688 447.832031 741.175781 C 448.601562 741.179688 449.28125 741.347656 449.871094 741.683594 C 450.460938 742.019531 450.941406 742.464844 451.3125 743.023438 C 451.386719 743.160156 451.460938 743.308594 451.523438 743.464844 C 451.589844 743.621094 451.605469 743.660156 451.582031 743.582031 C 451.902344 743.039062 452.394531 742.5 453.0625 741.972656 C 453.726562 741.445312 454.492188 741.179688 455.347656 741.175781 C 455.835938 741.179688 456.320312 741.238281 456.800781 741.355469 C 457.28125 741.476562 457.699219 741.664062 458.050781 741.925781 C 458.402344 742.1875 458.664062 742.507812 458.828125 742.894531 C 458.917969 743.117188 458.964844 743.375 458.964844 743.660156 C 458.964844 743.847656 458.9375 744.058594 458.886719 744.292969 Z M 458.886719 744.292969 "/>
</g>
<path style=" stroke:none;fill-rule:evenodd;fill:rgb(0%,0%,0%);fill-opacity:1;" d="M 470.3125 763.851562 L 460.5 763.851562 L 460.5 763.277344 C 460.5 763.234375 460.523438 763.171875 460.574219 763.089844 L 464.515625 759.265625 C 464.980469 758.804688 465.453125 758.335938 465.933594 757.855469 C 466.410156 757.375 466.839844 756.882812 467.214844 756.382812 C 467.59375 755.882812 467.894531 755.363281 468.121094 754.832031 C 468.347656 754.300781 468.457031 753.738281 468.457031 753.15625 C 468.457031 752.660156 468.386719 752.199219 468.242188 751.769531 C 468.097656 751.34375 467.886719 750.964844 467.613281 750.640625 C 467.339844 750.320312 467 750.058594 466.589844 749.859375 C 466.179688 749.660156 465.707031 749.5625 465.167969 749.5625 C 464.363281 749.5625 463.652344 749.777344 463.039062 750.203125 C 462.425781 750.632812 462.015625 751.105469 461.816406 751.617188 C 461.773438 751.632812 461.839844 751.640625 462.007812 751.640625 L 462.210938 751.640625 C 462.453125 751.6875 462.664062 751.765625 462.839844 751.863281 C 463.015625 751.964844 463.164062 752.105469 463.285156 752.28125 C 463.40625 752.460938 463.464844 752.675781 463.464844 752.925781 C 463.464844 753.34375 463.316406 753.664062 463.007812 753.886719 C 462.703125 754.109375 462.363281 754.21875 461.984375 754.21875 C 461.621094 754.21875 461.285156 754.109375 460.972656 753.886719 C 460.65625 753.664062 460.5 753.34375 460.5 752.925781 C 460.5 752.339844 460.628906 751.785156 460.886719 751.265625 C 461.144531 750.742188 461.492188 750.289062 461.9375 749.90625 C 462.378906 749.523438 462.898438 749.21875 463.503906 748.996094 C 464.105469 748.773438 464.746094 748.664062 465.417969 748.664062 C 466.253906 748.664062 467.019531 748.773438 467.714844 748.992188 C 468.410156 749.210938 469.003906 749.527344 469.496094 749.9375 C 469.984375 750.347656 470.367188 750.824219 470.644531 751.363281 C 470.921875 751.902344 471.0625 752.5 471.0625 753.15625 C 471.0625 753.878906 470.878906 754.546875 470.507812 755.15625 C 470.136719 755.765625 469.679688 756.324219 469.132812 756.832031 C 468.585938 757.339844 468.003906 757.820312 467.390625 758.269531 C 466.777344 758.71875 466.21875 759.15625 465.722656 759.578125 L 462.949219 761.910156 L 466.578125 761.910156 C 467.082031 761.910156 467.554688 761.90625 467.992188 761.898438 C 468.433594 761.890625 468.804688 761.878906 469.109375 761.855469 C 469.414062 761.835938 469.570312 761.824219 469.578125 761.816406 C 469.644531 761.765625 469.703125 761.667969 469.761719 761.523438 C 469.816406 761.375 469.867188 761.203125 469.917969 761.003906 C 469.964844 760.808594 470.011719 760.605469 470.0625 760.398438 C 470.109375 760.195312 470.152344 759.96875 470.195312 759.726562 L 471.085938 759.726562 Z M 470.3125 763.851562 "/>
<path style="fill:none;stroke-width:5;stroke-linecap:round;stroke-linejoin:round;stroke:rgb(0%,0%,0%);stroke-opacity:1;stroke-dasharray:20,10;stroke-miterlimit:10;" d="M 1964.835562 1177.407374 L 1964.835562 315.727092 " transform="matrix(0.259337,0,0,-0.259191,0,791.396146)"/>
<g clip-path="url(#clip6)" clip-rule="nonzero">
<path style=" stroke:none;fill-rule:evenodd;fill:rgb(0%,0%,0%);fill-opacity:1;" d="M 512.742188 744.292969 C 512.601562 744.855469 512.316406 745.273438 511.886719 745.554688 C 511.457031 745.832031 511.023438 745.972656 510.589844 745.972656 C 510.140625 745.972656 509.769531 745.828125 509.472656 745.542969 C 509.257812 745.332031 509.140625 745.058594 509.128906 744.722656 C 509.128906 744.585938 509.152344 744.410156 509.203125 744.199219 C 509.34375 743.726562 509.5625 743.371094 509.859375 743.128906 C 510.152344 742.886719 510.359375 742.746094 510.472656 742.707031 C 510.230469 742.523438 509.730469 742.429688 508.972656 742.425781 C 508.308594 742.429688 507.710938 742.773438 507.1875 743.464844 C 506.660156 744.152344 506.269531 744.984375 506.011719 745.953125 L 504.246094 752.78125 C 504.066406 753.464844 503.929688 754.117188 503.839844 754.738281 C 503.789062 754.953125 503.765625 755.136719 503.765625 755.300781 C 503.765625 755.6875 503.828125 756.050781 503.957031 756.398438 C 504.085938 756.773438 504.277344 757.074219 504.535156 757.296875 C 504.789062 757.519531 505.117188 757.632812 505.515625 757.628906 C 506.027344 757.632812 506.519531 757.5 506.992188 757.230469 C 507.46875 756.964844 507.90625 756.601562 508.300781 756.148438 C 508.699219 755.695312 509.050781 755.167969 509.359375 754.5625 C 509.667969 753.960938 509.910156 753.339844 510.089844 752.707031 C 510.164062 752.382812 510.382812 752.222656 510.742188 752.222656 L 511.183594 752.222656 C 511.515625 752.222656 511.683594 752.347656 511.683594 752.59375 C 511.683594 752.667969 511.664062 752.738281 511.628906 752.800781 C 511.449219 753.546875 511.15625 754.285156 510.753906 755.011719 C 510.347656 755.738281 509.878906 756.382812 509.339844 756.941406 C 508.800781 757.5 508.1875 757.960938 507.503906 758.320312 C 506.816406 758.683594 506.085938 758.863281 505.300781 758.863281 C 504.507812 758.863281 503.824219 758.691406 503.246094 758.347656 C 502.671875 758.007812 502.199219 757.5625 501.839844 757.015625 C 501.726562 756.878906 501.636719 756.738281 501.574219 756.597656 C 501.507812 756.453125 501.488281 756.433594 501.515625 756.53125 C 501.207031 757.039062 500.722656 757.558594 500.054688 758.078125 C 499.386719 758.601562 498.621094 758.863281 497.746094 758.863281 C 497.261719 758.863281 496.78125 758.800781 496.304688 758.675781 C 495.832031 758.550781 495.417969 758.359375 495.066406 758.097656 C 494.714844 757.835938 494.445312 757.519531 494.265625 757.144531 C 494.179688 756.921875 494.132812 756.679688 494.132812 756.417969 C 494.132812 756.234375 494.160156 756.015625 494.210938 755.765625 C 494.351562 755.207031 494.640625 754.785156 495.074219 754.507812 C 495.511719 754.226562 495.945312 754.085938 496.382812 754.085938 C 496.832031 754.085938 497.214844 754.230469 497.535156 754.515625 C 497.753906 754.726562 497.863281 755 497.863281 755.335938 C 497.863281 755.511719 497.835938 755.6875 497.785156 755.859375 C 497.671875 756.292969 497.460938 756.648438 497.160156 756.914062 C 496.859375 757.183594 496.644531 757.328125 496.515625 757.351562 C 496.761719 757.550781 497.253906 757.644531 497.996094 757.628906 C 498.664062 757.632812 499.265625 757.285156 499.804688 756.585938 C 500.34375 755.890625 500.734375 755.058594 500.976562 754.085938 L 502.765625 747.222656 C 502.945312 746.574219 503.085938 745.941406 503.1875 745.320312 C 503.214844 745.121094 503.226562 744.933594 503.226562 744.757812 C 503.226562 744.375 503.167969 744.015625 503.050781 743.675781 C 502.925781 743.304688 502.726562 743.003906 502.457031 742.773438 C 502.1875 742.542969 501.855469 742.429688 501.457031 742.425781 C 500.945312 742.429688 500.449219 742.5625 499.964844 742.828125 C 499.488281 743.097656 499.046875 743.453125 498.652344 743.902344 C 498.253906 744.351562 497.902344 744.871094 497.59375 745.460938 C 497.285156 746.050781 497.0625 746.675781 496.921875 747.332031 C 496.78125 747.671875 496.542969 747.84375 496.210938 747.855469 L 495.785156 747.855469 C 495.480469 747.855469 495.324219 747.703125 495.324219 747.390625 L 495.324219 747.257812 C 495.519531 746.488281 495.8125 745.738281 496.210938 745.011719 C 496.605469 744.285156 497.082031 743.640625 497.632812 743.082031 C 498.183594 742.523438 498.800781 742.066406 499.476562 741.710938 C 500.15625 741.355469 500.894531 741.179688 501.6875 741.175781 C 502.457031 741.179688 503.136719 741.347656 503.726562 741.683594 C 504.316406 742.019531 504.796875 742.464844 505.167969 743.023438 C 505.242188 743.160156 505.316406 743.308594 505.378906 743.464844 C 505.445312 743.621094 505.460938 743.660156 505.4375 743.582031 C 505.757812 743.039062 506.25 742.5 506.917969 741.972656 C 507.585938 741.445312 508.347656 741.179688 509.203125 741.175781 C 509.691406 741.179688 510.175781 741.238281 510.65625 741.355469 C 511.136719 741.476562 511.554688 741.664062 511.90625 741.925781 C 512.257812 742.1875 512.519531 742.507812 512.683594 742.894531 C 512.773438 743.117188 512.816406 743.375 512.816406 743.660156 C 512.816406 743.847656 512.792969 744.058594 512.742188 744.292969 Z M 512.742188 744.292969 "/>
</g>
<path style=" stroke:none;fill-rule:evenodd;fill:rgb(0%,0%,0%);fill-opacity:1;" d="M 525.316406 759.914062 C 525.316406 760.511719 525.167969 761.085938 524.871094 761.636719 C 524.574219 762.1875 524.175781 762.65625 523.675781 763.046875 C 523.117188 763.488281 522.496094 763.8125 521.816406 764.023438 C 521.136719 764.238281 520.425781 764.34375 519.6875 764.34375 C 519.019531 764.34375 518.371094 764.257812 517.734375 764.09375 C 517.101562 763.925781 516.527344 763.683594 516.015625 763.371094 C 515.507812 763.058594 515.097656 762.671875 514.792969 762.21875 C 514.488281 761.761719 514.335938 761.238281 514.335938 760.644531 C 514.335938 760.199219 514.5 759.867188 514.835938 759.648438 C 515.167969 759.429688 515.519531 759.320312 515.890625 759.316406 C 516.277344 759.320312 516.636719 759.429688 516.96875 759.648438 C 517.300781 759.867188 517.46875 760.199219 517.46875 760.644531 C 517.46875 760.910156 517.410156 761.128906 517.292969 761.308594 C 517.179688 761.484375 517.03125 761.632812 516.847656 761.753906 C 516.667969 761.871094 516.460938 761.945312 516.226562 761.972656 C 516.109375 762 515.996094 762.011719 515.890625 762.011719 C 515.785156 762.011719 515.769531 762.019531 515.839844 762.035156 C 516.089844 762.425781 516.582031 762.769531 517.3125 763.070312 C 518.042969 763.367188 518.835938 763.519531 519.6875 763.515625 C 520.089844 763.519531 520.464844 763.429688 520.8125 763.25 C 521.164062 763.074219 521.457031 762.835938 521.6875 762.535156 C 521.980469 762.144531 522.175781 761.726562 522.277344 761.28125 C 522.382812 760.835938 522.4375 760.378906 522.4375 759.914062 C 522.4375 759.433594 522.382812 758.972656 522.277344 758.53125 C 522.175781 758.089844 521.980469 757.679688 521.6875 757.300781 C 521.445312 756.996094 521.152344 756.75 520.808594 756.5625 C 520.464844 756.371094 520.089844 756.277344 519.6875 756.277344 L 517.9375 756.277344 C 517.707031 756.277344 517.582031 756.179688 517.566406 755.984375 L 517.566406 755.871094 C 517.566406 755.789062 517.59375 755.722656 517.648438 755.671875 C 517.722656 755.609375 517.816406 755.578125 517.925781 755.578125 C 518.160156 755.550781 518.402344 755.535156 518.652344 755.535156 C 518.890625 755.535156 519.128906 755.523438 519.363281 755.496094 C 519.796875 755.46875 520.171875 755.347656 520.496094 755.132812 C 520.816406 754.921875 521.085938 754.652344 521.300781 754.320312 C 521.519531 753.988281 521.683594 753.609375 521.796875 753.175781 C 521.910156 752.746094 521.964844 752.300781 521.964844 751.847656 C 521.964844 751.515625 521.925781 751.199219 521.84375 750.898438 C 521.765625 750.597656 521.617188 750.335938 521.398438 750.113281 C 520.949219 749.65625 520.378906 749.429688 519.6875 749.433594 C 518.949219 749.4375 518.269531 749.558594 517.65625 749.808594 C 517.042969 750.054688 516.628906 750.320312 516.421875 750.605469 C 516.363281 750.613281 516.390625 750.617188 516.503906 750.617188 C 516.792969 750.617188 517.066406 750.691406 517.324219 750.847656 C 517.710938 751.046875 517.902344 751.390625 517.902344 751.871094 C 517.902344 752.273438 517.757812 752.578125 517.464844 752.785156 C 517.171875 752.988281 516.84375 753.09375 516.480469 753.09375 C 516.128906 753.09375 515.796875 752.992188 515.488281 752.789062 C 515.175781 752.585938 515.023438 752.28125 515.023438 751.871094 C 515.023438 751.363281 515.160156 750.914062 515.433594 750.523438 C 515.707031 750.132812 516.058594 749.796875 516.488281 749.519531 C 516.917969 749.242188 517.414062 749.027344 517.976562 748.882812 C 518.539062 748.734375 519.109375 748.664062 519.6875 748.664062 C 520.304688 748.664062 520.90625 748.734375 521.484375 748.882812 C 522.0625 749.027344 522.609375 749.253906 523.121094 749.5625 C 523.542969 749.824219 523.890625 750.152344 524.175781 750.539062 C 524.464844 750.925781 524.605469 751.363281 524.605469 751.847656 C 524.605469 752.335938 524.507812 752.796875 524.3125 753.226562 C 524.113281 753.660156 523.851562 754.050781 523.527344 754.398438 C 523.203125 754.746094 522.8125 755.054688 522.363281 755.316406 C 521.914062 755.582031 521.578125 755.75 521.351562 755.820312 C 521.542969 755.839844 521.875 755.941406 522.339844 756.125 C 522.804688 756.3125 523.25 756.558594 523.675781 756.863281 C 524.175781 757.246094 524.574219 757.703125 524.871094 758.238281 C 525.167969 758.769531 525.316406 759.328125 525.316406 759.914062 Z M 525.316406 759.914062 "/>
<path style="fill:none;stroke-width:5;stroke-linecap:round;stroke-linejoin:round;stroke:rgb(0%,0%,0%);stroke-opacity:1;stroke-dasharray:20,10;stroke-miterlimit:10;" d="M 1011.397923 737.366432 L 312.831898 737.366432 " transform="matrix(0.259337,0,0,-0.259191,0,791.396146)"/>
<g clip-path="url(#clip7)" clip-rule="nonzero">
<path style=" stroke:none;fill-rule:evenodd;fill:rgb(0%,0%,0%);fill-opacity:1;" d="M 42.113281 611.488281 C 41.84375 612.53125 41.421875 613.53125 40.847656 614.480469 C 40.269531 615.433594 39.589844 616.277344 38.808594 617.019531 C 38.027344 617.757812 37.148438 618.359375 36.175781 618.820312 C 35.199219 619.277344 34.1875 619.507812 33.136719 619.507812 C 32.507812 619.507812 31.933594 619.394531 31.40625 619.164062 C 30.878906 618.933594 30.453125 618.621094 30.117188 618.230469 C 29.785156 617.839844 29.558594 617.375 29.445312 616.839844 C 29.394531 616.605469 29.367188 616.363281 29.367188 616.113281 C 29.367188 615.789062 29.40625 615.460938 29.484375 615.125 C 29.625 614.566406 29.914062 614.144531 30.347656 613.867188 C 30.785156 613.585938 31.214844 613.445312 31.636719 613.445312 C 32.085938 613.445312 32.464844 613.589844 32.769531 613.875 C 32.988281 614.085938 33.097656 614.359375 33.097656 614.695312 C 33.097656 614.832031 33.070312 615 33.019531 615.199219 C 32.878906 615.757812 32.59375 616.179688 32.15625 616.460938 C 31.71875 616.738281 31.375 616.878906 31.117188 616.878906 C 31.195312 617.214844 31.433594 617.527344 31.839844 617.820312 C 32.242188 618.113281 32.757812 618.257812 33.386719 618.257812 C 34.078125 618.257812 34.726562 618.070312 35.328125 617.699219 C 35.929688 617.328125 36.484375 616.824219 36.980469 616.199219 C 37.480469 615.570312 37.917969 614.84375 38.296875 614.015625 C 38.675781 613.1875 38.980469 612.320312 39.210938 611.414062 L 39.328125 610.964844 C 39.136719 611.140625 38.730469 611.367188 38.117188 611.644531 C 37.5 611.925781 36.828125 612.066406 36.097656 612.066406 C 35.226562 612.066406 34.445312 611.90625 33.761719 611.582031 C 33.074219 611.257812 32.535156 610.761719 32.136719 610.085938 C 31.753906 609.367188 31.566406 608.570312 31.578125 607.699219 L 31.578125 607.550781 C 31.605469 606.644531 31.71875 605.742188 31.925781 604.847656 C 32.128906 603.988281 32.429688 603.042969 32.820312 602.011719 C 33.210938 600.980469 33.585938 599.976562 33.941406 599.007812 C 34.328125 597.976562 34.519531 597.128906 34.519531 596.46875 C 34.519531 595.910156 34.285156 595.632812 33.808594 595.628906 C 33.375 595.632812 32.980469 595.757812 32.628906 596.003906 C 32.273438 596.253906 31.953125 596.597656 31.664062 597.039062 C 31.378906 597.480469 31.117188 598.003906 30.886719 598.605469 C 30.65625 599.210938 30.464844 599.851562 30.308594 600.535156 C 30.167969 600.875 29.933594 601.046875 29.597656 601.058594 L 29.15625 601.058594 C 28.847656 601.058594 28.695312 600.90625 28.695312 600.59375 L 28.695312 600.460938 C 28.875 599.777344 29.113281 599.082031 29.40625 598.363281 C 29.703125 597.648438 30.074219 597 30.519531 596.414062 C 30.96875 595.832031 31.484375 595.34375 32.058594 594.960938 C 32.636719 594.574219 33.296875 594.382812 34.039062 594.378906 C 34.679688 594.382812 35.226562 594.519531 35.683594 594.792969 C 36.140625 595.066406 36.484375 595.429688 36.722656 595.882812 C 36.960938 596.335938 37.089844 596.847656 37.117188 597.421875 L 37.117188 597.550781 C 37.117188 598.085938 37.007812 598.640625 36.789062 599.210938 C 36.417969 600.183594 36.050781 601.175781 35.683594 602.1875 C 35.320312 603.203125 35.035156 604.113281 34.828125 604.921875 C 34.625 605.730469 34.480469 606.53125 34.40625 607.328125 C 34.351562 607.539062 34.324219 607.769531 34.308594 608.015625 C 34.308594 608.503906 34.394531 608.984375 34.558594 609.453125 C 34.675781 609.878906 34.886719 610.214844 35.195312 610.460938 C 35.5 610.710938 35.867188 610.835938 36.289062 610.835938 C 37.109375 610.835938 37.828125 610.59375 38.441406 610.109375 C 39.058594 609.621094 39.597656 608.988281 40.058594 608.203125 L 43.152344 596.171875 C 43.269531 595.710938 43.5 595.375 43.855469 595.15625 C 44.207031 594.9375 44.5625 594.828125 44.921875 594.828125 C 45.292969 594.828125 45.601562 594.941406 45.84375 595.164062 C 46.011719 595.328125 46.09375 595.542969 46.09375 595.816406 C 46.09375 595.953125 46.082031 596.097656 46.054688 596.246094 Z M 42.113281 611.488281 "/>
</g>
<path style=" stroke:none;fill-rule:evenodd;fill:rgb(0%,0%,0%);fill-opacity:1;" d="M 58.714844 609.785156 C 58.714844 610.789062 58.636719 611.785156 58.480469 612.777344 C 58.324219 613.769531 57.9375 614.703125 57.316406 615.570312 C 56.875 616.207031 56.285156 616.695312 55.546875 617.035156 C 54.808594 617.375 54.003906 617.546875 53.132812 617.546875 C 52.296875 617.546875 51.507812 617.375 50.765625 617.035156 C 50.023438 616.695312 49.429688 616.207031 48.988281 615.570312 C 48.367188 614.703125 47.980469 613.769531 47.824219 612.777344 C 47.667969 611.785156 47.589844 610.789062 47.589844 609.785156 C 47.589844 608.769531 47.667969 607.753906 47.824219 606.738281 C 47.980469 605.726562 48.367188 604.777344 48.988281 603.890625 C 49.429688 603.253906 50.019531 602.753906 50.757812 602.398438 C 51.5 602.042969 52.289062 601.867188 53.132812 601.867188 C 53.996094 601.867188 54.796875 602.042969 55.539062 602.398438 C 56.28125 602.753906 56.875 603.253906 57.316406 603.890625 C 57.9375 604.777344 58.324219 605.726562 58.480469 606.738281 C 58.636719 607.753906 58.714844 608.769531 58.714844 609.785156 Z M 56.328125 609.417969 C 56.328125 608.980469 56.324219 608.519531 56.316406 608.03125 C 56.308594 607.542969 56.289062 607.066406 56.257812 606.597656 C 56.222656 606.132812 56.167969 605.691406 56.082031 605.277344 C 55.996094 604.863281 55.894531 604.507812 55.773438 604.214844 C 55.53125 603.742188 55.179688 603.355469 54.714844 603.050781 C 54.246094 602.75 53.722656 602.597656 53.132812 602.597656 C 52.5625 602.597656 52.046875 602.75 51.585938 603.058594 C 51.125 603.363281 50.773438 603.75 50.53125 604.214844 C 50.410156 604.507812 50.308594 604.863281 50.222656 605.277344 C 50.140625 605.691406 50.082031 606.132812 50.046875 606.597656 C 50.015625 607.066406 49.996094 607.542969 49.988281 608.03125 C 49.980469 608.519531 49.976562 608.980469 49.976562 609.417969 C 49.976562 609.90625 49.980469 610.421875 49.988281 610.960938 C 49.996094 611.5 50.015625 612.023438 50.046875 612.527344 C 50.082031 613.03125 50.140625 613.511719 50.222656 613.964844 C 50.308594 614.417969 50.410156 614.796875 50.53125 615.101562 C 50.753906 615.609375 51.105469 616.027344 51.574219 616.355469 C 52.042969 616.683594 52.5625 616.847656 53.132812 616.847656 C 53.730469 616.847656 54.261719 616.683594 54.730469 616.355469 C 55.203125 616.027344 55.550781 615.609375 55.773438 615.101562 C 55.894531 614.796875 55.996094 614.417969 56.082031 613.964844 C 56.167969 613.511719 56.222656 613.03125 56.257812 612.527344 C 56.289062 612.023438 56.308594 611.5 56.316406 610.960938 C 56.324219 610.421875 56.328125 609.90625 56.328125 609.417969 Z M 56.328125 609.417969 "/>
<path style="fill:none;stroke-width:5;stroke-linecap:round;stroke-linejoin:round;stroke:rgb(0%,0%,0%);stroke-opacity:1;stroke-dasharray:20,10;stroke-miterlimit:10;" d="M 1261.404368 1022.357672 L 312.831898 1022.357672 " transform="matrix(0.259337,0,0,-0.259191,0,791.396146)"/>
<g clip-path="url(#clip8)" clip-rule="nonzero">
<path style=" stroke:none;fill-rule:evenodd;fill:rgb(0%,0%,0%);fill-opacity:1;" d="M 43.273438 537.617188 C 43.003906 538.664062 42.582031 539.660156 42.003906 540.613281 C 41.429688 541.5625 40.75 542.410156 39.96875 543.148438 C 39.183594 543.890625 38.308594 544.488281 37.332031 544.949219 C 36.359375 545.410156 35.347656 545.640625 34.296875 545.640625 C 33.667969 545.640625 33.089844 545.523438 32.566406 545.292969 C 32.039062 545.066406 31.609375 544.753906 31.277344 544.363281 C 30.945312 543.96875 30.71875 543.507812 30.605469 542.972656 C 30.550781 542.734375 30.527344 542.492188 30.527344 542.246094 C 30.527344 541.921875 30.566406 541.589844 30.640625 541.253906 C 30.785156 540.695312 31.070312 540.277344 31.507812 539.996094 C 31.945312 539.714844 32.375 539.578125 32.796875 539.578125 C 33.246094 539.578125 33.625 539.71875 33.929688 540.003906 C 34.148438 540.21875 34.257812 540.492188 34.257812 540.828125 C 34.257812 540.964844 34.230469 541.132812 34.179688 541.332031 C 34.039062 541.890625 33.75 542.308594 33.316406 542.589844 C 32.878906 542.867188 32.535156 543.007812 32.277344 543.007812 C 32.355469 543.34375 32.59375 543.660156 32.996094 543.953125 C 33.402344 544.242188 33.917969 544.390625 34.542969 544.390625 C 35.238281 544.390625 35.886719 544.203125 36.488281 543.828125 C 37.089844 543.457031 37.640625 542.957031 38.140625 542.328125 C 38.640625 541.699219 39.078125 540.972656 39.457031 540.144531 C 39.835938 539.320312 40.140625 538.449219 40.371094 537.542969 L 40.488281 537.09375 C 40.296875 537.269531 39.890625 537.496094 39.273438 537.777344 C 38.660156 538.054688 37.988281 538.195312 37.257812 538.195312 C 36.386719 538.195312 35.605469 538.035156 34.921875 537.710938 C 34.234375 537.390625 33.691406 536.890625 33.296875 536.21875 C 32.910156 535.496094 32.726562 534.703125 32.738281 533.832031 L 32.738281 533.679688 C 32.761719 532.773438 32.878906 531.875 33.085938 530.976562 C 33.289062 530.121094 33.589844 529.175781 33.980469 528.140625 C 34.371094 527.109375 34.746094 526.109375 35.101562 525.136719 C 35.488281 524.105469 35.679688 523.261719 35.679688 522.601562 C 35.679688 522.042969 35.441406 521.761719 34.96875 521.761719 C 34.53125 521.761719 34.140625 521.886719 33.785156 522.136719 C 33.433594 522.382812 33.113281 522.730469 32.824219 523.171875 C 32.535156 523.613281 32.277344 524.132812 32.046875 524.738281 C 31.816406 525.339844 31.625 525.984375 31.46875 526.667969 C 31.328125 527.003906 31.089844 527.175781 30.757812 527.1875 L 30.316406 527.1875 C 30.007812 527.191406 29.855469 527.035156 29.855469 526.722656 L 29.855469 526.59375 C 30.035156 525.910156 30.269531 525.210938 30.566406 524.496094 C 30.859375 523.78125 31.234375 523.128906 31.679688 522.546875 C 32.128906 521.960938 32.644531 521.476562 33.21875 521.089844 C 33.796875 520.707031 34.457031 520.511719 35.199219 520.511719 C 35.839844 520.511719 36.386719 520.648438 36.84375 520.921875 C 37.296875 521.195312 37.644531 521.558594 37.882812 522.011719 C 38.117188 522.46875 38.25 522.980469 38.273438 523.550781 L 38.273438 523.683594 C 38.273438 524.21875 38.167969 524.769531 37.949219 525.34375 C 37.578125 526.3125 37.210938 527.304688 36.84375 528.320312 C 36.476562 529.332031 36.191406 530.246094 35.988281 531.050781 C 35.78125 531.859375 35.640625 532.664062 35.5625 533.457031 C 35.511719 533.667969 35.480469 533.902344 35.46875 534.148438 C 35.46875 534.632812 35.550781 535.113281 35.71875 535.585938 C 35.832031 536.007812 36.042969 536.34375 36.351562 536.59375 C 36.660156 536.84375 37.027344 536.964844 37.449219 536.964844 C 38.269531 536.964844 38.988281 536.722656 39.601562 536.238281 C 40.21875 535.753906 40.753906 535.117188 41.214844 534.335938 L 44.3125 522.300781 C 44.429688 521.84375 44.660156 521.503906 45.015625 521.285156 C 45.367188 521.070312 45.722656 520.960938 46.078125 520.957031 C 46.453125 520.960938 46.761719 521.070312 47.003906 521.292969 C 47.171875 521.457031 47.253906 521.675781 47.253906 521.949219 C 47.253906 522.085938 47.242188 522.226562 47.214844 522.375 Z M 43.273438 537.617188 "/>
</g>
<path style=" stroke:none;fill-rule:evenodd;fill:rgb(0%,0%,0%);fill-opacity:1;" d="M 57.683594 543.1875 C 56.203125 543.144531 54.765625 543.125 53.367188 543.125 C 51.96875 543.125 50.53125 543.144531 49.050781 543.1875 L 49.050781 542.289062 L 49.882812 542.289062 C 50.148438 542.289062 50.398438 542.285156 50.628906 542.277344 C 50.863281 542.269531 51.085938 542.253906 51.292969 542.226562 C 51.503906 542.199219 51.683594 542.171875 51.835938 542.140625 C 51.964844 542.121094 52.070312 542.058594 52.15625 541.949219 C 52.238281 541.839844 52.28125 541.722656 52.28125 541.585938 L 52.28125 529.8125 C 51.878906 529.988281 51.386719 530.121094 50.800781 530.210938 C 50.210938 530.300781 49.570312 530.347656 48.871094 530.347656 L 48.871094 529.457031 C 49.835938 529.460938 50.726562 529.355469 51.542969 529.152344 C 52.359375 528.945312 53.0625 528.5625 53.65625 527.996094 L 54.03125 527.996094 C 54.296875 527.996094 54.429688 528.113281 54.429688 528.339844 L 54.429688 541.585938 C 54.429688 541.726562 54.46875 541.847656 54.550781 541.953125 C 54.628906 542.058594 54.746094 542.121094 54.898438 542.140625 C 55.027344 542.171875 55.191406 542.199219 55.394531 542.226562 C 55.59375 542.253906 55.820312 542.269531 56.074219 542.277344 C 56.328125 542.285156 56.574219 542.289062 56.816406 542.289062 L 57.683594 542.289062 Z M 57.683594 543.1875 "/>
<path style="fill:none;stroke-width:5;stroke-linecap:round;stroke-linejoin:round;stroke:rgb(0%,0%,0%);stroke-opacity:1;stroke-dasharray:20,10;stroke-miterlimit:10;" d="M 312.831898 1177.407374 L 1964.835562 1177.407374 " transform="matrix(0.259337,0,0,-0.259191,0,791.396146)"/>
<g clip-path="url(#clip9)" clip-rule="nonzero">
<path style=" stroke:none;fill-rule:evenodd;fill:rgb(0%,0%,0%);fill-opacity:1;" d="M 42.386719 497.433594 C 42.117188 498.476562 41.695312 499.476562 41.117188 500.425781 C 40.542969 501.378906 39.863281 502.226562 39.082031 502.964844 C 38.296875 503.703125 37.421875 504.304688 36.445312 504.765625 C 35.472656 505.226562 34.460938 505.453125 33.40625 505.453125 C 32.78125 505.453125 32.203125 505.339844 31.679688 505.109375 C 31.152344 504.878906 30.722656 504.566406 30.390625 504.175781 C 30.054688 503.785156 29.832031 503.320312 29.71875 502.785156 C 29.664062 502.550781 29.640625 502.308594 29.640625 502.058594 C 29.640625 501.738281 29.679688 501.40625 29.753906 501.070312 C 29.898438 500.511719 30.183594 500.089844 30.621094 499.8125 C 31.058594 499.53125 31.488281 499.390625 31.910156 499.390625 C 32.359375 499.390625 32.734375 499.535156 33.042969 499.820312 C 33.261719 500.03125 33.371094 500.304688 33.371094 500.640625 C 33.371094 500.777344 33.34375 500.945312 33.292969 501.144531 C 33.152344 501.703125 32.863281 502.125 32.429688 502.40625 C 31.992188 502.683594 31.648438 502.824219 31.390625 502.824219 C 31.46875 503.160156 31.707031 503.472656 32.109375 503.765625 C 32.515625 504.058594 33.03125 504.203125 33.65625 504.203125 C 34.351562 504.203125 35 504.019531 35.601562 503.644531 C 36.203125 503.273438 36.753906 502.773438 37.253906 502.144531 C 37.753906 501.515625 38.191406 500.789062 38.570312 499.960938 C 38.949219 499.132812 39.253906 498.265625 39.484375 497.359375 L 39.597656 496.910156 C 39.40625 497.085938 39.003906 497.3125 38.386719 497.589844 C 37.773438 497.871094 37.101562 498.011719 36.367188 498.011719 C 35.5 498.011719 34.71875 497.851562 34.035156 497.527344 C 33.347656 497.203125 32.804688 496.707031 32.410156 496.035156 C 32.023438 495.3125 31.839844 494.519531 31.851562 493.644531 L 31.851562 493.496094 C 31.875 492.589844 31.992188 491.6875 32.195312 490.792969 C 32.402344 489.933594 32.699219 488.988281 33.09375 487.957031 C 33.484375 486.925781 33.855469 485.921875 34.214844 484.953125 C 34.601562 483.921875 34.792969 483.074219 34.792969 482.414062 C 34.792969 481.855469 34.554688 481.578125 34.082031 481.574219 C 33.644531 481.578125 33.25 481.703125 32.898438 481.949219 C 32.546875 482.199219 32.226562 482.542969 31.9375 482.984375 C 31.648438 483.425781 31.390625 483.949219 31.160156 484.550781 C 30.929688 485.15625 30.738281 485.796875 30.582031 486.480469 C 30.441406 486.820312 30.203125 486.992188 29.871094 487.003906 L 29.429688 487.003906 C 29.121094 487.003906 28.96875 486.851562 28.96875 486.539062 L 28.96875 486.40625 C 29.148438 485.722656 29.382812 485.027344 29.679688 484.308594 C 29.972656 483.59375 30.347656 482.945312 30.792969 482.359375 C 31.242188 481.777344 31.757812 481.292969 32.332031 480.90625 C 32.910156 480.519531 33.570312 480.328125 34.3125 480.324219 C 34.953125 480.328125 35.5 480.464844 35.957031 480.738281 C 36.410156 481.011719 36.757812 481.375 36.992188 481.828125 C 37.230469 482.285156 37.363281 482.796875 37.386719 483.367188 L 37.386719 483.496094 C 37.386719 484.035156 37.28125 484.585938 37.058594 485.15625 C 36.691406 486.128906 36.324219 487.121094 35.957031 488.132812 C 35.589844 489.148438 35.304688 490.058594 35.101562 490.867188 C 34.894531 491.675781 34.753906 492.476562 34.675781 493.273438 C 34.625 493.484375 34.59375 493.714844 34.582031 493.964844 C 34.582031 494.449219 34.664062 494.929688 34.832031 495.398438 C 34.945312 495.824219 35.15625 496.160156 35.464844 496.40625 C 35.773438 496.65625 36.140625 496.78125 36.5625 496.78125 C 37.382812 496.78125 38.101562 496.539062 38.714844 496.054688 C 39.332031 495.570312 39.867188 494.933594 40.328125 494.148438 L 43.425781 482.117188 C 43.539062 481.65625 43.773438 481.320312 44.125 481.101562 C 44.480469 480.882812 44.835938 480.773438 45.191406 480.773438 C 45.566406 480.773438 45.871094 480.886719 46.117188 481.109375 C 46.285156 481.273438 46.367188 481.488281 46.367188 481.761719 C 46.367188 481.898438 46.355469 482.042969 46.328125 482.191406 Z M 42.386719 497.433594 "/>
</g>
<path style=" stroke:none;fill-rule:evenodd;fill:rgb(0%,0%,0%);fill-opacity:1;" d="M 57.699219 503 L 47.886719 503 L 47.886719 502.425781 C 47.886719 502.386719 47.910156 502.324219 47.960938 502.238281 L 51.902344 498.414062 C 52.367188 497.957031 52.839844 497.484375 53.320312 497.003906 C 53.796875 496.523438 54.226562 496.035156 54.601562 495.53125 C 54.980469 495.03125 55.28125 494.511719 55.507812 493.980469 C 55.730469 493.449219 55.84375 492.890625 55.84375 492.304688 C 55.84375 491.808594 55.773438 491.347656 55.628906 490.917969 C 55.484375 490.492188 55.273438 490.117188 55 489.792969 C 54.726562 489.46875 54.386719 489.207031 53.976562 489.007812 C 53.566406 488.808594 53.089844 488.710938 52.554688 488.710938 C 51.75 488.710938 51.039062 488.925781 50.425781 489.351562 C 49.8125 489.78125 49.402344 490.253906 49.199219 490.765625 C 49.160156 490.78125 49.226562 490.789062 49.394531 490.789062 L 49.597656 490.789062 C 49.839844 490.839844 50.050781 490.914062 50.226562 491.015625 C 50.402344 491.113281 50.550781 491.253906 50.671875 491.429688 C 50.792969 491.609375 50.855469 491.824219 50.855469 492.074219 C 50.855469 492.492188 50.699219 492.8125 50.394531 493.035156 C 50.089844 493.257812 49.746094 493.371094 49.371094 493.367188 C 49.007812 493.371094 48.671875 493.257812 48.359375 493.035156 C 48.042969 492.8125 47.886719 492.492188 47.886719 492.074219 C 47.886719 491.488281 48.015625 490.933594 48.273438 490.414062 C 48.53125 489.890625 48.878906 489.4375 49.320312 489.054688 C 49.765625 488.671875 50.285156 488.371094 50.890625 488.144531 C 51.492188 487.921875 52.132812 487.8125 52.804688 487.8125 C 53.640625 487.8125 54.40625 487.921875 55.101562 488.140625 C 55.796875 488.359375 56.390625 488.675781 56.882812 489.085938 C 57.371094 489.496094 57.753906 489.972656 58.03125 490.511719 C 58.308594 491.050781 58.449219 491.648438 58.449219 492.304688 C 58.449219 493.027344 58.265625 493.695312 57.894531 494.304688 C 57.523438 494.914062 57.066406 495.472656 56.519531 495.980469 C 55.972656 496.488281 55.390625 496.96875 54.777344 497.417969 C 54.164062 497.867188 53.605469 498.304688 53.109375 498.726562 L 50.335938 501.058594 L 53.964844 501.058594 C 54.46875 501.058594 54.941406 501.054688 55.378906 501.046875 C 55.820312 501.042969 56.191406 501.027344 56.496094 501.007812 C 56.800781 500.984375 56.957031 500.972656 56.964844 500.964844 C 57.03125 500.914062 57.089844 500.816406 57.148438 500.671875 C 57.203125 500.527344 57.253906 500.351562 57.304688 500.15625 C 57.351562 499.957031 57.398438 499.753906 57.449219 499.546875 C 57.496094 499.34375 57.539062 499.117188 57.582031 498.875 L 58.472656 498.875 Z M 57.699219 503 "/>
<path style="fill:none;stroke-width:5;stroke-linecap:round;stroke-linejoin:round;stroke:rgb(0%,0%,0%);stroke-opacity:1;stroke-dasharray:20,10;stroke-miterlimit:10;" d="M 312.831898 1528.605198 L 1964.835562 1528.605198 " transform="matrix(0.259337,0,0,-0.259191,0,791.396146)"/>
<g clip-path="url(#clip10)" clip-rule="nonzero">
<path style=" stroke:none;fill-rule:evenodd;fill:rgb(0%,0%,0%);fill-opacity:1;" d="M 42.1875 406.402344 C 41.917969 407.445312 41.496094 408.445312 40.917969 409.394531 C 40.34375 410.347656 39.660156 411.195312 38.878906 411.933594 C 38.097656 412.671875 37.222656 413.273438 36.246094 413.734375 C 35.273438 414.195312 34.261719 414.425781 33.207031 414.425781 C 32.582031 414.425781 32.003906 414.308594 31.476562 414.078125 C 30.953125 413.847656 30.523438 413.539062 30.191406 413.144531 C 29.855469 412.753906 29.632812 412.292969 29.515625 411.757812 C 29.464844 411.519531 29.441406 411.277344 29.441406 411.027344 C 29.441406 410.707031 29.480469 410.375 29.554688 410.039062 C 29.695312 409.480469 29.984375 409.058594 30.421875 408.78125 C 30.859375 408.5 31.285156 408.359375 31.710938 408.359375 C 32.160156 408.359375 32.535156 408.503906 32.84375 408.789062 C 33.0625 409.003906 33.167969 409.273438 33.167969 409.609375 C 33.167969 409.75 33.144531 409.917969 33.09375 410.113281 C 32.953125 410.675781 32.664062 411.09375 32.226562 411.375 C 31.792969 411.652344 31.445312 411.792969 31.191406 411.792969 C 31.265625 412.128906 31.507812 412.445312 31.910156 412.734375 C 32.316406 413.027344 32.832031 413.175781 33.457031 413.175781 C 34.152344 413.175781 34.796875 412.988281 35.402344 412.613281 C 36.003906 412.242188 36.554688 411.742188 37.054688 411.113281 C 37.554688 410.484375 37.992188 409.757812 38.371094 408.929688 C 38.75 408.101562 39.054688 407.234375 39.285156 406.328125 L 39.398438 405.878906 C 39.207031 406.054688 38.804688 406.28125 38.1875 406.5625 C 37.574219 406.839844 36.902344 406.980469 36.167969 406.980469 C 35.300781 406.980469 34.519531 406.820312 33.832031 406.496094 C 33.148438 406.171875 32.605469 405.675781 32.207031 405.003906 C 31.824219 404.28125 31.640625 403.488281 31.652344 402.613281 L 31.652344 402.464844 C 31.675781 401.558594 31.792969 400.65625 31.996094 399.761719 C 32.203125 398.902344 32.5 397.960938 32.890625 396.925781 C 33.28125 395.894531 33.65625 394.894531 34.015625 393.921875 C 34.402344 392.890625 34.59375 392.042969 34.59375 391.382812 C 34.59375 390.824219 34.355469 390.546875 33.882812 390.546875 C 33.445312 390.546875 33.050781 390.671875 32.699219 390.917969 C 32.347656 391.167969 32.027344 391.515625 31.738281 391.953125 C 31.449219 392.398438 31.191406 392.917969 30.960938 393.523438 C 30.726562 394.125 30.535156 394.769531 30.382812 395.453125 C 30.242188 395.789062 30.003906 395.960938 29.671875 395.972656 L 29.230469 395.972656 C 28.921875 395.976562 28.765625 395.820312 28.765625 395.507812 L 28.765625 395.375 C 28.945312 394.695312 29.183594 393.996094 29.480469 393.277344 C 29.773438 392.5625 30.144531 391.914062 30.59375 391.328125 C 31.042969 390.746094 31.554688 390.261719 32.132812 389.875 C 32.710938 389.488281 33.371094 389.296875 34.113281 389.296875 C 34.753906 389.296875 35.300781 389.433594 35.757812 389.707031 C 36.210938 389.980469 36.558594 390.34375 36.792969 390.796875 C 37.03125 391.253906 37.164062 391.765625 37.1875 392.335938 L 37.1875 392.464844 C 37.1875 393.003906 37.082031 393.554688 36.859375 394.125 C 36.488281 395.097656 36.121094 396.089844 35.757812 397.101562 C 35.390625 398.117188 35.105469 399.027344 34.902344 399.835938 C 34.695312 400.644531 34.554688 401.445312 34.476562 402.242188 C 34.425781 402.453125 34.394531 402.683594 34.382812 402.933594 C 34.382812 403.417969 34.464844 403.898438 34.632812 404.367188 C 34.746094 404.792969 34.957031 405.128906 35.265625 405.378906 C 35.574219 405.628906 35.941406 405.75 36.363281 405.75 C 37.183594 405.75 37.898438 405.507812 38.515625 405.023438 C 39.132812 404.539062 39.667969 403.902344 40.128906 403.117188 L 43.226562 391.085938 C 43.339844 390.625 43.574219 390.289062 43.925781 390.070312 C 44.28125 389.855469 44.636719 389.746094 44.992188 389.742188 C 45.367188 389.746094 45.671875 389.855469 45.917969 390.078125 C 46.082031 390.242188 46.167969 390.457031 46.167969 390.730469 C 46.167969 390.871094 46.152344 391.011719 46.128906 391.160156 Z M 42.1875 406.402344 "/>
</g>
<path style=" stroke:none;fill-rule:evenodd;fill:rgb(0%,0%,0%);fill-opacity:1;" d="M 58.648438 408.03125 C 58.648438 408.632812 58.5 409.207031 58.203125 409.757812 C 57.90625 410.308594 57.507812 410.777344 57.007812 411.167969 C 56.449219 411.605469 55.828125 411.929688 55.148438 412.144531 C 54.46875 412.355469 53.757812 412.460938 53.019531 412.460938 C 52.351562 412.460938 51.703125 412.378906 51.066406 412.210938 C 50.433594 412.042969 49.859375 411.804688 49.347656 411.492188 C 48.839844 411.175781 48.429688 410.792969 48.125 410.335938 C 47.820312 409.878906 47.667969 409.355469 47.667969 408.761719 C 47.667969 408.316406 47.832031 407.984375 48.167969 407.765625 C 48.5 407.546875 48.851562 407.4375 49.222656 407.4375 C 49.609375 407.4375 49.96875 407.546875 50.300781 407.765625 C 50.632812 407.984375 50.800781 408.316406 50.800781 408.761719 C 50.800781 409.027344 50.742188 409.25 50.625 409.425781 C 50.507812 409.605469 50.363281 409.753906 50.179688 409.871094 C 50 409.988281 49.792969 410.0625 49.558594 410.089844 C 49.441406 410.117188 49.328125 410.132812 49.222656 410.132812 C 49.117188 410.132812 49.101562 410.140625 49.171875 410.152344 C 49.421875 410.542969 49.914062 410.886719 50.644531 411.1875 C 51.375 411.488281 52.167969 411.636719 53.019531 411.636719 C 53.421875 411.636719 53.796875 411.546875 54.144531 411.371094 C 54.496094 411.191406 54.789062 410.953125 55.019531 410.652344 C 55.3125 410.265625 55.507812 409.847656 55.613281 409.402344 C 55.714844 408.957031 55.769531 408.5 55.769531 408.03125 C 55.769531 407.550781 55.714844 407.089844 55.613281 406.648438 C 55.507812 406.207031 55.3125 405.796875 55.019531 405.421875 C 54.78125 405.113281 54.484375 404.867188 54.140625 404.679688 C 53.796875 404.492188 53.421875 404.398438 53.019531 404.394531 L 51.269531 404.394531 C 51.039062 404.398438 50.914062 404.300781 50.898438 404.105469 L 50.898438 403.988281 C 50.898438 403.90625 50.925781 403.839844 50.980469 403.789062 C 51.054688 403.730469 51.148438 403.695312 51.257812 403.695312 C 51.492188 403.667969 51.734375 403.65625 51.980469 403.65625 C 52.222656 403.65625 52.460938 403.640625 52.695312 403.613281 C 53.128906 403.585938 53.503906 403.464844 53.828125 403.253906 C 54.148438 403.039062 54.417969 402.769531 54.632812 402.4375 C 54.851562 402.109375 55.015625 401.726562 55.128906 401.292969 C 55.242188 400.863281 55.296875 400.421875 55.296875 399.964844 C 55.296875 399.632812 55.257812 399.316406 55.175781 399.015625 C 55.097656 398.71875 54.949219 398.457031 54.730469 398.234375 C 54.28125 397.773438 53.710938 397.546875 53.019531 397.554688 C 52.28125 397.554688 51.601562 397.679688 50.988281 397.925781 C 50.375 398.171875 49.960938 398.4375 49.75 398.722656 C 49.695312 398.730469 49.722656 398.734375 49.835938 398.734375 C 50.125 398.734375 50.398438 398.8125 50.65625 398.964844 C 51.042969 399.167969 51.234375 399.507812 51.234375 399.988281 C 51.234375 400.394531 51.089844 400.699219 50.796875 400.902344 C 50.503906 401.109375 50.175781 401.210938 49.8125 401.210938 C 49.460938 401.210938 49.128906 401.109375 48.816406 400.90625 C 48.507812 400.707031 48.355469 400.398438 48.355469 399.988281 C 48.355469 399.480469 48.492188 399.03125 48.761719 398.640625 C 49.039062 398.25 49.386719 397.917969 49.816406 397.636719 C 50.25 397.359375 50.746094 397.148438 51.308594 397 C 51.871094 396.855469 52.441406 396.78125 53.019531 396.78125 C 53.636719 396.78125 54.238281 396.855469 54.816406 397 C 55.394531 397.148438 55.941406 397.375 56.453125 397.679688 C 56.875 397.945312 57.222656 398.269531 57.511719 398.65625 C 57.796875 399.042969 57.9375 399.480469 57.9375 399.964844 C 57.9375 400.457031 57.839844 400.914062 57.644531 401.347656 C 57.445312 401.777344 57.183594 402.167969 56.859375 402.515625 C 56.535156 402.863281 56.144531 403.171875 55.695312 403.4375 C 55.246094 403.703125 54.90625 403.867188 54.683594 403.9375 C 54.875 403.957031 55.207031 404.0625 55.671875 404.246094 C 56.136719 404.429688 56.582031 404.675781 57.007812 404.980469 C 57.507812 405.367188 57.90625 405.824219 58.203125 406.355469 C 58.5 406.890625 58.648438 407.449219 58.648438 408.03125 Z M 58.648438 408.03125 "/>
</g>
</svg>
