<?xml version="1.0" encoding="UTF-8"?>
<svg xmlns="http://www.w3.org/2000/svg" xmlns:xlink="http://www.w3.org/1999/xlink" width="1392pt" height="808.02pt" viewBox="0 0 1392 808.02" version="1.2">
<defs>
<clipPath id="clip1">
  <path d="M 752.769531 632 L 785 632 L 785 667 L 752.769531 667 Z M 752.769531 632 "/>
</clipPath>
<clipPath id="clip2">
  <path d="M 892.5625 597 L 921 597 L 921 631 L 892.5625 631 Z M 892.5625 597 "/>
</clipPath>
</defs>
<g id="surface1">
<g clip-path="url(#clip1)" clip-rule="nonzero">
<path style=" stroke:none;fill-rule:evenodd;fill:rgb(0%,0%,0%);fill-opacity:1;" d="M 782.894531 666.386719 C 782.796875 666.761719 782.53125 666.949219 782.09375 666.949219 L 774.085938 666.949219 C 773.554688 666.949219 773.285156 666.691406 773.285156 666.175781 C 773.285156 664.25 773.574219 662.394531 774.144531 660.609375 C 774.71875 658.824219 775.34375 657.0625 776.019531 655.316406 C 776.699219 653.570312 777.3125 651.828125 777.859375 650.089844 C 778.410156 648.351562 778.683594 646.582031 778.683594 644.78125 C 778.683594 643.375 778.464844 642.007812 778.03125 640.683594 C 777.59375 639.363281 776.910156 638.199219 775.972656 637.199219 C 775.039062 636.195312 773.933594 635.429688 772.65625 634.898438 C 771.382812 634.367188 770.054688 634.097656 768.664062 634.097656 C 767.277344 634.097656 765.945312 634.367188 764.671875 634.898438 C 763.398438 635.429688 762.296875 636.195312 761.371094 637.199219 C 760.441406 638.199219 759.753906 639.363281 759.3125 640.683594 C 758.867188 642.007812 758.648438 643.375 758.648438 644.78125 C 758.648438 646.582031 758.925781 648.351562 759.484375 650.089844 C 760.039062 651.828125 760.65625 653.570312 761.332031 655.316406 C 762.011719 657.0625 762.636719 658.828125 763.207031 660.621094 C 763.78125 662.414062 764.066406 664.265625 764.066406 666.175781 C 764.066406 666.691406 763.816406 666.949219 763.316406 666.949219 L 755.234375 666.949219 C 754.816406 666.949219 754.558594 666.761719 754.460938 666.386719 L 752.765625 659.667969 C 752.765625 659.25 752.992188 658.984375 753.441406 658.871094 L 753.710938 658.871094 C 754.128906 658.871094 754.386719 659.066406 754.484375 659.457031 C 754.742188 660.539062 754.980469 661.433594 755.199219 662.136719 C 755.417969 662.839844 755.566406 663.21875 755.644531 663.261719 C 755.808594 663.390625 756.195312 663.46875 756.808594 663.5 C 757.421875 663.53125 758.15625 663.546875 759.007812 663.542969 L 762.105469 663.542969 C 761.769531 662.136719 761.125 660.691406 760.183594 659.203125 C 759.238281 657.714844 758.257812 656.21875 757.242188 654.714844 C 756.226562 653.214844 755.328125 651.65625 754.546875 650.042969 C 753.761719 648.433594 753.371094 646.675781 753.371094 644.78125 C 753.371094 643.027344 753.785156 641.410156 754.605469 639.921875 C 755.429688 638.433594 756.535156 637.160156 757.921875 636.09375 C 759.421875 634.890625 761.097656 633.992188 762.953125 633.40625 C 764.808594 632.820312 766.710938 632.527344 768.664062 632.523438 C 770.617188 632.527344 772.519531 632.820312 774.375 633.40625 C 776.230469 633.992188 777.933594 634.890625 779.480469 636.09375 C 780.835938 637.191406 781.933594 638.476562 782.773438 639.957031 C 783.613281 641.4375 784.03125 643.046875 784.03125 644.78125 C 784.03125 646.675781 783.640625 648.433594 782.855469 650.042969 C 782.078125 651.65625 781.167969 653.214844 780.136719 654.714844 C 779.101562 656.21875 778.109375 657.714844 777.160156 659.203125 C 776.207031 660.691406 775.5625 662.136719 775.222656 663.542969 L 778.34375 663.542969 C 779.199219 663.546875 779.933594 663.53125 780.546875 663.5 C 781.160156 663.46875 781.546875 663.390625 781.707031 663.261719 C 781.757812 663.234375 781.894531 662.859375 782.121094 662.136719 C 782.347656 661.417969 782.585938 660.523438 782.847656 659.457031 C 782.941406 659.085938 783.207031 658.890625 783.644531 658.871094 L 783.910156 658.871094 C 784.347656 658.964844 784.5625 659.234375 784.5625 659.667969 Z M 782.894531 666.386719 "/>
</g>
<path style="fill-rule:evenodd;fill:rgb(0%,0%,0%);fill-opacity:0.1451;stroke-width:10;stroke-linecap:round;stroke-linejoin:round;stroke:rgb(0%,0%,0%);stroke-opacity:1;stroke-miterlimit:10;" d="M 2379.546815 370.323701 C 2379.546815 202.624373 2070.626744 66.673419 1689.54881 66.673419 C 1308.470876 66.673419 999.550805 202.624373 999.550805 370.323701 C 999.550805 538.023029 1308.470876 673.973983 1689.54881 673.973983 C 2070.626744 673.973983 2379.546815 538.023029 2379.546815 370.323701 Z M 2379.546815 370.323701 " transform="matrix(0.359076,0,0,-0.358901,0.843115,808.190893)"/>
<path style="fill:none;stroke-width:10;stroke-linecap:round;stroke-linejoin:round;stroke:rgb(0%,0%,0%);stroke-opacity:1;stroke-miterlimit:10;" d="M 84.996399 370.323701 L 988.334951 370.323701 " transform="matrix(0.359076,0,0,-0.358901,0.843115,808.190893)"/>
<path style=" stroke:none;fill-rule:nonzero;fill:rgb(0%,0%,0%);fill-opacity:1;" d="M 354.832031 675.28125 L 354.832031 668.105469 L 356.625 668.105469 L 356.625 675.28125 C 356.625 675.777344 356.222656 676.179688 355.730469 676.179688 C 355.234375 676.179688 354.832031 675.777344 354.832031 675.28125 Z M 354.832031 664.515625 L 354.832031 657.335938 L 356.625 657.335938 L 356.625 664.515625 Z M 354.832031 653.75 L 354.832031 646.570312 L 356.625 646.570312 L 356.625 653.75 Z M 354.832031 642.980469 L 354.832031 635.804688 L 356.625 635.804688 L 356.625 642.980469 Z M 354.832031 632.214844 L 354.832031 625.035156 L 356.625 625.035156 L 356.625 632.214844 Z M 354.832031 621.449219 L 354.832031 614.269531 L 356.625 614.269531 L 356.625 621.449219 Z M 354.832031 610.679688 L 354.832031 603.503906 L 356.625 603.503906 L 356.625 610.679688 Z M 354.832031 599.914062 L 354.832031 592.734375 L 356.625 592.734375 L 356.625 599.914062 Z M 354.832031 589.144531 L 354.832031 581.96875 L 356.625 581.96875 L 356.625 589.144531 Z M 354.832031 578.378906 L 354.832031 571.203125 L 356.625 571.203125 L 356.625 578.378906 Z M 354.832031 567.613281 L 354.832031 560.433594 L 356.625 560.433594 L 356.625 567.613281 Z M 354.832031 556.84375 L 354.832031 549.667969 L 356.625 549.667969 L 356.625 556.84375 Z M 354.832031 546.078125 L 354.832031 538.898438 L 356.625 538.898438 L 356.625 546.078125 Z M 354.832031 535.3125 L 354.832031 528.132812 L 356.625 528.132812 L 356.625 535.3125 Z M 354.832031 524.542969 L 354.832031 517.367188 L 356.625 517.367188 L 356.625 524.542969 Z M 354.832031 513.777344 L 354.832031 506.597656 L 356.625 506.597656 L 356.625 513.777344 Z M 354.832031 503.011719 L 354.832031 495.832031 L 356.625 495.832031 L 356.625 503.011719 Z M 354.832031 492.242188 L 354.832031 485.066406 L 356.625 485.066406 L 356.625 492.242188 Z M 354.832031 481.476562 L 354.832031 474.296875 L 356.625 474.296875 L 356.625 481.476562 Z M 354.832031 470.707031 L 354.832031 463.53125 L 356.625 463.53125 L 356.625 470.707031 Z M 354.832031 459.941406 L 354.832031 452.765625 L 356.625 452.765625 L 356.625 459.941406 Z M 354.832031 449.175781 L 354.832031 441.996094 L 356.625 441.996094 L 356.625 449.175781 Z M 354.832031 438.40625 L 354.832031 431.230469 L 356.625 431.230469 L 356.625 438.40625 Z M 354.832031 427.640625 L 354.832031 420.460938 L 356.625 420.460938 L 356.625 427.640625 Z M 354.832031 416.875 L 354.832031 409.695312 L 356.625 409.695312 L 356.625 416.875 Z M 354.832031 406.105469 L 354.832031 398.929688 L 356.625 398.929688 L 356.625 406.105469 Z M 354.832031 395.339844 L 354.832031 388.160156 L 356.625 388.160156 L 356.625 395.339844 Z M 354.832031 384.574219 L 354.832031 377.394531 L 356.625 377.394531 L 356.625 384.574219 Z M 354.832031 373.804688 L 354.832031 366.628906 L 356.625 366.628906 L 356.625 373.804688 Z M 354.832031 363.039062 L 354.832031 355.859375 L 356.625 355.859375 L 356.625 363.039062 Z M 354.832031 352.269531 L 354.832031 345.09375 L 356.625 345.09375 L 356.625 352.269531 Z M 354.832031 341.503906 L 354.832031 334.328125 L 356.625 334.328125 L 356.625 341.503906 Z M 354.832031 330.738281 L 354.832031 323.558594 L 356.625 323.558594 L 356.625 330.738281 Z M 354.832031 319.96875 L 354.832031 312.792969 L 356.625 312.792969 L 356.625 319.96875 Z M 354.832031 309.203125 L 354.832031 302.023438 L 356.625 302.023438 L 356.625 309.203125 Z M 354.832031 298.4375 L 354.832031 291.257812 L 356.625 291.257812 L 356.625 298.4375 Z M 354.832031 287.667969 L 354.832031 280.492188 L 356.625 280.492188 L 356.625 287.667969 Z M 354.832031 276.902344 L 354.832031 269.722656 L 356.625 269.722656 L 356.625 276.902344 Z M 354.832031 266.136719 L 354.832031 258.957031 L 356.625 258.957031 L 356.625 266.136719 Z M 354.832031 255.367188 L 354.832031 248.191406 L 356.625 248.191406 L 356.625 255.367188 Z M 354.832031 244.601562 L 354.832031 237.421875 L 356.625 237.421875 L 356.625 244.601562 Z M 354.832031 233.835938 L 354.832031 226.65625 L 356.625 226.65625 L 356.625 233.835938 Z M 354.832031 223.066406 L 354.832031 216.785156 C 354.832031 216.289062 355.234375 215.890625 355.730469 215.890625 C 356.222656 215.890625 356.625 216.289062 356.625 216.785156 L 356.625 223.066406 Z M 354.832031 223.066406 "/>
<path style=" stroke:none;fill-rule:nonzero;fill:rgb(0%,0%,0%);fill-opacity:1;" d="M 854.382812 675.28125 L 854.382812 668.105469 L 856.179688 668.105469 L 856.179688 675.28125 C 856.179688 675.777344 855.777344 676.179688 855.28125 676.179688 C 854.785156 676.179688 854.382812 675.777344 854.382812 675.28125 Z M 854.382812 664.515625 L 854.382812 657.335938 L 856.179688 657.335938 L 856.179688 664.515625 Z M 854.382812 653.75 L 854.382812 646.570312 L 856.179688 646.570312 L 856.179688 653.75 Z M 854.382812 642.980469 L 854.382812 635.804688 L 856.179688 635.804688 L 856.179688 642.980469 Z M 854.382812 632.214844 L 854.382812 625.035156 L 856.179688 625.035156 L 856.179688 632.214844 Z M 854.382812 621.449219 L 854.382812 614.269531 L 856.179688 614.269531 L 856.179688 621.449219 Z M 854.382812 610.679688 L 854.382812 603.503906 L 856.179688 603.503906 L 856.179688 610.679688 Z M 854.382812 599.914062 L 854.382812 592.734375 L 856.179688 592.734375 L 856.179688 599.914062 Z M 854.382812 589.144531 L 854.382812 581.96875 L 856.179688 581.96875 L 856.179688 589.144531 Z M 854.382812 578.378906 L 854.382812 571.203125 L 856.179688 571.203125 L 856.179688 578.378906 Z M 854.382812 567.613281 L 854.382812 560.433594 L 856.179688 560.433594 L 856.179688 567.613281 Z M 854.382812 556.84375 L 854.382812 549.667969 L 856.179688 549.667969 L 856.179688 556.84375 Z M 854.382812 546.078125 L 854.382812 538.898438 L 856.179688 538.898438 L 856.179688 546.078125 Z M 854.382812 535.3125 L 854.382812 528.132812 L 856.179688 528.132812 L 856.179688 535.3125 Z M 854.382812 524.542969 L 854.382812 517.367188 L 856.179688 517.367188 L 856.179688 524.542969 Z M 854.382812 513.777344 L 854.382812 506.597656 L 856.179688 506.597656 L 856.179688 513.777344 Z M 854.382812 503.011719 L 854.382812 495.832031 L 856.179688 495.832031 L 856.179688 503.011719 Z M 854.382812 492.242188 L 854.382812 485.066406 L 856.179688 485.066406 L 856.179688 492.242188 Z M 854.382812 481.476562 L 854.382812 474.296875 L 856.179688 474.296875 L 856.179688 481.476562 Z M 854.382812 470.707031 L 854.382812 463.53125 L 856.179688 463.53125 L 856.179688 470.707031 Z M 854.382812 459.941406 L 854.382812 452.765625 L 856.179688 452.765625 L 856.179688 459.941406 Z M 854.382812 449.175781 L 854.382812 441.996094 L 856.179688 441.996094 L 856.179688 449.175781 Z M 854.382812 438.40625 L 854.382812 431.230469 L 856.179688 431.230469 L 856.179688 438.40625 Z M 854.382812 427.640625 L 854.382812 420.460938 L 856.179688 420.460938 L 856.179688 427.640625 Z M 854.382812 416.875 L 854.382812 409.695312 L 856.179688 409.695312 L 856.179688 416.875 Z M 854.382812 406.105469 L 854.382812 398.929688 L 856.179688 398.929688 L 856.179688 406.105469 Z M 854.382812 395.339844 L 854.382812 388.160156 L 856.179688 388.160156 L 856.179688 395.339844 Z M 854.382812 384.574219 L 854.382812 377.394531 L 856.179688 377.394531 L 856.179688 384.574219 Z M 854.382812 373.804688 L 854.382812 366.628906 L 856.179688 366.628906 L 856.179688 373.804688 Z M 854.382812 363.039062 L 854.382812 355.859375 L 856.179688 355.859375 L 856.179688 363.039062 Z M 854.382812 352.269531 L 854.382812 345.09375 L 856.179688 345.09375 L 856.179688 352.269531 Z M 854.382812 341.503906 L 854.382812 334.328125 L 856.179688 334.328125 L 856.179688 341.503906 Z M 854.382812 330.738281 L 854.382812 323.558594 L 856.179688 323.558594 L 856.179688 330.738281 Z M 854.382812 319.96875 L 854.382812 312.792969 L 856.179688 312.792969 L 856.179688 319.96875 Z M 854.382812 309.203125 L 854.382812 302.023438 L 856.179688 302.023438 L 856.179688 309.203125 Z M 854.382812 298.4375 L 854.382812 291.257812 L 856.179688 291.257812 L 856.179688 298.4375 Z M 854.382812 287.667969 L 854.382812 280.492188 L 856.179688 280.492188 L 856.179688 287.667969 Z M 854.382812 276.902344 L 854.382812 269.722656 L 856.179688 269.722656 L 856.179688 276.902344 Z M 854.382812 266.136719 L 854.382812 258.957031 L 856.179688 258.957031 L 856.179688 266.136719 Z M 854.382812 255.367188 L 854.382812 248.191406 L 856.179688 248.191406 L 856.179688 255.367188 Z M 854.382812 244.601562 L 854.382812 237.421875 L 856.179688 237.421875 L 856.179688 244.601562 Z M 854.382812 233.835938 L 854.382812 226.65625 L 856.179688 226.65625 L 856.179688 233.835938 Z M 854.382812 223.066406 L 854.382812 216.785156 C 854.382812 216.289062 854.785156 215.890625 855.28125 215.890625 C 855.777344 215.890625 856.179688 216.289062 856.179688 216.785156 L 856.179688 223.066406 Z M 854.382812 223.066406 "/>
<path style="fill-rule:evenodd;fill:rgb(0%,0%,0%);fill-opacity:0.1451;stroke-width:10;stroke-linecap:butt;stroke-linejoin:round;stroke:rgb(0%,0%,0%);stroke-opacity:1;stroke-dasharray:20,20;stroke-miterlimit:10;" d="M 2379.546815 1647.822961 C 2379.546815 1480.123633 2070.626744 1344.172679 1689.54881 1344.172679 C 1308.470876 1344.172679 999.550805 1480.123633 999.550805 1647.822961 C 999.550805 1815.522289 1308.470876 1951.473243 1689.54881 1951.473243 C 2070.626744 1951.473243 2379.546815 1815.522289 2379.546815 1647.822961 Z M 2379.546815 1647.822961 " transform="matrix(0.359076,0,0,-0.358901,0.843115,808.190893)"/>
<path style=" stroke:none;fill-rule:evenodd;fill:rgb(0%,0%,0%);fill-opacity:1;" d="M 58.75 716.148438 C 58.574219 716.621094 58.257812 716.855469 57.804688 716.855469 L 53.304688 716.855469 L 49.722656 730.730469 C 49.433594 731.734375 49.289062 732.613281 49.289062 733.363281 C 49.289062 733.566406 49.304688 733.761719 49.335938 733.949219 C 49.417969 734.703125 49.796875 735.078125 50.472656 735.078125 C 51.085938 735.078125 51.667969 734.910156 52.214844 734.574219 C 52.765625 734.238281 53.28125 733.785156 53.765625 733.222656 C 54.25 732.660156 54.683594 731.992188 55.074219 731.226562 C 55.460938 730.460938 55.8125 729.652344 56.136719 728.804688 C 56.1875 728.621094 56.289062 728.484375 56.453125 728.398438 C 56.613281 728.3125 56.765625 728.269531 56.910156 728.265625 L 57.515625 728.265625 C 57.726562 728.269531 57.894531 728.355469 58.023438 728.523438 C 58.070312 728.636719 58.097656 728.738281 58.097656 728.828125 L 58.097656 728.972656 C 57.757812 729.894531 57.332031 730.808594 56.824219 731.707031 C 56.316406 732.609375 55.734375 733.417969 55.074219 734.136719 C 54.410156 734.859375 53.679688 735.453125 52.882812 735.921875 C 52.082031 736.390625 51.199219 736.625 50.230469 736.625 C 49.394531 736.625 48.667969 736.464844 48.054688 736.144531 C 47.441406 735.824219 46.949219 735.378906 46.578125 734.808594 C 46.207031 734.238281 45.988281 733.582031 45.925781 732.84375 C 45.890625 732.660156 45.875 732.453125 45.875 732.234375 C 45.875 731.703125 45.941406 731.164062 46.070312 730.613281 L 49.625 716.855469 L 45.078125 716.855469 C 44.675781 716.855469 44.457031 716.644531 44.421875 716.21875 L 44.421875 716.03125 L 44.570312 715.632812 C 44.730469 715.164062 45.03125 714.929688 45.464844 714.929688 L 50.085938 714.929688 L 52.070312 707.226562 C 52.214844 706.648438 52.511719 706.21875 52.953125 705.9375 C 53.398438 705.652344 53.84375 705.511719 54.296875 705.511719 C 54.765625 705.511719 55.152344 705.660156 55.457031 705.957031 C 55.667969 706.164062 55.773438 706.445312 55.773438 706.804688 C 55.773438 706.976562 55.757812 707.148438 55.722656 707.320312 L 53.765625 714.929688 L 58.21875 714.929688 C 58.636719 714.929688 58.847656 715.140625 58.847656 715.5625 L 58.847656 715.726562 Z M 58.75 716.148438 "/>
<path style="fill:none;stroke-width:0.268;stroke-linecap:round;stroke-linejoin:round;stroke:rgb(0%,0%,0%);stroke-opacity:1;stroke-miterlimit:10;" d="M 6.437289 8.214842 L 11.12707 8.214842 " transform="matrix(7.181506,0,-0.000000167281,-7.178003,26.579169,775.556001)"/>
<path style="fill:none;stroke-width:0.268;stroke-linecap:round;stroke-linejoin:round;stroke:rgb(0%,0%,0%);stroke-opacity:1;stroke-miterlimit:10;" d="M 6.437289 6.807547 L 11.127069 6.807547 " transform="matrix(7.181506,0,-0.000000167281,-7.178003,26.579169,775.556001)"/>
<path style=" stroke:none;fill-rule:evenodd;fill:rgb(0%,0%,0%);fill-opacity:1;" d="M 142.554688 719.875 C 142.554688 722.085938 142.394531 724.285156 142.085938 726.46875 C 141.777344 728.65625 141.015625 730.707031 139.804688 732.625 C 138.933594 734.023438 137.769531 735.09375 136.3125 735.847656 C 134.863281 736.597656 133.28125 736.972656 131.574219 736.972656 C 129.929688 736.972656 128.378906 736.597656 126.910156 735.847656 C 125.445312 735.09375 124.285156 734.023438 123.414062 732.625 C 122.195312 730.707031 121.433594 728.65625 121.125 726.46875 C 120.816406 724.285156 120.664062 722.085938 120.664062 719.875 C 120.664062 717.636719 120.816406 715.398438 121.125 713.167969 C 121.433594 710.9375 122.195312 708.847656 123.414062 706.894531 C 124.285156 705.484375 125.445312 704.390625 126.898438 703.605469 C 128.355469 702.820312 129.914062 702.433594 131.574219 702.433594 C 133.261719 702.433594 134.839844 702.820312 136.304688 703.605469 C 137.761719 704.390625 138.933594 705.484375 139.804688 706.894531 C 141.015625 708.847656 141.777344 710.9375 142.085938 713.167969 C 142.394531 715.398438 142.554688 717.636719 142.554688 719.875 Z M 137.855469 719.070312 C 137.855469 718.105469 137.847656 717.085938 137.835938 716.011719 C 137.8125 714.9375 137.777344 713.886719 137.714844 712.859375 C 137.648438 711.832031 137.535156 710.859375 137.367188 709.945312 C 137.203125 709.035156 137.003906 708.253906 136.765625 707.609375 C 136.292969 706.566406 135.59375 705.710938 134.675781 705.042969 C 133.761719 704.375 132.722656 704.042969 131.574219 704.042969 C 130.445312 704.042969 129.433594 704.382812 128.527344 705.054688 C 127.617188 705.730469 126.925781 706.582031 126.445312 707.609375 C 126.214844 708.253906 126.015625 709.035156 125.84375 709.945312 C 125.675781 710.859375 125.5625 711.832031 125.496094 712.859375 C 125.441406 713.886719 125.398438 714.9375 125.382812 716.011719 C 125.367188 717.085938 125.359375 718.105469 125.359375 719.070312 C 125.359375 720.144531 125.367188 721.277344 125.382812 722.464844 C 125.398438 723.65625 125.441406 724.804688 125.496094 725.917969 C 125.5625 727.03125 125.675781 728.085938 125.84375 729.082031 C 126.015625 730.078125 126.214844 730.914062 126.445312 731.589844 C 126.890625 732.710938 127.578125 733.628906 128.5 734.351562 C 129.425781 735.074219 130.445312 735.433594 131.574219 735.433594 C 132.742188 735.433594 133.792969 735.074219 134.710938 734.351562 C 135.636719 733.628906 136.320312 732.710938 136.765625 731.589844 C 137.003906 730.914062 137.203125 730.078125 137.367188 729.082031 C 137.535156 728.085938 137.648438 727.03125 137.714844 725.917969 C 137.777344 724.804688 137.8125 723.65625 137.835938 722.464844 C 137.847656 721.277344 137.855469 720.144531 137.855469 719.070312 Z M 137.855469 719.070312 "/>
<path style=" stroke:none;fill-rule:nonzero;fill:rgb(0%,0%,0%);fill-opacity:1;" d="M 29.570312 675.28125 L 29.570312 61.234375 L 33.160156 61.234375 L 33.160156 675.28125 C 33.160156 676.273438 32.355469 677.078125 31.363281 677.078125 C 30.371094 677.078125 29.570312 676.273438 29.570312 675.28125 Z M 31.363281 32.546875 L 20.59375 68.4375 L 29.570312 61.261719 L 33.160156 61.261719 L 42.136719 68.4375 Z M 31.363281 32.546875 "/>
<g clip-path="url(#clip2)" clip-rule="nonzero">
<path style=" stroke:none;fill-rule:evenodd;fill:rgb(0%,0%,0%);fill-opacity:1;" d="M 920.054688 607.890625 C 920.039062 608.515625 919.804688 608.832031 919.351562 608.828125 L 919.109375 608.828125 C 918.691406 608.832031 918.433594 608.625 918.335938 608.21875 C 918.140625 606.746094 917.890625 605.355469 917.574219 604.039062 C 917.261719 602.722656 916.691406 601.714844 915.867188 601.007812 C 915.03125 600.289062 914 599.859375 912.78125 599.71875 C 911.566406 599.578125 910.273438 599.507812 908.902344 599.507812 L 904.0625 599.507812 C 903.109375 599.507812 902.5625 599.570312 902.417969 599.695312 C 902.320312 599.773438 902.269531 600.210938 902.269531 601.007812 L 902.269531 627.308594 C 902.269531 627.96875 902.46875 628.363281 902.863281 628.496094 C 903.261719 628.628906 903.953125 628.714844 904.945312 628.753906 C 905.9375 628.792969 906.910156 628.8125 907.859375 628.8125 C 908.394531 628.8125 908.660156 629.078125 908.660156 629.609375 L 908.660156 629.988281 C 908.660156 630.503906 908.394531 630.761719 907.859375 630.761719 C 905.410156 630.699219 903 630.652344 900.625 630.621094 L 899.585938 630.621094 C 897.507812 630.621094 895.425781 630.667969 893.34375 630.761719 C 892.8125 630.761719 892.554688 630.503906 892.570312 629.988281 L 892.570312 629.609375 C 892.570312 629.066406 892.828125 628.796875 893.34375 628.8125 C 894.167969 628.8125 894.945312 628.800781 895.679688 628.777344 C 896.414062 628.753906 896.941406 628.671875 897.265625 628.53125 C 897.539062 628.390625 897.675781 627.984375 897.675781 627.308594 L 897.675781 601.007812 C 897.675781 600.335938 897.527344 599.933594 897.226562 599.800781 C 896.929688 599.667969 896.414062 599.585938 895.679688 599.554688 C 894.945312 599.523438 894.167969 599.507812 893.34375 599.507812 C 892.8125 599.507812 892.554688 599.25 892.570312 598.730469 L 892.570312 598.355469 C 892.570312 597.808594 892.828125 597.535156 893.34375 597.535156 L 917.875 597.535156 C 918.40625 597.535156 918.675781 597.769531 918.675781 598.238281 Z M 920.054688 607.890625 "/>
</g>
<path style="fill:none;stroke-width:0.268;stroke-linecap:round;stroke-linejoin:round;stroke:rgb(0%,0%,0%);stroke-opacity:1;stroke-miterlimit:10;" d="M 6.626976 7.843427 L 15.728217 7.843428 " transform="matrix(7.181369,0.000000714752,-0.00000519082,-7.178058,981.924906,481.24979)"/>
<path style=" stroke:none;fill-rule:evenodd;fill:rgb(0%,0%,0%);fill-opacity:1;" d="M 1060.410156 392.484375 C 1059.851562 394.753906 1059.082031 397.015625 1058.113281 399.269531 C 1057.140625 401.523438 1055.785156 403.648438 1054.027344 405.636719 C 1052.671875 407.121094 1051.109375 408.300781 1049.34375 409.167969 C 1047.578125 410.039062 1045.78125 410.472656 1043.960938 410.472656 C 1042.167969 410.472656 1040.6875 410.199219 1039.507812 409.648438 C 1038.332031 409.101562 1037.292969 408.214844 1036.386719 406.972656 C 1035.453125 405.722656 1034.871094 404.4375 1034.644531 403.125 C 1034.582031 402.742188 1034.546875 402.347656 1034.546875 401.925781 C 1034.546875 400.921875 1034.71875 399.808594 1035.058594 398.566406 C 1035.507812 396.894531 1036.140625 395.40625 1036.957031 394.117188 C 1037.769531 392.824219 1038.953125 391.558594 1040.5 390.324219 C 1041.96875 389.121094 1043.40625 388.25 1044.820312 387.71875 C 1046.230469 387.1875 1047.800781 386.921875 1049.523438 386.914062 C 1051.476562 386.921875 1052.988281 387.488281 1054.0625 388.625 C 1055.132812 389.757812 1055.742188 390.785156 1055.886719 391.710938 C 1056.246094 390.316406 1056.5625 388.566406 1056.855469 386.449219 C 1056.917969 385.839844 1056.949219 385.242188 1056.949219 384.660156 C 1056.949219 383.285156 1056.726562 381.957031 1056.273438 380.671875 C 1055.777344 379.34375 1054.996094 378.25 1053.925781 377.410156 C 1052.863281 376.566406 1051.574219 376.140625 1050.054688 376.140625 C 1048.523438 376.140625 1047.152344 376.472656 1045.941406 377.140625 C 1044.734375 377.808594 1043.886719 378.582031 1043.402344 379.472656 C 1043.292969 379.507812 1043.363281 379.523438 1043.621094 379.523438 C 1044.074219 379.523438 1044.492188 379.621094 1044.878906 379.824219 C 1045.363281 380.140625 1045.597656 380.59375 1045.582031 381.1875 C 1045.582031 381.394531 1045.546875 381.632812 1045.484375 381.914062 C 1045.273438 382.6875 1044.875 383.261719 1044.289062 383.640625 C 1043.699219 384.03125 1043.097656 384.21875 1042.484375 384.21875 C 1041.886719 384.21875 1041.378906 384.015625 1040.960938 383.605469 C 1040.652344 383.355469 1040.5 382.996094 1040.5 382.53125 C 1040.5 382.320312 1040.53125 382.09375 1040.597656 381.820312 C 1040.902344 380.699219 1041.363281 379.671875 1041.976562 378.746094 C 1042.589844 377.820312 1043.320312 377.054688 1044.164062 376.4375 C 1045.011719 375.820312 1045.960938 375.335938 1047.007812 374.992188 C 1048.054688 374.648438 1049.167969 374.476562 1050.347656 374.46875 C 1052.445312 374.476562 1054.269531 374.980469 1055.8125 375.976562 C 1057.363281 376.980469 1058.570312 378.257812 1059.441406 379.824219 C 1060.410156 381.660156 1060.96875 383.664062 1061.113281 385.839844 C 1061.140625 386.25 1061.164062 386.636719 1061.164062 387.007812 C 1061.164062 388.832031 1060.914062 390.65625 1060.410156 392.484375 Z M 1053.851562 398.917969 C 1053.839844 398.875 1053.832031 398.816406 1053.832031 398.753906 C 1053.832031 398.644531 1053.851562 398.550781 1053.902344 398.472656 C 1054.386719 397.171875 1054.644531 395.925781 1054.679688 394.710938 L 1054.679688 394.554688 C 1054.679688 393.390625 1054.472656 392.371094 1054.046875 391.472656 C 1053.628906 390.597656 1053.027344 389.878906 1052.246094 389.328125 C 1051.464844 388.773438 1050.5 388.496094 1049.355469 388.496094 C 1048.128906 388.496094 1047.03125 388.71875 1046.066406 389.175781 C 1045.097656 389.628906 1044.136719 390.355469 1043.183594 391.359375 C 1042.667969 391.890625 1042.242188 392.429688 1041.902344 392.980469 C 1041.566406 393.527344 1041.273438 394.101562 1041.03125 394.691406 C 1040.789062 395.285156 1040.574219 395.910156 1040.378906 396.570312 C 1040.1875 397.230469 1039.992188 397.933594 1039.796875 398.679688 C 1039.394531 400.214844 1039.113281 401.542969 1038.949219 402.648438 C 1038.917969 402.9375 1038.902344 403.203125 1038.902344 403.445312 C 1038.902344 404.28125 1039.097656 405.121094 1039.484375 405.960938 C 1039.96875 406.949219 1040.585938 407.644531 1041.335938 408.054688 C 1042.085938 408.464844 1043.074219 408.664062 1044.296875 408.664062 C 1045.539062 408.664062 1046.773438 408.300781 1048 407.558594 C 1049.226562 406.828125 1050.257812 405.867188 1051.097656 404.675781 C 1051.648438 403.921875 1052.148438 403.03125 1052.609375 402.003906 C 1053.070312 400.984375 1053.484375 399.949219 1053.851562 398.917969 Z M 1053.851562 398.917969 "/>
<path style=" stroke:none;fill-rule:evenodd;fill:rgb(0%,0%,0%);fill-opacity:1;" d="M 1088.964844 402.390625 C 1088.785156 403.117188 1088.574219 403.914062 1088.332031 404.789062 C 1088.085938 405.664062 1087.765625 406.484375 1087.363281 407.230469 C 1086.960938 407.984375 1086.457031 408.636719 1085.839844 409.183594 C 1085.230469 409.726562 1084.460938 410 1083.542969 410 C 1082.414062 410 1081.5 409.710938 1080.804688 409.132812 C 1080.117188 408.558594 1079.683594 407.960938 1079.527344 407.351562 C 1078.972656 408.027344 1078.242188 408.636719 1077.320312 409.183594 C 1076.402344 409.726562 1075.339844 410 1074.125 410 C 1073.035156 410 1072.050781 409.800781 1071.1875 409.390625 C 1070.328125 408.988281 1069.644531 408.355469 1069.144531 407.507812 C 1068.660156 406.605469 1068.425781 405.609375 1068.445312 404.507812 L 1068.445312 404.316406 C 1068.476562 403.175781 1068.617188 402.039062 1068.875 400.914062 C 1069.136719 399.835938 1069.515625 398.644531 1070.003906 397.34375 C 1070.5 396.046875 1070.964844 394.78125 1071.417969 393.5625 C 1071.898438 392.261719 1072.144531 391.199219 1072.144531 390.367188 C 1072.144531 389.664062 1071.851562 389.3125 1071.246094 389.3125 C 1070.699219 389.3125 1070.207031 389.472656 1069.761719 389.785156 C 1069.320312 390.09375 1068.921875 390.535156 1068.554688 391.085938 C 1068.1875 391.644531 1067.863281 392.300781 1067.570312 393.058594 C 1067.28125 393.820312 1067.039062 394.632812 1066.84375 395.488281 C 1066.671875 395.910156 1066.371094 396.132812 1065.953125 396.148438 L 1065.394531 396.148438 C 1065.007812 396.148438 1064.8125 395.953125 1064.8125 395.558594 L 1064.8125 395.394531 C 1065.042969 394.53125 1065.335938 393.65625 1065.710938 392.75 C 1066.082031 391.855469 1066.550781 391.035156 1067.109375 390.304688 C 1067.675781 389.566406 1068.324219 388.953125 1069.050781 388.464844 C 1069.773438 387.984375 1070.609375 387.742188 1071.542969 387.742188 C 1072.34375 387.742188 1073.035156 387.914062 1073.609375 388.257812 C 1074.183594 388.601562 1074.613281 389.0625 1074.917969 389.628906 C 1075.21875 390.203125 1075.375 390.847656 1075.410156 391.566406 L 1075.410156 391.730469 C 1075.410156 392.40625 1075.277344 393.101562 1075.003906 393.820312 C 1074.535156 395.042969 1074.070312 396.289062 1073.609375 397.566406 C 1073.148438 398.84375 1072.789062 399.996094 1072.53125 401.007812 C 1072.273438 402.027344 1072.09375 403.039062 1072 404.035156 C 1071.9375 404.300781 1071.894531 404.59375 1071.878906 404.902344 C 1071.878906 405.519531 1071.988281 406.125 1072.195312 406.710938 C 1072.339844 407.25 1072.605469 407.667969 1072.992188 407.984375 C 1073.378906 408.300781 1073.839844 408.449219 1074.371094 408.449219 C 1075.433594 408.449219 1076.367188 408.132812 1077.15625 407.488281 C 1077.945312 406.847656 1078.636719 405.996094 1079.230469 404.933594 C 1079.269531 404.804688 1079.289062 404.660156 1079.304688 404.496094 C 1079.324219 404.328125 1079.347656 404.164062 1079.375 403.992188 L 1083.011719 389.996094 C 1083.152344 389.414062 1083.449219 388.988281 1083.894531 388.71875 C 1084.332031 388.445312 1084.785156 388.308594 1085.234375 388.300781 C 1085.703125 388.308594 1086.089844 388.445312 1086.390625 388.726562 C 1086.609375 388.933594 1086.707031 389.207031 1086.707031 389.550781 C 1086.707031 389.722656 1086.695312 389.902344 1086.664062 390.089844 L 1083.03125 404.085938 C 1082.773438 405.054688 1082.644531 405.917969 1082.644531 406.667969 C 1082.644531 406.871094 1082.65625 407.09375 1082.695312 407.324219 C 1082.773438 408.078125 1083.152344 408.449219 1083.828125 408.449219 C 1084.511719 408.449219 1085.09375 407.875 1085.589844 406.710938 C 1086.078125 405.558594 1086.558594 404.070312 1087.023438 402.253906 C 1087.125 401.847656 1087.398438 401.644531 1087.851562 401.644531 L 1088.402344 401.644531 C 1088.582031 401.644531 1088.761719 401.695312 1088.933594 401.804688 C 1089 401.945312 1089.035156 402.070312 1089.035156 402.160156 C 1089.035156 402.226562 1089.007812 402.296875 1088.964844 402.390625 Z M 1088.964844 402.390625 "/>
<path style=" stroke:none;fill-rule:evenodd;fill:rgb(0%,0%,0%);fill-opacity:1;" d="M 1065.496094 452.351562 C 1064.933594 454.621094 1064.164062 456.882812 1063.195312 459.136719 C 1062.234375 461.394531 1060.871094 463.515625 1059.109375 465.5 C 1057.753906 466.988281 1056.195312 468.167969 1054.429688 469.035156 C 1052.664062 469.90625 1050.871094 470.339844 1049.046875 470.339844 C 1047.257812 470.339844 1045.773438 470.066406 1044.59375 469.515625 C 1043.417969 468.972656 1042.378906 468.078125 1041.472656 466.839844 C 1040.539062 465.589844 1039.957031 464.304688 1039.730469 462.988281 C 1039.667969 462.613281 1039.636719 462.214844 1039.636719 461.789062 C 1039.636719 460.789062 1039.804688 459.671875 1040.144531 458.433594 C 1040.59375 456.757812 1041.230469 455.277344 1042.042969 453.984375 C 1042.855469 452.691406 1044.039062 451.429688 1045.585938 450.191406 C 1047.054688 448.988281 1048.492188 448.117188 1049.90625 447.585938 C 1051.316406 447.054688 1052.886719 446.785156 1054.609375 446.785156 C 1056.5625 446.785156 1058.074219 447.355469 1059.144531 448.488281 C 1060.222656 449.625 1060.828125 450.652344 1060.96875 451.574219 C 1061.328125 450.183594 1061.652344 448.429688 1061.941406 446.316406 C 1062.003906 445.707031 1062.039062 445.113281 1062.039062 444.53125 C 1062.039062 443.15625 1061.808594 441.824219 1061.359375 440.539062 C 1060.863281 439.210938 1060.078125 438.121094 1059.015625 437.277344 C 1057.945312 436.429688 1056.660156 436.007812 1055.144531 436.007812 C 1053.609375 436.007812 1052.238281 436.339844 1051.03125 437.007812 C 1049.820312 437.671875 1048.972656 438.449219 1048.488281 439.339844 C 1048.378906 439.375 1048.449219 439.390625 1048.707031 439.386719 C 1049.160156 439.390625 1049.578125 439.492188 1049.964844 439.691406 C 1050.449219 440.007812 1050.683594 440.460938 1050.667969 441.054688 C 1050.667969 441.261719 1050.636719 441.503906 1050.570312 441.785156 C 1050.363281 442.550781 1049.960938 443.128906 1049.371094 443.511719 C 1048.785156 443.894531 1048.183594 444.085938 1047.570312 444.085938 C 1046.972656 444.085938 1046.464844 443.882812 1046.046875 443.472656 C 1045.742188 443.226562 1045.585938 442.863281 1045.585938 442.394531 C 1045.585938 442.191406 1045.617188 441.957031 1045.683594 441.6875 C 1045.992188 440.5625 1046.449219 439.539062 1047.0625 438.613281 C 1047.675781 437.691406 1048.40625 436.921875 1049.25 436.300781 C 1050.097656 435.683594 1051.046875 435.203125 1052.09375 434.855469 C 1053.140625 434.515625 1054.253906 434.339844 1055.433594 434.339844 C 1057.53125 434.339844 1059.355469 434.84375 1060.898438 435.84375 C 1062.449219 436.847656 1063.65625 438.128906 1064.53125 439.691406 C 1065.5 441.527344 1066.054688 443.53125 1066.199219 445.703125 C 1066.234375 446.113281 1066.25 446.503906 1066.25 446.878906 C 1066.25 448.695312 1065.996094 450.519531 1065.496094 452.351562 Z M 1058.9375 458.785156 C 1058.921875 458.738281 1058.917969 458.6875 1058.917969 458.621094 C 1058.917969 458.511719 1058.9375 458.417969 1058.988281 458.339844 C 1059.476562 457.042969 1059.726562 455.789062 1059.765625 454.582031 L 1059.765625 454.417969 C 1059.765625 453.261719 1059.554688 452.234375 1059.132812 451.339844 C 1058.714844 450.464844 1058.113281 449.75 1057.328125 449.195312 C 1056.554688 448.640625 1055.585938 448.359375 1054.441406 448.359375 C 1053.214844 448.359375 1052.121094 448.585938 1051.152344 449.042969 C 1050.183594 449.496094 1049.222656 450.222656 1048.273438 451.222656 C 1047.753906 451.757812 1047.328125 452.296875 1046.988281 452.84375 C 1046.652344 453.394531 1046.359375 453.964844 1046.117188 454.558594 C 1045.878906 455.15625 1045.660156 455.78125 1045.464844 456.4375 C 1045.273438 457.09375 1045.078125 457.800781 1044.882812 458.550781 C 1044.484375 460.085938 1044.199219 461.410156 1044.039062 462.519531 C 1044.003906 462.800781 1043.988281 463.066406 1043.988281 463.316406 C 1043.988281 464.148438 1044.183594 464.984375 1044.570312 465.828125 C 1045.054688 466.816406 1045.671875 467.515625 1046.421875 467.921875 C 1047.171875 468.328125 1048.160156 468.53125 1049.386719 468.53125 C 1050.628906 468.53125 1051.859375 468.164062 1053.085938 467.429688 C 1054.3125 466.691406 1055.347656 465.730469 1056.179688 464.539062 C 1056.734375 463.789062 1057.234375 462.902344 1057.695312 461.875 C 1058.15625 460.851562 1058.570312 459.820312 1058.9375 458.785156 Z M 1058.9375 458.785156 "/>
<path style=" stroke:none;fill-rule:evenodd;fill:rgb(0%,0%,0%);fill-opacity:1;" d="M 1084.609375 449.390625 C 1084.433594 449.863281 1084.117188 450.097656 1083.664062 450.097656 L 1079.167969 450.097656 L 1075.585938 463.976562 C 1075.296875 464.980469 1075.152344 465.855469 1075.152344 466.605469 C 1075.152344 466.808594 1075.167969 467.003906 1075.195312 467.191406 C 1075.28125 467.945312 1075.65625 468.320312 1076.339844 468.320312 C 1076.949219 468.320312 1077.53125 468.152344 1078.078125 467.816406 C 1078.628906 467.480469 1079.144531 467.03125 1079.628906 466.464844 C 1080.109375 465.902344 1080.546875 465.238281 1080.933594 464.46875 C 1081.320312 463.703125 1081.675781 462.894531 1081.996094 462.050781 C 1082.046875 461.863281 1082.148438 461.726562 1082.3125 461.640625 C 1082.472656 461.554688 1082.628906 461.511719 1082.773438 461.507812 L 1083.375 461.507812 C 1083.585938 461.511719 1083.757812 461.597656 1083.886719 461.765625 C 1083.9375 461.878906 1083.957031 461.980469 1083.957031 462.074219 L 1083.957031 462.214844 C 1083.621094 463.136719 1083.195312 464.050781 1082.6875 464.949219 C 1082.175781 465.851562 1081.59375 466.660156 1080.933594 467.382812 C 1080.273438 468.101562 1079.542969 468.695312 1078.742188 469.164062 C 1077.945312 469.632812 1077.0625 469.867188 1076.09375 469.867188 C 1075.253906 469.867188 1074.527344 469.707031 1073.917969 469.386719 C 1073.308594 469.066406 1072.8125 468.621094 1072.4375 468.050781 C 1072.074219 467.480469 1071.851562 466.824219 1071.785156 466.089844 C 1071.757812 465.902344 1071.742188 465.699219 1071.742188 465.476562 C 1071.742188 464.945312 1071.808594 464.40625 1071.9375 463.855469 L 1075.492188 450.097656 L 1070.945312 450.097656 C 1070.542969 450.097656 1070.320312 449.886719 1070.292969 449.460938 L 1070.292969 449.273438 L 1070.433594 448.875 C 1070.59375 448.40625 1070.894531 448.171875 1071.324219 448.171875 L 1075.949219 448.171875 L 1077.933594 440.46875 C 1078.078125 439.890625 1078.371094 439.460938 1078.816406 439.179688 C 1079.261719 438.894531 1079.707031 438.753906 1080.160156 438.753906 C 1080.625 438.753906 1081.011719 438.902344 1081.320312 439.199219 C 1081.53125 439.40625 1081.632812 439.6875 1081.632812 440.046875 C 1081.632812 440.21875 1081.617188 440.390625 1081.589844 440.5625 L 1079.628906 448.171875 L 1084.078125 448.171875 C 1084.496094 448.171875 1084.703125 448.382812 1084.703125 448.804688 L 1084.703125 448.96875 Z M 1084.609375 449.390625 "/>
<path style="fill:none;stroke-width:0.268;stroke-linecap:round;stroke-linejoin:round;stroke:rgb(0%,0%,0%);stroke-opacity:1;stroke-miterlimit:10;" d="M 18.440857 7.843429 L 23.13127 7.843429 " transform="matrix(7.181369,0.000000714752,-0.00000519082,-7.178058,981.924906,481.24979)"/>
<path style=" stroke:none;fill-rule:evenodd;fill:rgb(0%,0%,0%);fill-opacity:1;" d="M 1183.691406 432.257812 C 1183.5 433.027344 1183.285156 433.847656 1183.039062 434.722656 C 1182.796875 435.601562 1182.472656 436.414062 1182.070312 437.164062 C 1181.667969 437.917969 1181.15625 438.566406 1180.546875 439.113281 C 1179.9375 439.664062 1179.167969 439.933594 1178.25 439.933594 C 1177.019531 439.933594 1176.042969 439.597656 1175.304688 438.914062 C 1174.574219 438.234375 1174.148438 437.542969 1174.035156 436.835938 C 1173.488281 437.464844 1172.667969 438.136719 1171.578125 438.855469 C 1170.492188 439.574219 1169.34375 439.933594 1168.128906 439.933594 C 1166.859375 439.933594 1165.789062 439.617188 1164.925781 438.972656 C 1164.058594 438.332031 1163.390625 437.523438 1162.902344 436.554688 C 1162.328125 435.398438 1162.019531 434.152344 1161.984375 432.820312 L 1161.984375 432.46875 C 1161.984375 431.230469 1162.15625 429.996094 1162.492188 428.757812 C 1162.882812 427.398438 1163.417969 426.050781 1164.117188 424.71875 C 1164.8125 423.390625 1165.730469 422.152344 1166.875 421.007812 C 1167.808594 420.070312 1168.878906 419.28125 1170.082031 418.636719 C 1171.285156 417.996094 1172.503906 417.675781 1173.746094 417.671875 C 1174.824219 417.675781 1175.707031 417.960938 1176.382812 418.53125 C 1177.0625 419.105469 1177.488281 419.578125 1177.667969 419.953125 L 1177.566406 420.351562 C 1177.683594 419.773438 1177.953125 419.335938 1178.378906 419.035156 C 1178.808594 418.742188 1179.238281 418.589844 1179.679688 418.589844 C 1180.171875 418.589844 1180.597656 418.738281 1180.933594 419.035156 C 1181.144531 419.273438 1181.257812 419.585938 1181.273438 419.976562 C 1181.273438 420.117188 1181.257812 420.273438 1181.222656 420.445312 L 1177.738281 434.015625 C 1177.574219 434.660156 1177.464844 435.261719 1177.402344 435.824219 C 1177.367188 436.109375 1177.351562 436.367188 1177.351562 436.601562 C 1177.351562 436.804688 1177.367188 437.023438 1177.402344 437.257812 C 1177.453125 437.636719 1177.558594 437.917969 1177.738281 438.105469 C 1177.917969 438.292969 1178.164062 438.386719 1178.484375 438.386719 C 1178.832031 438.386719 1179.148438 438.246094 1179.441406 437.964844 C 1179.742188 437.683594 1180.015625 437.265625 1180.265625 436.707031 C 1180.519531 436.152344 1180.753906 435.488281 1180.984375 434.710938 C 1181.207031 433.9375 1181.445312 433.097656 1181.683594 432.1875 C 1181.78125 431.78125 1182.054688 431.578125 1182.507812 431.574219 L 1183.0625 431.574219 C 1183.484375 431.578125 1183.691406 431.75 1183.691406 432.09375 Z M 1176.769531 423.613281 C 1176.707031 423.335938 1176.648438 423.039062 1176.605469 422.734375 C 1176.554688 422.429688 1176.484375 422.128906 1176.382812 421.828125 C 1176.125 421.097656 1175.757812 420.480469 1175.285156 419.988281 C 1174.808594 419.496094 1174.207031 419.25 1173.480469 419.246094 C 1172.804688 419.25 1172.128906 419.492188 1171.46875 419.976562 C 1170.808594 420.460938 1170.207031 421.085938 1169.660156 421.855469 C 1168.882812 422.933594 1168.304688 424.058594 1167.914062 425.226562 C 1167.527344 426.390625 1167.175781 427.609375 1166.851562 428.875 C 1166.527344 430.128906 1166.261719 431.34375 1166.046875 432.515625 C 1165.925781 433.109375 1165.859375 433.675781 1165.859375 434.207031 C 1165.859375 434.769531 1165.925781 435.316406 1166.046875 435.847656 C 1166.199219 436.585938 1166.457031 437.195312 1166.839844 437.671875 C 1167.21875 438.148438 1167.742188 438.386719 1168.425781 438.386719 C 1169.164062 438.386719 1169.910156 438.128906 1170.660156 437.613281 C 1171.414062 437.09375 1172.109375 436.460938 1172.753906 435.707031 C 1173.015625 435.398438 1173.257812 435.097656 1173.496094 434.804688 C 1173.726562 434.515625 1173.933594 434.207031 1174.105469 433.875 Z M 1176.769531 423.613281 "/>
<path style=" stroke:none;fill-rule:evenodd;fill:rgb(0%,0%,0%);fill-opacity:1;" d="M 1202.78125 420.074219 L 1190.429688 420.074219 L 1190.429688 419.351562 C 1190.429688 419.300781 1190.457031 419.21875 1190.523438 419.113281 L 1195.484375 414.300781 C 1196.074219 413.722656 1196.664062 413.132812 1197.265625 412.527344 C 1197.867188 411.921875 1198.40625 411.304688 1198.882812 410.671875 C 1199.355469 410.039062 1199.734375 409.390625 1200.023438 408.722656 C 1200.304688 408.046875 1200.445312 407.34375 1200.445312 406.605469 C 1200.445312 405.988281 1200.351562 405.40625 1200.175781 404.867188 C 1199.988281 404.328125 1199.730469 403.855469 1199.382812 403.445312 C 1199.039062 403.039062 1198.609375 402.707031 1198.089844 402.457031 C 1197.574219 402.210938 1196.976562 402.082031 1196.304688 402.082031 C 1195.289062 402.082031 1194.398438 402.355469 1193.625 402.894531 C 1192.847656 403.433594 1192.339844 404.027344 1192.082031 404.675781 C 1192.03125 404.695312 1192.117188 404.703125 1192.324219 404.703125 L 1192.582031 404.703125 C 1192.882812 404.761719 1193.152344 404.859375 1193.375 404.984375 C 1193.597656 405.113281 1193.78125 405.285156 1193.933594 405.507812 C 1194.085938 405.738281 1194.164062 406.003906 1194.164062 406.316406 C 1194.164062 406.84375 1193.96875 407.25 1193.589844 407.53125 C 1193.199219 407.8125 1192.769531 407.949219 1192.296875 407.949219 C 1191.84375 407.949219 1191.417969 407.8125 1191.023438 407.53125 C 1190.628906 407.25 1190.429688 406.84375 1190.429688 406.316406 C 1190.429688 405.585938 1190.59375 404.882812 1190.917969 404.230469 C 1191.238281 403.570312 1191.679688 403 1192.238281 402.519531 C 1192.792969 402.039062 1193.453125 401.652344 1194.207031 401.371094 C 1194.96875 401.09375 1195.773438 400.957031 1196.617188 400.957031 C 1197.675781 400.957031 1198.636719 401.09375 1199.511719 401.363281 C 1200.390625 401.644531 1201.128906 402.039062 1201.746094 402.558594 C 1202.363281 403.074219 1202.851562 403.675781 1203.195312 404.351562 C 1203.550781 405.03125 1203.722656 405.785156 1203.722656 406.605469 C 1203.722656 407.515625 1203.492188 408.355469 1203.023438 409.125 C 1202.558594 409.894531 1201.984375 410.597656 1201.292969 411.238281 C 1200.605469 411.878906 1199.871094 412.480469 1199.105469 413.046875 C 1198.328125 413.609375 1197.625 414.160156 1197 414.695312 L 1193.507812 417.628906 L 1198.078125 417.628906 C 1198.714844 417.628906 1199.3125 417.625 1199.859375 417.617188 C 1200.410156 417.605469 1200.878906 417.589844 1201.265625 417.5625 C 1201.644531 417.535156 1201.847656 417.519531 1201.855469 417.507812 C 1201.933594 417.449219 1202.011719 417.328125 1202.085938 417.140625 C 1202.15625 416.957031 1202.21875 416.742188 1202.277344 416.492188 C 1202.34375 416.242188 1202.398438 415.988281 1202.464844 415.726562 C 1202.523438 415.46875 1202.578125 415.1875 1202.628906 414.878906 L 1203.75 414.878906 Z M 1202.78125 420.074219 "/>
<path style=" stroke:none;fill-rule:evenodd;fill:rgb(0%,0%,0%);fill-opacity:1;" d="M 1248.496094 438.480469 C 1248.546875 438.589844 1248.570312 438.691406 1248.570312 438.785156 C 1248.570312 438.910156 1248.535156 439.003906 1248.46875 439.066406 C 1248.375 439.253906 1248.1875 439.347656 1247.914062 439.347656 L 1212.109375 439.347656 C 1211.851562 439.347656 1211.664062 439.253906 1211.550781 439.066406 C 1211.484375 439.003906 1211.457031 438.910156 1211.457031 438.785156 C 1211.457031 438.691406 1211.476562 438.589844 1211.527344 438.480469 L 1228.683594 405.0625 C 1228.890625 404.609375 1229.265625 404.394531 1229.796875 404.410156 L 1230.226562 404.410156 C 1230.730469 404.410156 1231.105469 404.617188 1231.339844 405.039062 Z M 1228.5625 409.664062 L 1215.296875 435.472656 L 1241.789062 435.472656 Z M 1228.5625 409.664062 "/>
<path style=" stroke:none;fill-rule:evenodd;fill:rgb(0%,0%,0%);fill-opacity:1;" d="M 1275.226562 432.328125 C 1275.054688 433.050781 1274.839844 433.847656 1274.601562 434.722656 C 1274.355469 435.601562 1274.035156 436.414062 1273.632812 437.164062 C 1273.230469 437.917969 1272.71875 438.566406 1272.109375 439.113281 C 1271.492188 439.664062 1270.722656 439.933594 1269.804688 439.933594 C 1268.675781 439.933594 1267.765625 439.648438 1267.074219 439.066406 C 1266.378906 438.488281 1265.957031 437.894531 1265.789062 437.28125 C 1265.246094 437.957031 1264.511719 438.566406 1263.59375 439.113281 C 1262.671875 439.664062 1261.601562 439.933594 1260.398438 439.933594 C 1259.296875 439.933594 1258.320312 439.734375 1257.460938 439.324219 C 1256.589844 438.917969 1255.910156 438.292969 1255.414062 437.445312 C 1254.925781 436.539062 1254.695312 435.539062 1254.710938 434.441406 L 1254.710938 434.253906 C 1254.746094 433.109375 1254.890625 431.976562 1255.148438 430.847656 C 1255.40625 429.769531 1255.777344 428.582031 1256.273438 427.28125 C 1256.761719 425.980469 1257.238281 424.71875 1257.683594 423.496094 C 1258.171875 422.199219 1258.414062 421.132812 1258.414062 420.304688 C 1258.414062 419.601562 1258.113281 419.25 1257.515625 419.246094 C 1256.972656 419.25 1256.476562 419.40625 1256.03125 419.71875 C 1255.585938 420.03125 1255.183594 420.464844 1254.816406 421.023438 C 1254.457031 421.578125 1254.128906 422.234375 1253.839844 422.992188 C 1253.546875 423.753906 1253.308594 424.5625 1253.113281 425.421875 C 1252.933594 425.847656 1252.640625 426.066406 1252.21875 426.082031 L 1251.664062 426.082031 C 1251.277344 426.082031 1251.082031 425.886719 1251.082031 425.492188 L 1251.082031 425.328125 C 1251.304688 424.46875 1251.605469 423.589844 1251.980469 422.6875 C 1252.347656 421.789062 1252.8125 420.972656 1253.378906 420.234375 C 1253.941406 419.5 1254.585938 418.890625 1255.3125 418.402344 C 1256.039062 417.917969 1256.871094 417.675781 1257.804688 417.671875 C 1258.617188 417.675781 1259.304688 417.847656 1259.878906 418.191406 C 1260.445312 418.535156 1260.886719 418.996094 1261.179688 419.566406 C 1261.480469 420.136719 1261.644531 420.78125 1261.675781 421.5 L 1261.675781 421.664062 C 1261.675781 422.339844 1261.539062 423.035156 1261.265625 423.753906 C 1260.800781 424.976562 1260.339844 426.226562 1259.878906 427.503906 C 1259.421875 428.78125 1259.0625 429.925781 1258.800781 430.941406 C 1258.542969 431.960938 1258.363281 432.96875 1258.265625 433.972656 C 1258.199219 434.238281 1258.164062 434.527344 1258.140625 434.839844 C 1258.140625 435.453125 1258.25 436.054688 1258.457031 436.648438 C 1258.609375 437.183594 1258.875 437.605469 1259.261719 437.917969 C 1259.648438 438.230469 1260.109375 438.386719 1260.640625 438.386719 C 1261.703125 438.386719 1262.628906 438.066406 1263.421875 437.425781 C 1264.210938 436.78125 1264.90625 435.929688 1265.503906 434.863281 C 1265.53125 434.738281 1265.558594 434.59375 1265.574219 434.429688 C 1265.589844 434.265625 1265.609375 434.097656 1265.644531 433.921875 L 1269.273438 419.925781 C 1269.421875 419.351562 1269.710938 418.925781 1270.15625 418.648438 C 1270.601562 418.375 1271.046875 418.238281 1271.5 418.238281 C 1271.964844 418.238281 1272.355469 418.378906 1272.664062 418.660156 C 1272.871094 418.867188 1272.980469 419.136719 1272.980469 419.480469 C 1272.980469 419.65625 1272.964844 419.835938 1272.929688 420.023438 L 1269.300781 434.015625 C 1269.042969 434.988281 1268.914062 435.851562 1268.914062 436.601562 C 1268.914062 436.804688 1268.929688 437.023438 1268.957031 437.257812 C 1269.042969 438.011719 1269.421875 438.386719 1270.097656 438.386719 C 1270.773438 438.386719 1271.363281 437.808594 1271.851562 436.648438 C 1272.347656 435.492188 1272.828125 434.003906 1273.292969 432.1875 C 1273.386719 431.78125 1273.660156 431.578125 1274.113281 431.574219 L 1274.671875 431.574219 C 1274.847656 431.578125 1275.023438 431.632812 1275.203125 431.738281 C 1275.269531 431.882812 1275.296875 432 1275.296875 432.09375 C 1275.296875 432.15625 1275.277344 432.234375 1275.226562 432.328125 Z M 1275.226562 432.328125 "/>
<path style="fill:none;stroke-width:0.268;stroke-linecap:round;stroke-linejoin:round;stroke:rgb(0%,0%,0%);stroke-opacity:1;stroke-miterlimit:10;" d="M 43.0401 8.547073 L 47.72997 8.547073 " transform="matrix(7.181369,0.000000714752,-0.00000519082,-7.178058,981.924906,481.24979)"/>
<path style="fill:none;stroke-width:0.268;stroke-linecap:round;stroke-linejoin:round;stroke:rgb(0%,0%,0%);stroke-opacity:1;stroke-miterlimit:10;" d="M 43.040099 7.139789 L 47.729969 7.13979 " transform="matrix(7.181369,0.000000714752,-0.00000519082,-7.178058,981.924906,481.24979)"/>
<path style=" stroke:none;fill-rule:evenodd;fill:rgb(0%,0%,0%);fill-opacity:1;" d="M 1360.757812 423.183594 C 1360.757812 425.394531 1360.605469 427.59375 1360.296875 429.777344 C 1359.988281 431.964844 1359.226562 434.015625 1358.007812 435.933594 C 1357.136719 437.332031 1355.972656 438.40625 1354.523438 439.15625 C 1353.074219 439.90625 1351.484375 440.285156 1349.785156 440.285156 C 1348.140625 440.285156 1346.585938 439.90625 1345.121094 439.15625 C 1343.65625 438.40625 1342.496094 437.332031 1341.625 435.933594 C 1340.40625 434.015625 1339.644531 431.964844 1339.335938 429.777344 C 1339.03125 427.59375 1338.875 425.394531 1338.875 423.183594 C 1338.875 420.945312 1339.03125 418.710938 1339.335938 416.476562 C 1339.644531 414.246094 1340.40625 412.15625 1341.625 410.203125 C 1342.496094 408.792969 1343.65625 407.695312 1345.109375 406.914062 C 1346.566406 406.132812 1348.125 405.742188 1349.785156 405.738281 C 1351.472656 405.742188 1353.050781 406.132812 1354.507812 406.914062 C 1355.972656 407.695312 1357.136719 408.792969 1358.007812 410.203125 C 1359.226562 412.15625 1359.988281 414.246094 1360.296875 416.476562 C 1360.605469 418.710938 1360.757812 420.945312 1360.757812 423.183594 Z M 1356.058594 422.378906 C 1356.058594 421.414062 1356.050781 420.394531 1356.039062 419.320312 C 1356.023438 418.246094 1355.988281 417.195312 1355.921875 416.167969 C 1355.859375 415.140625 1355.742188 414.167969 1355.578125 413.253906 C 1355.414062 412.34375 1355.210938 411.5625 1354.976562 410.917969 C 1354.5 409.878906 1353.804688 409.023438 1352.886719 408.355469 C 1351.972656 407.6875 1350.933594 407.351562 1349.785156 407.351562 C 1348.65625 407.351562 1347.644531 407.6875 1346.730469 408.363281 C 1345.828125 409.039062 1345.136719 409.890625 1344.65625 410.917969 C 1344.425781 411.5625 1344.21875 412.34375 1344.050781 413.253906 C 1343.886719 414.167969 1343.773438 415.140625 1343.707031 416.167969 C 1343.652344 417.195312 1343.605469 418.246094 1343.59375 419.320312 C 1343.578125 420.394531 1343.570312 421.414062 1343.570312 422.378906 C 1343.570312 423.453125 1343.578125 424.585938 1343.59375 425.773438 C 1343.605469 426.964844 1343.652344 428.113281 1343.707031 429.226562 C 1343.773438 430.339844 1343.886719 431.394531 1344.050781 432.390625 C 1344.21875 433.390625 1344.425781 434.226562 1344.65625 434.898438 C 1345.101562 436.019531 1345.785156 436.941406 1346.710938 437.660156 C 1347.636719 438.382812 1348.65625 438.742188 1349.785156 438.742188 C 1350.945312 438.742188 1351.996094 438.382812 1352.921875 437.660156 C 1353.847656 436.941406 1354.53125 436.019531 1354.976562 434.898438 C 1355.210938 434.226562 1355.414062 433.390625 1355.578125 432.390625 C 1355.742188 431.394531 1355.859375 430.339844 1355.921875 429.226562 C 1355.988281 428.113281 1356.023438 426.964844 1356.039062 425.773438 C 1356.050781 424.585938 1356.058594 423.453125 1356.058594 422.378906 Z M 1356.058594 422.378906 "/>
</g>
</svg>
