<?xml version="1.0" encoding="UTF-8"?>
<svg xmlns="http://www.w3.org/2000/svg" xmlns:xlink="http://www.w3.org/1999/xlink" width="870pt" height="772.02pt" viewBox="0 0 870 772.02" version="1.2">
<defs>
<clipPath id="clip1">
  <path d="M 531.847656 202 L 576 202 L 576 234 L 531.847656 234 Z M 531.847656 202 "/>
</clipPath>
<clipPath id="clip2">
  <path d="M 282.21875 345 L 313 345 L 313 379 L 282.21875 379 Z M 282.21875 345 "/>
</clipPath>
<clipPath id="clip3">
  <path d="M 440.796875 419 L 485 419 L 485 451 L 440.796875 451 Z M 440.796875 419 "/>
</clipPath>
<clipPath id="clip4">
  <path d="M 793.777344 284 L 838 284 L 838 316 L 793.777344 316 Z M 793.777344 284 "/>
</clipPath>
</defs>
<g id="surface1">
<path style=" stroke:none;fill-rule:nonzero;fill:rgb(0%,0%,0%);fill-opacity:1;" d="M 499.289062 239.1875 L 503.941406 240.308594 L 503.660156 241.472656 L 499.007812 240.351562 C 498.683594 240.273438 498.488281 239.953125 498.566406 239.628906 C 498.644531 239.308594 498.96875 239.113281 499.289062 239.1875 Z M 506.269531 240.871094 L 510.921875 241.996094 L 510.644531 243.15625 L 505.988281 242.035156 Z M 513.253906 242.558594 L 517.90625 243.679688 L 517.625 244.84375 L 512.96875 243.71875 Z M 520.234375 244.238281 L 524.886719 245.363281 L 524.605469 246.527344 L 519.953125 245.402344 Z M 527.214844 245.921875 L 531.867188 247.046875 L 531.589844 248.207031 L 526.933594 247.085938 Z M 534.195312 247.609375 L 538.851562 248.730469 L 538.570312 249.894531 L 533.914062 248.769531 Z M 541.179688 249.292969 L 545.832031 250.414062 L 545.550781 251.578125 L 540.894531 250.457031 Z M 548.160156 250.976562 L 552.8125 252.097656 L 552.535156 253.261719 L 547.878906 252.140625 Z M 555.140625 252.660156 L 559.792969 253.785156 L 559.515625 254.945312 L 554.859375 253.820312 Z M 562.121094 254.34375 L 566.777344 255.464844 L 566.496094 256.628906 L 561.839844 255.507812 Z M 569.105469 256.027344 L 573.757812 257.148438 L 573.480469 258.3125 L 568.824219 257.191406 Z M 576.085938 257.710938 L 580.738281 258.835938 L 580.460938 259.996094 L 575.804688 258.875 Z M 583.066406 259.398438 L 587.722656 260.519531 L 587.441406 261.683594 L 582.785156 260.558594 Z M 590.050781 261.078125 L 594.703125 262.203125 L 594.421875 263.367188 L 589.769531 262.246094 Z M 597.03125 262.761719 L 601.683594 263.886719 L 601.40625 265.050781 L 596.75 263.925781 Z M 604.011719 264.449219 L 608.667969 265.570312 L 608.386719 266.734375 L 603.730469 265.609375 Z M 610.992188 266.132812 L 615.648438 267.253906 L 615.367188 268.417969 L 610.714844 267.296875 Z M 617.976562 267.816406 L 622.628906 268.9375 L 622.351562 270.101562 L 617.695312 268.980469 Z M 624.957031 269.5 L 629.613281 270.625 L 629.332031 271.785156 L 624.675781 270.664062 Z M 631.9375 271.183594 L 636.59375 272.304688 L 636.3125 273.472656 L 631.660156 272.347656 Z M 638.921875 272.867188 L 643.574219 273.988281 L 643.292969 275.152344 L 638.640625 274.03125 Z M 645.902344 274.550781 L 650.558594 275.675781 L 650.277344 276.835938 L 645.621094 275.714844 Z M 652.882812 276.238281 L 657.539062 277.359375 L 657.257812 278.523438 L 652.605469 277.398438 Z M 659.863281 277.917969 L 664.519531 279.042969 L 664.238281 280.207031 L 659.585938 279.082031 Z M 666.847656 279.601562 L 671.503906 280.726562 L 671.222656 281.886719 L 666.566406 280.765625 Z M 673.828125 281.289062 L 678.484375 282.410156 L 678.203125 283.574219 L 673.550781 282.449219 Z M 680.808594 282.972656 L 685.464844 284.09375 L 685.183594 285.257812 L 680.53125 284.136719 Z M 687.789062 284.65625 L 692.449219 285.777344 L 692.164062 286.941406 L 687.511719 285.820312 Z M 694.773438 286.339844 L 699.429688 287.464844 L 699.148438 288.625 L 694.492188 287.503906 Z M 701.753906 288.023438 L 706.410156 289.144531 L 706.128906 290.3125 L 701.476562 289.1875 Z M 708.734375 289.707031 L 713.390625 290.828125 L 713.109375 291.992188 L 708.457031 290.871094 Z M 715.71875 291.390625 L 720.375 292.515625 L 720.09375 293.675781 L 715.4375 292.554688 Z M 722.699219 293.078125 L 727.355469 294.199219 L 727.074219 295.363281 L 722.421875 294.238281 Z M 729.679688 294.757812 L 734.335938 295.882812 L 734.054688 297.046875 L 729.402344 295.925781 Z M 736.664062 296.441406 L 741.320312 297.566406 L 741.035156 298.730469 L 736.382812 297.605469 Z M 743.644531 298.128906 L 748.300781 299.25 L 748.019531 300.414062 L 743.363281 299.289062 Z M 750.625 299.8125 L 755.28125 300.933594 L 755 302.097656 L 750.347656 300.976562 Z M 750.625 299.8125 "/>
<path style=" stroke:none;fill-rule:nonzero;fill:rgb(0%,0%,0%);fill-opacity:1;" d="M 458.933594 363.210938 L 463.621094 362.234375 L 463.863281 363.40625 L 459.179688 364.382812 C 458.851562 364.449219 458.539062 364.242188 458.46875 363.917969 C 458.402344 363.597656 458.609375 363.28125 458.933594 363.210938 Z M 465.964844 361.746094 L 470.652344 360.765625 L 470.894531 361.9375 L 466.207031 362.917969 Z M 472.996094 360.277344 L 477.679688 359.300781 L 477.925781 360.472656 L 473.238281 361.449219 Z M 480.023438 358.8125 L 484.710938 357.832031 L 484.957031 359.003906 L 480.269531 359.980469 Z M 487.054688 357.34375 L 491.742188 356.367188 L 491.988281 357.539062 L 487.300781 358.515625 Z M 494.085938 355.878906 L 498.773438 354.898438 L 499.019531 356.070312 L 494.332031 357.046875 Z M 501.113281 354.410156 L 505.800781 353.433594 L 506.046875 354.601562 L 501.363281 355.582031 Z M 508.144531 352.945312 L 512.832031 351.964844 L 513.078125 353.136719 L 508.390625 354.113281 Z M 515.175781 351.476562 L 519.863281 350.5 L 520.109375 351.667969 L 515.421875 352.648438 Z M 522.207031 350.007812 L 526.894531 349.03125 L 527.136719 350.203125 L 522.453125 351.179688 Z M 529.238281 348.542969 L 533.925781 347.5625 L 534.167969 348.734375 L 529.480469 349.714844 Z M 536.269531 347.074219 L 540.957031 346.097656 L 541.199219 347.269531 L 536.511719 348.246094 Z M 543.296875 345.609375 L 547.984375 344.628906 L 548.230469 345.800781 L 543.542969 346.777344 Z M 550.328125 344.140625 L 555.015625 343.164062 L 555.261719 344.335938 L 550.574219 345.3125 Z M 557.359375 342.675781 L 562.046875 341.695312 L 562.292969 342.867188 L 557.605469 343.84375 Z M 564.390625 341.207031 L 569.078125 340.230469 L 569.324219 341.398438 L 564.636719 342.378906 Z M 571.421875 339.742188 L 576.109375 338.761719 L 576.351562 339.933594 L 571.664062 340.910156 Z M 578.453125 338.273438 L 583.140625 337.296875 L 583.382812 338.464844 L 578.695312 339.445312 Z M 585.484375 336.804688 L 590.167969 335.828125 L 590.414062 337 L 585.726562 337.976562 Z M 592.511719 335.339844 L 597.199219 334.359375 L 597.441406 335.53125 L 592.753906 336.511719 Z M 599.542969 333.871094 L 604.230469 332.894531 L 604.472656 334.066406 L 599.785156 335.042969 Z M 606.574219 332.40625 L 611.257812 331.425781 L 611.503906 332.597656 L 606.816406 333.574219 Z M 613.601562 330.9375 L 618.289062 329.960938 L 618.535156 331.132812 L 613.847656 332.109375 Z M 620.632812 329.472656 L 625.320312 328.492188 L 625.566406 329.664062 L 620.878906 330.640625 Z M 627.664062 328.003906 L 632.351562 327.027344 L 632.597656 328.195312 L 627.910156 329.175781 Z M 634.695312 326.539062 L 639.382812 325.558594 L 639.625 326.730469 L 634.941406 327.707031 Z M 641.726562 325.070312 L 646.414062 324.09375 L 646.65625 325.261719 L 641.96875 326.242188 Z M 648.757812 323.601562 L 653.445312 322.625 L 653.6875 323.796875 L 649 324.773438 Z M 655.785156 322.136719 L 660.472656 321.15625 L 660.71875 322.328125 L 656.03125 323.308594 Z M 662.816406 320.667969 L 667.503906 319.691406 L 667.75 320.863281 L 663.0625 321.839844 Z M 669.847656 319.203125 L 674.535156 318.222656 L 674.78125 319.394531 L 670.09375 320.371094 Z M 676.878906 317.734375 L 681.5625 316.757812 L 681.8125 317.929688 L 677.125 318.90625 Z M 683.90625 316.269531 L 688.59375 315.289062 L 688.839844 316.460938 L 684.152344 317.4375 Z M 690.9375 314.800781 L 695.625 313.824219 L 695.871094 314.992188 L 691.183594 315.972656 Z M 697.96875 313.335938 L 702.65625 312.355469 L 702.902344 313.527344 L 698.214844 314.503906 Z M 705 311.867188 L 709.6875 310.890625 L 709.929688 312.058594 L 705.242188 313.039062 Z M 712.03125 310.398438 L 716.71875 309.421875 L 716.960938 310.59375 L 712.273438 311.570312 Z M 719.0625 308.933594 L 723.746094 307.953125 L 723.992188 309.125 L 719.304688 310.105469 Z M 726.089844 307.464844 L 730.777344 306.488281 L 731.023438 307.660156 L 726.335938 308.636719 Z M 733.121094 306 L 737.808594 305.019531 L 738.054688 306.191406 L 733.367188 307.167969 Z M 740.152344 304.53125 L 744.839844 303.554688 L 745.085938 304.726562 L 740.398438 305.703125 Z M 747.183594 303.066406 L 751.871094 302.085938 L 752.113281 303.257812 L 747.429688 304.234375 Z M 754.214844 301.597656 L 756.132812 301.199219 C 756.457031 301.128906 756.773438 301.339844 756.839844 301.660156 C 756.910156 301.984375 756.699219 302.304688 756.378906 302.371094 L 754.457031 302.769531 Z M 754.214844 301.597656 "/>
<path style=" stroke:none;fill-rule:nonzero;fill:rgb(0%,0%,0%);fill-opacity:1;" d="M 458.488281 363.613281 L 459.957031 359.058594 L 461.097656 359.429688 L 459.625 363.980469 C 459.523438 364.296875 459.1875 364.46875 458.871094 364.367188 C 458.554688 364.265625 458.382812 363.929688 458.488281 363.613281 Z M 460.695312 356.78125 L 462.167969 352.230469 L 463.304688 352.597656 L 461.832031 357.152344 Z M 462.902344 349.953125 L 464.375 345.398438 L 465.511719 345.765625 L 464.039062 350.320312 Z M 465.109375 343.121094 L 466.582031 338.570312 L 467.71875 338.9375 L 466.25 343.492188 Z M 467.320312 336.289062 L 468.789062 331.738281 L 469.929688 332.105469 L 468.457031 336.660156 Z M 469.527344 329.460938 L 470.996094 324.90625 L 472.136719 325.273438 L 470.664062 329.828125 Z M 471.734375 322.632812 L 473.207031 318.078125 L 474.34375 318.445312 L 472.871094 323 Z M 473.941406 315.800781 L 475.414062 311.246094 L 476.550781 311.613281 L 475.078125 316.167969 Z M 476.148438 308.96875 L 477.621094 304.414062 L 478.761719 304.785156 L 477.289062 309.335938 Z M 478.355469 302.140625 L 479.828125 297.585938 L 480.96875 297.953125 L 479.496094 302.507812 Z M 480.566406 295.308594 L 482.035156 290.753906 L 483.175781 291.125 L 481.703125 295.675781 Z M 482.773438 288.476562 L 484.246094 283.925781 L 485.382812 284.292969 L 483.914062 288.847656 Z M 484.980469 281.648438 L 486.453125 277.09375 L 487.59375 277.460938 L 486.121094 282.015625 Z M 487.1875 274.816406 L 488.660156 270.265625 L 489.800781 270.628906 L 488.328125 275.1875 Z M 489.398438 267.988281 L 490.867188 263.433594 L 492.007812 263.800781 L 490.535156 268.355469 Z M 491.605469 261.15625 L 493.078125 256.601562 L 494.21875 256.972656 L 492.746094 261.523438 Z M 493.8125 254.328125 L 495.285156 249.773438 L 496.425781 250.140625 L 494.953125 254.691406 Z M 496.019531 247.496094 L 497.492188 242.941406 L 498.632812 243.3125 L 497.160156 247.863281 Z M 498.230469 240.664062 L 498.578125 239.585938 C 498.679688 239.273438 499.019531 239.101562 499.332031 239.199219 C 499.648438 239.304688 499.820312 239.640625 499.714844 239.953125 L 499.371094 241.03125 Z M 498.230469 240.664062 "/>
<path style=" stroke:none;fill-rule:nonzero;fill:rgb(0%,0%,0%);fill-opacity:1;" d="M 334.980469 389.5 L 334.980469 52.21875 L 336.777344 52.21875 L 336.777344 389.5 C 336.777344 389.996094 336.375 390.398438 335.878906 390.398438 C 335.382812 390.398438 334.980469 389.996094 334.980469 389.5 Z M 335.878906 27.121094 L 328.699219 52.242188 L 343.0625 52.242188 Z M 335.878906 27.121094 "/>
<path style=" stroke:none;fill-rule:nonzero;fill:rgb(0%,0%,0%);fill-opacity:1;" d="M 336.484375 390.160156 L 82.078125 623.464844 L 80.867188 622.144531 L 335.269531 388.839844 C 335.636719 388.503906 336.207031 388.527344 336.539062 388.890625 C 336.875 389.257812 336.851562 389.824219 336.484375 390.160156 Z M 62.972656 639.773438 L 86.347656 628.078125 L 82.097656 623.449219 L 80.886719 622.128906 L 76.636719 617.5 Z M 62.972656 639.773438 "/>
<path style=" stroke:none;fill-rule:nonzero;fill:rgb(0%,0%,0%);fill-opacity:1;" d="M 335.878906 388.601562 L 778.113281 388.601562 L 778.113281 390.398438 L 335.878906 390.398438 C 335.382812 390.398438 334.980469 389.996094 334.980469 389.5 C 334.980469 389.003906 335.382812 388.601562 335.878906 388.601562 Z M 803.226562 389.5 L 778.089844 382.320312 L 778.089844 396.675781 Z M 803.226562 389.5 "/>
<path style="fill:none;stroke-width:10;stroke-linecap:round;stroke-linejoin:round;stroke:rgb(0%,0%,0%);stroke-opacity:1;stroke-miterlimit:10;" d="M 2310.734897 1609.538517 C 2310.734897 1098.640405 1903.290682 684.472378 1400.687497 684.472378 C 898.084311 684.472378 490.640096 1098.640405 490.640096 1609.538517 C 490.640096 2120.43663 898.084311 2534.604657 1400.687497 2534.604657 C 1903.290682 2534.604657 2310.734897 2120.43663 2310.734897 1609.538517 Z M 2310.734897 1609.538517 " transform="matrix(0.239402,0,0,-0.239269,0.551488,774.613008)"/>
<path style="fill:none;stroke-width:5;stroke-linecap:round;stroke-linejoin:round;stroke:rgb(0%,0%,0%);stroke-opacity:1;stroke-miterlimit:10;" d="M 2310.734897 1609.538517 C 2310.734897 1386.577709 1903.290682 1205.802647 1400.687497 1205.802647 C 898.084311 1205.802647 490.640096 1386.577709 490.640096 1609.538517 " transform="matrix(0.239402,0,0,-0.239269,0.551488,774.613008)"/>
<path style=" stroke:none;fill-rule:nonzero;fill:rgb(0%,0%,0%);fill-opacity:1;" d="M 117.414062 389.492188 L 117.433594 388.242188 L 117.484375 387.082031 L 118.675781 387.136719 L 118.628906 388.261719 L 118.609375 389.507812 C 118.605469 389.839844 118.335938 390.101562 118.003906 390.097656 C 117.675781 390.09375 117.410156 389.824219 117.414062 389.492188 Z M 117.679688 384.664062 L 117.699219 384.46875 L 117.859375 383.222656 L 118.011719 382.261719 L 119.195312 382.449219 L 119.046875 383.371094 L 118.894531 384.589844 L 118.871094 384.785156 Z M 118.46875 379.882812 L 118.550781 379.5 L 118.851562 378.265625 L 119.054688 377.527344 L 120.207031 377.839844 L 120.011719 378.550781 L 119.722656 379.746094 L 119.640625 380.128906 Z M 119.753906 375.207031 L 119.953125 374.601562 L 120.390625 373.390625 L 120.570312 372.925781 L 121.6875 373.355469 L 121.515625 373.792969 L 121.089844 374.976562 L 120.890625 375.582031 Z M 121.492188 370.683594 L 121.890625 369.789062 L 122.457031 368.597656 L 122.515625 368.488281 L 123.582031 369.027344 L 123.539062 369.113281 L 122.984375 370.273438 L 122.585938 371.171875 Z M 123.625 366.351562 L 123.6875 366.234375 L 124.351562 365.066406 L 124.828125 364.257812 L 125.859375 364.867188 L 125.390625 365.652344 L 124.742188 366.800781 L 124.679688 366.917969 Z M 126.117188 362.207031 L 126.527344 361.585938 L 127.3125 360.4375 L 127.476562 360.207031 L 128.449219 360.90625 L 128.300781 361.113281 L 127.527344 362.238281 L 127.117188 362.863281 Z M 128.898438 358.269531 L 128.980469 358.160156 L 129.859375 357.03125 L 130.394531 356.371094 L 131.324219 357.125 L 130.804688 357.765625 L 129.9375 358.875 L 129.855469 358.984375 Z M 131.945312 354.519531 L 132.675781 353.6875 L 133.542969 352.722656 L 134.433594 353.527344 L 133.574219 354.46875 L 132.847656 355.304688 Z M 135.203125 350.96875 L 135.75 350.402344 L 136.835938 349.320312 L 136.90625 349.253906 L 137.730469 350.125 L 137.679688 350.171875 L 136.609375 351.234375 L 136.0625 351.804688 Z M 138.644531 347.605469 L 139.085938 347.1875 L 140.429688 345.984375 L 141.226562 346.878906 L 139.910156 348.054688 L 139.46875 348.472656 Z M 142.25 344.40625 L 143.921875 342.996094 L 144.097656 342.859375 L 144.839844 343.792969 L 144.691406 343.910156 L 143.015625 345.320312 Z M 145.972656 341.371094 L 146.507812 340.945312 L 147.890625 339.910156 L 148.605469 340.867188 L 147.25 341.886719 L 146.714844 342.308594 Z M 149.828125 338.480469 L 151.78125 337.09375 L 152.472656 338.070312 L 150.523438 339.457031 Z M 153.773438 335.746094 L 154.886719 334.992188 L 155.785156 334.417969 L 156.429688 335.425781 L 155.554688 335.988281 L 154.441406 336.734375 Z M 157.800781 333.128906 L 157.886719 333.074219 L 159.855469 331.875 L 160.480469 332.902344 L 158.53125 334.082031 L 158.445312 334.136719 Z M 161.925781 330.648438 L 164 329.449219 L 164.597656 330.484375 L 162.523438 331.683594 Z M 166.101562 328.285156 L 167.472656 327.53125 L 168.21875 327.140625 L 168.773438 328.199219 L 168.054688 328.578125 L 166.679688 329.332031 Z M 170.335938 326.027344 L 170.863281 325.753906 L 172.484375 324.941406 L 173.019531 326.011719 L 171.417969 326.8125 L 170.894531 327.085938 Z M 174.636719 323.871094 L 176.800781 322.84375 L 177.3125 323.921875 L 175.152344 324.953125 Z M 178.980469 321.828125 L 181.160156 320.839844 L 181.65625 321.925781 L 179.476562 322.917969 Z M 183.363281 319.878906 L 185.328125 319.023438 L 185.570312 318.925781 L 186.027344 320.03125 L 185.804688 320.125 L 183.835938 320.972656 Z M 187.78125 318.011719 L 189.160156 317.441406 L 190.007812 317.109375 L 190.449219 318.222656 L 189.621094 318.546875 L 188.242188 319.117188 Z M 192.238281 316.230469 L 193.082031 315.902344 L 194.484375 315.375 L 194.90625 316.492188 L 193.523438 317.011719 L 192.675781 317.34375 Z M 196.726562 314.535156 L 197.085938 314.398438 L 198.988281 313.71875 L 199.390625 314.84375 L 197.507812 315.519531 L 197.144531 315.652344 Z M 201.25 312.910156 L 203.515625 312.140625 L 203.902344 313.277344 L 201.636719 314.046875 Z M 205.792969 311.375 L 208.074219 310.640625 L 208.4375 311.777344 L 206.160156 312.515625 Z M 210.359375 309.910156 L 212.648438 309.207031 L 213 310.351562 L 210.714844 311.054688 Z M 214.949219 308.519531 L 217.25 307.847656 L 217.582031 308.996094 L 215.285156 309.664062 Z M 219.558594 307.191406 L 221.867188 306.550781 L 222.183594 307.707031 L 219.878906 308.34375 Z M 224.1875 305.929688 L 226.5 305.324219 L 226.804688 306.480469 L 224.492188 307.089844 Z M 228.832031 304.734375 L 231.15625 304.160156 L 231.441406 305.320312 L 229.117188 305.898438 Z M 233.492188 303.601562 L 235.820312 303.054688 L 236.09375 304.222656 L 233.765625 304.765625 Z M 238.164062 302.53125 L 240.503906 302.015625 L 240.761719 303.183594 L 238.421875 303.699219 Z M 242.851562 301.519531 L 245.195312 301.03125 L 245.441406 302.203125 L 243.09375 302.691406 Z M 247.550781 300.566406 L 249.902344 300.109375 L 250.128906 301.285156 L 247.78125 301.738281 Z M 252.261719 299.667969 L 254.621094 299.238281 L 254.832031 300.417969 L 252.476562 300.84375 Z M 256.984375 298.828125 L 259.34375 298.429688 L 259.542969 299.609375 L 257.183594 300.003906 Z M 261.710938 298.039062 L 264.078125 297.671875 L 264.265625 298.851562 L 261.898438 299.222656 Z M 266.453125 297.304688 L 268.824219 296.964844 L 268.992188 298.148438 L 266.621094 298.488281 Z M 271.199219 296.625 L 273.574219 296.3125 L 273.726562 297.5 L 271.355469 297.8125 Z M 275.945312 295.996094 L 276.15625 295.972656 L 278.328125 295.710938 L 278.472656 296.898438 L 276.3125 297.15625 L 276.101562 297.183594 Z M 280.707031 295.425781 L 281.359375 295.347656 L 283.089844 295.160156 L 283.21875 296.351562 L 281.5 296.535156 L 280.847656 296.613281 Z M 285.472656 294.902344 L 286.613281 294.777344 L 287.859375 294.65625 L 287.976562 295.847656 L 286.742188 295.96875 L 285.601562 296.089844 Z M 290.246094 294.429688 L 291.914062 294.269531 L 292.632812 294.207031 L 292.738281 295.398438 L 292.027344 295.457031 L 290.359375 295.621094 Z M 295.019531 294.003906 L 297.261719 293.8125 L 297.414062 293.800781 L 297.5 294.996094 L 297.363281 295.003906 L 295.121094 295.195312 Z M 299.800781 293.625 L 302.1875 293.449219 L 302.273438 294.644531 L 299.886719 294.820312 Z M 304.582031 293.296875 L 306.972656 293.148438 L 307.046875 294.34375 L 304.65625 294.492188 Z M 309.371094 293.015625 L 311.757812 292.890625 L 311.820312 294.085938 L 309.429688 294.207031 Z M 314.160156 292.777344 L 316.550781 292.683594 L 316.597656 293.878906 L 314.207031 293.972656 Z M 318.945312 292.589844 L 319.09375 292.582031 L 321.34375 292.519531 L 321.375 293.714844 L 319.136719 293.78125 L 318.988281 293.785156 Z M 323.738281 292.453125 L 324.648438 292.429688 L 326.136719 292.402344 L 326.15625 293.597656 L 324.683594 293.621094 L 323.769531 293.648438 Z M 328.53125 292.363281 L 330.242188 292.335938 L 330.929688 292.328125 L 330.9375 293.527344 L 330.265625 293.527344 L 328.550781 293.558594 Z M 333.324219 292.316406 L 335.71875 292.300781 L 335.722656 293.496094 L 333.328125 293.511719 Z M 338.117188 292.3125 L 340.511719 292.328125 L 340.507812 293.523438 L 338.113281 293.507812 Z M 342.914062 292.355469 L 345.308594 292.398438 L 345.289062 293.59375 L 342.894531 293.550781 Z M 347.707031 292.445312 L 350.101562 292.511719 L 350.066406 293.707031 L 347.675781 293.640625 Z M 352.492188 292.578125 L 352.660156 292.582031 L 354.894531 292.671875 L 354.84375 293.867188 L 352.625 293.78125 L 352.460938 293.773438 Z M 357.285156 292.765625 L 358.175781 292.800781 L 359.683594 292.875 L 359.625 294.070312 L 358.128906 293.996094 L 357.238281 293.960938 Z M 362.074219 292.996094 L 363.65625 293.078125 L 364.472656 293.125 L 364.398438 294.324219 L 363.59375 294.273438 L 362.011719 294.191406 Z M 366.859375 293.273438 L 369.09375 293.417969 L 369.257812 293.425781 L 369.167969 294.621094 L 369.019531 294.609375 L 366.785156 294.472656 Z M 371.644531 293.601562 L 374.03125 293.777344 L 373.945312 294.972656 L 371.554688 294.796875 Z M 376.425781 293.976562 L 378.808594 294.179688 L 378.707031 295.371094 L 376.320312 295.167969 Z M 381.199219 294.398438 L 383.582031 294.628906 L 383.46875 295.820312 L 381.085938 295.589844 Z M 385.972656 294.867188 L 388.351562 295.125 L 388.222656 296.3125 L 385.84375 296.058594 Z M 390.738281 295.386719 L 393.117188 295.671875 L 392.972656 296.863281 L 390.597656 296.578125 Z M 395.492188 295.957031 L 395.59375 295.96875 L 397.871094 296.269531 L 397.71875 297.457031 L 395.449219 297.160156 L 395.347656 297.148438 Z M 400.246094 296.585938 L 400.742188 296.648438 L 402.625 296.917969 L 402.453125 298.105469 L 400.585938 297.835938 L 400.089844 297.769531 Z M 404.996094 297.261719 L 405.839844 297.382812 L 407.367188 297.621094 L 407.183594 298.800781 L 405.671875 298.566406 L 404.824219 298.445312 Z M 409.734375 297.992188 L 410.882812 298.171875 L 412.101562 298.375 L 411.902344 299.554688 L 410.699219 299.351562 L 409.546875 299.171875 Z M 414.464844 298.773438 L 415.863281 299.011719 L 416.828125 299.183594 L 416.617188 300.363281 L 415.664062 300.191406 L 414.265625 299.953125 Z M 419.183594 299.609375 L 420.789062 299.902344 L 421.546875 300.050781 L 421.320312 301.222656 L 420.574219 301.082031 L 418.972656 300.789062 Z M 423.894531 300.503906 L 425.652344 300.84375 L 426.253906 300.96875 L 426.007812 302.140625 L 425.425781 302.019531 L 423.667969 301.679688 Z M 428.597656 301.457031 L 430.457031 301.839844 L 430.949219 301.949219 L 430.691406 303.117188 L 430.210938 303.011719 L 428.351562 302.625 Z M 433.285156 302.464844 L 435.191406 302.882812 L 435.628906 302.984375 L 435.355469 304.148438 L 434.933594 304.050781 L 433.027344 303.628906 Z M 437.960938 303.53125 L 439.863281 303.976562 L 440.296875 304.082031 L 440.011719 305.246094 L 439.589844 305.140625 L 437.6875 304.695312 Z M 442.621094 304.660156 L 444.46875 305.117188 L 444.949219 305.242188 L 444.648438 306.402344 L 444.179688 306.28125 L 442.332031 305.820312 Z M 447.265625 305.851562 L 449 306.304688 L 449.589844 306.46875 L 449.269531 307.621094 L 448.699219 307.464844 L 446.960938 307.007812 Z M 451.894531 307.105469 L 453.464844 307.542969 L 454.207031 307.757812 L 453.871094 308.90625 L 453.144531 308.695312 L 451.574219 308.261719 Z M 456.503906 308.429688 L 457.855469 308.824219 L 458.808594 309.117188 L 458.457031 310.257812 L 457.523438 309.972656 L 456.167969 309.578125 Z M 461.097656 309.816406 L 462.171875 310.152344 L 463.386719 310.542969 L 463.019531 311.679688 L 461.824219 311.292969 L 460.746094 310.960938 Z M 465.664062 311.277344 L 466.414062 311.523438 L 467.941406 312.042969 L 467.558594 313.171875 L 466.046875 312.660156 L 465.296875 312.417969 Z M 470.210938 312.8125 L 470.578125 312.9375 L 472.476562 313.613281 L 472.074219 314.738281 L 470.195312 314.066406 L 469.824219 313.941406 Z M 474.738281 314.421875 L 476.980469 315.265625 L 476.558594 316.382812 L 474.320312 315.542969 Z M 479.226562 316.117188 L 481.457031 316.992188 L 481.015625 318.105469 L 478.789062 317.226562 Z M 483.683594 317.890625 L 485.894531 318.804688 L 485.4375 319.910156 L 483.226562 318.996094 Z M 488.105469 319.75 L 490.171875 320.644531 L 490.3125 320.707031 L 489.816406 321.796875 L 489.695312 321.742188 L 487.632812 320.847656 Z M 492.492188 321.699219 L 493.832031 322.308594 L 494.675781 322.707031 L 494.160156 323.785156 L 493.339844 323.398438 L 491.996094 322.785156 Z M 496.835938 323.738281 L 497.402344 324.007812 L 498.992188 324.800781 L 498.457031 325.871094 L 496.890625 325.089844 L 496.320312 324.816406 Z M 501.140625 325.882812 L 503.261719 326.992188 L 502.703125 328.054688 L 500.585938 326.941406 Z M 505.378906 328.132812 L 507.476562 329.289062 L 506.898438 330.335938 L 504.800781 329.183594 Z M 509.5625 330.492188 L 510.761719 331.183594 L 511.632812 331.714844 L 511.011719 332.734375 L 510.164062 332.222656 L 508.960938 331.523438 Z M 513.679688 332.957031 L 513.859375 333.066406 L 515.707031 334.25 L 515.0625 335.257812 L 513.238281 334.089844 L 513.054688 333.980469 Z M 517.722656 335.570312 L 519.710938 336.90625 L 519.039062 337.894531 L 517.054688 336.5625 Z M 521.671875 338.296875 L 522.550781 338.921875 L 523.617188 339.722656 L 522.898438 340.679688 L 521.855469 339.898438 L 520.980469 339.273438 Z M 525.539062 341.175781 L 527.414062 342.664062 L 526.671875 343.601562 L 524.792969 342.113281 Z M 529.269531 344.203125 L 530.296875 345.066406 L 531.09375 345.777344 L 530.296875 346.667969 L 529.523438 345.980469 L 528.5 345.117188 Z M 532.886719 347.390625 L 534.625 349.035156 L 533.796875 349.90625 L 532.0625 348.257812 Z M 536.339844 350.742188 L 537.054688 351.484375 L 537.992188 352.484375 L 537.121094 353.304688 L 536.195312 352.316406 L 535.476562 351.574219 Z M 539.605469 354.28125 L 540.042969 354.785156 L 540.984375 355.902344 L 541.167969 356.125 L 540.234375 356.878906 L 540.066406 356.667969 L 539.144531 355.570312 L 538.703125 355.070312 Z M 542.660156 358.007812 L 542.769531 358.152344 L 543.617188 359.285156 L 544.097656 359.953125 L 543.125 360.648438 L 542.660156 360.003906 L 541.824219 358.886719 L 541.714844 358.742188 Z M 545.46875 361.941406 L 545.980469 362.726562 L 546.707031 363.886719 L 546.765625 363.984375 L 545.738281 364.597656 L 545.691406 364.519531 L 544.980469 363.382812 L 544.46875 362.601562 Z M 547.976562 366.066406 L 548.0625 366.222656 L 548.695312 367.402344 L 549.101562 368.207031 L 548.035156 368.746094 L 547.640625 367.96875 L 547.023438 366.8125 L 546.929688 366.652344 Z M 550.136719 370.394531 L 550.394531 370.96875 L 550.894531 372.167969 L 551.074219 372.632812 L 549.957031 373.0625 L 549.789062 372.632812 L 549.300781 371.457031 L 549.046875 370.882812 Z M 551.902344 374.90625 L 552.199219 375.804688 L 552.570312 377.023438 L 552.621094 377.222656 L 551.46875 377.535156 L 551.421875 377.367188 L 551.0625 376.179688 L 550.769531 375.28125 Z M 553.222656 379.574219 L 553.46875 380.71875 L 553.695312 381.933594 L 552.515625 382.152344 L 552.296875 380.96875 L 552.050781 379.820312 Z M 554.042969 384.335938 L 554.054688 384.453125 L 554.179688 385.707031 L 554.257812 386.753906 L 553.0625 386.835938 L 552.992188 385.824219 L 552.867188 384.605469 L 552.855469 384.488281 Z M 554.339844 389.175781 L 554.34375 389.492188 C 554.347656 389.824219 554.085938 390.09375 553.753906 390.097656 C 553.425781 390.101562 553.152344 389.839844 553.144531 389.507812 L 553.144531 389.195312 Z M 554.339844 389.175781 "/>
<path style=" stroke:none;fill-rule:evenodd;fill:rgb(0%,0%,0%);fill-opacity:0.1451;" d="M 553.746094 389.5 C 553.746094 442.847656 456.203125 486.101562 335.878906 486.101562 C 215.554688 486.101562 118.011719 442.847656 118.011719 389.5 C 118.011719 336.148438 215.554688 292.898438 335.878906 292.898438 C 456.203125 292.898438 553.746094 336.148438 553.746094 389.5 Z M 553.746094 389.5 "/>
<path style="fill:none;stroke-width:5;stroke-linecap:round;stroke-linejoin:round;stroke:rgb(0%,0%,0%);stroke-opacity:1;stroke-miterlimit:10;" d="M 1400.687497 684.472378 C 1181.325836 684.472378 1003.506484 1098.640405 1003.506484 1609.538517 C 1003.506484 2120.43663 1181.325836 2534.604657 1400.687497 2534.604657 " transform="matrix(0.239402,0,0,-0.239269,0.551488,774.613008)"/>
<path style=" stroke:none;fill-rule:nonzero;fill:rgb(0%,0%,0%);fill-opacity:1;" d="M 335.886719 167.5625 L 337.113281 167.578125 L 338.296875 167.632812 L 338.246094 168.828125 L 337.097656 168.777344 L 335.871094 168.757812 C 335.539062 168.753906 335.273438 168.480469 335.28125 168.152344 C 335.285156 167.820312 335.554688 167.558594 335.886719 167.5625 Z M 340.71875 167.839844 L 340.832031 167.851562 L 342.0625 168.015625 L 343.121094 168.1875 L 342.925781 169.371094 L 341.90625 169.203125 L 340.710938 169.042969 L 340.59375 169.03125 Z M 345.5 168.667969 L 345.730469 168.71875 L 346.941406 169.023438 L 347.847656 169.277344 L 347.527344 170.429688 L 346.648438 170.183594 L 345.472656 169.890625 L 345.242188 169.835938 Z M 350.164062 170.011719 L 350.550781 170.144531 L 351.746094 170.585938 L 352.433594 170.863281 L 351.988281 171.972656 L 351.328125 171.710938 L 350.167969 171.277344 L 349.777344 171.144531 Z M 354.65625 171.820312 L 355.292969 172.113281 L 356.464844 172.691406 L 356.835938 172.882812 L 356.285156 173.945312 L 355.9375 173.761719 L 354.789062 173.199219 L 354.15625 172.910156 Z M 358.964844 174.039062 L 359.945312 174.613281 L 361.027344 175.28125 L 360.402344 176.296875 L 359.339844 175.644531 L 358.363281 175.074219 Z M 363.050781 176.609375 L 363.371094 176.824219 L 364.5 177.621094 L 365.023438 178.007812 L 364.3125 178.972656 L 363.808594 178.601562 L 362.699219 177.816406 L 362.378906 177.597656 Z M 366.941406 179.480469 L 367.851562 180.207031 L 368.800781 181.003906 L 368.035156 181.921875 L 367.101562 181.140625 L 366.191406 180.410156 Z M 370.617188 182.597656 L 371.144531 183.070312 L 372.230469 184.082031 L 372.386719 184.238281 L 371.554688 185.097656 L 371.410156 184.957031 L 370.34375 183.957031 L 369.816406 183.484375 Z M 374.101562 185.921875 L 374.378906 186.199219 L 375.441406 187.296875 L 375.777344 187.660156 L 374.90625 188.476562 L 374.578125 188.128906 L 373.53125 187.042969 L 373.253906 186.765625 Z M 377.402344 189.429688 L 377.546875 189.585938 L 378.980469 191.246094 L 378.074219 192.027344 L 376.65625 190.390625 L 376.515625 190.230469 Z M 380.527344 193.097656 L 381.667969 194.496094 L 382.035156 194.976562 L 381.085938 195.703125 L 380.738281 195.253906 L 379.597656 193.851562 Z M 383.492188 196.875 L 383.683594 197.121094 L 384.914062 198.820312 L 383.945312 199.519531 L 382.734375 197.851562 L 382.542969 197.601562 Z M 386.308594 200.785156 L 387.621094 202.691406 L 387.671875 202.765625 L 386.667969 203.421875 L 386.636719 203.371094 L 385.320312 201.460938 Z M 388.980469 204.773438 L 389.542969 205.636719 L 390.265625 206.804688 L 389.25 207.433594 L 388.539062 206.289062 L 387.976562 205.425781 Z M 391.535156 208.851562 L 392.746094 210.914062 L 391.714844 211.523438 L 390.5 209.460938 Z M 393.941406 213 L 395.105469 215.078125 L 395.117188 215.101562 L 394.0625 215.664062 L 394.0625 215.660156 L 392.898438 213.585938 Z M 396.246094 217.210938 L 396.890625 218.421875 L 397.359375 219.34375 L 396.289062 219.882812 L 395.832031 218.984375 L 395.1875 217.773438 Z M 398.441406 221.476562 L 398.640625 221.863281 L 399.5 223.636719 L 398.421875 224.15625 L 397.570312 222.40625 L 397.375 222.019531 Z M 400.539062 225.804688 L 401.539062 227.976562 L 400.453125 228.476562 L 399.449219 226.304688 Z M 402.527344 230.167969 L 403.492188 232.355469 L 402.394531 232.839844 L 401.429688 230.648438 Z M 404.425781 234.570312 L 405.261719 236.554688 L 405.355469 236.789062 L 404.242188 237.230469 L 404.15625 237.019531 L 403.324219 235.035156 Z M 406.242188 239.011719 L 406.820312 240.457031 L 407.121094 241.246094 L 406 241.671875 L 405.707031 240.898438 L 405.128906 239.453125 Z M 407.972656 243.484375 L 408.335938 244.4375 L 408.808594 245.734375 L 407.683594 246.144531 L 407.21875 244.863281 L 406.855469 243.910156 Z M 409.625 247.984375 L 409.8125 248.503906 L 410.417969 250.25 L 409.289062 250.640625 L 408.6875 248.914062 L 408.5 248.390625 Z M 411.203125 252.511719 L 411.25 252.652344 L 411.953125 254.792969 L 410.816406 255.167969 L 410.117188 253.042969 L 410.070312 252.902344 Z M 412.703125 257.074219 L 413.417969 259.359375 L 412.273438 259.714844 L 411.5625 257.433594 Z M 414.128906 261.652344 L 414.8125 263.945312 L 413.664062 264.285156 L 412.980469 261.992188 Z M 415.488281 266.246094 L 416.140625 268.550781 L 414.988281 268.875 L 414.335938 266.574219 Z M 416.78125 270.863281 L 417.402344 273.175781 L 416.246094 273.484375 L 415.625 271.175781 Z M 418.011719 275.496094 L 418.601562 277.816406 L 417.4375 278.109375 L 416.851562 275.792969 Z M 419.179688 280.144531 L 419.738281 282.472656 L 418.574219 282.753906 L 418.011719 280.425781 Z M 420.285156 284.808594 L 420.816406 287.144531 L 419.644531 287.410156 L 419.121094 285.074219 Z M 421.335938 289.488281 L 421.835938 291.828125 L 420.664062 292.078125 L 420.164062 289.738281 Z M 422.324219 294.175781 L 422.796875 296.523438 L 421.621094 296.757812 L 421.152344 294.410156 Z M 423.261719 298.875 L 423.703125 301.226562 L 422.527344 301.449219 L 422.082031 299.097656 Z M 424.140625 303.585938 L 424.554688 305.945312 L 423.375 306.148438 L 422.964844 303.792969 Z M 424.96875 308.308594 L 425.355469 310.671875 L 424.171875 310.863281 L 423.789062 308.5 Z M 425.742188 313.03125 L 425.785156 313.300781 L 426.101562 315.402344 L 424.921875 315.582031 L 424.605469 313.492188 L 424.558594 313.222656 Z M 426.460938 317.769531 L 426.558594 318.421875 L 426.800781 320.144531 L 425.613281 320.308594 L 425.378906 318.597656 L 425.277344 317.949219 Z M 427.128906 322.515625 L 427.28125 323.597656 L 427.445312 324.890625 L 426.257812 325.046875 L 426.097656 323.761719 L 425.945312 322.679688 Z M 427.75 327.265625 L 427.949219 328.832031 L 428.042969 329.644531 L 426.855469 329.785156 L 426.765625 328.980469 L 426.5625 327.417969 Z M 428.320312 332.023438 L 428.5625 334.117188 L 428.59375 334.40625 L 427.40625 334.53125 L 427.375 334.253906 L 427.132812 332.160156 Z M 428.84375 336.789062 L 429.09375 339.167969 L 427.902344 339.292969 L 427.652344 336.914062 Z M 429.320312 341.554688 L 429.542969 343.9375 L 428.351562 344.050781 L 428.128906 341.667969 Z M 429.75 346.328125 L 429.949219 348.714844 L 428.753906 348.8125 L 428.558594 346.425781 Z M 430.132812 351.105469 L 430.304688 353.492188 L 429.109375 353.574219 L 428.941406 351.191406 Z M 430.472656 355.882812 L 430.617188 358.273438 L 429.421875 358.34375 L 429.277344 355.957031 Z M 430.761719 360.664062 L 430.796875 361.273438 L 430.886719 363.058594 L 429.6875 363.117188 L 429.601562 361.347656 L 429.566406 360.734375 Z M 431.003906 365.449219 L 431.070312 366.839844 L 431.109375 367.84375 L 429.914062 367.890625 L 429.875 366.898438 L 429.804688 365.503906 Z M 431.199219 370.234375 L 431.285156 372.445312 L 431.289062 372.632812 L 430.09375 372.664062 L 430.089844 372.492188 L 430.003906 370.28125 Z M 431.355469 375.023438 L 431.421875 377.417969 L 430.222656 377.449219 L 430.160156 375.058594 Z M 431.464844 379.816406 L 431.507812 382.207031 L 430.308594 382.226562 L 430.269531 379.835938 Z M 431.535156 384.605469 L 431.550781 387 L 430.351562 387.007812 L 430.339844 384.613281 Z M 431.5625 389.390625 L 431.5625 389.496094 L 431.550781 391.792969 L 430.351562 391.785156 L 430.363281 389.503906 L 430.363281 389.398438 Z M 431.539062 394.183594 L 431.53125 395.21875 L 431.507812 396.582031 L 430.3125 396.5625 L 430.332031 395.210938 L 430.339844 394.175781 Z M 431.46875 398.976562 L 431.4375 400.902344 L 431.425781 401.375 L 430.226562 401.339844 L 430.242188 400.878906 L 430.273438 398.957031 Z M 431.359375 403.765625 L 431.296875 406.15625 L 430.097656 406.125 L 430.164062 403.734375 Z M 431.210938 408.554688 L 431.117188 410.945312 L 429.921875 410.898438 L 430.011719 408.507812 Z M 431.011719 413.34375 L 430.894531 415.734375 L 429.699219 415.671875 L 429.820312 413.285156 Z M 430.773438 418.128906 L 430.628906 420.519531 L 429.433594 420.445312 L 429.578125 418.054688 Z M 430.488281 422.90625 L 430.464844 423.242188 L 430.320312 425.300781 L 429.125 425.214844 L 429.269531 423.171875 L 429.292969 422.835938 Z M 430.148438 427.6875 L 430.074219 428.726562 L 429.964844 430.078125 L 428.769531 429.980469 L 428.882812 428.640625 L 428.953125 427.601562 Z M 429.769531 432.460938 L 429.625 434.15625 L 429.5625 434.851562 L 428.371094 434.742188 L 428.433594 434.058594 L 428.574219 432.363281 Z M 429.339844 437.234375 L 429.125 439.542969 L 429.117188 439.625 L 427.925781 439.5 L 427.933594 439.429688 L 428.148438 437.125 Z M 428.867188 442.003906 L 428.617188 444.382812 L 427.425781 444.257812 L 427.675781 441.878906 Z M 428.347656 446.769531 L 428.070312 449.144531 L 426.882812 449.007812 L 427.15625 446.628906 Z M 427.777344 451.527344 L 427.472656 453.898438 L 426.285156 453.75 L 426.589844 451.375 Z M 427.160156 456.277344 L 426.828125 458.648438 L 425.644531 458.484375 L 425.972656 456.113281 Z M 426.492188 461.023438 L 426.132812 463.390625 L 424.953125 463.210938 L 425.308594 460.84375 Z M 425.773438 465.761719 L 425.390625 468.125 L 424.207031 467.933594 L 424.59375 465.570312 Z M 425.003906 470.484375 L 424.957031 470.757812 L 424.59375 472.847656 L 423.410156 472.644531 L 423.777344 470.5625 L 423.820312 470.292969 Z M 424.179688 475.207031 L 424.082031 475.761719 L 423.742188 477.566406 L 422.566406 477.34375 L 422.902344 475.554688 L 423 475 Z M 423.300781 479.917969 L 423.152344 480.699219 L 422.835938 482.273438 L 421.660156 482.035156 L 421.976562 480.480469 L 422.125 479.695312 Z M 422.367188 484.617188 L 422.175781 485.578125 L 421.878906 486.96875 L 420.707031 486.71875 L 421 485.34375 L 421.191406 484.382812 Z M 421.378906 489.308594 L 421.148438 490.390625 L 420.863281 491.652344 L 419.695312 491.386719 L 419.976562 490.140625 L 420.207031 489.058594 Z M 420.332031 493.984375 L 420.074219 495.132812 L 419.789062 496.324219 L 418.621094 496.042969 L 418.902344 494.871094 L 419.164062 493.722656 Z M 419.226562 498.648438 L 418.945312 499.816406 L 418.652344 500.980469 L 417.492188 500.6875 L 417.785156 499.535156 L 418.0625 498.371094 Z M 418.0625 503.300781 L 417.777344 504.421875 L 417.457031 505.621094 L 416.300781 505.3125 L 416.617188 504.125 L 416.902344 503.007812 Z M 416.839844 507.933594 L 416.5625 508.953125 L 416.195312 510.246094 L 415.046875 509.921875 L 415.40625 508.644531 L 415.683594 507.625 Z M 415.546875 512.550781 L 415.300781 513.417969 L 414.871094 514.855469 L 413.726562 514.511719 L 414.148438 513.089844 L 414.394531 512.226562 Z M 414.191406 517.148438 L 413.992188 517.800781 L 413.480469 519.441406 L 412.339844 519.085938 L 412.847656 517.460938 L 413.042969 516.808594 Z M 412.765625 521.722656 L 412.644531 522.109375 L 412.019531 524.007812 L 410.882812 523.632812 L 411.503906 521.753906 L 411.625 521.367188 Z M 411.273438 526.28125 L 411.253906 526.339844 L 410.488281 528.550781 L 409.355469 528.160156 L 410.117188 525.96875 L 410.136719 525.90625 Z M 409.695312 530.820312 L 408.878906 533.066406 L 407.753906 532.660156 L 408.570312 530.414062 Z M 408.046875 535.320312 L 407.195312 537.558594 L 406.078125 537.132812 L 406.929688 534.894531 Z M 406.320312 539.792969 L 405.429688 542.015625 L 404.320312 541.574219 L 405.207031 539.351562 Z M 404.507812 544.234375 L 403.667969 546.242188 L 403.574219 546.449219 L 402.480469 545.96875 L 402.5625 545.78125 L 403.40625 543.773438 Z M 402.613281 548.640625 L 402.03125 549.960938 L 401.628906 550.835938 L 400.542969 550.332031 L 400.933594 549.480469 L 401.515625 548.160156 Z M 400.625 553.007812 L 400.359375 553.589844 L 399.589844 555.175781 L 398.511719 554.65625 L 399.269531 553.089844 L 399.539062 552.507812 Z M 398.539062 557.335938 L 397.453125 559.472656 L 396.386719 558.929688 L 397.46875 556.796875 Z M 396.34375 561.605469 L 395.21875 563.714844 L 394.160156 563.152344 L 395.289062 561.042969 Z M 394.046875 565.816406 L 393.292969 567.160156 L 392.855469 567.90625 L 391.824219 567.296875 L 392.25 566.574219 L 393 565.234375 Z M 391.636719 569.96875 L 391.441406 570.308594 L 390.378906 572.019531 L 389.363281 571.390625 L 390.40625 569.699219 L 390.605469 569.359375 Z M 389.09375 574.054688 L 387.785156 576.058594 L 386.785156 575.40625 L 388.09375 573.398438 Z M 386.429688 578.046875 L 385.675781 579.136719 L 385.039062 580.011719 L 384.070312 579.3125 L 384.691406 578.457031 L 385.441406 577.367188 Z M 383.621094 581.960938 L 382.164062 583.859375 L 381.214844 583.128906 L 382.671875 581.234375 Z M 380.660156 585.742188 L 379.632812 587.003906 L 379.121094 587.597656 L 378.214844 586.816406 L 378.703125 586.25 L 379.730469 584.988281 Z M 377.546875 589.417969 L 376.503906 590.566406 L 375.921875 591.1875 L 375.046875 590.375 L 375.617188 589.761719 L 376.65625 588.613281 Z M 374.25 592.929688 L 373.316406 593.867188 L 372.542969 594.617188 L 371.707031 593.757812 L 372.46875 593.023438 L 373.40625 592.085938 Z M 370.777344 596.265625 L 370.0625 596.90625 L 368.972656 597.855469 L 368.1875 596.953125 L 369.261719 596.019531 L 369.976562 595.375 Z M 367.105469 599.390625 L 366.753906 599.675781 L 365.636719 600.539062 L 365.191406 600.867188 L 364.480469 599.90625 L 364.90625 599.59375 L 366 598.746094 L 366.355469 598.460938 Z M 363.226562 602.273438 L 362.246094 602.9375 L 361.21875 603.601562 L 360.570312 602.597656 L 361.578125 601.949219 L 362.554688 601.285156 Z M 359.148438 604.855469 L 358.800781 605.054688 L 357.644531 605.695312 L 357.023438 606.019531 L 356.46875 604.960938 L 357.0625 604.652344 L 358.203125 604.019531 L 358.542969 603.820312 Z M 354.851562 607.089844 L 354.132812 607.421875 L 352.949219 607.933594 L 352.628906 608.058594 L 352.183594 606.949219 L 352.476562 606.835938 L 353.628906 606.335938 L 354.347656 606.003906 Z M 350.359375 608.921875 L 349.371094 609.257812 L 348.167969 609.632812 L 348.054688 609.664062 L 347.730469 608.515625 L 347.8125 608.492188 L 348.984375 608.125 L 349.976562 607.789062 Z M 345.707031 610.285156 L 344.53125 610.546875 L 343.347656 610.773438 L 343.117188 609.597656 L 344.273438 609.378906 L 345.449219 609.117188 Z M 340.945312 611.132812 L 340.851562 611.148438 L 339.617188 611.273438 L 338.523438 611.355469 L 338.4375 610.160156 L 339.496094 610.085938 L 340.695312 609.960938 L 340.789062 609.949219 Z M 336.097656 611.433594 L 335.890625 611.4375 C 335.558594 611.445312 335.285156 611.179688 335.28125 610.847656 C 335.277344 610.515625 335.542969 610.246094 335.871094 610.242188 L 336.082031 610.238281 Z M 336.097656 611.433594 "/>
<path style=" stroke:none;fill-rule:evenodd;fill:rgb(0%,0%,0%);fill-opacity:1;" d="M 505.429688 239.769531 C 505.429688 243.238281 502.617188 246.050781 499.148438 246.050781 C 495.679688 246.050781 492.863281 243.238281 492.863281 239.769531 C 492.863281 236.300781 495.679688 233.488281 499.148438 233.488281 C 502.617188 233.488281 505.429688 236.300781 505.429688 239.769531 Z M 505.429688 239.769531 "/>
<g clip-path="url(#clip1)" clip-rule="nonzero">
<path style=" stroke:none;fill-rule:evenodd;fill:rgb(0%,0%,0%);fill-opacity:1;" d="M 575.492188 203.292969 C 575.402344 203.746094 575.125 203.972656 574.65625 203.972656 C 573.949219 203.972656 573.28125 203.988281 572.648438 204.015625 C 572.015625 204.046875 571.554688 204.121094 571.269531 204.246094 C 570.984375 204.371094 570.757812 204.753906 570.589844 205.394531 L 564.242188 230.097656 C 564.152344 230.417969 564.109375 230.675781 564.109375 230.863281 C 564.109375 231.039062 564.152344 231.148438 564.242188 231.191406 C 564.453125 231.324219 564.867188 231.402344 565.476562 231.421875 C 566.085938 231.445312 566.746094 231.457031 567.453125 231.453125 C 567.875 231.457031 568.085938 231.632812 568.085938 231.980469 C 568.085938 232.070312 568.070312 232.164062 568.039062 232.265625 L 567.949219 232.59375 C 567.90625 232.785156 567.804688 232.945312 567.644531 233.078125 C 567.488281 233.207031 567.300781 233.273438 567.089844 233.273438 C 565.300781 233.1875 563.476562 233.140625 561.625 233.140625 C 559.773438 233.140625 557.90625 233.1875 556.023438 233.273438 C 555.632812 233.273438 555.433594 233.085938 555.433594 232.703125 L 555.433594 232.527344 L 555.523438 232.15625 C 555.644531 231.675781 555.941406 231.441406 556.40625 231.453125 C 557.113281 231.457031 557.777344 231.445312 558.394531 231.421875 C 559.011719 231.402344 559.472656 231.324219 559.773438 231.191406 C 560.042969 231.046875 560.261719 230.652344 560.425781 230.007812 L 566.773438 205.527344 L 549.992188 232.660156 C 549.765625 233.070312 549.417969 233.273438 548.953125 233.273438 L 548.726562 233.273438 C 548.261719 233.273438 547.980469 233.042969 547.890625 232.574219 L 545.15625 205.769531 L 539.21875 228.890625 C 539.128906 229.15625 539.082031 229.433594 539.082031 229.722656 C 539.082031 229.796875 539.097656 229.878906 539.128906 229.964844 C 539.15625 230.316406 539.277344 230.59375 539.488281 230.796875 C 539.757812 231.0625 540.121094 231.238281 540.574219 231.324219 C 541.027344 231.414062 541.535156 231.457031 542.109375 231.453125 C 542.53125 231.457031 542.742188 231.632812 542.742188 231.980469 C 542.742188 232.070312 542.726562 232.164062 542.695312 232.265625 L 542.605469 232.59375 C 542.5625 232.785156 542.460938 232.945312 542.300781 233.078125 C 542.144531 233.207031 541.949219 233.273438 541.722656 233.273438 C 540.21875 233.1875 538.699219 233.140625 537.160156 233.140625 C 535.625 233.140625 534.070312 233.1875 532.488281 233.273438 C 532.261719 233.273438 532.09375 233.207031 531.988281 233.078125 C 531.886719 232.976562 531.832031 232.867188 531.832031 232.746094 C 531.832031 232.660156 531.847656 232.574219 531.878906 232.484375 L 531.964844 232.15625 C 532.085938 231.675781 532.382812 231.441406 532.847656 231.453125 C 533.421875 231.457031 533.957031 231.414062 534.464844 231.324219 C 534.96875 231.238281 535.4375 231.054688 535.875 230.773438 C 536.222656 230.558594 536.503906 230.269531 536.722656 229.910156 C 536.941406 229.554688 537.101562 229.171875 537.207031 228.757812 L 543.257812 205.308594 C 543.351562 204.988281 543.394531 204.738281 543.394531 204.5625 C 543.394531 204.386719 543.359375 204.285156 543.28125 204.257812 C 543.070312 204.125 542.660156 204.046875 542.050781 204.015625 C 541.441406 203.988281 540.78125 203.972656 540.074219 203.972656 C 539.671875 203.972656 539.449219 203.773438 539.421875 203.378906 L 539.421875 203.226562 L 539.511719 202.832031 C 539.675781 202.394531 539.96875 202.175781 540.390625 202.171875 L 547.710938 202.171875 C 548.191406 202.175781 548.460938 202.410156 548.523438 202.875 L 551.097656 227.925781 L 566.636719 202.789062 C 566.863281 202.378906 567.210938 202.175781 567.675781 202.171875 L 574.996094 202.171875 C 575.207031 202.175781 575.386719 202.246094 575.539062 202.394531 C 575.597656 202.511719 575.628906 202.621094 575.628906 202.722656 C 575.628906 202.8125 575.605469 202.890625 575.5625 202.960938 Z M 575.492188 203.292969 "/>
</g>
<path style=" stroke:none;fill-rule:evenodd;fill:rgb(0%,0%,0%);fill-opacity:1;" d="M 342.160156 389.5 C 342.160156 392.96875 339.347656 395.78125 335.878906 395.78125 C 332.40625 395.78125 329.59375 392.96875 329.59375 389.5 C 329.59375 386.03125 332.40625 383.21875 335.878906 383.21875 C 339.347656 383.21875 342.160156 386.03125 342.160156 389.5 Z M 342.160156 389.5 "/>
<g clip-path="url(#clip2)" clip-rule="nonzero">
<path style=" stroke:none;fill-rule:evenodd;fill:rgb(0%,0%,0%);fill-opacity:1;" d="M 311.578125 361.894531 C 311.035156 364.015625 310.15625 366.0625 308.945312 368.035156 C 307.734375 370.003906 306.210938 371.808594 304.371094 373.445312 C 302.71875 374.921875 300.90625 376.097656 298.941406 376.964844 C 296.972656 377.832031 295.007812 378.265625 293.035156 378.265625 C 291.046875 378.265625 289.28125 377.832031 287.738281 376.953125 C 286.195312 376.078125 284.964844 374.894531 284.042969 373.402344 C 283.035156 371.753906 282.457031 369.925781 282.304688 367.921875 C 282.246094 367.441406 282.214844 366.960938 282.214844 366.476562 C 282.214844 364.972656 282.410156 363.414062 282.800781 361.808594 C 283.375 359.660156 284.257812 357.578125 285.457031 355.550781 C 286.652344 353.527344 288.183594 351.699219 290.050781 350.058594 C 291.707031 348.585938 293.519531 347.398438 295.484375 346.5 C 297.449219 345.601562 299.433594 345.152344 301.433594 345.152344 C 303.421875 345.152344 305.179688 345.605469 306.707031 346.511719 C 308.238281 347.417969 309.460938 348.613281 310.378906 350.105469 C 311.386719 351.757812 311.984375 353.597656 312.164062 355.625 C 312.195312 356.125 312.210938 356.613281 312.210938 357.09375 C 312.210938 358.660156 312 360.257812 311.578125 361.894531 Z M 307.015625 350.847656 C 306.519531 349.625 305.773438 348.625 304.777344 347.859375 C 303.785156 347.09375 302.566406 346.707031 301.117188 346.707031 C 299.6875 346.707031 298.265625 347.101562 296.851562 347.882812 C 295.4375 348.664062 294.171875 349.675781 293.054688 350.914062 C 291.65625 352.421875 290.550781 354.054688 289.738281 355.816406 C 288.921875 357.578125 288.289062 359.363281 287.839844 361.171875 C 287.3125 363.144531 286.988281 365.066406 286.867188 366.9375 C 286.839844 367.289062 286.824219 367.640625 286.824219 367.988281 C 286.824219 369.449219 287.0625 370.882812 287.542969 372.285156 C 288.011719 373.527344 288.726562 374.570312 289.691406 375.410156 C 290.65625 376.25 291.859375 376.667969 293.304688 376.667969 C 294.796875 376.667969 296.253906 376.242188 297.675781 375.386719 C 299.097656 374.53125 300.375 373.476562 301.503906 372.21875 C 302.964844 370.523438 304.101562 368.734375 304.914062 366.851562 C 305.726562 364.964844 306.390625 363.042969 306.902344 361.085938 C 307.367188 359.261719 307.660156 357.460938 307.78125 355.691406 L 307.78125 354.925781 C 307.78125 353.464844 307.527344 352.105469 307.015625 350.847656 Z M 307.015625 350.847656 "/>
</g>
<path style="fill:none;stroke-width:10;stroke-linecap:round;stroke-linejoin:round;stroke:rgb(0%,0%,0%);stroke-opacity:1;stroke-miterlimit:10;" d="M 1400.687497 1609.538517 L 2082.676437 2235.320954 " transform="matrix(0.239402,0,0,-0.239269,0.551488,774.613008)"/>
<g clip-path="url(#clip3)" clip-rule="nonzero">
<path style=" stroke:none;fill-rule:evenodd;fill:rgb(0%,0%,0%);fill-opacity:1;" d="M 484.441406 420.722656 C 484.351562 421.175781 484.074219 421.402344 483.605469 421.402344 C 482.898438 421.402344 482.226562 421.417969 481.59375 421.445312 C 480.964844 421.476562 480.503906 421.554688 480.21875 421.675781 C 479.933594 421.800781 479.707031 422.183594 479.539062 422.824219 L 473.191406 447.527344 C 473.101562 447.851562 473.054688 448.105469 473.054688 448.292969 C 473.054688 448.46875 473.101562 448.582031 473.191406 448.621094 C 473.402344 448.753906 473.8125 448.832031 474.425781 448.855469 C 475.035156 448.875 475.691406 448.886719 476.398438 448.886719 C 476.824219 448.886719 477.03125 449.0625 477.03125 449.410156 C 477.03125 449.5 477.015625 449.59375 476.988281 449.695312 L 476.898438 450.023438 C 476.851562 450.21875 476.75 450.378906 476.59375 450.507812 C 476.433594 450.640625 476.25 450.703125 476.039062 450.703125 C 474.246094 450.617188 472.425781 450.574219 470.574219 450.574219 C 468.722656 450.574219 466.855469 450.617188 464.972656 450.703125 C 464.578125 450.703125 464.382812 450.515625 464.382812 450.136719 L 464.382812 449.960938 L 464.472656 449.585938 C 464.59375 449.105469 464.890625 448.871094 465.355469 448.886719 C 466.0625 448.886719 466.726562 448.875 467.34375 448.855469 C 467.960938 448.832031 468.417969 448.753906 468.71875 448.621094 C 468.992188 448.476562 469.210938 448.082031 469.375 447.4375 L 475.722656 422.957031 L 458.9375 450.089844 C 458.714844 450.5 458.367188 450.703125 457.898438 450.703125 L 457.675781 450.703125 C 457.210938 450.703125 456.929688 450.472656 456.839844 450.003906 L 454.105469 423.199219 L 448.167969 446.320312 C 448.074219 446.585938 448.03125 446.863281 448.03125 447.152344 C 448.03125 447.226562 448.046875 447.308594 448.074219 447.394531 C 448.105469 447.746094 448.226562 448.027344 448.4375 448.226562 C 448.707031 448.492188 449.070312 448.667969 449.523438 448.753906 C 449.972656 448.84375 450.484375 448.886719 451.058594 448.886719 C 451.480469 448.886719 451.6875 449.0625 451.6875 449.410156 C 451.6875 449.5 451.671875 449.59375 451.644531 449.695312 L 451.554688 450.023438 C 451.507812 450.21875 451.40625 450.378906 451.25 450.507812 C 451.089844 450.640625 450.898438 450.703125 450.671875 450.703125 C 449.167969 450.617188 447.648438 450.574219 446.109375 450.574219 C 444.574219 450.574219 443.015625 450.617188 441.433594 450.703125 C 441.210938 450.703125 441.042969 450.640625 440.9375 450.507812 C 440.832031 450.40625 440.78125 450.296875 440.78125 450.179688 C 440.78125 450.09375 440.796875 450.003906 440.824219 449.914062 L 440.914062 449.585938 C 441.035156 449.105469 441.328125 448.871094 441.796875 448.886719 C 442.367188 448.886719 442.90625 448.84375 443.410156 448.753906 C 443.914062 448.667969 444.386719 448.484375 444.824219 448.207031 C 445.171875 447.988281 445.453125 447.699219 445.671875 447.339844 C 445.886719 446.984375 446.050781 446.601562 446.15625 446.191406 L 452.207031 422.738281 C 452.296875 422.417969 452.34375 422.167969 452.34375 421.992188 C 452.34375 421.820312 452.308594 421.714844 452.230469 421.6875 C 452.019531 421.554688 451.609375 421.476562 451 421.445312 C 450.390625 421.417969 449.730469 421.402344 449.023438 421.402344 C 448.617188 421.402344 448.398438 421.207031 448.367188 420.808594 L 448.367188 420.65625 L 448.460938 420.261719 C 448.625 419.824219 448.917969 419.605469 449.339844 419.605469 L 456.660156 419.605469 C 457.140625 419.605469 457.410156 419.839844 457.472656 420.304688 L 460.046875 445.355469 L 475.585938 420.21875 C 475.8125 419.808594 476.160156 419.605469 476.625 419.605469 L 483.945312 419.605469 C 484.15625 419.605469 484.335938 419.679688 484.484375 419.824219 C 484.546875 419.941406 484.574219 420.050781 484.574219 420.152344 C 484.574219 420.242188 484.554688 420.320312 484.507812 420.394531 Z M 484.441406 420.722656 "/>
</g>
<path style=" stroke:none;fill-rule:evenodd;fill:rgb(0%,0%,0%);fill-opacity:1;" d="M 497.179688 448.527344 C 497.179688 449.707031 497.089844 450.878906 496.90625 452.046875 C 496.71875 453.210938 496.265625 454.308594 495.535156 455.328125 C 495.019531 456.074219 494.324219 456.644531 493.453125 457.046875 C 492.585938 457.449219 491.644531 457.648438 490.621094 457.648438 C 489.636719 457.648438 488.714844 457.449219 487.839844 457.046875 C 486.964844 456.644531 486.269531 456.074219 485.75 455.328125 C 485.023438 454.308594 484.566406 453.210938 484.382812 452.046875 C 484.199219 450.878906 484.105469 449.707031 484.105469 448.527344 C 484.105469 447.335938 484.199219 446.140625 484.382812 444.953125 C 484.566406 443.761719 485.023438 442.648438 485.75 441.605469 C 486.269531 440.855469 486.960938 440.269531 487.832031 439.851562 C 488.699219 439.433594 489.628906 439.226562 490.621094 439.226562 C 491.632812 439.226562 492.574219 439.433594 493.449219 439.851562 C 494.320312 440.269531 495.019531 440.855469 495.535156 441.605469 C 496.265625 442.648438 496.71875 443.761719 496.90625 444.953125 C 497.089844 446.140625 497.179688 447.335938 497.179688 448.527344 Z M 494.375 448.097656 C 494.375 447.585938 494.367188 447.039062 494.359375 446.46875 C 494.355469 445.894531 494.328125 445.335938 494.292969 444.785156 C 494.253906 444.238281 494.1875 443.71875 494.085938 443.234375 C 493.984375 442.746094 493.867188 442.332031 493.722656 441.988281 C 493.4375 441.433594 493.023438 440.976562 492.476562 440.621094 C 491.929688 440.261719 491.308594 440.085938 490.621094 440.085938 C 489.949219 440.085938 489.34375 440.265625 488.800781 440.625 C 488.257812 440.984375 487.84375 441.441406 487.5625 441.988281 C 487.421875 442.332031 487.300781 442.746094 487.199219 443.234375 C 487.101562 443.71875 487.035156 444.238281 486.996094 444.785156 C 486.957031 445.335938 486.933594 445.894531 486.925781 446.46875 C 486.914062 447.039062 486.910156 447.585938 486.910156 448.097656 C 486.910156 448.671875 486.914062 449.277344 486.925781 449.910156 C 486.933594 450.546875 486.957031 451.160156 486.996094 451.75 C 487.035156 452.34375 487.101562 452.90625 487.199219 453.4375 C 487.300781 453.972656 487.421875 454.417969 487.5625 454.777344 C 487.828125 455.375 488.234375 455.867188 488.785156 456.25 C 489.339844 456.636719 489.949219 456.828125 490.621094 456.824219 C 491.316406 456.828125 491.945312 456.636719 492.496094 456.25 C 493.050781 455.867188 493.457031 455.375 493.722656 454.777344 C 493.867188 454.417969 493.984375 453.972656 494.085938 453.4375 C 494.1875 452.90625 494.253906 452.34375 494.292969 451.75 C 494.328125 451.160156 494.355469 450.546875 494.359375 449.910156 C 494.367188 449.277344 494.375 448.671875 494.375 448.097656 Z M 494.375 448.097656 "/>
<path style=" stroke:none;fill-rule:nonzero;fill:rgb(0%,0%,0%);fill-opacity:1;" d="M 335.753906 388.914062 L 340.441406 387.933594 L 340.6875 389.105469 L 336 390.085938 C 335.675781 390.152344 335.359375 389.945312 335.292969 389.621094 C 335.226562 389.296875 335.433594 388.980469 335.753906 388.914062 Z M 342.785156 387.445312 L 347.472656 386.46875 L 347.71875 387.640625 L 343.03125 388.617188 Z M 349.816406 385.980469 L 354.503906 385 L 354.75 386.171875 L 350.0625 387.148438 Z M 356.847656 384.511719 L 361.535156 383.535156 L 361.777344 384.707031 L 357.09375 385.683594 Z M 363.878906 383.046875 L 368.566406 382.066406 L 368.808594 383.238281 L 364.121094 384.214844 Z M 370.910156 381.578125 L 375.597656 380.601562 L 375.839844 381.769531 L 371.152344 382.75 Z M 377.941406 380.113281 L 382.625 379.132812 L 382.871094 380.304688 L 378.183594 381.28125 Z M 384.96875 378.644531 L 389.65625 377.667969 L 389.902344 378.835938 L 385.214844 379.816406 Z M 392 377.175781 L 396.6875 376.199219 L 396.933594 377.371094 L 392.246094 378.351562 Z M 399.03125 375.710938 L 403.714844 374.730469 L 403.964844 375.90625 L 399.277344 376.882812 Z M 406.058594 374.242188 L 410.746094 373.265625 L 410.992188 374.4375 L 406.304688 375.417969 Z M 413.089844 372.777344 L 417.777344 371.796875 L 418.023438 372.972656 L 413.335938 373.945312 Z M 420.121094 371.308594 L 424.808594 370.332031 L 425.054688 371.503906 L 420.367188 372.480469 Z M 427.152344 369.84375 L 431.839844 368.863281 L 432.082031 370.039062 L 427.394531 371.015625 Z M 434.183594 368.378906 L 438.871094 367.398438 L 439.113281 368.570312 L 434.425781 369.546875 Z M 441.214844 366.910156 L 445.898438 365.929688 L 446.144531 367.101562 L 441.457031 368.082031 Z M 448.242188 365.441406 L 452.929688 364.464844 L 453.175781 365.636719 L 448.488281 366.613281 Z M 455.273438 363.972656 L 458.933594 363.210938 C 459.257812 363.144531 459.574219 363.351562 459.640625 363.675781 C 459.707031 364 459.5 364.316406 459.179688 364.382812 L 455.519531 365.148438 Z M 455.273438 363.972656 "/>
<path style=" stroke:none;fill-rule:evenodd;fill:rgb(0%,0%,0%);fill-opacity:1;" d="M 465.339844 363.796875 C 465.339844 367.265625 462.527344 370.078125 459.054688 370.078125 C 455.585938 370.078125 452.769531 367.265625 452.769531 363.796875 C 452.769531 360.328125 455.585938 357.515625 459.054688 357.515625 C 462.527344 357.515625 465.339844 360.328125 465.339844 363.796875 Z M 465.339844 363.796875 "/>
<path style=" stroke:none;fill-rule:evenodd;fill:rgb(100%,100%,100%);fill-opacity:1;" d="M 463.242188 363.796875 C 463.242188 366.109375 461.371094 367.984375 459.054688 367.984375 C 456.742188 367.984375 454.863281 366.109375 454.863281 363.796875 C 454.863281 361.484375 456.742188 359.609375 459.054688 359.609375 C 461.371094 359.609375 463.242188 361.484375 463.242188 363.796875 Z M 463.242188 363.796875 "/>
<path style=" stroke:none;fill-rule:evenodd;fill:rgb(0%,0%,0%);fill-opacity:1;" d="M 762.539062 301.785156 C 762.539062 305.253906 759.726562 308.0625 756.253906 308.0625 C 752.785156 308.0625 749.972656 305.253906 749.972656 301.785156 C 749.972656 298.316406 752.785156 295.503906 756.253906 295.503906 C 759.726562 295.503906 762.539062 298.316406 762.539062 301.785156 Z M 762.539062 301.785156 "/>
<path style=" stroke:none;fill-rule:evenodd;fill:rgb(100%,100%,100%);fill-opacity:1;" d="M 760.445312 301.785156 C 760.445312 304.097656 758.566406 305.972656 756.253906 305.972656 C 753.941406 305.972656 752.066406 304.097656 752.066406 301.785156 C 752.066406 299.472656 753.941406 297.597656 756.253906 297.597656 C 758.566406 297.597656 760.445312 299.472656 760.445312 301.785156 Z M 760.445312 301.785156 "/>
<g clip-path="url(#clip4)" clip-rule="nonzero">
<path style=" stroke:none;fill-rule:evenodd;fill:rgb(0%,0%,0%);fill-opacity:1;" d="M 837.421875 285.144531 C 837.332031 285.601562 837.054688 285.824219 836.585938 285.824219 C 835.878906 285.824219 835.210938 285.839844 834.574219 285.871094 C 833.945312 285.898438 833.484375 285.976562 833.199219 286.101562 C 832.914062 286.222656 832.6875 286.609375 832.519531 287.25 L 826.171875 311.949219 C 826.082031 312.273438 826.039062 312.527344 826.039062 312.71875 C 826.039062 312.894531 826.082031 313.003906 826.171875 313.046875 C 826.382812 313.179688 826.796875 313.253906 827.40625 313.277344 C 828.015625 313.296875 828.675781 313.308594 829.382812 313.308594 C 829.804688 313.308594 830.011719 313.484375 830.011719 313.835938 C 830.011719 313.921875 830 314.019531 829.96875 314.121094 L 829.878906 314.449219 C 829.835938 314.640625 829.734375 314.800781 829.574219 314.929688 C 829.417969 315.0625 829.230469 315.128906 829.019531 315.128906 C 827.226562 315.039062 825.40625 314.996094 823.554688 314.996094 C 821.703125 314.996094 819.835938 315.039062 817.953125 315.128906 C 817.558594 315.128906 817.363281 314.9375 817.363281 314.558594 L 817.363281 314.382812 L 817.453125 314.011719 C 817.574219 313.527344 817.871094 313.296875 818.335938 313.308594 C 819.042969 313.308594 819.707031 313.296875 820.324219 313.277344 C 820.941406 313.253906 821.402344 313.179688 821.703125 313.046875 C 821.972656 312.898438 822.191406 312.503906 822.355469 311.863281 L 828.703125 287.378906 L 811.921875 314.515625 C 811.695312 314.921875 811.347656 315.128906 810.882812 315.128906 L 810.65625 315.128906 C 810.191406 315.128906 809.910156 314.894531 809.820312 314.425781 L 807.085938 287.621094 L 801.148438 310.746094 C 801.058594 311.007812 801.011719 311.285156 801.011719 311.578125 C 801.011719 311.652344 801.027344 311.730469 801.058594 311.816406 C 801.085938 312.171875 801.207031 312.449219 801.417969 312.652344 C 801.6875 312.914062 802.050781 313.089844 802.503906 313.179688 C 802.957031 313.265625 803.464844 313.308594 804.039062 313.308594 C 804.460938 313.308594 804.671875 313.484375 804.671875 313.835938 C 804.671875 313.921875 804.65625 314.019531 804.625 314.121094 L 804.535156 314.449219 C 804.492188 314.640625 804.390625 314.800781 804.230469 314.929688 C 804.074219 315.0625 803.878906 315.128906 803.652344 315.128906 C 802.148438 315.039062 800.628906 314.996094 799.089844 314.996094 C 797.558594 314.996094 796 315.039062 794.417969 315.128906 C 794.191406 315.128906 794.023438 315.0625 793.917969 314.929688 C 793.816406 314.828125 793.761719 314.71875 793.761719 314.601562 C 793.761719 314.515625 793.777344 314.425781 793.808594 314.339844 L 793.894531 314.011719 C 794.015625 313.527344 794.3125 313.292969 794.777344 313.308594 C 795.351562 313.308594 795.886719 313.265625 796.394531 313.179688 C 796.898438 313.089844 797.367188 312.910156 797.804688 312.628906 C 798.152344 312.410156 798.433594 312.125 798.652344 311.765625 C 798.871094 311.40625 799.03125 311.023438 799.136719 310.613281 L 805.1875 287.160156 C 805.28125 286.839844 805.324219 286.59375 805.324219 286.417969 C 805.324219 286.242188 805.289062 286.140625 805.210938 286.109375 C 805 285.980469 804.589844 285.898438 803.980469 285.871094 C 803.371094 285.839844 802.710938 285.824219 802.003906 285.824219 C 801.601562 285.824219 801.378906 285.628906 801.351562 285.234375 L 801.351562 285.078125 L 801.441406 284.683594 C 801.605469 284.246094 801.898438 284.027344 802.320312 284.027344 L 809.640625 284.027344 C 810.121094 284.027344 810.390625 284.261719 810.453125 284.726562 L 813.027344 309.78125 L 828.566406 284.640625 C 828.792969 284.234375 829.140625 284.027344 829.605469 284.027344 L 836.925781 284.027344 C 837.136719 284.027344 837.316406 284.101562 837.464844 284.246094 C 837.527344 284.363281 837.558594 284.472656 837.558594 284.574219 C 837.558594 284.664062 837.535156 284.746094 837.488281 284.816406 Z M 837.421875 285.144531 "/>
</g>
<path style=" stroke:none;fill-rule:evenodd;fill:rgb(0%,0%,0%);fill-opacity:1;" d="M 847.585938 321.496094 C 845.847656 321.445312 844.15625 321.421875 842.515625 321.421875 C 840.871094 321.421875 839.179688 321.445312 837.445312 321.496094 L 837.445312 320.4375 L 838.421875 320.4375 C 838.734375 320.441406 839.027344 320.4375 839.300781 320.425781 C 839.574219 320.417969 839.832031 320.398438 840.078125 320.367188 C 840.324219 320.332031 840.535156 320.300781 840.714844 320.265625 C 840.867188 320.242188 840.992188 320.167969 841.089844 320.039062 C 841.191406 319.914062 841.238281 319.773438 841.238281 319.617188 L 841.238281 305.785156 C 840.769531 305.988281 840.1875 306.144531 839.496094 306.25 C 838.808594 306.359375 838.054688 306.410156 837.230469 306.410156 L 837.230469 305.367188 C 838.363281 305.367188 839.410156 305.246094 840.367188 305.003906 C 841.328125 304.765625 842.15625 304.3125 842.855469 303.648438 L 843.292969 303.648438 C 843.605469 303.648438 843.757812 303.785156 843.757812 304.054688 L 843.757812 319.617188 C 843.757812 319.78125 843.804688 319.925781 843.902344 320.046875 C 843.996094 320.167969 844.136719 320.242188 844.3125 320.265625 C 844.460938 320.300781 844.660156 320.332031 844.894531 320.367188 C 845.128906 320.398438 845.394531 320.417969 845.691406 320.425781 C 845.988281 320.4375 846.28125 320.441406 846.5625 320.4375 L 847.585938 320.4375 Z M 847.585938 321.496094 "/>
</g>
</svg>
