<?xml version="1.0" encoding="UTF-8"?>
<svg xmlns="http://www.w3.org/2000/svg" xmlns:xlink="http://www.w3.org/1999/xlink" width="849.96pt" height="747pt" viewBox="0 0 849.96 747" version="1.2">
<defs>
<clipPath id="clip1">
  <path d="M 117.484375 26 L 128 26 L 128 43 L 117.484375 43 Z M 117.484375 26 "/>
</clipPath>
<clipPath id="clip2">
  <path d="M 250.332031 24 L 261 24 L 261 41 L 250.332031 41 Z M 250.332031 24 "/>
</clipPath>
<clipPath id="clip3">
  <path d="M 590.742188 25.050781 L 602 25.050781 L 602 43 L 590.742188 43 Z M 590.742188 25.050781 "/>
</clipPath>
<clipPath id="clip4">
  <path d="M 723.589844 24 L 734 24 L 734 41 L 723.589844 41 Z M 723.589844 24 "/>
</clipPath>
<clipPath id="clip5">
  <path d="M 524.222656 114 L 533 114 L 533 130 L 524.222656 130 Z M 524.222656 114 "/>
</clipPath>
<clipPath id="clip6">
  <path d="M 790.0625 114 L 800 114 L 800 131 L 790.0625 131 Z M 790.0625 114 "/>
</clipPath>
<clipPath id="clip7">
  <path d="M 119.242188 415 L 130 415 L 130 432 L 119.242188 432 Z M 119.242188 415 "/>
</clipPath>
<clipPath id="clip8">
  <path d="M 252.089844 413 L 263 413 L 263 430 L 252.089844 430 Z M 252.089844 413 "/>
</clipPath>
<clipPath id="clip9">
  <path d="M 52.71875 503.050781 L 61 503.050781 L 61 520 L 52.71875 520 Z M 52.71875 503.050781 "/>
</clipPath>
<clipPath id="clip10">
  <path d="M 318.558594 504 L 329 504 L 329 521 L 318.558594 521 Z M 318.558594 504 "/>
</clipPath>
<clipPath id="clip11">
  <path d="M 26.503906 609 L 37 609 L 37 625 L 26.503906 625 Z M 26.503906 609 "/>
</clipPath>
<clipPath id="clip12">
  <path d="M 338.242188 609 L 350 609 L 350 625 L 338.242188 625 Z M 338.242188 609 "/>
</clipPath>
<clipPath id="clip13">
  <path d="M 119.738281 704 L 130 704 L 130 721 L 119.738281 721 Z M 119.738281 704 "/>
</clipPath>
<clipPath id="clip14">
  <path d="M 252.089844 706 L 263 706 L 263 723 L 252.089844 723 Z M 252.089844 706 "/>
</clipPath>
</defs>
<g id="surface1">
<path style="fill:none;stroke-width:10;stroke-linecap:round;stroke-linejoin:round;stroke:rgb(0%,0%,0%);stroke-opacity:1;stroke-miterlimit:10;" d="M 860.662607 5781.45525 L 1194.003154 5781.45525 L 1194.003154 6114.798843 L 860.662607 6114.798843 Z M 860.662607 5781.45525 " transform="matrix(0.119857,0,0,-0.119762,0,747.503759)"/>
<path style="fill:none;stroke-width:10;stroke-linecap:round;stroke-linejoin:round;stroke:rgb(0%,0%,0%);stroke-opacity:1;stroke-miterlimit:10;" d="M 2315.230648 5965.15301 C 2315.230648 5863.714794 2233.003605 5781.45525 2131.580474 5781.45525 C 2030.124753 5781.45525 1947.89771 5863.714794 1947.89771 5965.15301 C 1947.89771 6066.591227 2030.124753 6148.818154 2131.580474 6148.818154 C 2233.003605 6148.818154 2315.230648 6066.591227 2315.230648 5965.15301 Z M 2315.230648 5965.15301 " transform="matrix(0.119857,0,0,-0.119762,0,747.503759)"/>
<path style="fill:none;stroke-width:10;stroke-linecap:round;stroke-linejoin:round;stroke:rgb(0%,0%,0%);stroke-opacity:1;stroke-miterlimit:10;" d="M 293.025504 5045.71832 L 626.333459 5045.71832 L 626.333459 5379.029296 L 293.025504 5379.029296 Z M 293.025504 5045.71832 " transform="matrix(0.119857,0,0,-0.119762,0,747.503759)"/>
<path style="fill:none;stroke-width:10;stroke-linecap:round;stroke-linejoin:round;stroke:rgb(0%,0%,0%);stroke-opacity:1;stroke-miterlimit:10;" d="M 2868.16922 5229.383464 C 2868.16922 5127.945247 2785.942177 5045.71832 2684.519046 5045.71832 C 2583.095915 5045.71832 2500.836281 5127.945247 2500.836281 5229.383464 C 2500.836281 5330.82168 2583.095915 5413.048608 2684.519046 5413.048608 C 2785.942177 5413.048608 2868.16922 5330.82168 2868.16922 5229.383464 Z M 2868.16922 5229.383464 " transform="matrix(0.119857,0,0,-0.119762,0,747.503759)"/>
<path style="fill:none;stroke-width:10;stroke-linecap:round;stroke-linejoin:round;stroke:rgb(0%,0%,0%);stroke-opacity:1;stroke-miterlimit:10;" d="M 81.249314 4182.514975 L 414.58986 4182.514975 L 414.58986 4515.858567 L 81.249314 4515.858567 Z M 81.249314 4182.514975 " transform="matrix(0.119857,0,0,-0.119762,0,747.503759)"/>
<path style="fill:none;stroke-width:10;stroke-linecap:round;stroke-linejoin:round;stroke:rgb(0%,0%,0%);stroke-opacity:1;stroke-miterlimit:10;" d="M 3051.526075 4332.193423 C 3051.526075 4230.755207 2969.299032 4148.528279 2867.84331 4148.528279 C 2766.420179 4148.528279 2684.193136 4230.755207 2684.193136 4332.193423 C 2684.193136 4433.63164 2766.420179 4515.858567 2867.84331 4515.858567 C 2969.299032 4515.858567 3051.526075 4433.63164 3051.526075 4332.193423 Z M 3051.526075 4332.193423 " transform="matrix(0.119857,0,0,-0.119762,0,747.503759)"/>
<path style="fill:none;stroke-width:10;stroke-linecap:round;stroke-linejoin:round;stroke:rgb(0%,0%,0%);stroke-opacity:1;stroke-miterlimit:10;" d="M 860.662607 3368.7913 L 1194.003154 3368.7913 L 1194.003154 3702.134893 L 860.662607 3702.134893 Z M 860.662607 3368.7913 " transform="matrix(0.119857,0,0,-0.119762,0,747.503759)"/>
<path style="fill:none;stroke-width:10;stroke-linecap:round;stroke-linejoin:round;stroke:rgb(0%,0%,0%);stroke-opacity:1;stroke-miterlimit:10;" d="M 2315.230648 3518.469749 C 2315.230648 3417.031532 2233.003605 3334.804605 2131.580474 3334.804605 C 2030.124753 3334.804605 1947.89771 3417.031532 1947.89771 3518.469749 C 1947.89771 3619.907965 2030.124753 3702.134893 2131.580474 3702.134893 C 2233.003605 3702.134893 2315.230648 3619.907965 2315.230648 3518.469749 Z M 2315.230648 3518.469749 " transform="matrix(0.119857,0,0,-0.119762,0,747.503759)"/>
<g clip-path="url(#clip1)" clip-rule="nonzero">
<path style=" stroke:none;fill-rule:evenodd;fill:rgb(0%,0%,0%);fill-opacity:1;" d="M 127.816406 34.199219 C 127.816406 35.234375 127.746094 36.261719 127.601562 37.28125 C 127.457031 38.300781 127.101562 39.261719 126.53125 40.15625 C 126.125 40.808594 125.582031 41.3125 124.902344 41.660156 C 124.222656 42.011719 123.484375 42.1875 122.6875 42.1875 C 121.917969 42.1875 121.191406 42.011719 120.507812 41.660156 C 119.824219 41.3125 119.28125 40.808594 118.875 40.15625 C 118.304688 39.261719 117.949219 38.300781 117.804688 37.28125 C 117.660156 36.261719 117.585938 35.234375 117.585938 34.199219 C 117.585938 33.15625 117.660156 32.109375 117.804688 31.066406 C 117.949219 30.023438 118.304688 29.046875 118.875 28.136719 C 119.28125 27.476562 119.824219 26.964844 120.503906 26.601562 C 121.183594 26.234375 121.910156 26.050781 122.6875 26.050781 C 123.476562 26.050781 124.214844 26.234375 124.898438 26.601562 C 125.578125 26.964844 126.125 27.476562 126.53125 28.136719 C 127.101562 29.046875 127.457031 30.023438 127.601562 31.066406 C 127.746094 32.109375 127.816406 33.15625 127.816406 34.199219 Z M 125.621094 33.824219 C 125.621094 33.375 125.617188 32.898438 125.613281 32.394531 C 125.605469 31.894531 125.585938 31.402344 125.554688 30.921875 C 125.527344 30.441406 125.472656 29.988281 125.394531 29.5625 C 125.316406 29.136719 125.222656 28.773438 125.113281 28.46875 C 124.890625 27.984375 124.566406 27.585938 124.136719 27.273438 C 123.710938 26.960938 123.226562 26.804688 122.6875 26.804688 C 122.160156 26.804688 121.6875 26.960938 121.261719 27.277344 C 120.835938 27.59375 120.511719 27.992188 120.292969 28.46875 C 120.179688 28.773438 120.085938 29.136719 120.007812 29.5625 C 119.933594 29.988281 119.878906 30.441406 119.847656 30.921875 C 119.820312 31.402344 119.800781 31.894531 119.792969 32.394531 C 119.785156 32.898438 119.78125 33.375 119.78125 33.824219 C 119.78125 34.328125 119.785156 34.855469 119.792969 35.410156 C 119.800781 35.964844 119.820312 36.503906 119.847656 37.023438 C 119.878906 37.542969 119.933594 38.035156 120.007812 38.5 C 120.085938 38.96875 120.179688 39.359375 120.292969 39.671875 C 120.5 40.195312 120.820312 40.625 121.25 40.964844 C 121.683594 41.300781 122.160156 41.46875 122.6875 41.46875 C 123.234375 41.46875 123.722656 41.300781 124.15625 40.964844 C 124.585938 40.625 124.90625 40.195312 125.113281 39.671875 C 125.222656 39.359375 125.316406 38.96875 125.394531 38.5 C 125.472656 38.035156 125.527344 37.542969 125.554688 37.023438 C 125.585938 36.503906 125.605469 35.964844 125.613281 35.410156 C 125.617188 34.855469 125.621094 34.328125 125.621094 33.824219 Z M 125.621094 33.824219 "/>
</g>
<g clip-path="url(#clip2)" clip-rule="nonzero">
<path style=" stroke:none;fill-rule:evenodd;fill:rgb(0%,0%,0%);fill-opacity:1;" d="M 260.53125 34.972656 C 260.53125 35.714844 260.417969 36.386719 260.199219 36.976562 C 259.976562 37.566406 259.597656 38.148438 259.066406 38.722656 C 258.542969 39.261719 258.003906 39.652344 257.453125 39.898438 C 256.902344 40.148438 256.242188 40.269531 255.464844 40.269531 C 254.675781 40.269531 253.949219 40.074219 253.292969 39.683594 C 252.636719 39.296875 252.109375 38.765625 251.71875 38.097656 C 251.164062 37.1875 250.8125 36.230469 250.660156 35.21875 C 250.507812 34.207031 250.433594 33.199219 250.433594 32.195312 C 250.433594 31.195312 250.578125 30.207031 250.871094 29.234375 C 251.164062 28.265625 251.628906 27.367188 252.273438 26.542969 C 252.8125 25.839844 253.46875 25.261719 254.246094 24.8125 C 255.023438 24.359375 255.875 24.132812 256.804688 24.132812 C 257.699219 24.132812 258.441406 24.363281 259.035156 24.824219 C 259.625 25.28125 259.921875 25.941406 259.921875 26.800781 C 259.921875 27.203125 259.796875 27.5 259.554688 27.691406 C 259.3125 27.886719 259.03125 27.984375 258.710938 27.984375 C 258.410156 27.984375 258.136719 27.886719 257.898438 27.691406 C 257.65625 27.5 257.539062 27.203125 257.539062 26.800781 C 257.539062 26.371094 257.695312 26.046875 258.015625 25.832031 C 258.222656 25.703125 258.453125 25.640625 258.710938 25.640625 C 258.792969 25.640625 258.804688 25.636719 258.746094 25.628906 C 258.640625 25.472656 258.414062 25.316406 258.0625 25.160156 C 257.714844 25.007812 257.292969 24.929688 256.804688 24.929688 C 256.148438 24.929688 255.558594 25.125 255.03125 25.515625 C 254.507812 25.90625 254.066406 26.394531 253.703125 26.984375 C 253.273438 27.730469 253.015625 28.542969 252.925781 29.417969 C 252.839844 30.296875 252.785156 30.996094 252.773438 31.519531 C 252.90625 31.210938 253.226562 30.835938 253.730469 30.386719 C 254.238281 29.9375 254.878906 29.714844 255.652344 29.714844 C 256.390625 29.714844 257.03125 29.835938 257.566406 30.085938 C 258.101562 30.332031 258.617188 30.71875 259.109375 31.238281 C 259.628906 31.8125 259.996094 32.390625 260.207031 32.972656 C 260.421875 33.550781 260.53125 34.21875 260.53125 34.972656 Z M 258.167969 34.972656 C 258.167969 34.285156 258.148438 33.664062 258.101562 33.117188 C 258.058594 32.570312 257.910156 32.085938 257.660156 31.671875 C 257.402344 31.25 257.113281 30.9375 256.796875 30.734375 C 256.476562 30.535156 256.089844 30.433594 255.632812 30.433594 C 255.136719 30.433594 254.714844 30.558594 254.363281 30.8125 C 254.011719 31.0625 253.714844 31.390625 253.46875 31.800781 C 253.226562 32.207031 253.054688 32.683594 252.949219 33.230469 C 252.875 33.601562 252.839844 34 252.839844 34.421875 C 252.839844 34.585938 252.847656 34.765625 252.859375 34.949219 L 252.859375 35.035156 C 252.890625 35.574219 252.929688 36.074219 252.984375 36.539062 C 253.035156 37.007812 253.117188 37.386719 253.226562 37.679688 C 253.433594 38.195312 253.738281 38.617188 254.140625 38.9375 C 254.542969 39.261719 254.984375 39.421875 255.464844 39.421875 C 255.960938 39.421875 256.378906 39.328125 256.71875 39.136719 C 257.058594 38.949219 257.355469 38.640625 257.613281 38.21875 C 257.882812 37.796875 258.039062 37.316406 258.089844 36.78125 C 258.144531 36.25 258.167969 35.644531 258.167969 34.972656 Z M 258.167969 34.972656 "/>
</g>
<path style="fill:none;stroke-width:10;stroke-linecap:round;stroke-linejoin:round;stroke:rgb(0%,0%,0%);stroke-opacity:1;stroke-miterlimit:10;" d="M 2053.427304 5798.937849 L 626.36605 5212.390116 " transform="matrix(0.119857,0,0,-0.119762,0,747.503759)"/>
<path style="fill:none;stroke-width:10;stroke-linecap:round;stroke-linejoin:round;stroke:rgb(0%,0%,0%);stroke-opacity:1;stroke-miterlimit:10;" d="M 2209.733645 5798.937849 L 2578.044313 5379.029296 " transform="matrix(0.119857,0,0,-0.119762,0,747.503759)"/>
<path style="fill:none;stroke-width:10;stroke-linecap:round;stroke-linejoin:round;stroke:rgb(0%,0%,0%);stroke-opacity:1;stroke-miterlimit:10;" d="M 2053.427304 5798.937849 L 414.58986 4402.058587 " transform="matrix(0.119857,0,0,-0.119762,0,747.503759)"/>
<path style="fill:none;stroke-width:10;stroke-linecap:round;stroke-linejoin:round;stroke:rgb(0%,0%,0%);stroke-opacity:1;stroke-miterlimit:10;" d="M 2093.351255 5783.347024 L 970.820121 3702.134893 " transform="matrix(0.119857,0,0,-0.119762,0,747.503759)"/>
<path style="fill:none;stroke-width:10;stroke-linecap:round;stroke-linejoin:round;stroke:rgb(0%,0%,0%);stroke-opacity:1;stroke-miterlimit:10;" d="M 2131.580474 5781.45525 L 2073.764075 3702.134893 " transform="matrix(0.119857,0,0,-0.119762,0,747.503759)"/>
<path style="fill:none;stroke-width:10;stroke-linecap:round;stroke-linejoin:round;stroke:rgb(0%,0%,0%);stroke-opacity:1;stroke-miterlimit:10;" d="M 2167.854236 5781.45525 L 2748.984005 4472.217303 " transform="matrix(0.119857,0,0,-0.119762,0,747.503759)"/>
<path style=" stroke:none;fill-rule:evenodd;fill:rgb(0%,0%,0%);fill-opacity:1;" d="M 59.140625 129.917969 C 57.78125 129.875 56.457031 129.851562 55.171875 129.851562 C 53.886719 129.851562 52.5625 129.875 51.203125 129.917969 L 51.203125 128.992188 L 51.96875 128.992188 C 52.214844 128.992188 52.441406 128.988281 52.65625 128.984375 C 52.871094 128.976562 53.074219 128.957031 53.265625 128.929688 C 53.457031 128.902344 53.625 128.871094 53.765625 128.84375 C 53.882812 128.820312 53.980469 128.753906 54.058594 128.644531 C 54.136719 128.53125 54.175781 128.410156 54.175781 128.273438 L 54.175781 116.15625 C 53.804688 116.335938 53.351562 116.472656 52.8125 116.566406 C 52.273438 116.660156 51.679688 116.707031 51.039062 116.703125 L 51.039062 115.789062 C 51.925781 115.792969 52.742188 115.6875 53.492188 115.472656 C 54.242188 115.261719 54.890625 114.867188 55.4375 114.285156 L 55.78125 114.285156 C 56.023438 114.285156 56.148438 114.40625 56.148438 114.640625 L 56.148438 128.273438 C 56.148438 128.417969 56.183594 128.542969 56.257812 128.648438 C 56.332031 128.757812 56.4375 128.820312 56.578125 128.84375 C 56.699219 128.871094 56.847656 128.902344 57.035156 128.929688 C 57.21875 128.957031 57.425781 128.976562 57.660156 128.984375 C 57.890625 128.988281 58.121094 128.992188 58.339844 128.992188 L 59.140625 128.992188 Z M 59.140625 129.917969 "/>
<path style="fill:none;stroke-width:10;stroke-linecap:round;stroke-linejoin:round;stroke:rgb(0%,0%,0%);stroke-opacity:1;stroke-miterlimit:10;" d="M 4809.190233 5782.46637 L 5142.530779 5782.46637 L 5142.530779 6115.809963 L 4809.190233 6115.809963 Z M 4809.190233 5782.46637 " transform="matrix(0.119857,0,0,-0.119762,0,747.503759)"/>
<path style="fill:none;stroke-width:10;stroke-linecap:round;stroke-linejoin:round;stroke:rgb(0%,0%,0%);stroke-opacity:1;stroke-miterlimit:10;" d="M 6263.790865 5966.131514 C 6263.790865 5864.693298 6181.563821 5782.46637 6080.1081 5782.46637 C 5978.684969 5782.46637 5896.425335 5864.693298 5896.425335 5966.131514 C 5896.425335 6067.569731 5978.684969 6149.796658 6080.1081 6149.796658 C 6181.563821 6149.796658 6263.790865 6067.569731 6263.790865 5966.131514 Z M 6263.790865 5966.131514 " transform="matrix(0.119857,0,0,-0.119762,0,747.503759)"/>
<path style="fill:none;stroke-width:10;stroke-linecap:round;stroke-linejoin:round;stroke:rgb(0%,0%,0%);stroke-opacity:1;stroke-miterlimit:10;" d="M 4241.553129 5046.696823 L 4574.893675 5046.696823 L 4574.893675 5380.040416 L 4241.553129 5380.040416 Z M 4241.553129 5046.696823 " transform="matrix(0.119857,0,0,-0.119762,0,747.503759)"/>
<path style="fill:none;stroke-width:10;stroke-linecap:round;stroke-linejoin:round;stroke:rgb(0%,0%,0%);stroke-opacity:1;stroke-miterlimit:10;" d="M 6816.729436 5230.361967 C 6816.729436 5128.923751 6734.502393 5046.696823 6633.046671 5046.696823 C 6531.623541 5046.696823 6449.363906 5128.923751 6449.363906 5230.361967 C 6449.363906 5331.800184 6531.623541 5414.027111 6633.046671 5414.027111 C 6734.502393 5414.027111 6816.729436 5331.800184 6816.729436 5230.361967 Z M 6816.729436 5230.361967 " transform="matrix(0.119857,0,0,-0.119762,0,747.503759)"/>
<path style="fill:none;stroke-width:10;stroke-linecap:round;stroke-linejoin:round;stroke:rgb(0%,0%,0%);stroke-opacity:1;stroke-miterlimit:10;" d="M 4029.776939 4183.526095 L 4363.117486 4183.526095 L 4363.117486 4516.837071 L 4029.776939 4516.837071 Z M 4029.776939 4183.526095 " transform="matrix(0.119857,0,0,-0.119762,0,747.503759)"/>
<path style="fill:none;stroke-width:10;stroke-linecap:round;stroke-linejoin:round;stroke:rgb(0%,0%,0%);stroke-opacity:1;stroke-miterlimit:10;" d="M 7000.0537 4333.171927 C 7000.0537 4231.733711 6917.826657 4149.506783 6816.403526 4149.506783 C 6714.947805 4149.506783 6632.720761 4231.733711 6632.720761 4333.171927 C 6632.720761 4434.610144 6714.947805 4516.837071 6816.403526 4516.837071 C 6917.826657 4516.837071 7000.0537 4434.610144 7000.0537 4333.171927 Z M 7000.0537 4333.171927 " transform="matrix(0.119857,0,0,-0.119762,0,747.503759)"/>
<path style="fill:none;stroke-width:10;stroke-linecap:round;stroke-linejoin:round;stroke:rgb(0%,0%,0%);stroke-opacity:1;stroke-miterlimit:10;" d="M 4809.190233 3369.769804 L 5142.530779 3369.769804 L 5142.530779 3703.113396 L 4809.190233 3703.113396 Z M 4809.190233 3369.769804 " transform="matrix(0.119857,0,0,-0.119762,0,747.503759)"/>
<path style="fill:none;stroke-width:10;stroke-linecap:round;stroke-linejoin:round;stroke:rgb(0%,0%,0%);stroke-opacity:1;stroke-miterlimit:10;" d="M 6263.790865 3519.448252 C 6263.790865 3418.010036 6181.563821 3335.783108 6080.1081 3335.783108 C 5978.684969 3335.783108 5896.425335 3418.010036 5896.425335 3519.448252 C 5896.425335 3620.886469 5978.684969 3703.113396 6080.1081 3703.113396 C 6181.563821 3703.113396 6263.790865 3620.886469 6263.790865 3519.448252 Z M 6263.790865 3519.448252 " transform="matrix(0.119857,0,0,-0.119762,0,747.503759)"/>
<g clip-path="url(#clip3)" clip-rule="nonzero">
<path style=" stroke:none;fill-rule:evenodd;fill:rgb(0%,0%,0%);fill-opacity:1;" d="M 601.074219 34.082031 C 601.074219 35.117188 601.003906 36.140625 600.859375 37.164062 C 600.714844 38.183594 600.359375 39.144531 599.789062 40.039062 C 599.382812 40.691406 598.839844 41.191406 598.160156 41.542969 C 597.480469 41.894531 596.742188 42.070312 595.945312 42.070312 C 595.175781 42.070312 594.449219 41.894531 593.765625 41.542969 C 593.085938 41.191406 592.539062 40.691406 592.132812 40.039062 C 591.5625 39.144531 591.207031 38.183594 591.0625 37.164062 C 590.917969 36.140625 590.847656 35.117188 590.847656 34.082031 C 590.847656 33.039062 590.917969 31.992188 591.0625 30.949219 C 591.207031 29.90625 591.5625 28.929688 592.132812 28.019531 C 592.539062 27.359375 593.082031 26.847656 593.761719 26.484375 C 594.441406 26.117188 595.167969 25.933594 595.945312 25.933594 C 596.734375 25.933594 597.472656 26.117188 598.15625 26.484375 C 598.839844 26.847656 599.382812 27.359375 599.789062 28.019531 C 600.359375 28.929688 600.714844 29.90625 600.859375 30.949219 C 601.003906 31.992188 601.074219 33.039062 601.074219 34.082031 Z M 598.882812 33.707031 C 598.882812 33.253906 598.878906 32.78125 598.871094 32.277344 C 598.863281 31.777344 598.84375 31.285156 598.816406 30.804688 C 598.785156 30.324219 598.730469 29.871094 598.65625 29.445312 C 598.578125 29.019531 598.484375 28.65625 598.371094 28.351562 C 598.152344 27.867188 597.824219 27.464844 597.398438 27.15625 C 596.96875 26.84375 596.484375 26.6875 595.945312 26.6875 C 595.421875 26.6875 594.945312 26.84375 594.519531 27.160156 C 594.097656 27.476562 593.773438 27.875 593.550781 28.351562 C 593.441406 28.65625 593.347656 29.019531 593.269531 29.445312 C 593.191406 29.871094 593.136719 30.324219 593.109375 30.804688 C 593.078125 31.285156 593.058594 31.777344 593.050781 32.277344 C 593.046875 32.78125 593.042969 33.253906 593.042969 33.707031 C 593.042969 34.210938 593.046875 34.738281 593.050781 35.292969 C 593.058594 35.847656 593.078125 36.386719 593.109375 36.90625 C 593.136719 37.425781 593.191406 37.917969 593.269531 38.382812 C 593.347656 38.851562 593.441406 39.242188 593.550781 39.554688 C 593.757812 40.078125 594.078125 40.507812 594.511719 40.847656 C 594.941406 41.183594 595.421875 41.351562 595.945312 41.351562 C 596.492188 41.351562 596.980469 41.183594 597.414062 40.847656 C 597.847656 40.507812 598.164062 40.078125 598.371094 39.554688 C 598.484375 39.242188 598.578125 38.851562 598.65625 38.382812 C 598.730469 37.917969 598.785156 37.425781 598.816406 36.90625 C 598.84375 36.386719 598.863281 35.847656 598.871094 35.292969 C 598.878906 34.738281 598.882812 34.210938 598.882812 33.707031 Z M 598.882812 33.707031 "/>
</g>
<g clip-path="url(#clip4)" clip-rule="nonzero">
<path style=" stroke:none;fill-rule:evenodd;fill:rgb(0%,0%,0%);fill-opacity:1;" d="M 733.789062 34.851562 C 733.789062 35.597656 733.675781 36.265625 733.457031 36.859375 C 733.234375 37.449219 732.859375 38.03125 732.324219 38.605469 C 731.800781 39.140625 731.261719 39.535156 730.710938 39.78125 C 730.164062 40.027344 729.5 40.152344 728.722656 40.152344 C 727.933594 40.152344 727.207031 39.957031 726.550781 39.566406 C 725.894531 39.175781 725.367188 38.648438 724.976562 37.980469 C 724.421875 37.070312 724.070312 36.109375 723.917969 35.101562 C 723.769531 34.089844 723.691406 33.082031 723.691406 32.078125 C 723.691406 31.074219 723.835938 30.089844 724.128906 29.117188 C 724.421875 28.144531 724.890625 27.25 725.53125 26.421875 C 726.070312 25.722656 726.730469 25.144531 727.503906 24.691406 C 728.28125 24.242188 729.132812 24.015625 730.0625 24.015625 C 730.957031 24.015625 731.699219 24.246094 732.292969 24.703125 C 732.882812 25.164062 733.179688 25.820312 733.179688 26.679688 C 733.179688 27.082031 733.054688 27.382812 732.8125 27.574219 C 732.570312 27.769531 732.289062 27.863281 731.96875 27.863281 C 731.667969 27.863281 731.394531 27.769531 731.15625 27.574219 C 730.917969 27.378906 730.796875 27.082031 730.796875 26.679688 C 730.796875 26.253906 730.953125 25.929688 731.273438 25.714844 C 731.480469 25.585938 731.710938 25.519531 731.96875 25.519531 C 732.050781 25.519531 732.0625 25.519531 732.003906 25.507812 C 731.898438 25.351562 731.671875 25.195312 731.320312 25.042969 C 730.972656 24.890625 730.550781 24.8125 730.0625 24.8125 C 729.40625 24.8125 728.816406 25.007812 728.289062 25.398438 C 727.765625 25.789062 727.324219 26.277344 726.960938 26.863281 C 726.53125 27.609375 726.273438 28.421875 726.183594 29.300781 C 726.097656 30.179688 726.042969 30.878906 726.03125 31.402344 C 726.164062 31.09375 726.484375 30.714844 726.988281 30.265625 C 727.496094 29.820312 728.136719 29.59375 728.910156 29.59375 C 729.652344 29.59375 730.289062 29.71875 730.824219 29.964844 C 731.359375 30.214844 731.875 30.597656 732.371094 31.121094 C 732.886719 31.695312 733.253906 32.273438 733.46875 32.851562 C 733.679688 33.433594 733.789062 34.101562 733.789062 34.851562 Z M 731.425781 34.851562 C 731.425781 34.164062 731.40625 33.546875 731.359375 33 C 731.316406 32.449219 731.167969 31.96875 730.917969 31.550781 C 730.660156 31.128906 730.371094 30.816406 730.054688 30.617188 C 729.734375 30.417969 729.347656 30.316406 728.890625 30.316406 C 728.394531 30.316406 727.972656 30.441406 727.621094 30.691406 C 727.269531 30.945312 726.972656 31.273438 726.730469 31.679688 C 726.484375 32.089844 726.3125 32.566406 726.207031 33.109375 C 726.132812 33.484375 726.097656 33.882812 726.097656 34.304688 C 726.097656 34.46875 726.105469 34.644531 726.117188 34.832031 L 726.117188 34.917969 C 726.148438 35.453125 726.1875 35.957031 726.242188 36.421875 C 726.292969 36.886719 726.375 37.269531 726.484375 37.5625 C 726.691406 38.078125 726.996094 38.496094 727.398438 38.820312 C 727.800781 39.140625 728.242188 39.304688 728.722656 39.304688 C 729.21875 39.304688 729.636719 39.207031 729.976562 39.019531 C 730.316406 38.828125 730.613281 38.523438 730.875 38.097656 C 731.140625 37.675781 731.296875 37.199219 731.351562 36.664062 C 731.402344 36.128906 731.425781 35.527344 731.425781 34.851562 Z M 731.425781 34.851562 "/>
</g>
<path style="fill:none;stroke-width:10;stroke-linecap:round;stroke-linejoin:round;stroke:rgb(0%,0%,0%);stroke-opacity:1;stroke-miterlimit:10;" d="M 6001.954929 5799.916353 L 4574.893675 5213.36862 " transform="matrix(0.119857,0,0,-0.119762,0,747.503759)"/>
<path style="fill:none;stroke-width:10;stroke-linecap:round;stroke-linejoin:round;stroke:rgb(0%,0%,0%);stroke-opacity:1;stroke-miterlimit:10;" d="M 6158.261271 5799.916353 L 6526.60453 5380.040416 " transform="matrix(0.119857,0,0,-0.119762,0,747.503759)"/>
<path style="fill:none;stroke-width:10;stroke-linecap:round;stroke-linejoin:round;stroke:rgb(0%,0%,0%);stroke-opacity:1;stroke-miterlimit:10;" d="M 6001.954929 5799.916353 L 4363.117486 4403.037091 " transform="matrix(0.119857,0,0,-0.119762,0,747.503759)"/>
<path style="fill:none;stroke-width:10;stroke-linecap:round;stroke-linejoin:round;stroke:rgb(0%,0%,0%);stroke-opacity:1;stroke-miterlimit:10;" d="M 6041.87888 5784.325527 L 4919.347746 3703.113396 " transform="matrix(0.119857,0,0,-0.119762,0,747.503759)"/>
<path style="fill:none;stroke-width:10;stroke-linecap:round;stroke-linejoin:round;stroke:rgb(0%,0%,0%);stroke-opacity:1;stroke-miterlimit:10;" d="M 6080.1081 5782.46637 L 6022.291701 3703.113396 " transform="matrix(0.119857,0,0,-0.119762,0,747.503759)"/>
<path style="fill:none;stroke-width:10;stroke-linecap:round;stroke-linejoin:round;stroke:rgb(0%,0%,0%);stroke-opacity:1;stroke-miterlimit:10;" d="M 6116.414452 5782.46637 L 6697.544221 4473.195806 " transform="matrix(0.119857,0,0,-0.119762,0,747.503759)"/>
<g clip-path="url(#clip5)" clip-rule="nonzero">
<path style=" stroke:none;fill-rule:evenodd;fill:rgb(0%,0%,0%);fill-opacity:1;" d="M 532.398438 129.800781 C 531.039062 129.757812 529.714844 129.734375 528.429688 129.734375 C 527.144531 129.734375 525.824219 129.757812 524.464844 129.800781 L 524.464844 128.875 L 525.230469 128.875 C 525.472656 128.875 525.703125 128.871094 525.914062 128.863281 C 526.128906 128.859375 526.332031 128.839844 526.523438 128.8125 C 526.71875 128.785156 526.882812 128.753906 527.023438 128.726562 C 527.140625 128.703125 527.238281 128.636719 527.316406 128.527344 C 527.394531 128.414062 527.433594 128.292969 527.433594 128.15625 L 527.433594 116.039062 C 527.066406 116.21875 526.609375 116.355469 526.070312 116.449219 C 525.53125 116.542969 524.941406 116.585938 524.296875 116.585938 L 524.296875 115.671875 C 525.183594 115.675781 526.003906 115.570312 526.753906 115.355469 C 527.503906 115.144531 528.152344 114.75 528.695312 114.167969 L 529.039062 114.167969 C 529.285156 114.167969 529.40625 114.289062 529.40625 114.523438 L 529.40625 128.15625 C 529.40625 128.296875 529.441406 128.425781 529.515625 128.53125 C 529.589844 128.640625 529.699219 128.703125 529.839844 128.726562 C 529.957031 128.753906 530.109375 128.785156 530.292969 128.8125 C 530.476562 128.839844 530.6875 128.859375 530.917969 128.863281 C 531.152344 128.871094 531.378906 128.875 531.601562 128.875 L 532.398438 128.875 Z M 532.398438 129.800781 "/>
</g>
<g clip-path="url(#clip6)" clip-rule="nonzero">
<path style=" stroke:none;fill-rule:evenodd;fill:rgb(0%,0%,0%);fill-opacity:1;" d="M 799.871094 125.164062 C 799.871094 125.867188 799.738281 126.539062 799.472656 127.175781 C 799.207031 127.816406 798.820312 128.386719 798.320312 128.894531 C 797.808594 129.390625 797.234375 129.769531 796.597656 130.03125 C 795.957031 130.292969 795.277344 130.421875 794.5625 130.421875 C 793.941406 130.421875 793.363281 130.304688 792.828125 130.074219 C 792.292969 129.839844 791.828125 129.523438 791.433594 129.117188 C 791.035156 128.710938 790.726562 128.242188 790.5 127.707031 C 790.277344 127.175781 790.164062 126.605469 790.164062 126.003906 C 790.164062 125.589844 790.300781 125.277344 790.578125 125.0625 C 790.855469 124.851562 791.140625 124.746094 791.4375 124.746094 C 791.746094 124.746094 792.039062 124.851562 792.3125 125.058594 C 792.585938 125.265625 792.722656 125.582031 792.722656 126.003906 C 792.722656 126.261719 792.664062 126.480469 792.550781 126.65625 C 792.4375 126.832031 792.296875 126.96875 792.128906 127.0625 C 791.964844 127.160156 791.777344 127.214844 791.570312 127.230469 L 791.214844 127.230469 C 791.386719 127.832031 791.78125 128.375 792.402344 128.855469 C 793.023438 129.335938 793.742188 129.574219 794.5625 129.574219 C 794.992188 129.574219 795.410156 129.464844 795.816406 129.242188 C 796.222656 129.019531 796.554688 128.726562 796.8125 128.359375 C 797.113281 127.921875 797.308594 127.425781 797.394531 126.871094 C 797.480469 126.316406 797.519531 125.746094 797.519531 125.164062 C 797.519531 124.578125 797.503906 124.015625 797.464844 123.472656 C 797.429688 122.933594 797.277344 122.421875 797.011719 121.941406 C 796.820312 121.589844 796.574219 121.296875 796.273438 121.066406 C 795.976562 120.832031 795.640625 120.714844 795.273438 120.714844 C 794.570312 120.714844 793.960938 120.855469 793.441406 121.140625 C 792.925781 121.421875 792.507812 121.832031 792.191406 122.359375 C 792.125 122.480469 792.015625 122.542969 791.871094 122.542969 L 791.78125 122.542969 C 791.523438 122.542969 791.394531 122.425781 791.394531 122.1875 L 791.394531 114.640625 C 791.394531 114.457031 791.5 114.335938 791.714844 114.285156 C 791.75 114.285156 791.777344 114.289062 791.796875 114.296875 C 791.816406 114.304688 791.832031 114.308594 791.847656 114.308594 C 792.917969 114.796875 794.023438 115.039062 795.160156 115.039062 C 796.3125 115.039062 797.417969 114.796875 798.472656 114.308594 C 798.488281 114.308594 798.503906 114.304688 798.519531 114.296875 C 798.535156 114.289062 798.554688 114.285156 798.585938 114.285156 C 798.828125 114.285156 798.945312 114.398438 798.941406 114.617188 C 798.941406 114.75 798.917969 114.835938 798.875 114.878906 C 798.347656 115.59375 797.683594 116.15625 796.875 116.558594 C 796.066406 116.964844 795.207031 117.167969 794.296875 117.167969 C 793.542969 117.167969 792.894531 117.082031 792.34375 116.910156 L 792.34375 121.015625 C 792.605469 120.746094 792.996094 120.503906 793.515625 120.289062 C 794.035156 120.078125 794.621094 119.972656 795.273438 119.972656 C 795.90625 119.972656 796.507812 120.117188 797.074219 120.402344 C 797.636719 120.691406 798.136719 121.0625 798.5625 121.519531 C 799.007812 122.039062 799.335938 122.609375 799.550781 123.238281 C 799.765625 123.863281 799.871094 124.507812 799.871094 125.164062 Z M 799.871094 125.164062 "/>
</g>
<path style="fill:none;stroke-width:10;stroke-linecap:round;stroke-linejoin:round;stroke:rgb(0%,0%,0%);stroke-opacity:1;stroke-miterlimit:10;" d="M 4363.117486 4403.037091 L 6460.477431 5167.476796 " transform="matrix(0.119857,0,0,-0.119762,0,747.503759)"/>
<path style="fill:none;stroke-width:10;stroke-linecap:round;stroke-linejoin:round;stroke:rgb(0%,0%,0%);stroke-opacity:1;stroke-miterlimit:10;" d="M 4919.347746 3703.113396 L 6460.477431 5167.476796 " transform="matrix(0.119857,0,0,-0.119762,0,747.503759)"/>
<path style="fill:none;stroke-width:10;stroke-linecap:round;stroke-linejoin:round;stroke:rgb(0%,0%,0%);stroke-opacity:1;stroke-miterlimit:10;" d="M 6460.477431 5167.476796 L 6022.291701 3703.113396 " transform="matrix(0.119857,0,0,-0.119762,0,747.503759)"/>
<path style="fill:none;stroke-width:10;stroke-linecap:round;stroke-linejoin:round;stroke:rgb(0%,0%,0%);stroke-opacity:1;stroke-miterlimit:10;" d="M 6460.477431 5167.476796 L 6712.340526 4473.815525 " transform="matrix(0.119857,0,0,-0.119762,0,747.503759)"/>
<path style="fill:none;stroke-width:10;stroke-linecap:round;stroke-linejoin:round;stroke:rgb(0%,0%,0%);stroke-opacity:1;stroke-miterlimit:10;" d="M 875.295957 2527.930456 L 1208.636504 2527.930456 L 1208.636504 2861.274049 L 875.295957 2861.274049 Z M 875.295957 2527.930456 " transform="matrix(0.119857,0,0,-0.119762,0,747.503759)"/>
<path style="fill:none;stroke-width:10;stroke-linecap:round;stroke-linejoin:round;stroke:rgb(0%,0%,0%);stroke-opacity:1;stroke-miterlimit:10;" d="M 2329.89659 2711.5956 C 2329.89659 2610.157383 2247.669546 2527.930456 2146.213825 2527.930456 C 2044.790694 2527.930456 1962.563651 2610.157383 1962.563651 2711.5956 C 1962.563651 2813.033816 2044.790694 2895.293361 2146.213825 2895.293361 C 2247.669546 2895.293361 2329.89659 2813.033816 2329.89659 2711.5956 Z M 2329.89659 2711.5956 " transform="matrix(0.119857,0,0,-0.119762,0,747.503759)"/>
<path style="fill:none;stroke-width:10;stroke-linecap:round;stroke-linejoin:round;stroke:rgb(0%,0%,0%);stroke-opacity:1;stroke-miterlimit:10;" d="M 307.658854 1792.160909 L 640.9994 1792.160909 L 640.9994 2125.504502 L 307.658854 2125.504502 Z M 307.658854 1792.160909 " transform="matrix(0.119857,0,0,-0.119762,0,747.503759)"/>
<path style="fill:none;stroke-width:10;stroke-linecap:round;stroke-linejoin:round;stroke:rgb(0%,0%,0%);stroke-opacity:1;stroke-miterlimit:10;" d="M 2882.835161 1975.826053 C 2882.835161 1874.420453 2800.608118 1792.160909 2699.152396 1792.160909 C 2597.729265 1792.160909 2515.502222 1874.420453 2515.502222 1975.826053 C 2515.502222 2077.26427 2597.729265 2159.523814 2699.152396 2159.523814 C 2800.608118 2159.523814 2882.835161 2077.26427 2882.835161 1975.826053 Z M 2882.835161 1975.826053 " transform="matrix(0.119857,0,0,-0.119762,0,747.503759)"/>
<path style="fill:none;stroke-width:10;stroke-linecap:round;stroke-linejoin:round;stroke:rgb(0%,0%,0%);stroke-opacity:1;stroke-miterlimit:10;" d="M 95.882664 928.990181 L 429.22321 928.990181 L 429.22321 1262.333774 L 95.882664 1262.333774 Z M 95.882664 928.990181 " transform="matrix(0.119857,0,0,-0.119762,0,747.503759)"/>
<path style="fill:none;stroke-width:10;stroke-linecap:round;stroke-linejoin:round;stroke:rgb(0%,0%,0%);stroke-opacity:1;stroke-miterlimit:10;" d="M 3066.159425 1078.636013 C 3066.159425 977.197796 2983.932382 894.970869 2882.47666 894.970869 C 2781.05353 894.970869 2698.826486 977.197796 2698.826486 1078.636013 C 2698.826486 1180.074229 2781.05353 1262.333774 2882.47666 1262.333774 C 2983.932382 1262.333774 3066.159425 1180.074229 3066.159425 1078.636013 Z M 3066.159425 1078.636013 " transform="matrix(0.119857,0,0,-0.119762,0,747.503759)"/>
<path style="fill:none;stroke-width:10;stroke-linecap:round;stroke-linejoin:round;stroke:rgb(0%,0%,0%);stroke-opacity:1;stroke-miterlimit:10;" d="M 875.295957 115.266506 L 1208.636504 115.266506 L 1208.636504 448.577482 L 875.295957 448.577482 Z M 875.295957 115.266506 " transform="matrix(0.119857,0,0,-0.119762,0,747.503759)"/>
<path style="fill:none;stroke-width:10;stroke-linecap:round;stroke-linejoin:round;stroke:rgb(0%,0%,0%);stroke-opacity:1;stroke-miterlimit:10;" d="M 2329.89659 264.944955 C 2329.89659 163.474121 2247.669546 81.247194 2146.213825 81.247194 C 2044.790694 81.247194 1962.563651 163.474121 1962.563651 264.944955 C 1962.563651 366.383172 2044.790694 448.610099 2146.213825 448.610099 C 2247.669546 448.610099 2329.89659 366.383172 2329.89659 264.944955 Z M 2329.89659 264.944955 " transform="matrix(0.119857,0,0,-0.119762,0,747.503759)"/>
<g clip-path="url(#clip7)" clip-rule="nonzero">
<path style=" stroke:none;fill-rule:evenodd;fill:rgb(0%,0%,0%);fill-opacity:1;" d="M 129.574219 423.851562 C 129.574219 424.882812 129.5 425.910156 129.355469 426.929688 C 129.210938 427.953125 128.855469 428.910156 128.289062 429.804688 C 127.882812 430.460938 127.335938 430.960938 126.65625 431.3125 C 125.980469 431.664062 125.238281 431.839844 124.441406 431.839844 C 123.671875 431.839844 122.949219 431.664062 122.265625 431.3125 C 121.582031 430.960938 121.035156 430.460938 120.628906 429.804688 C 120.058594 428.910156 119.703125 427.953125 119.558594 426.929688 C 119.417969 425.910156 119.34375 424.882812 119.34375 423.851562 C 119.34375 422.804688 119.417969 421.761719 119.558594 420.71875 C 119.703125 419.675781 120.058594 418.699219 120.628906 417.785156 C 121.035156 417.128906 121.578125 416.617188 122.257812 416.25 C 122.9375 415.886719 123.667969 415.703125 124.441406 415.703125 C 125.230469 415.703125 125.96875 415.886719 126.652344 416.25 C 127.335938 416.617188 127.882812 417.128906 128.289062 417.785156 C 128.855469 418.699219 129.210938 419.675781 129.355469 420.71875 C 129.5 421.761719 129.574219 422.804688 129.574219 423.851562 Z M 127.378906 423.472656 C 127.378906 423.023438 127.375 422.546875 127.367188 422.046875 C 127.359375 421.542969 127.339844 421.050781 127.3125 420.570312 C 127.28125 420.09375 127.230469 419.640625 127.152344 419.210938 C 127.074219 418.785156 126.980469 418.421875 126.867188 418.121094 C 126.648438 417.632812 126.324219 417.234375 125.894531 416.921875 C 125.464844 416.609375 124.980469 416.453125 124.441406 416.453125 C 123.917969 416.453125 123.441406 416.613281 123.019531 416.925781 C 122.59375 417.242188 122.269531 417.640625 122.046875 418.121094 C 121.9375 418.421875 121.84375 418.785156 121.765625 419.210938 C 121.6875 419.640625 121.632812 420.09375 121.605469 420.570312 C 121.574219 421.050781 121.558594 421.542969 121.550781 422.046875 C 121.542969 422.546875 121.539062 423.023438 121.539062 423.472656 C 121.539062 423.976562 121.542969 424.503906 121.550781 425.0625 C 121.558594 425.617188 121.574219 426.152344 121.605469 426.671875 C 121.632812 427.195312 121.6875 427.6875 121.765625 428.152344 C 121.84375 428.617188 121.9375 429.007812 122.046875 429.324219 C 122.253906 429.847656 122.574219 430.277344 123.007812 430.613281 C 123.4375 430.949219 123.917969 431.117188 124.441406 431.117188 C 124.988281 431.117188 125.480469 430.949219 125.910156 430.613281 C 126.34375 430.277344 126.660156 429.847656 126.867188 429.324219 C 126.980469 429.007812 127.074219 428.617188 127.152344 428.152344 C 127.230469 427.6875 127.28125 427.195312 127.3125 426.671875 C 127.339844 426.152344 127.359375 425.617188 127.367188 425.0625 C 127.375 424.503906 127.378906 423.976562 127.378906 423.472656 Z M 127.378906 423.472656 "/>
</g>
<g clip-path="url(#clip8)" clip-rule="nonzero">
<path style=" stroke:none;fill-rule:evenodd;fill:rgb(0%,0%,0%);fill-opacity:1;" d="M 262.285156 424.621094 C 262.285156 425.367188 262.175781 426.035156 261.953125 426.625 C 261.730469 427.214844 261.355469 427.800781 260.824219 428.371094 C 260.296875 428.910156 259.761719 429.300781 259.210938 429.546875 C 258.660156 429.796875 257.996094 429.917969 257.222656 429.917969 C 256.429688 429.917969 255.707031 429.726562 255.050781 429.332031 C 254.390625 428.945312 253.867188 428.414062 253.476562 427.75 C 252.921875 426.839844 252.570312 425.878906 252.417969 424.867188 C 252.265625 423.855469 252.191406 422.851562 252.191406 421.847656 C 252.191406 420.84375 252.335938 419.855469 252.628906 418.882812 C 252.917969 417.914062 253.386719 417.015625 254.03125 416.191406 C 254.570312 415.488281 255.226562 414.914062 256.003906 414.460938 C 256.777344 414.007812 257.632812 413.785156 258.5625 413.78125 C 259.457031 413.785156 260.199219 414.011719 260.789062 414.472656 C 261.382812 414.929688 261.675781 415.589844 261.675781 416.449219 C 261.675781 416.851562 261.554688 417.148438 261.308594 417.34375 C 261.066406 417.535156 260.785156 417.632812 260.46875 417.632812 C 260.164062 417.632812 259.894531 417.535156 259.652344 417.34375 C 259.414062 417.148438 259.292969 416.851562 259.292969 416.449219 C 259.292969 416.019531 259.453125 415.695312 259.769531 415.480469 C 259.976562 415.351562 260.210938 415.289062 260.46875 415.289062 C 260.550781 415.289062 260.558594 415.285156 260.5 415.277344 C 260.398438 415.121094 260.171875 414.964844 259.820312 414.808594 C 259.46875 414.65625 259.050781 414.578125 258.5625 414.578125 C 257.902344 414.578125 257.3125 414.773438 256.789062 415.164062 C 256.265625 415.554688 255.820312 416.042969 255.460938 416.632812 C 255.03125 417.378906 254.773438 418.191406 254.683594 419.066406 C 254.59375 419.945312 254.542969 420.644531 254.527344 421.167969 C 254.660156 420.859375 254.980469 420.484375 255.488281 420.035156 C 255.992188 419.585938 256.632812 419.363281 257.410156 419.363281 C 258.148438 419.363281 258.785156 419.488281 259.320312 419.734375 C 259.855469 419.980469 260.371094 420.367188 260.867188 420.890625 C 261.386719 421.464844 261.75 422.039062 261.964844 422.621094 C 262.179688 423.203125 262.285156 423.867188 262.285156 424.621094 Z M 259.925781 424.621094 C 259.925781 423.933594 259.902344 423.3125 259.859375 422.765625 C 259.8125 422.21875 259.667969 421.734375 259.414062 421.320312 C 259.15625 420.898438 258.867188 420.585938 258.550781 420.382812 C 258.234375 420.183594 257.84375 420.082031 257.386719 420.082031 C 256.890625 420.082031 256.46875 420.210938 256.117188 420.460938 C 255.765625 420.710938 255.46875 421.039062 255.226562 421.449219 C 254.984375 421.855469 254.808594 422.332031 254.707031 422.878906 C 254.632812 423.25 254.59375 423.648438 254.59375 424.070312 C 254.59375 424.238281 254.601562 424.414062 254.617188 424.597656 L 254.617188 424.683594 C 254.644531 425.222656 254.6875 425.722656 254.738281 426.191406 C 254.789062 426.65625 254.871094 427.035156 254.980469 427.328125 C 255.1875 427.84375 255.492188 428.265625 255.898438 428.585938 C 256.300781 428.910156 256.742188 429.070312 257.222656 429.070312 C 257.714844 429.070312 258.132812 428.976562 258.472656 428.785156 C 258.8125 428.597656 259.113281 428.289062 259.371094 427.867188 C 259.636719 427.445312 259.796875 426.964844 259.847656 426.433594 C 259.898438 425.898438 259.925781 425.292969 259.925781 424.621094 Z M 259.925781 424.621094 "/>
</g>
<path style="fill:none;stroke-width:10;stroke-linecap:round;stroke-linejoin:round;stroke:rgb(0%,0%,0%);stroke-opacity:1;stroke-miterlimit:10;" d="M 2068.060654 2545.380438 L 640.9994 1958.832705 " transform="matrix(0.119857,0,0,-0.119762,0,747.503759)"/>
<path style="fill:none;stroke-width:10;stroke-linecap:round;stroke-linejoin:round;stroke:rgb(0%,0%,0%);stroke-opacity:1;stroke-miterlimit:10;" d="M 2224.366995 2545.380438 L 2592.710255 2125.504502 " transform="matrix(0.119857,0,0,-0.119762,0,747.503759)"/>
<path style="fill:none;stroke-width:10;stroke-linecap:round;stroke-linejoin:round;stroke:rgb(0%,0%,0%);stroke-opacity:1;stroke-miterlimit:10;" d="M 2068.060654 2545.380438 L 429.22321 1148.533794 " transform="matrix(0.119857,0,0,-0.119762,0,747.503759)"/>
<path style="fill:none;stroke-width:10;stroke-linecap:round;stroke-linejoin:round;stroke:rgb(0%,0%,0%);stroke-opacity:1;stroke-miterlimit:10;" d="M 2107.984605 2529.82223 L 985.453471 448.610099 " transform="matrix(0.119857,0,0,-0.119762,0,747.503759)"/>
<path style="fill:none;stroke-width:10;stroke-linecap:round;stroke-linejoin:round;stroke:rgb(0%,0%,0%);stroke-opacity:1;stroke-miterlimit:10;" d="M 2146.213825 2527.930456 L 2088.397426 448.610099 " transform="matrix(0.119857,0,0,-0.119762,0,747.503759)"/>
<path style="fill:none;stroke-width:10;stroke-linecap:round;stroke-linejoin:round;stroke:rgb(0%,0%,0%);stroke-opacity:1;stroke-miterlimit:10;" d="M 2182.520177 2527.930456 L 2763.649946 1218.692509 " transform="matrix(0.119857,0,0,-0.119762,0,747.503759)"/>
<g clip-path="url(#clip9)" clip-rule="nonzero">
<path style=" stroke:none;fill-rule:evenodd;fill:rgb(0%,0%,0%);fill-opacity:1;" d="M 60.894531 519.566406 C 59.535156 519.523438 58.214844 519.503906 56.925781 519.503906 C 55.644531 519.503906 54.320312 519.523438 52.960938 519.566406 L 52.960938 518.644531 L 53.726562 518.644531 C 53.96875 518.644531 54.199219 518.640625 54.410156 518.632812 C 54.625 518.625 54.828125 518.609375 55.023438 518.578125 C 55.214844 518.550781 55.378906 518.523438 55.519531 518.492188 C 55.636719 518.472656 55.738281 518.40625 55.8125 518.292969 C 55.890625 518.183594 55.929688 518.058594 55.929688 517.921875 L 55.929688 505.804688 C 55.5625 505.988281 55.105469 506.121094 54.566406 506.214844 C 54.027344 506.308594 53.4375 506.355469 52.792969 506.355469 L 52.792969 505.441406 C 53.679688 505.441406 54.5 505.335938 55.25 505.125 C 56 504.914062 56.648438 504.515625 57.195312 503.9375 L 57.539062 503.9375 C 57.78125 503.9375 57.902344 504.054688 57.902344 504.289062 L 57.902344 517.921875 C 57.902344 518.066406 57.941406 518.191406 58.011719 518.300781 C 58.085938 518.40625 58.195312 518.472656 58.335938 518.492188 C 58.453125 518.523438 58.605469 518.550781 58.789062 518.578125 C 58.972656 518.609375 59.183594 518.625 59.414062 518.632812 C 59.648438 518.640625 59.875 518.644531 60.097656 518.644531 L 60.894531 518.644531 Z M 60.894531 519.566406 "/>
</g>
<g clip-path="url(#clip10)" clip-rule="nonzero">
<path style=" stroke:none;fill-rule:evenodd;fill:rgb(0%,0%,0%);fill-opacity:1;" d="M 328.367188 514.933594 C 328.367188 515.636719 328.234375 516.304688 327.96875 516.945312 C 327.703125 517.582031 327.320312 518.15625 326.816406 518.664062 C 326.304688 519.160156 325.730469 519.539062 325.09375 519.796875 C 324.453125 520.058594 323.777344 520.191406 323.058594 520.191406 C 322.4375 520.191406 321.859375 520.074219 321.324219 519.839844 C 320.789062 519.609375 320.324219 519.289062 319.929688 518.882812 C 319.53125 518.480469 319.222656 518.011719 318.996094 517.476562 C 318.773438 516.941406 318.660156 516.375 318.660156 515.773438 C 318.660156 515.355469 318.796875 515.042969 319.074219 514.832031 C 319.351562 514.621094 319.636719 514.515625 319.933594 514.515625 C 320.246094 514.515625 320.535156 514.617188 320.808594 514.828125 C 321.082031 515.035156 321.21875 515.351562 321.21875 515.773438 C 321.21875 516.03125 321.164062 516.246094 321.046875 516.421875 C 320.933594 516.597656 320.792969 516.734375 320.625 516.832031 C 320.460938 516.929688 320.273438 516.984375 320.066406 516.996094 L 319.710938 516.996094 C 319.882812 517.601562 320.277344 518.140625 320.898438 518.621094 C 321.519531 519.101562 322.238281 519.339844 323.058594 519.339844 C 323.488281 519.339844 323.90625 519.230469 324.3125 519.007812 C 324.71875 518.785156 325.050781 518.492188 325.308594 518.125 C 325.613281 517.6875 325.804688 517.195312 325.890625 516.636719 C 325.976562 516.082031 326.019531 515.515625 326.019531 514.933594 C 326.019531 514.347656 326 513.78125 325.960938 513.242188 C 325.925781 512.699219 325.773438 512.1875 325.507812 511.707031 C 325.316406 511.355469 325.070312 511.066406 324.773438 510.832031 C 324.472656 510.601562 324.136719 510.484375 323.769531 510.484375 C 323.066406 510.484375 322.457031 510.625 321.941406 510.90625 C 321.421875 511.191406 321.003906 511.597656 320.6875 512.128906 C 320.621094 512.25 320.515625 512.3125 320.367188 512.308594 L 320.277344 512.308594 C 320.019531 512.3125 319.890625 512.191406 319.890625 511.957031 L 319.890625 504.410156 C 319.890625 504.222656 319.996094 504.105469 320.210938 504.054688 C 320.246094 504.054688 320.277344 504.058594 320.292969 504.066406 C 320.3125 504.070312 320.328125 504.074219 320.34375 504.074219 C 321.414062 504.5625 322.519531 504.804688 323.65625 504.804688 C 324.808594 504.804688 325.914062 504.5625 326.972656 504.074219 C 326.984375 504.074219 327 504.070312 327.015625 504.066406 C 327.03125 504.058594 327.050781 504.054688 327.082031 504.054688 C 327.324219 504.054688 327.445312 504.164062 327.4375 504.386719 C 327.4375 504.515625 327.414062 504.601562 327.371094 504.644531 C 326.84375 505.363281 326.179688 505.921875 325.371094 506.328125 C 324.5625 506.734375 323.703125 506.933594 322.792969 506.933594 C 322.039062 506.933594 321.390625 506.847656 320.84375 506.675781 L 320.84375 510.785156 C 321.101562 510.511719 321.492188 510.269531 322.011719 510.058594 C 322.53125 509.847656 323.117188 509.742188 323.769531 509.742188 C 324.402344 509.742188 325.003906 509.886719 325.570312 510.171875 C 326.132812 510.457031 326.632812 510.832031 327.058594 511.289062 C 327.503906 511.804688 327.832031 512.378906 328.046875 513.003906 C 328.261719 513.632812 328.367188 514.273438 328.367188 514.933594 Z M 328.367188 514.933594 "/>
</g>
<path style="fill:none;stroke-width:10;stroke-linecap:round;stroke-linejoin:round;stroke:rgb(0%,0%,0%);stroke-opacity:1;stroke-miterlimit:10;" d="M 429.22321 1148.533794 L 2526.615747 1912.940882 " transform="matrix(0.119857,0,0,-0.119762,0,747.503759)"/>
<path style="fill:none;stroke-width:10;stroke-linecap:round;stroke-linejoin:round;stroke:rgb(0%,0%,0%);stroke-opacity:1;stroke-miterlimit:10;" d="M 985.453471 448.610099 L 2526.615747 1912.940882 " transform="matrix(0.119857,0,0,-0.119762,0,747.503759)"/>
<path style="fill:none;stroke-width:10;stroke-linecap:round;stroke-linejoin:round;stroke:rgb(0%,0%,0%);stroke-opacity:1;stroke-miterlimit:10;" d="M 2526.615747 1912.940882 L 2088.397426 448.610099 " transform="matrix(0.119857,0,0,-0.119762,0,747.503759)"/>
<path style="fill:none;stroke-width:10;stroke-linecap:round;stroke-linejoin:round;stroke:rgb(0%,0%,0%);stroke-opacity:1;stroke-miterlimit:10;" d="M 2526.615747 1912.940882 L 2778.446251 1219.279611 " transform="matrix(0.119857,0,0,-0.119762,0,747.503759)"/>
<g clip-path="url(#clip11)" clip-rule="nonzero">
<path style=" stroke:none;fill-rule:evenodd;fill:rgb(0%,0%,0%);fill-opacity:1;" d="M 35.625 624.980469 L 26.601562 624.980469 L 26.601562 624.390625 C 26.601562 624.347656 26.625 624.28125 26.667969 624.195312 L 30.292969 620.261719 C 30.722656 619.789062 31.15625 619.304688 31.59375 618.808594 C 32.035156 618.316406 32.429688 617.8125 32.777344 617.292969 C 33.125 616.777344 33.398438 616.246094 33.605469 615.699219 C 33.8125 615.148438 33.917969 614.574219 33.917969 613.972656 C 33.917969 613.464844 33.851562 612.988281 33.71875 612.546875 C 33.585938 612.105469 33.394531 611.71875 33.140625 611.386719 C 32.890625 611.054688 32.578125 610.785156 32.199219 610.582031 C 31.824219 610.375 31.386719 610.273438 30.890625 610.273438 C 30.152344 610.273438 29.5 610.496094 28.9375 610.933594 C 28.371094 611.375 27.996094 611.863281 27.8125 612.390625 C 27.773438 612.40625 27.832031 612.414062 27.988281 612.414062 L 28.175781 612.414062 C 28.398438 612.464844 28.589844 612.542969 28.753906 612.644531 C 28.914062 612.75 29.050781 612.890625 29.164062 613.074219 C 29.273438 613.257812 29.328125 613.476562 29.328125 613.734375 C 29.328125 614.167969 29.1875 614.496094 28.90625 614.726562 C 28.625 614.953125 28.3125 615.070312 27.964844 615.070312 C 27.632812 615.070312 27.324219 614.953125 27.035156 614.726562 C 26.746094 614.496094 26.601562 614.167969 26.601562 613.734375 C 26.601562 613.132812 26.722656 612.5625 26.957031 612.027344 C 27.195312 611.488281 27.515625 611.023438 27.921875 610.628906 C 28.328125 610.234375 28.808594 609.921875 29.363281 609.695312 C 29.914062 609.464844 30.503906 609.351562 31.125 609.347656 C 31.894531 609.351562 32.597656 609.460938 33.234375 609.6875 C 33.875 609.914062 34.417969 610.238281 34.871094 610.660156 C 35.320312 611.085938 35.671875 611.574219 35.929688 612.128906 C 36.183594 612.683594 36.3125 613.296875 36.3125 613.972656 C 36.3125 614.71875 36.140625 615.40625 35.800781 616.03125 C 35.460938 616.660156 35.039062 617.234375 34.539062 617.757812 C 34.035156 618.28125 33.5 618.773438 32.9375 619.234375 C 32.371094 619.699219 31.859375 620.148438 31.402344 620.582031 L 28.851562 622.980469 L 32.1875 622.980469 C 32.652344 622.980469 33.089844 622.976562 33.488281 622.972656 C 33.894531 622.964844 34.234375 622.949219 34.515625 622.929688 C 34.796875 622.90625 34.941406 622.890625 34.949219 622.882812 C 35.007812 622.835938 35.0625 622.734375 35.113281 622.582031 C 35.164062 622.433594 35.214844 622.257812 35.257812 622.050781 C 35.300781 621.847656 35.347656 621.640625 35.390625 621.429688 C 35.4375 621.21875 35.476562 620.984375 35.511719 620.734375 L 36.332031 620.734375 Z M 35.625 624.980469 "/>
</g>
<g clip-path="url(#clip12)" clip-rule="nonzero">
<path style=" stroke:none;fill-rule:evenodd;fill:rgb(0%,0%,0%);fill-opacity:1;" d="M 346.730469 621.152344 L 346.730469 623.335938 C 346.730469 623.464844 346.753906 623.585938 346.800781 623.695312 C 346.851562 623.808594 346.929688 623.882812 347.039062 623.917969 C 347.210938 623.996094 347.488281 624.039062 347.871094 624.046875 C 348.257812 624.054688 348.644531 624.058594 349.035156 624.054688 L 349.035156 624.980469 C 347.90625 624.9375 346.796875 624.917969 345.710938 624.917969 C 344.640625 624.917969 343.511719 624.9375 342.332031 624.980469 L 342.332031 624.054688 C 342.738281 624.058594 343.128906 624.054688 343.507812 624.046875 C 343.882812 624.039062 344.164062 623.996094 344.347656 623.917969 C 344.457031 623.882812 344.539062 623.808594 344.59375 623.695312 C 344.644531 623.585938 344.667969 623.464844 344.667969 623.335938 L 344.667969 621.152344 L 338.351562 621.152344 L 338.351562 620.28125 L 345.753906 609.285156 C 345.851562 609.15625 345.972656 609.09375 346.121094 609.089844 L 346.363281 609.089844 C 346.609375 609.09375 346.730469 609.214844 346.730469 609.457031 L 346.730469 620.207031 L 349.113281 620.207031 L 349.113281 621.152344 Z M 344.78125 612.113281 L 339.328125 620.207031 L 344.78125 620.207031 Z M 344.78125 612.113281 "/>
</g>
<path style="fill:none;stroke-width:10;stroke-linecap:round;stroke-linejoin:round;stroke:rgb(0%,0%,0%);stroke-opacity:1;stroke-miterlimit:10;" d="M 2763.649946 1218.692509 L 985.453471 429.431426 " transform="matrix(0.119857,0,0,-0.119762,0,747.503759)"/>
<path style="fill:none;stroke-width:10;stroke-linecap:round;stroke-linejoin:round;stroke:rgb(0%,0%,0%);stroke-opacity:1;stroke-miterlimit:10;" d="M 2776.034519 928.990181 L 2307.506586 371.830175 " transform="matrix(0.119857,0,0,-0.119762,0,747.503759)"/>
<g clip-path="url(#clip13)" clip-rule="nonzero">
<path style=" stroke:none;fill-rule:evenodd;fill:rgb(0%,0%,0%);fill-opacity:1;" d="M 129.933594 716.34375 C 129.933594 716.960938 129.796875 717.554688 129.523438 718.117188 C 129.25 718.683594 128.886719 719.167969 128.425781 719.570312 C 127.910156 720.023438 127.339844 720.355469 126.714844 720.574219 C 126.089844 720.792969 125.4375 720.902344 124.757812 720.902344 C 124.144531 720.902344 123.546875 720.816406 122.964844 720.644531 C 122.378906 720.472656 121.855469 720.226562 121.382812 719.902344 C 120.914062 719.582031 120.539062 719.183594 120.257812 718.714844 C 119.976562 718.246094 119.835938 717.707031 119.835938 717.097656 C 119.835938 716.640625 119.992188 716.296875 120.296875 716.070312 C 120.605469 715.84375 120.929688 715.734375 121.265625 715.730469 C 121.621094 715.734375 121.953125 715.84375 122.257812 716.070312 C 122.566406 716.296875 122.71875 716.640625 122.71875 717.097656 C 122.71875 717.371094 122.667969 717.597656 122.558594 717.78125 C 122.453125 717.964844 122.316406 718.117188 122.148438 718.238281 C 121.980469 718.359375 121.792969 718.433594 121.578125 718.460938 C 121.46875 718.492188 121.363281 718.507812 121.265625 718.503906 C 121.171875 718.507812 121.15625 718.511719 121.222656 718.527344 C 121.453125 718.929688 121.902344 719.285156 122.574219 719.59375 C 123.246094 719.898438 123.976562 720.054688 124.757812 720.054688 C 125.128906 720.054688 125.472656 719.964844 125.792969 719.78125 C 126.117188 719.597656 126.382812 719.351562 126.597656 719.042969 C 126.863281 718.644531 127.046875 718.210938 127.140625 717.753906 C 127.238281 717.296875 127.285156 716.824219 127.285156 716.34375 C 127.285156 715.851562 127.238281 715.375 127.140625 714.921875 C 127.046875 714.464844 126.863281 714.042969 126.597656 713.65625 C 126.375 713.34375 126.105469 713.085938 125.789062 712.894531 C 125.472656 712.699219 125.128906 712.605469 124.757812 712.601562 L 123.152344 712.601562 C 122.9375 712.605469 122.824219 712.503906 122.808594 712.300781 L 122.808594 712.183594 C 122.808594 712.097656 122.835938 712.03125 122.886719 711.980469 C 122.953125 711.917969 123.035156 711.882812 123.140625 711.882812 C 123.355469 711.855469 123.578125 711.839844 123.804688 711.839844 C 124.027344 711.839844 124.246094 711.828125 124.460938 711.796875 C 124.859375 711.769531 125.207031 711.644531 125.5 711.425781 C 125.796875 711.207031 126.042969 710.929688 126.242188 710.589844 C 126.441406 710.25 126.59375 709.855469 126.699219 709.410156 C 126.800781 708.96875 126.851562 708.511719 126.851562 708.046875 C 126.851562 707.703125 126.816406 707.375 126.742188 707.066406 C 126.667969 706.757812 126.53125 706.488281 126.332031 706.261719 C 125.917969 705.789062 125.394531 705.554688 124.757812 705.5625 C 124.078125 705.5625 123.457031 705.691406 122.890625 705.945312 C 122.328125 706.199219 121.949219 706.472656 121.753906 706.765625 C 121.703125 706.773438 121.730469 706.777344 121.832031 706.777344 C 122.097656 706.777344 122.351562 706.855469 122.585938 707.011719 C 122.941406 707.222656 123.117188 707.574219 123.117188 708.066406 C 123.117188 708.484375 122.984375 708.796875 122.714844 709.007812 C 122.445312 709.21875 122.144531 709.324219 121.8125 709.324219 C 121.484375 709.324219 121.179688 709.222656 120.894531 709.011719 C 120.613281 708.804688 120.46875 708.488281 120.46875 708.066406 C 120.46875 707.542969 120.59375 707.082031 120.847656 706.679688 C 121.097656 706.277344 121.421875 705.933594 121.816406 705.648438 C 122.210938 705.363281 122.667969 705.144531 123.183594 704.992188 C 123.703125 704.84375 124.226562 704.765625 124.757812 704.765625 C 125.328125 704.765625 125.878906 704.84375 126.410156 704.992188 C 126.941406 705.144531 127.445312 705.375 127.917969 705.691406 C 128.300781 705.964844 128.625 706.300781 128.886719 706.695312 C 129.148438 707.09375 129.28125 707.542969 129.28125 708.046875 C 129.28125 708.546875 129.191406 709.019531 129.007812 709.464844 C 128.828125 709.910156 128.585938 710.3125 128.289062 710.667969 C 127.988281 711.027344 127.632812 711.34375 127.21875 711.613281 C 126.804688 711.886719 126.496094 712.058594 126.289062 712.128906 C 126.464844 712.152344 126.769531 712.257812 127.195312 712.449219 C 127.625 712.636719 128.035156 712.890625 128.425781 713.207031 C 128.886719 713.601562 129.25 714.070312 129.523438 714.621094 C 129.796875 715.167969 129.933594 715.742188 129.933594 716.34375 Z M 129.933594 716.34375 "/>
</g>
<g clip-path="url(#clip14)" clip-rule="nonzero">
<path style=" stroke:none;fill-rule:evenodd;fill:rgb(0%,0%,0%);fill-opacity:1;" d="M 262.285156 718.378906 C 262.285156 718.996094 262.148438 719.589844 261.875 720.15625 C 261.601562 720.722656 261.238281 721.207031 260.777344 721.605469 C 260.261719 722.058594 259.691406 722.394531 259.066406 722.609375 C 258.441406 722.828125 257.789062 722.9375 257.109375 722.9375 C 256.496094 722.9375 255.898438 722.851562 255.316406 722.679688 C 254.730469 722.507812 254.207031 722.261719 253.734375 721.941406 C 253.265625 721.617188 252.890625 721.222656 252.609375 720.75 C 252.332031 720.28125 252.191406 719.742188 252.191406 719.132812 C 252.191406 718.675781 252.34375 718.332031 252.648438 718.105469 C 252.957031 717.882812 253.28125 717.769531 253.621094 717.769531 C 253.972656 717.769531 254.304688 717.882812 254.609375 718.105469 C 254.917969 718.332031 255.070312 718.675781 255.070312 719.132812 C 255.070312 719.40625 255.019531 719.632812 254.910156 719.816406 C 254.804688 720 254.667969 720.152344 254.5 720.273438 C 254.335938 720.394531 254.144531 720.46875 253.929688 720.5 C 253.820312 720.527344 253.714844 720.542969 253.621094 720.542969 C 253.523438 720.542969 253.507812 720.550781 253.574219 720.5625 C 253.804688 720.964844 254.253906 721.320312 254.925781 721.628906 C 255.597656 721.9375 256.328125 722.089844 257.109375 722.089844 C 257.480469 722.089844 257.824219 722 258.144531 721.816406 C 258.46875 721.632812 258.734375 721.386719 258.949219 721.078125 C 259.214844 720.679688 259.398438 720.25 259.492188 719.789062 C 259.589844 719.332031 259.636719 718.863281 259.636719 718.378906 C 259.636719 717.886719 259.589844 717.414062 259.492188 716.957031 C 259.398438 716.5 259.214844 716.082031 258.949219 715.691406 C 258.726562 715.378906 258.457031 715.125 258.140625 714.929688 C 257.824219 714.738281 257.480469 714.640625 257.109375 714.640625 L 255.503906 714.640625 C 255.289062 714.640625 255.175781 714.539062 255.160156 714.339844 L 255.160156 714.21875 C 255.160156 714.132812 255.1875 714.066406 255.238281 714.015625 C 255.304688 713.953125 255.386719 713.917969 255.492188 713.917969 C 255.707031 713.890625 255.929688 713.875 256.15625 713.875 C 256.378906 713.875 256.597656 713.863281 256.8125 713.832031 C 257.210938 713.804688 257.558594 713.683594 257.851562 713.460938 C 258.148438 713.246094 258.398438 712.964844 258.59375 712.625 C 258.792969 712.285156 258.945312 711.890625 259.050781 711.445312 C 259.152344 711.003906 259.203125 710.546875 259.203125 710.082031 C 259.203125 709.738281 259.167969 709.410156 259.09375 709.101562 C 259.019531 708.796875 258.882812 708.527344 258.683594 708.296875 C 258.269531 707.824219 257.746094 707.589844 257.109375 707.597656 C 256.429688 707.597656 255.808594 707.726562 255.242188 707.980469 C 254.679688 708.234375 254.300781 708.507812 254.105469 708.800781 C 254.054688 708.808594 254.082031 708.8125 254.183594 708.8125 C 254.449219 708.8125 254.703125 708.890625 254.9375 709.050781 C 255.292969 709.257812 255.46875 709.609375 255.46875 710.101562 C 255.46875 710.519531 255.335938 710.832031 255.066406 711.042969 C 254.796875 711.253906 254.496094 711.359375 254.164062 711.359375 C 253.835938 711.359375 253.53125 711.257812 253.25 711.050781 C 252.964844 710.839844 252.820312 710.527344 252.820312 710.101562 C 252.820312 709.578125 252.945312 709.117188 253.199219 708.714844 C 253.449219 708.316406 253.773438 707.972656 254.167969 707.683594 C 254.5625 707.398438 255.019531 707.179688 255.535156 707.027344 C 256.054688 706.878906 256.578125 706.804688 257.109375 706.800781 C 257.679688 706.804688 258.230469 706.878906 258.761719 707.027344 C 259.292969 707.179688 259.796875 707.414062 260.269531 707.726562 C 260.652344 708 260.976562 708.335938 261.238281 708.730469 C 261.5 709.128906 261.632812 709.578125 261.632812 710.082031 C 261.632812 710.582031 261.542969 711.058594 261.359375 711.5 C 261.179688 711.945312 260.941406 712.347656 260.640625 712.703125 C 260.339844 713.0625 259.984375 713.378906 259.570312 713.652344 C 259.15625 713.921875 258.847656 714.09375 258.640625 714.167969 C 258.816406 714.1875 259.121094 714.292969 259.546875 714.484375 C 259.976562 714.675781 260.386719 714.925781 260.777344 715.242188 C 261.238281 715.636719 261.601562 716.105469 261.875 716.65625 C 262.148438 717.203125 262.285156 717.777344 262.285156 718.378906 Z M 262.285156 718.378906 "/>
</g>
</g>
</svg>
